{
	"asset":{
		"generator":"Khronos glTF Blender I/O v3.6.27",
		"version":"2.0"
	},
	"extensionsUsed":[
		"KHR_materials_emissive_strength"
	],
	"scene":0,
	"scenes":[
		{
			"name":"Scene",
			"nodes":[
				0,
				1,
				2,
				3,
				4,
				5,
				6,
				7
			]
		}
	],
	"nodes":[
		{
			"mesh":0,
			"name":"Curve",
			"scale":[
				18.673721313476562,
				18.673721313476562,
				18.673721313476562
			],
			"translation":[
				-0.45030808448791504,
				0.9487156867980957,
				-2.9023261070251465
			]
		},
		{
			"mesh":1,
			"name":"Curve.001",
			"scale":[
				18.673721313476562,
				18.673721313476562,
				18.673721313476562
			],
			"translation":[
				-1.396857500076294,
				0.9487156867980957,
				0.8823885917663574
			]
		},
		{
			"mesh":2,
			"name":"Curve.002",
			"scale":[
				18.673721313476562,
				18.673721313476562,
				18.673721313476562
			],
			"translation":[
				-1.5540087223052979,
				0.9487156867980957,
				0.9767627716064453
			]
		},
		{
			"mesh":3,
			"name":"Curve.003",
			"scale":[
				18.673721313476562,
				18.673721313476562,
				18.673721313476562
			],
			"translation":[
				0.3878612518310547,
				0.9487156867980957,
				-2.901609420776367
			]
		},
		{
			"mesh":4,
			"name":"Curve.004",
			"scale":[
				18.673721313476562,
				18.673721313476562,
				18.673721313476562
			],
			"translation":[
				0.039717674255371094,
				0.9487156867980957,
				-1.6014962196350098
			]
		},
		{
			"mesh":5,
			"name":"Curve.005",
			"scale":[
				18.673721313476562,
				18.673721313476562,
				18.673721313476562
			],
			"translation":[
				0.04434680938720703,
				0.9487156867980957,
				-0.8135855197906494
			]
		},
		{
			"mesh":6,
			"name":"Curve.006",
			"scale":[
				18.673721313476562,
				18.673721313476562,
				18.673721313476562
			],
			"translation":[
				1.3344182968139648,
				0.9487156867980957,
				0.8831188678741455
			]
		},
		{
			"mesh":7,
			"name":"Curve.007",
			"scale":[
				18.673721313476562,
				18.673721313476562,
				18.673721313476562
			],
			"translation":[
				1.7605023384094238,
				0.9487156867980957,
				1.3524913787841797
			]
		}
	],
	"materials":[
		{
			"doubleSided":true,
			"name":"Metal",
			"pbrMetallicRoughness":{
				"baseColorTexture":{
					"index":0
				},
				"roughnessFactor":0.15000000596046448
			}
		},
		{
			"doubleSided":true,
			"emissiveFactor":[
				0.01726563461124897,
				1,
				0.5654140710830688
			],
			"extensions":{
				"KHR_materials_emissive_strength":{
					"emissiveStrength":20
				}
			},
			"name":"Material.001",
			"pbrMetallicRoughness":{
				"baseColorFactor":[
					0.014148225076496601,
					0.8000000715255737,
					0.33051034808158875,
					1
				],
				"metallicFactor":0,
				"roughnessFactor":0.5
			}
		}
	],
	"meshes":[
		{
			"name":"Curve",
			"primitives":[
				{
					"attributes":{
						"POSITION":0,
						"NORMAL":1,
						"TEXCOORD_0":2
					},
					"indices":3,
					"material":0
				}
			]
		},
		{
			"name":"Curve.001",
			"primitives":[
				{
					"attributes":{
						"POSITION":4,
						"NORMAL":5,
						"TEXCOORD_0":6
					},
					"indices":7,
					"material":0
				}
			]
		},
		{
			"name":"Curve.002",
			"primitives":[
				{
					"attributes":{
						"POSITION":8,
						"NORMAL":9,
						"TEXCOORD_0":10
					},
					"indices":11,
					"material":1
				}
			]
		},
		{
			"name":"Curve.003",
			"primitives":[
				{
					"attributes":{
						"POSITION":12,
						"NORMAL":13,
						"TEXCOORD_0":14
					},
					"indices":15,
					"material":0
				}
			]
		},
		{
			"name":"Curve.004",
			"primitives":[
				{
					"attributes":{
						"POSITION":16,
						"NORMAL":17,
						"TEXCOORD_0":18
					},
					"indices":19,
					"material":1
				}
			]
		},
		{
			"name":"Curve.005",
			"primitives":[
				{
					"attributes":{
						"POSITION":20,
						"NORMAL":21,
						"TEXCOORD_0":22
					},
					"indices":23,
					"material":0
				}
			]
		},
		{
			"name":"Curve.006",
			"primitives":[
				{
					"attributes":{
						"POSITION":24,
						"NORMAL":25,
						"TEXCOORD_0":26
					},
					"indices":27,
					"material":0
				}
			]
		},
		{
			"name":"Curve.007",
			"primitives":[
				{
					"attributes":{
						"POSITION":28,
						"NORMAL":29,
						"TEXCOORD_0":30
					},
					"indices":31,
					"material":1
				}
			]
		}
	],
	"textures":[
		{
			"sampler":0,
			"source":0
		}
	],
	"images":[
		{
			"bufferView":4,
			"mimeType":"image/jpeg",
			"name":"Metal_Texture"
		}
	],
	"accessors":[
		{
			"bufferView":0,
			"componentType":5126,
			"count":4,
			"max":[
				0.014792680740356445,
				0,
				0.05844441056251526
			],
			"min":[
				-0.012622937560081482,
				0,
				-0.06021586060523987
			],
			"type":"VEC3"
		},
		{
			"bufferView":1,
			"componentType":5126,
			"count":4,
			"type":"VEC3"
		},
		{
			"bufferView":2,
			"componentType":5126,
			"count":4,
			"type":"VEC2"
		},
		{
			"bufferView":3,
			"componentType":5123,
			"count":6,
			"type":"SCALAR"
		},
		{
			"bufferView":5,
			"componentType":5126,
			"count":13,
			"max":[
				0.06426794826984406,
				0,
				0.1109982281923294
			],
			"min":[
				-0.13071207702159882,
				0,
				-0.07398858666419983
			],
			"type":"VEC3"
		},
		{
			"bufferView":6,
			"componentType":5126,
			"count":13,
			"type":"VEC3"
		},
		{
			"bufferView":7,
			"componentType":5126,
			"count":13,
			"type":"VEC2"
		},
		{
			"bufferView":8,
			"componentType":5123,
			"count":33,
			"type":"SCALAR"
		},
		{
			"bufferView":9,
			"componentType":5126,
			"count":3,
			"max":[
				0.023939982056617737,
				0,
				0.05528385937213898
			],
			"min":[
				-0.04638558626174927,
				0,
				-0.025041043758392334
			],
			"type":"VEC3"
		},
		{
			"bufferView":10,
			"componentType":5126,
			"count":3,
			"type":"VEC3"
		},
		{
			"bufferView":11,
			"componentType":5126,
			"count":3,
			"type":"VEC2"
		},
		{
			"bufferView":12,
			"componentType":5123,
			"count":3,
			"type":"SCALAR"
		},
		{
			"bufferView":13,
			"componentType":5126,
			"count":4,
			"max":[
				0.012622937560081482,
				0,
				0.05844271183013916
			],
			"min":[
				-0.01479269564151764,
				0,
				-0.060214728116989136
			],
			"type":"VEC3"
		},
		{
			"bufferView":14,
			"componentType":5126,
			"count":4,
			"type":"VEC3"
		},
		{
			"bufferView":15,
			"componentType":5126,
			"count":4,
			"type":"VEC2"
		},
		{
			"bufferView":16,
			"componentType":5123,
			"count":6,
			"type":"SCALAR"
		},
		{
			"bufferView":17,
			"componentType":5126,
			"count":6,
			"max":[
				0.022788286209106445,
				0,
				0.07255637645721436
			],
			"min":[
				-0.03038628399372101,
				0,
				-0.1189626008272171
			],
			"type":"VEC3"
		},
		{
			"bufferView":18,
			"componentType":5126,
			"count":6,
			"type":"VEC3"
		},
		{
			"bufferView":19,
			"componentType":5126,
			"count":6,
			"type":"VEC2"
		},
		{
			"bufferView":20,
			"componentType":5123,
			"count":12,
			"type":"SCALAR"
		},
		{
			"bufferView":21,
			"componentType":5126,
			"count":14,
			"max":[
				0.05664484202861786,
				0,
				0.08384501934051514
			],
			"min":[
				-0.06473860144615173,
				0,
				-0.0501369833946228
			],
			"type":"VEC3"
		},
		{
			"bufferView":22,
			"componentType":5126,
			"count":14,
			"type":"VEC3"
		},
		{
			"bufferView":23,
			"componentType":5126,
			"count":14,
			"type":"VEC2"
		},
		{
			"bufferView":24,
			"componentType":5123,
			"count":36,
			"type":"SCALAR"
		},
		{
			"bufferView":25,
			"componentType":5126,
			"count":13,
			"max":[
				0.1307116448879242,
				0,
				0.11099857836961746
			],
			"min":[
				-0.06426839530467987,
				0,
				-0.073988176882267
			],
			"type":"VEC3"
		},
		{
			"bufferView":26,
			"componentType":5126,
			"count":13,
			"type":"VEC3"
		},
		{
			"bufferView":27,
			"componentType":5126,
			"count":13,
			"type":"VEC2"
		},
		{
			"bufferView":28,
			"componentType":5123,
			"count":33,
			"type":"SCALAR"
		},
		{
			"bufferView":29,
			"componentType":5126,
			"count":3,
			"max":[
				0.03198349475860596,
				0,
				0.03520262986421585
			],
			"min":[
				-0.03834208846092224,
				0,
				-0.045122258365154266
			],
			"type":"VEC3"
		},
		{
			"bufferView":30,
			"componentType":5126,
			"count":3,
			"type":"VEC3"
		},
		{
			"bufferView":31,
			"componentType":5126,
			"count":3,
			"type":"VEC2"
		},
		{
			"bufferView":32,
			"componentType":5123,
			"count":3,
			"type":"SCALAR"
		}
	],
	"bufferViews":[
		{
			"buffer":0,
			"byteLength":48,
			"byteOffset":0,
			"target":34962
		},
		{
			"buffer":0,
			"byteLength":48,
			"byteOffset":48,
			"target":34962
		},
		{
			"buffer":0,
			"byteLength":32,
			"byteOffset":96,
			"target":34962
		},
		{
			"buffer":0,
			"byteLength":12,
			"byteOffset":128,
			"target":34963
		},
		{
			"buffer":0,
			"byteLength":1708711,
			"byteOffset":140
		},
		{
			"buffer":0,
			"byteLength":156,
			"byteOffset":1708852,
			"target":34962
		},
		{
			"buffer":0,
			"byteLength":156,
			"byteOffset":1709008,
			"target":34962
		},
		{
			"buffer":0,
			"byteLength":104,
			"byteOffset":1709164,
			"target":34962
		},
		{
			"buffer":0,
			"byteLength":66,
			"byteOffset":1709268,
			"target":34963
		},
		{
			"buffer":0,
			"byteLength":36,
			"byteOffset":1709336,
			"target":34962
		},
		{
			"buffer":0,
			"byteLength":36,
			"byteOffset":1709372,
			"target":34962
		},
		{
			"buffer":0,
			"byteLength":24,
			"byteOffset":1709408,
			"target":34962
		},
		{
			"buffer":0,
			"byteLength":6,
			"byteOffset":1709432,
			"target":34963
		},
		{
			"buffer":0,
			"byteLength":48,
			"byteOffset":1709440,
			"target":34962
		},
		{
			"buffer":0,
			"byteLength":48,
			"byteOffset":1709488,
			"target":34962
		},
		{
			"buffer":0,
			"byteLength":32,
			"byteOffset":1709536,
			"target":34962
		},
		{
			"buffer":0,
			"byteLength":12,
			"byteOffset":1709568,
			"target":34963
		},
		{
			"buffer":0,
			"byteLength":72,
			"byteOffset":1709580,
			"target":34962
		},
		{
			"buffer":0,
			"byteLength":72,
			"byteOffset":1709652,
			"target":34962
		},
		{
			"buffer":0,
			"byteLength":48,
			"byteOffset":1709724,
			"target":34962
		},
		{
			"buffer":0,
			"byteLength":24,
			"byteOffset":1709772,
			"target":34963
		},
		{
			"buffer":0,
			"byteLength":168,
			"byteOffset":1709796,
			"target":34962
		},
		{
			"buffer":0,
			"byteLength":168,
			"byteOffset":1709964,
			"target":34962
		},
		{
			"buffer":0,
			"byteLength":112,
			"byteOffset":1710132,
			"target":34962
		},
		{
			"buffer":0,
			"byteLength":72,
			"byteOffset":1710244,
			"target":34963
		},
		{
			"buffer":0,
			"byteLength":156,
			"byteOffset":1710316,
			"target":34962
		},
		{
			"buffer":0,
			"byteLength":156,
			"byteOffset":1710472,
			"target":34962
		},
		{
			"buffer":0,
			"byteLength":104,
			"byteOffset":1710628,
			"target":34962
		},
		{
			"buffer":0,
			"byteLength":66,
			"byteOffset":1710732,
			"target":34963
		},
		{
			"buffer":0,
			"byteLength":36,
			"byteOffset":1710800,
			"target":34962
		},
		{
			"buffer":0,
			"byteLength":36,
			"byteOffset":1710836,
			"target":34962
		},
		{
			"buffer":0,
			"byteLength":24,
			"byteOffset":1710872,
			"target":34962
		},
		{
			"buffer":0,
			"byteLength":6,
			"byteOffset":1710896,
			"target":34963
		}
	],
	"samplers":[
		{
			"magFilter":9729,
			"minFilter":9987
		}
	],
	"buffers":[
		{
			"byteLength":1710904,
			"uri":"data:application/octet-stream;base64,"
		}
	]
}
