{
	"asset":{
		"generator":"Khronos glTF Blender I/O v3.6.27",
		"version":"2.0"
	},
	"scene":0,
	"scenes":[
		{
			"name":"Scene",
			"nodes":[
				0,
				1,
				2,
				3,
				4,
				5,
				6,
				7
			]
		}
	],
	"nodes":[
		{
			"mesh":0,
			"name":"Curve",
			"rotation":[
				0.7071280479431152,
				6.101924736867659e-05,
				-6.102291081333533e-05,
				0.7070854902267456
			],
			"scale":[
				9.00925064086914,
				9.00925064086914,
				9.00925064086914
			],
			"translation":[
				0,
				-0.4875570833683014,
				0
			]
		},
		{
			"mesh":1,
			"name":"Curve.001",
			"rotation":[
				0.7071280479431152,
				0,
				0,
				0.7070854902267456
			],
			"scale":[
				9.00925064086914,
				9.00925064086914,
				9.00925064086914
			],
			"translation":[
				-0.23930597305297852,
				3.3588781356811523,
				-0.04715198278427124
			]
		},
		{
			"mesh":2,
			"name":"Curve.002",
			"rotation":[
				0.7071280479431152,
				6.101924736867659e-05,
				-6.102291081333533e-05,
				0.7070854902267456
			],
			"scale":[
				9.00925064086914,
				9.00925064086914,
				9.00925064086914
			],
			"translation":[
				0,
				-0.4875570833683014,
				0
			]
		},
		{
			"mesh":3,
			"name":"Curve.003",
			"rotation":[
				0.7071280479431152,
				6.101924736867659e-05,
				-6.102291081333533e-05,
				0.7070854902267456
			],
			"scale":[
				9.00925064086914,
				9.00925064086914,
				9.00925064086914
			],
			"translation":[
				0,
				-0.4875570833683014,
				0
			]
		},
		{
			"mesh":4,
			"name":"Curve.004",
			"rotation":[
				0.7071280479431152,
				0,
				0,
				0.7070854902267456
			],
			"scale":[
				9.00925064086914,
				9.00925064086914,
				9.00925064086914
			],
			"translation":[
				0.25623083114624023,
				3.3588781356811523,
				0
			]
		},
		{
			"mesh":5,
			"name":"Curve.005",
			"rotation":[
				0.7071280479431152,
				6.101924736867659e-05,
				-6.102291081333533e-05,
				0.7070854902267456
			],
			"scale":[
				9.00925064086914,
				9.00925064086914,
				9.00925064086914
			],
			"translation":[
				0,
				-0.4875570833683014,
				0
			]
		},
		{
			"mesh":6,
			"name":"Curve.006",
			"rotation":[
				0.7071280479431152,
				0,
				0,
				0.7070854902267456
			],
			"scale":[
				9.00925064086914,
				9.00925064086914,
				9.00925064086914
			],
			"translation":[
				0.0271759033203125,
				2.4046308994293213,
				-0.030045971274375916
			]
		},
		{
			"mesh":7,
			"name":"Curve.007",
			"rotation":[
				0.7071280479431152,
				0,
				0,
				0.7070854902267456
			],
			"scale":[
				9.00925064086914,
				9.00925064086914,
				9.00925064086914
			],
			"translation":[
				0.008461952209472656,
				2.7595009803771973,
				-0.047187939286231995
			]
		}
	],
	"materials":[
		{
			"doubleSided":true,
			"name":"Material",
			"pbrMetallicRoughness":{
				"baseColorFactor":[
					0.800000011920929,
					0.800000011920929,
					0.800000011920929,
					1
				],
				"roughnessFactor":0.5
			}
		}
	],
	"meshes":[
		{
			"name":"Curve",
			"primitives":[
				{
					"attributes":{
						"POSITION":0,
						"NORMAL":1,
						"TEXCOORD_0":2
					},
					"indices":3,
					"material":0
				}
			]
		},
		{
			"name":"Curve.001",
			"primitives":[
				{
					"attributes":{
						"POSITION":4,
						"NORMAL":5,
						"TEXCOORD_0":6
					},
					"indices":7,
					"material":0
				}
			]
		},
		{
			"name":"Curve.002",
			"primitives":[
				{
					"attributes":{
						"POSITION":8,
						"NORMAL":9,
						"TEXCOORD_0":10
					},
					"indices":11,
					"material":0
				}
			]
		},
		{
			"name":"Curve.003",
			"primitives":[
				{
					"attributes":{
						"POSITION":12,
						"NORMAL":13,
						"TEXCOORD_0":14
					},
					"indices":15,
					"material":0
				}
			]
		},
		{
			"name":"Curve.004",
			"primitives":[
				{
					"attributes":{
						"POSITION":16,
						"NORMAL":17,
						"TEXCOORD_0":18
					},
					"indices":19,
					"material":0
				}
			]
		},
		{
			"name":"Curve.005",
			"primitives":[
				{
					"attributes":{
						"POSITION":20,
						"NORMAL":21,
						"TEXCOORD_0":22
					},
					"indices":23,
					"material":0
				}
			]
		},
		{
			"name":"Curve.006",
			"primitives":[
				{
					"attributes":{
						"POSITION":24,
						"NORMAL":25,
						"TEXCOORD_0":26
					},
					"indices":27,
					"material":0
				}
			]
		},
		{
			"name":"Curve.007",
			"primitives":[
				{
					"attributes":{
						"POSITION":28,
						"NORMAL":29,
						"TEXCOORD_0":30
					},
					"indices":31,
					"material":0
				}
			]
		}
	],
	"accessors":[
		{
			"bufferView":0,
			"componentType":5126,
			"count":13841,
			"max":[
				-0.013112008571624756,
				0.027171485126018524,
				-0.08106239885091782
			],
			"min":[
				-0.23221872746944427,
				-0.026408622041344643,
				-0.2875864803791046
			],
			"type":"VEC3"
		},
		{
			"bufferView":1,
			"componentType":5126,
			"count":13841,
			"type":"VEC3"
		},
		{
			"bufferView":2,
			"componentType":5126,
			"count":13841,
			"type":"VEC2"
		},
		{
			"bufferView":3,
			"componentType":5123,
			"count":21384,
			"type":"SCALAR"
		},
		{
			"bufferView":4,
			"componentType":5126,
			"count":3344,
			"max":[
				0.019502507522702217,
				0.02976672723889351,
				0.05694145709276199
			],
			"min":[
				-0.013139307498931885,
				-0.023813381791114807,
				-0.07419037073850632
			],
			"type":"VEC3"
		},
		{
			"bufferView":5,
			"componentType":5126,
			"count":3344,
			"type":"VEC3"
		},
		{
			"bufferView":6,
			"componentType":5126,
			"count":3344,
			"type":"VEC2"
		},
		{
			"bufferView":7,
			"componentType":5123,
			"count":5076,
			"type":"SCALAR"
		},
		{
			"bufferView":8,
			"componentType":5126,
			"count":162,
			"max":[
				-0.06673122942447662,
				0.02746383100748062,
				-0.1423371434211731
			],
			"min":[
				-0.1378512978553772,
				-0.026116274297237396,
				-0.22313790023326874
			],
			"type":"VEC3"
		},
		{
			"bufferView":9,
			"componentType":5126,
			"count":162,
			"type":"VEC3"
		},
		{
			"bufferView":10,
			"componentType":5126,
			"count":162,
			"type":"VEC2"
		},
		{
			"bufferView":11,
			"componentType":5123,
			"count":240,
			"type":"SCALAR"
		},
		{
			"bufferView":12,
			"componentType":5126,
			"count":13841,
			"max":[
				0.23059087991714478,
				0.027336403727531433,
				-0.08106241375207901
			],
			"min":[
				0.011484166607260704,
				-0.026243705302476883,
				-0.2875865399837494
			],
			"type":"VEC3"
		},
		{
			"bufferView":13,
			"componentType":5126,
			"count":13841,
			"type":"VEC3"
		},
		{
			"bufferView":14,
			"componentType":5126,
			"count":13841,
			"type":"VEC2"
		},
		{
			"bufferView":15,
			"componentType":5123,
			"count":21384,
			"type":"SCALAR"
		},
		{
			"bufferView":16,
			"componentType":5126,
			"count":3344,
			"max":[
				0.01313924789428711,
				0.02976672723889351,
				0.05694145709276199
			],
			"min":[
				-0.019502565264701843,
				-0.023813379928469658,
				-0.07419037073850632
			],
			"type":"VEC3"
		},
		{
			"bufferView":17,
			"componentType":5126,
			"count":3344,
			"type":"VEC3"
		},
		{
			"bufferView":18,
			"componentType":5126,
			"count":3344,
			"type":"VEC2"
		},
		{
			"bufferView":19,
			"componentType":5123,
			"count":5076,
			"type":"SCALAR"
		},
		{
			"bufferView":20,
			"componentType":5126,
			"count":162,
			"max":[
				0.14237383008003235,
				0.027366383001208305,
				-0.14233709871768951
			],
			"min":[
				0.07125375419855118,
				-0.026213722303509712,
				-0.22313788533210754
			],
			"type":"VEC3"
		},
		{
			"bufferView":21,
			"componentType":5126,
			"count":162,
			"type":"VEC3"
		},
		{
			"bufferView":22,
			"componentType":5126,
			"count":162,
			"type":"VEC2"
		},
		{
			"bufferView":23,
			"componentType":5123,
			"count":240,
			"type":"SCALAR"
		},
		{
			"bufferView":24,
			"componentType":5126,
			"count":12676,
			"max":[
				0.06495348364114761,
				0.02786165662109852,
				0.10543673485517502
			],
			"min":[
				-0.06910780817270279,
				-0.025718452408909798,
				-0.042285457253456116
			],
			"type":"VEC3"
		},
		{
			"bufferView":25,
			"componentType":5126,
			"count":12676,
			"type":"VEC3"
		},
		{
			"bufferView":26,
			"componentType":5126,
			"count":12676,
			"type":"VEC2"
		},
		{
			"bufferView":27,
			"componentType":5123,
			"count":19572,
			"type":"SCALAR"
		},
		{
			"bufferView":28,
			"componentType":5126,
			"count":682,
			"max":[
				0.0284613948315382,
				0.02976672537624836,
				0.08475609868764877
			],
			"min":[
				-0.0284613948315382,
				-0.023813379928469658,
				-0.1123899519443512
			],
			"type":"VEC3"
		},
		{
			"bufferView":29,
			"componentType":5126,
			"count":682,
			"type":"VEC3"
		},
		{
			"bufferView":30,
			"componentType":5126,
			"count":682,
			"type":"VEC2"
		},
		{
			"bufferView":31,
			"componentType":5123,
			"count":1044,
			"type":"SCALAR"
		}
	],
	"bufferViews":[
		{
			"buffer":0,
			"byteLength":166092,
			"byteOffset":0,
			"target":34962
		},
		{
			"buffer":0,
			"byteLength":166092,
			"byteOffset":166092,
			"target":34962
		},
		{
			"buffer":0,
			"byteLength":110728,
			"byteOffset":332184,
			"target":34962
		},
		{
			"buffer":0,
			"byteLength":42768,
			"byteOffset":442912,
			"target":34963
		},
		{
			"buffer":0,
			"byteLength":40128,
			"byteOffset":485680,
			"target":34962
		},
		{
			"buffer":0,
			"byteLength":40128,
			"byteOffset":525808,
			"target":34962
		},
		{
			"buffer":0,
			"byteLength":26752,
			"byteOffset":565936,
			"target":34962
		},
		{
			"buffer":0,
			"byteLength":10152,
			"byteOffset":592688,
			"target":34963
		},
		{
			"buffer":0,
			"byteLength":1944,
			"byteOffset":602840,
			"target":34962
		},
		{
			"buffer":0,
			"byteLength":1944,
			"byteOffset":604784,
			"target":34962
		},
		{
			"buffer":0,
			"byteLength":1296,
			"byteOffset":606728,
			"target":34962
		},
		{
			"buffer":0,
			"byteLength":480,
			"byteOffset":608024,
			"target":34963
		},
		{
			"buffer":0,
			"byteLength":166092,
			"byteOffset":608504,
			"target":34962
		},
		{
			"buffer":0,
			"byteLength":166092,
			"byteOffset":774596,
			"target":34962
		},
		{
			"buffer":0,
			"byteLength":110728,
			"byteOffset":940688,
			"target":34962
		},
		{
			"buffer":0,
			"byteLength":42768,
			"byteOffset":1051416,
			"target":34963
		},
		{
			"buffer":0,
			"byteLength":40128,
			"byteOffset":1094184,
			"target":34962
		},
		{
			"buffer":0,
			"byteLength":40128,
			"byteOffset":1134312,
			"target":34962
		},
		{
			"buffer":0,
			"byteLength":26752,
			"byteOffset":1174440,
			"target":34962
		},
		{
			"buffer":0,
			"byteLength":10152,
			"byteOffset":1201192,
			"target":34963
		},
		{
			"buffer":0,
			"byteLength":1944,
			"byteOffset":1211344,
			"target":34962
		},
		{
			"buffer":0,
			"byteLength":1944,
			"byteOffset":1213288,
			"target":34962
		},
		{
			"buffer":0,
			"byteLength":1296,
			"byteOffset":1215232,
			"target":34962
		},
		{
			"buffer":0,
			"byteLength":480,
			"byteOffset":1216528,
			"target":34963
		},
		{
			"buffer":0,
			"byteLength":152112,
			"byteOffset":1217008,
			"target":34962
		},
		{
			"buffer":0,
			"byteLength":152112,
			"byteOffset":1369120,
			"target":34962
		},
		{
			"buffer":0,
			"byteLength":101408,
			"byteOffset":1521232,
			"target":34962
		},
		{
			"buffer":0,
			"byteLength":39144,
			"byteOffset":1622640,
			"target":34963
		},
		{
			"buffer":0,
			"byteLength":8184,
			"byteOffset":1661784,
			"target":34962
		},
		{
			"buffer":0,
			"byteLength":8184,
			"byteOffset":1669968,
			"target":34962
		},
		{
			"buffer":0,
			"byteLength":5456,
			"byteOffset":1678152,
			"target":34962
		},
		{
			"buffer":0,
			"byteLength":2088,
			"byteOffset":1683608,
			"target":34963
		}
	],
	"buffers":[
		{
			"byteLength":1685696,
			"uri":"data:application/octet-stream;base64,"
		}
	]
}
