<svg width="772" height="91" viewBox="0 0 772 91" fill="none" xmlns="http://www.w3.org/2000/svg">
<path d="M1.64 0.999999H10.48V3.52H4.28V6.72H10.24V9.24H4.28V12.48H10.72V15H1.64V0.999999ZM13.7061 5.08H16.4261L18.7661 13.8H19.1261L21.4661 5.08H24.1861L21.3461 15H16.5461L13.7061 5.08ZM33.6722 13.56C33.4055 14.1867 33.0322 14.6333 32.5522 14.9C32.0722 15.1533 31.5122 15.28 30.8722 15.28C30.2722 15.28 29.7055 15.1667 29.1722 14.94C28.6522 14.7133 28.1922 14.38 27.7922 13.94C27.3922 13.5 27.0722 12.9667 26.8322 12.34C26.6055 11.7133 26.4922 11 26.4922 10.2V9.88C26.4922 9.09333 26.6055 8.38667 26.8322 7.76C27.0589 7.13333 27.3655 6.6 27.7522 6.16C28.1389 5.72 28.5855 5.38667 29.0922 5.16C29.6122 4.92 30.1655 4.8 30.7522 4.8C31.4589 4.8 32.0255 4.92 32.4522 5.16C32.8922 5.4 33.2389 5.77333 33.4922 6.28H33.8522V5.08H36.3722V12C36.3722 12.4 36.5522 12.6 36.9122 12.6H37.2922V15H35.5722C35.1189 15 34.7455 14.8667 34.4522 14.6C34.1722 14.3333 34.0322 13.9867 34.0322 13.56H33.6722ZM31.4322 12.88C32.1655 12.88 32.7522 12.64 33.1922 12.16C33.6322 11.6667 33.8522 11 33.8522 10.16V9.92C33.8522 9.08 33.6322 8.42 33.1922 7.94C32.7522 7.44667 32.1655 7.2 31.4322 7.2C30.6989 7.2 30.1122 7.44667 29.6722 7.94C29.2322 8.42 29.0122 9.08 29.0122 9.92V10.16C29.0122 11 29.2322 11.6667 29.6722 12.16C30.1122 12.64 30.6989 12.88 31.4322 12.88ZM40.0383 12.6H43.5183V3.4H40.1583V0.999999H46.0383V12.6H49.2783V15H40.0383V12.6ZM59.6644 5.08H62.1844V15H59.6644V13.56H59.3044C58.8644 14.7067 57.9177 15.28 56.4644 15.28C55.971 15.28 55.511 15.2 55.0844 15.04C54.6577 14.88 54.2844 14.6333 53.9644 14.3C53.6444 13.9667 53.391 13.5533 53.2044 13.06C53.031 12.5533 52.9444 11.96 52.9444 11.28V5.08H55.4644V10.76C55.4644 11.4667 55.631 12.02 55.9644 12.42C56.2977 12.8067 56.7977 13 57.4644 13C58.2244 13 58.7777 12.76 59.1244 12.28C59.4844 11.7867 59.6644 11.12 59.6644 10.28V5.08ZM72.2105 13.56C71.9438 14.1867 71.5705 14.6333 71.0905 14.9C70.6105 15.1533 70.0505 15.28 69.4105 15.28C68.8105 15.28 68.2438 15.1667 67.7105 14.94C67.1905 14.7133 66.7305 14.38 66.3305 13.94C65.9305 13.5 65.6105 12.9667 65.3705 12.34C65.1438 11.7133 65.0305 11 65.0305 10.2V9.88C65.0305 9.09333 65.1438 8.38667 65.3705 7.76C65.5971 7.13333 65.9038 6.6 66.2905 6.16C66.6771 5.72 67.1238 5.38667 67.6305 5.16C68.1505 4.92 68.7038 4.8 69.2905 4.8C69.9971 4.8 70.5638 4.92 70.9905 5.16C71.4305 5.4 71.7771 5.77333 72.0305 6.28H72.3905V5.08H74.9105V12C74.9105 12.4 75.0905 12.6 75.4505 12.6H75.8305V15H74.1105C73.6571 15 73.2838 14.8667 72.9905 14.6C72.7105 14.3333 72.5705 13.9867 72.5705 13.56H72.2105ZM69.9705 12.88C70.7038 12.88 71.2905 12.64 71.7305 12.16C72.1705 11.6667 72.3905 11 72.3905 10.16V9.92C72.3905 9.08 72.1705 8.42 71.7305 7.94C71.2905 7.44667 70.7038 7.2 69.9705 7.2C69.2371 7.2 68.6505 7.44667 68.2105 7.94C67.7705 8.42 67.5505 9.08 67.5505 9.92V10.16C67.5505 11 67.7705 11.6667 68.2105 12.16C68.6505 12.64 69.2371 12.88 69.9705 12.88ZM78.3566 5.08H81.2966V0.999999H83.8166V5.08H87.3966V7.48H83.8166V12C83.8166 12.4 83.9966 12.6 84.3566 12.6H87.0366V15H82.8366C82.3832 15 82.0099 14.8533 81.7166 14.56C81.4366 14.2667 81.2966 13.8933 81.2966 13.44V7.48H78.3566V5.08ZM91.6627 12.6H95.0227V7.48H91.9027V5.08H97.5427V12.6H100.423V15H91.6627V12.6ZM98.1627 2.14C98.1627 2.40667 98.1093 2.66 98.0027 2.9C97.9093 3.12667 97.776 3.32667 97.6027 3.5C97.4293 3.66 97.2227 3.79333 96.9827 3.9C96.756 3.99333 96.516 4.04 96.2627 4.04C95.996 4.04 95.7493 3.99333 95.5227 3.9C95.296 3.79333 95.096 3.66 94.9227 3.5C94.7493 3.32667 94.6093 3.12667 94.5027 2.9C94.4093 2.66 94.3627 2.40667 94.3627 2.14C94.3627 1.87333 94.4093 1.62667 94.5027 1.4C94.6093 1.16 94.7493 0.96 94.9227 0.799999C95.096 0.626666 95.296 0.493333 95.5227 0.4C95.7493 0.293333 95.996 0.239999 96.2627 0.239999C96.516 0.239999 96.756 0.293333 96.9827 0.4C97.2227 0.493333 97.4293 0.626666 97.6027 0.799999C97.776 0.96 97.9093 1.16 98.0027 1.4C98.1093 1.62667 98.1627 1.87333 98.1627 2.14ZM114.049 10.16C114.049 10.9867 113.909 11.72 113.629 12.36C113.349 12.9867 112.969 13.52 112.489 13.96C112.009 14.3867 111.455 14.7133 110.829 14.94C110.215 15.1667 109.569 15.28 108.889 15.28C108.209 15.28 107.555 15.1667 106.929 14.94C106.315 14.7133 105.769 14.3867 105.289 13.96C104.809 13.52 104.429 12.9867 104.149 12.36C103.869 11.72 103.729 10.9867 103.729 10.16V9.92C103.729 9.10667 103.869 8.38667 104.149 7.76C104.429 7.12 104.809 6.58 105.289 6.14C105.769 5.7 106.315 5.36667 106.929 5.14C107.555 4.91333 108.209 4.8 108.889 4.8C109.569 4.8 110.215 4.91333 110.829 5.14C111.455 5.36667 112.009 5.7 112.489 6.14C112.969 6.58 113.349 7.12 113.629 7.76C113.909 8.38667 114.049 9.10667 114.049 9.92V10.16ZM108.889 12.88C109.249 12.88 109.589 12.82 109.909 12.7C110.229 12.58 110.509 12.4067 110.749 12.18C110.989 11.9533 111.175 11.68 111.309 11.36C111.455 11.0267 111.529 10.6533 111.529 10.24V9.84C111.529 9.42667 111.455 9.06 111.309 8.74C111.175 8.40667 110.989 8.12667 110.749 7.9C110.509 7.67333 110.229 7.5 109.909 7.38C109.589 7.26 109.249 7.2 108.889 7.2C108.529 7.2 108.189 7.26 107.869 7.38C107.549 7.5 107.269 7.67333 107.029 7.9C106.789 8.12667 106.595 8.40667 106.449 8.74C106.315 9.06 106.249 9.42667 106.249 9.84V10.24C106.249 10.6533 106.315 11.0267 106.449 11.36C106.595 11.68 106.789 11.9533 107.029 12.18C107.269 12.4067 107.549 12.58 107.869 12.7C108.189 12.82 108.529 12.88 108.889 12.88ZM119.695 15H117.175V5.08H119.695V6.56H120.055C120.282 6 120.648 5.56667 121.155 5.26C121.662 4.95333 122.255 4.8 122.935 4.8C123.415 4.8 123.862 4.88 124.275 5.04C124.702 5.18667 125.075 5.42 125.395 5.74C125.715 6.06 125.962 6.46667 126.135 6.96C126.322 7.45333 126.415 8.04 126.415 8.72V15H123.895V9.36C123.895 8.65333 123.722 8.1 123.375 7.7C123.042 7.28667 122.555 7.08 121.915 7.08C121.168 7.08 120.608 7.33333 120.235 7.84C119.875 8.33333 119.695 9 119.695 9.84V15ZM152.547 11.36C152.32 12.5333 151.78 13.48 150.927 14.2C150.087 14.92 148.96 15.28 147.547 15.28C146.814 15.28 146.127 15.1667 145.487 14.94C144.86 14.7133 144.314 14.3867 143.847 13.96C143.38 13.5333 143.014 13.0067 142.747 12.38C142.48 11.7533 142.347 11.04 142.347 10.24V10C142.347 9.2 142.48 8.48 142.747 7.84C143.014 7.2 143.38 6.65333 143.847 6.2C144.327 5.74667 144.88 5.4 145.507 5.16C146.147 4.92 146.827 4.8 147.547 4.8C148.934 4.8 150.054 5.16 150.907 5.88C151.774 6.6 152.32 7.54667 152.547 8.72L150.067 9.36C149.987 8.77333 149.734 8.26667 149.307 7.84C148.88 7.41333 148.28 7.2 147.507 7.2C147.147 7.2 146.807 7.26667 146.487 7.4C146.167 7.53333 145.887 7.72667 145.647 7.98C145.407 8.22 145.214 8.52 145.067 8.88C144.934 9.22667 144.867 9.62 144.867 10.06V10.18C144.867 10.62 144.934 11.0133 145.067 11.36C145.214 11.6933 145.407 11.9733 145.647 12.2C145.887 12.4267 146.167 12.6 146.487 12.72C146.807 12.8267 147.147 12.88 147.507 12.88C148.28 12.88 148.867 12.6867 149.267 12.3C149.68 11.9133 149.947 11.3933 150.067 10.74L152.547 11.36ZM155.233 5.08H159.433V6.52H159.793C159.98 5.97333 160.293 5.55333 160.733 5.26C161.186 4.95333 161.726 4.8 162.353 4.8C163.34 4.8 164.133 5.11333 164.733 5.74C165.333 6.35333 165.633 7.29333 165.633 8.56V9L163.033 9.24V8.96C163.033 8.41333 162.893 7.98 162.613 7.66C162.333 7.32667 161.913 7.16 161.353 7.16C160.793 7.16 160.353 7.35333 160.033 7.74C159.713 8.12667 159.553 8.68 159.553 9.4V12.6H161.833V15H154.993V12.6H157.033V7.48H155.233V5.08ZM168.739 12.6H172.099V7.48H168.979V5.08H174.619V12.6H177.499V15H168.739V12.6ZM175.239 2.14C175.239 2.40667 175.186 2.66 175.079 2.9C174.986 3.12667 174.853 3.32667 174.679 3.5C174.506 3.66 174.299 3.79333 174.059 3.9C173.833 3.99333 173.593 4.04 173.339 4.04C173.073 4.04 172.826 3.99333 172.599 3.9C172.373 3.79333 172.173 3.66 171.999 3.5C171.826 3.32667 171.686 3.12667 171.579 2.9C171.486 2.66 171.439 2.40667 171.439 2.14C171.439 1.87333 171.486 1.62667 171.579 1.4C171.686 1.16 171.826 0.96 171.999 0.799999C172.173 0.626666 172.373 0.493333 172.599 0.4C172.826 0.293333 173.073 0.239999 173.339 0.239999C173.593 0.239999 173.833 0.293333 174.059 0.4C174.299 0.493333 174.506 0.626666 174.679 0.799999C174.853 0.96 174.986 1.16 175.079 1.4C175.186 1.62667 175.239 1.87333 175.239 2.14ZM181.125 5.08H184.065V0.999999H186.585V5.08H190.165V7.48H186.585V12C186.585 12.4 186.765 12.6 187.125 12.6H189.805V15H185.605C185.152 15 184.779 14.8533 184.485 14.56C184.205 14.2667 184.065 13.8933 184.065 13.44V7.48H181.125V5.08ZM196.471 10.86C196.485 11.1533 196.551 11.4267 196.671 11.68C196.805 11.92 196.978 12.1333 197.191 12.32C197.418 12.4933 197.671 12.6333 197.951 12.74C198.245 12.8333 198.551 12.88 198.871 12.88C199.498 12.88 199.978 12.7733 200.311 12.56C200.645 12.3333 200.885 12.0667 201.031 11.76L203.191 12.96C203.071 13.2133 202.905 13.48 202.691 13.76C202.478 14.0267 202.198 14.2733 201.851 14.5C201.518 14.7267 201.105 14.9133 200.611 15.06C200.131 15.2067 199.565 15.28 198.911 15.28C198.165 15.28 197.485 15.16 196.871 14.92C196.258 14.68 195.725 14.3333 195.271 13.88C194.831 13.4267 194.485 12.8733 194.231 12.22C193.991 11.5667 193.871 10.8267 193.871 10V9.88C193.871 9.12 193.998 8.42667 194.251 7.8C194.518 7.17333 194.878 6.64 195.331 6.2C195.785 5.76 196.311 5.42 196.911 5.18C197.525 4.92667 198.178 4.8 198.871 4.8C199.725 4.8 200.458 4.95333 201.071 5.26C201.685 5.55333 202.191 5.93333 202.591 6.4C202.991 6.85333 203.285 7.36 203.471 7.92C203.658 8.46667 203.751 9 203.751 9.52V10.86H196.471ZM198.851 7.08C198.211 7.08 197.691 7.24667 197.291 7.58C196.891 7.9 196.631 8.27333 196.511 8.7H201.191C201.111 8.23333 200.858 7.84667 200.431 7.54C200.018 7.23333 199.491 7.08 198.851 7.08ZM206.618 5.08H210.818V6.52H211.178C211.364 5.97333 211.678 5.55333 212.118 5.26C212.571 4.95333 213.111 4.8 213.738 4.8C214.724 4.8 215.518 5.11333 216.118 5.74C216.718 6.35333 217.018 7.29333 217.018 8.56V9L214.418 9.24V8.96C214.418 8.41333 214.278 7.98 213.998 7.66C213.718 7.32667 213.298 7.16 212.738 7.16C212.178 7.16 211.738 7.35333 211.418 7.74C211.098 8.12667 210.938 8.68 210.938 9.4V12.6H213.218V15H206.378V12.6H208.418V7.48H206.618V5.08ZM220.124 12.6H223.484V7.48H220.364V5.08H226.004V12.6H228.884V15H220.124V12.6ZM226.624 2.14C226.624 2.40667 226.57 2.66 226.464 2.9C226.37 3.12667 226.237 3.32667 226.064 3.5C225.89 3.66 225.684 3.79333 225.444 3.9C225.217 3.99333 224.977 4.04 224.724 4.04C224.457 4.04 224.21 3.99333 223.984 3.9C223.757 3.79333 223.557 3.66 223.384 3.5C223.21 3.32667 223.07 3.12667 222.964 2.9C222.87 2.66 222.824 2.40667 222.824 2.14C222.824 1.87333 222.87 1.62667 222.964 1.4C223.07 1.16 223.21 0.96 223.384 0.799999C223.557 0.626666 223.757 0.493333 223.984 0.4C224.21 0.293333 224.457 0.239999 224.724 0.239999C224.977 0.239999 225.217 0.293333 225.444 0.4C225.684 0.493333 225.89 0.626666 226.064 0.799999C226.237 0.96 226.37 1.16 226.464 1.4C226.57 1.62667 226.624 1.87333 226.624 2.14ZM239.21 13.56C238.943 14.1867 238.57 14.6333 238.09 14.9C237.61 15.1533 237.05 15.28 236.41 15.28C235.81 15.28 235.243 15.1667 234.71 14.94C234.19 14.7133 233.73 14.38 233.33 13.94C232.93 13.5 232.61 12.9667 232.37 12.34C232.143 11.7133 232.03 11 232.03 10.2V9.88C232.03 9.09333 232.143 8.38667 232.37 7.76C232.596 7.13333 232.903 6.6 233.29 6.16C233.676 5.72 234.123 5.38667 234.63 5.16C235.15 4.92 235.703 4.8 236.29 4.8C236.996 4.8 237.563 4.92 237.99 5.16C238.43 5.4 238.776 5.77333 239.03 6.28H239.39V5.08H241.91V12C241.91 12.4 242.09 12.6 242.45 12.6H242.83V15H241.11C240.656 15 240.283 14.8667 239.99 14.6C239.71 14.3333 239.57 13.9867 239.57 13.56H239.21ZM236.97 12.88C237.703 12.88 238.29 12.64 238.73 12.16C239.17 11.6667 239.39 11 239.39 10.16V9.92C239.39 9.08 239.17 8.42 238.73 7.94C238.29 7.44667 237.703 7.2 236.97 7.2C236.236 7.2 235.65 7.44667 235.21 7.94C234.77 8.42 234.55 9.08 234.55 9.92V10.16C234.55 11 234.77 11.6667 235.21 12.16C235.65 12.64 236.236 12.88 236.97 12.88ZM252.096 13.38C252.096 13.6467 252.042 13.9 251.936 14.14C251.842 14.3667 251.709 14.5667 251.536 14.74C251.362 14.9 251.156 15.0267 250.916 15.12C250.689 15.2267 250.449 15.28 250.196 15.28C249.929 15.28 249.682 15.2267 249.456 15.12C249.229 15.0267 249.029 14.9 248.856 14.74C248.682 14.5667 248.542 14.3667 248.436 14.14C248.342 13.9 248.296 13.6467 248.296 13.38C248.296 13.1133 248.342 12.8667 248.436 12.64C248.542 12.4 248.682 12.2 248.856 12.04C249.029 11.8667 249.229 11.7333 249.456 11.64C249.682 11.5333 249.929 11.48 250.196 11.48C250.449 11.48 250.689 11.5333 250.916 11.64C251.156 11.7333 251.362 11.8667 251.536 12.04C251.709 12.2 251.842 12.4 251.936 12.64C252.042 12.8667 252.096 13.1133 252.096 13.38ZM252.096 6.7C252.096 6.96667 252.042 7.22 251.936 7.46C251.842 7.68667 251.709 7.88667 251.536 8.06C251.362 8.22 251.156 8.35333 250.916 8.46C250.689 8.55333 250.449 8.6 250.196 8.6C249.929 8.6 249.682 8.55333 249.456 8.46C249.229 8.35333 249.029 8.22 248.856 8.06C248.682 7.88667 248.542 7.68667 248.436 7.46C248.342 7.22 248.296 6.96667 248.296 6.7C248.296 6.43333 248.342 6.18667 248.436 5.96C248.542 5.72 248.682 5.52 248.856 5.36C249.029 5.18667 249.229 5.05333 249.456 4.96C249.682 4.85333 249.929 4.8 250.196 4.8C250.449 4.8 250.689 4.85333 250.916 4.96C251.156 5.05333 251.362 5.18667 251.536 5.36C251.709 5.52 251.842 5.72 251.936 5.96C252.042 6.18667 252.096 6.43333 252.096 6.7ZM5.28 48.48V38.32H4.92L3.6 43.12H1.08V42.88L2.76 37H7.92V48.48H11.4V51H1.32V48.48H5.28ZM20.8661 49.38C20.8661 49.6467 20.8128 49.9 20.7061 50.14C20.6128 50.3667 20.4794 50.5667 20.3061 50.74C20.1328 50.9 19.9261 51.0267 19.6861 51.12C19.4594 51.2267 19.2194 51.28 18.9661 51.28C18.6994 51.28 18.4528 51.2267 18.2261 51.12C17.9994 51.0267 17.7994 50.9 17.6261 50.74C17.4528 50.5667 17.3128 50.3667 17.2061 50.14C17.1128 49.9 17.0661 49.6467 17.0661 49.38C17.0661 49.1133 17.1128 48.8667 17.2061 48.64C17.3128 48.4 17.4528 48.2 17.6261 48.04C17.7994 47.8667 17.9994 47.7333 18.2261 47.64C18.4528 47.5333 18.6994 47.48 18.9661 47.48C19.2194 47.48 19.4594 47.5333 19.6861 47.64C19.9261 47.7333 20.1328 47.8667 20.3061 48.04C20.4794 48.2 20.6128 48.4 20.7061 48.64C20.8128 48.8667 20.8661 49.1133 20.8661 49.38ZM26.7722 37H36.8522V39.52H33.1322V51H30.4922V39.52H26.7722V37ZM42.6583 51H40.1383V37H42.6583V42.68H43.0183C43.2716 42.08 43.6449 41.62 44.1383 41.3C44.6316 40.9667 45.2383 40.8 45.9583 40.8C46.4516 40.8 46.9049 40.88 47.3183 41.04C47.7316 41.2 48.0916 41.44 48.3983 41.76C48.7049 42.08 48.9449 42.4933 49.1183 43C49.2916 43.4933 49.3783 44.08 49.3783 44.76V51H46.8583V45.36C46.8583 44.6533 46.6849 44.1 46.3383 43.7C46.0049 43.2867 45.5183 43.08 44.8783 43.08C44.1316 43.08 43.5716 43.3333 43.1983 43.84C42.8383 44.3333 42.6583 45 42.6583 45.84V51ZM55.1644 46.86C55.1777 47.1533 55.2444 47.4267 55.3644 47.68C55.4977 47.92 55.671 48.1333 55.8844 48.32C56.111 48.4933 56.3644 48.6333 56.6444 48.74C56.9377 48.8333 57.2444 48.88 57.5644 48.88C58.191 48.88 58.671 48.7733 59.0044 48.56C59.3377 48.3333 59.5777 48.0667 59.7244 47.76L61.8844 48.96C61.7644 49.2133 61.5977 49.48 61.3844 49.76C61.171 50.0267 60.891 50.2733 60.5444 50.5C60.211 50.7267 59.7977 50.9133 59.3044 51.06C58.8244 51.2067 58.2577 51.28 57.6044 51.28C56.8577 51.28 56.1777 51.16 55.5644 50.92C54.951 50.68 54.4177 50.3333 53.9644 49.88C53.5244 49.4267 53.1777 48.8733 52.9244 48.22C52.6844 47.5667 52.5644 46.8267 52.5644 46V45.88C52.5644 45.12 52.691 44.4267 52.9444 43.8C53.211 43.1733 53.571 42.64 54.0244 42.2C54.4777 41.76 55.0044 41.42 55.6044 41.18C56.2177 40.9267 56.871 40.8 57.5644 40.8C58.4177 40.8 59.151 40.9533 59.7644 41.26C60.3777 41.5533 60.8844 41.9333 61.2844 42.4C61.6844 42.8533 61.9777 43.36 62.1644 43.92C62.351 44.4667 62.4444 45 62.4444 45.52V46.86H55.1644ZM57.5444 43.08C56.9044 43.08 56.3844 43.2467 55.9844 43.58C55.5844 43.9 55.3244 44.2733 55.2044 44.7H59.8844C59.8044 44.2333 59.551 43.8467 59.1244 43.54C58.711 43.2333 58.1844 43.08 57.5444 43.08ZM75.7505 51H73.2305V44.04C73.2305 43.76 73.1571 43.5533 73.0105 43.42C72.8771 43.2733 72.6971 43.2 72.4705 43.2C72.2038 43.2 71.9905 43.28 71.8305 43.44C71.6838 43.6 71.6105 43.84 71.6105 44.16V51H69.0905V44.04C69.0905 43.76 69.0105 43.5533 68.8505 43.42C68.7038 43.2733 68.5238 43.2 68.3105 43.2C68.0705 43.2 67.8705 43.28 67.7105 43.44C67.5505 43.6 67.4705 43.84 67.4705 44.16V51H64.9505V41.08H67.4705V42.04H67.8305C67.9105 41.68 68.0905 41.3867 68.3705 41.16C68.6638 40.92 69.0438 40.8 69.5105 40.8C69.9505 40.8 70.3238 40.92 70.6305 41.16C70.9371 41.3867 71.1438 41.68 71.2505 42.04H71.6105C71.7171 41.68 71.9371 41.3867 72.2705 41.16C72.6171 40.92 73.0438 40.8 73.5505 40.8C74.2171 40.8 74.7505 41.0267 75.1505 41.48C75.5505 41.92 75.7505 42.5333 75.7505 43.32V51ZM80.8566 46.86C80.8699 47.1533 80.9366 47.4267 81.0566 47.68C81.1899 47.92 81.3632 48.1333 81.5766 48.32C81.8032 48.4933 82.0566 48.6333 82.3366 48.74C82.6299 48.8333 82.9366 48.88 83.2566 48.88C83.8832 48.88 84.3632 48.7733 84.6966 48.56C85.0299 48.3333 85.2699 48.0667 85.4166 47.76L87.5766 48.96C87.4566 49.2133 87.2899 49.48 87.0766 49.76C86.8632 50.0267 86.5832 50.2733 86.2366 50.5C85.9032 50.7267 85.4899 50.9133 84.9966 51.06C84.5166 51.2067 83.9499 51.28 83.2966 51.28C82.5499 51.28 81.8699 51.16 81.2566 50.92C80.6432 50.68 80.1099 50.3333 79.6566 49.88C79.2166 49.4267 78.8699 48.8733 78.6166 48.22C78.3766 47.5667 78.2566 46.8267 78.2566 46V45.88C78.2566 45.12 78.3832 44.4267 78.6366 43.8C78.9032 43.1733 79.2632 42.64 79.7166 42.2C80.1699 41.76 80.6966 41.42 81.2966 41.18C81.9099 40.9267 82.5632 40.8 83.2566 40.8C84.1099 40.8 84.8432 40.9533 85.4566 41.26C86.0699 41.5533 86.5766 41.9333 86.9766 42.4C87.3766 42.8533 87.6699 43.36 87.8566 43.92C88.0432 44.4667 88.1366 45 88.1366 45.52V46.86H80.8566ZM83.2366 43.08C82.5966 43.08 82.0766 43.2467 81.6766 43.58C81.2766 43.9 81.0166 44.2733 80.8966 44.7H85.5766C85.4966 44.2333 85.2432 43.8467 84.8166 43.54C84.4032 43.2333 83.8766 43.08 83.2366 43.08ZM193.917 48.48V51H184.077V48.24C184.077 47.5067 184.184 46.88 184.397 46.36C184.624 45.84 184.937 45.4 185.337 45.04C185.751 44.68 186.244 44.3867 186.817 44.16C187.391 43.92 188.037 43.72 188.757 43.56C189.291 43.44 189.724 43.3067 190.057 43.16C190.404 43 190.677 42.8267 190.877 42.64C191.077 42.44 191.211 42.2267 191.277 42C191.357 41.76 191.397 41.4933 191.397 41.2C191.397 40.64 191.191 40.1733 190.777 39.8C190.377 39.4267 189.817 39.24 189.097 39.24C188.337 39.24 187.731 39.4733 187.277 39.94C186.824 40.3933 186.597 41.0267 186.597 41.84V42.72H183.957V41.6C183.957 40.9467 184.071 40.3267 184.297 39.74C184.537 39.14 184.871 38.62 185.297 38.18C185.737 37.7267 186.271 37.3733 186.897 37.12C187.524 36.8533 188.231 36.72 189.017 36.72C189.857 36.72 190.591 36.8467 191.217 37.1C191.844 37.34 192.364 37.66 192.777 38.06C193.204 38.46 193.517 38.9267 193.717 39.46C193.931 39.98 194.037 40.52 194.037 41.08V41.32C194.037 42.4933 193.704 43.4667 193.037 44.24C192.384 45.0133 191.311 45.5733 189.817 45.92C189.191 46.0667 188.671 46.22 188.257 46.38C187.857 46.5267 187.544 46.6933 187.317 46.88C187.091 47.0667 186.931 47.2733 186.837 47.5C186.757 47.7133 186.717 47.96 186.717 48.24V48.48H193.917ZM203.643 49.38C203.643 49.6467 203.59 49.9 203.483 50.14C203.39 50.3667 203.257 50.5667 203.083 50.74C202.91 50.9 202.703 51.0267 202.463 51.12C202.237 51.2267 201.997 51.28 201.743 51.28C201.477 51.28 201.23 51.2267 201.003 51.12C200.777 51.0267 200.577 50.9 200.403 50.74C200.23 50.5667 200.09 50.3667 199.983 50.14C199.89 49.9 199.843 49.6467 199.843 49.38C199.843 49.1133 199.89 48.8667 199.983 48.64C200.09 48.4 200.23 48.2 200.403 48.04C200.577 47.8667 200.777 47.7333 201.003 47.64C201.23 47.5333 201.477 47.48 201.743 47.48C201.997 47.48 202.237 47.5333 202.463 47.64C202.703 47.7333 202.91 47.8667 203.083 48.04C203.257 48.2 203.39 48.4 203.483 48.64C203.59 48.8667 203.643 49.1133 203.643 49.38ZM210.23 37H219.19V39.52H212.87V42.72H219.07V45.24H212.87V51H210.23V37ZM222.396 41.08H226.596V42.52H226.956C227.142 41.9733 227.456 41.5533 227.896 41.26C228.349 40.9533 228.889 40.8 229.516 40.8C230.502 40.8 231.296 41.1133 231.896 41.74C232.496 42.3533 232.796 43.2933 232.796 44.56V45L230.196 45.24V44.96C230.196 44.4133 230.056 43.98 229.776 43.66C229.496 43.3267 229.076 43.16 228.516 43.16C227.956 43.16 227.516 43.3533 227.196 43.74C226.876 44.1267 226.716 44.68 226.716 45.4V48.6H228.996V51H222.156V48.6H224.196V43.48H222.396V41.08ZM242.142 49.56C241.875 50.1867 241.502 50.6333 241.022 50.9C240.542 51.1533 239.982 51.28 239.342 51.28C238.742 51.28 238.175 51.1667 237.642 50.94C237.122 50.7133 236.662 50.38 236.262 49.94C235.862 49.5 235.542 48.9667 235.302 48.34C235.075 47.7133 234.962 47 234.962 46.2V45.88C234.962 45.0933 235.075 44.3867 235.302 43.76C235.528 43.1333 235.835 42.6 236.222 42.16C236.608 41.72 237.055 41.3867 237.562 41.16C238.082 40.92 238.635 40.8 239.222 40.8C239.928 40.8 240.495 40.92 240.922 41.16C241.362 41.4 241.708 41.7733 241.962 42.28H242.322V41.08H244.842V48C244.842 48.4 245.022 48.6 245.382 48.6H245.762V51H244.042C243.588 51 243.215 50.8667 242.922 50.6C242.642 50.3333 242.502 49.9867 242.502 49.56H242.142ZM239.902 48.88C240.635 48.88 241.222 48.64 241.662 48.16C242.102 47.6667 242.322 47 242.322 46.16V45.92C242.322 45.08 242.102 44.42 241.662 43.94C241.222 43.4467 240.635 43.2 239.902 43.2C239.168 43.2 238.582 43.4467 238.142 43.94C237.702 44.42 237.482 45.08 237.482 45.92V46.16C237.482 47 237.702 47.6667 238.142 48.16C238.582 48.64 239.168 48.88 239.902 48.88ZM258.528 51H256.008V44.04C256.008 43.76 255.934 43.5533 255.788 43.42C255.654 43.2733 255.474 43.2 255.248 43.2C254.981 43.2 254.768 43.28 254.608 43.44C254.461 43.6 254.388 43.84 254.388 44.16V51H251.868V44.04C251.868 43.76 251.788 43.5533 251.628 43.42C251.481 43.2733 251.301 43.2 251.088 43.2C250.848 43.2 250.648 43.28 250.488 43.44C250.328 43.6 250.248 43.84 250.248 44.16V51H247.728V41.08H250.248V42.04H250.608C250.688 41.68 250.868 41.3867 251.148 41.16C251.441 40.92 251.821 40.8 252.288 40.8C252.728 40.8 253.101 40.92 253.408 41.16C253.714 41.3867 253.921 41.68 254.028 42.04H254.388C254.494 41.68 254.714 41.3867 255.048 41.16C255.394 40.92 255.821 40.8 256.328 40.8C256.994 40.8 257.528 41.0267 257.928 41.48C258.328 41.92 258.528 42.5333 258.528 43.32V51ZM263.634 46.86C263.647 47.1533 263.714 47.4267 263.834 47.68C263.967 47.92 264.141 48.1333 264.354 48.32C264.581 48.4933 264.834 48.6333 265.114 48.74C265.407 48.8333 265.714 48.88 266.034 48.88C266.661 48.88 267.141 48.7733 267.474 48.56C267.807 48.3333 268.047 48.0667 268.194 47.76L270.354 48.96C270.234 49.2133 270.067 49.48 269.854 49.76C269.641 50.0267 269.361 50.2733 269.014 50.5C268.681 50.7267 268.267 50.9133 267.774 51.06C267.294 51.2067 266.727 51.28 266.074 51.28C265.327 51.28 264.647 51.16 264.034 50.92C263.421 50.68 262.887 50.3333 262.434 49.88C261.994 49.4267 261.647 48.8733 261.394 48.22C261.154 47.5667 261.034 46.8267 261.034 46V45.88C261.034 45.12 261.161 44.4267 261.414 43.8C261.681 43.1733 262.041 42.64 262.494 42.2C262.947 41.76 263.474 41.42 264.074 41.18C264.687 40.9267 265.341 40.8 266.034 40.8C266.887 40.8 267.621 40.9533 268.234 41.26C268.847 41.5533 269.354 41.9333 269.754 42.4C270.154 42.8533 270.447 43.36 270.634 43.92C270.821 44.4667 270.914 45 270.914 45.52V46.86H263.634ZM266.014 43.08C265.374 43.08 264.854 43.2467 264.454 43.58C264.054 43.9 263.794 44.2733 263.674 44.7H268.354C268.274 44.2333 268.021 43.8467 267.594 43.54C267.181 43.2333 266.654 43.08 266.014 43.08ZM299.416 47.36C299.189 48.5333 298.649 49.48 297.796 50.2C296.956 50.92 295.829 51.28 294.416 51.28C293.682 51.28 292.996 51.1667 292.356 50.94C291.729 50.7133 291.182 50.3867 290.716 49.96C290.249 49.5333 289.882 49.0067 289.616 48.38C289.349 47.7533 289.216 47.04 289.216 46.24V46C289.216 45.2 289.349 44.48 289.616 43.84C289.882 43.2 290.249 42.6533 290.716 42.2C291.196 41.7467 291.749 41.4 292.376 41.16C293.016 40.92 293.696 40.8 294.416 40.8C295.802 40.8 296.922 41.16 297.776 41.88C298.642 42.6 299.189 43.5467 299.416 44.72L296.936 45.36C296.856 44.7733 296.602 44.2667 296.176 43.84C295.749 43.4133 295.149 43.2 294.376 43.2C294.016 43.2 293.676 43.2667 293.356 43.4C293.036 43.5333 292.756 43.7267 292.516 43.98C292.276 44.22 292.082 44.52 291.936 44.88C291.802 45.2267 291.736 45.62 291.736 46.06V46.18C291.736 46.62 291.802 47.0133 291.936 47.36C292.082 47.6933 292.276 47.9733 292.516 48.2C292.756 48.4267 293.036 48.6 293.356 48.72C293.676 48.8267 294.016 48.88 294.376 48.88C295.149 48.88 295.736 48.6867 296.136 48.3C296.549 47.9133 296.816 47.3933 296.936 46.74L299.416 47.36ZM312.302 46.16C312.302 46.9867 312.162 47.72 311.882 48.36C311.602 48.9867 311.222 49.52 310.742 49.96C310.262 50.3867 309.709 50.7133 309.082 50.94C308.469 51.1667 307.822 51.28 307.142 51.28C306.462 51.28 305.809 51.1667 305.182 50.94C304.569 50.7133 304.022 50.3867 303.542 49.96C303.062 49.52 302.682 48.9867 302.402 48.36C302.122 47.72 301.982 46.9867 301.982 46.16V45.92C301.982 45.1067 302.122 44.3867 302.402 43.76C302.682 43.12 303.062 42.58 303.542 42.14C304.022 41.7 304.569 41.3667 305.182 41.14C305.809 40.9133 306.462 40.8 307.142 40.8C307.822 40.8 308.469 40.9133 309.082 41.14C309.709 41.3667 310.262 41.7 310.742 42.14C311.222 42.58 311.602 43.12 311.882 43.76C312.162 44.3867 312.302 45.1067 312.302 45.92V46.16ZM307.142 48.88C307.502 48.88 307.842 48.82 308.162 48.7C308.482 48.58 308.762 48.4067 309.002 48.18C309.242 47.9533 309.429 47.68 309.562 47.36C309.709 47.0267 309.782 46.6533 309.782 46.24V45.84C309.782 45.4267 309.709 45.06 309.562 44.74C309.429 44.4067 309.242 44.1267 309.002 43.9C308.762 43.6733 308.482 43.5 308.162 43.38C307.842 43.26 307.502 43.2 307.142 43.2C306.782 43.2 306.442 43.26 306.122 43.38C305.802 43.5 305.522 43.6733 305.282 43.9C305.042 44.1267 304.849 44.4067 304.702 44.74C304.569 45.06 304.502 45.4267 304.502 45.84V46.24C304.502 46.6533 304.569 47.0267 304.702 47.36C304.849 47.68 305.042 47.9533 305.282 48.18C305.522 48.4067 305.802 48.58 306.122 48.7C306.442 48.82 306.782 48.88 307.142 48.88ZM325.388 51H322.868V44.04C322.868 43.76 322.795 43.5533 322.648 43.42C322.515 43.2733 322.335 43.2 322.108 43.2C321.841 43.2 321.628 43.28 321.468 43.44C321.321 43.6 321.248 43.84 321.248 44.16V51H318.728V44.04C318.728 43.76 318.648 43.5533 318.488 43.42C318.341 43.2733 318.161 43.2 317.948 43.2C317.708 43.2 317.508 43.28 317.348 43.44C317.188 43.6 317.108 43.84 317.108 44.16V51H314.588V41.08H317.108V42.04H317.468C317.548 41.68 317.728 41.3867 318.008 41.16C318.301 40.92 318.681 40.8 319.148 40.8C319.588 40.8 319.961 40.92 320.268 41.16C320.575 41.3867 320.781 41.68 320.888 42.04H321.248C321.355 41.68 321.575 41.3867 321.908 41.16C322.255 40.92 322.681 40.8 323.188 40.8C323.855 40.8 324.388 41.0267 324.788 41.48C325.188 41.92 325.388 42.5333 325.388 43.32V51ZM330.274 55H327.754V41.08H330.274V42.52H330.634C330.901 41.9733 331.287 41.5533 331.794 41.26C332.301 40.9533 332.947 40.8 333.734 40.8C334.321 40.8 334.874 40.9133 335.394 41.14C335.927 41.3667 336.387 41.7 336.774 42.14C337.174 42.5667 337.487 43.0933 337.714 43.72C337.954 44.3467 338.074 45.06 338.074 45.86V46.22C338.074 47.0333 337.961 47.7533 337.734 48.38C337.507 49.0067 337.201 49.54 336.814 49.98C336.427 50.4067 335.967 50.7333 335.434 50.96C334.914 51.1733 334.347 51.28 333.734 51.28C333.281 51.28 332.887 51.2333 332.554 51.14C332.221 51.0467 331.927 50.92 331.674 50.76C331.434 50.6 331.227 50.42 331.054 50.22C330.894 50.0067 330.754 49.7867 330.634 49.56H330.274V55ZM332.914 48.88C333.701 48.88 334.334 48.64 334.814 48.16C335.307 47.6667 335.554 47 335.554 46.16V45.92C335.554 45.08 335.307 44.42 334.814 43.94C334.334 43.4467 333.701 43.2 332.914 43.2C332.127 43.2 331.487 43.4533 330.994 43.96C330.514 44.4533 330.274 45.1067 330.274 45.92V46.16C330.274 46.9733 330.514 47.6333 330.994 48.14C331.487 48.6333 332.127 48.88 332.914 48.88ZM350.84 46.16C350.84 46.9867 350.7 47.72 350.42 48.36C350.14 48.9867 349.76 49.52 349.28 49.96C348.8 50.3867 348.247 50.7133 347.62 50.94C347.007 51.1667 346.36 51.28 345.68 51.28C345 51.28 344.347 51.1667 343.72 50.94C343.107 50.7133 342.56 50.3867 342.08 49.96C341.6 49.52 341.22 48.9867 340.94 48.36C340.66 47.72 340.52 46.9867 340.52 46.16V45.92C340.52 45.1067 340.66 44.3867 340.94 43.76C341.22 43.12 341.6 42.58 342.08 42.14C342.56 41.7 343.107 41.3667 343.72 41.14C344.347 40.9133 345 40.8 345.68 40.8C346.36 40.8 347.007 40.9133 347.62 41.14C348.247 41.3667 348.8 41.7 349.28 42.14C349.76 42.58 350.14 43.12 350.42 43.76C350.7 44.3867 350.84 45.1067 350.84 45.92V46.16ZM345.68 48.88C346.04 48.88 346.38 48.82 346.7 48.7C347.02 48.58 347.3 48.4067 347.54 48.18C347.78 47.9533 347.967 47.68 348.1 47.36C348.247 47.0267 348.32 46.6533 348.32 46.24V45.84C348.32 45.4267 348.247 45.06 348.1 44.74C347.967 44.4067 347.78 44.1267 347.54 43.9C347.3 43.6733 347.02 43.5 346.7 43.38C346.38 43.26 346.04 43.2 345.68 43.2C345.32 43.2 344.98 43.26 344.66 43.38C344.34 43.5 344.06 43.6733 343.82 43.9C343.58 44.1267 343.387 44.4067 343.24 44.74C343.107 45.06 343.04 45.4267 343.04 45.84V46.24C343.04 46.6533 343.107 47.0267 343.24 47.36C343.387 47.68 343.58 47.9533 343.82 48.18C344.06 48.4067 344.34 48.58 344.66 48.7C344.98 48.82 345.32 48.88 345.68 48.88ZM357.126 43.88C357.126 44.2 357.293 44.4333 357.626 44.58C357.96 44.7133 358.566 44.8267 359.446 44.92C360.46 45.0267 361.286 45.3333 361.926 45.84C362.566 46.3333 362.886 47.0267 362.886 47.92V48.04C362.886 49.0267 362.526 49.8133 361.806 50.4C361.086 50.9867 360.073 51.28 358.766 51.28C357.993 51.28 357.333 51.18 356.786 50.98C356.24 50.78 355.786 50.5333 355.426 50.24C355.066 49.9333 354.786 49.6 354.586 49.24C354.4 48.8667 354.273 48.5067 354.206 48.16L356.526 47.4C356.633 47.8267 356.853 48.2 357.186 48.52C357.533 48.84 358.06 49 358.766 49C359.393 49 359.82 48.9067 360.046 48.72C360.286 48.52 360.406 48.3067 360.406 48.08C360.406 47.9467 360.373 47.8267 360.306 47.72C360.253 47.6 360.146 47.4933 359.986 47.4C359.826 47.2933 359.606 47.2067 359.326 47.14C359.06 47.0733 358.72 47.02 358.306 46.98C357.186 46.8867 356.293 46.6 355.626 46.12C354.973 45.6267 354.646 44.9067 354.646 43.96V43.84C354.646 43.3467 354.753 42.9133 354.966 42.54C355.18 42.1667 355.46 41.8533 355.806 41.6C356.153 41.3333 356.553 41.1333 357.006 41C357.46 40.8667 357.926 40.8 358.406 40.8C359.033 40.8 359.573 40.88 360.026 41.04C360.493 41.1867 360.886 41.3867 361.206 41.64C361.526 41.88 361.786 42.1533 361.986 42.46C362.186 42.7533 362.34 43.04 362.446 43.32L360.166 44.24C360.046 43.88 359.84 43.6 359.546 43.4C359.253 43.1867 358.873 43.08 358.406 43.08C357.98 43.08 357.66 43.16 357.446 43.32C357.233 43.4667 357.126 43.6533 357.126 43.88ZM366.992 48.6H370.352V43.48H367.232V41.08H372.872V48.6H375.752V51H366.992V48.6ZM373.492 38.14C373.492 38.4067 373.439 38.66 373.332 38.9C373.239 39.1267 373.106 39.3267 372.932 39.5C372.759 39.66 372.552 39.7933 372.312 39.9C372.086 39.9933 371.846 40.04 371.592 40.04C371.326 40.04 371.079 39.9933 370.852 39.9C370.626 39.7933 370.426 39.66 370.252 39.5C370.079 39.3267 369.939 39.1267 369.832 38.9C369.739 38.66 369.692 38.4067 369.692 38.14C369.692 37.8733 369.739 37.6267 369.832 37.4C369.939 37.16 370.079 36.96 370.252 36.8C370.426 36.6267 370.626 36.4933 370.852 36.4C371.079 36.2933 371.326 36.24 371.592 36.24C371.846 36.24 372.086 36.2933 372.312 36.4C372.552 36.4933 372.759 36.6267 372.932 36.8C373.106 36.96 373.239 37.16 373.332 37.4C373.439 37.6267 373.492 37.8733 373.492 38.14ZM379.378 41.08H382.318V37H384.838V41.08H388.418V43.48H384.838V48C384.838 48.4 385.018 48.6 385.378 48.6H388.058V51H383.858C383.405 51 383.032 50.8533 382.738 50.56C382.458 50.2667 382.318 49.8933 382.318 49.44V43.48H379.378V41.08ZM392.685 48.6H396.045V43.48H392.925V41.08H398.565V48.6H401.445V51H392.685V48.6ZM399.185 38.14C399.185 38.4067 399.131 38.66 399.025 38.9C398.931 39.1267 398.798 39.3267 398.625 39.5C398.451 39.66 398.245 39.7933 398.005 39.9C397.778 39.9933 397.538 40.04 397.285 40.04C397.018 40.04 396.771 39.9933 396.545 39.9C396.318 39.7933 396.118 39.66 395.945 39.5C395.771 39.3267 395.631 39.1267 395.525 38.9C395.431 38.66 395.385 38.4067 395.385 38.14C395.385 37.8733 395.431 37.6267 395.525 37.4C395.631 37.16 395.771 36.96 395.945 36.8C396.118 36.6267 396.318 36.4933 396.545 36.4C396.771 36.2933 397.018 36.24 397.285 36.24C397.538 36.24 397.778 36.2933 398.005 36.4C398.245 36.4933 398.451 36.6267 398.625 36.8C398.798 36.96 398.931 37.16 399.025 37.4C399.131 37.6267 399.185 37.8733 399.185 38.14ZM415.071 46.16C415.071 46.9867 414.931 47.72 414.651 48.36C414.371 48.9867 413.991 49.52 413.511 49.96C413.031 50.3867 412.477 50.7133 411.851 50.94C411.237 51.1667 410.591 51.28 409.911 51.28C409.231 51.28 408.577 51.1667 407.951 50.94C407.337 50.7133 406.791 50.3867 406.311 49.96C405.831 49.52 405.451 48.9867 405.171 48.36C404.891 47.72 404.751 46.9867 404.751 46.16V45.92C404.751 45.1067 404.891 44.3867 405.171 43.76C405.451 43.12 405.831 42.58 406.311 42.14C406.791 41.7 407.337 41.3667 407.951 41.14C408.577 40.9133 409.231 40.8 409.911 40.8C410.591 40.8 411.237 40.9133 411.851 41.14C412.477 41.3667 413.031 41.7 413.511 42.14C413.991 42.58 414.371 43.12 414.651 43.76C414.931 44.3867 415.071 45.1067 415.071 45.92V46.16ZM409.911 48.88C410.271 48.88 410.611 48.82 410.931 48.7C411.251 48.58 411.531 48.4067 411.771 48.18C412.011 47.9533 412.197 47.68 412.331 47.36C412.477 47.0267 412.551 46.6533 412.551 46.24V45.84C412.551 45.4267 412.477 45.06 412.331 44.74C412.197 44.4067 412.011 44.1267 411.771 43.9C411.531 43.6733 411.251 43.5 410.931 43.38C410.611 43.26 410.271 43.2 409.911 43.2C409.551 43.2 409.211 43.26 408.891 43.38C408.571 43.5 408.291 43.6733 408.051 43.9C407.811 44.1267 407.617 44.4067 407.471 44.74C407.337 45.06 407.271 45.4267 407.271 45.84V46.24C407.271 46.6533 407.337 47.0267 407.471 47.36C407.617 47.68 407.811 47.9533 408.051 48.18C408.291 48.4067 408.571 48.58 408.891 48.7C409.211 48.82 409.551 48.88 409.911 48.88ZM420.717 51H418.197V41.08H420.717V42.56H421.077C421.303 42 421.67 41.5667 422.177 41.26C422.683 40.9533 423.277 40.8 423.957 40.8C424.437 40.8 424.883 40.88 425.297 41.04C425.723 41.1867 426.097 41.42 426.417 41.74C426.737 42.06 426.983 42.4667 427.157 42.96C427.343 43.4533 427.437 44.04 427.437 44.72V51H424.917V45.36C424.917 44.6533 424.743 44.1 424.397 43.7C424.063 43.2867 423.577 43.08 422.937 43.08C422.19 43.08 421.63 43.3333 421.257 43.84C420.897 44.3333 420.717 45 420.717 45.84V51ZM465.194 45V40.84L468.674 39.88V39.52H461.714V37H470.834V41.4L467.114 42.48V42.84H467.594C468.088 42.84 468.574 42.92 469.054 43.08C469.534 43.2267 469.954 43.46 470.314 43.78C470.688 44.1 470.988 44.5 471.214 44.98C471.441 45.4467 471.554 46 471.554 46.64V46.88C471.554 47.5067 471.448 48.0867 471.234 48.62C471.034 49.1533 470.728 49.62 470.314 50.02C469.914 50.4067 469.414 50.7133 468.814 50.94C468.214 51.1667 467.528 51.28 466.754 51.28C465.968 51.28 465.254 51.1533 464.614 50.9C463.974 50.6467 463.428 50.3 462.974 49.86C462.534 49.42 462.194 48.9133 461.954 48.34C461.714 47.7667 461.594 47.16 461.594 46.52V45.68H464.234V46.4C464.234 47.04 464.441 47.5933 464.854 48.06C465.268 48.5267 465.888 48.76 466.714 48.76C467.421 48.76 467.961 48.58 468.334 48.22C468.721 47.86 468.914 47.3867 468.914 46.8C468.914 46.1733 468.708 45.72 468.294 45.44C467.894 45.1467 467.381 45 466.754 45H465.194ZM481.3 49.38C481.3 49.6467 481.247 49.9 481.14 50.14C481.047 50.3667 480.914 50.5667 480.74 50.74C480.567 50.9 480.36 51.0267 480.12 51.12C479.894 51.2267 479.654 51.28 479.4 51.28C479.134 51.28 478.887 51.2267 478.66 51.12C478.434 51.0267 478.234 50.9 478.06 50.74C477.887 50.5667 477.747 50.3667 477.64 50.14C477.547 49.9 477.5 49.6467 477.5 49.38C477.5 49.1133 477.547 48.8667 477.64 48.64C477.747 48.4 477.887 48.2 478.06 48.04C478.234 47.8667 478.434 47.7333 478.66 47.64C478.887 47.5333 479.134 47.48 479.4 47.48C479.654 47.48 479.894 47.5333 480.12 47.64C480.36 47.7333 480.567 47.8667 480.74 48.04C480.914 48.2 481.047 48.4 481.14 48.64C481.247 48.8667 481.3 49.1133 481.3 49.38ZM494.647 41.28C494.647 40.72 494.427 40.2333 493.987 39.82C493.56 39.4067 492.953 39.2 492.167 39.2C491.5 39.2 490.973 39.34 490.587 39.62C490.2 39.8867 490.007 40.2533 490.007 40.72C490.007 40.96 490.053 41.18 490.147 41.38C490.24 41.5667 490.4 41.74 490.627 41.9C490.867 42.0467 491.173 42.18 491.547 42.3C491.933 42.42 492.42 42.5333 493.007 42.64C494.473 42.9067 495.593 43.3533 496.367 43.98C497.14 44.6067 497.527 45.5333 497.527 46.76V47C497.527 47.6533 497.407 48.2467 497.167 48.78C496.94 49.3 496.607 49.7467 496.167 50.12C495.727 50.4933 495.193 50.78 494.567 50.98C493.94 51.18 493.233 51.28 492.447 51.28C491.527 51.28 490.713 51.1533 490.007 50.9C489.313 50.6333 488.733 50.2733 488.267 49.82C487.8 49.3533 487.447 48.8133 487.207 48.2C486.967 47.5733 486.847 46.8933 486.847 46.16V45.56H489.487V46.04C489.487 46.88 489.727 47.5533 490.207 48.06C490.7 48.5533 491.46 48.8 492.487 48.8C493.287 48.8 493.88 48.6267 494.267 48.28C494.653 47.9333 494.847 47.52 494.847 47.04C494.847 46.8133 494.807 46.6 494.727 46.4C494.647 46.1867 494.507 46 494.307 45.84C494.107 45.6667 493.833 45.5133 493.487 45.38C493.14 45.2467 492.7 45.1333 492.167 45.04C491.46 44.92 490.813 44.7667 490.227 44.58C489.64 44.38 489.127 44.12 488.687 43.8C488.26 43.48 487.927 43.08 487.687 42.6C487.447 42.12 487.327 41.5333 487.327 40.84V40.72C487.327 40.1467 487.44 39.62 487.667 39.14C487.907 38.6467 488.233 38.22 488.647 37.86C489.073 37.5 489.58 37.22 490.167 37.02C490.767 36.82 491.433 36.72 492.167 36.72C492.993 36.72 493.727 36.84 494.367 37.08C495.007 37.3067 495.54 37.62 495.967 38.02C496.407 38.42 496.733 38.88 496.947 39.4C497.173 39.92 497.287 40.4667 497.287 41.04V41.76H494.647V41.28ZM503.093 51H500.573V37H503.093V42.68H503.453C503.706 42.08 504.079 41.62 504.573 41.3C505.066 40.9667 505.673 40.8 506.393 40.8C506.886 40.8 507.339 40.88 507.753 41.04C508.166 41.2 508.526 41.44 508.833 41.76C509.139 42.08 509.379 42.4933 509.553 43C509.726 43.4933 509.813 44.08 509.813 44.76V51H507.293V45.36C507.293 44.6533 507.119 44.1 506.773 43.7C506.439 43.2867 505.953 43.08 505.313 43.08C504.566 43.08 504.006 43.3333 503.633 43.84C503.273 44.3333 503.093 45 503.093 45.84V51ZM519.799 49.56C519.532 50.1867 519.159 50.6333 518.679 50.9C518.199 51.1533 517.639 51.28 516.999 51.28C516.399 51.28 515.832 51.1667 515.299 50.94C514.779 50.7133 514.319 50.38 513.919 49.94C513.519 49.5 513.199 48.9667 512.959 48.34C512.732 47.7133 512.619 47 512.619 46.2V45.88C512.619 45.0933 512.732 44.3867 512.959 43.76C513.185 43.1333 513.492 42.6 513.879 42.16C514.265 41.72 514.712 41.3867 515.219 41.16C515.739 40.92 516.292 40.8 516.879 40.8C517.585 40.8 518.152 40.92 518.579 41.16C519.019 41.4 519.365 41.7733 519.619 42.28H519.979V41.08H522.499V48C522.499 48.4 522.679 48.6 523.039 48.6H523.419V51H521.699C521.245 51 520.872 50.8667 520.579 50.6C520.299 50.3333 520.159 49.9867 520.159 49.56H519.799ZM517.559 48.88C518.292 48.88 518.879 48.64 519.319 48.16C519.759 47.6667 519.979 47 519.979 46.16V45.92C519.979 45.08 519.759 44.42 519.319 43.94C518.879 43.4467 518.292 43.2 517.559 43.2C516.825 43.2 516.239 43.4467 515.799 43.94C515.359 44.42 515.139 45.08 515.139 45.92V46.16C515.139 47 515.359 47.6667 515.799 48.16C516.239 48.64 516.825 48.88 517.559 48.88ZM525.745 41.08H529.945V42.52H530.305C530.492 41.9733 530.805 41.5533 531.245 41.26C531.698 40.9533 532.238 40.8 532.865 40.8C533.852 40.8 534.645 41.1133 535.245 41.74C535.845 42.3533 536.145 43.2933 536.145 44.56V45L533.545 45.24V44.96C533.545 44.4133 533.405 43.98 533.125 43.66C532.845 43.3267 532.425 43.16 531.865 43.16C531.305 43.16 530.865 43.3533 530.545 43.74C530.225 44.1267 530.065 44.68 530.065 45.4V48.6H532.345V51H525.505V48.6H527.545V43.48H525.745V41.08ZM541.071 55H538.551V41.08H541.071V42.52H541.431C541.698 41.9733 542.084 41.5533 542.591 41.26C543.098 40.9533 543.744 40.8 544.531 40.8C545.118 40.8 545.671 40.9133 546.191 41.14C546.724 41.3667 547.184 41.7 547.571 42.14C547.971 42.5667 548.284 43.0933 548.511 43.72C548.751 44.3467 548.871 45.06 548.871 45.86V46.22C548.871 47.0333 548.758 47.7533 548.531 48.38C548.304 49.0067 547.998 49.54 547.611 49.98C547.224 50.4067 546.764 50.7333 546.231 50.96C545.711 51.1733 545.144 51.28 544.531 51.28C544.078 51.28 543.684 51.2333 543.351 51.14C543.018 51.0467 542.724 50.92 542.471 50.76C542.231 50.6 542.024 50.42 541.851 50.22C541.691 50.0067 541.551 49.7867 541.431 49.56H541.071V55ZM543.711 48.88C544.498 48.88 545.131 48.64 545.611 48.16C546.104 47.6667 546.351 47 546.351 46.16V45.92C546.351 45.08 546.104 44.42 545.611 43.94C545.131 43.4467 544.498 43.2 543.711 43.2C542.924 43.2 542.284 43.4533 541.791 43.96C541.311 44.4533 541.071 45.1067 541.071 45.92V46.16C541.071 46.9733 541.311 47.6333 541.791 48.14C542.284 48.6333 542.924 48.88 543.711 48.88ZM554.437 51H551.917V41.08H554.437V42.56H554.797C555.024 42 555.39 41.5667 555.897 41.26C556.404 40.9533 556.997 40.8 557.677 40.8C558.157 40.8 558.604 40.88 559.017 41.04C559.444 41.1867 559.817 41.42 560.137 41.74C560.457 42.06 560.704 42.4667 560.877 42.96C561.064 43.4533 561.157 44.04 561.157 44.72V51H558.637V45.36C558.637 44.6533 558.464 44.1 558.117 43.7C557.784 43.2867 557.297 43.08 556.657 43.08C555.91 43.08 555.35 43.3333 554.977 43.84C554.617 44.3333 554.437 45 554.437 45.84V51ZM566.983 46.86C566.996 47.1533 567.063 47.4267 567.183 47.68C567.316 47.92 567.49 48.1333 567.703 48.32C567.93 48.4933 568.183 48.6333 568.463 48.74C568.756 48.8333 569.063 48.88 569.383 48.88C570.01 48.88 570.49 48.7733 570.823 48.56C571.156 48.3333 571.396 48.0667 571.543 47.76L573.703 48.96C573.583 49.2133 573.416 49.48 573.203 49.76C572.99 50.0267 572.71 50.2733 572.363 50.5C572.03 50.7267 571.616 50.9133 571.123 51.06C570.643 51.2067 570.076 51.28 569.423 51.28C568.676 51.28 567.996 51.16 567.383 50.92C566.77 50.68 566.236 50.3333 565.783 49.88C565.343 49.4267 564.996 48.8733 564.743 48.22C564.503 47.5667 564.383 46.8267 564.383 46V45.88C564.383 45.12 564.51 44.4267 564.763 43.8C565.03 43.1733 565.39 42.64 565.843 42.2C566.296 41.76 566.823 41.42 567.423 41.18C568.036 40.9267 568.69 40.8 569.383 40.8C570.236 40.8 570.97 40.9533 571.583 41.26C572.196 41.5533 572.703 41.9333 573.103 42.4C573.503 42.8533 573.796 43.36 573.983 43.92C574.17 44.4667 574.263 45 574.263 45.52V46.86H566.983ZM569.363 43.08C568.723 43.08 568.203 43.2467 567.803 43.58C567.403 43.9 567.143 44.2733 567.023 44.7H571.703C571.623 44.2333 571.37 43.8467 570.943 43.54C570.53 43.2333 570.003 43.08 569.363 43.08ZM580.769 43.88C580.769 44.2 580.936 44.4333 581.269 44.58C581.603 44.7133 582.209 44.8267 583.089 44.92C584.103 45.0267 584.929 45.3333 585.569 45.84C586.209 46.3333 586.529 47.0267 586.529 47.92V48.04C586.529 49.0267 586.169 49.8133 585.449 50.4C584.729 50.9867 583.716 51.28 582.409 51.28C581.636 51.28 580.976 51.18 580.429 50.98C579.883 50.78 579.429 50.5333 579.069 50.24C578.709 49.9333 578.429 49.6 578.229 49.24C578.043 48.8667 577.916 48.5067 577.849 48.16L580.169 47.4C580.276 47.8267 580.496 48.2 580.829 48.52C581.176 48.84 581.703 49 582.409 49C583.036 49 583.463 48.9067 583.689 48.72C583.929 48.52 584.049 48.3067 584.049 48.08C584.049 47.9467 584.016 47.8267 583.949 47.72C583.896 47.6 583.789 47.4933 583.629 47.4C583.469 47.2933 583.249 47.2067 582.969 47.14C582.703 47.0733 582.363 47.02 581.949 46.98C580.829 46.8867 579.936 46.6 579.269 46.12C578.616 45.6267 578.289 44.9067 578.289 43.96V43.84C578.289 43.3467 578.396 42.9133 578.609 42.54C578.823 42.1667 579.103 41.8533 579.449 41.6C579.796 41.3333 580.196 41.1333 580.649 41C581.103 40.8667 581.569 40.8 582.049 40.8C582.676 40.8 583.216 40.88 583.669 41.04C584.136 41.1867 584.529 41.3867 584.849 41.64C585.169 41.88 585.429 42.1533 585.629 42.46C585.829 42.7533 585.983 43.04 586.089 43.32L583.809 44.24C583.689 43.88 583.483 43.6 583.189 43.4C582.896 43.1867 582.516 43.08 582.049 43.08C581.623 43.08 581.303 43.16 581.089 43.32C580.876 43.4667 580.769 43.6533 580.769 43.88ZM593.615 43.88C593.615 44.2 593.782 44.4333 594.115 44.58C594.449 44.7133 595.055 44.8267 595.935 44.92C596.949 45.0267 597.775 45.3333 598.415 45.84C599.055 46.3333 599.375 47.0267 599.375 47.92V48.04C599.375 49.0267 599.015 49.8133 598.295 50.4C597.575 50.9867 596.562 51.28 595.255 51.28C594.482 51.28 593.822 51.18 593.275 50.98C592.729 50.78 592.275 50.5333 591.915 50.24C591.555 49.9333 591.275 49.6 591.075 49.24C590.889 48.8667 590.762 48.5067 590.695 48.16L593.015 47.4C593.122 47.8267 593.342 48.2 593.675 48.52C594.022 48.84 594.549 49 595.255 49C595.882 49 596.309 48.9067 596.535 48.72C596.775 48.52 596.895 48.3067 596.895 48.08C596.895 47.9467 596.862 47.8267 596.795 47.72C596.742 47.6 596.635 47.4933 596.475 47.4C596.315 47.2933 596.095 47.2067 595.815 47.14C595.549 47.0733 595.209 47.02 594.795 46.98C593.675 46.8867 592.782 46.6 592.115 46.12C591.462 45.6267 591.135 44.9067 591.135 43.96V43.84C591.135 43.3467 591.242 42.9133 591.455 42.54C591.669 42.1667 591.949 41.8533 592.295 41.6C592.642 41.3333 593.042 41.1333 593.495 41C593.949 40.8667 594.415 40.8 594.895 40.8C595.522 40.8 596.062 40.88 596.515 41.04C596.982 41.1867 597.375 41.3867 597.695 41.64C598.015 41.88 598.275 42.1533 598.475 42.46C598.675 42.7533 598.829 43.04 598.935 43.32L596.655 44.24C596.535 43.88 596.329 43.6 596.035 43.4C595.742 43.1867 595.362 43.08 594.895 43.08C594.469 43.08 594.149 43.16 593.935 43.32C593.722 43.4667 593.615 43.6533 593.615 43.88ZM625.197 49.56C624.93 50.1867 624.557 50.6333 624.077 50.9C623.597 51.1533 623.037 51.28 622.397 51.28C621.797 51.28 621.23 51.1667 620.697 50.94C620.177 50.7133 619.717 50.38 619.317 49.94C618.917 49.5 618.597 48.9667 618.357 48.34C618.13 47.7133 618.017 47 618.017 46.2V45.88C618.017 45.0933 618.13 44.3867 618.357 43.76C618.584 43.1333 618.89 42.6 619.277 42.16C619.664 41.72 620.11 41.3867 620.617 41.16C621.137 40.92 621.69 40.8 622.277 40.8C622.984 40.8 623.55 40.92 623.977 41.16C624.417 41.4 624.764 41.7733 625.017 42.28H625.377V41.08H627.897V48C627.897 48.4 628.077 48.6 628.437 48.6H628.817V51H627.097C626.644 51 626.27 50.8667 625.977 50.6C625.697 50.3333 625.557 49.9867 625.557 49.56H625.197ZM622.957 48.88C623.69 48.88 624.277 48.64 624.717 48.16C625.157 47.6667 625.377 47 625.377 46.16V45.92C625.377 45.08 625.157 44.42 624.717 43.94C624.277 43.4467 623.69 43.2 622.957 43.2C622.224 43.2 621.637 43.4467 621.197 43.94C620.757 44.42 620.537 45.08 620.537 45.92V46.16C620.537 47 620.757 47.6667 621.197 48.16C621.637 48.64 622.224 48.88 622.957 48.88ZM634.143 51H631.623V41.08H634.143V42.56H634.503C634.73 42 635.097 41.5667 635.603 41.26C636.11 40.9533 636.703 40.8 637.383 40.8C637.863 40.8 638.31 40.88 638.723 41.04C639.15 41.1867 639.523 41.42 639.843 41.74C640.163 42.06 640.41 42.4667 640.583 42.96C640.77 43.4533 640.863 44.04 640.863 44.72V51H638.343V45.36C638.343 44.6533 638.17 44.1 637.823 43.7C637.49 43.2867 637.003 43.08 636.363 43.08C635.617 43.08 635.057 43.3333 634.683 43.84C634.323 44.3333 634.143 45 634.143 45.84V51ZM651.589 49.56H651.229C651.123 49.7867 650.989 50.0067 650.829 50.22C650.683 50.42 650.483 50.6 650.229 50.76C649.989 50.92 649.696 51.0467 649.349 51.14C649.016 51.2333 648.609 51.28 648.129 51.28C647.516 51.28 646.943 51.1733 646.409 50.96C645.889 50.7333 645.429 50.4067 645.029 49.98C644.643 49.54 644.336 49.0067 644.109 48.38C643.896 47.7533 643.789 47.0333 643.789 46.22V45.86C643.789 45.06 643.903 44.3467 644.129 43.72C644.369 43.0933 644.689 42.5667 645.089 42.14C645.503 41.7 645.976 41.3667 646.509 41.14C647.056 40.9133 647.629 40.8 648.229 40.8C649.029 40.8 649.663 40.9533 650.129 41.26C650.596 41.5533 650.963 41.9733 651.229 42.52H651.589V37H654.109V51H651.589V49.56ZM648.949 48.88C649.736 48.88 650.369 48.6333 650.849 48.14C651.343 47.6333 651.589 46.9733 651.589 46.16V45.92C651.589 45.1067 651.343 44.4533 650.849 43.96C650.369 43.4533 649.736 43.2 648.949 43.2C648.163 43.2 647.523 43.4467 647.029 43.94C646.549 44.42 646.309 45.08 646.309 45.92V46.16C646.309 47 646.549 47.6667 647.029 48.16C647.523 48.64 648.163 48.88 648.949 48.88ZM682.471 47.36C682.245 48.5333 681.705 49.48 680.851 50.2C680.011 50.92 678.885 51.28 677.471 51.28C676.738 51.28 676.051 51.1667 675.411 50.94C674.785 50.7133 674.238 50.3867 673.771 49.96C673.305 49.5333 672.938 49.0067 672.671 48.38C672.405 47.7533 672.271 47.04 672.271 46.24V46C672.271 45.2 672.405 44.48 672.671 43.84C672.938 43.2 673.305 42.6533 673.771 42.2C674.251 41.7467 674.805 41.4 675.431 41.16C676.071 40.92 676.751 40.8 677.471 40.8C678.858 40.8 679.978 41.16 680.831 41.88C681.698 42.6 682.245 43.5467 682.471 44.72L679.991 45.36C679.911 44.7733 679.658 44.2667 679.231 43.84C678.805 43.4133 678.205 43.2 677.431 43.2C677.071 43.2 676.731 43.2667 676.411 43.4C676.091 43.5333 675.811 43.7267 675.571 43.98C675.331 44.22 675.138 44.52 674.991 44.88C674.858 45.2267 674.791 45.62 674.791 46.06V46.18C674.791 46.62 674.858 47.0133 674.991 47.36C675.138 47.6933 675.331 47.9733 675.571 48.2C675.811 48.4267 676.091 48.6 676.411 48.72C676.731 48.8267 677.071 48.88 677.431 48.88C678.205 48.88 678.791 48.6867 679.191 48.3C679.605 47.9133 679.871 47.3933 679.991 46.74L682.471 47.36ZM695.357 46.16C695.357 46.9867 695.217 47.72 694.937 48.36C694.657 48.9867 694.277 49.52 693.797 49.96C693.317 50.3867 692.764 50.7133 692.137 50.94C691.524 51.1667 690.877 51.28 690.197 51.28C689.517 51.28 688.864 51.1667 688.237 50.94C687.624 50.7133 687.077 50.3867 686.597 49.96C686.117 49.52 685.737 48.9867 685.457 48.36C685.177 47.72 685.037 46.9867 685.037 46.16V45.92C685.037 45.1067 685.177 44.3867 685.457 43.76C685.737 43.12 686.117 42.58 686.597 42.14C687.077 41.7 687.624 41.3667 688.237 41.14C688.864 40.9133 689.517 40.8 690.197 40.8C690.877 40.8 691.524 40.9133 692.137 41.14C692.764 41.3667 693.317 41.7 693.797 42.14C694.277 42.58 694.657 43.12 694.937 43.76C695.217 44.3867 695.357 45.1067 695.357 45.92V46.16ZM690.197 48.88C690.557 48.88 690.897 48.82 691.217 48.7C691.537 48.58 691.817 48.4067 692.057 48.18C692.297 47.9533 692.484 47.68 692.617 47.36C692.764 47.0267 692.837 46.6533 692.837 46.24V45.84C692.837 45.4267 692.764 45.06 692.617 44.74C692.484 44.4067 692.297 44.1267 692.057 43.9C691.817 43.6733 691.537 43.5 691.217 43.38C690.897 43.26 690.557 43.2 690.197 43.2C689.837 43.2 689.497 43.26 689.177 43.38C688.857 43.5 688.577 43.6733 688.337 43.9C688.097 44.1267 687.904 44.4067 687.757 44.74C687.624 45.06 687.557 45.4267 687.557 45.84V46.24C687.557 46.6533 687.624 47.0267 687.757 47.36C687.904 47.68 688.097 47.9533 688.337 48.18C688.577 48.4067 688.857 48.58 689.177 48.7C689.497 48.82 689.837 48.88 690.197 48.88ZM701.003 51H698.483V41.08H701.003V42.56H701.363C701.59 42 701.957 41.5667 702.463 41.26C702.97 40.9533 703.563 40.8 704.243 40.8C704.723 40.8 705.17 40.88 705.583 41.04C706.01 41.1867 706.383 41.42 706.703 41.74C707.023 42.06 707.27 42.4667 707.443 42.96C707.63 43.4533 707.723 44.04 707.723 44.72V51H705.203V45.36C705.203 44.6533 705.03 44.1 704.683 43.7C704.35 43.2867 703.863 43.08 703.223 43.08C702.477 43.08 701.917 43.3333 701.543 43.84C701.183 44.3333 701.003 45 701.003 45.84V51ZM711.05 41.08H713.99V37H716.51V41.08H720.09V43.48H716.51V48C716.51 48.4 716.69 48.6 717.05 48.6H719.73V51H715.53C715.076 51 714.703 50.8533 714.41 50.56C714.13 50.2667 713.99 49.8933 713.99 49.44V43.48H711.05V41.08ZM723.696 41.08H727.896V42.52H728.256C728.442 41.9733 728.756 41.5533 729.196 41.26C729.649 40.9533 730.189 40.8 730.816 40.8C731.802 40.8 732.596 41.1133 733.196 41.74C733.796 42.3533 734.096 43.2933 734.096 44.56V45L731.496 45.24V44.96C731.496 44.4133 731.356 43.98 731.076 43.66C730.796 43.3267 730.376 43.16 729.816 43.16C729.256 43.16 728.816 43.3533 728.496 43.74C728.176 44.1267 728.016 44.68 728.016 45.4V48.6H730.296V51H723.456V48.6H725.496V43.48H723.696V41.08ZM743.442 49.56C743.175 50.1867 742.802 50.6333 742.322 50.9C741.842 51.1533 741.282 51.28 740.642 51.28C740.042 51.28 739.475 51.1667 738.942 50.94C738.422 50.7133 737.962 50.38 737.562 49.94C737.162 49.5 736.842 48.9667 736.602 48.34C736.375 47.7133 736.262 47 736.262 46.2V45.88C736.262 45.0933 736.375 44.3867 736.602 43.76C736.828 43.1333 737.135 42.6 737.522 42.16C737.908 41.72 738.355 41.3867 738.862 41.16C739.382 40.92 739.935 40.8 740.522 40.8C741.228 40.8 741.795 40.92 742.222 41.16C742.662 41.4 743.008 41.7733 743.262 42.28H743.622V41.08H746.142V48C746.142 48.4 746.322 48.6 746.682 48.6H747.062V51H745.342C744.888 51 744.515 50.8667 744.222 50.6C743.942 50.3333 743.802 49.9867 743.802 49.56H743.442ZM741.202 48.88C741.935 48.88 742.522 48.64 742.962 48.16C743.402 47.6667 743.622 47 743.622 46.16V45.92C743.622 45.08 743.402 44.42 742.962 43.94C742.522 43.4467 741.935 43.2 741.202 43.2C740.468 43.2 739.882 43.4467 739.442 43.94C739.002 44.42 738.782 45.08 738.782 45.92V46.16C738.782 47 739.002 47.6667 739.442 48.16C739.882 48.64 740.468 48.88 741.202 48.88ZM753.028 43.88C753.028 44.2 753.194 44.4333 753.528 44.58C753.861 44.7133 754.468 44.8267 755.348 44.92C756.361 45.0267 757.188 45.3333 757.828 45.84C758.468 46.3333 758.788 47.0267 758.788 47.92V48.04C758.788 49.0267 758.428 49.8133 757.708 50.4C756.988 50.9867 755.974 51.28 754.668 51.28C753.894 51.28 753.234 51.18 752.688 50.98C752.141 50.78 751.688 50.5333 751.328 50.24C750.968 49.9333 750.688 49.6 750.488 49.24C750.301 48.8667 750.174 48.5067 750.108 48.16L752.428 47.4C752.534 47.8267 752.754 48.2 753.088 48.52C753.434 48.84 753.961 49 754.668 49C755.294 49 755.721 48.9067 755.948 48.72C756.188 48.52 756.308 48.3067 756.308 48.08C756.308 47.9467 756.274 47.8267 756.208 47.72C756.154 47.6 756.048 47.4933 755.888 47.4C755.728 47.2933 755.508 47.2067 755.228 47.14C754.961 47.0733 754.621 47.02 754.208 46.98C753.088 46.8867 752.194 46.6 751.528 46.12C750.874 45.6267 750.548 44.9067 750.548 43.96V43.84C750.548 43.3467 750.654 42.9133 750.868 42.54C751.081 42.1667 751.361 41.8533 751.708 41.6C752.054 41.3333 752.454 41.1333 752.908 41C753.361 40.8667 753.828 40.8 754.308 40.8C754.934 40.8 755.474 40.88 755.928 41.04C756.394 41.1867 756.788 41.3867 757.108 41.64C757.428 41.88 757.688 42.1533 757.888 42.46C758.088 42.7533 758.241 43.04 758.348 43.32L756.068 44.24C755.948 43.88 755.741 43.6 755.448 43.4C755.154 43.1867 754.774 43.08 754.308 43.08C753.881 43.08 753.561 43.16 753.348 43.32C753.134 43.4667 753.028 43.6533 753.028 43.88ZM762.434 41.08H765.374V37H767.894V41.08H771.474V43.48H767.894V48C767.894 48.4 768.074 48.6 768.434 48.6H771.114V51H766.914C766.461 51 766.087 50.8533 765.794 50.56C765.514 50.2667 765.374 49.8933 765.374 49.44V43.48H762.434V41.08ZM4.64 73H9.64V81.84H11.68V84.36H9.64V87H7V84.36H0.76V80.72L4.64 73ZM3.04 81.48V81.84H7V74.32H6.64L3.04 81.48ZM20.8661 85.38C20.8661 85.6467 20.8128 85.9 20.7061 86.14C20.6128 86.3667 20.4794 86.5667 20.3061 86.74C20.1328 86.9 19.9261 87.0267 19.6861 87.12C19.4594 87.2267 19.2194 87.28 18.9661 87.28C18.6994 87.28 18.4528 87.2267 18.2261 87.12C17.9994 87.0267 17.7994 86.9 17.6261 86.74C17.4528 86.5667 17.3128 86.3667 17.2061 86.14C17.1128 85.9 17.0661 85.6467 17.0661 85.38C17.0661 85.1133 17.1128 84.8667 17.2061 84.64C17.3128 84.4 17.4528 84.2 17.6261 84.04C17.7994 83.8667 17.9994 83.7333 18.2261 83.64C18.4528 83.5333 18.6994 83.48 18.9661 83.48C19.2194 83.48 19.4594 83.5333 19.6861 83.64C19.9261 83.7333 20.1328 83.8667 20.3061 84.04C20.4794 84.2 20.6128 84.4 20.7061 84.64C20.8128 84.8667 20.8661 85.1133 20.8661 85.38ZM27.4522 73H36.4122V75.52H30.0922V78.72H36.2922V81.24H30.0922V87H27.4522V73ZM49.8183 82.16C49.8183 82.9867 49.6783 83.72 49.3983 84.36C49.1183 84.9867 48.7383 85.52 48.2583 85.96C47.7783 86.3867 47.2249 86.7133 46.5983 86.94C45.9849 87.1667 45.3383 87.28 44.6583 87.28C43.9783 87.28 43.3249 87.1667 42.6983 86.94C42.0849 86.7133 41.5383 86.3867 41.0583 85.96C40.5783 85.52 40.1983 84.9867 39.9183 84.36C39.6383 83.72 39.4983 82.9867 39.4983 82.16V81.92C39.4983 81.1067 39.6383 80.3867 39.9183 79.76C40.1983 79.12 40.5783 78.58 41.0583 78.14C41.5383 77.7 42.0849 77.3667 42.6983 77.14C43.3249 76.9133 43.9783 76.8 44.6583 76.8C45.3383 76.8 45.9849 76.9133 46.5983 77.14C47.2249 77.3667 47.7783 77.7 48.2583 78.14C48.7383 78.58 49.1183 79.12 49.3983 79.76C49.6783 80.3867 49.8183 81.1067 49.8183 81.92V82.16ZM44.6583 84.88C45.0183 84.88 45.3583 84.82 45.6783 84.7C45.9983 84.58 46.2783 84.4067 46.5183 84.18C46.7583 83.9533 46.9449 83.68 47.0783 83.36C47.2249 83.0267 47.2983 82.6533 47.2983 82.24V81.84C47.2983 81.4267 47.2249 81.06 47.0783 80.74C46.9449 80.4067 46.7583 80.1267 46.5183 79.9C46.2783 79.6733 45.9983 79.5 45.6783 79.38C45.3583 79.26 45.0183 79.2 44.6583 79.2C44.2983 79.2 43.9583 79.26 43.6383 79.38C43.3183 79.5 43.0383 79.6733 42.7983 79.9C42.5583 80.1267 42.3649 80.4067 42.2183 80.74C42.0849 81.06 42.0183 81.4267 42.0183 81.84V82.24C42.0183 82.6533 42.0849 83.0267 42.2183 83.36C42.3649 83.68 42.5583 83.9533 42.7983 84.18C43.0383 84.4067 43.3183 84.58 43.6383 84.7C43.9583 84.82 44.2983 84.88 44.6583 84.88ZM62.6244 83.36C62.3977 84.5333 61.8577 85.48 61.0044 86.2C60.1644 86.92 59.0377 87.28 57.6244 87.28C56.891 87.28 56.2044 87.1667 55.5644 86.94C54.9377 86.7133 54.391 86.3867 53.9244 85.96C53.4577 85.5333 53.091 85.0067 52.8244 84.38C52.5577 83.7533 52.4244 83.04 52.4244 82.24V82C52.4244 81.2 52.5577 80.48 52.8244 79.84C53.091 79.2 53.4577 78.6533 53.9244 78.2C54.4044 77.7467 54.9577 77.4 55.5844 77.16C56.2244 76.92 56.9044 76.8 57.6244 76.8C59.011 76.8 60.131 77.16 60.9844 77.88C61.851 78.6 62.3977 79.5467 62.6244 80.72L60.1444 81.36C60.0644 80.7733 59.811 80.2667 59.3844 79.84C58.9577 79.4133 58.3577 79.2 57.5844 79.2C57.2244 79.2 56.8844 79.2667 56.5644 79.4C56.2444 79.5333 55.9644 79.7267 55.7244 79.98C55.4844 80.22 55.291 80.52 55.1444 80.88C55.011 81.2267 54.9444 81.62 54.9444 82.06V82.18C54.9444 82.62 55.011 83.0133 55.1444 83.36C55.291 83.6933 55.4844 83.9733 55.7244 84.2C55.9644 84.4267 56.2444 84.6 56.5644 84.72C56.8844 84.8267 57.2244 84.88 57.5844 84.88C58.3577 84.88 58.9444 84.6867 59.3444 84.3C59.7577 83.9133 60.0244 83.3933 60.1444 82.74L62.6244 83.36ZM72.5105 77.08H75.0305V87H72.5105V85.56H72.1505C71.7105 86.7067 70.7638 87.28 69.3105 87.28C68.8171 87.28 68.3571 87.2 67.9305 87.04C67.5038 86.88 67.1305 86.6333 66.8105 86.3C66.4905 85.9667 66.2371 85.5533 66.0505 85.06C65.8771 84.5533 65.7905 83.96 65.7905 83.28V77.08H68.3105V82.76C68.3105 83.4667 68.4771 84.02 68.8105 84.42C69.1438 84.8067 69.6438 85 70.3105 85C71.0705 85 71.6238 84.76 71.9705 84.28C72.3305 83.7867 72.5105 83.12 72.5105 82.28V77.08ZM81.7966 79.88C81.7966 80.2 81.9632 80.4333 82.2966 80.58C82.6299 80.7133 83.2366 80.8267 84.1166 80.92C85.1299 81.0267 85.9566 81.3333 86.5966 81.84C87.2366 82.3333 87.5566 83.0267 87.5566 83.92V84.04C87.5566 85.0267 87.1966 85.8133 86.4766 86.4C85.7566 86.9867 84.7432 87.28 83.4366 87.28C82.6632 87.28 82.0032 87.18 81.4566 86.98C80.9099 86.78 80.4566 86.5333 80.0966 86.24C79.7366 85.9333 79.4566 85.6 79.2566 85.24C79.0699 84.8667 78.9432 84.5067 78.8766 84.16L81.1966 83.4C81.3032 83.8267 81.5232 84.2 81.8566 84.52C82.2032 84.84 82.7299 85 83.4366 85C84.0632 85 84.4899 84.9067 84.7166 84.72C84.9566 84.52 85.0766 84.3067 85.0766 84.08C85.0766 83.9467 85.0432 83.8267 84.9766 83.72C84.9232 83.6 84.8166 83.4933 84.6566 83.4C84.4966 83.2933 84.2766 83.2067 83.9966 83.14C83.7299 83.0733 83.3899 83.02 82.9766 82.98C81.8566 82.8867 80.9632 82.6 80.2966 82.12C79.6432 81.6267 79.3166 80.9067 79.3166 79.96V79.84C79.3166 79.3467 79.4232 78.9133 79.6366 78.54C79.8499 78.1667 80.1299 77.8533 80.4766 77.6C80.8232 77.3333 81.2232 77.1333 81.6766 77C82.1299 76.8667 82.5966 76.8 83.0766 76.8C83.7032 76.8 84.2432 76.88 84.6966 77.04C85.1632 77.1867 85.5566 77.3867 85.8766 77.64C86.1966 77.88 86.4566 78.1533 86.6566 78.46C86.8566 78.7533 87.0099 79.04 87.1166 79.32L84.8366 80.24C84.7166 79.88 84.5099 79.6 84.2166 79.4C83.9232 79.1867 83.5432 79.08 83.0766 79.08C82.6499 79.08 82.3299 79.16 82.1166 79.32C81.9032 79.4667 81.7966 79.6533 81.7966 79.88ZM104.249 77.08H107.069V75.04C107.069 74.4667 107.262 73.9867 107.649 73.6C108.035 73.2 108.515 73 109.089 73H113.129V75.4H110.129C109.769 75.4 109.589 75.6 109.589 76V77.08H113.489V79.48H109.589V87H107.069V79.48H104.249V77.08ZM116.695 77.08H120.895V78.52H121.255C121.442 77.9733 121.755 77.5533 122.195 77.26C122.648 76.9533 123.188 76.8 123.815 76.8C124.802 76.8 125.595 77.1133 126.195 77.74C126.795 78.3533 127.095 79.2933 127.095 80.56V81L124.495 81.24V80.96C124.495 80.4133 124.355 79.98 124.075 79.66C123.795 79.3267 123.375 79.16 122.815 79.16C122.255 79.16 121.815 79.3533 121.495 79.74C121.175 80.1267 121.015 80.68 121.015 81.4V84.6H123.295V87H116.455V84.6H118.495V79.48H116.695V77.08ZM136.441 85.56C136.174 86.1867 135.801 86.6333 135.321 86.9C134.841 87.1533 134.281 87.28 133.641 87.28C133.041 87.28 132.474 87.1667 131.941 86.94C131.421 86.7133 130.961 86.38 130.561 85.94C130.161 85.5 129.841 84.9667 129.601 84.34C129.374 83.7133 129.261 83 129.261 82.2V81.88C129.261 81.0933 129.374 80.3867 129.601 79.76C129.828 79.1333 130.134 78.6 130.521 78.16C130.908 77.72 131.354 77.3867 131.861 77.16C132.381 76.92 132.934 76.8 133.521 76.8C134.228 76.8 134.794 76.92 135.221 77.16C135.661 77.4 136.008 77.7733 136.261 78.28H136.621V77.08H139.141V84C139.141 84.4 139.321 84.6 139.681 84.6H140.061V87H138.341C137.888 87 137.514 86.8667 137.221 86.6C136.941 86.3333 136.801 85.9867 136.801 85.56H136.441ZM134.201 84.88C134.934 84.88 135.521 84.64 135.961 84.16C136.401 83.6667 136.621 83 136.621 82.16V81.92C136.621 81.08 136.401 80.42 135.961 79.94C135.521 79.4467 134.934 79.2 134.201 79.2C133.468 79.2 132.881 79.4467 132.441 79.94C132.001 80.42 131.781 81.08 131.781 81.92V82.16C131.781 83 132.001 83.6667 132.441 84.16C132.881 84.64 133.468 84.88 134.201 84.88ZM152.827 87H150.307V80.04C150.307 79.76 150.234 79.5533 150.087 79.42C149.954 79.2733 149.774 79.2 149.547 79.2C149.28 79.2 149.067 79.28 148.907 79.44C148.76 79.6 148.687 79.84 148.687 80.16V87H146.167V80.04C146.167 79.76 146.087 79.5533 145.927 79.42C145.78 79.2733 145.6 79.2 145.387 79.2C145.147 79.2 144.947 79.28 144.787 79.44C144.627 79.6 144.547 79.84 144.547 80.16V87H142.027V77.08H144.547V78.04H144.907C144.987 77.68 145.167 77.3867 145.447 77.16C145.74 76.92 146.12 76.8 146.587 76.8C147.027 76.8 147.4 76.92 147.707 77.16C148.014 77.3867 148.22 77.68 148.327 78.04H148.687C148.794 77.68 149.014 77.3867 149.347 77.16C149.694 76.92 150.12 76.8 150.627 76.8C151.294 76.8 151.827 77.0267 152.227 77.48C152.627 77.92 152.827 78.5333 152.827 79.32V87ZM157.933 82.86C157.946 83.1533 158.013 83.4267 158.133 83.68C158.266 83.92 158.44 84.1333 158.653 84.32C158.88 84.4933 159.133 84.6333 159.413 84.74C159.706 84.8333 160.013 84.88 160.333 84.88C160.96 84.88 161.44 84.7733 161.773 84.56C162.106 84.3333 162.346 84.0667 162.493 83.76L164.653 84.96C164.533 85.2133 164.366 85.48 164.153 85.76C163.94 86.0267 163.66 86.2733 163.313 86.5C162.98 86.7267 162.566 86.9133 162.073 87.06C161.593 87.2067 161.026 87.28 160.373 87.28C159.626 87.28 158.946 87.16 158.333 86.92C157.72 86.68 157.186 86.3333 156.733 85.88C156.293 85.4267 155.946 84.8733 155.693 84.22C155.453 83.5667 155.333 82.8267 155.333 82V81.88C155.333 81.12 155.46 80.4267 155.713 79.8C155.98 79.1733 156.34 78.64 156.793 78.2C157.246 77.76 157.773 77.42 158.373 77.18C158.986 76.9267 159.64 76.8 160.333 76.8C161.186 76.8 161.92 76.9533 162.533 77.26C163.146 77.5533 163.653 77.9333 164.053 78.4C164.453 78.8533 164.746 79.36 164.933 79.92C165.12 80.4667 165.213 81 165.213 81.52V82.86H157.933ZM160.313 79.08C159.673 79.08 159.153 79.2467 158.753 79.58C158.353 79.9 158.093 80.2733 157.973 80.7H162.653C162.573 80.2333 162.32 79.8467 161.893 79.54C161.48 79.2333 160.953 79.08 160.313 79.08ZM187.825 85.56C187.559 86.1867 187.185 86.6333 186.705 86.9C186.225 87.1533 185.665 87.28 185.025 87.28C184.425 87.28 183.859 87.1667 183.325 86.94C182.805 86.7133 182.345 86.38 181.945 85.94C181.545 85.5 181.225 84.9667 180.985 84.34C180.759 83.7133 180.645 83 180.645 82.2V81.88C180.645 81.0933 180.759 80.3867 180.985 79.76C181.212 79.1333 181.519 78.6 181.905 78.16C182.292 77.72 182.739 77.3867 183.245 77.16C183.765 76.92 184.319 76.8 184.905 76.8C185.612 76.8 186.179 76.92 186.605 77.16C187.045 77.4 187.392 77.7733 187.645 78.28H188.005V77.08H190.525V84C190.525 84.4 190.705 84.6 191.065 84.6H191.445V87H189.725C189.272 87 188.899 86.8667 188.605 86.6C188.325 86.3333 188.185 85.9867 188.185 85.56H187.825ZM185.585 84.88C186.319 84.88 186.905 84.64 187.345 84.16C187.785 83.6667 188.005 83 188.005 82.16V81.92C188.005 81.08 187.785 80.42 187.345 79.94C186.905 79.4467 186.319 79.2 185.585 79.2C184.852 79.2 184.265 79.4467 183.825 79.94C183.385 80.42 183.165 81.08 183.165 81.92V82.16C183.165 83 183.385 83.6667 183.825 84.16C184.265 84.64 184.852 84.88 185.585 84.88ZM196.771 87H194.251V77.08H196.771V78.56H197.131C197.358 78 197.725 77.5667 198.231 77.26C198.738 76.9533 199.331 76.8 200.011 76.8C200.491 76.8 200.938 76.88 201.351 77.04C201.778 77.1867 202.151 77.42 202.471 77.74C202.791 78.06 203.038 78.4667 203.211 78.96C203.398 79.4533 203.491 80.04 203.491 80.72V87H200.971V81.36C200.971 80.6533 200.798 80.1 200.451 79.7C200.118 79.2867 199.631 79.08 198.991 79.08C198.245 79.08 197.685 79.3333 197.311 79.84C196.951 80.3333 196.771 81 196.771 81.84V87ZM214.218 85.56H213.858C213.751 85.7867 213.618 86.0067 213.458 86.22C213.311 86.42 213.111 86.6 212.858 86.76C212.618 86.92 212.324 87.0467 211.978 87.14C211.644 87.2333 211.238 87.28 210.758 87.28C210.144 87.28 209.571 87.1733 209.038 86.96C208.518 86.7333 208.058 86.4067 207.658 85.98C207.271 85.54 206.964 85.0067 206.738 84.38C206.524 83.7533 206.418 83.0333 206.418 82.22V81.86C206.418 81.06 206.531 80.3467 206.758 79.72C206.998 79.0933 207.318 78.5667 207.718 78.14C208.131 77.7 208.604 77.3667 209.138 77.14C209.684 76.9133 210.258 76.8 210.858 76.8C211.658 76.8 212.291 76.9533 212.758 77.26C213.224 77.5533 213.591 77.9733 213.858 78.52H214.218V73H216.738V87H214.218V85.56ZM211.578 84.88C212.364 84.88 212.998 84.6333 213.478 84.14C213.971 83.6333 214.218 82.9733 214.218 82.16V81.92C214.218 81.1067 213.971 80.4533 213.478 79.96C212.998 79.4533 212.364 79.2 211.578 79.2C210.791 79.2 210.151 79.4467 209.658 79.94C209.178 80.42 208.938 81.08 208.938 81.92V82.16C208.938 83 209.178 83.6667 209.658 84.16C210.151 84.64 210.791 84.88 211.578 84.88ZM234.89 87H232.37V73H234.89V78.52H235.25C235.516 77.9733 235.903 77.5533 236.41 77.26C236.916 76.9533 237.563 76.8 238.35 76.8C238.936 76.8 239.49 76.9133 240.01 77.14C240.543 77.3667 241.003 77.7 241.39 78.14C241.79 78.5667 242.103 79.0933 242.33 79.72C242.57 80.3467 242.69 81.06 242.69 81.86V82.22C242.69 83.0333 242.576 83.7533 242.35 84.38C242.123 85.0067 241.816 85.54 241.43 85.98C241.043 86.4067 240.583 86.7333 240.05 86.96C239.53 87.1733 238.963 87.28 238.35 87.28C237.896 87.28 237.503 87.2333 237.17 87.14C236.836 87.0467 236.543 86.92 236.29 86.76C236.05 86.6 235.843 86.42 235.67 86.22C235.51 86.0067 235.37 85.7867 235.25 85.56H234.89V87ZM237.53 84.88C238.316 84.88 238.95 84.64 239.43 84.16C239.923 83.6667 240.17 83 240.17 82.16V81.92C240.17 81.08 239.923 80.42 239.43 79.94C238.95 79.4467 238.316 79.2 237.53 79.2C236.743 79.2 236.103 79.4533 235.61 79.96C235.13 80.4533 234.89 81.1067 234.89 81.92V82.16C234.89 82.9733 235.13 83.6333 235.61 84.14C236.103 84.6333 236.743 84.88 237.53 84.88ZM252.056 85.56C251.789 86.1867 251.416 86.6333 250.936 86.9C250.456 87.1533 249.896 87.28 249.256 87.28C248.656 87.28 248.089 87.1667 247.556 86.94C247.036 86.7133 246.576 86.38 246.176 85.94C245.776 85.5 245.456 84.9667 245.216 84.34C244.989 83.7133 244.876 83 244.876 82.2V81.88C244.876 81.0933 244.989 80.3867 245.216 79.76C245.442 79.1333 245.749 78.6 246.136 78.16C246.522 77.72 246.969 77.3867 247.476 77.16C247.996 76.92 248.549 76.8 249.136 76.8C249.842 76.8 250.409 76.92 250.836 77.16C251.276 77.4 251.622 77.7733 251.876 78.28H252.236V77.08H254.756V84C254.756 84.4 254.936 84.6 255.296 84.6H255.676V87H253.956C253.502 87 253.129 86.8667 252.836 86.6C252.556 86.3333 252.416 85.9867 252.416 85.56H252.056ZM249.816 84.88C250.549 84.88 251.136 84.64 251.576 84.16C252.016 83.6667 252.236 83 252.236 82.16V81.92C252.236 81.08 252.016 80.42 251.576 79.94C251.136 79.4467 250.549 79.2 249.816 79.2C249.082 79.2 248.496 79.4467 248.056 79.94C247.616 80.42 247.396 81.08 247.396 81.92V82.16C247.396 83 247.616 83.6667 248.056 84.16C248.496 84.64 249.082 84.88 249.816 84.88ZM268.162 83.36C267.935 84.5333 267.395 85.48 266.542 86.2C265.702 86.92 264.575 87.28 263.162 87.28C262.429 87.28 261.742 87.1667 261.102 86.94C260.475 86.7133 259.929 86.3867 259.462 85.96C258.995 85.5333 258.629 85.0067 258.362 84.38C258.095 83.7533 257.962 83.04 257.962 82.24V82C257.962 81.2 258.095 80.48 258.362 79.84C258.629 79.2 258.995 78.6533 259.462 78.2C259.942 77.7467 260.495 77.4 261.122 77.16C261.762 76.92 262.442 76.8 263.162 76.8C264.549 76.8 265.669 77.16 266.522 77.88C267.389 78.6 267.935 79.5467 268.162 80.72L265.682 81.36C265.602 80.7733 265.349 80.2667 264.922 79.84C264.495 79.4133 263.895 79.2 263.122 79.2C262.762 79.2 262.422 79.2667 262.102 79.4C261.782 79.5333 261.502 79.7267 261.262 79.98C261.022 80.22 260.829 80.52 260.682 80.88C260.549 81.2267 260.482 81.62 260.482 82.06V82.18C260.482 82.62 260.549 83.0133 260.682 83.36C260.829 83.6933 261.022 83.9733 261.262 84.2C261.502 84.4267 261.782 84.6 262.102 84.72C262.422 84.8267 262.762 84.88 263.122 84.88C263.895 84.88 264.482 84.6867 264.882 84.3C265.295 83.9133 265.562 83.3933 265.682 82.74L268.162 83.36ZM274.648 80.72H275.128L277.768 77.08H280.528V77.2L277.328 81.74V82.1L280.848 86.88V87H277.968L275.128 83.12H274.648V87H272.128V73H274.648V80.72ZM291.254 85.56H290.894C290.787 85.7867 290.654 86.0067 290.494 86.22C290.347 86.42 290.147 86.6 289.894 86.76C289.654 86.92 289.361 87.0467 289.014 87.14C288.681 87.2333 288.274 87.28 287.794 87.28C287.181 87.28 286.607 87.1733 286.074 86.96C285.554 86.7333 285.094 86.4067 284.694 85.98C284.307 85.54 284.001 85.0067 283.774 84.38C283.561 83.7533 283.454 83.0333 283.454 82.22V81.86C283.454 81.06 283.567 80.3467 283.794 79.72C284.034 79.0933 284.354 78.5667 284.754 78.14C285.167 77.7 285.641 77.3667 286.174 77.14C286.721 76.9133 287.294 76.8 287.894 76.8C288.694 76.8 289.327 76.9533 289.794 77.26C290.261 77.5533 290.627 77.9733 290.894 78.52H291.254V77.08H293.774V89.44C293.774 89.8933 293.627 90.2667 293.334 90.56C293.054 90.8533 292.687 91 292.234 91H285.554V88.6H290.714C291.074 88.6 291.254 88.4 291.254 88V85.56ZM288.614 84.88C289.401 84.88 290.034 84.6333 290.514 84.14C291.007 83.6333 291.254 82.9733 291.254 82.16V81.92C291.254 81.1067 291.007 80.4533 290.514 79.96C290.034 79.4533 289.401 79.2 288.614 79.2C287.827 79.2 287.187 79.4467 286.694 79.94C286.214 80.42 285.974 81.08 285.974 81.92V82.16C285.974 83 286.214 83.6667 286.694 84.16C287.187 84.64 287.827 84.88 288.614 84.88ZM296.54 77.08H300.74V78.52H301.1C301.287 77.9733 301.6 77.5533 302.04 77.26C302.493 76.9533 303.033 76.8 303.66 76.8C304.647 76.8 305.44 77.1133 306.04 77.74C306.64 78.3533 306.94 79.2933 306.94 80.56V81L304.34 81.24V80.96C304.34 80.4133 304.2 79.98 303.92 79.66C303.64 79.3267 303.22 79.16 302.66 79.16C302.1 79.16 301.66 79.3533 301.34 79.74C301.02 80.1267 300.86 80.68 300.86 81.4V84.6H303.14V87H296.3V84.6H298.34V79.48H296.54V77.08ZM319.586 82.16C319.586 82.9867 319.446 83.72 319.166 84.36C318.886 84.9867 318.506 85.52 318.026 85.96C317.546 86.3867 316.993 86.7133 316.366 86.94C315.753 87.1667 315.106 87.28 314.426 87.28C313.746 87.28 313.093 87.1667 312.466 86.94C311.853 86.7133 311.306 86.3867 310.826 85.96C310.346 85.52 309.966 84.9867 309.686 84.36C309.406 83.72 309.266 82.9867 309.266 82.16V81.92C309.266 81.1067 309.406 80.3867 309.686 79.76C309.966 79.12 310.346 78.58 310.826 78.14C311.306 77.7 311.853 77.3667 312.466 77.14C313.093 76.9133 313.746 76.8 314.426 76.8C315.106 76.8 315.753 76.9133 316.366 77.14C316.993 77.3667 317.546 77.7 318.026 78.14C318.506 78.58 318.886 79.12 319.166 79.76C319.446 80.3867 319.586 81.1067 319.586 81.92V82.16ZM314.426 84.88C314.786 84.88 315.126 84.82 315.446 84.7C315.766 84.58 316.046 84.4067 316.286 84.18C316.526 83.9533 316.713 83.68 316.846 83.36C316.993 83.0267 317.066 82.6533 317.066 82.24V81.84C317.066 81.4267 316.993 81.06 316.846 80.74C316.713 80.4067 316.526 80.1267 316.286 79.9C316.046 79.6733 315.766 79.5 315.446 79.38C315.126 79.26 314.786 79.2 314.426 79.2C314.066 79.2 313.726 79.26 313.406 79.38C313.086 79.5 312.806 79.6733 312.566 79.9C312.326 80.1267 312.133 80.4067 311.986 80.74C311.853 81.06 311.786 81.4267 311.786 81.84V82.24C311.786 82.6533 311.853 83.0267 311.986 83.36C312.133 83.68 312.326 83.9533 312.566 84.18C312.806 84.4067 313.086 84.58 313.406 84.7C313.726 84.82 314.066 84.88 314.426 84.88ZM329.432 77.08H331.952V87H329.432V85.56H329.072C328.632 86.7067 327.686 87.28 326.232 87.28C325.739 87.28 325.279 87.2 324.852 87.04C324.426 86.88 324.052 86.6333 323.732 86.3C323.412 85.9667 323.159 85.5533 322.972 85.06C322.799 84.5533 322.712 83.96 322.712 83.28V77.08H325.232V82.76C325.232 83.4667 325.399 84.02 325.732 84.42C326.066 84.8067 326.566 85 327.232 85C327.992 85 328.546 84.76 328.892 84.28C329.252 83.7867 329.432 83.12 329.432 82.28V77.08ZM338.078 87H335.558V77.08H338.078V78.56H338.438C338.665 78 339.032 77.5667 339.538 77.26C340.045 76.9533 340.638 76.8 341.318 76.8C341.798 76.8 342.245 76.88 342.658 77.04C343.085 77.1867 343.458 77.42 343.778 77.74C344.098 78.06 344.345 78.4667 344.518 78.96C344.705 79.4533 344.798 80.04 344.798 80.72V87H342.278V81.36C342.278 80.6533 342.105 80.1 341.758 79.7C341.425 79.2867 340.938 79.08 340.298 79.08C339.552 79.08 338.992 79.3333 338.618 79.84C338.258 80.3333 338.078 81 338.078 81.84V87ZM355.525 85.56H355.165C355.058 85.7867 354.925 86.0067 354.765 86.22C354.618 86.42 354.418 86.6 354.165 86.76C353.925 86.92 353.631 87.0467 353.285 87.14C352.951 87.2333 352.545 87.28 352.065 87.28C351.451 87.28 350.878 87.1733 350.345 86.96C349.825 86.7333 349.365 86.4067 348.965 85.98C348.578 85.54 348.271 85.0067 348.045 84.38C347.831 83.7533 347.725 83.0333 347.725 82.22V81.86C347.725 81.06 347.838 80.3467 348.065 79.72C348.305 79.0933 348.625 78.5667 349.025 78.14C349.438 77.7 349.911 77.3667 350.445 77.14C350.991 76.9133 351.565 76.8 352.165 76.8C352.965 76.8 353.598 76.9533 354.065 77.26C354.531 77.5533 354.898 77.9733 355.165 78.52H355.525V73H358.045V87H355.525V85.56ZM352.885 84.88C353.671 84.88 354.305 84.6333 354.785 84.14C355.278 83.6333 355.525 82.9733 355.525 82.16V81.92C355.525 81.1067 355.278 80.4533 354.785 79.96C354.305 79.4533 353.671 79.2 352.885 79.2C352.098 79.2 351.458 79.4467 350.965 79.94C350.485 80.42 350.245 81.08 350.245 81.92V82.16C350.245 83 350.485 83.6667 350.965 84.16C351.458 84.64 352.098 84.88 352.885 84.88ZM438.087 80.76V73H447.447V75.52H440.727V79.32H441.087C441.274 78.8 441.621 78.3533 442.127 77.98C442.647 77.5933 443.341 77.4 444.207 77.4C444.861 77.4 445.447 77.5133 445.967 77.74C446.487 77.9667 446.927 78.28 447.287 78.68C447.647 79.08 447.921 79.56 448.107 80.12C448.307 80.68 448.407 81.2933 448.407 81.96V82.08C448.407 82.7867 448.287 83.4533 448.047 84.08C447.821 84.7067 447.481 85.26 447.027 85.74C446.587 86.2067 446.041 86.58 445.387 86.86C444.734 87.14 443.981 87.28 443.127 87.28C442.274 87.28 441.521 87.1667 440.867 86.94C440.214 86.7 439.661 86.3733 439.207 85.96C438.767 85.5333 438.427 85.0333 438.187 84.46C437.961 83.8733 437.847 83.24 437.847 82.56V82.08H440.487V82.32C440.487 83.0267 440.701 83.6133 441.127 84.08C441.567 84.5333 442.207 84.76 443.047 84.76C443.887 84.76 444.547 84.5333 445.027 84.08C445.521 83.6267 445.767 83 445.767 82.2C445.767 81.44 445.587 80.8733 445.227 80.5C444.867 80.1133 444.394 79.92 443.807 79.92C443.421 79.92 443.107 80.0067 442.867 80.18C442.627 80.34 442.474 80.5333 442.407 80.76H438.087ZM457.633 85.38C457.633 85.6467 457.58 85.9 457.473 86.14C457.38 86.3667 457.247 86.5667 457.073 86.74C456.9 86.9 456.693 87.0267 456.453 87.12C456.227 87.2267 455.987 87.28 455.733 87.28C455.467 87.28 455.22 87.2267 454.993 87.12C454.767 87.0267 454.567 86.9 454.393 86.74C454.22 86.5667 454.08 86.3667 453.973 86.14C453.88 85.9 453.833 85.6467 453.833 85.38C453.833 85.1133 453.88 84.8667 453.973 84.64C454.08 84.4 454.22 84.2 454.393 84.04C454.567 83.8667 454.767 83.7333 454.993 83.64C455.22 83.5333 455.467 83.48 455.733 83.48C455.987 83.48 456.227 83.5333 456.453 83.64C456.693 83.7333 456.9 83.8667 457.073 84.04C457.247 84.2 457.38 84.4 457.473 84.64C457.58 84.8667 457.633 85.1133 457.633 85.38ZM464.099 73H466.739V84.48H473.099V87H464.099V73ZM477.045 84.6H480.405V79.48H477.285V77.08H482.925V84.6H485.805V87H477.045V84.6ZM483.545 74.14C483.545 74.4067 483.492 74.66 483.385 74.9C483.292 75.1267 483.159 75.3267 482.985 75.5C482.812 75.66 482.605 75.7933 482.365 75.9C482.139 75.9933 481.899 76.04 481.645 76.04C481.379 76.04 481.132 75.9933 480.905 75.9C480.679 75.7933 480.479 75.66 480.305 75.5C480.132 75.3267 479.992 75.1267 479.885 74.9C479.792 74.66 479.745 74.4067 479.745 74.14C479.745 73.8733 479.792 73.6267 479.885 73.4C479.992 73.16 480.132 72.96 480.305 72.8C480.479 72.6267 480.679 72.4933 480.905 72.4C481.132 72.2933 481.379 72.24 481.645 72.24C481.899 72.24 482.139 72.2933 482.365 72.4C482.605 72.4933 482.812 72.6267 482.985 72.8C483.159 72.96 483.292 73.16 483.385 73.4C483.492 73.6267 483.545 73.8733 483.545 74.14ZM496.792 85.56H496.432C496.325 85.7867 496.192 86.0067 496.032 86.22C495.885 86.42 495.685 86.6 495.432 86.76C495.192 86.92 494.898 87.0467 494.552 87.14C494.218 87.2333 493.812 87.28 493.332 87.28C492.718 87.28 492.145 87.1733 491.612 86.96C491.092 86.7333 490.632 86.4067 490.232 85.98C489.845 85.54 489.538 85.0067 489.312 84.38C489.098 83.7533 488.992 83.0333 488.992 82.22V81.86C488.992 81.06 489.105 80.3467 489.332 79.72C489.572 79.0933 489.892 78.5667 490.292 78.14C490.705 77.7 491.178 77.3667 491.712 77.14C492.258 76.9133 492.832 76.8 493.432 76.8C494.232 76.8 494.865 76.9533 495.332 77.26C495.798 77.5533 496.165 77.9733 496.432 78.52H496.792V77.08H499.312V89.44C499.312 89.8933 499.165 90.2667 498.872 90.56C498.592 90.8533 498.225 91 497.772 91H491.092V88.6H496.252C496.612 88.6 496.792 88.4 496.792 88V85.56ZM494.152 84.88C494.938 84.88 495.572 84.6333 496.052 84.14C496.545 83.6333 496.792 82.9733 496.792 82.16V81.92C496.792 81.1067 496.545 80.4533 496.052 79.96C495.572 79.4533 494.938 79.2 494.152 79.2C493.365 79.2 492.725 79.4467 492.232 79.94C491.752 80.42 491.512 81.08 491.512 81.92V82.16C491.512 83 491.752 83.6667 492.232 84.16C492.725 84.64 493.365 84.88 494.152 84.88ZM505.118 87H502.598V73H505.118V78.68H505.478C505.731 78.08 506.104 77.62 506.598 77.3C507.091 76.9667 507.698 76.8 508.418 76.8C508.911 76.8 509.364 76.88 509.778 77.04C510.191 77.2 510.551 77.44 510.858 77.76C511.164 78.08 511.404 78.4933 511.578 79C511.751 79.4933 511.838 80.08 511.838 80.76V87H509.318V81.36C509.318 80.6533 509.144 80.1 508.798 79.7C508.464 79.2867 507.978 79.08 507.338 79.08C506.591 79.08 506.031 79.3333 505.658 79.84C505.298 80.3333 505.118 81 505.118 81.84V87ZM515.124 77.08H518.064V73H520.584V77.08H524.164V79.48H520.584V84C520.584 84.4 520.764 84.6 521.124 84.6H523.804V87H519.604C519.15 87 518.777 86.8533 518.484 86.56C518.204 86.2667 518.064 85.8933 518.064 85.44V79.48H515.124V77.08ZM528.43 84.6H531.79V79.48H528.67V77.08H534.31V84.6H537.19V87H528.43V84.6ZM534.93 74.14C534.93 74.4067 534.876 74.66 534.77 74.9C534.676 75.1267 534.543 75.3267 534.37 75.5C534.196 75.66 533.99 75.7933 533.75 75.9C533.523 75.9933 533.283 76.04 533.03 76.04C532.763 76.04 532.516 75.9933 532.29 75.9C532.063 75.7933 531.863 75.66 531.69 75.5C531.516 75.3267 531.376 75.1267 531.27 74.9C531.176 74.66 531.13 74.4067 531.13 74.14C531.13 73.8733 531.176 73.6267 531.27 73.4C531.376 73.16 531.516 72.96 531.69 72.8C531.863 72.6267 532.063 72.4933 532.29 72.4C532.516 72.2933 532.763 72.24 533.03 72.24C533.283 72.24 533.523 72.2933 533.75 72.4C533.99 72.4933 534.196 72.6267 534.37 72.8C534.543 72.96 534.676 73.16 534.77 73.4C534.876 73.6267 534.93 73.8733 534.93 74.14ZM543.616 87H541.096V77.08H543.616V78.56H543.976C544.203 78 544.569 77.5667 545.076 77.26C545.583 76.9533 546.176 76.8 546.856 76.8C547.336 76.8 547.783 76.88 548.196 77.04C548.623 77.1867 548.996 77.42 549.316 77.74C549.636 78.06 549.883 78.4667 550.056 78.96C550.243 79.4533 550.336 80.04 550.336 80.72V87H547.816V81.36C547.816 80.6533 547.643 80.1 547.296 79.7C546.963 79.2867 546.476 79.08 545.836 79.08C545.089 79.08 544.529 79.3333 544.156 79.84C543.796 80.3333 543.616 81 543.616 81.84V87ZM561.022 85.56H560.662C560.555 85.7867 560.422 86.0067 560.262 86.22C560.115 86.42 559.915 86.6 559.662 86.76C559.422 86.92 559.129 87.0467 558.782 87.14C558.449 87.2333 558.042 87.28 557.562 87.28C556.949 87.28 556.375 87.1733 555.842 86.96C555.322 86.7333 554.862 86.4067 554.462 85.98C554.075 85.54 553.769 85.0067 553.542 84.38C553.329 83.7533 553.222 83.0333 553.222 82.22V81.86C553.222 81.06 553.335 80.3467 553.562 79.72C553.802 79.0933 554.122 78.5667 554.522 78.14C554.935 77.7 555.409 77.3667 555.942 77.14C556.489 76.9133 557.062 76.8 557.662 76.8C558.462 76.8 559.095 76.9533 559.562 77.26C560.029 77.5533 560.395 77.9733 560.662 78.52H561.022V77.08H563.542V89.44C563.542 89.8933 563.395 90.2667 563.102 90.56C562.822 90.8533 562.455 91 562.002 91H555.322V88.6H560.482C560.842 88.6 561.022 88.4 561.022 88V85.56ZM558.382 84.88C559.169 84.88 559.802 84.6333 560.282 84.14C560.775 83.6333 561.022 82.9733 561.022 82.16V81.92C561.022 81.1067 560.775 80.4533 560.282 79.96C559.802 79.4533 559.169 79.2 558.382 79.2C557.595 79.2 556.955 79.4467 556.462 79.94C555.982 80.42 555.742 81.08 555.742 81.92V82.16C555.742 83 555.982 83.6667 556.462 84.16C556.955 84.64 557.595 84.88 558.382 84.88Z" fill="white"/>
</svg>
