<svg width="284" height="72" viewBox="0 0 284 72" fill="none" xmlns="http://www.w3.org/2000/svg">
<g filter="url(#filter0_b_529_347)">
<rect width="284" height="72" rx="4" fill="url(#paint0_linear_529_347)" fill-opacity="0.1"/>
<rect x="0.5" y="0.5" width="283" height="71" rx="3.5" stroke="white" stroke-opacity="0.12"/>
</g>
<path d="M57.9681 45H55.9521V39.384C55.9521 38.968 55.8561 38.648 55.6641 38.424C55.4721 38.2 55.1361 38.088 54.6561 38.088H49.4241V45H47.4081V28.2H53.4081C54.2721 28.2 55.0241 28.328 55.6641 28.584C56.3041 28.824 56.8321 29.152 57.2481 29.568C57.6801 29.984 58.0001 30.472 58.2081 31.032C58.4321 31.576 58.5441 32.152 58.5441 32.76V33.48C58.5441 34.104 58.3681 34.728 58.0161 35.352C57.6801 35.976 57.1521 36.456 56.4321 36.792V37.08C56.9121 37.16 57.2881 37.352 57.5601 37.656C57.8321 37.96 57.9681 38.392 57.9681 38.952V45ZM49.4241 36.216H53.1681C54.3041 36.216 55.1441 35.976 55.6881 35.496C56.2481 35 56.5281 34.28 56.5281 33.336V32.904C56.5281 32.056 56.2481 31.376 55.6881 30.864C55.1441 30.336 54.3041 30.072 53.1681 30.072H49.4241V36.216ZM64.2394 39.624C64.2874 40.808 64.6554 41.76 65.3434 42.48C66.0314 43.2 66.9914 43.56 68.2234 43.56C68.7834 43.56 69.2714 43.496 69.6874 43.368C70.1034 43.24 70.4554 43.064 70.7434 42.84C71.0474 42.616 71.2874 42.36 71.4634 42.072C71.6554 41.768 71.8074 41.448 71.9194 41.112L73.6954 41.592C73.3594 42.696 72.7354 43.6 71.8234 44.304C70.9274 44.992 69.7114 45.336 68.1754 45.336C67.3274 45.336 66.5434 45.192 65.8234 44.904C65.1194 44.6 64.5114 44.176 63.9994 43.632C63.4874 43.088 63.0874 42.44 62.7994 41.688C62.5114 40.936 62.3674 40.104 62.3674 39.192V38.616C62.3674 37.784 62.5114 37.008 62.7994 36.288C63.1034 35.568 63.5194 34.952 64.0474 34.44C64.5754 33.912 65.1914 33.504 65.8954 33.216C66.6154 32.912 67.3914 32.76 68.2234 32.76C69.1994 32.76 70.0394 32.944 70.7434 33.312C71.4634 33.664 72.0474 34.104 72.4954 34.632C72.9594 35.16 73.2954 35.736 73.5034 36.36C73.7274 36.984 73.8394 37.56 73.8394 38.088V39.624H64.2394ZM68.2234 34.536C67.6954 34.536 67.1994 34.624 66.7354 34.8C66.2874 34.96 65.8874 35.192 65.5354 35.496C65.1994 35.8 64.9194 36.16 64.6954 36.576C64.4874 36.976 64.3514 37.416 64.2874 37.896H71.9674C71.9354 37.384 71.8074 36.92 71.5834 36.504C71.3754 36.088 71.0954 35.736 70.7434 35.448C70.4074 35.16 70.0154 34.936 69.5674 34.776C69.1354 34.616 68.6874 34.536 68.2234 34.536ZM87.3348 43.176H87.0468C86.6628 43.896 86.1348 44.44 85.4628 44.808C84.8068 45.16 84.0868 45.336 83.3028 45.336C82.5028 45.336 81.7508 45.2 81.0468 44.928C80.3428 44.656 79.7188 44.264 79.1748 43.752C78.6468 43.24 78.2228 42.608 77.9028 41.856C77.5988 41.088 77.4468 40.216 77.4468 39.24V38.856C77.4468 37.896 77.6068 37.04 77.9268 36.288C78.2468 35.52 78.6708 34.88 79.1988 34.368C79.7268 33.84 80.3428 33.44 81.0468 33.168C81.7508 32.896 82.4868 32.76 83.2548 32.76C84.1188 32.76 84.8708 32.952 85.5108 33.336C86.1668 33.704 86.6788 34.248 87.0468 34.968H87.3348V33.096H89.2068V47.928C89.2068 48.472 89.0308 48.92 88.6788 49.272C88.3428 49.624 87.9028 49.8 87.3588 49.8H79.6068V48.072H86.6868C87.1188 48.072 87.3348 47.832 87.3348 47.352V43.176ZM83.3508 43.56C83.9108 43.56 84.4308 43.456 84.9108 43.248C85.3908 43.04 85.8068 42.744 86.1588 42.36C86.5268 41.976 86.8148 41.52 87.0228 40.992C87.2308 40.448 87.3348 39.848 87.3348 39.192V38.904C87.3348 38.264 87.2308 37.68 87.0228 37.152C86.8148 36.608 86.5268 36.144 86.1588 35.76C85.8068 35.376 85.3828 35.08 84.8868 34.872C84.4068 34.648 83.8948 34.536 83.3508 34.536C82.7908 34.536 82.2628 34.64 81.7668 34.848C81.2868 35.056 80.8628 35.352 80.4948 35.736C80.1428 36.12 79.8628 36.576 79.6548 37.104C79.4628 37.632 79.3668 38.216 79.3668 38.856V39.24C79.3668 39.912 79.4628 40.512 79.6548 41.04C79.8628 41.568 80.1428 42.024 80.4948 42.408C80.8628 42.776 81.2868 43.064 81.7668 43.272C82.2468 43.464 82.7748 43.56 83.3508 43.56ZM97.3981 29.544C97.3981 29.08 97.5581 28.688 97.8781 28.368C98.2141 28.032 98.6141 27.864 99.0781 27.864C99.5421 27.864 99.9341 28.032 100.254 28.368C100.59 28.688 100.758 29.08 100.758 29.544C100.758 30.008 100.59 30.408 100.254 30.744C99.9341 31.064 99.5421 31.224 99.0781 31.224C98.6141 31.224 98.2141 31.064 97.8781 30.744C97.5581 30.408 97.3981 30.008 97.3981 29.544ZM93.9901 43.272H98.1661V34.824H94.4221V33.096H100.038V43.272H103.926V45H93.9901V43.272ZM111.589 36.168C111.589 36.744 111.829 37.184 112.309 37.488C112.805 37.792 113.701 37.992 114.997 38.088C116.389 38.2 117.445 38.536 118.165 39.096C118.901 39.64 119.269 40.44 119.269 41.496V41.64C119.269 42.216 119.149 42.736 118.909 43.2C118.685 43.648 118.365 44.032 117.949 44.352C117.549 44.672 117.053 44.912 116.461 45.072C115.885 45.248 115.253 45.336 114.565 45.336C113.637 45.336 112.837 45.216 112.165 44.976C111.509 44.72 110.957 44.392 110.509 43.992C110.077 43.576 109.749 43.112 109.525 42.6C109.301 42.072 109.173 41.544 109.141 41.016L110.917 40.584C110.997 41.496 111.349 42.232 111.973 42.792C112.597 43.336 113.429 43.608 114.469 43.608C115.349 43.608 116.053 43.44 116.581 43.104C117.125 42.752 117.397 42.264 117.397 41.64C117.397 40.968 117.133 40.488 116.605 40.2C116.077 39.912 115.221 39.728 114.037 39.648C112.661 39.552 111.605 39.232 110.869 38.688C110.133 38.144 109.765 37.352 109.765 36.312V36.168C109.765 35.608 109.885 35.12 110.125 34.704C110.365 34.272 110.685 33.912 111.085 33.624C111.501 33.336 111.965 33.12 112.477 32.976C112.989 32.832 113.525 32.76 114.085 32.76C114.869 32.76 115.557 32.872 116.149 33.096C116.741 33.304 117.237 33.584 117.637 33.936C118.037 34.272 118.341 34.664 118.549 35.112C118.773 35.56 118.917 36.008 118.981 36.456L117.205 36.888C117.125 36.12 116.813 35.52 116.269 35.088C115.741 34.656 115.045 34.44 114.181 34.44C113.845 34.44 113.517 34.48 113.197 34.56C112.893 34.624 112.621 34.728 112.381 34.872C112.141 35.016 111.949 35.2 111.805 35.424C111.661 35.632 111.589 35.88 111.589 36.168ZM124.125 33.096H127.869V28.2H129.741V33.096H134.349V34.824H129.741V42.552C129.741 43.032 129.957 43.272 130.389 43.272H133.773V45H129.717C129.173 45 128.725 44.824 128.373 44.472C128.037 44.12 127.869 43.672 127.869 43.128V34.824H124.125V33.096ZM141.316 39.624C141.364 40.808 141.732 41.76 142.42 42.48C143.108 43.2 144.068 43.56 145.3 43.56C145.86 43.56 146.348 43.496 146.764 43.368C147.18 43.24 147.532 43.064 147.82 42.84C148.124 42.616 148.364 42.36 148.54 42.072C148.732 41.768 148.884 41.448 148.996 41.112L150.772 41.592C150.436 42.696 149.812 43.6 148.9 44.304C148.004 44.992 146.788 45.336 145.252 45.336C144.404 45.336 143.62 45.192 142.9 44.904C142.196 44.6 141.588 44.176 141.076 43.632C140.564 43.088 140.164 42.44 139.876 41.688C139.588 40.936 139.444 40.104 139.444 39.192V38.616C139.444 37.784 139.588 37.008 139.876 36.288C140.18 35.568 140.596 34.952 141.124 34.44C141.652 33.912 142.268 33.504 142.972 33.216C143.692 32.912 144.468 32.76 145.3 32.76C146.276 32.76 147.116 32.944 147.82 33.312C148.54 33.664 149.124 34.104 149.572 34.632C150.036 35.16 150.372 35.736 150.58 36.36C150.804 36.984 150.916 37.56 150.916 38.088V39.624H141.316ZM145.3 34.536C144.772 34.536 144.276 34.624 143.812 34.8C143.364 34.96 142.964 35.192 142.612 35.496C142.276 35.8 141.996 36.16 141.772 36.576C141.564 36.976 141.428 37.416 141.364 37.896H149.044C149.012 37.384 148.884 36.92 148.66 36.504C148.452 36.088 148.172 35.736 147.82 35.448C147.484 35.16 147.092 34.936 146.644 34.776C146.212 34.616 145.764 34.536 145.3 34.536ZM154.691 33.096H159.011V34.68H159.299C159.603 34.024 160.035 33.544 160.595 33.24C161.155 32.92 161.795 32.76 162.515 32.76C163.715 32.76 164.683 33.152 165.419 33.936C166.155 34.72 166.547 35.864 166.595 37.368L164.627 37.656C164.627 36.552 164.363 35.76 163.835 35.28C163.307 34.784 162.659 34.536 161.891 34.536C161.395 34.536 160.963 34.632 160.595 34.824C160.243 35.016 159.947 35.28 159.707 35.616C159.467 35.952 159.291 36.344 159.179 36.792C159.067 37.24 159.011 37.72 159.011 38.232V43.272H162.035V45H154.403V43.272H157.139V34.824H154.691V33.096ZM194.738 44.136H195.026V28.2H197.042V45H193.01L188.162 29.064H187.874V45H185.858V28.2H189.89L194.738 44.136ZM212.841 39.192C212.841 40.184 212.673 41.064 212.337 41.832C212.017 42.584 211.585 43.224 211.041 43.752C210.497 44.264 209.857 44.656 209.121 44.928C208.401 45.2 207.649 45.336 206.865 45.336C206.065 45.336 205.305 45.2 204.585 44.928C203.865 44.656 203.233 44.264 202.689 43.752C202.145 43.224 201.705 42.584 201.369 41.832C201.049 41.064 200.889 40.184 200.889 39.192V38.904C200.889 37.928 201.049 37.064 201.369 36.312C201.705 35.544 202.145 34.896 202.689 34.368C203.249 33.84 203.889 33.44 204.609 33.168C205.329 32.896 206.081 32.76 206.865 32.76C207.649 32.76 208.401 32.896 209.121 33.168C209.841 33.44 210.473 33.84 211.017 34.368C211.577 34.896 212.017 35.544 212.337 36.312C212.673 37.064 212.841 37.928 212.841 38.904V39.192ZM206.865 43.56C207.441 43.56 207.969 43.464 208.449 43.272C208.945 43.064 209.377 42.768 209.745 42.384C210.113 42 210.401 41.544 210.609 41.016C210.817 40.472 210.921 39.864 210.921 39.192V38.904C210.921 38.264 210.817 37.68 210.609 37.152C210.401 36.608 210.113 36.144 209.745 35.76C209.377 35.376 208.945 35.08 208.449 34.872C207.953 34.648 207.425 34.536 206.865 34.536C206.305 34.536 205.777 34.648 205.281 34.872C204.785 35.08 204.353 35.376 203.985 35.76C203.617 36.144 203.329 36.608 203.121 37.152C202.913 37.68 202.809 38.264 202.809 38.904V39.192C202.809 39.864 202.913 40.472 203.121 41.016C203.329 41.544 203.617 42 203.985 42.384C204.353 42.768 204.777 43.064 205.257 43.272C205.753 43.464 206.289 43.56 206.865 43.56ZM227.321 45H223.865L222.425 33.96H222.137L220.697 45H217.241L215.369 33.096H217.289L218.873 44.136H219.161L220.553 33.096H224.009L225.401 44.136H225.689L227.273 33.096H229.193L227.321 45Z" fill="url(#paint1_linear_529_347)"/>
<defs>
<filter id="filter0_b_529_347" x="-80" y="-80" width="444" height="232" filterUnits="userSpaceOnUse" color-interpolation-filters="sRGB">
<feFlood flood-opacity="0" result="BackgroundImageFix"/>
<feGaussianBlur in="BackgroundImageFix" stdDeviation="40"/>
<feComposite in2="SourceAlpha" operator="in" result="effect1_backgroundBlur_529_347"/>
<feBlend mode="normal" in="SourceGraphic" in2="effect1_backgroundBlur_529_347" result="shape"/>
</filter>
<linearGradient id="paint0_linear_529_347" x1="284" y1="8.34631e-06" x2="-2.06224e-06" y2="72" gradientUnits="userSpaceOnUse">
<stop stop-color="white"/>
<stop offset="1" stop-color="white" stop-opacity="0"/>
</linearGradient>
<linearGradient id="paint1_linear_529_347" x1="45" y1="36" x2="234.5" y2="36" gradientUnits="userSpaceOnUse">
<stop stop-color="#567BFF"/>
<stop offset="1" stop-color="#B0B0B0"/>
</linearGradient>
</defs>
</svg>
