<svg width="130" height="19" viewBox="0 0 130 19" fill="none" xmlns="http://www.w3.org/2000/svg">
<path d="M0.540344 9.6C0.540344 9.12 0.628344 8.672 0.804344 8.256C0.996344 7.84 1.24434 7.48 1.54834 7.176C1.86834 6.856 2.23634 6.608 2.65234 6.432C3.06834 6.24 3.51634 6.144 3.99634 6.144C4.47634 6.144 4.92434 6.24 5.34034 6.432C5.75634 6.608 6.11634 6.856 6.42034 7.176C6.74034 7.48 6.98834 7.84 7.16434 8.256C7.35634 8.672 7.45234 9.12 7.45234 9.6C7.45234 10.08 7.35634 10.528 7.16434 10.944C6.98834 11.36 6.74034 11.728 6.42034 12.048C6.11634 12.352 5.75634 12.6 5.34034 12.792C4.92434 12.968 4.47634 13.056 3.99634 13.056C3.51634 13.056 3.06834 12.968 2.65234 12.792C2.23634 12.6 1.86834 12.352 1.54834 12.048C1.24434 11.728 0.996344 11.36 0.804344 10.944C0.628344 10.528 0.540344 10.08 0.540344 9.6ZM33.136 18H29.92L31 12.96C31.032 12.8 31.048 12.672 31.048 12.576C31.048 12.304 30.96 12.088 30.784 11.928C30.608 11.752 30.336 11.664 29.968 11.664H26.488L25.144 18H22L25.552 1.2H31.456C32.24 1.2 32.928 1.312 33.52 1.536C34.128 1.744 34.632 2.032 35.032 2.4C35.448 2.752 35.752 3.176 35.944 3.672C36.152 4.168 36.256 4.688 36.256 5.232C36.256 6.4 35.984 7.352 35.44 8.088C34.912 8.808 34.096 9.352 32.992 9.72V10.152C33.456 10.2 33.808 10.368 34.048 10.656C34.304 10.928 34.432 11.28 34.432 11.712C34.432 11.872 34.416 12.032 34.384 12.192L33.136 18ZM27.136 8.64H30.016C30.864 8.64 31.56 8.416 32.104 7.968C32.648 7.52 32.92 6.912 32.92 6.144C32.92 5.536 32.752 5.064 32.416 4.728C32.096 4.392 31.6 4.224 30.928 4.224H28.072L27.136 8.64ZM51.2873 10.56C51.2873 11.68 51.1273 12.72 50.8073 13.68C50.4873 14.624 50.0153 15.44 49.3913 16.128C48.7673 16.816 47.9833 17.36 47.0393 17.76C46.1113 18.144 45.0313 18.336 43.7993 18.336C43.0953 18.336 42.4313 18.232 41.8073 18.024C41.1993 17.816 40.6633 17.512 40.1993 17.112C39.7353 16.696 39.3673 16.192 39.0953 15.6C38.8233 15.008 38.6873 14.336 38.6873 13.584C38.6873 12.352 38.8793 11.256 39.2633 10.296C39.6473 9.32 40.1673 8.496 40.8233 7.824C41.4953 7.152 42.2793 6.64 43.1753 6.288C44.0873 5.936 45.0633 5.76 46.1033 5.76C46.8553 5.76 47.5513 5.88 48.1913 6.12C48.8313 6.344 49.3753 6.664 49.8233 7.08C50.2873 7.496 50.6473 8 50.9033 8.592C51.1593 9.184 51.2873 9.84 51.2873 10.56ZM44.2553 15.504C44.8313 15.488 45.3593 15.36 45.8393 15.12C46.3353 14.88 46.7513 14.568 47.0873 14.184C47.4393 13.784 47.7113 13.32 47.9033 12.792C48.0953 12.264 48.1913 11.704 48.1913 11.112C48.1913 10.28 47.9673 9.656 47.5193 9.24C47.0713 8.808 46.4713 8.592 45.7193 8.592C45.1433 8.592 44.6153 8.72 44.1353 8.976C43.6553 9.216 43.2393 9.544 42.8873 9.96C42.5353 10.36 42.2633 10.824 42.0713 11.352C41.8793 11.88 41.7833 12.432 41.7833 13.008C41.7833 13.824 42.0073 14.448 42.4553 14.88C42.9033 15.296 43.5033 15.504 44.2553 15.504ZM59.1426 6.096L57.6546 13.008C57.5906 13.28 57.5586 13.544 57.5586 13.8C57.5586 14.408 57.7266 14.864 58.0626 15.168C58.3986 15.456 58.8466 15.6 59.4066 15.6C60.2546 15.6 60.9026 15.328 61.3506 14.784C61.8146 14.224 62.1586 13.44 62.3826 12.432L63.7266 6.096H66.7506L64.7826 15.168L65.0466 15.312L65.9106 14.688L67.4226 16.896L66.2946 17.712C65.9906 17.936 65.6706 18.096 65.3346 18.192C65.0146 18.288 64.6946 18.336 64.3746 18.336C63.7186 18.336 63.1426 18.152 62.6466 17.784C62.1506 17.4 61.8706 16.848 61.8066 16.128H61.3746C61.0226 16.944 60.5426 17.52 59.9346 17.856C59.3426 18.176 58.6706 18.336 57.9186 18.336C56.8786 18.336 56.0306 18.024 55.3746 17.4C54.7186 16.76 54.3906 15.872 54.3906 14.736C54.3906 14.336 54.4386 13.904 54.5346 13.44L56.1186 6.096H59.1426ZM78.7819 11.088C78.8459 10.784 78.8779 10.528 78.8779 10.32C78.8779 9.744 78.7099 9.296 78.3739 8.976C78.0379 8.656 77.5819 8.496 77.0059 8.496C76.2859 8.496 75.6699 8.752 75.1579 9.264C74.6459 9.776 74.3019 10.464 74.1259 11.328L72.7099 18H69.6859L72.2059 6.096H75.1099L74.7019 8.016H75.1339C75.5179 7.216 76.0219 6.64 76.6459 6.288C77.2859 5.936 77.9899 5.76 78.7579 5.76C79.7659 5.76 80.5659 6.064 81.1579 6.672C81.7659 7.28 82.0699 8.136 82.0699 9.24C82.0699 9.496 82.0539 9.736 82.0219 9.96C81.9899 10.168 81.9499 10.4 81.9019 10.656L80.9419 15.144L81.1819 15.312L82.2139 14.592L83.7259 16.848L82.4299 17.712C81.8219 18.128 81.1739 18.336 80.4859 18.336C80.1339 18.336 79.7979 18.272 79.4779 18.144C79.1579 18.032 78.8779 17.872 78.6379 17.664C78.3979 17.44 78.2059 17.176 78.0619 16.872C77.9179 16.552 77.8459 16.192 77.8459 15.792C77.8459 15.584 77.8699 15.344 77.9179 15.072L78.7819 11.088ZM97.0773 15.144L97.3173 15.312L98.6133 14.4L100.125 16.656L98.5653 17.712C98.2293 17.936 97.8933 18.096 97.5573 18.192C97.2373 18.288 96.9173 18.336 96.5973 18.336C95.9893 18.336 95.4453 18.168 94.9653 17.832C94.4853 17.496 94.1813 17.024 94.0533 16.416H93.6213C93.4773 16.688 93.3093 16.944 93.1173 17.184C92.9253 17.408 92.6853 17.608 92.3973 17.784C92.1253 17.944 91.7973 18.072 91.4133 18.168C91.0453 18.28 90.6053 18.336 90.0933 18.336C89.4693 18.336 88.8933 18.216 88.3653 17.976C87.8373 17.72 87.3733 17.376 86.9733 16.944C86.5893 16.496 86.2853 15.976 86.0613 15.384C85.8373 14.792 85.7253 14.144 85.7253 13.44C85.7253 12.368 85.8693 11.368 86.1573 10.44C86.4453 9.512 86.8613 8.704 87.4053 8.016C87.9493 7.312 88.6133 6.76 89.3973 6.36C90.1973 5.96 91.0933 5.76 92.0853 5.76C92.9333 5.76 93.6213 5.952 94.1493 6.336C94.6773 6.72 95.0213 7.216 95.1813 7.824H95.6133L97.0773 0.863999H100.125L98.6373 7.824L97.0773 15.144ZM91.2693 15.456C91.8453 15.456 92.3573 15.344 92.8053 15.12C93.2533 14.88 93.6213 14.568 93.9093 14.184C94.2133 13.8 94.4453 13.352 94.6053 12.84C94.7653 12.312 94.8453 11.76 94.8453 11.184C94.8453 10.432 94.6293 9.824 94.1973 9.36C93.7653 8.88 93.1893 8.64 92.4693 8.64C91.8933 8.64 91.3813 8.76 90.9333 9C90.4853 9.224 90.1093 9.528 89.8053 9.912C89.5013 10.296 89.2693 10.752 89.1093 11.28C88.9493 11.792 88.8693 12.336 88.8693 12.912C88.8693 13.584 89.0613 14.176 89.4453 14.688C89.8453 15.2 90.4533 15.456 91.2693 15.456ZM122.46 14.976L125.052 2.784H124.62L121.812 8.544H118.644V8.256L122.364 1.2H128.556L125.628 14.976H129.78V18H117.708V14.976H122.46Z" fill="white" fill-opacity="0.95"/>
</svg>
