<svg width="690" height="182" viewBox="0 0 690 182" fill="none" xmlns="http://www.w3.org/2000/svg">
<path d="M32.736 72C15.84 72 2.208 58.368 2.208 41.472C2.208 24.672 15.84 11.04 32.736 11.04C39.936 11.04 46.56 13.536 51.84 17.856C52.32 18.24 52.32 18.72 51.936 19.2L48.768 22.848C48.384 23.328 47.904 23.328 47.424 22.944C43.392 19.68 38.208 17.76 32.736 17.76C19.584 17.76 8.928 28.416 8.928 41.472C8.928 54.624 19.584 65.28 32.736 65.28C38.496 65.28 43.776 63.264 47.904 59.808C48.384 59.328 48.864 59.424 49.248 59.904L52.32 63.648C52.704 64.128 52.704 64.608 52.224 64.992C46.944 69.312 40.224 72 32.736 72ZM99.933 72.576C82.653 72.576 68.733 58.656 68.733 41.376C68.733 24.192 82.653 10.272 99.933 10.272C117.117 10.272 131.037 24.192 131.037 41.376C131.037 58.656 117.117 72.576 99.933 72.576ZM75.645 41.376C75.645 54.816 86.493 65.664 99.933 65.664C113.277 65.664 124.125 54.816 124.125 41.376C124.125 28.032 113.277 17.184 99.933 17.184C86.493 17.184 75.645 28.032 75.645 41.376ZM149.906 72C149.33 72 148.946 71.616 148.946 71.04V66.144C148.946 65.568 149.234 65.184 149.906 65.088C156.242 64.512 161.906 59.04 161.906 52.608C161.906 49.056 159.602 46.272 157.394 43.68C154.226 40.032 150.77 36 150.77 30.432C150.77 25.248 152.786 20.256 156.626 16.608C159.89 13.44 164.978 11.424 169.586 11.04C170.162 11.04 170.546 11.424 170.546 12V16.896C170.546 17.472 170.258 17.856 169.586 17.952C163.25 18.528 157.586 24 157.586 30.432C157.586 33.984 159.794 36.096 162.194 38.88C165.074 42.24 168.722 47.04 168.722 52.608C168.722 57.792 166.706 62.784 162.866 66.432C159.602 69.6 154.514 71.616 149.906 72ZM254.707 72C254.227 72 253.843 71.808 253.651 71.232L233.587 20.16L213.427 71.232C213.235 71.808 212.851 72 212.371 72H206.803C206.131 72 205.843 71.52 206.131 70.848L219.475 37.344L212.755 20.256L192.691 71.232C192.499 71.808 192.115 72 191.635 72H186.067C185.395 72 185.107 71.52 185.395 70.848L208.915 11.808C209.107 11.232 209.491 11.04 209.971 11.04H215.635C216.115 11.04 216.499 11.232 216.691 11.808L223.123 28.032L229.651 11.808C229.843 11.232 230.227 11.04 230.707 11.04H236.371C236.851 11.04 237.235 11.232 237.427 11.808L260.947 70.848C261.235 71.52 260.947 72 260.275 72H254.707ZM304.946 72.576C287.666 72.576 273.746 58.656 273.746 41.376C273.746 24.192 287.666 10.272 304.946 10.272C322.13 10.272 336.05 24.192 336.05 41.376C336.05 58.656 322.13 72.576 304.946 72.576ZM280.658 41.376C280.658 54.816 291.506 65.664 304.946 65.664C318.29 65.664 329.138 54.816 329.138 41.376C329.138 28.032 318.29 17.184 304.946 17.184C291.506 17.184 280.658 28.032 280.658 41.376ZM423.823 72C406.927 72 393.295 58.368 393.295 41.472C393.295 24.672 406.927 11.04 423.823 11.04C431.023 11.04 437.647 13.536 442.927 17.856C443.407 18.24 443.407 18.72 443.023 19.2L439.855 22.848C439.471 23.328 438.991 23.328 438.511 22.944C434.479 19.68 429.295 17.76 423.823 17.76C410.671 17.76 400.015 28.416 400.015 41.472C400.015 54.624 410.671 65.28 423.823 65.28C429.583 65.28 434.863 63.264 438.991 59.808C439.471 59.328 439.951 59.424 440.335 59.904L443.407 63.648C443.791 64.128 443.791 64.608 443.311 64.992C438.031 69.312 431.311 72 423.823 72ZM491.02 72.576C473.74 72.576 459.82 58.656 459.82 41.376C459.82 24.192 473.74 10.272 491.02 10.272C508.204 10.272 522.124 24.192 522.124 41.376C522.124 58.656 508.204 72.576 491.02 72.576ZM466.732 41.376C466.732 54.816 477.58 65.664 491.02 65.664C504.364 65.664 515.212 54.816 515.212 41.376C515.212 28.032 504.364 17.184 491.02 17.184C477.58 17.184 466.732 28.032 466.732 41.376ZM544.043 72C543.467 72 543.083 71.616 543.083 71.04V12C543.083 11.424 543.467 11.04 544.043 11.04H564.107C581.003 11.04 594.635 24.672 594.635 41.472C594.635 58.368 581.003 72 564.107 72H544.043ZM549.803 65.28H564.107C577.259 65.28 587.915 54.624 587.915 41.472C587.915 28.416 577.259 17.76 564.107 17.76H549.803V65.28ZM616.567 72C615.991 72 615.607 71.616 615.607 71.04L615.703 12C615.703 11.328 616.087 11.04 616.663 11.04H657.463C658.039 11.04 658.423 11.424 658.423 12V16.8C658.423 17.376 658.039 17.76 657.463 17.76H622.423V28.416H649.975C650.551 28.416 650.935 28.8 650.935 29.376V34.176C650.935 34.752 650.551 35.136 649.975 35.136H622.423V46.368H649.783C650.359 46.368 650.743 46.752 650.743 47.328V52.128C650.743 52.704 650.359 53.088 649.783 53.088H622.423V65.28H657.463C658.039 65.28 658.423 65.664 658.423 66.24V71.04C658.423 71.616 658.039 72 657.463 72H616.567Z" fill="white" fill-opacity="0.75"/>
<path d="M32.736 72C15.84 72 2.208 58.368 2.208 41.472C2.208 24.672 15.84 11.04 32.736 11.04C39.936 11.04 46.56 13.536 51.84 17.856C52.32 18.24 52.32 18.72 51.936 19.2L48.768 22.848C48.384 23.328 47.904 23.328 47.424 22.944C43.392 19.68 38.208 17.76 32.736 17.76C19.584 17.76 8.928 28.416 8.928 41.472C8.928 54.624 19.584 65.28 32.736 65.28C38.496 65.28 43.776 63.264 47.904 59.808C48.384 59.328 48.864 59.424 49.248 59.904L52.32 63.648C52.704 64.128 52.704 64.608 52.224 64.992C46.944 69.312 40.224 72 32.736 72ZM99.933 72.576C82.653 72.576 68.733 58.656 68.733 41.376C68.733 24.192 82.653 10.272 99.933 10.272C117.117 10.272 131.037 24.192 131.037 41.376C131.037 58.656 117.117 72.576 99.933 72.576ZM75.645 41.376C75.645 54.816 86.493 65.664 99.933 65.664C113.277 65.664 124.125 54.816 124.125 41.376C124.125 28.032 113.277 17.184 99.933 17.184C86.493 17.184 75.645 28.032 75.645 41.376ZM149.906 72C149.33 72 148.946 71.616 148.946 71.04V66.144C148.946 65.568 149.234 65.184 149.906 65.088C156.242 64.512 161.906 59.04 161.906 52.608C161.906 49.056 159.602 46.272 157.394 43.68C154.226 40.032 150.77 36 150.77 30.432C150.77 25.248 152.786 20.256 156.626 16.608C159.89 13.44 164.978 11.424 169.586 11.04C170.162 11.04 170.546 11.424 170.546 12V16.896C170.546 17.472 170.258 17.856 169.586 17.952C163.25 18.528 157.586 24 157.586 30.432C157.586 33.984 159.794 36.096 162.194 38.88C165.074 42.24 168.722 47.04 168.722 52.608C168.722 57.792 166.706 62.784 162.866 66.432C159.602 69.6 154.514 71.616 149.906 72ZM254.707 72C254.227 72 253.843 71.808 253.651 71.232L233.587 20.16L213.427 71.232C213.235 71.808 212.851 72 212.371 72H206.803C206.131 72 205.843 71.52 206.131 70.848L219.475 37.344L212.755 20.256L192.691 71.232C192.499 71.808 192.115 72 191.635 72H186.067C185.395 72 185.107 71.52 185.395 70.848L208.915 11.808C209.107 11.232 209.491 11.04 209.971 11.04H215.635C216.115 11.04 216.499 11.232 216.691 11.808L223.123 28.032L229.651 11.808C229.843 11.232 230.227 11.04 230.707 11.04H236.371C236.851 11.04 237.235 11.232 237.427 11.808L260.947 70.848C261.235 71.52 260.947 72 260.275 72H254.707ZM304.946 72.576C287.666 72.576 273.746 58.656 273.746 41.376C273.746 24.192 287.666 10.272 304.946 10.272C322.13 10.272 336.05 24.192 336.05 41.376C336.05 58.656 322.13 72.576 304.946 72.576ZM280.658 41.376C280.658 54.816 291.506 65.664 304.946 65.664C318.29 65.664 329.138 54.816 329.138 41.376C329.138 28.032 318.29 17.184 304.946 17.184C291.506 17.184 280.658 28.032 280.658 41.376ZM423.823 72C406.927 72 393.295 58.368 393.295 41.472C393.295 24.672 406.927 11.04 423.823 11.04C431.023 11.04 437.647 13.536 442.927 17.856C443.407 18.24 443.407 18.72 443.023 19.2L439.855 22.848C439.471 23.328 438.991 23.328 438.511 22.944C434.479 19.68 429.295 17.76 423.823 17.76C410.671 17.76 400.015 28.416 400.015 41.472C400.015 54.624 410.671 65.28 423.823 65.28C429.583 65.28 434.863 63.264 438.991 59.808C439.471 59.328 439.951 59.424 440.335 59.904L443.407 63.648C443.791 64.128 443.791 64.608 443.311 64.992C438.031 69.312 431.311 72 423.823 72ZM491.02 72.576C473.74 72.576 459.82 58.656 459.82 41.376C459.82 24.192 473.74 10.272 491.02 10.272C508.204 10.272 522.124 24.192 522.124 41.376C522.124 58.656 508.204 72.576 491.02 72.576ZM466.732 41.376C466.732 54.816 477.58 65.664 491.02 65.664C504.364 65.664 515.212 54.816 515.212 41.376C515.212 28.032 504.364 17.184 491.02 17.184C477.58 17.184 466.732 28.032 466.732 41.376ZM544.043 72C543.467 72 543.083 71.616 543.083 71.04V12C543.083 11.424 543.467 11.04 544.043 11.04H564.107C581.003 11.04 594.635 24.672 594.635 41.472C594.635 58.368 581.003 72 564.107 72H544.043ZM549.803 65.28H564.107C577.259 65.28 587.915 54.624 587.915 41.472C587.915 28.416 577.259 17.76 564.107 17.76H549.803V65.28ZM616.567 72C615.991 72 615.607 71.616 615.607 71.04L615.703 12C615.703 11.328 616.087 11.04 616.663 11.04H657.463C658.039 11.04 658.423 11.424 658.423 12V16.8C658.423 17.376 658.039 17.76 657.463 17.76H622.423V28.416H649.975C650.551 28.416 650.935 28.8 650.935 29.376V34.176C650.935 34.752 650.551 35.136 649.975 35.136H622.423V46.368H649.783C650.359 46.368 650.743 46.752 650.743 47.328V52.128C650.743 52.704 650.359 53.088 649.783 53.088H622.423V65.28H657.463C658.039 65.28 658.423 65.664 658.423 66.24V71.04C658.423 71.616 658.039 72 657.463 72H616.567Z" fill="url(#paint0_linear_550_661)"/>
<path d="M8.6 120.2V131.336C8.6 132.696 8.912 133.728 9.536 134.432C10.176 135.12 11.112 135.464 12.344 135.464C13.576 135.464 14.504 135.12 15.128 134.432C15.768 133.728 16.088 132.696 16.088 131.336V120.2H18.104V131.336C18.104 133.288 17.592 134.776 16.568 135.8C15.544 136.824 14.136 137.336 12.344 137.336C10.552 137.336 9.144 136.824 8.12 135.8C7.096 134.776 6.584 133.288 6.584 131.336V120.2H8.6ZM23.6553 137H21.7833V125.096H23.6553V127.112H23.9433C24.6793 125.544 25.9593 124.76 27.7833 124.76C29.1593 124.76 30.2553 125.192 31.0713 126.056C31.8873 126.904 32.2953 128.184 32.2953 129.896V137H30.4233V130.28C30.4233 129.032 30.1433 128.096 29.5833 127.472C29.0233 126.848 28.2633 126.536 27.3033 126.536C26.1673 126.536 25.2713 126.928 24.6153 127.712C23.9753 128.48 23.6553 129.512 23.6553 130.808V137ZM36.4786 135.272H40.7986V121.928H36.6226V120.2H42.6706V135.272H46.9906V137H36.4786V135.272ZM52.5419 131.624C52.5899 132.808 52.9579 133.76 53.6459 134.48C54.3339 135.2 55.2939 135.56 56.5259 135.56C57.0859 135.56 57.5739 135.496 57.9899 135.368C58.4059 135.24 58.7579 135.064 59.0459 134.84C59.3499 134.616 59.5899 134.36 59.7659 134.072C59.9579 133.768 60.1099 133.448 60.2219 133.112L61.9979 133.592C61.6619 134.696 61.0379 135.6 60.1259 136.304C59.2299 136.992 58.0139 137.336 56.4779 137.336C55.6299 137.336 54.8459 137.192 54.1259 136.904C53.4219 136.6 52.8139 136.176 52.3019 135.632C51.7899 135.088 51.3899 134.44 51.1019 133.688C50.8139 132.936 50.6699 132.104 50.6699 131.192V130.616C50.6699 129.784 50.8139 129.008 51.1019 128.288C51.4059 127.568 51.8219 126.952 52.3499 126.44C52.8779 125.912 53.4939 125.504 54.1979 125.216C54.9179 124.912 55.6939 124.76 56.5259 124.76C57.5019 124.76 58.3419 124.944 59.0459 125.312C59.7659 125.664 60.3499 126.104 60.7979 126.632C61.2619 127.16 61.5979 127.736 61.8059 128.36C62.0299 128.984 62.1419 129.56 62.1419 130.088V131.624H52.5419ZM56.5259 126.536C55.9979 126.536 55.5019 126.624 55.0379 126.8C54.5899 126.96 54.1899 127.192 53.8379 127.496C53.5019 127.8 53.2219 128.16 52.9979 128.576C52.7899 128.976 52.6539 129.416 52.5899 129.896H60.2699C60.2379 129.384 60.1099 128.92 59.8859 128.504C59.6779 128.088 59.3979 127.736 59.0459 127.448C58.7099 127.16 58.3179 126.936 57.8699 126.776C57.4379 126.616 56.9899 126.536 56.5259 126.536ZM74.5093 134.984H74.2213C73.8373 135.784 73.3013 136.376 72.6133 136.76C71.9413 137.144 71.2293 137.336 70.4773 137.336C69.6933 137.336 68.9653 137.208 68.2933 136.952C67.6213 136.68 67.0293 136.288 66.5173 135.776C66.0213 135.248 65.6293 134.608 65.3413 133.856C65.0533 133.104 64.9093 132.232 64.9093 131.24V130.856C64.9093 129.88 65.0533 129.016 65.3413 128.264C65.6293 127.512 66.0213 126.88 66.5173 126.368C67.0293 125.84 67.6213 125.44 68.2933 125.168C68.9653 124.896 69.6773 124.76 70.4293 124.76C71.2453 124.76 71.9813 124.944 72.6373 125.312C73.3093 125.664 73.8373 126.216 74.2213 126.968H74.5093V125.096H76.3813V134.552C76.3813 135.032 76.5973 135.272 77.0293 135.272H77.6293V137H76.3573C75.8133 137 75.3653 136.824 75.0133 136.472C74.6773 136.12 74.5093 135.672 74.5093 135.128V134.984ZM70.6693 135.56C71.2293 135.56 71.7413 135.456 72.2053 135.248C72.6853 135.04 73.0933 134.744 73.4293 134.36C73.7653 133.976 74.0293 133.52 74.2213 132.992C74.4133 132.448 74.5093 131.848 74.5093 131.192V130.904C74.5093 130.264 74.4133 129.68 74.2213 129.152C74.0293 128.608 73.7573 128.144 73.4053 127.76C73.0693 127.376 72.6613 127.08 72.1813 126.872C71.7173 126.648 71.2133 126.536 70.6693 126.536C70.1093 126.536 69.5973 126.64 69.1333 126.848C68.6693 127.056 68.2613 127.352 67.9093 127.736C67.5733 128.104 67.3093 128.56 67.1173 129.104C66.9253 129.632 66.8293 130.216 66.8293 130.856V131.24C66.8293 132.6 67.1813 133.664 67.8853 134.432C68.6053 135.184 69.5333 135.56 70.6693 135.56ZM83.0366 128.168C83.0366 128.744 83.2766 129.184 83.7566 129.488C84.2526 129.792 85.1486 129.992 86.4446 130.088C87.8366 130.2 88.8926 130.536 89.6126 131.096C90.3486 131.64 90.7166 132.44 90.7166 133.496V133.64C90.7166 134.216 90.5966 134.736 90.3566 135.2C90.1326 135.648 89.8126 136.032 89.3966 136.352C88.9966 136.672 88.5006 136.912 87.9086 137.072C87.3326 137.248 86.7006 137.336 86.0126 137.336C85.0846 137.336 84.2846 137.216 83.6126 136.976C82.9566 136.72 82.4046 136.392 81.9566 135.992C81.5246 135.576 81.1966 135.112 80.9726 134.6C80.7486 134.072 80.6206 133.544 80.5886 133.016L82.3646 132.584C82.4446 133.496 82.7966 134.232 83.4206 134.792C84.0446 135.336 84.8766 135.608 85.9166 135.608C86.7966 135.608 87.5006 135.44 88.0286 135.104C88.5726 134.752 88.8446 134.264 88.8446 133.64C88.8446 132.968 88.5806 132.488 88.0526 132.2C87.5246 131.912 86.6686 131.728 85.4846 131.648C84.1086 131.552 83.0526 131.232 82.3166 130.688C81.5806 130.144 81.2126 129.352 81.2126 128.312V128.168C81.2126 127.608 81.3326 127.12 81.5726 126.704C81.8126 126.272 82.1326 125.912 82.5326 125.624C82.9486 125.336 83.4126 125.12 83.9246 124.976C84.4366 124.832 84.9726 124.76 85.5326 124.76C86.3166 124.76 87.0046 124.872 87.5966 125.096C88.1886 125.304 88.6846 125.584 89.0846 125.936C89.4846 126.272 89.7886 126.664 89.9966 127.112C90.2206 127.56 90.3646 128.008 90.4286 128.456L88.6526 128.888C88.5726 128.12 88.2606 127.52 87.7166 127.088C87.1886 126.656 86.4926 126.44 85.6286 126.44C85.2926 126.44 84.9646 126.48 84.6446 126.56C84.3406 126.624 84.0686 126.728 83.8286 126.872C83.5886 127.016 83.3966 127.2 83.2526 127.424C83.1086 127.632 83.0366 127.88 83.0366 128.168ZM97.1319 137H95.2599V120.2H97.1319V127.256H97.4199C97.7879 126.488 98.2999 125.88 98.9559 125.432C99.6279 124.984 100.444 124.76 101.404 124.76C102.7 124.76 103.748 125.192 104.548 126.056C105.364 126.904 105.772 128.184 105.772 129.896V137H103.9V130.28C103.9 129.032 103.62 128.096 103.06 127.472C102.5 126.848 101.74 126.536 100.78 126.536C99.6439 126.536 98.7479 126.928 98.0919 127.712C97.4519 128.48 97.1319 129.512 97.1319 130.808V137ZM128.898 131.096H128.467L123.211 120.2H125.467L129.763 129.368H130.051L134.347 120.2H136.603L131.347 131.096H130.915V137H128.898V131.096ZM150.578 131.192C150.578 132.184 150.41 133.064 150.074 133.832C149.754 134.584 149.322 135.224 148.778 135.752C148.234 136.264 147.594 136.656 146.858 136.928C146.138 137.2 145.386 137.336 144.602 137.336C143.802 137.336 143.042 137.2 142.322 136.928C141.602 136.656 140.97 136.264 140.426 135.752C139.882 135.224 139.442 134.584 139.106 133.832C138.786 133.064 138.626 132.184 138.626 131.192V130.904C138.626 129.928 138.786 129.064 139.106 128.312C139.442 127.544 139.882 126.896 140.426 126.368C140.986 125.84 141.626 125.44 142.346 125.168C143.066 124.896 143.818 124.76 144.602 124.76C145.386 124.76 146.138 124.896 146.858 125.168C147.578 125.44 148.21 125.84 148.754 126.368C149.314 126.896 149.754 127.544 150.074 128.312C150.41 129.064 150.578 129.928 150.578 130.904V131.192ZM144.602 135.56C145.178 135.56 145.706 135.464 146.186 135.272C146.682 135.064 147.114 134.768 147.482 134.384C147.85 134 148.138 133.544 148.346 133.016C148.554 132.472 148.658 131.864 148.658 131.192V130.904C148.658 130.264 148.554 129.68 148.346 129.152C148.138 128.608 147.85 128.144 147.482 127.76C147.114 127.376 146.682 127.08 146.186 126.872C145.69 126.648 145.162 126.536 144.602 126.536C144.042 126.536 143.514 126.648 143.018 126.872C142.522 127.08 142.09 127.376 141.722 127.76C141.354 128.144 141.066 128.608 140.858 129.152C140.65 129.68 140.546 130.264 140.546 130.904V131.192C140.546 131.864 140.65 132.472 140.858 133.016C141.066 133.544 141.354 134 141.722 134.384C142.09 134.768 142.514 135.064 142.994 135.272C143.49 135.464 144.026 135.56 144.602 135.56ZM162.537 125.096H164.409V137H162.537V134.84H162.249C161.865 135.608 161.361 136.216 160.737 136.664C160.113 137.112 159.321 137.336 158.361 137.336C157.705 137.336 157.097 137.224 156.537 137C155.993 136.792 155.521 136.472 155.121 136.04C154.737 135.608 154.433 135.072 154.209 134.432C154.001 133.792 153.897 133.048 153.897 132.2V125.096H155.769V131.96C155.769 133.208 156.025 134.12 156.537 134.696C157.049 135.272 157.833 135.56 158.889 135.56C160.025 135.56 160.913 135.176 161.553 134.408C162.209 133.624 162.537 132.584 162.537 131.288V125.096ZM168.064 125.096H172.384V126.68H172.672C172.976 126.024 173.408 125.544 173.968 125.24C174.528 124.92 175.168 124.76 175.888 124.76C177.088 124.76 178.056 125.152 178.792 125.936C179.528 126.72 179.92 127.864 179.968 129.368L178 129.656C178 128.552 177.736 127.76 177.208 127.28C176.68 126.784 176.032 126.536 175.264 126.536C174.768 126.536 174.336 126.632 173.968 126.824C173.616 127.016 173.32 127.28 173.08 127.616C172.84 127.952 172.664 128.344 172.552 128.792C172.44 129.24 172.384 129.72 172.384 130.232V135.272H175.408V137H167.776V135.272H170.512V126.824H168.064V125.096ZM201.775 128.936H209.263V137H207.391V134.984H207.103C206.831 135.688 206.351 136.256 205.663 136.688C204.975 137.12 204.175 137.336 203.263 137.336C201.455 137.336 200.031 136.752 198.991 135.584C197.967 134.416 197.455 132.712 197.455 130.472V126.728C197.455 124.552 197.975 122.864 199.015 121.664C200.055 120.464 201.503 119.864 203.359 119.864C204.319 119.864 205.167 120.024 205.903 120.344C206.639 120.648 207.255 121.08 207.751 121.64C208.247 122.184 208.623 122.832 208.879 123.584C209.135 124.32 209.263 125.112 209.263 125.96V126.248H207.247V125.96C207.247 125.416 207.167 124.888 207.007 124.376C206.863 123.864 206.631 123.416 206.311 123.032C206.007 122.632 205.607 122.32 205.111 122.096C204.631 121.856 204.047 121.736 203.359 121.736C202.063 121.736 201.087 122.208 200.431 123.152C199.791 124.096 199.471 125.336 199.471 126.872V130.328C199.471 131.976 199.791 133.248 200.431 134.144C201.087 135.024 202.079 135.464 203.407 135.464C204.607 135.464 205.543 135.08 206.215 134.312C206.903 133.544 207.247 132.472 207.247 131.096V130.808H201.775V128.936ZM221.462 134.984H221.174C220.79 135.784 220.254 136.376 219.566 136.76C218.894 137.144 218.182 137.336 217.43 137.336C216.646 137.336 215.918 137.208 215.246 136.952C214.574 136.68 213.982 136.288 213.47 135.776C212.974 135.248 212.582 134.608 212.294 133.856C212.006 133.104 211.862 132.232 211.862 131.24V130.856C211.862 129.88 212.006 129.016 212.294 128.264C212.582 127.512 212.974 126.88 213.47 126.368C213.982 125.84 214.574 125.44 215.246 125.168C215.918 124.896 216.63 124.76 217.382 124.76C218.198 124.76 218.934 124.944 219.59 125.312C220.262 125.664 220.79 126.216 221.174 126.968H221.462V125.096H223.334V134.552C223.334 135.032 223.55 135.272 223.982 135.272H224.582V137H223.31C222.766 137 222.318 136.824 221.966 136.472C221.63 136.12 221.462 135.672 221.462 135.128V134.984ZM217.622 135.56C218.182 135.56 218.694 135.456 219.158 135.248C219.638 135.04 220.046 134.744 220.382 134.36C220.718 133.976 220.982 133.52 221.174 132.992C221.366 132.448 221.462 131.848 221.462 131.192V130.904C221.462 130.264 221.366 129.68 221.174 129.152C220.982 128.608 220.71 128.144 220.358 127.76C220.022 127.376 219.614 127.08 219.134 126.872C218.67 126.648 218.166 126.536 217.622 126.536C217.062 126.536 216.55 126.64 216.086 126.848C215.622 127.056 215.214 127.352 214.862 127.736C214.526 128.104 214.262 128.56 214.07 129.104C213.878 129.632 213.782 130.216 213.782 130.856V131.24C213.782 132.6 214.134 133.664 214.838 134.432C215.558 135.184 216.486 135.56 217.622 135.56ZM227.518 135.272H231.838V121.928H227.662V120.2H233.71V135.272H238.03V137H227.518V135.272ZM250.853 134.984H250.565C250.181 135.784 249.645 136.376 248.957 136.76C248.285 137.144 247.573 137.336 246.821 137.336C246.037 137.336 245.309 137.208 244.637 136.952C243.965 136.68 243.373 136.288 242.861 135.776C242.365 135.248 241.973 134.608 241.685 133.856C241.397 133.104 241.253 132.232 241.253 131.24V130.856C241.253 129.88 241.397 129.016 241.685 128.264C241.973 127.512 242.365 126.88 242.861 126.368C243.373 125.84 243.965 125.44 244.637 125.168C245.309 124.896 246.021 124.76 246.773 124.76C247.589 124.76 248.325 124.944 248.981 125.312C249.653 125.664 250.181 126.216 250.565 126.968H250.853V125.096H252.725V134.552C252.725 135.032 252.941 135.272 253.373 135.272H253.973V137H252.701C252.157 137 251.709 136.824 251.357 136.472C251.021 136.12 250.853 135.672 250.853 135.128V134.984ZM247.013 135.56C247.573 135.56 248.085 135.456 248.549 135.248C249.029 135.04 249.437 134.744 249.773 134.36C250.109 133.976 250.373 133.52 250.565 132.992C250.757 132.448 250.853 131.848 250.853 131.192V130.904C250.853 130.264 250.757 129.68 250.565 129.152C250.373 128.608 250.101 128.144 249.749 127.76C249.413 127.376 249.005 127.08 248.525 126.872C248.061 126.648 247.557 126.536 247.013 126.536C246.453 126.536 245.941 126.64 245.477 126.848C245.013 127.056 244.605 127.352 244.253 127.736C243.917 128.104 243.653 128.56 243.461 129.104C243.269 129.632 243.173 130.216 243.173 130.856V131.24C243.173 132.6 243.525 133.664 244.229 134.432C244.949 135.184 245.877 135.56 247.013 135.56ZM268.044 132.776C267.916 133.432 267.692 134.04 267.372 134.6C267.068 135.16 266.676 135.648 266.196 136.064C265.716 136.464 265.156 136.776 264.516 137C263.876 137.224 263.164 137.336 262.38 137.336C261.548 137.336 260.756 137.2 260.004 136.928C259.268 136.656 258.62 136.264 258.06 135.752C257.5 135.224 257.052 134.584 256.716 133.832C256.396 133.08 256.236 132.216 256.236 131.24V130.952C256.236 129.992 256.396 129.128 256.716 128.36C257.052 127.592 257.5 126.944 258.06 126.416C258.62 125.888 259.268 125.48 260.004 125.192C260.756 124.904 261.548 124.76 262.38 124.76C263.132 124.76 263.828 124.872 264.468 125.096C265.108 125.32 265.668 125.64 266.148 126.056C266.644 126.456 267.044 126.936 267.348 127.496C267.668 128.056 267.884 128.664 267.996 129.32L266.124 129.752C266.076 129.336 265.956 128.936 265.764 128.552C265.588 128.152 265.34 127.808 265.02 127.52C264.716 127.216 264.34 126.976 263.892 126.8C263.444 126.624 262.924 126.536 262.332 126.536C261.756 126.536 261.212 126.648 260.7 126.872C260.204 127.08 259.764 127.384 259.38 127.784C258.996 128.168 258.692 128.632 258.468 129.176C258.26 129.72 258.156 130.312 258.156 130.952V131.24C258.156 131.912 258.26 132.52 258.468 133.064C258.692 133.592 258.996 134.04 259.38 134.408C259.764 134.776 260.212 135.064 260.724 135.272C261.236 135.464 261.788 135.56 262.38 135.56C262.972 135.56 263.484 135.472 263.916 135.296C264.364 135.104 264.74 134.864 265.044 134.576C265.364 134.272 265.612 133.928 265.788 133.544C265.98 133.16 266.108 132.76 266.172 132.344L268.044 132.776ZM271.196 125.096H274.94V120.2H276.812V125.096H281.42V126.824H276.812V134.552C276.812 135.032 277.028 135.272 277.46 135.272H280.844V137H276.788C276.244 137 275.796 136.824 275.444 136.472C275.108 136.12 274.94 135.672 274.94 135.128V126.824H271.196V125.096ZM289.995 121.544C289.995 121.08 290.155 120.688 290.475 120.368C290.811 120.032 291.211 119.864 291.675 119.864C292.139 119.864 292.531 120.032 292.851 120.368C293.187 120.688 293.355 121.08 293.355 121.544C293.355 122.008 293.187 122.408 292.851 122.744C292.531 123.064 292.139 123.224 291.675 123.224C291.211 123.224 290.811 123.064 290.475 122.744C290.155 122.408 289.995 122.008 289.995 121.544ZM286.587 135.272H290.763V126.824H287.019V125.096H292.635V135.272H296.523V137H286.587V135.272ZM312.13 132.776C312.002 133.432 311.778 134.04 311.458 134.6C311.154 135.16 310.762 135.648 310.282 136.064C309.802 136.464 309.242 136.776 308.602 137C307.962 137.224 307.25 137.336 306.466 137.336C305.634 137.336 304.842 137.2 304.09 136.928C303.354 136.656 302.706 136.264 302.146 135.752C301.586 135.224 301.138 134.584 300.802 133.832C300.482 133.08 300.322 132.216 300.322 131.24V130.952C300.322 129.992 300.482 129.128 300.802 128.36C301.138 127.592 301.586 126.944 302.146 126.416C302.706 125.888 303.354 125.48 304.09 125.192C304.842 124.904 305.634 124.76 306.466 124.76C307.218 124.76 307.914 124.872 308.554 125.096C309.194 125.32 309.754 125.64 310.234 126.056C310.73 126.456 311.13 126.936 311.434 127.496C311.754 128.056 311.97 128.664 312.082 129.32L310.21 129.752C310.162 129.336 310.042 128.936 309.85 128.552C309.674 128.152 309.426 127.808 309.106 127.52C308.802 127.216 308.426 126.976 307.978 126.8C307.53 126.624 307.01 126.536 306.418 126.536C305.842 126.536 305.298 126.648 304.786 126.872C304.29 127.08 303.85 127.384 303.466 127.784C303.082 128.168 302.778 128.632 302.554 129.176C302.346 129.72 302.242 130.312 302.242 130.952V131.24C302.242 131.912 302.346 132.52 302.554 133.064C302.778 133.592 303.082 134.04 303.466 134.408C303.85 134.776 304.298 135.064 304.81 135.272C305.322 135.464 305.874 135.56 306.466 135.56C307.058 135.56 307.57 135.472 308.002 135.296C308.45 135.104 308.826 134.864 309.13 134.576C309.45 134.272 309.698 133.928 309.874 133.544C310.066 133.16 310.194 132.76 310.258 132.344L312.13 132.776ZM332.353 130.088V137H330.337V120.2H336.337C337.201 120.2 337.953 120.328 338.593 120.584C339.233 120.824 339.761 121.152 340.177 121.568C340.609 121.984 340.929 122.472 341.137 123.032C341.361 123.576 341.473 124.152 341.473 124.76V125.48C341.473 126.088 341.361 126.672 341.137 127.232C340.929 127.792 340.609 128.288 340.177 128.72C339.745 129.136 339.209 129.472 338.569 129.728C337.929 129.968 337.185 130.088 336.337 130.088H332.353ZM332.353 128.216H336.097C338.337 128.216 339.457 127.256 339.457 125.336V124.904C339.457 124.056 339.177 123.376 338.617 122.864C338.073 122.336 337.233 122.072 336.097 122.072H332.353V128.216ZM356.312 131.192C356.312 132.184 356.144 133.064 355.808 133.832C355.488 134.584 355.056 135.224 354.512 135.752C353.968 136.264 353.328 136.656 352.592 136.928C351.872 137.2 351.12 137.336 350.336 137.336C349.536 137.336 348.776 137.2 348.056 136.928C347.336 136.656 346.704 136.264 346.16 135.752C345.616 135.224 345.176 134.584 344.84 133.832C344.52 133.064 344.36 132.184 344.36 131.192V130.904C344.36 129.928 344.52 129.064 344.84 128.312C345.176 127.544 345.616 126.896 346.16 126.368C346.72 125.84 347.36 125.44 348.08 125.168C348.8 124.896 349.552 124.76 350.336 124.76C351.12 124.76 351.872 124.896 352.592 125.168C353.312 125.44 353.944 125.84 354.488 126.368C355.048 126.896 355.488 127.544 355.808 128.312C356.144 129.064 356.312 129.928 356.312 130.904V131.192ZM350.336 135.56C350.912 135.56 351.44 135.464 351.92 135.272C352.416 135.064 352.848 134.768 353.216 134.384C353.584 134 353.872 133.544 354.08 133.016C354.288 132.472 354.392 131.864 354.392 131.192V130.904C354.392 130.264 354.288 129.68 354.08 129.152C353.872 128.608 353.584 128.144 353.216 127.76C352.848 127.376 352.416 127.08 351.92 126.872C351.424 126.648 350.896 126.536 350.336 126.536C349.776 126.536 349.248 126.648 348.752 126.872C348.256 127.08 347.824 127.376 347.456 127.76C347.088 128.144 346.8 128.608 346.592 129.152C346.384 129.68 346.28 130.264 346.28 130.904V131.192C346.28 131.864 346.384 132.472 346.592 133.016C346.8 133.544 347.088 134 347.456 134.384C347.824 134.768 348.248 135.064 348.728 135.272C349.224 135.464 349.76 135.56 350.336 135.56ZM359.368 125.096H363.112V120.2H364.984V125.096H369.592V126.824H364.984V134.552C364.984 135.032 365.2 135.272 365.632 135.272H369.016V137H364.96C364.416 137 363.968 136.824 363.616 136.472C363.28 136.12 363.112 135.672 363.112 135.128V126.824H359.368V125.096ZM375.839 131.624C375.887 132.808 376.255 133.76 376.943 134.48C377.631 135.2 378.591 135.56 379.823 135.56C380.383 135.56 380.871 135.496 381.287 135.368C381.703 135.24 382.055 135.064 382.343 134.84C382.647 134.616 382.887 134.36 383.063 134.072C383.255 133.768 383.407 133.448 383.519 133.112L385.295 133.592C384.959 134.696 384.335 135.6 383.423 136.304C382.527 136.992 381.311 137.336 379.775 137.336C378.927 137.336 378.143 137.192 377.423 136.904C376.719 136.6 376.111 136.176 375.599 135.632C375.087 135.088 374.687 134.44 374.399 133.688C374.111 132.936 373.967 132.104 373.967 131.192V130.616C373.967 129.784 374.111 129.008 374.399 128.288C374.703 127.568 375.119 126.952 375.647 126.44C376.175 125.912 376.791 125.504 377.495 125.216C378.215 124.912 378.991 124.76 379.823 124.76C380.799 124.76 381.639 124.944 382.343 125.312C383.063 125.664 383.647 126.104 384.095 126.632C384.559 127.16 384.895 127.736 385.103 128.36C385.327 128.984 385.439 129.56 385.439 130.088V131.624H375.839ZM379.823 126.536C379.295 126.536 378.799 126.624 378.335 126.8C377.887 126.96 377.487 127.192 377.135 127.496C376.799 127.8 376.519 128.16 376.295 128.576C376.087 128.976 375.951 129.416 375.887 129.896H383.567C383.535 129.384 383.407 128.92 383.183 128.504C382.975 128.088 382.695 127.736 382.343 127.448C382.007 127.16 381.615 126.936 381.167 126.776C380.735 126.616 380.287 126.536 379.823 126.536ZM391.038 137H389.166V125.096H391.038V127.112H391.326C392.062 125.544 393.342 124.76 395.166 124.76C396.542 124.76 397.638 125.192 398.454 126.056C399.27 126.904 399.678 128.184 399.678 129.896V137H397.806V130.28C397.806 129.032 397.526 128.096 396.966 127.472C396.406 126.848 395.646 126.536 394.686 126.536C393.55 126.536 392.654 126.928 391.998 127.712C391.358 128.48 391.038 129.512 391.038 130.808V137ZM403.453 125.096H407.197V120.2H409.069V125.096H413.677V126.824H409.069V134.552C409.069 135.032 409.285 135.272 409.717 135.272H413.101V137H409.045C408.501 137 408.053 136.824 407.701 136.472C407.365 136.12 407.197 135.672 407.197 135.128V126.824H403.453V125.096ZM422.253 121.544C422.253 121.08 422.413 120.688 422.733 120.368C423.069 120.032 423.469 119.864 423.933 119.864C424.397 119.864 424.789 120.032 425.109 120.368C425.445 120.688 425.613 121.08 425.613 121.544C425.613 122.008 425.445 122.408 425.109 122.744C424.789 123.064 424.397 123.224 423.933 123.224C423.469 123.224 423.069 123.064 422.733 122.744C422.413 122.408 422.253 122.008 422.253 121.544ZM418.845 135.272H423.021V126.824H419.277V125.096H424.893V135.272H428.781V137H418.845V135.272ZM441.892 134.984H441.604C441.22 135.784 440.684 136.376 439.996 136.76C439.324 137.144 438.612 137.336 437.86 137.336C437.076 137.336 436.348 137.208 435.676 136.952C435.004 136.68 434.412 136.288 433.9 135.776C433.404 135.248 433.012 134.608 432.724 133.856C432.436 133.104 432.292 132.232 432.292 131.24V130.856C432.292 129.88 432.436 129.016 432.724 128.264C433.012 127.512 433.404 126.88 433.9 126.368C434.412 125.84 435.004 125.44 435.676 125.168C436.348 124.896 437.06 124.76 437.812 124.76C438.628 124.76 439.364 124.944 440.02 125.312C440.692 125.664 441.22 126.216 441.604 126.968H441.892V125.096H443.764V134.552C443.764 135.032 443.98 135.272 444.412 135.272H445.012V137H443.74C443.196 137 442.748 136.824 442.396 136.472C442.06 136.12 441.892 135.672 441.892 135.128V134.984ZM438.052 135.56C438.612 135.56 439.124 135.456 439.588 135.248C440.068 135.04 440.476 134.744 440.812 134.36C441.148 133.976 441.412 133.52 441.604 132.992C441.796 132.448 441.892 131.848 441.892 131.192V130.904C441.892 130.264 441.796 129.68 441.604 129.152C441.412 128.608 441.14 128.144 440.788 127.76C440.452 127.376 440.044 127.08 439.564 126.872C439.1 126.648 438.596 126.536 438.052 126.536C437.492 126.536 436.98 126.64 436.516 126.848C436.052 127.056 435.644 127.352 435.292 127.736C434.956 128.104 434.692 128.56 434.5 129.104C434.308 129.632 434.212 130.216 434.212 130.856V131.24C434.212 132.6 434.564 133.664 435.268 134.432C435.988 135.184 436.916 135.56 438.052 135.56ZM447.947 135.272H452.267V121.928H448.091V120.2H454.139V135.272H458.459V137H447.947V135.272ZM485.978 134.984H485.69C485.306 135.784 484.77 136.376 484.082 136.76C483.41 137.144 482.698 137.336 481.946 137.336C481.162 137.336 480.434 137.208 479.762 136.952C479.09 136.68 478.498 136.288 477.986 135.776C477.49 135.248 477.098 134.608 476.81 133.856C476.522 133.104 476.378 132.232 476.378 131.24V130.856C476.378 129.88 476.522 129.016 476.81 128.264C477.098 127.512 477.49 126.88 477.986 126.368C478.498 125.84 479.09 125.44 479.762 125.168C480.434 124.896 481.146 124.76 481.898 124.76C482.714 124.76 483.45 124.944 484.106 125.312C484.778 125.664 485.306 126.216 485.69 126.968H485.978V125.096H487.85V134.552C487.85 135.032 488.066 135.272 488.498 135.272H489.098V137H487.826C487.282 137 486.834 136.824 486.482 136.472C486.146 136.12 485.978 135.672 485.978 135.128V134.984ZM482.138 135.56C482.698 135.56 483.21 135.456 483.674 135.248C484.154 135.04 484.562 134.744 484.898 134.36C485.234 133.976 485.498 133.52 485.69 132.992C485.882 132.448 485.978 131.848 485.978 131.192V130.904C485.978 130.264 485.882 129.68 485.69 129.152C485.498 128.608 485.226 128.144 484.874 127.76C484.538 127.376 484.13 127.08 483.65 126.872C483.186 126.648 482.682 126.536 482.138 126.536C481.578 126.536 481.066 126.64 480.602 126.848C480.138 127.056 479.73 127.352 479.378 127.736C479.042 128.104 478.778 128.56 478.586 129.104C478.394 129.632 478.298 130.216 478.298 130.856V131.24C478.298 132.6 478.65 133.664 479.354 134.432C480.074 135.184 481.002 135.56 482.138 135.56ZM493.905 137H492.033V125.096H493.905V127.112H494.193C494.929 125.544 496.209 124.76 498.033 124.76C499.409 124.76 500.505 125.192 501.321 126.056C502.137 126.904 502.545 128.184 502.545 129.896V137H500.673V130.28C500.673 129.032 500.393 128.096 499.833 127.472C499.273 126.848 498.513 126.536 497.553 126.536C496.417 126.536 495.521 126.928 494.865 127.712C494.225 128.48 493.905 129.512 493.905 130.808V137ZM515.945 135.176H515.657C515.465 135.544 515.217 135.864 514.913 136.136C514.625 136.408 514.305 136.632 513.953 136.808C513.617 136.984 513.257 137.112 512.873 137.192C512.489 137.288 512.121 137.336 511.769 137.336C510.969 137.336 510.225 137.2 509.537 136.928C508.849 136.656 508.241 136.264 507.713 135.752C507.201 135.24 506.793 134.608 506.489 133.856C506.201 133.088 506.057 132.216 506.057 131.24V130.856C506.057 129.896 506.209 129.04 506.513 128.288C506.817 127.52 507.225 126.88 507.737 126.368C508.249 125.84 508.849 125.44 509.537 125.168C510.225 124.896 510.953 124.76 511.721 124.76C512.537 124.76 513.297 124.944 514.001 125.312C514.721 125.664 515.273 126.216 515.657 126.968H515.945V120.2H517.817V137H515.945V135.176ZM511.961 135.56C512.521 135.56 513.041 135.456 513.521 135.248C514.001 135.04 514.417 134.744 514.769 134.36C515.137 133.976 515.425 133.52 515.633 132.992C515.841 132.448 515.945 131.848 515.945 131.192V130.904C515.945 130.264 515.841 129.68 515.633 129.152C515.425 128.608 515.137 128.144 514.769 127.76C514.417 127.376 513.993 127.08 513.497 126.872C513.017 126.648 512.505 126.536 511.961 126.536C511.401 126.536 510.873 126.64 510.377 126.848C509.897 127.056 509.473 127.352 509.105 127.736C508.753 128.12 508.473 128.576 508.265 129.104C508.073 129.632 507.977 130.216 507.977 130.856V131.24C507.977 131.912 508.073 132.512 508.265 133.04C508.473 133.568 508.753 134.024 509.105 134.408C509.473 134.776 509.897 135.064 510.377 135.272C510.857 135.464 511.385 135.56 511.961 135.56ZM541.471 135.464C542.159 135.464 542.743 135.352 543.223 135.128C543.719 134.888 544.119 134.576 544.423 134.192C544.743 133.792 544.975 133.344 545.119 132.848C545.279 132.336 545.359 131.8 545.359 131.24V130.952H547.375V131.24C547.375 132.088 547.247 132.888 546.991 133.64C546.735 134.376 546.359 135.024 545.863 135.584C545.367 136.128 544.751 136.56 544.015 136.88C543.279 137.184 542.431 137.336 541.471 137.336C539.615 137.336 538.167 136.752 537.127 135.584C536.087 134.416 535.567 132.712 535.567 130.472V126.728C535.567 124.552 536.087 122.864 537.127 121.664C538.167 120.464 539.615 119.864 541.471 119.864C542.431 119.864 543.279 120.024 544.015 120.344C544.751 120.648 545.367 121.08 545.863 121.64C546.359 122.184 546.735 122.832 546.991 123.584C547.247 124.32 547.375 125.112 547.375 125.96V126.248H545.359V125.96C545.343 125.416 545.255 124.888 545.095 124.376C544.951 123.864 544.719 123.416 544.399 123.032C544.095 122.632 543.703 122.32 543.223 122.096C542.743 121.856 542.159 121.736 541.471 121.736C540.175 121.736 539.199 122.208 538.543 123.152C537.903 124.096 537.583 125.336 537.583 126.872V130.328C537.583 131.976 537.903 133.248 538.543 134.144C539.199 135.024 540.175 135.464 541.471 135.464ZM562.047 131.192C562.047 132.184 561.879 133.064 561.543 133.832C561.223 134.584 560.791 135.224 560.247 135.752C559.703 136.264 559.063 136.656 558.327 136.928C557.607 137.2 556.855 137.336 556.071 137.336C555.271 137.336 554.511 137.2 553.791 136.928C553.071 136.656 552.439 136.264 551.895 135.752C551.351 135.224 550.911 134.584 550.575 133.832C550.255 133.064 550.095 132.184 550.095 131.192V130.904C550.095 129.928 550.255 129.064 550.575 128.312C550.911 127.544 551.351 126.896 551.895 126.368C552.455 125.84 553.095 125.44 553.815 125.168C554.535 124.896 555.287 124.76 556.071 124.76C556.855 124.76 557.607 124.896 558.327 125.168C559.047 125.44 559.679 125.84 560.223 126.368C560.783 126.896 561.223 127.544 561.543 128.312C561.879 129.064 562.047 129.928 562.047 130.904V131.192ZM556.071 135.56C556.647 135.56 557.175 135.464 557.655 135.272C558.151 135.064 558.583 134.768 558.951 134.384C559.319 134 559.607 133.544 559.815 133.016C560.023 132.472 560.127 131.864 560.127 131.192V130.904C560.127 130.264 560.023 129.68 559.815 129.152C559.607 128.608 559.319 128.144 558.951 127.76C558.583 127.376 558.151 127.08 557.655 126.872C557.159 126.648 556.631 126.536 556.071 126.536C555.511 126.536 554.983 126.648 554.487 126.872C553.991 127.08 553.559 127.376 553.191 127.76C552.823 128.144 552.535 128.608 552.327 129.152C552.119 129.68 552.015 130.264 552.015 130.904V131.192C552.015 131.864 552.119 132.472 552.327 133.016C552.535 133.544 552.823 134 553.191 134.384C553.559 134.768 553.983 135.064 554.463 135.272C554.959 135.464 555.495 135.56 556.071 135.56ZM574.726 135.176H574.438C574.246 135.544 573.998 135.864 573.694 136.136C573.406 136.408 573.086 136.632 572.734 136.808C572.398 136.984 572.038 137.112 571.654 137.192C571.27 137.288 570.902 137.336 570.55 137.336C569.75 137.336 569.006 137.2 568.318 136.928C567.63 136.656 567.022 136.264 566.494 135.752C565.982 135.24 565.574 134.608 565.27 133.856C564.982 133.088 564.838 132.216 564.838 131.24V130.856C564.838 129.896 564.99 129.04 565.294 128.288C565.598 127.52 566.006 126.88 566.518 126.368C567.03 125.84 567.63 125.44 568.318 125.168C569.006 124.896 569.734 124.76 570.502 124.76C571.318 124.76 572.078 124.944 572.782 125.312C573.502 125.664 574.054 126.216 574.438 126.968H574.726V120.2H576.598V137H574.726V135.176ZM570.742 135.56C571.302 135.56 571.822 135.456 572.302 135.248C572.782 135.04 573.198 134.744 573.55 134.36C573.918 133.976 574.206 133.52 574.414 132.992C574.622 132.448 574.726 131.848 574.726 131.192V130.904C574.726 130.264 574.622 129.68 574.414 129.152C574.206 128.608 573.918 128.144 573.55 127.76C573.198 127.376 572.774 127.08 572.278 126.872C571.798 126.648 571.286 126.536 570.742 126.536C570.182 126.536 569.654 126.64 569.158 126.848C568.678 127.056 568.254 127.352 567.886 127.736C567.534 128.12 567.254 128.576 567.046 129.104C566.854 129.632 566.758 130.216 566.758 130.856V131.24C566.758 131.912 566.854 132.512 567.046 133.04C567.254 133.568 567.534 134.024 567.886 134.408C568.254 134.776 568.678 135.064 569.158 135.272C569.638 135.464 570.166 135.56 570.742 135.56ZM581.573 131.624C581.621 132.808 581.989 133.76 582.677 134.48C583.365 135.2 584.325 135.56 585.557 135.56C586.117 135.56 586.605 135.496 587.021 135.368C587.437 135.24 587.789 135.064 588.077 134.84C588.381 134.616 588.621 134.36 588.797 134.072C588.989 133.768 589.141 133.448 589.253 133.112L591.029 133.592C590.693 134.696 590.069 135.6 589.157 136.304C588.261 136.992 587.045 137.336 585.509 137.336C584.661 137.336 583.877 137.192 583.157 136.904C582.453 136.6 581.845 136.176 581.333 135.632C580.821 135.088 580.421 134.44 580.133 133.688C579.845 132.936 579.701 132.104 579.701 131.192V130.616C579.701 129.784 579.845 129.008 580.133 128.288C580.437 127.568 580.853 126.952 581.381 126.44C581.909 125.912 582.525 125.504 583.229 125.216C583.949 124.912 584.725 124.76 585.557 124.76C586.533 124.76 587.373 124.944 588.077 125.312C588.797 125.664 589.381 126.104 589.829 126.632C590.293 127.16 590.629 127.736 590.837 128.36C591.061 128.984 591.173 129.56 591.173 130.088V131.624H581.573ZM585.557 126.536C585.029 126.536 584.533 126.624 584.069 126.8C583.621 126.96 583.221 127.192 582.869 127.496C582.533 127.8 582.253 128.16 582.029 128.576C581.821 128.976 581.685 129.416 581.621 129.896H589.301C589.269 129.384 589.141 128.92 588.917 128.504C588.709 128.088 588.429 127.736 588.077 127.448C587.741 127.16 587.349 126.936 586.901 126.776C586.469 126.616 586.021 126.536 585.557 126.536ZM15.944 168.824H8.744L7.52 173H5.36L10.448 156.2H14.24L19.328 173H17.168L15.944 168.824ZM12.2 157.064L9.296 166.952H15.392L12.488 157.064H12.2ZM32.9193 168.776C32.7913 169.432 32.5673 170.04 32.2473 170.6C31.9433 171.16 31.5513 171.648 31.0713 172.064C30.5913 172.464 30.0313 172.776 29.3913 173C28.7513 173.224 28.0393 173.336 27.2553 173.336C26.4233 173.336 25.6313 173.2 24.8793 172.928C24.1433 172.656 23.4953 172.264 22.9353 171.752C22.3753 171.224 21.9273 170.584 21.5913 169.832C21.2713 169.08 21.1113 168.216 21.1113 167.24V166.952C21.1113 165.992 21.2713 165.128 21.5913 164.36C21.9273 163.592 22.3753 162.944 22.9353 162.416C23.4953 161.888 24.1433 161.48 24.8793 161.192C25.6313 160.904 26.4233 160.76 27.2553 160.76C28.0073 160.76 28.7033 160.872 29.3433 161.096C29.9833 161.32 30.5433 161.64 31.0233 162.056C31.5193 162.456 31.9193 162.936 32.2233 163.496C32.5433 164.056 32.7593 164.664 32.8713 165.32L30.9993 165.752C30.9513 165.336 30.8313 164.936 30.6393 164.552C30.4633 164.152 30.2153 163.808 29.8953 163.52C29.5913 163.216 29.2153 162.976 28.7673 162.8C28.3193 162.624 27.7993 162.536 27.2073 162.536C26.6313 162.536 26.0873 162.648 25.5753 162.872C25.0793 163.08 24.6393 163.384 24.2553 163.784C23.8713 164.168 23.5673 164.632 23.3433 165.176C23.1353 165.72 23.0313 166.312 23.0313 166.952V167.24C23.0313 167.912 23.1353 168.52 23.3433 169.064C23.5673 169.592 23.8713 170.04 24.2553 170.408C24.6393 170.776 25.0873 171.064 25.5993 171.272C26.1113 171.464 26.6633 171.56 27.2553 171.56C27.8473 171.56 28.3593 171.472 28.7913 171.296C29.2393 171.104 29.6153 170.864 29.9193 170.576C30.2393 170.272 30.4873 169.928 30.6633 169.544C30.8553 169.16 30.9833 168.76 31.0473 168.344L32.9193 168.776ZM35.8066 161.096H40.1266V162.68H40.4146C40.7186 162.024 41.1506 161.544 41.7106 161.24C42.2706 160.92 42.9106 160.76 43.6306 160.76C44.8306 160.76 45.7986 161.152 46.5346 161.936C47.2706 162.72 47.6626 163.864 47.7106 165.368L45.7426 165.656C45.7426 164.552 45.4786 163.76 44.9506 163.28C44.4226 162.784 43.7746 162.536 43.0066 162.536C42.5106 162.536 42.0786 162.632 41.7106 162.824C41.3586 163.016 41.0626 163.28 40.8226 163.616C40.5826 163.952 40.4066 164.344 40.2946 164.792C40.1826 165.24 40.1266 165.72 40.1266 166.232V171.272H43.1506V173H35.5186V171.272H38.2546V162.824H35.8066V161.096ZM62.4059 167.192C62.4059 168.184 62.2379 169.064 61.9019 169.832C61.5819 170.584 61.1499 171.224 60.6059 171.752C60.0619 172.264 59.4219 172.656 58.6859 172.928C57.9659 173.2 57.2139 173.336 56.4299 173.336C55.6299 173.336 54.8699 173.2 54.1499 172.928C53.4299 172.656 52.7979 172.264 52.2539 171.752C51.7099 171.224 51.2699 170.584 50.9339 169.832C50.6139 169.064 50.4539 168.184 50.4539 167.192V166.904C50.4539 165.928 50.6139 165.064 50.9339 164.312C51.2699 163.544 51.7099 162.896 52.2539 162.368C52.8139 161.84 53.4539 161.44 54.1739 161.168C54.8939 160.896 55.6459 160.76 56.4299 160.76C57.2139 160.76 57.9659 160.896 58.6859 161.168C59.4059 161.44 60.0379 161.84 60.5819 162.368C61.1419 162.896 61.5819 163.544 61.9019 164.312C62.2379 165.064 62.4059 165.928 62.4059 166.904V167.192ZM56.4299 171.56C57.0059 171.56 57.5339 171.464 58.0139 171.272C58.5099 171.064 58.9419 170.768 59.3099 170.384C59.6779 170 59.9659 169.544 60.1739 169.016C60.3819 168.472 60.4859 167.864 60.4859 167.192V166.904C60.4859 166.264 60.3819 165.68 60.1739 165.152C59.9659 164.608 59.6779 164.144 59.3099 163.76C58.9419 163.376 58.5099 163.08 58.0139 162.872C57.5179 162.648 56.9899 162.536 56.4299 162.536C55.8699 162.536 55.3419 162.648 54.8459 162.872C54.3499 163.08 53.9179 163.376 53.5499 163.76C53.1819 164.144 52.8939 164.608 52.6859 165.152C52.4779 165.68 52.3739 166.264 52.3739 166.904V167.192C52.3739 167.864 52.4779 168.472 52.6859 169.016C52.8939 169.544 53.1819 170 53.5499 170.384C53.9179 170.768 54.3419 171.064 54.8219 171.272C55.3179 171.464 55.8539 171.56 56.4299 171.56ZM68.3413 164.168C68.3413 164.744 68.5813 165.184 69.0613 165.488C69.5573 165.792 70.4533 165.992 71.7493 166.088C73.1413 166.2 74.1973 166.536 74.9173 167.096C75.6533 167.64 76.0213 168.44 76.0213 169.496V169.64C76.0213 170.216 75.9013 170.736 75.6613 171.2C75.4373 171.648 75.1173 172.032 74.7013 172.352C74.3013 172.672 73.8053 172.912 73.2133 173.072C72.6373 173.248 72.0053 173.336 71.3173 173.336C70.3893 173.336 69.5893 173.216 68.9173 172.976C68.2613 172.72 67.7093 172.392 67.2613 171.992C66.8293 171.576 66.5013 171.112 66.2773 170.6C66.0533 170.072 65.9253 169.544 65.8933 169.016L67.6693 168.584C67.7493 169.496 68.1013 170.232 68.7253 170.792C69.3493 171.336 70.1813 171.608 71.2213 171.608C72.1013 171.608 72.8053 171.44 73.3333 171.104C73.8773 170.752 74.1493 170.264 74.1493 169.64C74.1493 168.968 73.8853 168.488 73.3573 168.2C72.8293 167.912 71.9733 167.728 70.7893 167.648C69.4133 167.552 68.3573 167.232 67.6213 166.688C66.8853 166.144 66.5173 165.352 66.5173 164.312V164.168C66.5173 163.608 66.6373 163.12 66.8773 162.704C67.1173 162.272 67.4373 161.912 67.8373 161.624C68.2533 161.336 68.7173 161.12 69.2293 160.976C69.7413 160.832 70.2773 160.76 70.8372 160.76C71.6213 160.76 72.3093 160.872 72.9013 161.096C73.4933 161.304 73.9893 161.584 74.3893 161.936C74.7893 162.272 75.0933 162.664 75.3013 163.112C75.5253 163.56 75.6693 164.008 75.7333 164.456L73.9573 164.888C73.8773 164.12 73.5653 163.52 73.0213 163.088C72.4933 162.656 71.7973 162.44 70.9333 162.44C70.5973 162.44 70.2693 162.48 69.9492 162.56C69.6453 162.624 69.3733 162.728 69.1333 162.872C68.8933 163.016 68.7013 163.2 68.5573 163.424C68.4133 163.632 68.3413 163.88 68.3413 164.168ZM83.0366 164.168C83.0366 164.744 83.2766 165.184 83.7566 165.488C84.2526 165.792 85.1486 165.992 86.4446 166.088C87.8366 166.2 88.8926 166.536 89.6126 167.096C90.3486 167.64 90.7166 168.44 90.7166 169.496V169.64C90.7166 170.216 90.5966 170.736 90.3566 171.2C90.1326 171.648 89.8126 172.032 89.3966 172.352C88.9966 172.672 88.5006 172.912 87.9086 173.072C87.3326 173.248 86.7006 173.336 86.0126 173.336C85.0846 173.336 84.2846 173.216 83.6126 172.976C82.9566 172.72 82.4046 172.392 81.9566 171.992C81.5246 171.576 81.1966 171.112 80.9726 170.6C80.7486 170.072 80.6206 169.544 80.5886 169.016L82.3646 168.584C82.4446 169.496 82.7966 170.232 83.4206 170.792C84.0446 171.336 84.8766 171.608 85.9166 171.608C86.7966 171.608 87.5006 171.44 88.0286 171.104C88.5726 170.752 88.8446 170.264 88.8446 169.64C88.8446 168.968 88.5806 168.488 88.0526 168.2C87.5246 167.912 86.6686 167.728 85.4846 167.648C84.1086 167.552 83.0526 167.232 82.3166 166.688C81.5806 166.144 81.2126 165.352 81.2126 164.312V164.168C81.2126 163.608 81.3326 163.12 81.5726 162.704C81.8126 162.272 82.1326 161.912 82.5326 161.624C82.9486 161.336 83.4126 161.12 83.9246 160.976C84.4366 160.832 84.9726 160.76 85.5326 160.76C86.3166 160.76 87.0046 160.872 87.5966 161.096C88.1886 161.304 88.6846 161.584 89.0846 161.936C89.4846 162.272 89.7886 162.664 89.9966 163.112C90.2206 163.56 90.3646 164.008 90.4286 164.456L88.6526 164.888C88.5726 164.12 88.2606 163.52 87.7166 163.088C87.1886 162.656 86.4926 162.44 85.6286 162.44C85.2926 162.44 84.9646 162.48 84.6446 162.56C84.3406 162.624 84.0686 162.728 83.8286 162.872C83.5886 163.016 83.3966 163.2 83.2526 163.424C83.1086 163.632 83.0366 163.88 83.0366 164.168ZM109.547 161.096H113.291V156.2H115.163V161.096H119.771V162.824H115.163V170.552C115.163 171.032 115.379 171.272 115.811 171.272H119.195V173H115.139C114.595 173 114.147 172.824 113.795 172.472C113.459 172.12 113.291 171.672 113.291 171.128V162.824H109.547V161.096ZM126.523 173H124.651V156.2H126.523V163.256H126.811C127.179 162.488 127.691 161.88 128.347 161.432C129.019 160.984 129.835 160.76 130.795 160.76C132.091 160.76 133.139 161.192 133.939 162.056C134.755 162.904 135.163 164.184 135.163 165.896V173H133.291V166.28C133.291 165.032 133.011 164.096 132.451 163.472C131.891 162.848 131.131 162.536 130.171 162.536C129.035 162.536 128.139 162.928 127.483 163.712C126.843 164.48 126.523 165.512 126.523 166.808V173ZM140.714 167.624C140.762 168.808 141.13 169.76 141.818 170.48C142.506 171.2 143.466 171.56 144.698 171.56C145.258 171.56 145.746 171.496 146.162 171.368C146.578 171.24 146.93 171.064 147.218 170.84C147.522 170.616 147.762 170.36 147.938 170.072C148.13 169.768 148.282 169.448 148.394 169.112L150.17 169.592C149.834 170.696 149.21 171.6 148.298 172.304C147.402 172.992 146.186 173.336 144.65 173.336C143.802 173.336 143.018 173.192 142.298 172.904C141.594 172.6 140.986 172.176 140.474 171.632C139.962 171.088 139.562 170.44 139.274 169.688C138.986 168.936 138.842 168.104 138.842 167.192V166.616C138.842 165.784 138.986 165.008 139.274 164.288C139.578 163.568 139.994 162.952 140.522 162.44C141.05 161.912 141.666 161.504 142.37 161.216C143.09 160.912 143.866 160.76 144.698 160.76C145.674 160.76 146.514 160.944 147.218 161.312C147.938 161.664 148.522 162.104 148.97 162.632C149.434 163.16 149.77 163.736 149.978 164.36C150.202 164.984 150.314 165.56 150.314 166.088V167.624H140.714ZM144.698 162.536C144.17 162.536 143.674 162.624 143.21 162.8C142.762 162.96 142.362 163.192 142.01 163.496C141.674 163.8 141.394 164.16 141.17 164.576C140.962 164.976 140.826 165.416 140.762 165.896H148.442C148.41 165.384 148.282 164.92 148.058 164.504C147.85 164.088 147.57 163.736 147.218 163.448C146.882 163.16 146.49 162.936 146.042 162.776C145.61 162.616 145.162 162.536 144.698 162.536ZM170.248 156.2V167.336C170.248 168.696 170.56 169.728 171.184 170.432C171.824 171.12 172.76 171.464 173.992 171.464C175.224 171.464 176.152 171.12 176.776 170.432C177.416 169.728 177.736 168.696 177.736 167.336V156.2H179.752V167.336C179.752 169.288 179.24 170.776 178.216 171.8C177.192 172.824 175.784 173.336 173.992 173.336C172.2 173.336 170.792 172.824 169.768 171.8C168.744 170.776 168.232 169.288 168.232 167.336V156.2H170.248ZM185.304 173H183.432V161.096H185.304V163.112H185.592C186.328 161.544 187.608 160.76 189.432 160.76C190.808 160.76 191.904 161.192 192.72 162.056C193.536 162.904 193.944 164.184 193.944 165.896V173H192.072V166.28C192.072 165.032 191.792 164.096 191.232 163.472C190.672 162.848 189.912 162.536 188.952 162.536C187.816 162.536 186.92 162.928 186.264 163.712C185.624 164.48 185.304 165.512 185.304 166.808V173ZM201.823 157.544C201.823 157.08 201.983 156.688 202.303 156.368C202.639 156.032 203.039 155.864 203.503 155.864C203.967 155.864 204.359 156.032 204.679 156.368C205.015 156.688 205.183 157.08 205.183 157.544C205.183 158.008 205.015 158.408 204.679 158.744C204.359 159.064 203.967 159.224 203.503 159.224C203.039 159.224 202.639 159.064 202.303 158.744C201.983 158.408 201.823 158.008 201.823 157.544ZM198.415 171.272H202.591V162.824H198.847V161.096H204.463V171.272H208.351V173H198.415V171.272ZM219.902 173H216.206L212.054 161.096H214.262L217.91 172.136H218.198L221.846 161.096H224.054L219.902 173ZM228.886 167.624C228.934 168.808 229.302 169.76 229.99 170.48C230.678 171.2 231.638 171.56 232.87 171.56C233.43 171.56 233.918 171.496 234.334 171.368C234.75 171.24 235.102 171.064 235.39 170.84C235.694 170.616 235.934 170.36 236.11 170.072C236.302 169.768 236.454 169.448 236.566 169.112L238.342 169.592C238.006 170.696 237.382 171.6 236.47 172.304C235.574 172.992 234.358 173.336 232.822 173.336C231.974 173.336 231.19 173.192 230.47 172.904C229.766 172.6 229.158 172.176 228.646 171.632C228.134 171.088 227.734 170.44 227.446 169.688C227.158 168.936 227.014 168.104 227.014 167.192V166.616C227.014 165.784 227.158 165.008 227.446 164.288C227.75 163.568 228.166 162.952 228.694 162.44C229.222 161.912 229.838 161.504 230.542 161.216C231.262 160.912 232.038 160.76 232.87 160.76C233.846 160.76 234.686 160.944 235.39 161.312C236.11 161.664 236.694 162.104 237.142 162.632C237.606 163.16 237.942 163.736 238.15 164.36C238.374 164.984 238.486 165.56 238.486 166.088V167.624H228.886ZM232.87 162.536C232.342 162.536 231.846 162.624 231.382 162.8C230.934 162.96 230.534 163.192 230.182 163.496C229.846 163.8 229.566 164.16 229.342 164.576C229.134 164.976 228.998 165.416 228.934 165.896H236.614C236.582 165.384 236.454 164.92 236.23 164.504C236.022 164.088 235.742 163.736 235.39 163.448C235.054 163.16 234.662 162.936 234.214 162.776C233.782 162.616 233.334 162.536 232.87 162.536ZM241.541 161.096H245.861V162.68H246.149C246.453 162.024 246.885 161.544 247.445 161.24C248.005 160.92 248.645 160.76 249.365 160.76C250.565 160.76 251.533 161.152 252.269 161.936C253.005 162.72 253.397 163.864 253.445 165.368L251.477 165.656C251.477 164.552 251.213 163.76 250.685 163.28C250.157 162.784 249.509 162.536 248.741 162.536C248.245 162.536 247.813 162.632 247.445 162.824C247.093 163.016 246.797 163.28 246.557 163.616C246.317 163.952 246.141 164.344 246.029 164.792C245.917 165.24 245.861 165.72 245.861 166.232V171.272H248.885V173H241.253V171.272H243.989V162.824H241.541V161.096ZM259.38 164.168C259.38 164.744 259.62 165.184 260.1 165.488C260.596 165.792 261.492 165.992 262.788 166.088C264.18 166.2 265.236 166.536 265.956 167.096C266.692 167.64 267.06 168.44 267.06 169.496V169.64C267.06 170.216 266.94 170.736 266.7 171.2C266.476 171.648 266.156 172.032 265.74 172.352C265.34 172.672 264.844 172.912 264.252 173.072C263.676 173.248 263.044 173.336 262.356 173.336C261.428 173.336 260.628 173.216 259.956 172.976C259.3 172.72 258.748 172.392 258.3 171.992C257.868 171.576 257.54 171.112 257.316 170.6C257.092 170.072 256.964 169.544 256.932 169.016L258.708 168.584C258.788 169.496 259.14 170.232 259.764 170.792C260.388 171.336 261.22 171.608 262.26 171.608C263.14 171.608 263.844 171.44 264.372 171.104C264.916 170.752 265.188 170.264 265.188 169.64C265.188 168.968 264.924 168.488 264.396 168.2C263.868 167.912 263.012 167.728 261.828 167.648C260.452 167.552 259.396 167.232 258.66 166.688C257.924 166.144 257.556 165.352 257.556 164.312V164.168C257.556 163.608 257.676 163.12 257.916 162.704C258.156 162.272 258.476 161.912 258.876 161.624C259.292 161.336 259.756 161.12 260.268 160.976C260.78 160.832 261.316 160.76 261.876 160.76C262.66 160.76 263.348 160.872 263.94 161.096C264.532 161.304 265.028 161.584 265.428 161.936C265.828 162.272 266.132 162.664 266.34 163.112C266.564 163.56 266.708 164.008 266.772 164.456L264.996 164.888C264.916 164.12 264.604 163.52 264.06 163.088C263.532 162.656 262.836 162.44 261.972 162.44C261.636 162.44 261.308 162.48 260.988 162.56C260.684 162.624 260.412 162.728 260.172 162.872C259.932 163.016 259.74 163.2 259.596 163.424C259.452 163.632 259.38 163.88 259.38 164.168ZM272.972 167.624C273.02 168.808 273.388 169.76 274.076 170.48C274.764 171.2 275.724 171.56 276.956 171.56C277.516 171.56 278.004 171.496 278.42 171.368C278.836 171.24 279.188 171.064 279.476 170.84C279.78 170.616 280.02 170.36 280.196 170.072C280.388 169.768 280.54 169.448 280.652 169.112L282.428 169.592C282.092 170.696 281.468 171.6 280.556 172.304C279.66 172.992 278.444 173.336 276.908 173.336C276.06 173.336 275.276 173.192 274.556 172.904C273.852 172.6 273.244 172.176 272.732 171.632C272.22 171.088 271.82 170.44 271.532 169.688C271.244 168.936 271.1 168.104 271.1 167.192V166.616C271.1 165.784 271.244 165.008 271.532 164.288C271.836 163.568 272.252 162.952 272.78 162.44C273.308 161.912 273.924 161.504 274.628 161.216C275.348 160.912 276.124 160.76 276.956 160.76C277.932 160.76 278.772 160.944 279.476 161.312C280.196 161.664 280.78 162.104 281.228 162.632C281.692 163.16 282.028 163.736 282.236 164.36C282.46 164.984 282.572 165.56 282.572 166.088V167.624H272.972ZM276.956 162.536C276.428 162.536 275.932 162.624 275.468 162.8C275.02 162.96 274.62 163.192 274.268 163.496C273.932 163.8 273.652 164.16 273.428 164.576C273.22 164.976 273.084 165.416 273.02 165.896H280.7C280.668 165.384 280.54 164.92 280.316 164.504C280.108 164.088 279.828 163.736 279.476 163.448C279.14 163.16 278.748 162.936 278.3 162.776C277.868 162.616 277.42 162.536 276.956 162.536Z" fill="white"/>
<defs>
<linearGradient id="paint0_linear_550_661" x1="129.141" y1="43.5692" x2="481.329" y2="311.436" gradientUnits="userSpaceOnUse">
<stop stop-color="white"/>
<stop offset="1" stop-color="white" stop-opacity="0.5"/>
</linearGradient>
</defs>
</svg>
