<svg width="276" height="178" viewBox="0 0 276 178" fill="none" xmlns="http://www.w3.org/2000/svg">
<path d="M40.2103 14.999H49.0503V17.519H42.8503V20.719H48.8103V23.239H42.8503V26.479H49.2903V28.999H40.2103V14.999ZM52.6764 19.079H55.3964L57.7364 27.799H58.0964L60.4364 19.079H63.1564L60.3164 28.999H55.5164L52.6764 19.079ZM68.8425 24.859C68.8558 25.1524 68.9225 25.4257 69.0425 25.679C69.1758 25.919 69.3492 26.1324 69.5625 26.319C69.7892 26.4924 70.0425 26.6324 70.3225 26.739C70.6158 26.8324 70.9225 26.879 71.2425 26.879C71.8692 26.879 72.3492 26.7724 72.6825 26.559C73.0158 26.3324 73.2558 26.0657 73.4025 25.759L75.5625 26.959C75.4425 27.2124 75.2758 27.479 75.0625 27.759C74.8492 28.0257 74.5692 28.2724 74.2225 28.499C73.8892 28.7257 73.4758 28.9124 72.9825 29.059C72.5025 29.2057 71.9358 29.279 71.2825 29.279C70.5358 29.279 69.8558 29.159 69.2425 28.919C68.6292 28.679 68.0958 28.3324 67.6425 27.879C67.2025 27.4257 66.8558 26.8724 66.6025 26.219C66.3625 25.5657 66.2425 24.8257 66.2425 23.999V23.879C66.2425 23.119 66.3692 22.4257 66.6225 21.799C66.8892 21.1724 67.2492 20.639 67.7025 20.199C68.1558 19.759 68.6825 19.419 69.2825 19.179C69.8958 18.9257 70.5492 18.799 71.2425 18.799C72.0958 18.799 72.8292 18.9524 73.4425 19.259C74.0558 19.5524 74.5625 19.9324 74.9625 20.399C75.3625 20.8524 75.6558 21.359 75.8425 21.919C76.0292 22.4657 76.1225 22.999 76.1225 23.519V24.859H68.8425ZM71.2225 21.079C70.5825 21.079 70.0625 21.2457 69.6625 21.579C69.2625 21.899 69.0025 22.2724 68.8825 22.699H73.5625C73.4825 22.2324 73.2292 21.8457 72.8025 21.539C72.3892 21.2324 71.8625 21.079 71.2225 21.079ZM82.3886 28.999H79.8686V19.079H82.3886V20.559H82.7486C82.9753 19.999 83.3419 19.5657 83.8486 19.259C84.3553 18.9524 84.9486 18.799 85.6286 18.799C86.1086 18.799 86.5553 18.879 86.9686 19.039C87.3953 19.1857 87.7686 19.419 88.0886 19.739C88.4086 20.059 88.6553 20.4657 88.8286 20.959C89.0153 21.4524 89.1086 22.039 89.1086 22.719V28.999H86.5886V23.359C86.5886 22.6524 86.4153 22.099 86.0686 21.699C85.7353 21.2857 85.2486 21.079 84.6086 21.079C83.8619 21.079 83.3019 21.3324 82.9286 21.839C82.5686 22.3324 82.3886 22.999 82.3886 23.839V28.999ZM92.8347 19.079H95.7747V14.999H98.2947V19.079H101.875V21.479H98.2947V25.999C98.2947 26.399 98.4747 26.599 98.8347 26.599H101.515V28.999H97.3147C96.8614 28.999 96.488 28.8524 96.1947 28.559C95.9147 28.2657 95.7747 27.8924 95.7747 27.439V21.479H92.8347V19.079ZM124.207 26.879C124.714 26.879 125.127 26.8057 125.447 26.659C125.78 26.499 126.034 26.2924 126.207 26.039C126.394 25.7724 126.52 25.4724 126.587 25.139C126.654 24.7924 126.687 24.439 126.687 24.079V23.719H129.327V24.079C129.327 25.7457 128.887 27.0324 128.007 27.939C127.14 28.8324 125.874 29.279 124.207 29.279C122.607 29.279 121.34 28.7924 120.407 27.819C119.474 26.8457 119.007 25.4257 119.007 23.559V20.439C119.007 19.5457 119.127 18.7457 119.367 18.039C119.607 17.319 119.954 16.719 120.407 16.239C120.86 15.7457 121.407 15.3724 122.047 15.119C122.687 14.8524 123.407 14.719 124.207 14.719C125.034 14.719 125.767 14.839 126.407 15.079C127.047 15.319 127.58 15.6657 128.007 16.119C128.447 16.5724 128.774 17.119 128.987 17.759C129.214 18.399 129.327 19.119 129.327 19.919V20.279H126.687V19.919C126.687 19.5857 126.647 19.2524 126.567 18.919C126.487 18.5857 126.354 18.2857 126.167 18.019C125.98 17.7524 125.727 17.539 125.407 17.379C125.087 17.2057 124.687 17.119 124.207 17.119C123.767 17.119 123.387 17.2057 123.067 17.379C122.747 17.539 122.48 17.7657 122.267 18.059C122.054 18.339 121.894 18.6724 121.787 19.059C121.694 19.4324 121.647 19.8257 121.647 20.239V23.759C121.647 24.2124 121.694 24.6324 121.787 25.019C121.88 25.3924 122.027 25.719 122.227 25.999C122.427 26.279 122.687 26.499 123.007 26.659C123.34 26.8057 123.74 26.879 124.207 26.879ZM142.573 24.159C142.573 24.9857 142.433 25.719 142.153 26.359C141.873 26.9857 141.493 27.519 141.013 27.959C140.533 28.3857 139.98 28.7124 139.353 28.939C138.74 29.1657 138.093 29.279 137.413 29.279C136.733 29.279 136.08 29.1657 135.453 28.939C134.84 28.7124 134.293 28.3857 133.813 27.959C133.333 27.519 132.953 26.9857 132.673 26.359C132.393 25.719 132.253 24.9857 132.253 24.159V23.919C132.253 23.1057 132.393 22.3857 132.673 21.759C132.953 21.119 133.333 20.579 133.813 20.139C134.293 19.699 134.84 19.3657 135.453 19.139C136.08 18.9124 136.733 18.799 137.413 18.799C138.093 18.799 138.74 18.9124 139.353 19.139C139.98 19.3657 140.533 19.699 141.013 20.139C141.493 20.579 141.873 21.119 142.153 21.759C142.433 22.3857 142.573 23.1057 142.573 23.919V24.159ZM137.413 26.879C137.773 26.879 138.113 26.819 138.433 26.699C138.753 26.579 139.033 26.4057 139.273 26.179C139.513 25.9524 139.7 25.679 139.833 25.359C139.98 25.0257 140.053 24.6524 140.053 24.239V23.839C140.053 23.4257 139.98 23.059 139.833 22.739C139.7 22.4057 139.513 22.1257 139.273 21.899C139.033 21.6724 138.753 21.499 138.433 21.379C138.113 21.259 137.773 21.199 137.413 21.199C137.053 21.199 136.713 21.259 136.393 21.379C136.073 21.499 135.793 21.6724 135.553 21.899C135.313 22.1257 135.12 22.4057 134.973 22.739C134.84 23.059 134.773 23.4257 134.773 23.839V24.239C134.773 24.6524 134.84 25.0257 134.973 25.359C135.12 25.679 135.313 25.9524 135.553 26.179C135.793 26.4057 136.073 26.579 136.393 26.699C136.713 26.819 137.053 26.879 137.413 26.879ZM155.819 24.159C155.819 24.9857 155.679 25.719 155.399 26.359C155.119 26.9857 154.739 27.519 154.259 27.959C153.779 28.3857 153.226 28.7124 152.599 28.939C151.986 29.1657 151.339 29.279 150.659 29.279C149.979 29.279 149.326 29.1657 148.699 28.939C148.086 28.7124 147.539 28.3857 147.059 27.959C146.579 27.519 146.199 26.9857 145.919 26.359C145.639 25.719 145.499 24.9857 145.499 24.159V23.919C145.499 23.1057 145.639 22.3857 145.919 21.759C146.199 21.119 146.579 20.579 147.059 20.139C147.539 19.699 148.086 19.3657 148.699 19.139C149.326 18.9124 149.979 18.799 150.659 18.799C151.339 18.799 151.986 18.9124 152.599 19.139C153.226 19.3657 153.779 19.699 154.259 20.139C154.739 20.579 155.119 21.119 155.399 21.759C155.679 22.3857 155.819 23.1057 155.819 23.919V24.159ZM150.659 26.879C151.019 26.879 151.359 26.819 151.679 26.699C151.999 26.579 152.279 26.4057 152.519 26.179C152.759 25.9524 152.946 25.679 153.079 25.359C153.226 25.0257 153.299 24.6524 153.299 24.239V23.839C153.299 23.4257 153.226 23.059 153.079 22.739C152.946 22.4057 152.759 22.1257 152.519 21.899C152.279 21.6724 151.999 21.499 151.679 21.379C151.359 21.259 151.019 21.199 150.659 21.199C150.299 21.199 149.959 21.259 149.639 21.379C149.319 21.499 149.039 21.6724 148.799 21.899C148.559 22.1257 148.366 22.4057 148.219 22.739C148.086 23.059 148.019 23.4257 148.019 23.839V24.239C148.019 24.6524 148.086 25.0257 148.219 25.359C148.366 25.679 148.559 25.9524 148.799 26.179C149.039 26.4057 149.319 26.579 149.639 26.699C149.959 26.819 150.299 26.879 150.659 26.879ZM158.865 19.079H163.065V20.519H163.425C163.612 19.9724 163.925 19.5524 164.365 19.259C164.818 18.9524 165.358 18.799 165.985 18.799C166.972 18.799 167.765 19.1124 168.365 19.739C168.965 20.3524 169.265 21.2924 169.265 22.559V22.999L166.665 23.239V22.959C166.665 22.4124 166.525 21.979 166.245 21.659C165.965 21.3257 165.545 21.159 164.985 21.159C164.425 21.159 163.985 21.3524 163.665 21.739C163.345 22.1257 163.185 22.679 163.185 23.399V26.599H165.465V28.999H158.625V26.599H160.665V21.479H158.865V19.079ZM179.711 27.559H179.351C179.245 27.7857 179.111 28.0057 178.951 28.219C178.805 28.419 178.605 28.599 178.351 28.759C178.111 28.919 177.818 29.0457 177.471 29.139C177.138 29.2324 176.731 29.279 176.251 29.279C175.638 29.279 175.065 29.1724 174.531 28.959C174.011 28.7324 173.551 28.4057 173.151 27.979C172.765 27.539 172.458 27.0057 172.231 26.379C172.018 25.7524 171.911 25.0324 171.911 24.219V23.859C171.911 23.059 172.025 22.3457 172.251 21.719C172.491 21.0924 172.811 20.5657 173.211 20.139C173.625 19.699 174.098 19.3657 174.631 19.139C175.178 18.9124 175.751 18.799 176.351 18.799C177.151 18.799 177.785 18.9524 178.251 19.259C178.718 19.5524 179.085 19.9724 179.351 20.519H179.711V14.999H182.231V28.999H179.711V27.559ZM177.071 26.879C177.858 26.879 178.491 26.6324 178.971 26.139C179.465 25.6324 179.711 24.9724 179.711 24.159V23.919C179.711 23.1057 179.465 22.4524 178.971 21.959C178.491 21.4524 177.858 21.199 177.071 21.199C176.285 21.199 175.645 21.4457 175.151 21.939C174.671 22.419 174.431 23.079 174.431 23.919V24.159C174.431 24.999 174.671 25.6657 175.151 26.159C175.645 26.639 176.285 26.879 177.071 26.879ZM186.017 26.599H189.377V21.479H186.257V19.079H191.897V26.599H194.777V28.999H186.017V26.599ZM192.517 16.139C192.517 16.4057 192.464 16.659 192.357 16.899C192.264 17.1257 192.131 17.3257 191.957 17.499C191.784 17.659 191.577 17.7924 191.337 17.899C191.111 17.9924 190.871 18.039 190.617 18.039C190.351 18.039 190.104 17.9924 189.877 17.899C189.651 17.7924 189.451 17.659 189.277 17.499C189.104 17.3257 188.964 17.1257 188.857 16.899C188.764 16.659 188.717 16.4057 188.717 16.139C188.717 15.8724 188.764 15.6257 188.857 15.399C188.964 15.159 189.104 14.959 189.277 14.799C189.451 14.6257 189.651 14.4924 189.877 14.399C190.104 14.2924 190.351 14.239 190.617 14.239C190.871 14.239 191.111 14.2924 191.337 14.399C191.577 14.4924 191.784 14.6257 191.957 14.799C192.131 14.959 192.264 15.159 192.357 15.399C192.464 15.6257 192.517 15.8724 192.517 16.139ZM201.603 28.999H199.083V19.079H201.603V20.559H201.963C202.19 19.999 202.557 19.5657 203.063 19.259C203.57 18.9524 204.163 18.799 204.843 18.799C205.323 18.799 205.77 18.879 206.183 19.039C206.61 19.1857 206.983 19.419 207.303 19.739C207.623 20.059 207.87 20.4657 208.043 20.959C208.23 21.4524 208.323 22.039 208.323 22.719V28.999H205.803V23.359C205.803 22.6524 205.63 22.099 205.283 21.699C204.95 21.2857 204.463 21.079 203.823 21.079C203.077 21.079 202.517 21.3324 202.143 21.839C201.783 22.3324 201.603 22.999 201.603 23.839V28.999ZM218.75 27.559C218.483 28.1857 218.11 28.6324 217.63 28.899C217.15 29.1524 216.59 29.279 215.95 29.279C215.35 29.279 214.783 29.1657 214.25 28.939C213.73 28.7124 213.27 28.379 212.87 27.939C212.47 27.499 212.15 26.9657 211.91 26.339C211.683 25.7124 211.57 24.999 211.57 24.199V23.879C211.57 23.0924 211.683 22.3857 211.91 21.759C212.136 21.1324 212.443 20.599 212.83 20.159C213.216 19.719 213.663 19.3857 214.17 19.159C214.69 18.919 215.243 18.799 215.83 18.799C216.536 18.799 217.103 18.919 217.53 19.159C217.97 19.399 218.316 19.7724 218.57 20.279H218.93V19.079H221.45V25.999C221.45 26.399 221.63 26.599 221.99 26.599H222.37V28.999H220.65C220.196 28.999 219.823 28.8657 219.53 28.599C219.25 28.3324 219.11 27.9857 219.11 27.559H218.75ZM216.51 26.879C217.243 26.879 217.83 26.639 218.27 26.159C218.71 25.6657 218.93 24.999 218.93 24.159V23.919C218.93 23.079 218.71 22.419 218.27 21.939C217.83 21.4457 217.243 21.199 216.51 21.199C215.776 21.199 215.19 21.4457 214.75 21.939C214.31 22.419 214.09 23.079 214.09 23.919V24.159C214.09 24.999 214.31 25.6657 214.75 26.159C215.19 26.639 215.776 26.879 216.51 26.879ZM225.296 19.079H228.236V14.999H230.756V19.079H234.336V21.479H230.756V25.999C230.756 26.399 230.936 26.599 231.296 26.599H233.976V28.999H229.776C229.322 28.999 228.949 28.8524 228.656 28.559C228.376 28.2657 228.236 27.8924 228.236 27.439V21.479H225.296V19.079ZM248.542 24.159C248.542 24.9857 248.402 25.719 248.122 26.359C247.842 26.9857 247.462 27.519 246.982 27.959C246.502 28.3857 245.948 28.7124 245.322 28.939C244.708 29.1657 244.062 29.279 243.382 29.279C242.702 29.279 242.048 29.1657 241.422 28.939C240.808 28.7124 240.262 28.3857 239.782 27.959C239.302 27.519 238.922 26.9857 238.642 26.359C238.362 25.719 238.222 24.9857 238.222 24.159V23.919C238.222 23.1057 238.362 22.3857 238.642 21.759C238.922 21.119 239.302 20.579 239.782 20.139C240.262 19.699 240.808 19.3657 241.422 19.139C242.048 18.9124 242.702 18.799 243.382 18.799C244.062 18.799 244.708 18.9124 245.322 19.139C245.948 19.3657 246.502 19.699 246.982 20.139C247.462 20.579 247.842 21.119 248.122 21.759C248.402 22.3857 248.542 23.1057 248.542 23.919V24.159ZM243.382 26.879C243.742 26.879 244.082 26.819 244.402 26.699C244.722 26.579 245.002 26.4057 245.242 26.179C245.482 25.9524 245.668 25.679 245.802 25.359C245.948 25.0257 246.022 24.6524 246.022 24.239V23.839C246.022 23.4257 245.948 23.059 245.802 22.739C245.668 22.4057 245.482 22.1257 245.242 21.899C245.002 21.6724 244.722 21.499 244.402 21.379C244.082 21.259 243.742 21.199 243.382 21.199C243.022 21.199 242.682 21.259 242.362 21.379C242.042 21.499 241.762 21.6724 241.522 21.899C241.282 22.1257 241.088 22.4057 240.942 22.739C240.808 23.059 240.742 23.4257 240.742 23.839V24.239C240.742 24.6524 240.808 25.0257 240.942 25.359C241.088 25.679 241.282 25.9524 241.522 26.179C241.762 26.4057 242.042 26.579 242.362 26.699C242.682 26.819 243.022 26.879 243.382 26.879ZM251.588 19.079H255.788V20.519H256.148C256.334 19.9724 256.648 19.5524 257.088 19.259C257.541 18.9524 258.081 18.799 258.708 18.799C259.694 18.799 260.488 19.1124 261.088 19.739C261.688 20.3524 261.988 21.2924 261.988 22.559V22.999L259.388 23.239V22.959C259.388 22.4124 259.248 21.979 258.968 21.659C258.688 21.3257 258.268 21.159 257.708 21.159C257.148 21.159 256.708 21.3524 256.388 21.739C256.068 22.1257 255.908 22.679 255.908 23.399V26.599H258.188V28.999H251.348V26.599H253.388V21.479H251.588V19.079ZM268.474 21.879C268.474 22.199 268.641 22.4324 268.974 22.579C269.307 22.7124 269.914 22.8257 270.794 22.919C271.807 23.0257 272.634 23.3324 273.274 23.839C273.914 24.3324 274.234 25.0257 274.234 25.919V26.039C274.234 27.0257 273.874 27.8124 273.154 28.399C272.434 28.9857 271.421 29.279 270.114 29.279C269.341 29.279 268.681 29.179 268.134 28.979C267.587 28.779 267.134 28.5324 266.774 28.239C266.414 27.9324 266.134 27.599 265.934 27.239C265.747 26.8657 265.621 26.5057 265.554 26.159L267.874 25.399C267.981 25.8257 268.201 26.199 268.534 26.519C268.881 26.839 269.407 26.999 270.114 26.999C270.741 26.999 271.167 26.9057 271.394 26.719C271.634 26.519 271.754 26.3057 271.754 26.079C271.754 25.9457 271.721 25.8257 271.654 25.719C271.601 25.599 271.494 25.4924 271.334 25.399C271.174 25.2924 270.954 25.2057 270.674 25.139C270.407 25.0724 270.067 25.019 269.654 24.979C268.534 24.8857 267.641 24.599 266.974 24.119C266.321 23.6257 265.994 22.9057 265.994 21.959V21.839C265.994 21.3457 266.101 20.9124 266.314 20.539C266.527 20.1657 266.807 19.8524 267.154 19.599C267.501 19.3324 267.901 19.1324 268.354 18.999C268.807 18.8657 269.274 18.799 269.754 18.799C270.381 18.799 270.921 18.879 271.374 19.039C271.841 19.1857 272.234 19.3857 272.554 19.639C272.874 19.879 273.134 20.1524 273.334 20.459C273.534 20.7524 273.687 21.039 273.794 21.319L271.514 22.239C271.394 21.879 271.187 21.599 270.894 21.399C270.601 21.1857 270.221 21.079 269.754 21.079C269.327 21.079 269.007 21.159 268.794 21.319C268.581 21.4657 268.474 21.6524 268.474 21.879Z" fill="white" fill-opacity="0.95"/>
<path d="M35.8548 86.22C35.8548 87.528 35.5008 88.53 34.7928 89.226C34.0848 89.91 33.1128 90.252 31.8768 90.252C31.2408 90.252 30.6648 90.168 30.1488 90C29.6328 89.82 29.1888 89.562 28.8168 89.226C28.4448 88.878 28.1568 88.458 27.9528 87.966C27.7488 87.462 27.6468 86.88 27.6468 86.22V85.032H30.0228V86.22C30.0228 86.784 30.1788 87.228 30.4908 87.552C30.8028 87.864 31.2408 88.02 31.8048 88.02C32.3328 88.02 32.7408 87.864 33.0288 87.552C33.3288 87.24 33.4788 86.796 33.4788 86.22V79.632H32.1828V77.4H36.9348V79.632H35.8548V86.22ZM45.6523 88.704C45.4123 89.268 45.0763 89.67 44.6443 89.91C44.2123 90.138 43.7083 90.252 43.1323 90.252C42.5923 90.252 42.0823 90.15 41.6023 89.946C41.1343 89.742 40.7203 89.442 40.3603 89.046C40.0003 88.65 39.7123 88.17 39.4963 87.606C39.2923 87.042 39.1903 86.4 39.1903 85.68V85.392C39.1903 84.684 39.2923 84.048 39.4963 83.484C39.7003 82.92 39.9763 82.44 40.3243 82.044C40.6723 81.648 41.0743 81.348 41.5303 81.144C41.9983 80.928 42.4963 80.82 43.0243 80.82C43.6603 80.82 44.1703 80.928 44.5543 81.144C44.9503 81.36 45.2623 81.696 45.4903 82.152H45.8143V81.072H48.0823V87.3C48.0823 87.66 48.2443 87.84 48.5683 87.84H48.9103V90H47.3623C46.9543 90 46.6183 89.88 46.3543 89.64C46.1023 89.4 45.9763 89.088 45.9763 88.704H45.6523ZM43.6363 88.092C44.2963 88.092 44.8243 87.876 45.2203 87.444C45.6163 87 45.8143 86.4 45.8143 85.644V85.428C45.8143 84.672 45.6163 84.078 45.2203 83.646C44.8243 83.202 44.2963 82.98 43.6363 82.98C42.9763 82.98 42.4483 83.202 42.0523 83.646C41.6563 84.078 41.4583 84.672 41.4583 85.428V85.644C41.4583 86.4 41.6563 87 42.0523 87.444C42.4483 87.876 42.9763 88.092 43.6363 88.092ZM51.9578 87.84H54.9818V83.232H52.1738V81.072H57.2498V87.84H59.8418V90H51.9578V87.84ZM57.8078 78.426C57.8078 78.666 57.7598 78.894 57.6638 79.11C57.5798 79.314 57.4598 79.494 57.3038 79.65C57.1478 79.794 56.9618 79.914 56.7458 80.01C56.5418 80.094 56.3258 80.136 56.0978 80.136C55.8578 80.136 55.6358 80.094 55.4318 80.01C55.2278 79.914 55.0478 79.794 54.8918 79.65C54.7358 79.494 54.6098 79.314 54.5138 79.11C54.4298 78.894 54.3878 78.666 54.3878 78.426C54.3878 78.186 54.4298 77.964 54.5138 77.76C54.6098 77.544 54.7358 77.364 54.8918 77.22C55.0478 77.064 55.2278 76.944 55.4318 76.86C55.6358 76.764 55.8578 76.716 56.0978 76.716C56.3258 76.716 56.5418 76.764 56.7458 76.86C56.9618 76.944 57.1478 77.064 57.3038 77.22C57.4598 77.364 57.5798 77.544 57.6638 77.76C57.7598 77.964 57.8078 78.186 57.8078 78.426ZM66.5613 83.592C66.5613 83.88 66.7113 84.09 67.0113 84.222C67.3113 84.342 67.8573 84.444 68.6493 84.528C69.5613 84.624 70.3053 84.9 70.8813 85.356C71.4573 85.8 71.7453 86.424 71.7453 87.228V87.336C71.7453 88.224 71.4213 88.932 70.7733 89.46C70.1253 89.988 69.2133 90.252 68.0373 90.252C67.3413 90.252 66.7473 90.162 66.2553 89.982C65.7633 89.802 65.3553 89.58 65.0313 89.316C64.7073 89.04 64.4553 88.74 64.2753 88.416C64.1073 88.08 63.9933 87.756 63.9333 87.444L66.0213 86.76C66.1173 87.144 66.3153 87.48 66.6153 87.768C66.9273 88.056 67.4013 88.2 68.0373 88.2C68.6013 88.2 68.9853 88.116 69.1893 87.948C69.4053 87.768 69.5133 87.576 69.5133 87.372C69.5133 87.252 69.4833 87.144 69.4233 87.048C69.3753 86.94 69.2793 86.844 69.1353 86.76C68.9913 86.664 68.7933 86.586 68.5413 86.526C68.3013 86.466 67.9953 86.418 67.6233 86.382C66.6153 86.298 65.8113 86.04 65.2113 85.608C64.6233 85.164 64.3293 84.516 64.3293 83.664V83.556C64.3293 83.112 64.4253 82.722 64.6173 82.386C64.8093 82.05 65.0613 81.768 65.3733 81.54C65.6853 81.3 66.0453 81.12 66.4533 81C66.8613 80.88 67.2813 80.82 67.7133 80.82C68.2773 80.82 68.7633 80.892 69.1713 81.036C69.5913 81.168 69.9453 81.348 70.2333 81.576C70.5213 81.792 70.7553 82.038 70.9353 82.314C71.1153 82.578 71.2533 82.836 71.3493 83.088L69.2973 83.916C69.1893 83.592 69.0033 83.34 68.7393 83.16C68.4753 82.968 68.1333 82.872 67.7133 82.872C67.3293 82.872 67.0413 82.944 66.8493 83.088C66.6573 83.22 66.5613 83.388 66.5613 83.592ZM81.6868 81.072H83.9548V90H81.6868V88.704H81.3628C80.9668 89.736 80.1148 90.252 78.8068 90.252C78.3628 90.252 77.9488 90.18 77.5648 90.036C77.1808 89.892 76.8448 89.67 76.5568 89.37C76.2688 89.07 76.0408 88.698 75.8728 88.254C75.7168 87.798 75.6388 87.264 75.6388 86.652V81.072H77.9068V86.184C77.9068 86.82 78.0568 87.318 78.3568 87.678C78.6568 88.026 79.1068 88.2 79.7068 88.2C80.3908 88.2 80.8888 87.984 81.2008 87.552C81.5248 87.108 81.6868 86.508 81.6868 85.752V81.072ZM87.1283 81.072H90.9082V82.368H91.2323C91.4003 81.876 91.6823 81.498 92.0783 81.234C92.4863 80.958 92.9723 80.82 93.5363 80.82C94.4243 80.82 95.1383 81.102 95.6783 81.666C96.2183 82.218 96.4883 83.064 96.4883 84.204V84.6L94.1483 84.816V84.564C94.1483 84.072 94.0223 83.682 93.7703 83.394C93.5183 83.094 93.1403 82.944 92.6363 82.944C92.1323 82.944 91.7363 83.118 91.4482 83.466C91.1603 83.814 91.0163 84.312 91.0163 84.96V87.84H93.0683V90H86.9123V87.84H88.7483V83.232H87.1283V81.072ZM105.53 81.072H107.798V92.196C107.798 92.604 107.666 92.94 107.402 93.204C107.15 93.468 106.82 93.6 106.412 93.6H101.102V91.44H105.044C105.368 91.44 105.53 91.26 105.53 90.9V88.704H105.206C104.81 89.736 103.958 90.252 102.65 90.252C102.206 90.252 101.792 90.18 101.408 90.036C101.024 89.892 100.688 89.67 100.4 89.37C100.112 89.07 99.8837 88.698 99.7157 88.254C99.5597 87.798 99.4817 87.264 99.4817 86.652V81.072H101.75V86.184C101.75 86.82 101.9 87.318 102.2 87.678C102.5 88.026 102.95 88.2 103.55 88.2C104.234 88.2 104.732 87.984 105.044 87.552C105.368 87.108 105.53 86.508 105.53 85.752V81.072ZM117.181 88.704C116.941 89.268 116.605 89.67 116.173 89.91C115.741 90.138 115.237 90.252 114.661 90.252C114.121 90.252 113.611 90.15 113.131 89.946C112.663 89.742 112.249 89.442 111.889 89.046C111.529 88.65 111.241 88.17 111.025 87.606C110.821 87.042 110.719 86.4 110.719 85.68V85.392C110.719 84.684 110.821 84.048 111.025 83.484C111.229 82.92 111.505 82.44 111.853 82.044C112.201 81.648 112.603 81.348 113.059 81.144C113.527 80.928 114.025 80.82 114.553 80.82C115.189 80.82 115.699 80.928 116.083 81.144C116.479 81.36 116.791 81.696 117.019 82.152H117.343V81.072H119.611V87.3C119.611 87.66 119.773 87.84 120.097 87.84H120.439V90H118.891C118.483 90 118.147 89.88 117.883 89.64C117.631 89.4 117.505 89.088 117.505 88.704H117.181ZM115.165 88.092C115.825 88.092 116.353 87.876 116.749 87.444C117.145 87 117.343 86.4 117.343 85.644V85.428C117.343 84.672 117.145 84.078 116.749 83.646C116.353 83.202 115.825 82.98 115.165 82.98C114.505 82.98 113.977 83.202 113.581 83.646C113.185 84.078 112.987 84.672 112.987 85.428V85.644C112.987 86.4 113.185 87 113.581 87.444C113.977 87.876 114.505 88.092 115.165 88.092ZM141.51 81.252C141.51 80.748 141.312 80.31 140.916 79.938C140.532 79.566 139.986 79.38 139.278 79.38C138.678 79.38 138.204 79.506 137.856 79.758C137.508 79.998 137.334 80.328 137.334 80.748C137.334 80.964 137.376 81.162 137.46 81.342C137.544 81.51 137.688 81.666 137.892 81.81C138.108 81.942 138.384 82.062 138.72 82.17C139.068 82.278 139.506 82.38 140.034 82.476C141.354 82.716 142.362 83.118 143.058 83.682C143.754 84.246 144.102 85.08 144.102 86.184V86.4C144.102 86.988 143.994 87.522 143.778 88.002C143.574 88.47 143.274 88.872 142.878 89.208C142.482 89.544 142.002 89.802 141.438 89.982C140.874 90.162 140.238 90.252 139.53 90.252C138.702 90.252 137.97 90.138 137.334 89.91C136.71 89.67 136.188 89.346 135.768 88.938C135.348 88.518 135.03 88.032 134.814 87.48C134.598 86.916 134.49 86.304 134.49 85.644V85.104H136.866V85.536C136.866 86.292 137.082 86.898 137.514 87.354C137.958 87.798 138.642 88.02 139.566 88.02C140.286 88.02 140.82 87.864 141.168 87.552C141.516 87.24 141.69 86.868 141.69 86.436C141.69 86.232 141.654 86.04 141.582 85.86C141.51 85.668 141.384 85.5 141.204 85.356C141.024 85.2 140.778 85.062 140.466 84.942C140.154 84.822 139.758 84.72 139.278 84.636C138.642 84.528 138.06 84.39 137.532 84.222C137.004 84.042 136.542 83.808 136.146 83.52C135.762 83.232 135.462 82.872 135.246 82.44C135.03 82.008 134.922 81.48 134.922 80.856V80.748C134.922 80.232 135.024 79.758 135.228 79.326C135.444 78.882 135.738 78.498 136.11 78.174C136.494 77.85 136.95 77.598 137.478 77.418C138.018 77.238 138.618 77.148 139.278 77.148C140.022 77.148 140.682 77.256 141.258 77.472C141.834 77.676 142.314 77.958 142.698 78.318C143.094 78.678 143.388 79.092 143.58 79.56C143.784 80.028 143.886 80.52 143.886 81.036V81.684H141.51V81.252ZM161.303 86.436C161.303 86.856 161.453 87.222 161.753 87.534C162.065 87.834 162.545 87.984 163.193 87.984C163.841 87.984 164.351 87.798 164.723 87.426C165.107 87.042 165.299 86.544 165.299 85.932V84.312H164.975C164.807 84.732 164.531 85.074 164.147 85.338C163.763 85.59 163.217 85.716 162.509 85.716C161.969 85.716 161.465 85.62 160.997 85.428C160.541 85.224 160.139 84.942 159.791 84.582C159.455 84.222 159.191 83.79 158.999 83.286C158.807 82.782 158.711 82.224 158.711 81.612V81.396C158.711 80.796 158.819 80.238 159.035 79.722C159.251 79.194 159.551 78.744 159.935 78.372C160.331 77.988 160.805 77.688 161.357 77.472C161.921 77.256 162.545 77.148 163.229 77.148C163.853 77.148 164.435 77.25 164.975 77.454C165.527 77.658 166.001 77.946 166.397 78.318C166.793 78.678 167.105 79.116 167.333 79.632C167.561 80.136 167.675 80.694 167.675 81.306V85.896C167.675 86.58 167.561 87.192 167.333 87.732C167.105 88.272 166.793 88.728 166.397 89.1C166.001 89.472 165.533 89.76 164.993 89.964C164.465 90.156 163.889 90.252 163.265 90.252C162.653 90.252 162.083 90.168 161.555 90C161.027 89.82 160.565 89.568 160.169 89.244C159.785 88.908 159.479 88.506 159.251 88.038C159.035 87.57 158.927 87.036 158.927 86.436H161.303ZM163.193 79.416C162.581 79.416 162.077 79.602 161.681 79.974C161.285 80.334 161.087 80.82 161.087 81.432C161.087 82.044 161.285 82.536 161.681 82.908C162.077 83.268 162.581 83.448 163.193 83.448C163.805 83.448 164.309 83.268 164.705 82.908C165.101 82.536 165.299 82.044 165.299 81.432C165.299 80.82 165.101 80.334 164.705 79.974C164.309 79.602 163.805 79.416 163.193 79.416ZM175.115 90.252C174.407 90.252 173.771 90.168 173.207 90C172.643 89.82 172.163 89.574 171.767 89.262C171.371 88.95 171.065 88.584 170.849 88.164C170.633 87.732 170.525 87.252 170.525 86.724V86.616C170.525 86.172 170.585 85.782 170.705 85.446C170.837 85.11 171.005 84.822 171.209 84.582C171.425 84.342 171.665 84.144 171.929 83.988C172.193 83.832 172.469 83.712 172.757 83.628V83.304C172.505 83.208 172.259 83.082 172.019 82.926C171.791 82.77 171.587 82.584 171.407 82.368C171.239 82.14 171.101 81.876 170.993 81.576C170.897 81.264 170.849 80.916 170.849 80.532V80.424C170.849 79.908 170.969 79.446 171.209 79.038C171.449 78.63 171.767 78.288 172.163 78.012C172.559 77.724 173.009 77.508 173.513 77.364C174.029 77.22 174.563 77.148 175.115 77.148C175.667 77.148 176.195 77.22 176.699 77.364C177.215 77.508 177.671 77.724 178.067 78.012C178.463 78.288 178.781 78.63 179.021 79.038C179.261 79.446 179.381 79.908 179.381 80.424V80.532C179.381 80.916 179.327 81.264 179.219 81.576C179.123 81.876 178.985 82.14 178.805 82.368C178.637 82.584 178.433 82.77 178.193 82.926C177.965 83.082 177.725 83.208 177.473 83.304V83.628C177.761 83.712 178.037 83.832 178.301 83.988C178.565 84.144 178.799 84.342 179.003 84.582C179.219 84.822 179.387 85.11 179.507 85.446C179.639 85.782 179.705 86.172 179.705 86.616V86.724C179.705 87.252 179.597 87.732 179.381 88.164C179.165 88.596 178.859 88.968 178.463 89.28C178.067 89.58 177.581 89.82 177.005 90C176.441 90.168 175.811 90.252 175.115 90.252ZM175.115 87.984C175.823 87.984 176.369 87.828 176.753 87.516C177.137 87.192 177.329 86.784 177.329 86.292C177.329 85.8 177.137 85.398 176.753 85.086C176.369 84.762 175.823 84.6 175.115 84.6C174.407 84.6 173.861 84.762 173.477 85.086C173.093 85.398 172.901 85.8 172.901 86.292C172.901 86.784 173.093 87.192 173.477 87.516C173.861 87.828 174.407 87.984 175.115 87.984ZM175.115 79.416C174.575 79.416 174.125 79.554 173.765 79.83C173.405 80.106 173.225 80.454 173.225 80.874C173.225 81.294 173.405 81.642 173.765 81.918C174.125 82.194 174.575 82.332 175.115 82.332C175.655 82.332 176.105 82.194 176.465 81.918C176.825 81.642 177.005 81.294 177.005 80.874C177.005 80.454 176.825 80.106 176.465 79.83C176.105 79.554 175.655 79.416 175.115 79.416ZM185.704 77.4H190.204V85.356H192.04V87.624H190.204V90H187.828V87.624H182.212V84.348L185.704 77.4ZM184.264 85.032V85.356H187.828V78.588H187.504L184.264 85.032ZM197.446 83.7C197.446 83.292 197.596 82.938 197.896 82.638C198.196 82.338 198.55 82.188 198.958 82.188C199.366 82.188 199.72 82.338 200.02 82.638C200.32 82.938 200.47 83.292 200.47 83.7C200.47 84.108 200.32 84.462 200.02 84.762C199.72 85.062 199.366 85.212 198.958 85.212C198.55 85.212 198.196 85.062 197.896 84.762C197.596 84.462 197.446 84.108 197.446 83.7ZM194.314 82.296C194.314 80.664 194.722 79.398 195.538 78.498C196.366 77.598 197.506 77.148 198.958 77.148C200.41 77.148 201.544 77.598 202.36 78.498C203.188 79.398 203.602 80.664 203.602 82.296V85.104C203.602 86.784 203.188 88.062 202.36 88.938C201.544 89.814 200.41 90.252 198.958 90.252C197.506 90.252 196.366 89.814 195.538 88.938C194.722 88.062 194.314 86.784 194.314 85.104V82.296ZM198.958 88.092C199.39 88.092 199.75 88.026 200.038 87.894C200.326 87.75 200.56 87.552 200.74 87.3C200.92 87.048 201.046 86.748 201.118 86.4C201.19 86.052 201.226 85.668 201.226 85.248V82.152C201.226 81.756 201.184 81.384 201.1 81.036C201.016 80.688 200.884 80.388 200.704 80.136C200.524 79.884 200.29 79.686 200.002 79.542C199.714 79.386 199.366 79.308 198.958 79.308C198.55 79.308 198.202 79.386 197.914 79.542C197.626 79.686 197.392 79.884 197.212 80.136C197.032 80.388 196.9 80.688 196.816 81.036C196.732 81.384 196.69 81.756 196.69 82.152V85.248C196.69 85.668 196.726 86.052 196.798 86.4C196.87 86.748 196.996 87.048 197.176 87.3C197.356 87.552 197.59 87.75 197.878 87.894C198.166 88.026 198.526 88.092 198.958 88.092ZM212.769 80.964C212.769 80.544 212.613 80.184 212.301 79.884C212.001 79.572 211.527 79.416 210.879 79.416C210.231 79.416 209.715 79.608 209.331 79.992C208.959 80.364 208.773 80.856 208.773 81.468V83.088H209.097C209.301 82.668 209.631 82.332 210.087 82.08C210.543 81.816 211.059 81.684 211.635 81.684C212.151 81.684 212.637 81.78 213.093 81.972C213.549 82.152 213.945 82.416 214.281 82.764C214.617 83.1 214.881 83.514 215.073 84.006C215.265 84.498 215.361 85.056 215.361 85.68V85.896C215.361 86.532 215.253 87.12 215.037 87.66C214.833 88.188 214.533 88.644 214.137 89.028C213.753 89.412 213.285 89.712 212.733 89.928C212.181 90.144 211.563 90.252 210.879 90.252C210.255 90.252 209.667 90.15 209.115 89.946C208.575 89.742 208.101 89.46 207.693 89.1C207.297 88.728 206.979 88.29 206.739 87.786C206.511 87.27 206.397 86.706 206.397 86.094V81.504C206.397 80.844 206.517 80.244 206.757 79.704C206.997 79.164 207.321 78.708 207.729 78.336C208.137 77.952 208.605 77.658 209.133 77.454C209.673 77.25 210.243 77.148 210.843 77.148C211.443 77.148 212.001 77.238 212.517 77.418C213.045 77.586 213.501 77.838 213.885 78.174C214.281 78.498 214.587 78.9 214.803 79.38C215.031 79.848 215.145 80.376 215.145 80.964H212.769ZM210.879 87.984C211.491 87.984 211.995 87.804 212.391 87.444C212.787 87.072 212.985 86.58 212.985 85.968C212.985 85.356 212.787 84.87 212.391 84.51C211.995 84.138 211.491 83.952 210.879 83.952C210.267 83.952 209.763 84.138 209.367 84.51C208.971 84.87 208.773 85.356 208.773 85.968C208.773 86.58 208.971 87.072 209.367 87.444C209.763 87.804 210.267 87.984 210.879 87.984ZM222.801 90.252C222.093 90.252 221.457 90.168 220.893 90C220.329 89.82 219.849 89.574 219.453 89.262C219.057 88.95 218.751 88.584 218.535 88.164C218.319 87.732 218.211 87.252 218.211 86.724V86.616C218.211 86.172 218.271 85.782 218.391 85.446C218.523 85.11 218.691 84.822 218.895 84.582C219.111 84.342 219.351 84.144 219.615 83.988C219.879 83.832 220.155 83.712 220.443 83.628V83.304C220.191 83.208 219.945 83.082 219.705 82.926C219.477 82.77 219.273 82.584 219.093 82.368C218.925 82.14 218.787 81.876 218.679 81.576C218.583 81.264 218.535 80.916 218.535 80.532V80.424C218.535 79.908 218.655 79.446 218.895 79.038C219.135 78.63 219.453 78.288 219.849 78.012C220.245 77.724 220.695 77.508 221.199 77.364C221.715 77.22 222.249 77.148 222.801 77.148C223.353 77.148 223.881 77.22 224.385 77.364C224.901 77.508 225.357 77.724 225.753 78.012C226.149 78.288 226.467 78.63 226.707 79.038C226.947 79.446 227.067 79.908 227.067 80.424V80.532C227.067 80.916 227.013 81.264 226.905 81.576C226.809 81.876 226.671 82.14 226.491 82.368C226.323 82.584 226.119 82.77 225.879 82.926C225.651 83.082 225.411 83.208 225.159 83.304V83.628C225.447 83.712 225.723 83.832 225.987 83.988C226.251 84.144 226.485 84.342 226.689 84.582C226.905 84.822 227.073 85.11 227.193 85.446C227.325 85.782 227.391 86.172 227.391 86.616V86.724C227.391 87.252 227.283 87.732 227.067 88.164C226.851 88.596 226.545 88.968 226.149 89.28C225.753 89.58 225.267 89.82 224.691 90C224.127 90.168 223.497 90.252 222.801 90.252ZM222.801 87.984C223.509 87.984 224.055 87.828 224.439 87.516C224.823 87.192 225.015 86.784 225.015 86.292C225.015 85.8 224.823 85.398 224.439 85.086C224.055 84.762 223.509 84.6 222.801 84.6C222.093 84.6 221.547 84.762 221.163 85.086C220.779 85.398 220.587 85.8 220.587 86.292C220.587 86.784 220.779 87.192 221.163 87.516C221.547 87.828 222.093 87.984 222.801 87.984ZM222.801 79.416C222.261 79.416 221.811 79.554 221.451 79.83C221.091 80.106 220.911 80.454 220.911 80.874C220.911 81.294 221.091 81.642 221.451 81.918C221.811 82.194 222.261 82.332 222.801 82.332C223.341 82.332 223.791 82.194 224.151 81.918C224.511 81.642 224.691 81.294 224.691 80.874C224.691 80.454 224.511 80.106 224.151 79.83C223.791 79.554 223.341 79.416 222.801 79.416ZM233.21 83.7C233.21 83.292 233.36 82.938 233.66 82.638C233.96 82.338 234.314 82.188 234.722 82.188C235.13 82.188 235.484 82.338 235.784 82.638C236.084 82.938 236.234 83.292 236.234 83.7C236.234 84.108 236.084 84.462 235.784 84.762C235.484 85.062 235.13 85.212 234.722 85.212C234.314 85.212 233.96 85.062 233.66 84.762C233.36 84.462 233.21 84.108 233.21 83.7ZM230.078 82.296C230.078 80.664 230.486 79.398 231.302 78.498C232.13 77.598 233.27 77.148 234.722 77.148C236.174 77.148 237.308 77.598 238.124 78.498C238.952 79.398 239.366 80.664 239.366 82.296V85.104C239.366 86.784 238.952 88.062 238.124 88.938C237.308 89.814 236.174 90.252 234.722 90.252C233.27 90.252 232.13 89.814 231.302 88.938C230.486 88.062 230.078 86.784 230.078 85.104V82.296ZM234.722 88.092C235.154 88.092 235.514 88.026 235.802 87.894C236.09 87.75 236.324 87.552 236.504 87.3C236.684 87.048 236.81 86.748 236.882 86.4C236.954 86.052 236.99 85.668 236.99 85.248V82.152C236.99 81.756 236.948 81.384 236.864 81.036C236.78 80.688 236.648 80.388 236.468 80.136C236.288 79.884 236.054 79.686 235.766 79.542C235.478 79.386 235.13 79.308 234.722 79.308C234.314 79.308 233.966 79.386 233.678 79.542C233.39 79.686 233.156 79.884 232.976 80.136C232.796 80.388 232.664 80.688 232.58 81.036C232.496 81.384 232.454 81.756 232.454 82.152V85.248C232.454 85.668 232.49 86.052 232.562 86.4C232.634 86.748 232.76 87.048 232.94 87.3C233.12 87.552 233.354 87.75 233.642 87.894C233.93 88.026 234.29 88.092 234.722 88.092ZM245.312 77.4H249.812V85.356H251.648V87.624H249.812V90H247.436V87.624H241.82V84.348L245.312 77.4ZM243.872 85.032V85.356H247.436V78.588H247.112L243.872 85.032ZM256.675 86.436C256.675 86.856 256.825 87.222 257.125 87.534C257.437 87.834 257.917 87.984 258.565 87.984C259.213 87.984 259.723 87.798 260.095 87.426C260.479 87.042 260.671 86.544 260.671 85.932V84.312H260.347C260.179 84.732 259.903 85.074 259.519 85.338C259.135 85.59 258.589 85.716 257.881 85.716C257.341 85.716 256.837 85.62 256.369 85.428C255.913 85.224 255.511 84.942 255.163 84.582C254.827 84.222 254.563 83.79 254.371 83.286C254.179 82.782 254.083 82.224 254.083 81.612V81.396C254.083 80.796 254.191 80.238 254.407 79.722C254.623 79.194 254.923 78.744 255.307 78.372C255.703 77.988 256.177 77.688 256.729 77.472C257.293 77.256 257.917 77.148 258.601 77.148C259.225 77.148 259.807 77.25 260.347 77.454C260.899 77.658 261.373 77.946 261.769 78.318C262.165 78.678 262.477 79.116 262.705 79.632C262.933 80.136 263.047 80.694 263.047 81.306V85.896C263.047 86.58 262.933 87.192 262.705 87.732C262.477 88.272 262.165 88.728 261.769 89.1C261.373 89.472 260.905 89.76 260.365 89.964C259.837 90.156 259.261 90.252 258.637 90.252C258.025 90.252 257.455 90.168 256.927 90C256.399 89.82 255.937 89.568 255.541 89.244C255.157 88.908 254.851 88.506 254.623 88.038C254.407 87.57 254.299 87.036 254.299 86.436H256.675ZM258.565 79.416C257.953 79.416 257.449 79.602 257.053 79.974C256.657 80.334 256.459 80.82 256.459 81.432C256.459 82.044 256.657 82.536 257.053 82.908C257.449 83.268 257.953 83.448 258.565 83.448C259.177 83.448 259.681 83.268 260.077 82.908C260.473 82.536 260.671 82.044 260.671 81.432C260.671 80.82 260.473 80.334 260.077 79.974C259.681 79.602 259.177 79.416 258.565 79.416ZM272.377 80.964C272.377 80.544 272.221 80.184 271.909 79.884C271.609 79.572 271.135 79.416 270.487 79.416C269.839 79.416 269.323 79.608 268.939 79.992C268.567 80.364 268.381 80.856 268.381 81.468V83.088H268.705C268.909 82.668 269.239 82.332 269.695 82.08C270.151 81.816 270.667 81.684 271.243 81.684C271.759 81.684 272.245 81.78 272.701 81.972C273.157 82.152 273.553 82.416 273.889 82.764C274.225 83.1 274.489 83.514 274.681 84.006C274.873 84.498 274.969 85.056 274.969 85.68V85.896C274.969 86.532 274.861 87.12 274.645 87.66C274.441 88.188 274.141 88.644 273.745 89.028C273.361 89.412 272.893 89.712 272.341 89.928C271.789 90.144 271.171 90.252 270.487 90.252C269.863 90.252 269.275 90.15 268.723 89.946C268.183 89.742 267.709 89.46 267.301 89.1C266.905 88.728 266.587 88.29 266.347 87.786C266.119 87.27 266.005 86.706 266.005 86.094V81.504C266.005 80.844 266.125 80.244 266.365 79.704C266.605 79.164 266.929 78.708 267.337 78.336C267.745 77.952 268.213 77.658 268.741 77.454C269.281 77.25 269.851 77.148 270.451 77.148C271.051 77.148 271.609 77.238 272.125 77.418C272.653 77.586 273.109 77.838 273.493 78.174C273.889 78.498 274.195 78.9 274.411 79.38C274.639 79.848 274.753 80.376 274.753 80.964H272.377ZM270.487 87.984C271.099 87.984 271.603 87.804 271.999 87.444C272.395 87.072 272.593 86.58 272.593 85.968C272.593 85.356 272.395 84.87 271.999 84.51C271.603 84.138 271.099 83.952 270.487 83.952C269.875 83.952 269.371 84.138 268.975 84.51C268.579 84.87 268.381 85.356 268.381 85.968C268.381 86.58 268.579 87.072 268.975 87.444C269.371 87.804 269.875 87.984 270.487 87.984Z" fill="white"/>
<path d="M1.53387 125.732H2.72187V117.668H1.53387V115.4H7.05987C7.65987 115.4 8.18787 115.484 8.64387 115.652C9.11187 115.82 9.50187 116.048 9.81387 116.336C10.1379 116.624 10.3779 116.972 10.5339 117.38C10.7019 117.776 10.7859 118.208 10.7859 118.676V118.892C10.7859 119.612 10.5819 120.188 10.1739 120.62C9.77787 121.052 9.27387 121.352 8.66187 121.52V121.844C9.27387 122.012 9.77787 122.318 10.1739 122.762C10.5819 123.194 10.7859 123.77 10.7859 124.49V124.706C10.7859 125.174 10.7019 125.612 10.5339 126.02C10.3779 126.416 10.1379 126.764 9.81387 127.064C9.50187 127.352 9.11187 127.58 8.64387 127.748C8.18787 127.916 7.65987 128 7.05987 128H1.53387V125.732ZM5.09787 125.732H6.82587C7.32987 125.732 7.73787 125.624 8.04987 125.408C8.36187 125.192 8.51787 124.832 8.51787 124.328V124.22C8.51787 123.716 8.36187 123.356 8.04987 123.14C7.73787 122.924 7.32987 122.816 6.82587 122.816H5.09787V125.732ZM5.09787 120.548H6.82587C7.32987 120.548 7.73787 120.446 8.04987 120.242C8.36187 120.026 8.51787 119.666 8.51787 119.162V119.054C8.51787 118.55 8.36187 118.196 8.04987 117.992C7.73787 117.776 7.32987 117.668 6.82587 117.668H5.09787V120.548ZM19.8094 126.704C19.5694 127.268 19.2334 127.67 18.8014 127.91C18.3694 128.138 17.8654 128.252 17.2894 128.252C16.7494 128.252 16.2394 128.15 15.7594 127.946C15.2914 127.742 14.8774 127.442 14.5174 127.046C14.1574 126.65 13.8694 126.17 13.6534 125.606C13.4494 125.042 13.3474 124.4 13.3474 123.68V123.392C13.3474 122.684 13.4494 122.048 13.6534 121.484C13.8574 120.92 14.1334 120.44 14.4814 120.044C14.8294 119.648 15.2314 119.348 15.6874 119.144C16.1554 118.928 16.6534 118.82 17.1814 118.82C17.8174 118.82 18.3274 118.928 18.7114 119.144C19.1074 119.36 19.4194 119.696 19.6474 120.152H19.9714V119.072H22.2394V125.3C22.2394 125.66 22.4014 125.84 22.7254 125.84H23.0674V128H21.5194C21.1114 128 20.7754 127.88 20.5114 127.64C20.2594 127.4 20.1334 127.088 20.1334 126.704H19.8094ZM17.7934 126.092C18.4534 126.092 18.9814 125.876 19.3774 125.444C19.7734 125 19.9714 124.4 19.9714 123.644V123.428C19.9714 122.672 19.7734 122.078 19.3774 121.646C18.9814 121.202 18.4534 120.98 17.7934 120.98C17.1334 120.98 16.6054 121.202 16.2094 121.646C15.8134 122.078 15.6154 122.672 15.6154 123.428V123.644C15.6154 124.4 15.8134 125 16.2094 125.444C16.6054 125.876 17.1334 126.092 17.7934 126.092ZM32.3608 126.704H32.0368C31.9408 126.908 31.8208 127.106 31.6768 127.298C31.5448 127.478 31.3648 127.64 31.1368 127.784C30.9208 127.928 30.6568 128.042 30.3448 128.126C30.0448 128.21 29.6788 128.252 29.2468 128.252C28.6948 128.252 28.1788 128.156 27.6988 127.964C27.2308 127.76 26.8168 127.466 26.4568 127.082C26.1088 126.686 25.8328 126.206 25.6288 125.642C25.4368 125.078 25.3408 124.43 25.3408 123.698V123.374C25.3408 122.654 25.4428 122.012 25.6468 121.448C25.8628 120.884 26.1508 120.41 26.5108 120.026C26.8828 119.63 27.3088 119.33 27.7888 119.126C28.2808 118.922 28.7968 118.82 29.3368 118.82C30.0568 118.82 30.6268 118.958 31.0468 119.234C31.4668 119.498 31.7968 119.876 32.0368 120.368H32.3608V115.4H34.6288V128H32.3608V126.704ZM29.9848 126.092C30.6928 126.092 31.2628 125.87 31.6948 125.426C32.1388 124.97 32.3608 124.376 32.3608 123.644V123.428C32.3608 122.696 32.1388 122.108 31.6948 121.664C31.2628 121.208 30.6928 120.98 29.9848 120.98C29.2768 120.98 28.7008 121.202 28.2568 121.646C27.8248 122.078 27.6088 122.672 27.6088 123.428V123.644C27.6088 124.4 27.8248 125 28.2568 125.444C28.7008 125.876 29.2768 126.092 29.9848 126.092ZM40.1783 128H37.9103V115.4H40.1783V120.512H40.5023C40.7303 119.972 41.0663 119.558 41.5103 119.27C41.9543 118.97 42.5003 118.82 43.1483 118.82C43.5923 118.82 44.0003 118.892 44.3723 119.036C44.7443 119.18 45.0683 119.396 45.3443 119.684C45.6203 119.972 45.8363 120.344 45.9923 120.8C46.1483 121.244 46.2263 121.772 46.2263 122.384V128H43.9583V122.924C43.9583 122.288 43.8023 121.79 43.4903 121.43C43.1903 121.058 42.7523 120.872 42.1763 120.872C41.5043 120.872 41.0003 121.1 40.6643 121.556C40.3403 122 40.1783 122.6 40.1783 123.356V128ZM49.3638 119.072H53.1438V120.368H53.4678C53.6358 119.876 53.9178 119.498 54.3138 119.234C54.7218 118.958 55.2078 118.82 55.7718 118.82C56.6598 118.82 57.3738 119.102 57.9138 119.666C58.4538 120.218 58.7238 121.064 58.7238 122.204V122.6L56.3838 122.816V122.564C56.3838 122.072 56.2578 121.682 56.0058 121.394C55.7538 121.094 55.3758 120.944 54.8718 120.944C54.3678 120.944 53.9718 121.118 53.6838 121.466C53.3958 121.814 53.2518 122.312 53.2518 122.96V125.84H55.3038V128H49.1478V125.84H50.9838V121.232H49.3638V119.072ZM61.8793 125.84H64.9033V121.232H62.0953V119.072H67.1713V125.84H69.7633V128H61.8793V125.84ZM67.7293 116.426C67.7293 116.666 67.6813 116.894 67.5853 117.11C67.5013 117.314 67.3813 117.494 67.2253 117.65C67.0693 117.794 66.8833 117.914 66.6673 118.01C66.4633 118.094 66.2473 118.136 66.0193 118.136C65.7793 118.136 65.5573 118.094 65.3533 118.01C65.1493 117.914 64.9693 117.794 64.8133 117.65C64.6573 117.494 64.5313 117.314 64.4353 117.11C64.3513 116.894 64.3093 116.666 64.3093 116.426C64.3093 116.186 64.3513 115.964 64.4353 115.76C64.5313 115.544 64.6573 115.364 64.8133 115.22C64.9693 115.064 65.1493 114.944 65.3533 114.86C65.5573 114.764 65.7793 114.716 66.0193 114.716C66.2473 114.716 66.4633 114.764 66.6673 114.86C66.8833 114.944 67.0693 115.064 67.2253 115.22C67.3813 115.364 67.5013 115.544 67.5853 115.76C67.6813 115.964 67.7293 116.186 67.7293 116.426ZM75.9068 128H73.6388V119.072H75.9068V120.404H76.2308C76.4348 119.9 76.7648 119.51 77.2208 119.234C77.6768 118.958 78.2108 118.82 78.8228 118.82C79.2548 118.82 79.6568 118.892 80.0288 119.036C80.4128 119.168 80.7488 119.378 81.0368 119.666C81.3248 119.954 81.5468 120.32 81.7028 120.764C81.8708 121.208 81.9548 121.736 81.9548 122.348V128H79.6868V122.924C79.6868 122.288 79.5308 121.79 79.2188 121.43C78.9188 121.058 78.4808 120.872 77.9048 120.872C77.2328 120.872 76.7288 121.1 76.3928 121.556C76.0688 122 75.9068 122.6 75.9068 123.356V128ZM91.3383 126.704C91.0983 127.268 90.7623 127.67 90.3303 127.91C89.8983 128.138 89.3943 128.252 88.8183 128.252C88.2783 128.252 87.7683 128.15 87.2883 127.946C86.8203 127.742 86.4063 127.442 86.0463 127.046C85.6863 126.65 85.3983 126.17 85.1823 125.606C84.9783 125.042 84.8763 124.4 84.8763 123.68V123.392C84.8763 122.684 84.9783 122.048 85.1823 121.484C85.3863 120.92 85.6623 120.44 86.0103 120.044C86.3583 119.648 86.7603 119.348 87.2163 119.144C87.6843 118.928 88.1823 118.82 88.7103 118.82C89.3463 118.82 89.8563 118.928 90.2403 119.144C90.6363 119.36 90.9483 119.696 91.1763 120.152H91.5003V119.072H93.7683V125.3C93.7683 125.66 93.9303 125.84 94.2543 125.84H94.5963V128H93.0483C92.6403 128 92.3043 127.88 92.0403 127.64C91.7883 127.4 91.6623 127.088 91.6623 126.704H91.3383ZM89.3223 126.092C89.9823 126.092 90.5103 125.876 90.9063 125.444C91.3023 125 91.5003 124.4 91.5003 123.644V123.428C91.5003 122.672 91.3023 122.078 90.9063 121.646C90.5103 121.202 89.9823 120.98 89.3223 120.98C88.6623 120.98 88.1343 121.202 87.7383 121.646C87.3423 122.078 87.1443 122.672 87.1443 123.428V123.644C87.1443 124.4 87.3423 125 87.7383 125.444C88.1343 125.876 88.6623 126.092 89.3223 126.092ZM97.2297 119.072H99.8757V115.4H102.144V119.072H105.366V121.232H102.144V125.3C102.144 125.66 102.306 125.84 102.63 125.84H105.042V128H101.262C100.854 128 100.518 127.868 100.254 127.604C100.002 127.34 99.8757 127.004 99.8757 126.596V121.232H97.2297V119.072ZM111.707 128H109.439V115.4H111.707V120.512H112.031C112.259 119.972 112.595 119.558 113.039 119.27C113.483 118.97 114.029 118.82 114.677 118.82C115.121 118.82 115.529 118.892 115.901 119.036C116.273 119.18 116.597 119.396 116.873 119.684C117.149 119.972 117.365 120.344 117.521 120.8C117.677 121.244 117.755 121.772 117.755 122.384V128H115.487V122.924C115.487 122.288 115.331 121.79 115.019 121.43C114.719 121.058 114.281 120.872 113.705 120.872C113.033 120.872 112.529 121.1 112.193 121.556C111.869 122 111.707 122.6 111.707 123.356V128ZM141.616 128H139.24V124.22C139.24 123.932 139.162 123.698 139.006 123.518C138.862 123.338 138.616 123.248 138.268 123.248H135.532V128H133.156V115.4H137.98C138.628 115.4 139.198 115.49 139.69 115.67C140.182 115.85 140.59 116.102 140.914 116.426C141.25 116.738 141.502 117.104 141.67 117.524C141.85 117.944 141.94 118.394 141.94 118.874V119.306C141.94 119.822 141.802 120.308 141.526 120.764C141.25 121.208 140.824 121.55 140.248 121.79V122.114C140.668 122.162 140.998 122.324 141.238 122.6C141.49 122.876 141.616 123.224 141.616 123.644V128ZM135.532 120.98H137.8C138.376 120.98 138.814 120.848 139.114 120.584C139.414 120.308 139.564 119.924 139.564 119.432V119.216C139.564 118.796 139.414 118.436 139.114 118.136C138.814 117.824 138.376 117.668 137.8 117.668H135.532V120.98ZM161.193 128.252C160.485 128.252 159.849 128.168 159.285 128C158.721 127.82 158.241 127.574 157.845 127.262C157.449 126.95 157.143 126.584 156.927 126.164C156.711 125.732 156.603 125.252 156.603 124.724V124.616C156.603 124.172 156.663 123.782 156.783 123.446C156.915 123.11 157.083 122.822 157.287 122.582C157.503 122.342 157.743 122.144 158.007 121.988C158.271 121.832 158.547 121.712 158.835 121.628V121.304C158.583 121.208 158.337 121.082 158.097 120.926C157.869 120.77 157.665 120.584 157.485 120.368C157.317 120.14 157.179 119.876 157.071 119.576C156.975 119.264 156.927 118.916 156.927 118.532V118.424C156.927 117.908 157.047 117.446 157.287 117.038C157.527 116.63 157.845 116.288 158.241 116.012C158.637 115.724 159.087 115.508 159.591 115.364C160.107 115.22 160.641 115.148 161.193 115.148C161.745 115.148 162.273 115.22 162.777 115.364C163.293 115.508 163.749 115.724 164.145 116.012C164.541 116.288 164.859 116.63 165.099 117.038C165.339 117.446 165.459 117.908 165.459 118.424V118.532C165.459 118.916 165.405 119.264 165.297 119.576C165.201 119.876 165.063 120.14 164.883 120.368C164.715 120.584 164.511 120.77 164.271 120.926C164.043 121.082 163.803 121.208 163.551 121.304V121.628C163.839 121.712 164.115 121.832 164.379 121.988C164.643 122.144 164.877 122.342 165.081 122.582C165.297 122.822 165.465 123.11 165.585 123.446C165.717 123.782 165.783 124.172 165.783 124.616V124.724C165.783 125.252 165.675 125.732 165.459 126.164C165.243 126.596 164.937 126.968 164.541 127.28C164.145 127.58 163.659 127.82 163.083 128C162.519 128.168 161.889 128.252 161.193 128.252ZM161.193 125.984C161.901 125.984 162.447 125.828 162.831 125.516C163.215 125.192 163.407 124.784 163.407 124.292C163.407 123.8 163.215 123.398 162.831 123.086C162.447 122.762 161.901 122.6 161.193 122.6C160.485 122.6 159.939 122.762 159.555 123.086C159.171 123.398 158.979 123.8 158.979 124.292C158.979 124.784 159.171 125.192 159.555 125.516C159.939 125.828 160.485 125.984 161.193 125.984ZM161.193 117.416C160.653 117.416 160.203 117.554 159.843 117.83C159.483 118.106 159.303 118.454 159.303 118.874C159.303 119.294 159.483 119.642 159.843 119.918C160.203 120.194 160.653 120.332 161.193 120.332C161.733 120.332 162.183 120.194 162.543 119.918C162.903 119.642 163.083 119.294 163.083 118.874C163.083 118.454 162.903 118.106 162.543 117.83C162.183 117.554 161.733 117.416 161.193 117.416ZM177.633 125.732V128H168.777V125.516C168.777 124.856 168.873 124.292 169.065 123.824C169.269 123.356 169.551 122.96 169.911 122.636C170.283 122.312 170.727 122.048 171.243 121.844C171.759 121.628 172.341 121.448 172.989 121.304C173.469 121.196 173.859 121.076 174.159 120.944C174.471 120.8 174.717 120.644 174.897 120.476C175.077 120.296 175.197 120.104 175.257 119.9C175.329 119.684 175.365 119.444 175.365 119.18C175.365 118.676 175.179 118.256 174.807 117.92C174.447 117.584 173.943 117.416 173.295 117.416C172.611 117.416 172.065 117.626 171.657 118.046C171.249 118.454 171.045 119.024 171.045 119.756V120.548H168.669V119.54C168.669 118.952 168.771 118.394 168.975 117.866C169.191 117.326 169.491 116.858 169.875 116.462C170.271 116.054 170.751 115.736 171.315 115.508C171.879 115.268 172.515 115.148 173.223 115.148C173.979 115.148 174.639 115.262 175.203 115.49C175.767 115.706 176.235 115.994 176.607 116.354C176.991 116.714 177.273 117.134 177.453 117.614C177.645 118.082 177.741 118.568 177.741 119.072V119.288C177.741 120.344 177.441 121.22 176.841 121.916C176.253 122.612 175.287 123.116 173.943 123.428C173.379 123.56 172.911 123.698 172.539 123.842C172.179 123.974 171.897 124.124 171.693 124.292C171.489 124.46 171.345 124.646 171.261 124.85C171.189 125.042 171.153 125.264 171.153 125.516V125.732H177.633ZM183.704 115.4H188.204V123.356H190.04V125.624H188.204V128H185.828V125.624H180.212V122.348L183.704 115.4ZM182.264 123.032V123.356H185.828V116.588H185.504L182.264 123.032ZM196.958 128.252C196.25 128.252 195.614 128.168 195.05 128C194.486 127.82 194.006 127.574 193.61 127.262C193.214 126.95 192.908 126.584 192.692 126.164C192.476 125.732 192.368 125.252 192.368 124.724V124.616C192.368 124.172 192.428 123.782 192.548 123.446C192.68 123.11 192.848 122.822 193.052 122.582C193.268 122.342 193.508 122.144 193.772 121.988C194.036 121.832 194.312 121.712 194.6 121.628V121.304C194.348 121.208 194.102 121.082 193.862 120.926C193.634 120.77 193.43 120.584 193.25 120.368C193.082 120.14 192.944 119.876 192.836 119.576C192.74 119.264 192.692 118.916 192.692 118.532V118.424C192.692 117.908 192.812 117.446 193.052 117.038C193.292 116.63 193.61 116.288 194.006 116.012C194.402 115.724 194.852 115.508 195.356 115.364C195.872 115.22 196.406 115.148 196.958 115.148C197.51 115.148 198.038 115.22 198.542 115.364C199.058 115.508 199.514 115.724 199.91 116.012C200.306 116.288 200.624 116.63 200.864 117.038C201.104 117.446 201.224 117.908 201.224 118.424V118.532C201.224 118.916 201.17 119.264 201.062 119.576C200.966 119.876 200.828 120.14 200.648 120.368C200.48 120.584 200.276 120.77 200.036 120.926C199.808 121.082 199.568 121.208 199.316 121.304V121.628C199.604 121.712 199.88 121.832 200.144 121.988C200.408 122.144 200.642 122.342 200.846 122.582C201.062 122.822 201.23 123.11 201.35 123.446C201.482 123.782 201.548 124.172 201.548 124.616V124.724C201.548 125.252 201.44 125.732 201.224 126.164C201.008 126.596 200.702 126.968 200.306 127.28C199.91 127.58 199.424 127.82 198.848 128C198.284 128.168 197.654 128.252 196.958 128.252ZM196.958 125.984C197.666 125.984 198.212 125.828 198.596 125.516C198.98 125.192 199.172 124.784 199.172 124.292C199.172 123.8 198.98 123.398 198.596 123.086C198.212 122.762 197.666 122.6 196.958 122.6C196.25 122.6 195.704 122.762 195.32 123.086C194.936 123.398 194.744 123.8 194.744 124.292C194.744 124.784 194.936 125.192 195.32 125.516C195.704 125.828 196.25 125.984 196.958 125.984ZM196.958 117.416C196.418 117.416 195.968 117.554 195.608 117.83C195.248 118.106 195.068 118.454 195.068 118.874C195.068 119.294 195.248 119.642 195.608 119.918C195.968 120.194 196.418 120.332 196.958 120.332C197.498 120.332 197.948 120.194 198.308 119.918C198.668 119.642 198.848 119.294 198.848 118.874C198.848 118.454 198.668 118.106 198.308 117.83C197.948 117.554 197.498 117.416 196.958 117.416ZM213.397 125.732V128H204.541V125.516C204.541 124.856 204.637 124.292 204.829 123.824C205.033 123.356 205.315 122.96 205.675 122.636C206.047 122.312 206.491 122.048 207.007 121.844C207.523 121.628 208.105 121.448 208.753 121.304C209.233 121.196 209.623 121.076 209.923 120.944C210.235 120.8 210.481 120.644 210.661 120.476C210.841 120.296 210.961 120.104 211.021 119.9C211.093 119.684 211.129 119.444 211.129 119.18C211.129 118.676 210.943 118.256 210.571 117.92C210.211 117.584 209.707 117.416 209.059 117.416C208.375 117.416 207.829 117.626 207.421 118.046C207.013 118.454 206.809 119.024 206.809 119.756V120.548H204.433V119.54C204.433 118.952 204.535 118.394 204.739 117.866C204.955 117.326 205.255 116.858 205.639 116.462C206.035 116.054 206.515 115.736 207.079 115.508C207.643 115.268 208.279 115.148 208.987 115.148C209.743 115.148 210.403 115.262 210.967 115.49C211.531 115.706 211.999 115.994 212.371 116.354C212.755 116.714 213.037 117.134 213.217 117.614C213.409 118.082 213.505 118.568 213.505 119.072V119.288C213.505 120.344 213.205 121.22 212.605 121.916C212.017 122.612 211.051 123.116 209.707 123.428C209.143 123.56 208.675 123.698 208.303 123.842C207.943 123.974 207.661 124.124 207.457 124.292C207.253 124.46 207.109 124.646 207.025 124.85C206.953 125.042 206.917 125.264 206.917 125.516V125.732H213.397ZM222.691 118.964C222.691 118.544 222.535 118.184 222.223 117.884C221.923 117.572 221.449 117.416 220.801 117.416C220.153 117.416 219.637 117.608 219.253 117.992C218.881 118.364 218.695 118.856 218.695 119.468V121.088H219.019C219.223 120.668 219.553 120.332 220.009 120.08C220.465 119.816 220.981 119.684 221.557 119.684C222.073 119.684 222.559 119.78 223.015 119.972C223.471 120.152 223.867 120.416 224.203 120.764C224.539 121.1 224.803 121.514 224.995 122.006C225.187 122.498 225.283 123.056 225.283 123.68V123.896C225.283 124.532 225.175 125.12 224.959 125.66C224.755 126.188 224.455 126.644 224.059 127.028C223.675 127.412 223.207 127.712 222.655 127.928C222.103 128.144 221.485 128.252 220.801 128.252C220.177 128.252 219.589 128.15 219.037 127.946C218.497 127.742 218.023 127.46 217.615 127.1C217.219 126.728 216.901 126.29 216.661 125.786C216.433 125.27 216.319 124.706 216.319 124.094V119.504C216.319 118.844 216.439 118.244 216.679 117.704C216.919 117.164 217.243 116.708 217.651 116.336C218.059 115.952 218.527 115.658 219.055 115.454C219.595 115.25 220.165 115.148 220.765 115.148C221.365 115.148 221.923 115.238 222.439 115.418C222.967 115.586 223.423 115.838 223.807 116.174C224.203 116.498 224.509 116.9 224.725 117.38C224.953 117.848 225.067 118.376 225.067 118.964H222.691ZM220.801 125.984C221.413 125.984 221.917 125.804 222.313 125.444C222.709 125.072 222.907 124.58 222.907 123.968C222.907 123.356 222.709 122.87 222.313 122.51C221.917 122.138 221.413 121.952 220.801 121.952C220.189 121.952 219.685 122.138 219.289 122.51C218.893 122.87 218.695 123.356 218.695 123.968C218.695 124.58 218.893 125.072 219.289 125.444C219.685 125.804 220.189 125.984 220.801 125.984ZM231.966 125.732V116.588H231.642L230.454 120.908H228.186V120.692L229.698 115.4H234.342V125.732H237.474V128H228.402V125.732H231.966ZM242.754 124.436C242.754 124.856 242.904 125.222 243.204 125.534C243.516 125.834 243.996 125.984 244.644 125.984C245.292 125.984 245.802 125.798 246.174 125.426C246.558 125.042 246.75 124.544 246.75 123.932V122.312H246.426C246.258 122.732 245.982 123.074 245.598 123.338C245.214 123.59 244.668 123.716 243.96 123.716C243.42 123.716 242.916 123.62 242.448 123.428C241.992 123.224 241.59 122.942 241.242 122.582C240.906 122.222 240.642 121.79 240.45 121.286C240.258 120.782 240.162 120.224 240.162 119.612V119.396C240.162 118.796 240.27 118.238 240.486 117.722C240.702 117.194 241.002 116.744 241.386 116.372C241.782 115.988 242.256 115.688 242.808 115.472C243.372 115.256 243.996 115.148 244.68 115.148C245.304 115.148 245.886 115.25 246.426 115.454C246.978 115.658 247.452 115.946 247.848 116.318C248.244 116.678 248.556 117.116 248.784 117.632C249.012 118.136 249.126 118.694 249.126 119.306V123.896C249.126 124.58 249.012 125.192 248.784 125.732C248.556 126.272 248.244 126.728 247.848 127.1C247.452 127.472 246.984 127.76 246.444 127.964C245.916 128.156 245.34 128.252 244.716 128.252C244.104 128.252 243.534 128.168 243.006 128C242.478 127.82 242.016 127.568 241.62 127.244C241.236 126.908 240.93 126.506 240.702 126.038C240.486 125.57 240.378 125.036 240.378 124.436H242.754ZM244.644 117.416C244.032 117.416 243.528 117.602 243.132 117.974C242.736 118.334 242.538 118.82 242.538 119.432C242.538 120.044 242.736 120.536 243.132 120.908C243.528 121.268 244.032 121.448 244.644 121.448C245.256 121.448 245.76 121.268 246.156 120.908C246.552 120.536 246.75 120.044 246.75 119.432C246.75 118.82 246.552 118.334 246.156 117.974C245.76 117.602 245.256 117.416 244.644 117.416ZM254.675 124.436C254.675 124.856 254.825 125.222 255.125 125.534C255.437 125.834 255.917 125.984 256.565 125.984C257.213 125.984 257.723 125.798 258.095 125.426C258.479 125.042 258.671 124.544 258.671 123.932V122.312H258.347C258.179 122.732 257.903 123.074 257.519 123.338C257.135 123.59 256.589 123.716 255.881 123.716C255.341 123.716 254.837 123.62 254.369 123.428C253.913 123.224 253.511 122.942 253.163 122.582C252.827 122.222 252.563 121.79 252.371 121.286C252.179 120.782 252.083 120.224 252.083 119.612V119.396C252.083 118.796 252.191 118.238 252.407 117.722C252.623 117.194 252.923 116.744 253.307 116.372C253.703 115.988 254.177 115.688 254.729 115.472C255.293 115.256 255.917 115.148 256.601 115.148C257.225 115.148 257.807 115.25 258.347 115.454C258.899 115.658 259.373 115.946 259.769 116.318C260.165 116.678 260.477 117.116 260.705 117.632C260.933 118.136 261.047 118.694 261.047 119.306V123.896C261.047 124.58 260.933 125.192 260.705 125.732C260.477 126.272 260.165 126.728 259.769 127.1C259.373 127.472 258.905 127.76 258.365 127.964C257.837 128.156 257.261 128.252 256.637 128.252C256.025 128.252 255.455 128.168 254.927 128C254.399 127.82 253.937 127.568 253.541 127.244C253.157 126.908 252.851 126.506 252.623 126.038C252.407 125.57 252.299 125.036 252.299 124.436H254.675ZM256.565 117.416C255.953 117.416 255.449 117.602 255.053 117.974C254.657 118.334 254.459 118.82 254.459 119.432C254.459 120.044 254.657 120.536 255.053 120.908C255.449 121.268 255.953 121.448 256.565 121.448C257.177 121.448 257.681 121.268 258.077 120.908C258.473 120.536 258.671 120.044 258.671 119.432C258.671 118.82 258.473 118.334 258.077 117.974C257.681 117.602 257.177 117.416 256.565 117.416ZM273.005 125.732V128H264.149V125.516C264.149 124.856 264.245 124.292 264.437 123.824C264.641 123.356 264.923 122.96 265.283 122.636C265.655 122.312 266.099 122.048 266.615 121.844C267.131 121.628 267.713 121.448 268.361 121.304C268.841 121.196 269.231 121.076 269.531 120.944C269.843 120.8 270.089 120.644 270.269 120.476C270.449 120.296 270.569 120.104 270.629 119.9C270.701 119.684 270.737 119.444 270.737 119.18C270.737 118.676 270.551 118.256 270.179 117.92C269.819 117.584 269.315 117.416 268.667 117.416C267.983 117.416 267.437 117.626 267.029 118.046C266.621 118.454 266.417 119.024 266.417 119.756V120.548H264.041V119.54C264.041 118.952 264.143 118.394 264.347 117.866C264.563 117.326 264.863 116.858 265.247 116.462C265.643 116.054 266.123 115.736 266.687 115.508C267.251 115.268 267.887 115.148 268.595 115.148C269.351 115.148 270.011 115.262 270.575 115.49C271.139 115.706 271.607 115.994 271.979 116.354C272.363 116.714 272.645 117.134 272.825 117.614C273.017 118.082 273.113 118.568 273.113 119.072V119.288C273.113 120.344 272.813 121.22 272.213 121.916C271.625 122.612 270.659 123.116 269.315 123.428C268.751 123.56 268.283 123.698 267.911 123.842C267.551 123.974 267.269 124.124 267.065 124.292C266.861 124.46 266.717 124.646 266.633 124.85C266.561 125.042 266.525 125.264 266.525 125.516V125.732H273.005Z" fill="white"/>
<path d="M8.35587 163.3H4.07187L3.45987 166H0.975872L3.98187 153.4H8.44587L11.4519 166H8.96787L8.35587 163.3ZM4.57587 161.032H7.83387L6.37587 154.588H6.05187L4.57587 161.032ZM19.8094 164.704C19.5694 165.268 19.2334 165.67 18.8014 165.91C18.3694 166.138 17.8654 166.252 17.2894 166.252C16.7494 166.252 16.2394 166.15 15.7594 165.946C15.2914 165.742 14.8774 165.442 14.5174 165.046C14.1574 164.65 13.8694 164.17 13.6534 163.606C13.4494 163.042 13.3474 162.4 13.3474 161.68V161.392C13.3474 160.684 13.4494 160.048 13.6534 159.484C13.8574 158.92 14.1334 158.44 14.4814 158.044C14.8294 157.648 15.2314 157.348 15.6874 157.144C16.1554 156.928 16.6534 156.82 17.1814 156.82C17.8174 156.82 18.3274 156.928 18.7114 157.144C19.1074 157.36 19.4194 157.696 19.6474 158.152H19.9714V157.072H22.2394V163.3C22.2394 163.66 22.4014 163.84 22.7254 163.84H23.0674V166H21.5194C21.1114 166 20.7754 165.88 20.5114 165.64C20.2594 165.4 20.1334 165.088 20.1334 164.704H19.8094ZM17.7934 164.092C18.4534 164.092 18.9814 163.876 19.3774 163.444C19.7734 163 19.9714 162.4 19.9714 161.644V161.428C19.9714 160.672 19.7734 160.078 19.3774 159.646C18.9814 159.202 18.4534 158.98 17.7934 158.98C17.1334 158.98 16.6054 159.202 16.2094 159.646C15.8134 160.078 15.6154 160.672 15.6154 161.428V161.644C15.6154 162.4 15.8134 163 16.2094 163.444C16.6054 163.876 17.1334 164.092 17.7934 164.092ZM28.2208 166H25.9528V157.072H28.2208V158.404H28.5448C28.7488 157.9 29.0788 157.51 29.5348 157.234C29.9908 156.958 30.5248 156.82 31.1368 156.82C31.5688 156.82 31.9708 156.892 32.3428 157.036C32.7268 157.168 33.0628 157.378 33.3508 157.666C33.6388 157.954 33.8608 158.32 34.0168 158.764C34.1848 159.208 34.2688 159.736 34.2688 160.348V166H32.0008V160.924C32.0008 160.288 31.8448 159.79 31.5328 159.43C31.2328 159.058 30.7948 158.872 30.2188 158.872C29.5468 158.872 29.0428 159.1 28.7068 159.556C28.3828 160 28.2208 160.6 28.2208 161.356V166ZM43.6523 164.704C43.4123 165.268 43.0763 165.67 42.6443 165.91C42.2123 166.138 41.7083 166.252 41.1323 166.252C40.5923 166.252 40.0823 166.15 39.6023 165.946C39.1343 165.742 38.7203 165.442 38.3603 165.046C38.0003 164.65 37.7123 164.17 37.4963 163.606C37.2923 163.042 37.1903 162.4 37.1903 161.68V161.392C37.1903 160.684 37.2923 160.048 37.4963 159.484C37.7003 158.92 37.9763 158.44 38.3243 158.044C38.6723 157.648 39.0743 157.348 39.5303 157.144C39.9983 156.928 40.4963 156.82 41.0243 156.82C41.6603 156.82 42.1703 156.928 42.5543 157.144C42.9503 157.36 43.2623 157.696 43.4903 158.152H43.8143V157.072H46.0823V163.3C46.0823 163.66 46.2443 163.84 46.5683 163.84H46.9103V166H45.3623C44.9543 166 44.6183 165.88 44.3543 165.64C44.1023 165.4 43.9763 165.088 43.9763 164.704H43.6523ZM41.6363 164.092C42.2963 164.092 42.8243 163.876 43.2203 163.444C43.6163 163 43.8143 162.4 43.8143 161.644V161.428C43.8143 160.672 43.6163 160.078 43.2203 159.646C42.8243 159.202 42.2963 158.98 41.6363 158.98C40.9763 158.98 40.4483 159.202 40.0523 159.646C39.6563 160.078 39.4583 160.672 39.4583 161.428V161.644C39.4583 162.4 39.6563 163 40.0523 163.444C40.4483 163.876 40.9763 164.092 41.6363 164.092ZM52.0638 166H49.7958V157.072H52.0638V158.404H52.3878C52.5918 157.9 52.9218 157.51 53.3778 157.234C53.8338 156.958 54.3678 156.82 54.9798 156.82C55.4118 156.82 55.8138 156.892 56.1858 157.036C56.5698 157.168 56.9058 157.378 57.1938 157.666C57.4818 157.954 57.7038 158.32 57.8598 158.764C58.0278 159.208 58.1118 159.736 58.1118 160.348V166H55.8438V160.924C55.8438 160.288 55.6878 159.79 55.3758 159.43C55.0758 159.058 54.6378 158.872 54.0618 158.872C53.3898 158.872 52.8858 159.1 52.5498 159.556C52.2258 160 52.0638 160.6 52.0638 161.356V166ZM68.1253 164.704H67.8013C67.7053 164.908 67.5853 165.106 67.4413 165.298C67.3093 165.478 67.1293 165.64 66.9013 165.784C66.6853 165.928 66.4213 166.042 66.1093 166.126C65.8093 166.21 65.4433 166.252 65.0113 166.252C64.4593 166.252 63.9433 166.156 63.4633 165.964C62.9953 165.76 62.5813 165.466 62.2213 165.082C61.8733 164.686 61.5973 164.206 61.3933 163.642C61.2013 163.078 61.1053 162.43 61.1053 161.698V161.374C61.1053 160.654 61.2073 160.012 61.4113 159.448C61.6273 158.884 61.9153 158.41 62.2753 158.026C62.6473 157.63 63.0733 157.33 63.5533 157.126C64.0453 156.922 64.5613 156.82 65.1013 156.82C65.8213 156.82 66.3913 156.958 66.8113 157.234C67.2313 157.498 67.5613 157.876 67.8013 158.368H68.1253V153.4H70.3933V166H68.1253V164.704ZM65.7493 164.092C66.4573 164.092 67.0273 163.87 67.4593 163.426C67.9033 162.97 68.1253 162.376 68.1253 161.644V161.428C68.1253 160.696 67.9033 160.108 67.4593 159.664C67.0273 159.208 66.4573 158.98 65.7493 158.98C65.0413 158.98 64.4653 159.202 64.0213 159.646C63.5893 160.078 63.3733 160.672 63.3733 161.428V161.644C63.3733 162.4 63.5893 163 64.0213 163.444C64.4653 163.876 65.0413 164.092 65.7493 164.092ZM75.9428 166H73.6748V153.4H75.9428V158.512H76.2668C76.4948 157.972 76.8308 157.558 77.2748 157.27C77.7188 156.97 78.2648 156.82 78.9128 156.82C79.3568 156.82 79.7648 156.892 80.1368 157.036C80.5088 157.18 80.8328 157.396 81.1088 157.684C81.3848 157.972 81.6008 158.344 81.7568 158.8C81.9128 159.244 81.9908 159.772 81.9908 160.384V166H79.7228V160.924C79.7228 160.288 79.5668 159.79 79.2548 159.43C78.9548 159.058 78.5168 158.872 77.9408 158.872C77.2688 158.872 76.7648 159.1 76.4288 159.556C76.1048 160 75.9428 160.6 75.9428 161.356V166ZM85.7223 163.84H88.7463V159.232H85.9383V157.072H91.0143V163.84H93.6063V166H85.7223V163.84ZM91.5723 154.426C91.5723 154.666 91.5243 154.894 91.4283 155.11C91.3443 155.314 91.2243 155.494 91.0683 155.65C90.9123 155.794 90.7263 155.914 90.5103 156.01C90.3063 156.094 90.0903 156.136 89.8623 156.136C89.6223 156.136 89.4003 156.094 89.1963 156.01C88.9923 155.914 88.8123 155.794 88.6563 155.65C88.5003 155.494 88.3743 155.314 88.2783 155.11C88.1943 154.894 88.1523 154.666 88.1523 154.426C88.1523 154.186 88.1943 153.964 88.2783 153.76C88.3743 153.544 88.5003 153.364 88.6563 153.22C88.8123 153.064 88.9923 152.944 89.1963 152.86C89.4003 152.764 89.6223 152.716 89.8623 152.716C90.0903 152.716 90.3063 152.764 90.5103 152.86C90.7263 152.944 90.9123 153.064 91.0683 153.22C91.2243 153.364 91.3443 153.544 91.4283 153.76C91.5243 153.964 91.5723 154.186 91.5723 154.426ZM99.7497 166H97.4817V157.072H99.7497V158.404H100.074C100.278 157.9 100.608 157.51 101.064 157.234C101.52 156.958 102.054 156.82 102.666 156.82C103.098 156.82 103.5 156.892 103.872 157.036C104.256 157.168 104.592 157.378 104.88 157.666C105.168 157.954 105.39 158.32 105.546 158.764C105.714 159.208 105.798 159.736 105.798 160.348V166H103.53V160.924C103.53 160.288 103.374 159.79 103.062 159.43C102.762 159.058 102.324 158.872 101.748 158.872C101.076 158.872 100.572 159.1 100.236 159.556C99.9117 160 99.7497 160.6 99.7497 161.356V166ZM109.565 163.84H112.589V159.232H109.781V157.072H114.857V163.84H117.449V166H109.565V163.84ZM115.415 154.426C115.415 154.666 115.367 154.894 115.271 155.11C115.187 155.314 115.067 155.494 114.911 155.65C114.755 155.794 114.569 155.914 114.353 156.01C114.149 156.094 113.933 156.136 113.705 156.136C113.465 156.136 113.243 156.094 113.039 156.01C112.835 155.914 112.655 155.794 112.499 155.65C112.343 155.494 112.217 155.314 112.121 155.11C112.037 154.894 111.995 154.666 111.995 154.426C111.995 154.186 112.037 153.964 112.121 153.76C112.217 153.544 112.343 153.364 112.499 153.22C112.655 153.064 112.835 152.944 113.039 152.86C113.243 152.764 113.465 152.716 113.705 152.716C113.933 152.716 114.149 152.764 114.353 152.86C114.569 152.944 114.755 153.064 114.911 153.22C115.067 153.364 115.187 153.544 115.271 153.76C115.367 153.964 115.415 154.186 115.415 154.426ZM139.51 157.252C139.51 156.748 139.312 156.31 138.916 155.938C138.532 155.566 137.986 155.38 137.278 155.38C136.678 155.38 136.204 155.506 135.856 155.758C135.508 155.998 135.334 156.328 135.334 156.748C135.334 156.964 135.376 157.162 135.46 157.342C135.544 157.51 135.688 157.666 135.892 157.81C136.108 157.942 136.384 158.062 136.72 158.17C137.068 158.278 137.506 158.38 138.034 158.476C139.354 158.716 140.362 159.118 141.058 159.682C141.754 160.246 142.102 161.08 142.102 162.184V162.4C142.102 162.988 141.994 163.522 141.778 164.002C141.574 164.47 141.274 164.872 140.878 165.208C140.482 165.544 140.002 165.802 139.438 165.982C138.874 166.162 138.238 166.252 137.53 166.252C136.702 166.252 135.97 166.138 135.334 165.91C134.71 165.67 134.188 165.346 133.768 164.938C133.348 164.518 133.03 164.032 132.814 163.48C132.598 162.916 132.49 162.304 132.49 161.644V161.104H134.866V161.536C134.866 162.292 135.082 162.898 135.514 163.354C135.958 163.798 136.642 164.02 137.566 164.02C138.286 164.02 138.82 163.864 139.168 163.552C139.516 163.24 139.69 162.868 139.69 162.436C139.69 162.232 139.654 162.04 139.582 161.86C139.51 161.668 139.384 161.5 139.204 161.356C139.024 161.2 138.778 161.062 138.466 160.942C138.154 160.822 137.758 160.72 137.278 160.636C136.642 160.528 136.06 160.39 135.532 160.222C135.004 160.042 134.542 159.808 134.146 159.52C133.762 159.232 133.462 158.872 133.246 158.44C133.03 158.008 132.922 157.48 132.922 156.856V156.748C132.922 156.232 133.024 155.758 133.228 155.326C133.444 154.882 133.738 154.498 134.11 154.174C134.494 153.85 134.95 153.598 135.478 153.418C136.018 153.238 136.618 153.148 137.278 153.148C138.022 153.148 138.682 153.256 139.258 153.472C139.834 153.676 140.314 153.958 140.698 154.318C141.094 154.678 141.388 155.092 141.58 155.56C141.784 156.028 141.886 156.52 141.886 157.036V157.684H139.51V157.252ZM156.765 153.4H165.621V157.108L161.067 163.768C160.827 164.128 160.635 164.44 160.491 164.704C160.359 164.956 160.293 165.244 160.293 165.568V166H157.737V165.46C157.737 165.22 157.755 165.004 157.791 164.812C157.827 164.62 157.881 164.428 157.953 164.236C158.037 164.044 158.145 163.84 158.277 163.624C158.409 163.408 158.571 163.156 158.763 162.868L163.461 155.992V155.668H156.765V153.4ZM171.891 160.6V156.856L175.023 155.992V155.668H168.759V153.4H176.967V157.36L173.619 158.332V158.656H174.051C174.495 158.656 174.933 158.728 175.365 158.872C175.797 159.004 176.175 159.214 176.499 159.502C176.835 159.79 177.105 160.15 177.309 160.582C177.513 161.002 177.615 161.5 177.615 162.076V162.292C177.615 162.856 177.519 163.378 177.327 163.858C177.147 164.338 176.871 164.758 176.499 165.118C176.139 165.466 175.689 165.742 175.149 165.946C174.609 166.15 173.991 166.252 173.295 166.252C172.587 166.252 171.945 166.138 171.369 165.91C170.793 165.682 170.301 165.37 169.893 164.974C169.497 164.578 169.191 164.122 168.975 163.606C168.759 163.09 168.651 162.544 168.651 161.968V161.212H171.027V161.86C171.027 162.436 171.213 162.934 171.585 163.354C171.957 163.774 172.515 163.984 173.259 163.984C173.895 163.984 174.381 163.822 174.717 163.498C175.065 163.174 175.239 162.748 175.239 162.22C175.239 161.656 175.053 161.248 174.681 160.996C174.321 160.732 173.859 160.6 173.295 160.6H171.891ZM183.812 160.6V156.856L186.944 155.992V155.668H180.68V153.4H188.888V157.36L185.54 158.332V158.656H185.972C186.416 158.656 186.854 158.728 187.286 158.872C187.718 159.004 188.096 159.214 188.42 159.502C188.756 159.79 189.026 160.15 189.23 160.582C189.434 161.002 189.536 161.5 189.536 162.076V162.292C189.536 162.856 189.44 163.378 189.248 163.858C189.068 164.338 188.792 164.758 188.42 165.118C188.06 165.466 187.61 165.742 187.07 165.946C186.53 166.15 185.912 166.252 185.216 166.252C184.508 166.252 183.866 166.138 183.29 165.91C182.714 165.682 182.222 165.37 181.814 164.974C181.418 164.578 181.112 164.122 180.896 163.606C180.68 163.09 180.572 162.544 180.572 161.968V161.212H182.948V161.86C182.948 162.436 183.134 162.934 183.506 163.354C183.878 163.774 184.436 163.984 185.18 163.984C185.816 163.984 186.302 163.822 186.638 163.498C186.986 163.174 187.16 162.748 187.16 162.22C187.16 161.656 186.974 161.248 186.602 160.996C186.242 160.732 185.78 160.6 185.216 160.6H183.812ZM196.958 166.252C196.25 166.252 195.614 166.168 195.05 166C194.486 165.82 194.006 165.574 193.61 165.262C193.214 164.95 192.908 164.584 192.692 164.164C192.476 163.732 192.368 163.252 192.368 162.724V162.616C192.368 162.172 192.428 161.782 192.548 161.446C192.68 161.11 192.848 160.822 193.052 160.582C193.268 160.342 193.508 160.144 193.772 159.988C194.036 159.832 194.312 159.712 194.6 159.628V159.304C194.348 159.208 194.102 159.082 193.862 158.926C193.634 158.77 193.43 158.584 193.25 158.368C193.082 158.14 192.944 157.876 192.836 157.576C192.74 157.264 192.692 156.916 192.692 156.532V156.424C192.692 155.908 192.812 155.446 193.052 155.038C193.292 154.63 193.61 154.288 194.006 154.012C194.402 153.724 194.852 153.508 195.356 153.364C195.872 153.22 196.406 153.148 196.958 153.148C197.51 153.148 198.038 153.22 198.542 153.364C199.058 153.508 199.514 153.724 199.91 154.012C200.306 154.288 200.624 154.63 200.864 155.038C201.104 155.446 201.224 155.908 201.224 156.424V156.532C201.224 156.916 201.17 157.264 201.062 157.576C200.966 157.876 200.828 158.14 200.648 158.368C200.48 158.584 200.276 158.77 200.036 158.926C199.808 159.082 199.568 159.208 199.316 159.304V159.628C199.604 159.712 199.88 159.832 200.144 159.988C200.408 160.144 200.642 160.342 200.846 160.582C201.062 160.822 201.23 161.11 201.35 161.446C201.482 161.782 201.548 162.172 201.548 162.616V162.724C201.548 163.252 201.44 163.732 201.224 164.164C201.008 164.596 200.702 164.968 200.306 165.28C199.91 165.58 199.424 165.82 198.848 166C198.284 166.168 197.654 166.252 196.958 166.252ZM196.958 163.984C197.666 163.984 198.212 163.828 198.596 163.516C198.98 163.192 199.172 162.784 199.172 162.292C199.172 161.8 198.98 161.398 198.596 161.086C198.212 160.762 197.666 160.6 196.958 160.6C196.25 160.6 195.704 160.762 195.32 161.086C194.936 161.398 194.744 161.8 194.744 162.292C194.744 162.784 194.936 163.192 195.32 163.516C195.704 163.828 196.25 163.984 196.958 163.984ZM196.958 155.416C196.418 155.416 195.968 155.554 195.608 155.83C195.248 156.106 195.068 156.454 195.068 156.874C195.068 157.294 195.248 157.642 195.608 157.918C195.968 158.194 196.418 158.332 196.958 158.332C197.498 158.332 197.948 158.194 198.308 157.918C198.668 157.642 198.848 157.294 198.848 156.874C198.848 156.454 198.668 156.106 198.308 155.83C197.948 155.554 197.498 155.416 196.958 155.416ZM208.879 166.252C208.171 166.252 207.535 166.168 206.971 166C206.407 165.82 205.927 165.574 205.531 165.262C205.135 164.95 204.829 164.584 204.613 164.164C204.397 163.732 204.289 163.252 204.289 162.724V162.616C204.289 162.172 204.349 161.782 204.469 161.446C204.601 161.11 204.769 160.822 204.973 160.582C205.189 160.342 205.429 160.144 205.693 159.988C205.957 159.832 206.233 159.712 206.521 159.628V159.304C206.269 159.208 206.023 159.082 205.783 158.926C205.555 158.77 205.351 158.584 205.171 158.368C205.003 158.14 204.865 157.876 204.757 157.576C204.661 157.264 204.613 156.916 204.613 156.532V156.424C204.613 155.908 204.733 155.446 204.973 155.038C205.213 154.63 205.531 154.288 205.927 154.012C206.323 153.724 206.773 153.508 207.277 153.364C207.793 153.22 208.327 153.148 208.879 153.148C209.431 153.148 209.959 153.22 210.463 153.364C210.979 153.508 211.435 153.724 211.831 154.012C212.227 154.288 212.545 154.63 212.785 155.038C213.025 155.446 213.145 155.908 213.145 156.424V156.532C213.145 156.916 213.091 157.264 212.983 157.576C212.887 157.876 212.749 158.14 212.569 158.368C212.401 158.584 212.197 158.77 211.957 158.926C211.729 159.082 211.489 159.208 211.237 159.304V159.628C211.525 159.712 211.801 159.832 212.065 159.988C212.329 160.144 212.563 160.342 212.767 160.582C212.983 160.822 213.151 161.11 213.271 161.446C213.403 161.782 213.469 162.172 213.469 162.616V162.724C213.469 163.252 213.361 163.732 213.145 164.164C212.929 164.596 212.623 164.968 212.227 165.28C211.831 165.58 211.345 165.82 210.769 166C210.205 166.168 209.575 166.252 208.879 166.252ZM208.879 163.984C209.587 163.984 210.133 163.828 210.517 163.516C210.901 163.192 211.093 162.784 211.093 162.292C211.093 161.8 210.901 161.398 210.517 161.086C210.133 160.762 209.587 160.6 208.879 160.6C208.171 160.6 207.625 160.762 207.241 161.086C206.857 161.398 206.665 161.8 206.665 162.292C206.665 162.784 206.857 163.192 207.241 163.516C207.625 163.828 208.171 163.984 208.879 163.984ZM208.879 155.416C208.339 155.416 207.889 155.554 207.529 155.83C207.169 156.106 206.989 156.454 206.989 156.874C206.989 157.294 207.169 157.642 207.529 157.918C207.889 158.194 208.339 158.332 208.879 158.332C209.419 158.332 209.869 158.194 210.229 157.918C210.589 157.642 210.769 157.294 210.769 156.874C210.769 156.454 210.589 156.106 210.229 155.83C209.869 155.554 209.419 155.416 208.879 155.416ZM220.045 163.732V154.588H219.721L218.533 158.908H216.265V158.692L217.777 153.4H222.421V163.732H225.553V166H216.481V163.732H220.045ZM231.966 163.732V154.588H231.642L230.454 158.908H228.186V158.692L229.698 153.4H234.342V163.732H237.474V166H228.402V163.732H231.966ZM249.162 163.732V166H240.306V163.516C240.306 162.856 240.402 162.292 240.594 161.824C240.798 161.356 241.08 160.96 241.44 160.636C241.812 160.312 242.256 160.048 242.772 159.844C243.288 159.628 243.87 159.448 244.518 159.304C244.998 159.196 245.388 159.076 245.688 158.944C246 158.8 246.246 158.644 246.426 158.476C246.606 158.296 246.726 158.104 246.786 157.9C246.858 157.684 246.894 157.444 246.894 157.18C246.894 156.676 246.708 156.256 246.336 155.92C245.976 155.584 245.472 155.416 244.824 155.416C244.14 155.416 243.594 155.626 243.186 156.046C242.778 156.454 242.574 157.024 242.574 157.756V158.548H240.198V157.54C240.198 156.952 240.3 156.394 240.504 155.866C240.72 155.326 241.02 154.858 241.404 154.462C241.8 154.054 242.28 153.736 242.844 153.508C243.408 153.268 244.044 153.148 244.752 153.148C245.508 153.148 246.168 153.262 246.732 153.49C247.296 153.706 247.764 153.994 248.136 154.354C248.52 154.714 248.802 155.134 248.982 155.614C249.174 156.082 249.27 156.568 249.27 157.072V157.288C249.27 158.344 248.97 159.22 248.37 159.916C247.782 160.612 246.816 161.116 245.472 161.428C244.908 161.56 244.44 161.698 244.068 161.842C243.708 161.974 243.426 162.124 243.222 162.292C243.018 162.46 242.874 162.646 242.79 162.85C242.718 163.042 242.682 163.264 242.682 163.516V163.732H249.162ZM255.809 163.732V154.588H255.485L254.297 158.908H252.029V158.692L253.541 153.4H258.185V163.732H261.317V166H252.245V163.732H255.809ZM273.005 163.732V166H264.149V163.516C264.149 162.856 264.245 162.292 264.437 161.824C264.641 161.356 264.923 160.96 265.283 160.636C265.655 160.312 266.099 160.048 266.615 159.844C267.131 159.628 267.713 159.448 268.361 159.304C268.841 159.196 269.231 159.076 269.531 158.944C269.843 158.8 270.089 158.644 270.269 158.476C270.449 158.296 270.569 158.104 270.629 157.9C270.701 157.684 270.737 157.444 270.737 157.18C270.737 156.676 270.551 156.256 270.179 155.92C269.819 155.584 269.315 155.416 268.667 155.416C267.983 155.416 267.437 155.626 267.029 156.046C266.621 156.454 266.417 157.024 266.417 157.756V158.548H264.041V157.54C264.041 156.952 264.143 156.394 264.347 155.866C264.563 155.326 264.863 154.858 265.247 154.462C265.643 154.054 266.123 153.736 266.687 153.508C267.251 153.268 267.887 153.148 268.595 153.148C269.351 153.148 270.011 153.262 270.575 153.49C271.139 153.706 271.607 153.994 271.979 154.354C272.363 154.714 272.645 155.134 272.825 155.614C273.017 156.082 273.113 156.568 273.113 157.072V157.288C273.113 158.344 272.813 159.22 272.213 159.916C271.625 160.612 270.659 161.116 269.315 161.428C268.751 161.56 268.283 161.698 267.911 161.842C267.551 161.974 267.269 162.124 267.065 162.292C266.861 162.46 266.717 162.646 266.633 162.85C266.561 163.042 266.525 163.264 266.525 163.516V163.732H273.005Z" fill="white"/>
<rect x="121" y="42" width="153" height="3" fill="#D9D9D9"/>
</svg>
