<svg width="499" height="40" viewBox="0 0 499 40" fill="none" xmlns="http://www.w3.org/2000/svg">
<path d="M4.224 8.064H3.936L0.432 0.799999H1.936L4.8 6.912H4.992L7.856 0.799999H9.36L5.856 8.064H5.568V12H4.224V8.064ZM18.6769 8.128C18.6769 8.78933 18.5649 9.376 18.3409 9.888C18.1275 10.3893 17.8395 10.816 17.4769 11.168C17.1142 11.5093 16.6875 11.7707 16.1969 11.952C15.7169 12.1333 15.2155 12.224 14.6929 12.224C14.1595 12.224 13.6529 12.1333 13.1729 11.952C12.6929 11.7707 12.2715 11.5093 11.9089 11.168C11.5462 10.816 11.2529 10.3893 11.0289 9.888C10.8155 9.376 10.7089 8.78933 10.7089 8.128V7.936C10.7089 7.28533 10.8155 6.70933 11.0289 6.208C11.2529 5.696 11.5462 5.264 11.9089 4.912C12.2822 4.56 12.7089 4.29333 13.1889 4.112C13.6689 3.93067 14.1702 3.84 14.6929 3.84C15.2155 3.84 15.7169 3.93067 16.1969 4.112C16.6769 4.29333 17.0982 4.56 17.4609 4.912C17.8342 5.264 18.1275 5.696 18.3409 6.208C18.5649 6.70933 18.6769 7.28533 18.6769 7.936V8.128ZM14.6929 11.04C15.0769 11.04 15.4289 10.976 15.7489 10.848C16.0795 10.7093 16.3675 10.512 16.6129 10.256C16.8582 10 17.0502 9.696 17.1889 9.344C17.3275 8.98133 17.3969 8.576 17.3969 8.128V7.936C17.3969 7.50933 17.3275 7.12 17.1889 6.768C17.0502 6.40533 16.8582 6.096 16.6129 5.84C16.3675 5.584 16.0795 5.38667 15.7489 5.248C15.4182 5.09867 15.0662 5.024 14.6929 5.024C14.3195 5.024 13.9675 5.09867 13.6369 5.248C13.3062 5.38667 13.0182 5.584 12.7729 5.84C12.5275 6.096 12.3355 6.40533 12.1969 6.768C12.0582 7.12 11.9889 7.50933 11.9889 7.936V8.128C11.9889 8.576 12.0582 8.98133 12.1969 9.344C12.3355 9.696 12.5275 10 12.7729 10.256C13.0182 10.512 13.3009 10.7093 13.6209 10.848C13.9515 10.976 14.3089 11.04 14.6929 11.04ZM26.6498 4.064H27.8978V12H26.6498V10.56H26.4578C26.2018 11.072 25.8658 11.4773 25.4498 11.776C25.0338 12.0747 24.5058 12.224 23.8658 12.224C23.4284 12.224 23.0231 12.1493 22.6498 12C22.2871 11.8613 21.9724 11.648 21.7057 11.36C21.4498 11.072 21.2471 10.7147 21.0978 10.288C20.9591 9.86133 20.8898 9.36533 20.8898 8.8V4.064H22.1378V8.64C22.1378 9.472 22.3084 10.08 22.6498 10.464C22.9911 10.848 23.5138 11.04 24.2178 11.04C24.9751 11.04 25.5671 10.784 25.9938 10.272C26.4311 9.74933 26.6498 9.056 26.6498 8.192V4.064ZM30.3346 4.064H33.2146V5.12H33.4066C33.6093 4.68267 33.8973 4.36267 34.2706 4.16C34.644 3.94667 35.0706 3.84 35.5506 3.84C36.3506 3.84 36.996 4.10133 37.4866 4.624C37.9773 5.14667 38.2386 5.90933 38.2706 6.912L36.9586 7.104C36.9586 6.368 36.7826 5.84 36.4306 5.52C36.0786 5.18933 35.6466 5.024 35.1346 5.024C34.804 5.024 34.516 5.088 34.2706 5.216C34.036 5.344 33.8386 5.52 33.6786 5.744C33.5186 5.968 33.4013 6.22933 33.3266 6.528C33.252 6.82667 33.2146 7.14667 33.2146 7.488V10.848H35.2306V12H30.1426V10.848H31.9666V5.216H30.3346V4.064ZM50.4884 0.799999H57.2724V2.048H51.8324V5.76H57.1764V7.008H51.8324V10.752H57.3684V12H50.4884V0.799999ZM64.8933 12H62.4293L59.6613 4.064H61.1332L63.5653 11.424H63.7573L66.1893 4.064H67.6613L64.8933 12ZM70.8821 8.416C70.9141 9.20533 71.1595 9.84 71.6181 10.32C72.0768 10.8 72.7168 11.04 73.5381 11.04C73.9115 11.04 74.2368 10.9973 74.5141 10.912C74.7915 10.8267 75.0261 10.7093 75.2181 10.56C75.4208 10.4107 75.5808 10.24 75.6981 10.048C75.8261 9.84533 75.9275 9.632 76.0021 9.408L77.1861 9.728C76.9621 10.464 76.5461 11.0667 75.9381 11.536C75.3408 11.9947 74.5301 12.224 73.5061 12.224C72.9408 12.224 72.4181 12.128 71.9381 11.936C71.4688 11.7333 71.0635 11.4507 70.7221 11.088C70.3808 10.7253 70.1141 10.2933 69.9221 9.792C69.7301 9.29067 69.6341 8.736 69.6341 8.128V7.744C69.6341 7.18933 69.7301 6.672 69.9221 6.192C70.1248 5.712 70.4021 5.30133 70.7541 4.96C71.1061 4.608 71.5168 4.336 71.9861 4.144C72.4661 3.94133 72.9835 3.84 73.5381 3.84C74.1888 3.84 74.7488 3.96267 75.2181 4.208C75.6981 4.44267 76.0875 4.736 76.3861 5.088C76.6955 5.44 76.9195 5.824 77.0581 6.24C77.2075 6.656 77.2821 7.04 77.2821 7.392V8.416H70.8821ZM73.5381 5.024C73.1861 5.024 72.8555 5.08267 72.5461 5.2C72.2475 5.30667 71.9808 5.46133 71.7461 5.664C71.5221 5.86667 71.3355 6.10667 71.1861 6.384C71.0475 6.65067 70.9568 6.944 70.9141 7.264H76.0341C76.0128 6.92267 75.9275 6.61333 75.7781 6.336C75.6395 6.05867 75.4528 5.824 75.2181 5.632C74.9941 5.44 74.7328 5.29067 74.4341 5.184C74.1461 5.07733 73.8475 5.024 73.5381 5.024ZM81.015 12H79.767V4.064H81.015V5.408H81.207C81.6977 4.36267 82.551 3.84 83.767 3.84C84.6843 3.84 85.415 4.128 85.959 4.704C86.503 5.26933 86.775 6.12267 86.775 7.264V12H85.527V7.52C85.527 6.688 85.3403 6.064 84.967 5.648C84.5937 5.232 84.087 5.024 83.447 5.024C82.6897 5.024 82.0923 5.28533 81.655 5.808C81.2283 6.32 81.015 7.008 81.015 7.872V12ZM89.2919 4.064H91.7879V0.799999H93.0359V4.064H96.1079V5.216H93.0359V10.368C93.0359 10.688 93.1799 10.848 93.4679 10.848H95.7239V12H93.0199C92.6572 12 92.3585 11.8827 92.1239 11.648C91.8999 11.4133 91.7879 11.1147 91.7879 10.752V5.216H89.2919V4.064ZM110.406 12H109.158V0.799999H110.406V5.504H110.598C110.843 4.992 111.184 4.58667 111.622 4.288C112.07 3.98933 112.614 3.84 113.254 3.84C114.118 3.84 114.816 4.128 115.35 4.704C115.894 5.26933 116.166 6.12267 116.166 7.264V12H114.918V7.52C114.918 6.688 114.731 6.064 114.358 5.648C113.984 5.232 113.478 5.024 112.838 5.024C112.08 5.024 111.483 5.28533 111.046 5.808C110.619 6.32 110.406 7.008 110.406 7.872V12ZM124.715 10.656H124.523C124.267 11.1893 123.909 11.584 123.451 11.84C123.003 12.096 122.528 12.224 122.027 12.224C121.504 12.224 121.019 12.1387 120.571 11.968C120.123 11.7867 119.728 11.5253 119.387 11.184C119.056 10.832 118.795 10.4053 118.603 9.904C118.411 9.40267 118.315 8.82133 118.315 8.16V7.904C118.315 7.25333 118.411 6.67733 118.603 6.176C118.795 5.67467 119.056 5.25333 119.387 4.912C119.728 4.56 120.123 4.29333 120.571 4.112C121.019 3.93067 121.493 3.84 121.995 3.84C122.539 3.84 123.029 3.96267 123.467 4.208C123.915 4.44267 124.267 4.81067 124.523 5.312H124.715V4.064H125.963V10.368C125.963 10.688 126.107 10.848 126.395 10.848H126.795V12H125.947C125.584 12 125.285 11.8827 125.051 11.648C124.827 11.4133 124.715 11.1147 124.715 10.752V10.656ZM122.155 11.04C122.528 11.04 122.869 10.9707 123.179 10.832C123.499 10.6933 123.771 10.496 123.995 10.24C124.219 9.984 124.395 9.68 124.523 9.328C124.651 8.96533 124.715 8.56533 124.715 8.128V7.936C124.715 7.50933 124.651 7.12 124.523 6.768C124.395 6.40533 124.213 6.096 123.979 5.84C123.755 5.584 123.483 5.38667 123.163 5.248C122.853 5.09867 122.517 5.024 122.155 5.024C121.781 5.024 121.44 5.09333 121.131 5.232C120.821 5.37067 120.549 5.568 120.315 5.824C120.091 6.06933 119.915 6.37333 119.787 6.736C119.659 7.088 119.595 7.47733 119.595 7.904V8.16C119.595 9.06667 119.829 9.776 120.299 10.288C120.779 10.7893 121.397 11.04 122.155 11.04ZM130.399 6.112C130.399 6.496 130.559 6.78933 130.879 6.992C131.21 7.19467 131.807 7.328 132.671 7.392C133.599 7.46667 134.303 7.69067 134.783 8.064C135.274 8.42667 135.519 8.96 135.519 9.664V9.76C135.519 10.144 135.439 10.4907 135.279 10.8C135.13 11.0987 134.917 11.3547 134.639 11.568C134.373 11.7813 134.042 11.9413 133.647 12.048C133.263 12.1653 132.842 12.224 132.383 12.224C131.765 12.224 131.231 12.144 130.783 11.984C130.346 11.8133 129.978 11.5947 129.679 11.328C129.391 11.0507 129.173 10.7413 129.023 10.4C128.874 10.048 128.789 9.696 128.767 9.344L129.951 9.056C130.005 9.664 130.239 10.1547 130.655 10.528C131.071 10.8907 131.626 11.072 132.319 11.072C132.906 11.072 133.375 10.96 133.727 10.736C134.09 10.5013 134.271 10.176 134.271 9.76C134.271 9.312 134.095 8.992 133.743 8.8C133.391 8.608 132.821 8.48533 132.031 8.432C131.114 8.368 130.41 8.15467 129.919 7.792C129.429 7.42933 129.183 6.90133 129.183 6.208V6.112C129.183 5.73867 129.263 5.41333 129.423 5.136C129.583 4.848 129.797 4.608 130.063 4.416C130.341 4.224 130.65 4.08 130.991 3.984C131.333 3.888 131.69 3.84 132.063 3.84C132.586 3.84 133.045 3.91467 133.439 4.064C133.834 4.20267 134.165 4.38933 134.431 4.624C134.698 4.848 134.901 5.10933 135.039 5.408C135.189 5.70667 135.285 6.00533 135.327 6.304L134.143 6.592C134.09 6.08 133.882 5.68 133.519 5.392C133.167 5.104 132.703 4.96 132.127 4.96C131.903 4.96 131.685 4.98667 131.471 5.04C131.269 5.08267 131.087 5.152 130.927 5.248C130.767 5.344 130.639 5.46667 130.543 5.616C130.447 5.75467 130.399 5.92 130.399 6.112ZM154.105 10.656H153.913C153.657 11.1893 153.3 11.584 152.841 11.84C152.393 12.096 151.918 12.224 151.417 12.224C150.894 12.224 150.409 12.1387 149.961 11.968C149.513 11.7867 149.118 11.5253 148.777 11.184C148.446 10.832 148.185 10.4053 147.993 9.904C147.801 9.40267 147.705 8.82133 147.705 8.16V7.904C147.705 7.25333 147.801 6.67733 147.993 6.176C148.185 5.67467 148.446 5.25333 148.777 4.912C149.118 4.56 149.513 4.29333 149.961 4.112C150.409 3.93067 150.884 3.84 151.385 3.84C151.929 3.84 152.42 3.96267 152.857 4.208C153.305 4.44267 153.657 4.81067 153.913 5.312H154.105V4.064H155.353V10.368C155.353 10.688 155.497 10.848 155.785 10.848H156.185V12H155.337C154.974 12 154.676 11.8827 154.441 11.648C154.217 11.4133 154.105 11.1147 154.105 10.752V10.656ZM151.545 11.04C151.918 11.04 152.26 10.9707 152.569 10.832C152.889 10.6933 153.161 10.496 153.385 10.24C153.609 9.984 153.785 9.68 153.913 9.328C154.041 8.96533 154.105 8.56533 154.105 8.128V7.936C154.105 7.50933 154.041 7.12 153.913 6.768C153.785 6.40533 153.604 6.096 153.369 5.84C153.145 5.584 152.873 5.38667 152.553 5.248C152.244 5.09867 151.908 5.024 151.545 5.024C151.172 5.024 150.83 5.09333 150.521 5.232C150.212 5.37067 149.94 5.568 149.705 5.824C149.481 6.06933 149.305 6.37333 149.177 6.736C149.049 7.088 148.985 7.47733 148.985 7.904V8.16C148.985 9.06667 149.22 9.776 149.689 10.288C150.169 10.7893 150.788 11.04 151.545 11.04ZM159.39 12H158.142V4.064H159.39V5.408H159.582C160.073 4.36267 160.926 3.84 162.142 3.84C163.059 3.84 163.79 4.128 164.334 4.704C164.878 5.26933 165.15 6.12267 165.15 7.264V12H163.902V7.52C163.902 6.688 163.715 6.064 163.342 5.648C162.969 5.232 162.462 5.024 161.822 5.024C161.065 5.024 160.467 5.28533 160.03 5.808C159.603 6.32 159.39 7.008 159.39 7.872V12ZM185.224 8.128C185.224 8.78933 185.112 9.376 184.888 9.888C184.674 10.3893 184.386 10.816 184.024 11.168C183.661 11.5093 183.234 11.7707 182.744 11.952C182.264 12.1333 181.762 12.224 181.24 12.224C180.706 12.224 180.2 12.1333 179.72 11.952C179.24 11.7707 178.818 11.5093 178.456 11.168C178.093 10.816 177.8 10.3893 177.576 9.888C177.362 9.376 177.256 8.78933 177.256 8.128V7.936C177.256 7.28533 177.362 6.70933 177.576 6.208C177.8 5.696 178.093 5.264 178.456 4.912C178.829 4.56 179.256 4.29333 179.736 4.112C180.216 3.93067 180.717 3.84 181.24 3.84C181.762 3.84 182.264 3.93067 182.744 4.112C183.224 4.29333 183.645 4.56 184.008 4.912C184.381 5.264 184.674 5.696 184.888 6.208C185.112 6.70933 185.224 7.28533 185.224 7.936V8.128ZM181.24 11.04C181.624 11.04 181.976 10.976 182.296 10.848C182.626 10.7093 182.914 10.512 183.16 10.256C183.405 10 183.597 9.696 183.736 9.344C183.874 8.98133 183.944 8.576 183.944 8.128V7.936C183.944 7.50933 183.874 7.12 183.736 6.768C183.597 6.40533 183.405 6.096 183.16 5.84C182.914 5.584 182.626 5.38667 182.296 5.248C181.965 5.09867 181.613 5.024 181.24 5.024C180.866 5.024 180.514 5.09867 180.184 5.248C179.853 5.38667 179.565 5.584 179.32 5.84C179.074 6.096 178.882 6.40533 178.744 6.768C178.605 7.12 178.536 7.50933 178.536 7.936V8.128C178.536 8.576 178.605 8.98133 178.744 9.344C178.882 9.696 179.074 10 179.32 10.256C179.565 10.512 179.848 10.7093 180.168 10.848C180.498 10.976 180.856 11.04 181.24 11.04ZM188.493 15.2H187.245V4.064H188.493V5.312H188.685C188.962 4.832 189.346 4.46933 189.837 4.224C190.327 3.968 190.861 3.84 191.437 3.84C191.927 3.84 192.391 3.93067 192.829 4.112C193.266 4.29333 193.65 4.55467 193.981 4.896C194.322 5.23733 194.589 5.65867 194.781 6.16C194.983 6.66133 195.085 7.232 195.085 7.872V8.192C195.085 8.84267 194.989 9.41867 194.797 9.92C194.605 10.4213 194.338 10.8427 193.997 11.184C193.666 11.5253 193.277 11.7867 192.829 11.968C192.381 12.1387 191.906 12.224 191.405 12.224C191.149 12.224 190.887 12.192 190.621 12.128C190.354 12.0747 190.098 11.9893 189.853 11.872C189.618 11.744 189.399 11.5947 189.197 11.424C188.994 11.2427 188.823 11.0293 188.685 10.784H188.493V15.2ZM191.149 11.04C191.533 11.04 191.885 10.976 192.205 10.848C192.525 10.7093 192.802 10.5173 193.037 10.272C193.282 10.0267 193.469 9.728 193.597 9.376C193.735 9.024 193.805 8.62933 193.805 8.192V7.872C193.805 7.44533 193.735 7.06133 193.597 6.72C193.469 6.368 193.282 6.06933 193.037 5.824C192.802 5.568 192.519 5.37067 192.189 5.232C191.869 5.09333 191.522 5.024 191.149 5.024C190.775 5.024 190.429 5.09867 190.109 5.248C189.789 5.38667 189.506 5.584 189.261 5.84C189.026 6.096 188.839 6.40533 188.701 6.768C188.562 7.12 188.493 7.50933 188.493 7.936V8.128C188.493 8.56533 188.562 8.96533 188.701 9.328C188.839 9.68 189.026 9.984 189.261 10.24C189.506 10.496 189.789 10.6933 190.109 10.832C190.429 10.9707 190.775 11.04 191.149 11.04ZM197.058 4.064H199.554V0.799999H200.802V4.064H203.874V5.216H200.802V10.368C200.802 10.688 200.946 10.848 201.234 10.848H203.49V12H200.786C200.423 12 200.124 11.8827 199.89 11.648C199.666 11.4133 199.554 11.1147 199.554 10.752V5.216H197.058V4.064ZM209.59 1.696C209.59 1.38667 209.697 1.12533 209.91 0.912C210.134 0.687999 210.401 0.575999 210.71 0.575999C211.02 0.575999 211.281 0.687999 211.494 0.912C211.718 1.12533 211.83 1.38667 211.83 1.696C211.83 2.00533 211.718 2.272 211.494 2.496C211.281 2.70933 211.02 2.816 210.71 2.816C210.401 2.816 210.134 2.70933 209.91 2.496C209.697 2.272 209.59 2.00533 209.59 1.696ZM207.318 10.848H210.102V5.216H207.606V4.064H211.35V10.848H213.942V12H207.318V10.848ZM224.411 8.128C224.411 8.78933 224.299 9.376 224.075 9.888C223.862 10.3893 223.574 10.816 223.211 11.168C222.849 11.5093 222.422 11.7707 221.931 11.952C221.451 12.1333 220.95 12.224 220.427 12.224C219.894 12.224 219.387 12.1333 218.907 11.952C218.427 11.7707 218.006 11.5093 217.643 11.168C217.281 10.816 216.987 10.3893 216.763 9.888C216.55 9.376 216.443 8.78933 216.443 8.128V7.936C216.443 7.28533 216.55 6.70933 216.763 6.208C216.987 5.696 217.281 5.264 217.643 4.912C218.017 4.56 218.443 4.29333 218.923 4.112C219.403 3.93067 219.905 3.84 220.427 3.84C220.95 3.84 221.451 3.93067 221.931 4.112C222.411 4.29333 222.833 4.56 223.195 4.912C223.569 5.264 223.862 5.696 224.075 6.208C224.299 6.70933 224.411 7.28533 224.411 7.936V8.128ZM220.427 11.04C220.811 11.04 221.163 10.976 221.483 10.848C221.814 10.7093 222.102 10.512 222.347 10.256C222.593 10 222.785 9.696 222.923 9.344C223.062 8.98133 223.131 8.576 223.131 8.128V7.936C223.131 7.50933 223.062 7.12 222.923 6.768C222.785 6.40533 222.593 6.096 222.347 5.84C222.102 5.584 221.814 5.38667 221.483 5.248C221.153 5.09867 220.801 5.024 220.427 5.024C220.054 5.024 219.702 5.09867 219.371 5.248C219.041 5.38667 218.753 5.584 218.507 5.84C218.262 6.096 218.07 6.40533 217.931 6.768C217.793 7.12 217.723 7.50933 217.723 7.936V8.128C217.723 8.576 217.793 8.98133 217.931 9.344C218.07 9.696 218.262 10 218.507 10.256C218.753 10.512 219.035 10.7093 219.355 10.848C219.686 10.976 220.043 11.04 220.427 11.04ZM227.968 12H226.72V4.064H227.968V5.408H228.16C228.651 4.36267 229.504 3.84 230.72 3.84C231.637 3.84 232.368 4.128 232.912 4.704C233.456 5.26933 233.728 6.12267 233.728 7.264V12H232.48V7.52C232.48 6.688 232.293 6.064 231.92 5.648C231.547 5.232 231.04 5.024 230.4 5.024C229.643 5.024 229.045 5.28533 228.608 5.808C228.181 6.32 227.968 7.008 227.968 7.872V12ZM246.042 4.064H248.538V0.799999H249.786V4.064H252.858V5.216H249.786V10.368C249.786 10.688 249.93 10.848 250.218 10.848H252.474V12H249.77C249.407 12 249.109 11.8827 248.874 11.648C248.65 11.4133 248.538 11.1147 248.538 10.752V5.216H246.042V4.064ZM263.599 8.128C263.599 8.78933 263.487 9.376 263.263 9.888C263.049 10.3893 262.761 10.816 262.399 11.168C262.036 11.5093 261.609 11.7707 261.119 11.952C260.639 12.1333 260.137 12.224 259.615 12.224C259.081 12.224 258.575 12.1333 258.095 11.952C257.615 11.7707 257.193 11.5093 256.831 11.168C256.468 10.816 256.175 10.3893 255.951 9.888C255.737 9.376 255.631 8.78933 255.631 8.128V7.936C255.631 7.28533 255.737 6.70933 255.951 6.208C256.175 5.696 256.468 5.264 256.831 4.912C257.204 4.56 257.631 4.29333 258.111 4.112C258.591 3.93067 259.092 3.84 259.615 3.84C260.137 3.84 260.639 3.93067 261.119 4.112C261.599 4.29333 262.02 4.56 262.383 4.912C262.756 5.264 263.049 5.696 263.263 6.208C263.487 6.70933 263.599 7.28533 263.599 7.936V8.128ZM259.615 11.04C259.999 11.04 260.351 10.976 260.671 10.848C261.001 10.7093 261.289 10.512 261.535 10.256C261.78 10 261.972 9.696 262.111 9.344C262.249 8.98133 262.319 8.576 262.319 8.128V7.936C262.319 7.50933 262.249 7.12 262.111 6.768C261.972 6.40533 261.78 6.096 261.535 5.84C261.289 5.584 261.001 5.38667 260.671 5.248C260.34 5.09867 259.988 5.024 259.615 5.024C259.241 5.024 258.889 5.09867 258.559 5.248C258.228 5.38667 257.94 5.584 257.695 5.84C257.449 6.096 257.257 6.40533 257.119 6.768C256.98 7.12 256.911 7.50933 256.911 7.936V8.128C256.911 8.576 256.98 8.98133 257.119 9.344C257.257 9.696 257.449 10 257.695 10.256C257.94 10.512 258.223 10.7093 258.543 10.848C258.873 10.976 259.231 11.04 259.615 11.04ZM276.953 12H275.705V0.799999H276.953V5.504H277.145C277.39 4.992 277.731 4.58667 278.169 4.288C278.617 3.98933 279.161 3.84 279.801 3.84C280.665 3.84 281.363 4.128 281.897 4.704C282.441 5.26933 282.713 6.12267 282.713 7.264V12H281.465V7.52C281.465 6.688 281.278 6.064 280.905 5.648C280.531 5.232 280.025 5.024 279.385 5.024C278.627 5.024 278.03 5.28533 277.593 5.808C277.166 6.32 276.953 7.008 276.953 7.872V12ZM291.261 10.656H291.069C290.813 11.1893 290.456 11.584 289.997 11.84C289.549 12.096 289.075 12.224 288.573 12.224C288.051 12.224 287.565 12.1387 287.117 11.968C286.669 11.7867 286.275 11.5253 285.933 11.184C285.603 10.832 285.341 10.4053 285.149 9.904C284.957 9.40267 284.861 8.82133 284.861 8.16V7.904C284.861 7.25333 284.957 6.67733 285.149 6.176C285.341 5.67467 285.603 5.25333 285.933 4.912C286.275 4.56 286.669 4.29333 287.117 4.112C287.565 3.93067 288.04 3.84 288.541 3.84C289.085 3.84 289.576 3.96267 290.013 4.208C290.461 4.44267 290.813 4.81067 291.069 5.312H291.261V4.064H292.509V10.368C292.509 10.688 292.653 10.848 292.941 10.848H293.341V12H292.493C292.131 12 291.832 11.8827 291.597 11.648C291.373 11.4133 291.261 11.1147 291.261 10.752V10.656ZM288.701 11.04C289.075 11.04 289.416 10.9707 289.725 10.832C290.045 10.6933 290.317 10.496 290.541 10.24C290.765 9.984 290.941 9.68 291.069 9.328C291.197 8.96533 291.261 8.56533 291.261 8.128V7.936C291.261 7.50933 291.197 7.12 291.069 6.768C290.941 6.40533 290.76 6.096 290.525 5.84C290.301 5.584 290.029 5.38667 289.709 5.248C289.4 5.09867 289.064 5.024 288.701 5.024C288.328 5.024 287.987 5.09333 287.677 5.232C287.368 5.37067 287.096 5.568 286.861 5.824C286.637 6.06933 286.461 6.37333 286.333 6.736C286.205 7.088 286.141 7.47733 286.141 7.904V8.16C286.141 9.06667 286.376 9.776 286.845 10.288C287.325 10.7893 287.944 11.04 288.701 11.04ZM300.018 12H297.554L294.786 4.064H296.258L298.69 11.424H298.882L301.314 4.064H302.786L300.018 12ZM306.007 8.416C306.039 9.20533 306.284 9.84 306.743 10.32C307.202 10.8 307.842 11.04 308.663 11.04C309.036 11.04 309.362 10.9973 309.639 10.912C309.916 10.8267 310.151 10.7093 310.343 10.56C310.546 10.4107 310.706 10.24 310.823 10.048C310.951 9.84533 311.052 9.632 311.127 9.408L312.311 9.728C312.087 10.464 311.671 11.0667 311.063 11.536C310.466 11.9947 309.655 12.224 308.631 12.224C308.066 12.224 307.543 12.128 307.063 11.936C306.594 11.7333 306.188 11.4507 305.847 11.088C305.506 10.7253 305.239 10.2933 305.047 9.792C304.855 9.29067 304.759 8.736 304.759 8.128V7.744C304.759 7.18933 304.855 6.672 305.047 6.192C305.25 5.712 305.527 5.30133 305.879 4.96C306.231 4.608 306.642 4.336 307.111 4.144C307.591 3.94133 308.108 3.84 308.663 3.84C309.314 3.84 309.874 3.96267 310.343 4.208C310.823 4.44267 311.212 4.736 311.511 5.088C311.82 5.44 312.044 5.824 312.183 6.24C312.332 6.656 312.407 7.04 312.407 7.392V8.416H306.007ZM308.663 5.024C308.311 5.024 307.98 5.08267 307.671 5.2C307.372 5.30667 307.106 5.46133 306.871 5.664C306.647 5.86667 306.46 6.10667 306.311 6.384C306.172 6.65067 306.082 6.944 306.039 7.264H311.159C311.138 6.92267 311.052 6.61333 310.903 6.336C310.764 6.05867 310.578 5.824 310.343 5.632C310.119 5.44 309.858 5.29067 309.559 5.184C309.271 5.07733 308.972 5.024 308.663 5.024ZM327.089 6.432V4.576L330.737 2.24V2.048H324.401V0.799999H331.889V2.848L328.241 5.184V5.376H328.881C329.308 5.376 329.718 5.44533 330.113 5.584C330.508 5.72267 330.854 5.92533 331.153 6.192C331.462 6.45867 331.708 6.78933 331.889 7.184C332.081 7.568 332.177 8.016 332.177 8.528V8.816C332.177 9.296 332.081 9.744 331.889 10.16C331.697 10.576 331.43 10.9387 331.089 11.248C330.748 11.5467 330.342 11.7867 329.873 11.968C329.414 12.1387 328.913 12.224 328.369 12.224C327.74 12.224 327.174 12.128 326.673 11.936C326.172 11.744 325.745 11.4827 325.393 11.152C325.041 10.8107 324.769 10.416 324.577 9.968C324.396 9.50933 324.305 9.024 324.305 8.512V7.648H325.649V8.416C325.649 8.82133 325.713 9.184 325.841 9.504C325.98 9.81333 326.166 10.08 326.401 10.304C326.646 10.5173 326.934 10.6827 327.265 10.8C327.596 10.9173 327.953 10.976 328.337 10.976C328.689 10.976 329.014 10.9173 329.313 10.8C329.622 10.6827 329.889 10.5227 330.113 10.32C330.337 10.1067 330.513 9.86133 330.641 9.584C330.769 9.296 330.833 8.992 330.833 8.672V8.576C330.833 7.904 330.62 7.38133 330.193 7.008C329.766 6.624 329.233 6.432 328.593 6.432H327.089ZM345.243 15.2H343.995V4.064H345.243V5.312H345.435C345.712 4.832 346.096 4.46933 346.587 4.224C347.077 3.968 347.611 3.84 348.187 3.84C348.677 3.84 349.141 3.93067 349.579 4.112C350.016 4.29333 350.4 4.55467 350.731 4.896C351.072 5.23733 351.339 5.65867 351.531 6.16C351.733 6.66133 351.835 7.232 351.835 7.872V8.192C351.835 8.84267 351.739 9.41867 351.547 9.92C351.355 10.4213 351.088 10.8427 350.747 11.184C350.416 11.5253 350.027 11.7867 349.579 11.968C349.131 12.1387 348.656 12.224 348.155 12.224C347.899 12.224 347.637 12.192 347.371 12.128C347.104 12.0747 346.848 11.9893 346.603 11.872C346.368 11.744 346.149 11.5947 345.947 11.424C345.744 11.2427 345.573 11.0293 345.435 10.784H345.243V15.2ZM347.899 11.04C348.283 11.04 348.635 10.976 348.955 10.848C349.275 10.7093 349.552 10.5173 349.787 10.272C350.032 10.0267 350.219 9.728 350.347 9.376C350.485 9.024 350.555 8.62933 350.555 8.192V7.872C350.555 7.44533 350.485 7.06133 350.347 6.72C350.219 6.368 350.032 6.06933 349.787 5.824C349.552 5.568 349.269 5.37067 348.939 5.232C348.619 5.09333 348.272 5.024 347.899 5.024C347.525 5.024 347.179 5.09867 346.859 5.248C346.539 5.38667 346.256 5.584 346.011 5.84C345.776 6.096 345.589 6.40533 345.451 6.768C345.312 7.12 345.243 7.50933 345.243 7.936V8.128C345.243 8.56533 345.312 8.96533 345.451 9.328C345.589 9.68 345.776 9.984 346.011 10.24C346.256 10.496 346.539 10.6933 346.859 10.832C347.179 10.9707 347.525 11.04 347.899 11.04ZM359.84 10.656H359.648C359.392 11.1893 359.034 11.584 358.576 11.84C358.128 12.096 357.653 12.224 357.152 12.224C356.629 12.224 356.144 12.1387 355.696 11.968C355.248 11.7867 354.853 11.5253 354.512 11.184C354.181 10.832 353.92 10.4053 353.728 9.904C353.536 9.40267 353.44 8.82133 353.44 8.16V7.904C353.44 7.25333 353.536 6.67733 353.728 6.176C353.92 5.67467 354.181 5.25333 354.512 4.912C354.853 4.56 355.248 4.29333 355.696 4.112C356.144 3.93067 356.618 3.84 357.12 3.84C357.664 3.84 358.154 3.96267 358.592 4.208C359.04 4.44267 359.392 4.81067 359.648 5.312H359.84V4.064H361.088V10.368C361.088 10.688 361.232 10.848 361.52 10.848H361.92V12H361.072C360.709 12 360.41 11.8827 360.176 11.648C359.952 11.4133 359.84 11.1147 359.84 10.752V10.656ZM357.28 11.04C357.653 11.04 357.994 10.9707 358.304 10.832C358.624 10.6933 358.896 10.496 359.12 10.24C359.344 9.984 359.52 9.68 359.648 9.328C359.776 8.96533 359.84 8.56533 359.84 8.128V7.936C359.84 7.50933 359.776 7.12 359.648 6.768C359.52 6.40533 359.338 6.096 359.104 5.84C358.88 5.584 358.608 5.38667 358.288 5.248C357.978 5.09867 357.642 5.024 357.28 5.024C356.906 5.024 356.565 5.09333 356.256 5.232C355.946 5.37067 355.674 5.568 355.44 5.824C355.216 6.06933 355.04 6.37333 354.912 6.736C354.784 7.088 354.72 7.47733 354.72 7.904V8.16C354.72 9.06667 354.954 9.776 355.424 10.288C355.904 10.7893 356.522 11.04 357.28 11.04ZM363.428 4.064H366.308V5.12H366.5C366.703 4.68267 366.991 4.36267 367.364 4.16C367.738 3.94667 368.164 3.84 368.644 3.84C369.444 3.84 370.09 4.10133 370.58 4.624C371.071 5.14667 371.332 5.90933 371.364 6.912L370.052 7.104C370.052 6.368 369.876 5.84 369.524 5.52C369.172 5.18933 368.74 5.024 368.228 5.024C367.898 5.024 367.61 5.088 367.364 5.216C367.13 5.344 366.932 5.52 366.772 5.744C366.612 5.968 366.495 6.22933 366.42 6.528C366.346 6.82667 366.308 7.14667 366.308 7.488V10.848H368.324V12H363.236V10.848H365.06V5.216H363.428V4.064ZM373.401 4.064H375.897V0.799999H377.145V4.064H380.217V5.216H377.145V10.368C377.145 10.688 377.289 10.848 377.577 10.848H379.833V12H377.129C376.767 12 376.468 11.8827 376.233 11.648C376.009 11.4133 375.897 11.1147 375.897 10.752V5.216H373.401V4.064ZM385.934 1.696C385.934 1.38667 386.041 1.12533 386.254 0.912C386.478 0.687999 386.745 0.575999 387.054 0.575999C387.363 0.575999 387.625 0.687999 387.838 0.912C388.062 1.12533 388.174 1.38667 388.174 1.696C388.174 2.00533 388.062 2.272 387.838 2.496C387.625 2.70933 387.363 2.816 387.054 2.816C386.745 2.816 386.478 2.70933 386.254 2.496C386.041 2.272 385.934 2.00533 385.934 1.696ZM383.662 10.848H386.446V5.216H383.95V4.064H387.694V10.848H390.286V12H383.662V10.848ZM400.691 9.184C400.606 9.62133 400.456 10.0267 400.243 10.4C400.04 10.7733 399.779 11.0987 399.459 11.376C399.139 11.6427 398.766 11.8507 398.339 12C397.912 12.1493 397.438 12.224 396.915 12.224C396.36 12.224 395.832 12.1333 395.331 11.952C394.84 11.7707 394.408 11.5093 394.035 11.168C393.662 10.816 393.363 10.3893 393.139 9.888C392.926 9.38667 392.819 8.81067 392.819 8.16V7.968C392.819 7.328 392.926 6.752 393.139 6.24C393.363 5.728 393.662 5.296 394.035 4.944C394.408 4.592 394.84 4.32 395.331 4.128C395.832 3.936 396.36 3.84 396.915 3.84C397.416 3.84 397.88 3.91467 398.307 4.064C398.734 4.21333 399.107 4.42667 399.427 4.704C399.758 4.97067 400.024 5.29067 400.227 5.664C400.44 6.03733 400.584 6.44267 400.659 6.88L399.411 7.168C399.379 6.89067 399.299 6.624 399.171 6.368C399.054 6.10133 398.888 5.872 398.675 5.68C398.472 5.47733 398.222 5.31733 397.923 5.2C397.624 5.08267 397.278 5.024 396.883 5.024C396.499 5.024 396.136 5.09867 395.795 5.248C395.464 5.38667 395.171 5.58933 394.915 5.856C394.659 6.112 394.456 6.42133 394.307 6.784C394.168 7.14667 394.099 7.54133 394.099 7.968V8.16C394.099 8.608 394.168 9.01333 394.307 9.376C394.456 9.728 394.659 10.0267 394.915 10.272C395.171 10.5173 395.47 10.7093 395.811 10.848C396.152 10.976 396.52 11.04 396.915 11.04C397.31 11.04 397.651 10.9813 397.939 10.864C398.238 10.736 398.488 10.576 398.691 10.384C398.904 10.1813 399.07 9.952 399.187 9.696C399.315 9.44 399.4 9.17333 399.443 8.896L400.691 9.184ZM405.528 1.696C405.528 1.38667 405.635 1.12533 405.848 0.912C406.072 0.687999 406.339 0.575999 406.648 0.575999C406.957 0.575999 407.219 0.687999 407.432 0.912C407.656 1.12533 407.768 1.38667 407.768 1.696C407.768 2.00533 407.656 2.272 407.432 2.496C407.219 2.70933 406.957 2.816 406.648 2.816C406.339 2.816 406.072 2.70933 405.848 2.496C405.635 2.272 405.528 2.00533 405.528 1.696ZM403.256 10.848H406.04V5.216H403.544V4.064H407.288V10.848H409.88V12H403.256V10.848ZM413.821 15.2H412.573V4.064H413.821V5.312H414.013C414.29 4.832 414.674 4.46933 415.165 4.224C415.655 3.968 416.189 3.84 416.765 3.84C417.255 3.84 417.719 3.93067 418.157 4.112C418.594 4.29333 418.978 4.55467 419.309 4.896C419.65 5.23733 419.917 5.65867 420.109 6.16C420.311 6.66133 420.413 7.232 420.413 7.872V8.192C420.413 8.84267 420.317 9.41867 420.125 9.92C419.933 10.4213 419.666 10.8427 419.325 11.184C418.994 11.5253 418.605 11.7867 418.157 11.968C417.709 12.1387 417.234 12.224 416.733 12.224C416.477 12.224 416.215 12.192 415.949 12.128C415.682 12.0747 415.426 11.9893 415.181 11.872C414.946 11.744 414.727 11.5947 414.525 11.424C414.322 11.2427 414.151 11.0293 414.013 10.784H413.821V15.2ZM416.477 11.04C416.861 11.04 417.213 10.976 417.533 10.848C417.853 10.7093 418.13 10.5173 418.365 10.272C418.61 10.0267 418.797 9.728 418.925 9.376C419.063 9.024 419.133 8.62933 419.133 8.192V7.872C419.133 7.44533 419.063 7.06133 418.925 6.72C418.797 6.368 418.61 6.06933 418.365 5.824C418.13 5.568 417.847 5.37067 417.517 5.232C417.197 5.09333 416.85 5.024 416.477 5.024C416.103 5.024 415.757 5.09867 415.437 5.248C415.117 5.38667 414.834 5.584 414.589 5.84C414.354 6.096 414.167 6.40533 414.029 6.768C413.89 7.12 413.821 7.50933 413.821 7.936V8.128C413.821 8.56533 413.89 8.96533 414.029 9.328C414.167 9.68 414.354 9.984 414.589 10.24C414.834 10.496 415.117 10.6933 415.437 10.832C415.757 10.9707 416.103 11.04 416.477 11.04ZM428.418 10.656H428.226C427.97 11.1893 427.612 11.584 427.154 11.84C426.706 12.096 426.231 12.224 425.73 12.224C425.207 12.224 424.722 12.1387 424.274 11.968C423.826 11.7867 423.431 11.5253 423.09 11.184C422.759 10.832 422.498 10.4053 422.306 9.904C422.114 9.40267 422.018 8.82133 422.018 8.16V7.904C422.018 7.25333 422.114 6.67733 422.306 6.176C422.498 5.67467 422.759 5.25333 423.09 4.912C423.431 4.56 423.826 4.29333 424.274 4.112C424.722 3.93067 425.196 3.84 425.698 3.84C426.242 3.84 426.732 3.96267 427.17 4.208C427.618 4.44267 427.97 4.81067 428.226 5.312H428.418V4.064H429.666V10.368C429.666 10.688 429.81 10.848 430.098 10.848H430.498V12H429.65C429.287 12 428.988 11.8827 428.754 11.648C428.53 11.4133 428.418 11.1147 428.418 10.752V10.656ZM425.858 11.04C426.231 11.04 426.572 10.9707 426.882 10.832C427.202 10.6933 427.474 10.496 427.698 10.24C427.922 9.984 428.098 9.68 428.226 9.328C428.354 8.96533 428.418 8.56533 428.418 8.128V7.936C428.418 7.50933 428.354 7.12 428.226 6.768C428.098 6.40533 427.916 6.096 427.682 5.84C427.458 5.584 427.186 5.38667 426.866 5.248C426.556 5.09867 426.22 5.024 425.858 5.024C425.484 5.024 425.143 5.09333 424.834 5.232C424.524 5.37067 424.252 5.568 424.018 5.824C423.794 6.06933 423.618 6.37333 423.49 6.736C423.362 7.088 423.298 7.47733 423.298 7.904V8.16C423.298 9.06667 423.532 9.776 424.002 10.288C424.482 10.7893 425.1 11.04 425.858 11.04ZM433.703 12H432.455V4.064H433.703V5.408H433.895C434.385 4.36267 435.239 3.84 436.455 3.84C437.372 3.84 438.103 4.128 438.647 4.704C439.191 5.26933 439.463 6.12267 439.463 7.264V12H438.215V7.52C438.215 6.688 438.028 6.064 437.655 5.648C437.281 5.232 436.775 5.024 436.135 5.024C435.377 5.024 434.78 5.28533 434.343 5.808C433.916 6.32 433.703 7.008 433.703 7.872V12ZM441.979 4.064H444.475V0.799999H445.723V4.064H448.795V5.216H445.723V10.368C445.723 10.688 445.867 10.848 446.155 10.848H448.411V12H445.707C445.345 12 445.046 11.8827 444.811 11.648C444.587 11.4133 444.475 11.1147 444.475 10.752V5.216H441.979V4.064ZM453.696 6.112C453.696 6.496 453.856 6.78933 454.176 6.992C454.507 7.19467 455.104 7.328 455.968 7.392C456.896 7.46667 457.6 7.69067 458.08 8.064C458.571 8.42667 458.816 8.96 458.816 9.664V9.76C458.816 10.144 458.736 10.4907 458.576 10.8C458.427 11.0987 458.214 11.3547 457.936 11.568C457.67 11.7813 457.339 11.9413 456.944 12.048C456.56 12.1653 456.139 12.224 455.68 12.224C455.062 12.224 454.528 12.144 454.08 11.984C453.643 11.8133 453.275 11.5947 452.976 11.328C452.688 11.0507 452.47 10.7413 452.32 10.4C452.171 10.048 452.086 9.696 452.064 9.344L453.248 9.056C453.302 9.664 453.536 10.1547 453.952 10.528C454.368 10.8907 454.923 11.072 455.616 11.072C456.203 11.072 456.672 10.96 457.024 10.736C457.387 10.5013 457.568 10.176 457.568 9.76C457.568 9.312 457.392 8.992 457.04 8.8C456.688 8.608 456.118 8.48533 455.328 8.432C454.411 8.368 453.707 8.15467 453.216 7.792C452.726 7.42933 452.48 6.90133 452.48 6.208V6.112C452.48 5.73867 452.56 5.41333 452.72 5.136C452.88 4.848 453.094 4.608 453.36 4.416C453.638 4.224 453.947 4.08 454.288 3.984C454.63 3.888 454.987 3.84 455.36 3.84C455.883 3.84 456.342 3.91467 456.736 4.064C457.131 4.20267 457.462 4.38933 457.728 4.624C457.995 4.848 458.198 5.10933 458.336 5.408C458.486 5.70667 458.582 6.00533 458.624 6.304L457.44 6.592C457.387 6.08 457.179 5.68 456.816 5.392C456.464 5.104 456 4.96 455.424 4.96C455.2 4.96 454.982 4.98667 454.768 5.04C454.566 5.08267 454.384 5.152 454.224 5.248C454.064 5.344 453.936 5.46667 453.84 5.616C453.744 5.75467 453.696 5.92 453.696 6.112ZM464.229 11.104C464.229 10.7947 464.336 10.5333 464.549 10.32C464.773 10.096 465.04 9.984 465.349 9.984C465.658 9.984 465.92 10.096 466.133 10.32C466.357 10.5333 466.469 10.7947 466.469 11.104V12.672C466.469 13.0347 466.352 13.3333 466.117 13.568C465.893 13.8027 465.6 13.92 465.237 13.92H464.421V13.056H465.173C465.461 13.056 465.605 12.896 465.605 12.576V12.176C465.52 12.208 465.429 12.224 465.333 12.224C465.034 12.224 464.773 12.1173 464.549 11.904C464.336 11.68 464.229 11.4133 464.229 11.104ZM481.215 0.799999H484.895C486.282 0.799999 487.295 1.13067 487.935 1.792C488.575 2.45333 488.895 3.50933 488.895 4.96V7.84C488.895 9.29067 488.575 10.3467 487.935 11.008C487.295 11.6693 486.282 12 484.895 12H481.215V10.736H482.175V2.048H481.215V0.799999ZM484.703 10.752C485.194 10.752 485.615 10.704 485.967 10.608C486.33 10.512 486.628 10.352 486.863 10.128C487.098 9.89333 487.268 9.584 487.375 9.2C487.492 8.816 487.551 8.33067 487.551 7.744V5.056C487.551 4.46933 487.492 3.984 487.375 3.6C487.268 3.216 487.098 2.912 486.863 2.688C486.628 2.45333 486.33 2.288 485.967 2.192C485.615 2.096 485.194 2.048 484.703 2.048H483.519V10.752H484.703ZM498.724 8.128C498.724 8.78933 498.612 9.376 498.388 9.888C498.174 10.3893 497.886 10.816 497.524 11.168C497.161 11.5093 496.734 11.7707 496.244 11.952C495.764 12.1333 495.262 12.224 494.74 12.224C494.206 12.224 493.7 12.1333 493.22 11.952C492.74 11.7707 492.318 11.5093 491.956 11.168C491.593 10.816 491.3 10.3893 491.076 9.888C490.862 9.376 490.756 8.78933 490.756 8.128V7.936C490.756 7.28533 490.862 6.70933 491.076 6.208C491.3 5.696 491.593 5.264 491.956 4.912C492.329 4.56 492.756 4.29333 493.236 4.112C493.716 3.93067 494.217 3.84 494.74 3.84C495.262 3.84 495.764 3.93067 496.244 4.112C496.724 4.29333 497.145 4.56 497.508 4.912C497.881 5.264 498.174 5.696 498.388 6.208C498.612 6.70933 498.724 7.28533 498.724 7.936V8.128ZM494.74 11.04C495.124 11.04 495.476 10.976 495.796 10.848C496.126 10.7093 496.414 10.512 496.66 10.256C496.905 10 497.097 9.696 497.236 9.344C497.374 8.98133 497.444 8.576 497.444 8.128V7.936C497.444 7.50933 497.374 7.12 497.236 6.768C497.097 6.40533 496.905 6.096 496.66 5.84C496.414 5.584 496.126 5.38667 495.796 5.248C495.465 5.09867 495.113 5.024 494.74 5.024C494.366 5.024 494.014 5.09867 493.684 5.248C493.353 5.38667 493.065 5.584 492.82 5.84C492.574 6.096 492.382 6.40533 492.244 6.768C492.105 7.12 492.036 7.50933 492.036 7.936V8.128C492.036 8.576 492.105 8.98133 492.244 9.344C492.382 9.696 492.574 10 492.82 10.256C493.065 10.512 493.348 10.7093 493.668 10.848C493.998 10.976 494.356 11.04 494.74 11.04ZM7.152 34.56H6.96C6.704 35.072 6.368 35.4773 5.952 35.776C5.536 36.0747 5.008 36.224 4.368 36.224C3.93067 36.224 3.52533 36.1493 3.152 36C2.78933 35.8613 2.47467 35.648 2.208 35.36C1.952 35.072 1.74933 34.7147 1.6 34.288C1.46133 33.8613 1.392 33.3653 1.392 32.8V28.064H2.64V32.64C2.64 33.472 2.81067 34.08 3.152 34.464C3.49333 34.848 4.016 35.04 4.72 35.04C5.47733 35.04 6.06933 34.784 6.496 34.272C6.93333 33.7493 7.152 33.056 7.152 32.192V28.064H8.4V37.952C8.4 38.3147 8.28267 38.6133 8.048 38.848C7.824 39.0827 7.53067 39.2 7.168 39.2H2.64V38.048H6.72C7.008 38.048 7.152 37.888 7.152 37.568V34.56ZM18.6769 32.128C18.6769 32.7893 18.5649 33.376 18.3409 33.888C18.1275 34.3893 17.8395 34.816 17.4769 35.168C17.1142 35.5093 16.6875 35.7707 16.1969 35.952C15.7169 36.1333 15.2155 36.224 14.6929 36.224C14.1595 36.224 13.6529 36.1333 13.1729 35.952C12.6929 35.7707 12.2715 35.5093 11.9089 35.168C11.5462 34.816 11.2529 34.3893 11.0289 33.888C10.8155 33.376 10.7089 32.7893 10.7089 32.128V31.936C10.7089 31.2853 10.8155 30.7093 11.0289 30.208C11.2529 29.696 11.5462 29.264 11.9089 28.912C12.2822 28.56 12.7089 28.2933 13.1889 28.112C13.6689 27.9307 14.1702 27.84 14.6929 27.84C15.2155 27.84 15.7169 27.9307 16.1969 28.112C16.6769 28.2933 17.0982 28.56 17.4609 28.912C17.8342 29.264 18.1275 29.696 18.3409 30.208C18.5649 30.7093 18.6769 31.2853 18.6769 31.936V32.128ZM14.6929 35.04C15.0769 35.04 15.4289 34.976 15.7489 34.848C16.0795 34.7093 16.3675 34.512 16.6129 34.256C16.8582 34 17.0502 33.696 17.1889 33.344C17.3275 32.9813 17.3969 32.576 17.3969 32.128V31.936C17.3969 31.5093 17.3275 31.12 17.1889 30.768C17.0502 30.4053 16.8582 30.096 16.6129 29.84C16.3675 29.584 16.0795 29.3867 15.7489 29.248C15.4182 29.0987 15.0662 29.024 14.6929 29.024C14.3195 29.024 13.9675 29.0987 13.6369 29.248C13.3062 29.3867 13.0182 29.584 12.7729 29.84C12.5275 30.096 12.3355 30.4053 12.1969 30.768C12.0582 31.12 11.9889 31.5093 11.9889 31.936V32.128C11.9889 32.576 12.0582 32.9813 12.1969 33.344C12.3355 33.696 12.5275 34 12.7729 34.256C13.0182 34.512 13.3009 34.7093 13.6209 34.848C13.9515 34.976 14.3089 35.04 14.6929 35.04ZM26.6498 28.064H27.8978V36H26.6498V34.56H26.4578C26.2018 35.072 25.8658 35.4773 25.4498 35.776C25.0338 36.0747 24.5058 36.224 23.8658 36.224C23.4284 36.224 23.0231 36.1493 22.6498 36C22.2871 35.8613 21.9724 35.648 21.7057 35.36C21.4498 35.072 21.2471 34.7147 21.0978 34.288C20.9591 33.8613 20.8898 33.3653 20.8898 32.8V28.064H22.1378V32.64C22.1378 33.472 22.3084 34.08 22.6498 34.464C22.9911 34.848 23.5138 35.04 24.2178 35.04C24.9751 35.04 25.5671 34.784 25.9938 34.272C26.4311 33.7493 26.6498 33.056 26.6498 32.192V28.064ZM47.4435 36H45.1395L44.1795 28.64H43.9875L43.0275 36H40.7235L39.4755 28.064H40.7555L41.8115 35.424H42.0035L42.9315 28.064H45.2355L46.1635 35.424H46.3555L47.4115 28.064H48.6915L47.4435 36ZM56.1364 34.656H55.9444C55.6884 35.1893 55.331 35.584 54.8724 35.84C54.4244 36.096 53.9497 36.224 53.4484 36.224C52.9257 36.224 52.4404 36.1387 51.9924 35.968C51.5444 35.7867 51.1497 35.5253 50.8084 35.184C50.4777 34.832 50.2164 34.4053 50.0244 33.904C49.8324 33.4027 49.7364 32.8213 49.7364 32.16V31.904C49.7364 31.2533 49.8324 30.6773 50.0244 30.176C50.2164 29.6747 50.4777 29.2533 50.8084 28.912C51.1497 28.56 51.5444 28.2933 51.9924 28.112C52.4404 27.9307 52.915 27.84 53.4164 27.84C53.9604 27.84 54.451 27.9627 54.8884 28.208C55.3364 28.4427 55.6884 28.8107 55.9444 29.312H56.1364V28.064H57.3844V34.368C57.3844 34.688 57.5284 34.848 57.8164 34.848H58.2164V36H57.3684C57.0057 36 56.707 35.8827 56.4724 35.648C56.2484 35.4133 56.1364 35.1147 56.1364 34.752V34.656ZM53.5764 35.04C53.9497 35.04 54.291 34.9707 54.6004 34.832C54.9204 34.6933 55.1924 34.496 55.4164 34.24C55.6404 33.984 55.8164 33.68 55.9444 33.328C56.0724 32.9653 56.1364 32.5653 56.1364 32.128V31.936C56.1364 31.5093 56.0724 31.12 55.9444 30.768C55.8164 30.4053 55.635 30.096 55.4004 29.84C55.1764 29.584 54.9044 29.3867 54.5844 29.248C54.275 29.0987 53.939 29.024 53.5764 29.024C53.203 29.024 52.8617 29.0933 52.5524 29.232C52.243 29.3707 51.971 29.568 51.7364 29.824C51.5124 30.0693 51.3364 30.3733 51.2084 30.736C51.0804 31.088 51.0164 31.4773 51.0164 31.904V32.16C51.0164 33.0667 51.251 33.776 51.7204 34.288C52.2004 34.7893 52.819 35.04 53.5764 35.04ZM61.4213 36H60.1733V28.064H61.4213V29.408H61.6133C62.1039 28.3627 62.9573 27.84 64.1733 27.84C65.0906 27.84 65.8213 28.128 66.3653 28.704C66.9093 29.2693 67.1813 30.1227 67.1813 31.264V36H65.9333V31.52C65.9333 30.688 65.7466 30.064 65.3733 29.648C64.9999 29.232 64.4933 29.024 63.8533 29.024C63.0959 29.024 62.4986 29.2853 62.0613 29.808C61.6346 30.32 61.4213 31.008 61.4213 31.872V36ZM69.6981 28.064H72.1941V24.8H73.4421V28.064H76.5141V29.216H73.4421V34.368C73.4421 34.688 73.5861 34.848 73.8741 34.848H76.1301V36H73.4261C73.0635 36 72.7648 35.8827 72.5301 35.648C72.3061 35.4133 72.1941 35.1147 72.1941 34.752V29.216H69.6981V28.064ZM89.2919 28.064H91.7879V24.8H93.0359V28.064H96.1079V29.216H93.0359V34.368C93.0359 34.688 93.1799 34.848 93.4679 34.848H95.7239V36H93.0199C92.6572 36 92.3585 35.8827 92.1239 35.648C91.8999 35.4133 91.7879 35.1147 91.7879 34.752V29.216H89.2919V28.064ZM106.849 32.128C106.849 32.7893 106.737 33.376 106.513 33.888C106.299 34.3893 106.011 34.816 105.649 35.168C105.286 35.5093 104.859 35.7707 104.369 35.952C103.889 36.1333 103.387 36.224 102.865 36.224C102.331 36.224 101.825 36.1333 101.345 35.952C100.865 35.7707 100.443 35.5093 100.081 35.168C99.7181 34.816 99.4248 34.3893 99.2008 33.888C98.9874 33.376 98.8808 32.7893 98.8808 32.128V31.936C98.8808 31.2853 98.9874 30.7093 99.2008 30.208C99.4248 29.696 99.7181 29.264 100.081 28.912C100.454 28.56 100.881 28.2933 101.361 28.112C101.841 27.9307 102.342 27.84 102.865 27.84C103.387 27.84 103.889 27.9307 104.369 28.112C104.849 28.2933 105.27 28.56 105.633 28.912C106.006 29.264 106.299 29.696 106.513 30.208C106.737 30.7093 106.849 31.2853 106.849 31.936V32.128ZM102.865 35.04C103.249 35.04 103.601 34.976 103.921 34.848C104.251 34.7093 104.539 34.512 104.785 34.256C105.03 34 105.222 33.696 105.361 33.344C105.499 32.9813 105.569 32.576 105.569 32.128V31.936C105.569 31.5093 105.499 31.12 105.361 30.768C105.222 30.4053 105.03 30.096 104.785 29.84C104.539 29.584 104.251 29.3867 103.921 29.248C103.59 29.0987 103.238 29.024 102.865 29.024C102.491 29.024 102.139 29.0987 101.809 29.248C101.478 29.3867 101.19 29.584 100.945 29.84C100.699 30.096 100.507 30.4053 100.369 30.768C100.23 31.12 100.161 31.5093 100.161 31.936V32.128C100.161 32.576 100.23 32.9813 100.369 33.344C100.507 33.696 100.699 34 100.945 34.256C101.19 34.512 101.473 34.7093 101.793 34.848C102.123 34.976 102.481 35.04 102.865 35.04ZM121.419 25.696C121.419 25.3867 121.525 25.1253 121.739 24.912C121.963 24.688 122.229 24.576 122.539 24.576C122.848 24.576 123.109 24.688 123.323 24.912C123.547 25.1253 123.659 25.3867 123.659 25.696C123.659 26.0053 123.547 26.272 123.323 26.496C123.109 26.7093 122.848 26.816 122.539 26.816C122.229 26.816 121.963 26.7093 121.739 26.496C121.525 26.272 121.419 26.0053 121.419 25.696ZM119.147 34.848H121.931V29.216H119.435V28.064H123.179V34.848H125.771V36H119.147V34.848ZM129.999 36H128.751V28.064H129.999V29.408H130.191C130.682 28.3627 131.535 27.84 132.751 27.84C133.669 27.84 134.399 28.128 134.943 28.704C135.487 29.2693 135.759 30.1227 135.759 31.264V36H134.511V31.52C134.511 30.688 134.325 30.064 133.951 29.648C133.578 29.232 133.071 29.024 132.431 29.024C131.674 29.024 131.077 29.2853 130.639 29.808C130.213 30.32 129.999 31.008 129.999 31.872V36ZM145.972 33.184C145.887 33.6213 145.738 34.0267 145.524 34.4C145.322 34.7733 145.06 35.0987 144.74 35.376C144.42 35.6427 144.047 35.8507 143.62 36C143.194 36.1493 142.719 36.224 142.196 36.224C141.642 36.224 141.114 36.1333 140.612 35.952C140.122 35.7707 139.69 35.5093 139.316 35.168C138.943 34.816 138.644 34.3893 138.42 33.888C138.207 33.3867 138.1 32.8107 138.1 32.16V31.968C138.1 31.328 138.207 30.752 138.42 30.24C138.644 29.728 138.943 29.296 139.316 28.944C139.69 28.592 140.122 28.32 140.612 28.128C141.114 27.936 141.642 27.84 142.196 27.84C142.698 27.84 143.162 27.9147 143.588 28.064C144.015 28.2133 144.388 28.4267 144.708 28.704C145.039 28.9707 145.306 29.2907 145.508 29.664C145.722 30.0373 145.866 30.4427 145.94 30.88L144.692 31.168C144.66 30.8907 144.58 30.624 144.452 30.368C144.335 30.1013 144.17 29.872 143.956 29.68C143.754 29.4773 143.503 29.3173 143.204 29.2C142.906 29.0827 142.559 29.024 142.164 29.024C141.78 29.024 141.418 29.0987 141.076 29.248C140.746 29.3867 140.452 29.5893 140.196 29.856C139.94 30.112 139.738 30.4213 139.588 30.784C139.45 31.1467 139.38 31.5413 139.38 31.968V32.16C139.38 32.608 139.45 33.0133 139.588 33.376C139.738 33.728 139.94 34.0267 140.196 34.272C140.452 34.5173 140.751 34.7093 141.092 34.848C141.434 34.976 141.802 35.04 142.196 35.04C142.591 35.04 142.932 34.9813 143.22 34.864C143.519 34.736 143.77 34.576 143.972 34.384C144.186 34.1813 144.351 33.952 144.468 33.696C144.596 33.44 144.682 33.1733 144.724 32.896L145.972 33.184ZM148.345 34.848H151.225V25.952H148.441V24.8H152.473V34.848H155.353V36H148.345V34.848ZM163.806 28.064H165.054V36H163.806V34.56H163.614C163.358 35.072 163.022 35.4773 162.606 35.776C162.19 36.0747 161.662 36.224 161.022 36.224C160.585 36.224 160.179 36.1493 159.806 36C159.443 35.8613 159.129 35.648 158.862 35.36C158.606 35.072 158.403 34.7147 158.254 34.288C158.115 33.8613 158.046 33.3653 158.046 32.8V28.064H159.294V32.64C159.294 33.472 159.465 34.08 159.806 34.464C160.147 34.848 160.67 35.04 161.374 35.04C162.131 35.04 162.723 34.784 163.15 34.272C163.587 33.7493 163.806 33.056 163.806 32.192V28.064ZM174.083 34.784H173.891C173.763 35.0293 173.598 35.2427 173.395 35.424C173.203 35.6053 172.99 35.7547 172.755 35.872C172.531 35.9893 172.291 36.0747 172.035 36.128C171.779 36.192 171.534 36.224 171.299 36.224C170.766 36.224 170.27 36.1333 169.811 35.952C169.352 35.7707 168.947 35.5093 168.595 35.168C168.254 34.8267 167.982 34.4053 167.779 33.904C167.587 33.392 167.491 32.8107 167.491 32.16V31.904C167.491 31.264 167.592 30.6933 167.795 30.192C167.998 29.68 168.27 29.2533 168.611 28.912C168.952 28.56 169.352 28.2933 169.811 28.112C170.27 27.9307 170.755 27.84 171.267 27.84C171.811 27.84 172.318 27.9627 172.787 28.208C173.267 28.4427 173.635 28.8107 173.891 29.312H174.083V24.8H175.331V36H174.083V34.784ZM171.427 35.04C171.8 35.04 172.147 34.9707 172.467 34.832C172.787 34.6933 173.064 34.496 173.299 34.24C173.544 33.984 173.736 33.68 173.875 33.328C174.014 32.9653 174.083 32.5653 174.083 32.128V31.936C174.083 31.5093 174.014 31.12 173.875 30.768C173.736 30.4053 173.544 30.096 173.299 29.84C173.064 29.584 172.782 29.3867 172.451 29.248C172.131 29.0987 171.79 29.024 171.427 29.024C171.054 29.024 170.702 29.0933 170.371 29.232C170.051 29.3707 169.768 29.568 169.523 29.824C169.288 30.08 169.102 30.384 168.963 30.736C168.835 31.088 168.771 31.4773 168.771 31.904V32.16C168.771 32.608 168.835 33.008 168.963 33.36C169.102 33.712 169.288 34.016 169.523 34.272C169.768 34.5173 170.051 34.7093 170.371 34.848C170.691 34.976 171.043 35.04 171.427 35.04ZM178.648 32.416C178.68 33.2053 178.925 33.84 179.384 34.32C179.842 34.8 180.482 35.04 181.304 35.04C181.677 35.04 182.002 34.9973 182.28 34.912C182.557 34.8267 182.792 34.7093 182.984 34.56C183.186 34.4107 183.346 34.24 183.464 34.048C183.592 33.8453 183.693 33.632 183.768 33.408L184.952 33.728C184.728 34.464 184.312 35.0667 183.704 35.536C183.106 35.9947 182.296 36.224 181.272 36.224C180.706 36.224 180.184 36.128 179.704 35.936C179.234 35.7333 178.829 35.4507 178.488 35.088C178.146 34.7253 177.88 34.2933 177.688 33.792C177.496 33.2907 177.4 32.736 177.4 32.128V31.744C177.4 31.1893 177.496 30.672 177.688 30.192C177.89 29.712 178.168 29.3013 178.52 28.96C178.872 28.608 179.282 28.336 179.752 28.144C180.232 27.9413 180.749 27.84 181.304 27.84C181.954 27.84 182.514 27.9627 182.984 28.208C183.464 28.4427 183.853 28.736 184.152 29.088C184.461 29.44 184.685 29.824 184.824 30.24C184.973 30.656 185.048 31.04 185.048 31.392V32.416H178.648ZM181.304 29.024C180.952 29.024 180.621 29.0827 180.312 29.2C180.013 29.3067 179.746 29.4613 179.512 29.664C179.288 29.8667 179.101 30.1067 178.952 30.384C178.813 30.6507 178.722 30.944 178.68 31.264H183.8C183.778 30.9227 183.693 30.6133 183.544 30.336C183.405 30.0587 183.218 29.824 182.984 29.632C182.76 29.44 182.498 29.2907 182.2 29.184C181.912 29.0773 181.613 29.024 181.304 29.024ZM203.09 34.656H202.898C202.642 35.1893 202.284 35.584 201.826 35.84C201.378 36.096 200.903 36.224 200.402 36.224C199.879 36.224 199.394 36.1387 198.946 35.968C198.498 35.7867 198.103 35.5253 197.762 35.184C197.431 34.832 197.17 34.4053 196.978 33.904C196.786 33.4027 196.69 32.8213 196.69 32.16V31.904C196.69 31.2533 196.786 30.6773 196.978 30.176C197.17 29.6747 197.431 29.2533 197.762 28.912C198.103 28.56 198.498 28.2933 198.946 28.112C199.394 27.9307 199.868 27.84 200.37 27.84C200.914 27.84 201.404 27.9627 201.842 28.208C202.29 28.4427 202.642 28.8107 202.898 29.312H203.09V28.064H204.338V34.368C204.338 34.688 204.482 34.848 204.77 34.848H205.17V36H204.322C203.959 36 203.66 35.8827 203.426 35.648C203.202 35.4133 203.09 35.1147 203.09 34.752V34.656ZM200.53 35.04C200.903 35.04 201.244 34.9707 201.554 34.832C201.874 34.6933 202.146 34.496 202.37 34.24C202.594 33.984 202.77 33.68 202.898 33.328C203.026 32.9653 203.09 32.5653 203.09 32.128V31.936C203.09 31.5093 203.026 31.12 202.898 30.768C202.77 30.4053 202.588 30.096 202.354 29.84C202.13 29.584 201.858 29.3867 201.538 29.248C201.228 29.0987 200.892 29.024 200.53 29.024C200.156 29.024 199.815 29.0933 199.506 29.232C199.196 29.3707 198.924 29.568 198.69 29.824C198.466 30.0693 198.29 30.3733 198.162 30.736C198.034 31.088 197.97 31.4773 197.97 31.904V32.16C197.97 33.0667 198.204 33.776 198.674 34.288C199.154 34.7893 199.772 35.04 200.53 35.04ZM208.374 36H207.126V28.064H208.374V29.408H208.566C209.057 28.3627 209.91 27.84 211.126 27.84C212.044 27.84 212.774 28.128 213.318 28.704C213.862 29.2693 214.134 30.1227 214.134 31.264V36H212.886V31.52C212.886 30.688 212.7 30.064 212.326 29.648C211.953 29.232 211.446 29.024 210.806 29.024C210.049 29.024 209.452 29.2853 209.014 29.808C208.588 30.32 208.374 31.008 208.374 31.872V36ZM224.411 32.128C224.411 32.7893 224.299 33.376 224.075 33.888C223.862 34.3893 223.574 34.816 223.211 35.168C222.849 35.5093 222.422 35.7707 221.931 35.952C221.451 36.1333 220.95 36.224 220.427 36.224C219.894 36.224 219.387 36.1333 218.907 35.952C218.427 35.7707 218.006 35.5093 217.643 35.168C217.281 34.816 216.987 34.3893 216.763 33.888C216.55 33.376 216.443 32.7893 216.443 32.128V31.936C216.443 31.2853 216.55 30.7093 216.763 30.208C216.987 29.696 217.281 29.264 217.643 28.912C218.017 28.56 218.443 28.2933 218.923 28.112C219.403 27.9307 219.905 27.84 220.427 27.84C220.95 27.84 221.451 27.9307 221.931 28.112C222.411 28.2933 222.833 28.56 223.195 28.912C223.569 29.264 223.862 29.696 224.075 30.208C224.299 30.7093 224.411 31.2853 224.411 31.936V32.128ZM220.427 35.04C220.811 35.04 221.163 34.976 221.483 34.848C221.814 34.7093 222.102 34.512 222.347 34.256C222.593 34 222.785 33.696 222.923 33.344C223.062 32.9813 223.131 32.576 223.131 32.128V31.936C223.131 31.5093 223.062 31.12 222.923 30.768C222.785 30.4053 222.593 30.096 222.347 29.84C222.102 29.584 221.814 29.3867 221.483 29.248C221.153 29.0987 220.801 29.024 220.427 29.024C220.054 29.024 219.702 29.0987 219.371 29.248C219.041 29.3867 218.753 29.584 218.507 29.84C218.262 30.096 218.07 30.4053 217.931 30.768C217.793 31.12 217.723 31.5093 217.723 31.936V32.128C217.723 32.576 217.793 32.9813 217.931 33.344C218.07 33.696 218.262 34 218.507 34.256C218.753 34.512 219.035 34.7093 219.355 34.848C219.686 34.976 220.043 35.04 220.427 35.04ZM226.448 28.064H228.944V24.8H230.192V28.064H233.264V29.216H230.192V34.368C230.192 34.688 230.336 34.848 230.624 34.848H232.88V36H230.176C229.813 36 229.515 35.8827 229.28 35.648C229.056 35.4133 228.944 35.1147 228.944 34.752V29.216H226.448V28.064ZM237.765 36H236.517V24.8H237.765V29.504H237.957C238.202 28.992 238.544 28.5867 238.981 28.288C239.429 27.9893 239.973 27.84 240.613 27.84C241.477 27.84 242.176 28.128 242.709 28.704C243.253 29.2693 243.525 30.1227 243.525 31.264V36H242.277V31.52C242.277 30.688 242.09 30.064 241.717 29.648C241.344 29.232 240.837 29.024 240.197 29.024C239.44 29.024 238.842 29.2853 238.405 29.808C237.978 30.32 237.765 31.008 237.765 31.872V36ZM247.226 32.416C247.258 33.2053 247.503 33.84 247.962 34.32C248.421 34.8 249.061 35.04 249.882 35.04C250.255 35.04 250.581 34.9973 250.858 34.912C251.135 34.8267 251.37 34.7093 251.562 34.56C251.765 34.4107 251.925 34.24 252.042 34.048C252.17 33.8453 252.271 33.632 252.346 33.408L253.53 33.728C253.306 34.464 252.89 35.0667 252.282 35.536C251.685 35.9947 250.874 36.224 249.85 36.224C249.285 36.224 248.762 36.128 248.282 35.936C247.813 35.7333 247.407 35.4507 247.066 35.088C246.725 34.7253 246.458 34.2933 246.266 33.792C246.074 33.2907 245.978 32.736 245.978 32.128V31.744C245.978 31.1893 246.074 30.672 246.266 30.192C246.469 29.712 246.746 29.3013 247.098 28.96C247.45 28.608 247.861 28.336 248.33 28.144C248.81 27.9413 249.327 27.84 249.882 27.84C250.533 27.84 251.093 27.9627 251.562 28.208C252.042 28.4427 252.431 28.736 252.73 29.088C253.039 29.44 253.263 29.824 253.402 30.24C253.551 30.656 253.626 31.04 253.626 31.392V32.416H247.226ZM249.882 29.024C249.53 29.024 249.199 29.0827 248.89 29.2C248.591 29.3067 248.325 29.4613 248.09 29.664C247.866 29.8667 247.679 30.1067 247.53 30.384C247.391 30.6507 247.301 30.944 247.258 31.264H252.378C252.357 30.9227 252.271 30.6133 252.122 30.336C251.983 30.0587 251.797 29.824 251.562 29.632C251.338 29.44 251.077 29.2907 250.778 29.184C250.49 29.0773 250.191 29.024 249.882 29.024ZM255.663 28.064H258.543V29.12H258.735C258.937 28.6827 259.225 28.3627 259.599 28.16C259.972 27.9467 260.399 27.84 260.879 27.84C261.679 27.84 262.324 28.1013 262.815 28.624C263.305 29.1467 263.567 29.9093 263.599 30.912L262.287 31.104C262.287 30.368 262.111 29.84 261.759 29.52C261.407 29.1893 260.975 29.024 260.463 29.024C260.132 29.024 259.844 29.088 259.599 29.216C259.364 29.344 259.167 29.52 259.007 29.744C258.847 29.968 258.729 30.2293 258.655 30.528C258.58 30.8267 258.543 31.1467 258.543 31.488V34.848H260.559V36H255.471V34.848H257.295V29.216H255.663V28.064ZM275.273 24.8H283.145V26.048H279.881V36H278.536V26.048H275.273V24.8ZM286.413 32.416C286.445 33.2053 286.691 33.84 287.149 34.32C287.608 34.8 288.248 35.04 289.069 35.04C289.443 35.04 289.768 34.9973 290.045 34.912C290.323 34.8267 290.557 34.7093 290.749 34.56C290.952 34.4107 291.112 34.24 291.229 34.048C291.357 33.8453 291.459 33.632 291.533 33.408L292.717 33.728C292.493 34.464 292.077 35.0667 291.469 35.536C290.872 35.9947 290.061 36.224 289.037 36.224C288.472 36.224 287.949 36.128 287.469 35.936C287 35.7333 286.595 35.4507 286.253 35.088C285.912 34.7253 285.645 34.2933 285.453 33.792C285.261 33.2907 285.165 32.736 285.165 32.128V31.744C285.165 31.1893 285.261 30.672 285.453 30.192C285.656 29.712 285.933 29.3013 286.285 28.96C286.637 28.608 287.048 28.336 287.517 28.144C287.997 27.9413 288.515 27.84 289.069 27.84C289.72 27.84 290.28 27.9627 290.749 28.208C291.229 28.4427 291.619 28.736 291.917 29.088C292.227 29.44 292.451 29.824 292.589 30.24C292.739 30.656 292.813 31.04 292.813 31.392V32.416H286.413ZM289.069 29.024C288.717 29.024 288.387 29.0827 288.077 29.2C287.779 29.3067 287.512 29.4613 287.277 29.664C287.053 29.8667 286.867 30.1067 286.717 30.384C286.579 30.6507 286.488 30.944 286.445 31.264H291.565C291.544 30.9227 291.459 30.6133 291.309 30.336C291.171 30.0587 290.984 29.824 290.749 29.632C290.525 29.44 290.264 29.2907 289.965 29.184C289.677 29.0773 289.379 29.024 289.069 29.024ZM301.058 34.656H300.866C300.61 35.1893 300.253 35.584 299.794 35.84C299.346 36.096 298.872 36.224 298.37 36.224C297.848 36.224 297.362 36.1387 296.914 35.968C296.466 35.7867 296.072 35.5253 295.73 35.184C295.4 34.832 295.138 34.4053 294.946 33.904C294.754 33.4027 294.658 32.8213 294.658 32.16V31.904C294.658 31.2533 294.754 30.6773 294.946 30.176C295.138 29.6747 295.4 29.2533 295.73 28.912C296.072 28.56 296.466 28.2933 296.914 28.112C297.362 27.9307 297.837 27.84 298.338 27.84C298.882 27.84 299.373 27.9627 299.81 28.208C300.258 28.4427 300.61 28.8107 300.866 29.312H301.058V28.064H302.306V34.368C302.306 34.688 302.45 34.848 302.738 34.848H303.138V36H302.29C301.928 36 301.629 35.8827 301.394 35.648C301.17 35.4133 301.058 35.1147 301.058 34.752V34.656ZM298.498 35.04C298.872 35.04 299.213 34.9707 299.522 34.832C299.842 34.6933 300.114 34.496 300.338 34.24C300.562 33.984 300.738 33.68 300.866 33.328C300.994 32.9653 301.058 32.5653 301.058 32.128V31.936C301.058 31.5093 300.994 31.12 300.866 30.768C300.738 30.4053 300.557 30.096 300.322 29.84C300.098 29.584 299.826 29.3867 299.506 29.248C299.197 29.0987 298.861 29.024 298.498 29.024C298.125 29.024 297.784 29.0933 297.474 29.232C297.165 29.3707 296.893 29.568 296.658 29.824C296.434 30.0693 296.258 30.3733 296.13 30.736C296.002 31.088 295.938 31.4773 295.938 31.904V32.16C295.938 33.0667 296.173 33.776 296.642 34.288C297.122 34.7893 297.741 35.04 298.498 35.04ZM312.727 36H311.479V30.304C311.479 29.9307 311.394 29.6267 311.223 29.392C311.052 29.1467 310.78 29.024 310.407 29.024C310.055 29.024 309.767 29.1573 309.543 29.424C309.33 29.68 309.223 30.08 309.223 30.624V36H307.975V30.24C307.975 29.888 307.879 29.6 307.687 29.376C307.495 29.1413 307.239 29.024 306.919 29.024C306.535 29.024 306.236 29.1627 306.023 29.44C305.82 29.7173 305.719 30.08 305.719 30.528V36H304.471V28.064H305.719V28.928H305.911C306.05 28.5547 306.252 28.2827 306.519 28.112C306.786 27.9307 307.1 27.84 307.463 27.84C307.847 27.84 308.162 27.9413 308.407 28.144C308.663 28.3467 308.839 28.608 308.935 28.928H309.127C309.49 28.2027 310.066 27.84 310.855 27.84C311.452 27.84 311.911 28.032 312.231 28.416C312.562 28.7893 312.727 29.28 312.727 29.888V36ZM322.524 36H321.276V30.304C321.276 29.9307 321.191 29.6267 321.02 29.392C320.849 29.1467 320.577 29.024 320.204 29.024C319.852 29.024 319.564 29.1573 319.34 29.424C319.127 29.68 319.02 30.08 319.02 30.624V36H317.772V30.24C317.772 29.888 317.676 29.6 317.484 29.376C317.292 29.1413 317.036 29.024 316.716 29.024C316.332 29.024 316.033 29.1627 315.82 29.44C315.617 29.7173 315.516 30.08 315.516 30.528V36H314.268V28.064H315.516V28.928H315.708C315.847 28.5547 316.049 28.2827 316.316 28.112C316.583 27.9307 316.897 27.84 317.26 27.84C317.644 27.84 317.959 27.9413 318.204 28.144C318.46 28.3467 318.636 28.608 318.732 28.928H318.924C319.287 28.2027 319.863 27.84 320.652 27.84C321.249 27.84 321.708 28.032 322.028 28.416C322.359 28.7893 322.524 29.28 322.524 29.888V36ZM330.449 34.656H330.257C330.001 35.1893 329.644 35.584 329.185 35.84C328.737 36.096 328.262 36.224 327.761 36.224C327.238 36.224 326.753 36.1387 326.305 35.968C325.857 35.7867 325.462 35.5253 325.121 35.184C324.79 34.832 324.529 34.4053 324.337 33.904C324.145 33.4027 324.049 32.8213 324.049 32.16V31.904C324.049 31.2533 324.145 30.6773 324.337 30.176C324.529 29.6747 324.79 29.2533 325.121 28.912C325.462 28.56 325.857 28.2933 326.305 28.112C326.753 27.9307 327.228 27.84 327.729 27.84C328.273 27.84 328.764 27.9627 329.201 28.208C329.649 28.4427 330.001 28.8107 330.257 29.312H330.449V28.064H331.697V34.368C331.697 34.688 331.841 34.848 332.129 34.848H332.529V36H331.681C331.318 36 331.02 35.8827 330.785 35.648C330.561 35.4133 330.449 35.1147 330.449 34.752V34.656ZM327.889 35.04C328.262 35.04 328.604 34.9707 328.913 34.832C329.233 34.6933 329.505 34.496 329.729 34.24C329.953 33.984 330.129 33.68 330.257 33.328C330.385 32.9653 330.449 32.5653 330.449 32.128V31.936C330.449 31.5093 330.385 31.12 330.257 30.768C330.129 30.4053 329.948 30.096 329.713 29.84C329.489 29.584 329.217 29.3867 328.897 29.248C328.588 29.0987 328.252 29.024 327.889 29.024C327.516 29.024 327.174 29.0933 326.865 29.232C326.556 29.3707 326.284 29.568 326.049 29.824C325.825 30.0693 325.649 30.3733 325.521 30.736C325.393 31.088 325.329 31.4773 325.329 31.904V32.16C325.329 33.0667 325.564 33.776 326.033 34.288C326.513 34.7893 327.132 35.04 327.889 35.04ZM334.214 28.064H336.71V24.8H337.958V28.064H341.03V29.216H337.958V34.368C337.958 34.688 338.102 34.848 338.39 34.848H340.646V36H337.942C337.579 36 337.28 35.8827 337.046 35.648C336.822 35.4133 336.71 35.1147 336.71 34.752V29.216H334.214V28.064ZM345.195 32.416C345.227 33.2053 345.472 33.84 345.931 34.32C346.389 34.8 347.029 35.04 347.851 35.04C348.224 35.04 348.549 34.9973 348.827 34.912C349.104 34.8267 349.339 34.7093 349.531 34.56C349.733 34.4107 349.893 34.24 350.011 34.048C350.139 33.8453 350.24 33.632 350.315 33.408L351.499 33.728C351.275 34.464 350.859 35.0667 350.251 35.536C349.653 35.9947 348.843 36.224 347.819 36.224C347.253 36.224 346.731 36.128 346.251 35.936C345.781 35.7333 345.376 35.4507 345.035 35.088C344.693 34.7253 344.427 34.2933 344.235 33.792C344.043 33.2907 343.947 32.736 343.947 32.128V31.744C343.947 31.1893 344.043 30.672 344.235 30.192C344.437 29.712 344.715 29.3013 345.067 28.96C345.419 28.608 345.829 28.336 346.299 28.144C346.779 27.9413 347.296 27.84 347.851 27.84C348.501 27.84 349.061 27.9627 349.531 28.208C350.011 28.4427 350.4 28.736 350.699 29.088C351.008 29.44 351.232 29.824 351.371 30.24C351.52 30.656 351.595 31.04 351.595 31.392V32.416H345.195ZM347.851 29.024C347.499 29.024 347.168 29.0827 346.859 29.2C346.56 29.3067 346.293 29.4613 346.059 29.664C345.835 29.8667 345.648 30.1067 345.499 30.384C345.36 30.6507 345.269 30.944 345.227 31.264H350.347C350.325 30.9227 350.24 30.6133 350.091 30.336C349.952 30.0587 349.765 29.824 349.531 29.632C349.307 29.44 349.045 29.2907 348.747 29.184C348.459 29.0773 348.16 29.024 347.851 29.024ZM368.116 30.144C368.596 30.144 368.991 29.968 369.3 29.616C369.62 29.264 369.78 28.8 369.78 28.224V28.128C369.78 27.808 369.722 27.5093 369.604 27.232C369.498 26.9547 369.343 26.7147 369.14 26.512C368.938 26.2987 368.692 26.1333 368.404 26.016C368.116 25.888 367.796 25.824 367.444 25.824C366.676 25.824 366.074 26.0587 365.636 26.528C365.199 26.9973 364.98 27.616 364.98 28.384V29.056H363.636V28.288C363.636 27.7973 363.716 27.328 363.876 26.88C364.047 26.432 364.292 26.0373 364.612 25.696C364.932 25.3547 365.332 25.0827 365.812 24.88C366.292 24.6773 366.847 24.576 367.476 24.576C368.01 24.576 368.5 24.6667 368.948 24.848C369.396 25.0293 369.78 25.28 370.1 25.6C370.42 25.9093 370.671 26.272 370.852 26.688C371.034 27.0933 371.124 27.5253 371.124 27.984V28.272C371.124 28.688 371.05 29.088 370.9 29.472C370.762 29.8453 370.564 30.1707 370.308 30.448C370.052 30.7253 369.748 30.9493 369.396 31.12C369.055 31.28 368.682 31.36 368.276 31.36H368.052C367.754 31.36 367.604 31.52 367.604 31.84V33.024H366.324V31.52C366.324 31.1147 366.452 30.784 366.708 30.528C366.964 30.272 367.295 30.144 367.7 30.144H368.116ZM365.86 35.104C365.86 34.7947 365.967 34.5333 366.18 34.32C366.404 34.096 366.671 33.984 366.98 33.984C367.29 33.984 367.551 34.096 367.764 34.32C367.988 34.5333 368.1 34.7947 368.1 35.104C368.1 35.4133 367.988 35.68 367.764 35.904C367.551 36.1173 367.29 36.224 366.98 36.224C366.671 36.224 366.404 36.1173 366.18 35.904C365.967 35.68 365.86 35.4133 365.86 35.104Z" fill="white"/>
<path d="M399.987 28L398.579 29.408L397.779 29.856L397.859 30.048L398.579 29.824H400.739V30.976H398.579L397.859 30.752L397.779 30.944L398.579 31.392L399.987 32.8L399.171 33.616L397.763 32.208L397.315 31.408L397.123 31.488L397.347 32.208V34.368H396.195V32.208L396.419 31.488L396.227 31.408L395.779 32.208L394.371 33.616L393.555 32.8L394.963 31.392L395.763 30.944L395.683 30.752L394.963 30.976H392.803V29.824H394.963L395.683 30.048L395.763 29.856L394.963 29.408L393.555 28L394.371 27.184L395.779 28.592L396.227 29.392L396.419 29.312L396.195 28.592V26.432H397.347V28.592L397.123 29.312L397.315 29.392L397.763 28.592L399.171 27.184L399.987 28Z" fill="#FF0000"/>
</svg>
