<svg width="576" height="34" viewBox="0 0 576 34" fill="none" xmlns="http://www.w3.org/2000/svg">
<path d="M0.448582 0.199999H7.33658V1.292H4.48058V10H3.30458V1.292H0.448582V0.199999ZM11.5968 6.864C11.6248 7.55467 11.8395 8.11 12.2408 8.53C12.6422 8.95 13.2022 9.16 13.9208 9.16C14.2475 9.16 14.5322 9.12267 14.7748 9.048C15.0175 8.97333 15.2228 8.87067 15.3908 8.74C15.5682 8.60933 15.7082 8.46 15.8108 8.292C15.9228 8.11467 16.0115 7.928 16.0768 7.732L17.1128 8.012C16.9168 8.656 16.5528 9.18333 16.0208 9.594C15.4982 9.99533 14.7888 10.196 13.8928 10.196C13.3982 10.196 12.9408 10.112 12.5208 9.944C12.1102 9.76667 11.7555 9.51933 11.4568 9.202C11.1582 8.88467 10.9248 8.50667 10.7568 8.068C10.5888 7.62933 10.5048 7.144 10.5048 6.612V6.276C10.5048 5.79067 10.5888 5.338 10.7568 4.918C10.9342 4.498 11.1768 4.13867 11.4848 3.84C11.7928 3.532 12.1522 3.294 12.5628 3.126C12.9828 2.94867 13.4355 2.86 13.9208 2.86C14.4902 2.86 14.9802 2.96733 15.3908 3.182C15.8108 3.38733 16.1515 3.644 16.4128 3.952C16.6835 4.26 16.8795 4.596 17.0008 4.96C17.1315 5.324 17.1968 5.66 17.1968 5.968V6.864H11.5968ZM13.9208 3.896C13.6128 3.896 13.3235 3.94733 13.0528 4.05C12.7915 4.14333 12.5582 4.27867 12.3528 4.456C12.1568 4.63333 11.9935 4.84333 11.8628 5.086C11.7415 5.31933 11.6622 5.576 11.6248 5.856H16.1048C16.0862 5.55733 16.0115 5.28667 15.8808 5.044C15.7595 4.80133 15.5962 4.596 15.3908 4.428C15.1948 4.26 14.9662 4.12933 14.7048 4.036C14.4528 3.94267 14.1915 3.896 13.9208 3.896ZM25.8111 8.824H25.6431C25.4191 9.29067 25.1064 9.636 24.7051 9.86C24.3131 10.084 23.8978 10.196 23.4591 10.196C23.0018 10.196 22.5771 10.1213 22.1851 9.972C21.7931 9.81333 21.4478 9.58467 21.1491 9.286C20.8598 8.978 20.6311 8.60467 20.4631 8.166C20.2951 7.72733 20.2111 7.21867 20.2111 6.64V6.416C20.2111 5.84667 20.2951 5.34267 20.4631 4.904C20.6311 4.46533 20.8598 4.09667 21.1491 3.798C21.4478 3.49 21.7931 3.25667 22.1851 3.098C22.5771 2.93933 22.9924 2.86 23.4311 2.86C23.9071 2.86 24.3364 2.96733 24.7191 3.182C25.1111 3.38733 25.4191 3.70933 25.6431 4.148H25.8111V3.056H26.9031V8.572C26.9031 8.852 27.0291 8.992 27.2811 8.992H27.6311V10H26.8891C26.5718 10 26.3104 9.89733 26.1051 9.692C25.9091 9.48667 25.8111 9.22533 25.8111 8.908V8.824ZM23.5711 9.16C23.8978 9.16 24.1964 9.09933 24.4671 8.978C24.7471 8.85667 24.9851 8.684 25.1811 8.46C25.3771 8.236 25.5311 7.97 25.6431 7.662C25.7551 7.34467 25.8111 6.99467 25.8111 6.612V6.444C25.8111 6.07067 25.7551 5.73 25.6431 5.422C25.5311 5.10467 25.3724 4.834 25.1671 4.61C24.9711 4.386 24.7331 4.21333 24.4531 4.092C24.1824 3.96133 23.8884 3.896 23.5711 3.896C23.2444 3.896 22.9458 3.95667 22.6751 4.078C22.4044 4.19933 22.1664 4.372 21.9611 4.596C21.7651 4.81067 21.6111 5.07667 21.4991 5.394C21.3871 5.702 21.3311 6.04267 21.3311 6.416V6.64C21.3311 7.43333 21.5364 8.054 21.9471 8.502C22.3671 8.94067 22.9084 9.16 23.5711 9.16ZM37.4214 10H36.3294V5.016C36.3294 4.68933 36.2547 4.42333 36.1054 4.218C35.956 4.00333 35.718 3.896 35.3914 3.896C35.0834 3.896 34.8314 4.01267 34.6354 4.246C34.4487 4.47 34.3554 4.82 34.3554 5.296V10H33.2634V4.96C33.2634 4.652 33.1794 4.4 33.0114 4.204C32.8434 3.99867 32.6194 3.896 32.3394 3.896C32.0034 3.896 31.742 4.01733 31.5554 4.26C31.378 4.50267 31.2894 4.82 31.2894 5.212V10H30.1974V3.056H31.2894V3.812H31.4574C31.5787 3.48533 31.756 3.24733 31.9894 3.098C32.2227 2.93933 32.498 2.86 32.8154 2.86C33.1514 2.86 33.4267 2.94867 33.6414 3.126C33.8654 3.30333 34.0194 3.532 34.1034 3.812H34.2714C34.5887 3.17733 35.0927 2.86 35.7834 2.86C36.306 2.86 36.7074 3.028 36.9874 3.364C37.2767 3.69067 37.4214 4.12 37.4214 4.652V10ZM50.6879 0.199999H51.8639V8.908H56.9879V10H50.6879V0.199999ZM61.4582 6.864C61.4862 7.55467 61.7008 8.11 62.1022 8.53C62.5035 8.95 63.0635 9.16 63.7822 9.16C64.1088 9.16 64.3935 9.12267 64.6362 9.048C64.8788 8.97333 65.0842 8.87067 65.2522 8.74C65.4295 8.60933 65.5695 8.46 65.6722 8.292C65.7842 8.11467 65.8728 7.928 65.9382 7.732L66.9742 8.012C66.7782 8.656 66.4142 9.18333 65.8822 9.594C65.3595 9.99533 64.6502 10.196 63.7542 10.196C63.2595 10.196 62.8022 10.112 62.3822 9.944C61.9715 9.76667 61.6168 9.51933 61.3182 9.202C61.0195 8.88467 60.7862 8.50667 60.6182 8.068C60.4502 7.62933 60.3662 7.144 60.3662 6.612V6.276C60.3662 5.79067 60.4502 5.338 60.6182 4.918C60.7955 4.498 61.0382 4.13867 61.3462 3.84C61.6542 3.532 62.0135 3.294 62.4242 3.126C62.8442 2.94867 63.2968 2.86 63.7822 2.86C64.3515 2.86 64.8415 2.96733 65.2522 3.182C65.6722 3.38733 66.0128 3.644 66.2742 3.952C66.5448 4.26 66.7408 4.596 66.8622 4.96C66.9928 5.324 67.0582 5.66 67.0582 5.968V6.864H61.4582ZM63.7822 3.896C63.4742 3.896 63.1848 3.94733 62.9142 4.05C62.6528 4.14333 62.4195 4.27867 62.2142 4.456C62.0182 4.63333 61.8548 4.84333 61.7242 5.086C61.6028 5.31933 61.5235 5.576 61.4862 5.856H65.9662C65.9475 5.55733 65.8728 5.28667 65.7422 5.044C65.6208 4.80133 65.4575 4.596 65.2522 4.428C65.0562 4.26 64.8275 4.12933 64.5662 4.036C64.3142 3.94267 64.0528 3.896 63.7822 3.896ZM75.6724 8.824H75.5044C75.2804 9.29067 74.9678 9.636 74.5664 9.86C74.1744 10.084 73.7591 10.196 73.3204 10.196C72.8631 10.196 72.4384 10.1213 72.0464 9.972C71.6544 9.81333 71.3091 9.58467 71.0104 9.286C70.7211 8.978 70.4924 8.60467 70.3244 8.166C70.1564 7.72733 70.0724 7.21867 70.0724 6.64V6.416C70.0724 5.84667 70.1564 5.34267 70.3244 4.904C70.4924 4.46533 70.7211 4.09667 71.0104 3.798C71.3091 3.49 71.6544 3.25667 72.0464 3.098C72.4384 2.93933 72.8538 2.86 73.2924 2.86C73.7684 2.86 74.1978 2.96733 74.5804 3.182C74.9724 3.38733 75.2804 3.70933 75.5044 4.148H75.6724V3.056H76.7644V8.572C76.7644 8.852 76.8904 8.992 77.1424 8.992H77.4924V10H76.7504C76.4331 10 76.1718 9.89733 75.9664 9.692C75.7704 9.48667 75.6724 9.22533 75.6724 8.908V8.824ZM73.4324 9.16C73.7591 9.16 74.0578 9.09933 74.3284 8.978C74.6084 8.85667 74.8464 8.684 75.0424 8.46C75.2384 8.236 75.3924 7.97 75.5044 7.662C75.6164 7.34467 75.6724 6.99467 75.6724 6.612V6.444C75.6724 6.07067 75.6164 5.73 75.5044 5.422C75.3924 5.10467 75.2338 4.834 75.0284 4.61C74.8324 4.386 74.5944 4.21333 74.3144 4.092C74.0438 3.96133 73.7498 3.896 73.4324 3.896C73.1058 3.896 72.8071 3.95667 72.5364 4.078C72.2658 4.19933 72.0278 4.372 71.8224 4.596C71.6264 4.81067 71.4724 5.07667 71.3604 5.394C71.2484 5.702 71.1924 6.04267 71.1924 6.416V6.64C71.1924 7.43333 71.3978 8.054 71.8084 8.502C72.2284 8.94067 72.7698 9.16 73.4324 9.16ZM85.9807 8.936H85.8127C85.7007 9.15067 85.556 9.33733 85.3787 9.496C85.2107 9.65467 85.024 9.78533 84.8187 9.888C84.6227 9.99067 84.4127 10.0653 84.1887 10.112C83.9647 10.168 83.75 10.196 83.5447 10.196C83.078 10.196 82.644 10.1167 82.2427 9.958C81.8414 9.79933 81.4867 9.57067 81.1787 9.272C80.88 8.97333 80.642 8.60467 80.4647 8.166C80.2967 7.718 80.2127 7.20933 80.2127 6.64V6.416C80.2127 5.856 80.3014 5.35667 80.4787 4.918C80.656 4.47 80.894 4.09667 81.1927 3.798C81.4914 3.49 81.8414 3.25667 82.2427 3.098C82.644 2.93933 83.0687 2.86 83.5167 2.86C83.9927 2.86 84.436 2.96733 84.8467 3.182C85.2667 3.38733 85.5887 3.70933 85.8127 4.148H85.9807V0.199999H87.0727V10H85.9807V8.936ZM83.6567 9.16C83.9834 9.16 84.2867 9.09933 84.5667 8.978C84.8467 8.85667 85.0894 8.684 85.2947 8.46C85.5094 8.236 85.6774 7.97 85.7987 7.662C85.92 7.34467 85.9807 6.99467 85.9807 6.612V6.444C85.9807 6.07067 85.92 5.73 85.7987 5.422C85.6774 5.10467 85.5094 4.834 85.2947 4.61C85.0894 4.386 84.842 4.21333 84.5527 4.092C84.2727 3.96133 83.974 3.896 83.6567 3.896C83.33 3.896 83.022 3.95667 82.7327 4.078C82.4527 4.19933 82.2054 4.372 81.9907 4.596C81.7854 4.82 81.622 5.086 81.5007 5.394C81.3887 5.702 81.3327 6.04267 81.3327 6.416V6.64C81.3327 7.032 81.3887 7.382 81.5007 7.69C81.622 7.998 81.7854 8.264 81.9907 8.488C82.2054 8.70267 82.4527 8.87067 82.7327 8.992C83.0127 9.104 83.3207 9.16 83.6567 9.16ZM107.451 5.632H106.093V10H102.957C102.491 10 102.075 9.93467 101.711 9.804C101.347 9.67333 101.044 9.496 100.801 9.272C100.559 9.03867 100.372 8.768 100.241 8.46C100.12 8.14267 100.059 7.802 100.059 7.438V7.27C100.059 6.738 100.218 6.29 100.535 5.926C100.853 5.55267 101.245 5.30067 101.711 5.17V5.002C101.245 4.88067 100.853 4.638 100.535 4.274C100.218 3.90067 100.059 3.448 100.059 2.916V2.748C100.059 2.384 100.12 2.048 100.241 1.74C100.372 1.42267 100.559 1.152 100.801 0.928C101.044 0.704 101.347 0.526666 101.711 0.395999C102.075 0.265333 102.491 0.199999 102.957 0.199999H104.749V1.292H103.041C102.491 1.292 102.043 1.432 101.697 1.712C101.352 1.98267 101.179 2.356 101.179 2.832V2.916C101.179 3.42 101.343 3.81667 101.669 4.106C101.996 4.39533 102.439 4.54 102.999 4.54H104.917V3.056H106.093V4.54H107.451V5.632ZM104.917 8.908V5.632H102.999C102.439 5.632 101.996 5.78133 101.669 6.08C101.343 6.36933 101.179 6.766 101.179 7.27V7.354C101.179 7.83933 101.352 8.222 101.697 8.502C102.043 8.77267 102.491 8.908 103.041 8.908H104.917ZM120.116 0.199999H127.004V1.292H124.148V10H122.972V1.292H120.116V0.199999ZM131.264 6.864C131.292 7.55467 131.507 8.11 131.908 8.53C132.309 8.95 132.869 9.16 133.588 9.16C133.915 9.16 134.199 9.12267 134.442 9.048C134.685 8.97333 134.89 8.87067 135.058 8.74C135.235 8.60933 135.375 8.46 135.478 8.292C135.59 8.11467 135.679 7.928 135.744 7.732L136.78 8.012C136.584 8.656 136.22 9.18333 135.688 9.594C135.165 9.99533 134.456 10.196 133.56 10.196C133.065 10.196 132.608 10.112 132.188 9.944C131.777 9.76667 131.423 9.51933 131.124 9.202C130.825 8.88467 130.592 8.50667 130.424 8.068C130.256 7.62933 130.172 7.144 130.172 6.612V6.276C130.172 5.79067 130.256 5.338 130.424 4.918C130.601 4.498 130.844 4.13867 131.152 3.84C131.46 3.532 131.819 3.294 132.23 3.126C132.65 2.94867 133.103 2.86 133.588 2.86C134.157 2.86 134.647 2.96733 135.058 3.182C135.478 3.38733 135.819 3.644 136.08 3.952C136.351 4.26 136.547 4.596 136.668 4.96C136.799 5.324 136.864 5.66 136.864 5.968V6.864H131.264ZM133.588 3.896C133.28 3.896 132.991 3.94733 132.72 4.05C132.459 4.14333 132.225 4.27867 132.02 4.456C131.824 4.63333 131.661 4.84333 131.53 5.086C131.409 5.31933 131.329 5.576 131.292 5.856H135.772C135.753 5.55733 135.679 5.28667 135.548 5.044C135.427 4.80133 135.263 4.596 135.058 4.428C134.862 4.26 134.633 4.12933 134.372 4.036C134.12 3.94267 133.859 3.896 133.588 3.896ZM145.478 8.824H145.31C145.086 9.29067 144.774 9.636 144.372 9.86C143.98 10.084 143.565 10.196 143.126 10.196C142.669 10.196 142.244 10.1213 141.852 9.972C141.46 9.81333 141.115 9.58467 140.816 9.286C140.527 8.978 140.298 8.60467 140.13 8.166C139.962 7.72733 139.878 7.21867 139.878 6.64V6.416C139.878 5.84667 139.962 5.34267 140.13 4.904C140.298 4.46533 140.527 4.09667 140.816 3.798C141.115 3.49 141.46 3.25667 141.852 3.098C142.244 2.93933 142.66 2.86 143.098 2.86C143.574 2.86 144.004 2.96733 144.386 3.182C144.778 3.38733 145.086 3.70933 145.31 4.148H145.478V3.056H146.57V8.572C146.57 8.852 146.696 8.992 146.948 8.992H147.298V10H146.556C146.239 10 145.978 9.89733 145.772 9.692C145.576 9.48667 145.478 9.22533 145.478 8.908V8.824ZM143.238 9.16C143.565 9.16 143.864 9.09933 144.134 8.978C144.414 8.85667 144.652 8.684 144.848 8.46C145.044 8.236 145.198 7.97 145.31 7.662C145.422 7.34467 145.478 6.99467 145.478 6.612V6.444C145.478 6.07067 145.422 5.73 145.31 5.422C145.198 5.10467 145.04 4.834 144.834 4.61C144.638 4.386 144.4 4.21333 144.12 4.092C143.85 3.96133 143.556 3.896 143.238 3.896C142.912 3.896 142.613 3.95667 142.342 4.078C142.072 4.19933 141.834 4.372 141.628 4.596C141.432 4.81067 141.278 5.07667 141.166 5.394C141.054 5.702 140.998 6.04267 140.998 6.416V6.64C140.998 7.43333 141.204 8.054 141.614 8.502C142.034 8.94067 142.576 9.16 143.238 9.16ZM157.089 10H155.997V5.016C155.997 4.68933 155.922 4.42333 155.773 4.218C155.623 4.00333 155.385 3.896 155.059 3.896C154.751 3.896 154.499 4.01267 154.303 4.246C154.116 4.47 154.023 4.82 154.023 5.296V10H152.931V4.96C152.931 4.652 152.847 4.4 152.679 4.204C152.511 3.99867 152.287 3.896 152.007 3.896C151.671 3.896 151.409 4.01733 151.223 4.26C151.045 4.50267 150.957 4.82 150.957 5.212V10H149.865V3.056H150.957V3.812H151.125C151.246 3.48533 151.423 3.24733 151.657 3.098C151.89 2.93933 152.165 2.86 152.483 2.86C152.819 2.86 153.094 2.94867 153.309 3.126C153.533 3.30333 153.687 3.532 153.771 3.812H153.939C154.256 3.17733 154.76 2.86 155.451 2.86C155.973 2.86 156.375 3.028 156.655 3.364C156.944 3.69067 157.089 4.12 157.089 4.652V10ZM167.061 10H165.969V5.016C165.969 4.68933 165.894 4.42333 165.745 4.218C165.595 4.00333 165.357 3.896 165.031 3.896C164.723 3.896 164.471 4.01267 164.275 4.246C164.088 4.47 163.995 4.82 163.995 5.296V10H162.903V4.96C162.903 4.652 162.819 4.4 162.651 4.204C162.483 3.99867 162.259 3.896 161.979 3.896C161.643 3.896 161.381 4.01733 161.195 4.26C161.017 4.50267 160.929 4.82 160.929 5.212V10H159.837V3.056H160.929V3.812H161.097C161.218 3.48533 161.395 3.24733 161.629 3.098C161.862 2.93933 162.137 2.86 162.455 2.86C162.791 2.86 163.066 2.94867 163.281 3.126C163.505 3.30333 163.659 3.532 163.743 3.812H163.911C164.228 3.17733 164.732 2.86 165.423 2.86C165.945 2.86 166.347 3.028 166.627 3.364C166.916 3.69067 167.061 4.12 167.061 4.652V10ZM175.395 8.824H175.227C175.003 9.29067 174.69 9.636 174.289 9.86C173.897 10.084 173.482 10.196 173.043 10.196C172.586 10.196 172.161 10.1213 171.769 9.972C171.377 9.81333 171.032 9.58467 170.733 9.286C170.444 8.978 170.215 8.60467 170.047 8.166C169.879 7.72733 169.795 7.21867 169.795 6.64V6.416C169.795 5.84667 169.879 5.34267 170.047 4.904C170.215 4.46533 170.444 4.09667 170.733 3.798C171.032 3.49 171.377 3.25667 171.769 3.098C172.161 2.93933 172.576 2.86 173.015 2.86C173.491 2.86 173.92 2.96733 174.303 3.182C174.695 3.38733 175.003 3.70933 175.227 4.148H175.395V3.056H176.487V8.572C176.487 8.852 176.613 8.992 176.865 8.992H177.215V10H176.473C176.156 10 175.894 9.89733 175.689 9.692C175.493 9.48667 175.395 9.22533 175.395 8.908V8.824ZM173.155 9.16C173.482 9.16 173.78 9.09933 174.051 8.978C174.331 8.85667 174.569 8.684 174.765 8.46C174.961 8.236 175.115 7.97 175.227 7.662C175.339 7.34467 175.395 6.99467 175.395 6.612V6.444C175.395 6.07067 175.339 5.73 175.227 5.422C175.115 5.10467 174.956 4.834 174.751 4.61C174.555 4.386 174.317 4.21333 174.037 4.092C173.766 3.96133 173.472 3.896 173.155 3.896C172.828 3.896 172.53 3.95667 172.259 4.078C171.988 4.19933 171.75 4.372 171.545 4.596C171.349 4.81067 171.195 5.07667 171.083 5.394C170.971 5.702 170.915 6.04267 170.915 6.416V6.64C170.915 7.43333 171.12 8.054 171.531 8.502C171.951 8.94067 172.492 9.16 173.155 9.16ZM180.089 3.056H182.273V0.199999H183.365V3.056H186.053V4.064H183.365V8.572C183.365 8.852 183.491 8.992 183.743 8.992H185.717V10H183.351C183.034 10 182.773 9.89733 182.567 9.692C182.371 9.48667 182.273 9.22533 182.273 8.908V4.064H180.089V3.056ZM191.098 6.864C191.126 7.55467 191.34 8.11 191.742 8.53C192.143 8.95 192.703 9.16 193.422 9.16C193.748 9.16 194.033 9.12267 194.276 9.048C194.518 8.97333 194.724 8.87067 194.892 8.74C195.069 8.60933 195.209 8.46 195.312 8.292C195.424 8.11467 195.512 7.928 195.578 7.732L196.614 8.012C196.418 8.656 196.054 9.18333 195.522 9.594C194.999 9.99533 194.29 10.196 193.394 10.196C192.899 10.196 192.442 10.112 192.022 9.944C191.611 9.76667 191.256 9.51933 190.958 9.202C190.659 8.88467 190.426 8.50667 190.258 8.068C190.09 7.62933 190.006 7.144 190.006 6.612V6.276C190.006 5.79067 190.09 5.338 190.258 4.918C190.435 4.498 190.678 4.13867 190.986 3.84C191.294 3.532 191.653 3.294 192.064 3.126C192.484 2.94867 192.936 2.86 193.422 2.86C193.991 2.86 194.481 2.96733 194.892 3.182C195.312 3.38733 195.652 3.644 195.914 3.952C196.184 4.26 196.38 4.596 196.502 4.96C196.632 5.324 196.698 5.66 196.698 5.968V6.864H191.098ZM193.422 3.896C193.114 3.896 192.824 3.94733 192.554 4.05C192.292 4.14333 192.059 4.27867 191.854 4.456C191.658 4.63333 191.494 4.84333 191.364 5.086C191.242 5.31933 191.163 5.576 191.126 5.856H195.606C195.587 5.55733 195.512 5.28667 195.382 5.044C195.26 4.80133 195.097 4.596 194.892 4.428C194.696 4.26 194.467 4.12933 194.206 4.036C193.954 3.94267 193.692 3.896 193.422 3.896ZM201.714 4.848C201.714 5.184 201.854 5.44067 202.134 5.618C202.423 5.79533 202.946 5.912 203.702 5.968C204.514 6.03333 205.13 6.22933 205.55 6.556C205.979 6.87333 206.194 7.34 206.194 7.956V8.04C206.194 8.376 206.124 8.67933 205.984 8.95C205.853 9.21133 205.667 9.43533 205.424 9.622C205.191 9.80867 204.901 9.94867 204.556 10.042C204.22 10.1447 203.851 10.196 203.45 10.196C202.909 10.196 202.442 10.126 202.05 9.986C201.667 9.83667 201.345 9.64533 201.084 9.412C200.832 9.16933 200.641 8.89867 200.51 8.6C200.379 8.292 200.305 7.984 200.286 7.676L201.322 7.424C201.369 7.956 201.574 8.38533 201.938 8.712C202.302 9.02933 202.787 9.188 203.394 9.188C203.907 9.188 204.318 9.09 204.626 8.894C204.943 8.68867 205.102 8.404 205.102 8.04C205.102 7.648 204.948 7.368 204.64 7.2C204.332 7.032 203.833 6.92467 203.142 6.878C202.339 6.822 201.723 6.63533 201.294 6.318C200.865 6.00067 200.65 5.53867 200.65 4.932V4.848C200.65 4.52133 200.72 4.23667 200.86 3.994C201 3.742 201.187 3.532 201.42 3.364C201.663 3.196 201.933 3.07 202.232 2.986C202.531 2.902 202.843 2.86 203.17 2.86C203.627 2.86 204.029 2.92533 204.374 3.056C204.719 3.17733 205.009 3.34067 205.242 3.546C205.475 3.742 205.653 3.97067 205.774 4.232C205.905 4.49333 205.989 4.75467 206.026 5.016L204.99 5.268C204.943 4.82 204.761 4.47 204.444 4.218C204.136 3.966 203.73 3.84 203.226 3.84C203.03 3.84 202.839 3.86333 202.652 3.91C202.475 3.94733 202.316 4.008 202.176 4.092C202.036 4.176 201.924 4.28333 201.84 4.414C201.756 4.53533 201.714 4.68 201.714 4.848ZM225.256 8.824H225.088C224.864 9.29067 224.552 9.636 224.15 9.86C223.758 10.084 223.343 10.196 222.904 10.196C222.447 10.196 222.022 10.1213 221.63 9.972C221.238 9.81333 220.893 9.58467 220.594 9.286C220.305 8.978 220.076 8.60467 219.908 8.166C219.74 7.72733 219.656 7.21867 219.656 6.64V6.416C219.656 5.84667 219.74 5.34267 219.908 4.904C220.076 4.46533 220.305 4.09667 220.594 3.798C220.893 3.49 221.238 3.25667 221.63 3.098C222.022 2.93933 222.438 2.86 222.876 2.86C223.352 2.86 223.782 2.96733 224.164 3.182C224.556 3.38733 224.864 3.70933 225.088 4.148H225.256V3.056H226.348V8.572C226.348 8.852 226.474 8.992 226.726 8.992H227.076V10H226.334C226.017 10 225.756 9.89733 225.55 9.692C225.354 9.48667 225.256 9.22533 225.256 8.908V8.824ZM223.016 9.16C223.343 9.16 223.642 9.09933 223.912 8.978C224.192 8.85667 224.43 8.684 224.626 8.46C224.822 8.236 224.976 7.97 225.088 7.662C225.2 7.34467 225.256 6.99467 225.256 6.612V6.444C225.256 6.07067 225.2 5.73 225.088 5.422C224.976 5.10467 224.818 4.834 224.612 4.61C224.416 4.386 224.178 4.21333 223.898 4.092C223.628 3.96133 223.334 3.896 223.016 3.896C222.69 3.896 222.391 3.95667 222.12 4.078C221.85 4.19933 221.612 4.372 221.406 4.596C221.21 4.81067 221.056 5.07667 220.944 5.394C220.832 5.702 220.776 6.04267 220.776 6.416V6.64C220.776 7.43333 220.982 8.054 221.392 8.502C221.812 8.94067 222.354 9.16 223.016 9.16ZM229.797 3.056H232.317V3.98H232.485C232.662 3.59733 232.914 3.31733 233.241 3.14C233.567 2.95333 233.941 2.86 234.361 2.86C235.061 2.86 235.625 3.08867 236.055 3.546C236.484 4.00333 236.713 4.67067 236.741 5.548L235.593 5.716C235.593 5.072 235.439 4.61 235.131 4.33C234.823 4.04067 234.445 3.896 233.997 3.896C233.707 3.896 233.455 3.952 233.241 4.064C233.035 4.176 232.863 4.33 232.723 4.526C232.583 4.722 232.48 4.95067 232.415 5.212C232.349 5.47333 232.317 5.75333 232.317 6.052V8.992H234.081V10H229.629V8.992H231.225V4.064H229.797V3.056ZM240.959 6.864C240.987 7.55467 241.202 8.11 241.603 8.53C242.004 8.95 242.564 9.16 243.283 9.16C243.61 9.16 243.894 9.12267 244.137 9.048C244.38 8.97333 244.585 8.87067 244.753 8.74C244.93 8.60933 245.07 8.46 245.173 8.292C245.285 8.11467 245.374 7.928 245.439 7.732L246.475 8.012C246.279 8.656 245.915 9.18333 245.383 9.594C244.86 9.99533 244.151 10.196 243.255 10.196C242.76 10.196 242.303 10.112 241.883 9.944C241.472 9.76667 241.118 9.51933 240.819 9.202C240.52 8.88467 240.287 8.50667 240.119 8.068C239.951 7.62933 239.867 7.144 239.867 6.612V6.276C239.867 5.79067 239.951 5.338 240.119 4.918C240.296 4.498 240.539 4.13867 240.847 3.84C241.155 3.532 241.514 3.294 241.925 3.126C242.345 2.94867 242.798 2.86 243.283 2.86C243.852 2.86 244.342 2.96733 244.753 3.182C245.173 3.38733 245.514 3.644 245.775 3.952C246.046 4.26 246.242 4.596 246.363 4.96C246.494 5.324 246.559 5.66 246.559 5.968V6.864H240.959ZM243.283 3.896C242.975 3.896 242.686 3.94733 242.415 4.05C242.154 4.14333 241.92 4.27867 241.715 4.456C241.519 4.63333 241.356 4.84333 241.225 5.086C241.104 5.31933 241.024 5.576 240.987 5.856H245.467C245.448 5.55733 245.374 5.28667 245.243 5.044C245.122 4.80133 244.958 4.596 244.753 4.428C244.557 4.26 244.328 4.12933 244.067 4.036C243.815 3.94267 243.554 3.896 243.283 3.896ZM259.867 3.056H262.051V0.199999H263.143V3.056H265.831V4.064H263.143V8.572C263.143 8.852 263.269 8.992 263.521 8.992H265.495V10H263.129C262.812 10 262.551 9.89733 262.345 9.692C262.149 9.48667 262.051 9.22533 262.051 8.908V4.064H259.867V3.056ZM276.084 10H274.068L273.228 3.56H273.06L272.22 10H270.204L269.112 3.056H270.232L271.156 9.496H271.324L272.136 3.056H274.152L274.964 9.496H275.132L276.056 3.056H277.176L276.084 10ZM286.602 6.612C286.602 7.19067 286.504 7.704 286.308 8.152C286.121 8.59067 285.869 8.964 285.552 9.272C285.235 9.57067 284.861 9.79933 284.432 9.958C284.012 10.1167 283.573 10.196 283.116 10.196C282.649 10.196 282.206 10.1167 281.786 9.958C281.366 9.79933 280.997 9.57067 280.68 9.272C280.363 8.964 280.106 8.59067 279.91 8.152C279.723 7.704 279.63 7.19067 279.63 6.612V6.444C279.63 5.87467 279.723 5.37067 279.91 4.932C280.106 4.484 280.363 4.106 280.68 3.798C281.007 3.49 281.38 3.25667 281.8 3.098C282.22 2.93933 282.659 2.86 283.116 2.86C283.573 2.86 284.012 2.93933 284.432 3.098C284.852 3.25667 285.221 3.49 285.538 3.798C285.865 4.106 286.121 4.484 286.308 4.932C286.504 5.37067 286.602 5.87467 286.602 6.444V6.612ZM283.116 9.16C283.452 9.16 283.76 9.104 284.04 8.992C284.329 8.87067 284.581 8.698 284.796 8.474C285.011 8.25 285.179 7.984 285.3 7.676C285.421 7.35867 285.482 7.004 285.482 6.612V6.444C285.482 6.07067 285.421 5.73 285.3 5.422C285.179 5.10467 285.011 4.834 284.796 4.61C284.581 4.386 284.329 4.21333 284.04 4.092C283.751 3.96133 283.443 3.896 283.116 3.896C282.789 3.896 282.481 3.96133 282.192 4.092C281.903 4.21333 281.651 4.386 281.436 4.61C281.221 4.834 281.053 5.10467 280.932 5.422C280.811 5.73 280.75 6.07067 280.75 6.444V6.612C280.75 7.004 280.811 7.35867 280.932 7.676C281.053 7.984 281.221 8.25 281.436 8.474C281.651 8.698 281.898 8.87067 282.178 8.992C282.467 9.104 282.78 9.16 283.116 9.16ZM301.437 4.848C301.437 5.184 301.577 5.44067 301.857 5.618C302.146 5.79533 302.669 5.912 303.425 5.968C304.237 6.03333 304.853 6.22933 305.273 6.556C305.702 6.87333 305.917 7.34 305.917 7.956V8.04C305.917 8.376 305.847 8.67933 305.707 8.95C305.576 9.21133 305.389 9.43533 305.147 9.622C304.913 9.80867 304.624 9.94867 304.279 10.042C303.943 10.1447 303.574 10.196 303.173 10.196C302.631 10.196 302.165 10.126 301.773 9.986C301.39 9.83667 301.068 9.64533 300.807 9.412C300.555 9.16933 300.363 8.89867 300.233 8.6C300.102 8.292 300.027 7.984 300.009 7.676L301.045 7.424C301.091 7.956 301.297 8.38533 301.661 8.712C302.025 9.02933 302.51 9.188 303.117 9.188C303.63 9.188 304.041 9.09 304.349 8.894C304.666 8.68867 304.825 8.404 304.825 8.04C304.825 7.648 304.671 7.368 304.363 7.2C304.055 7.032 303.555 6.92467 302.865 6.878C302.062 6.822 301.446 6.63533 301.017 6.318C300.587 6.00067 300.373 5.53867 300.373 4.932V4.848C300.373 4.52133 300.443 4.23667 300.583 3.994C300.723 3.742 300.909 3.532 301.143 3.364C301.385 3.196 301.656 3.07 301.955 2.986C302.253 2.902 302.566 2.86 302.893 2.86C303.35 2.86 303.751 2.92533 304.097 3.056C304.442 3.17733 304.731 3.34067 304.965 3.546C305.198 3.742 305.375 3.97067 305.497 4.232C305.627 4.49333 305.711 4.75467 305.749 5.016L304.713 5.268C304.666 4.82 304.484 4.47 304.167 4.218C303.859 3.966 303.453 3.84 302.949 3.84C302.753 3.84 302.561 3.86333 302.375 3.91C302.197 3.94733 302.039 4.008 301.899 4.092C301.759 4.176 301.647 4.28333 301.563 4.414C301.479 4.53533 301.437 4.68 301.437 4.848ZM310.765 6.864C310.793 7.55467 311.007 8.11 311.409 8.53C311.81 8.95 312.37 9.16 313.089 9.16C313.415 9.16 313.7 9.12267 313.943 9.048C314.185 8.97333 314.391 8.87067 314.559 8.74C314.736 8.60933 314.876 8.46 314.979 8.292C315.091 8.11467 315.179 7.928 315.245 7.732L316.281 8.012C316.085 8.656 315.721 9.18333 315.189 9.594C314.666 9.99533 313.957 10.196 313.061 10.196C312.566 10.196 312.109 10.112 311.689 9.944C311.278 9.76667 310.923 9.51933 310.625 9.202C310.326 8.88467 310.093 8.50667 309.925 8.068C309.757 7.62933 309.673 7.144 309.673 6.612V6.276C309.673 5.79067 309.757 5.338 309.925 4.918C310.102 4.498 310.345 4.13867 310.653 3.84C310.961 3.532 311.32 3.294 311.731 3.126C312.151 2.94867 312.603 2.86 313.089 2.86C313.658 2.86 314.148 2.96733 314.559 3.182C314.979 3.38733 315.319 3.644 315.581 3.952C315.851 4.26 316.047 4.596 316.169 4.96C316.299 5.324 316.365 5.66 316.365 5.968V6.864H310.765ZM313.089 3.896C312.781 3.896 312.491 3.94733 312.221 4.05C311.959 4.14333 311.726 4.27867 311.521 4.456C311.325 4.63333 311.161 4.84333 311.031 5.086C310.909 5.31933 310.83 5.576 310.793 5.856H315.273C315.254 5.55733 315.179 5.28667 315.049 5.044C314.927 4.80133 314.764 4.596 314.559 4.428C314.363 4.26 314.134 4.12933 313.873 4.036C313.621 3.94267 313.359 3.896 313.089 3.896ZM320.779 12.8H319.687V3.056H320.779V4.148H320.947C321.19 3.728 321.526 3.41067 321.955 3.196C322.384 2.972 322.851 2.86 323.355 2.86C323.784 2.86 324.19 2.93933 324.573 3.098C324.956 3.25667 325.292 3.48533 325.581 3.784C325.88 4.08267 326.113 4.45133 326.281 4.89C326.458 5.32867 326.547 5.828 326.547 6.388V6.668C326.547 7.23733 326.463 7.74133 326.295 8.18C326.127 8.61867 325.894 8.98733 325.595 9.286C325.306 9.58467 324.965 9.81333 324.573 9.972C324.181 10.1213 323.766 10.196 323.327 10.196C323.103 10.196 322.874 10.168 322.641 10.112C322.408 10.0653 322.184 9.99067 321.969 9.888C321.764 9.776 321.572 9.64533 321.395 9.496C321.218 9.33733 321.068 9.15067 320.947 8.936H320.779V12.8ZM323.103 9.16C323.439 9.16 323.747 9.104 324.027 8.992C324.307 8.87067 324.55 8.70267 324.755 8.488C324.97 8.27333 325.133 8.012 325.245 7.704C325.366 7.396 325.427 7.05067 325.427 6.668V6.388C325.427 6.01467 325.366 5.67867 325.245 5.38C325.133 5.072 324.97 4.81067 324.755 4.596C324.55 4.372 324.302 4.19933 324.013 4.078C323.733 3.95667 323.43 3.896 323.103 3.896C322.776 3.896 322.473 3.96133 322.193 4.092C321.913 4.21333 321.666 4.386 321.451 4.61C321.246 4.834 321.082 5.10467 320.961 5.422C320.84 5.73 320.779 6.07067 320.779 6.444V6.612C320.779 6.99467 320.84 7.34467 320.961 7.662C321.082 7.97 321.246 8.236 321.451 8.46C321.666 8.684 321.913 8.85667 322.193 8.978C322.473 9.09933 322.776 9.16 323.103 9.16ZM334.951 8.824H334.783C334.559 9.29067 334.247 9.636 333.845 9.86C333.453 10.084 333.038 10.196 332.599 10.196C332.142 10.196 331.717 10.1213 331.325 9.972C330.933 9.81333 330.588 9.58467 330.289 9.286C330 8.978 329.771 8.60467 329.603 8.166C329.435 7.72733 329.351 7.21867 329.351 6.64V6.416C329.351 5.84667 329.435 5.34267 329.603 4.904C329.771 4.46533 330 4.09667 330.289 3.798C330.588 3.49 330.933 3.25667 331.325 3.098C331.717 2.93933 332.133 2.86 332.571 2.86C333.047 2.86 333.477 2.96733 333.859 3.182C334.251 3.38733 334.559 3.70933 334.783 4.148H334.951V3.056H336.043V8.572C336.043 8.852 336.169 8.992 336.421 8.992H336.771V10H336.029C335.712 10 335.451 9.89733 335.245 9.692C335.049 9.48667 334.951 9.22533 334.951 8.908V8.824ZM332.711 9.16C333.038 9.16 333.337 9.09933 333.607 8.978C333.887 8.85667 334.125 8.684 334.321 8.46C334.517 8.236 334.671 7.97 334.783 7.662C334.895 7.34467 334.951 6.99467 334.951 6.612V6.444C334.951 6.07067 334.895 5.73 334.783 5.422C334.671 5.10467 334.513 4.834 334.307 4.61C334.111 4.386 333.873 4.21333 333.593 4.092C333.323 3.96133 333.029 3.896 332.711 3.896C332.385 3.896 332.086 3.95667 331.815 4.078C331.545 4.19933 331.307 4.372 331.101 4.596C330.905 4.81067 330.751 5.07667 330.639 5.394C330.527 5.702 330.471 6.04267 330.471 6.416V6.64C330.471 7.43333 330.677 8.054 331.087 8.502C331.507 8.94067 332.049 9.16 332.711 9.16ZM339.492 3.056H342.012V3.98H342.18C342.357 3.59733 342.609 3.31733 342.936 3.14C343.262 2.95333 343.636 2.86 344.056 2.86C344.756 2.86 345.32 3.08867 345.75 3.546C346.179 4.00333 346.408 4.67067 346.436 5.548L345.288 5.716C345.288 5.072 345.134 4.61 344.826 4.33C344.518 4.04067 344.14 3.896 343.692 3.896C343.402 3.896 343.15 3.952 342.936 4.064C342.73 4.176 342.558 4.33 342.418 4.526C342.278 4.722 342.175 4.95067 342.11 5.212C342.044 5.47333 342.012 5.75333 342.012 6.052V8.992H343.776V10H339.324V8.992H340.92V4.064H339.492V3.056ZM354.896 8.824H354.728C354.504 9.29067 354.191 9.636 353.79 9.86C353.398 10.084 352.983 10.196 352.544 10.196C352.087 10.196 351.662 10.1213 351.27 9.972C350.878 9.81333 350.533 9.58467 350.234 9.286C349.945 8.978 349.716 8.60467 349.548 8.166C349.38 7.72733 349.296 7.21867 349.296 6.64V6.416C349.296 5.84667 349.38 5.34267 349.548 4.904C349.716 4.46533 349.945 4.09667 350.234 3.798C350.533 3.49 350.878 3.25667 351.27 3.098C351.662 2.93933 352.077 2.86 352.516 2.86C352.992 2.86 353.421 2.96733 353.804 3.182C354.196 3.38733 354.504 3.70933 354.728 4.148H354.896V3.056H355.988V8.572C355.988 8.852 356.114 8.992 356.366 8.992H356.716V10H355.974C355.657 10 355.395 9.89733 355.19 9.692C354.994 9.48667 354.896 9.22533 354.896 8.908V8.824ZM352.656 9.16C352.983 9.16 353.281 9.09933 353.552 8.978C353.832 8.85667 354.07 8.684 354.266 8.46C354.462 8.236 354.616 7.97 354.728 7.662C354.84 7.34467 354.896 6.99467 354.896 6.612V6.444C354.896 6.07067 354.84 5.73 354.728 5.422C354.616 5.10467 354.457 4.834 354.252 4.61C354.056 4.386 353.818 4.21333 353.538 4.092C353.267 3.96133 352.973 3.896 352.656 3.896C352.329 3.896 352.031 3.95667 351.76 4.078C351.489 4.19933 351.251 4.372 351.046 4.596C350.85 4.81067 350.696 5.07667 350.584 5.394C350.472 5.702 350.416 6.04267 350.416 6.416V6.64C350.416 7.43333 350.621 8.054 351.032 8.502C351.452 8.94067 351.993 9.16 352.656 9.16ZM359.59 3.056H361.774V0.199999H362.866V3.056H365.554V4.064H362.866V8.572C362.866 8.852 362.992 8.992 363.244 8.992H365.218V10H362.852C362.535 10 362.273 9.89733 362.068 9.692C361.872 9.48667 361.774 9.22533 361.774 8.908V4.064H359.59V3.056ZM370.598 6.864C370.626 7.55467 370.841 8.11 371.242 8.53C371.644 8.95 372.204 9.16 372.922 9.16C373.249 9.16 373.534 9.12267 373.776 9.048C374.019 8.97333 374.224 8.87067 374.392 8.74C374.57 8.60933 374.71 8.46 374.812 8.292C374.924 8.11467 375.013 7.928 375.078 7.732L376.114 8.012C375.918 8.656 375.554 9.18333 375.022 9.594C374.5 9.99533 373.79 10.196 372.894 10.196C372.4 10.196 371.942 10.112 371.522 9.944C371.112 9.76667 370.757 9.51933 370.458 9.202C370.16 8.88467 369.926 8.50667 369.758 8.068C369.59 7.62933 369.506 7.144 369.506 6.612V6.276C369.506 5.79067 369.59 5.338 369.758 4.918C369.936 4.498 370.178 4.13867 370.486 3.84C370.794 3.532 371.154 3.294 371.564 3.126C371.984 2.94867 372.437 2.86 372.922 2.86C373.492 2.86 373.982 2.96733 374.392 3.182C374.812 3.38733 375.153 3.644 375.414 3.952C375.685 4.26 375.881 4.596 376.002 4.96C376.133 5.324 376.198 5.66 376.198 5.968V6.864H370.598ZM372.922 3.896C372.614 3.896 372.325 3.94733 372.054 4.05C371.793 4.14333 371.56 4.27867 371.354 4.456C371.158 4.63333 370.995 4.84333 370.864 5.086C370.743 5.31933 370.664 5.576 370.626 5.856H375.106C375.088 5.55733 375.013 5.28667 374.882 5.044C374.761 4.80133 374.598 4.596 374.392 4.428C374.196 4.26 373.968 4.12933 373.706 4.036C373.454 3.94267 373.193 3.896 372.922 3.896ZM390.585 12.8H389.493V3.056H390.585V4.148H390.753C390.996 3.728 391.332 3.41067 391.761 3.196C392.19 2.972 392.657 2.86 393.161 2.86C393.59 2.86 393.996 2.93933 394.379 3.098C394.762 3.25667 395.098 3.48533 395.387 3.784C395.686 4.08267 395.919 4.45133 396.087 4.89C396.264 5.32867 396.353 5.828 396.353 6.388V6.668C396.353 7.23733 396.269 7.74133 396.101 8.18C395.933 8.61867 395.7 8.98733 395.401 9.286C395.112 9.58467 394.771 9.81333 394.379 9.972C393.987 10.1213 393.572 10.196 393.133 10.196C392.909 10.196 392.68 10.168 392.447 10.112C392.214 10.0653 391.99 9.99067 391.775 9.888C391.57 9.776 391.378 9.64533 391.201 9.496C391.024 9.33733 390.874 9.15067 390.753 8.936H390.585V12.8ZM392.909 9.16C393.245 9.16 393.553 9.104 393.833 8.992C394.113 8.87067 394.356 8.70267 394.561 8.488C394.776 8.27333 394.939 8.012 395.051 7.704C395.172 7.396 395.233 7.05067 395.233 6.668V6.388C395.233 6.01467 395.172 5.67867 395.051 5.38C394.939 5.072 394.776 4.81067 394.561 4.596C394.356 4.372 394.108 4.19933 393.819 4.078C393.539 3.95667 393.236 3.896 392.909 3.896C392.582 3.896 392.279 3.96133 391.999 4.092C391.719 4.21333 391.472 4.386 391.257 4.61C391.052 4.834 390.888 5.10467 390.767 5.422C390.646 5.73 390.585 6.07067 390.585 6.444V6.612C390.585 6.99467 390.646 7.34467 390.767 7.662C390.888 7.97 391.052 8.236 391.257 8.46C391.472 8.684 391.719 8.85667 391.999 8.978C392.279 9.09933 392.582 9.16 392.909 9.16ZM404.757 8.824H404.589C404.365 9.29067 404.053 9.636 403.651 9.86C403.259 10.084 402.844 10.196 402.405 10.196C401.948 10.196 401.523 10.1213 401.131 9.972C400.739 9.81333 400.394 9.58467 400.095 9.286C399.806 8.978 399.577 8.60467 399.409 8.166C399.241 7.72733 399.157 7.21867 399.157 6.64V6.416C399.157 5.84667 399.241 5.34267 399.409 4.904C399.577 4.46533 399.806 4.09667 400.095 3.798C400.394 3.49 400.739 3.25667 401.131 3.098C401.523 2.93933 401.939 2.86 402.377 2.86C402.853 2.86 403.283 2.96733 403.665 3.182C404.057 3.38733 404.365 3.70933 404.589 4.148H404.757V3.056H405.849V8.572C405.849 8.852 405.975 8.992 406.227 8.992H406.577V10H405.835C405.518 10 405.257 9.89733 405.051 9.692C404.855 9.48667 404.757 9.22533 404.757 8.908V8.824ZM402.517 9.16C402.844 9.16 403.143 9.09933 403.413 8.978C403.693 8.85667 403.931 8.684 404.127 8.46C404.323 8.236 404.477 7.97 404.589 7.662C404.701 7.34467 404.757 6.99467 404.757 6.612V6.444C404.757 6.07067 404.701 5.73 404.589 5.422C404.477 5.10467 404.319 4.834 404.113 4.61C403.917 4.386 403.679 4.21333 403.399 4.092C403.129 3.96133 402.835 3.896 402.517 3.896C402.191 3.896 401.892 3.95667 401.621 4.078C401.351 4.19933 401.113 4.372 400.907 4.596C400.711 4.81067 400.557 5.07667 400.445 5.394C400.333 5.702 400.277 6.04267 400.277 6.416V6.64C400.277 7.43333 400.483 8.054 400.893 8.502C401.313 8.94067 401.855 9.16 402.517 9.16ZM409.297 3.056H411.817V3.98H411.985C412.163 3.59733 412.415 3.31733 412.741 3.14C413.068 2.95333 413.441 2.86 413.861 2.86C414.561 2.86 415.126 3.08867 415.555 3.546C415.985 4.00333 416.213 4.67067 416.241 5.548L415.093 5.716C415.093 5.072 414.939 4.61 414.631 4.33C414.323 4.04067 413.945 3.896 413.497 3.896C413.208 3.896 412.956 3.952 412.741 4.064C412.536 4.176 412.363 4.33 412.223 4.526C412.083 4.722 411.981 4.95067 411.915 5.212C411.85 5.47333 411.817 5.75333 411.817 6.052V8.992H413.581V10H409.129V8.992H410.725V4.064H409.297V3.056ZM419.424 3.056H421.608V0.199999H422.7V3.056H425.388V4.064H422.7V8.572C422.7 8.852 422.826 8.992 423.078 8.992H425.052V10H422.686C422.368 10 422.107 9.89733 421.902 9.692C421.706 9.48667 421.608 9.22533 421.608 8.908V4.064H419.424V3.056ZM431.79 0.983999C431.79 0.713333 431.883 0.484666 432.07 0.298C432.266 0.101999 432.499 0.00399935 432.77 0.00399935C433.041 0.00399935 433.269 0.101999 433.456 0.298C433.652 0.484666 433.75 0.713333 433.75 0.983999C433.75 1.25467 433.652 1.488 433.456 1.684C433.269 1.87067 433.041 1.964 432.77 1.964C432.499 1.964 432.266 1.87067 432.07 1.684C431.883 1.488 431.79 1.25467 431.79 0.983999ZM429.802 8.992H432.238V4.064H430.054V3.056H433.33V8.992H435.598V10H429.802V8.992ZM446.102 7.536C446.028 7.91867 445.897 8.27333 445.71 8.6C445.533 8.92667 445.304 9.21133 445.024 9.454C444.744 9.68733 444.418 9.86933 444.044 10C443.671 10.1307 443.256 10.196 442.798 10.196C442.313 10.196 441.851 10.1167 441.412 9.958C440.983 9.79933 440.605 9.57067 440.278 9.272C439.952 8.964 439.69 8.59067 439.494 8.152C439.308 7.71333 439.214 7.20933 439.214 6.64V6.472C439.214 5.912 439.308 5.408 439.494 4.96C439.69 4.512 439.952 4.134 440.278 3.826C440.605 3.518 440.983 3.28 441.412 3.112C441.851 2.944 442.313 2.86 442.798 2.86C443.237 2.86 443.643 2.92533 444.016 3.056C444.39 3.18667 444.716 3.37333 444.996 3.616C445.286 3.84933 445.519 4.12933 445.696 4.456C445.883 4.78267 446.009 5.13733 446.074 5.52L444.982 5.772C444.954 5.52933 444.884 5.296 444.772 5.072C444.67 4.83867 444.525 4.638 444.338 4.47C444.161 4.29267 443.942 4.15267 443.68 4.05C443.419 3.94733 443.116 3.896 442.77 3.896C442.434 3.896 442.117 3.96133 441.818 4.092C441.529 4.21333 441.272 4.39067 441.048 4.624C440.824 4.848 440.647 5.11867 440.516 5.436C440.395 5.75333 440.334 6.09867 440.334 6.472V6.64C440.334 7.032 440.395 7.38667 440.516 7.704C440.647 8.012 440.824 8.27333 441.048 8.488C441.272 8.70267 441.534 8.87067 441.832 8.992C442.131 9.104 442.453 9.16 442.798 9.16C443.144 9.16 443.442 9.10867 443.694 9.006C443.956 8.894 444.175 8.754 444.352 8.586C444.539 8.40867 444.684 8.208 444.786 7.984C444.898 7.76 444.973 7.52667 445.01 7.284L446.102 7.536ZM451.735 0.983999C451.735 0.713333 451.828 0.484666 452.015 0.298C452.211 0.101999 452.444 0.00399935 452.715 0.00399935C452.985 0.00399935 453.214 0.101999 453.401 0.298C453.597 0.484666 453.695 0.713333 453.695 0.983999C453.695 1.25467 453.597 1.488 453.401 1.684C453.214 1.87067 452.985 1.964 452.715 1.964C452.444 1.964 452.211 1.87067 452.015 1.684C451.828 1.488 451.735 1.25467 451.735 0.983999ZM449.747 8.992H452.183V4.064H449.999V3.056H453.275V8.992H455.543V10H449.747V8.992ZM460.391 12.8H459.299V3.056H460.391V4.148H460.559C460.801 3.728 461.137 3.41067 461.567 3.196C461.996 2.972 462.463 2.86 462.967 2.86C463.396 2.86 463.802 2.93933 464.185 3.098C464.567 3.25667 464.903 3.48533 465.193 3.784C465.491 4.08267 465.725 4.45133 465.893 4.89C466.07 5.32867 466.159 5.828 466.159 6.388V6.668C466.159 7.23733 466.075 7.74133 465.907 8.18C465.739 8.61867 465.505 8.98733 465.207 9.286C464.917 9.58467 464.577 9.81333 464.185 9.972C463.793 10.1213 463.377 10.196 462.939 10.196C462.715 10.196 462.486 10.168 462.253 10.112C462.019 10.0653 461.795 9.99067 461.581 9.888C461.375 9.776 461.184 9.64533 461.007 9.496C460.829 9.33733 460.68 9.15067 460.559 8.936H460.391V12.8ZM462.715 9.16C463.051 9.16 463.359 9.104 463.639 8.992C463.919 8.87067 464.161 8.70267 464.367 8.488C464.581 8.27333 464.745 8.012 464.857 7.704C464.978 7.396 465.039 7.05067 465.039 6.668V6.388C465.039 6.01467 464.978 5.67867 464.857 5.38C464.745 5.072 464.581 4.81067 464.367 4.596C464.161 4.372 463.914 4.19933 463.625 4.078C463.345 3.95667 463.041 3.896 462.715 3.896C462.388 3.896 462.085 3.96133 461.805 4.092C461.525 4.21333 461.277 4.386 461.063 4.61C460.857 4.834 460.694 5.10467 460.573 5.422C460.451 5.73 460.391 6.07067 460.391 6.444V6.612C460.391 6.99467 460.451 7.34467 460.573 7.662C460.694 7.97 460.857 8.236 461.063 8.46C461.277 8.684 461.525 8.85667 461.805 8.978C462.085 9.09933 462.388 9.16 462.715 9.16ZM474.563 8.824H474.395C474.171 9.29067 473.858 9.636 473.457 9.86C473.065 10.084 472.65 10.196 472.211 10.196C471.754 10.196 471.329 10.1213 470.937 9.972C470.545 9.81333 470.2 9.58467 469.901 9.286C469.612 8.978 469.383 8.60467 469.215 8.166C469.047 7.72733 468.963 7.21867 468.963 6.64V6.416C468.963 5.84667 469.047 5.34267 469.215 4.904C469.383 4.46533 469.612 4.09667 469.901 3.798C470.2 3.49 470.545 3.25667 470.937 3.098C471.329 2.93933 471.744 2.86 472.183 2.86C472.659 2.86 473.088 2.96733 473.471 3.182C473.863 3.38733 474.171 3.70933 474.395 4.148H474.563V3.056H475.655V8.572C475.655 8.852 475.781 8.992 476.033 8.992H476.383V10H475.641C475.324 10 475.062 9.89733 474.857 9.692C474.661 9.48667 474.563 9.22533 474.563 8.908V8.824ZM472.323 9.16C472.65 9.16 472.948 9.09933 473.219 8.978C473.499 8.85667 473.737 8.684 473.933 8.46C474.129 8.236 474.283 7.97 474.395 7.662C474.507 7.34467 474.563 6.99467 474.563 6.612V6.444C474.563 6.07067 474.507 5.73 474.395 5.422C474.283 5.10467 474.124 4.834 473.919 4.61C473.723 4.386 473.485 4.21333 473.205 4.092C472.934 3.96133 472.64 3.896 472.323 3.896C471.996 3.896 471.698 3.95667 471.427 4.078C471.156 4.19933 470.918 4.372 470.713 4.596C470.517 4.81067 470.363 5.07667 470.251 5.394C470.139 5.702 470.083 6.04267 470.083 6.416V6.64C470.083 7.43333 470.288 8.054 470.699 8.502C471.119 8.94067 471.66 9.16 472.323 9.16ZM480.587 10H479.495V3.056H480.587V4.232H480.755C481.185 3.31733 481.931 2.86 482.995 2.86C483.798 2.86 484.437 3.112 484.913 3.616C485.389 4.11067 485.627 4.85733 485.627 5.856V10H484.535V6.08C484.535 5.352 484.372 4.806 484.045 4.442C483.719 4.078 483.275 3.896 482.715 3.896C482.053 3.896 481.53 4.12467 481.147 4.582C480.774 5.03 480.587 5.632 480.587 6.388V10ZM489.23 3.056H491.414V0.199999H492.506V3.056H495.194V4.064H492.506V8.572C492.506 8.852 492.632 8.992 492.884 8.992H494.858V10H492.492C492.174 10 491.913 9.89733 491.708 9.692C491.512 9.48667 491.414 9.22533 491.414 8.908V4.064H489.23V3.056ZM500.882 4.848C500.882 5.184 501.022 5.44067 501.302 5.618C501.591 5.79533 502.114 5.912 502.87 5.968C503.682 6.03333 504.298 6.22933 504.718 6.556C505.147 6.87333 505.362 7.34 505.362 7.956V8.04C505.362 8.376 505.292 8.67933 505.152 8.95C505.021 9.21133 504.835 9.43533 504.592 9.622C504.359 9.80867 504.069 9.94867 503.724 10.042C503.388 10.1447 503.019 10.196 502.618 10.196C502.077 10.196 501.61 10.126 501.218 9.986C500.835 9.83667 500.513 9.64533 500.252 9.412C500 9.16933 499.809 8.89867 499.678 8.6C499.547 8.292 499.473 7.984 499.454 7.676L500.49 7.424C500.537 7.956 500.742 8.38533 501.106 8.712C501.47 9.02933 501.955 9.188 502.562 9.188C503.075 9.188 503.486 9.09 503.794 8.894C504.111 8.68867 504.27 8.404 504.27 8.04C504.27 7.648 504.116 7.368 503.808 7.2C503.5 7.032 503.001 6.92467 502.31 6.878C501.507 6.822 500.891 6.63533 500.462 6.318C500.033 6.00067 499.818 5.53867 499.818 4.932V4.848C499.818 4.52133 499.888 4.23667 500.028 3.994C500.168 3.742 500.355 3.532 500.588 3.364C500.831 3.196 501.101 3.07 501.4 2.986C501.699 2.902 502.011 2.86 502.338 2.86C502.795 2.86 503.197 2.92533 503.542 3.056C503.887 3.17733 504.177 3.34067 504.41 3.546C504.643 3.742 504.821 3.97067 504.942 4.232C505.073 4.49333 505.157 4.75467 505.194 5.016L504.158 5.268C504.111 4.82 503.929 4.47 503.612 4.218C503.304 3.966 502.898 3.84 502.394 3.84C502.198 3.84 502.007 3.86333 501.82 3.91C501.643 3.94733 501.484 4.008 501.344 4.092C501.204 4.176 501.092 4.28333 501.008 4.414C500.924 4.53533 500.882 4.68 500.882 4.848ZM511.498 9.216C511.498 8.94533 511.591 8.71667 511.778 8.53C511.974 8.334 512.207 8.236 512.478 8.236C512.749 8.236 512.977 8.334 513.164 8.53C513.36 8.71667 513.458 8.94533 513.458 9.216V10.588C513.458 10.9053 513.355 11.1667 513.15 11.372C512.954 11.5773 512.697 11.68 512.38 11.68H511.666V10.924H512.324C512.576 10.924 512.702 10.784 512.702 10.504V10.154C512.627 10.182 512.548 10.196 512.464 10.196C512.203 10.196 511.974 10.1027 511.778 9.916C511.591 9.72 511.498 9.48667 511.498 9.216ZM530.449 10H529.357V0.199999H530.449V4.316H530.617C530.831 3.868 531.13 3.51333 531.513 3.252C531.905 2.99067 532.381 2.86 532.941 2.86C533.697 2.86 534.308 3.112 534.775 3.616C535.251 4.11067 535.489 4.85733 535.489 5.856V10H534.397V6.08C534.397 5.352 534.233 4.806 533.907 4.442C533.58 4.078 533.137 3.896 532.577 3.896C531.914 3.896 531.391 4.12467 531.009 4.582C530.635 5.03 530.449 5.632 530.449 6.388V10ZM540.127 6.864C540.155 7.55467 540.37 8.11 540.771 8.53C541.172 8.95 541.732 9.16 542.451 9.16C542.778 9.16 543.062 9.12267 543.305 9.048C543.548 8.97333 543.753 8.87067 543.921 8.74C544.098 8.60933 544.238 8.46 544.341 8.292C544.453 8.11467 544.542 7.928 544.607 7.732L545.643 8.012C545.447 8.656 545.083 9.18333 544.551 9.594C544.028 9.99533 543.319 10.196 542.423 10.196C541.928 10.196 541.471 10.112 541.051 9.944C540.64 9.76667 540.286 9.51933 539.987 9.202C539.688 8.88467 539.455 8.50667 539.287 8.068C539.119 7.62933 539.035 7.144 539.035 6.612V6.276C539.035 5.79067 539.119 5.338 539.287 4.918C539.464 4.498 539.707 4.13867 540.015 3.84C540.323 3.532 540.682 3.294 541.093 3.126C541.513 2.94867 541.966 2.86 542.451 2.86C543.02 2.86 543.51 2.96733 543.921 3.182C544.341 3.38733 544.682 3.644 544.943 3.952C545.214 4.26 545.41 4.596 545.531 4.96C545.662 5.324 545.727 5.66 545.727 5.968V6.864H540.127ZM542.451 3.896C542.143 3.896 541.854 3.94733 541.583 4.05C541.322 4.14333 541.088 4.27867 540.883 4.456C540.687 4.63333 540.524 4.84333 540.393 5.086C540.272 5.31933 540.192 5.576 540.155 5.856H544.635C544.616 5.55733 544.542 5.28667 544.411 5.044C544.29 4.80133 544.126 4.596 543.921 4.428C543.725 4.26 543.496 4.12933 543.235 4.036C542.983 3.94267 542.722 3.896 542.451 3.896ZM550.393 10H549.301V3.056H550.393V4.232H550.561C550.991 3.31733 551.737 2.86 552.801 2.86C553.604 2.86 554.243 3.112 554.719 3.616C555.195 4.11067 555.433 4.85733 555.433 5.856V10H554.341V6.08C554.341 5.352 554.178 4.806 553.851 4.442C553.525 4.078 553.081 3.896 552.521 3.896C551.859 3.896 551.336 4.12467 550.953 4.582C550.58 5.03 550.393 5.632 550.393 6.388V10ZM565.769 7.536C565.695 7.91867 565.564 8.27333 565.377 8.6C565.2 8.92667 564.971 9.21133 564.691 9.454C564.411 9.68733 564.085 9.86933 563.711 10C563.338 10.1307 562.923 10.196 562.465 10.196C561.98 10.196 561.518 10.1167 561.079 9.958C560.65 9.79933 560.272 9.57067 559.945 9.272C559.619 8.964 559.357 8.59067 559.161 8.152C558.975 7.71333 558.881 7.20933 558.881 6.64V6.472C558.881 5.912 558.975 5.408 559.161 4.96C559.357 4.512 559.619 4.134 559.945 3.826C560.272 3.518 560.65 3.28 561.079 3.112C561.518 2.944 561.98 2.86 562.465 2.86C562.904 2.86 563.31 2.92533 563.683 3.056C564.057 3.18667 564.383 3.37333 564.663 3.616C564.953 3.84933 565.186 4.12933 565.363 4.456C565.55 4.78267 565.676 5.13733 565.741 5.52L564.649 5.772C564.621 5.52933 564.551 5.296 564.439 5.072C564.337 4.83867 564.192 4.638 564.005 4.47C563.828 4.29267 563.609 4.15267 563.347 4.05C563.086 3.94733 562.783 3.896 562.437 3.896C562.101 3.896 561.784 3.96133 561.485 4.092C561.196 4.21333 560.939 4.39067 560.715 4.624C560.491 4.848 560.314 5.11867 560.183 5.436C560.062 5.75333 560.001 6.09867 560.001 6.472V6.64C560.001 7.032 560.062 7.38667 560.183 7.704C560.314 8.012 560.491 8.27333 560.715 8.488C560.939 8.70267 561.201 8.87067 561.499 8.992C561.798 9.104 562.12 9.16 562.465 9.16C562.811 9.16 563.109 9.10867 563.361 9.006C563.623 8.894 563.842 8.754 564.019 8.586C564.206 8.40867 564.351 8.208 564.453 7.984C564.565 7.76 564.64 7.52667 564.677 7.284L565.769 7.536ZM570.044 6.864C570.072 7.55467 570.286 8.11 570.688 8.53C571.089 8.95 571.649 9.16 572.368 9.16C572.694 9.16 572.979 9.12267 573.222 9.048C573.464 8.97333 573.67 8.87067 573.838 8.74C574.015 8.60933 574.155 8.46 574.258 8.292C574.37 8.11467 574.458 7.928 574.524 7.732L575.56 8.012C575.364 8.656 575 9.18333 574.468 9.594C573.945 9.99533 573.236 10.196 572.34 10.196C571.845 10.196 571.388 10.112 570.968 9.944C570.557 9.76667 570.202 9.51933 569.904 9.202C569.605 8.88467 569.372 8.50667 569.204 8.068C569.036 7.62933 568.952 7.144 568.952 6.612V6.276C568.952 5.79067 569.036 5.338 569.204 4.918C569.381 4.498 569.624 4.13867 569.932 3.84C570.24 3.532 570.599 3.294 571.01 3.126C571.43 2.94867 571.882 2.86 572.368 2.86C572.937 2.86 573.427 2.96733 573.838 3.182C574.258 3.38733 574.598 3.644 574.86 3.952C575.13 4.26 575.326 4.596 575.448 4.96C575.578 5.324 575.644 5.66 575.644 5.968V6.864H570.044ZM572.368 3.896C572.06 3.896 571.77 3.94733 571.5 4.05C571.238 4.14333 571.005 4.27867 570.8 4.456C570.604 4.63333 570.44 4.84333 570.31 5.086C570.188 5.31933 570.109 5.576 570.072 5.856H574.552C574.533 5.55733 574.458 5.28667 574.328 5.044C574.206 4.80133 574.043 4.596 573.838 4.428C573.642 4.26 573.413 4.12933 573.152 4.036C572.9 3.94267 572.638 3.896 572.368 3.896ZM138.544 31H137.452V26.016C137.452 25.6893 137.377 25.4233 137.228 25.218C137.079 25.0033 136.841 24.896 136.514 24.896C136.206 24.896 135.954 25.0127 135.758 25.246C135.571 25.47 135.478 25.82 135.478 26.296V31H134.386V25.96C134.386 25.652 134.302 25.4 134.134 25.204C133.966 24.9987 133.742 24.896 133.462 24.896C133.126 24.896 132.865 25.0173 132.678 25.26C132.501 25.5027 132.412 25.82 132.412 26.212V31H131.32V24.056H132.412V24.812H132.58C132.701 24.4853 132.879 24.2473 133.112 24.098C133.345 23.9393 133.621 23.86 133.938 23.86C134.274 23.86 134.549 23.9487 134.764 24.126C134.988 24.3033 135.142 24.532 135.226 24.812H135.394C135.711 24.1773 136.215 23.86 136.906 23.86C137.429 23.86 137.83 24.028 138.11 24.364C138.399 24.6907 138.544 25.12 138.544 25.652V31ZM146.878 29.824H146.71C146.486 30.2907 146.174 30.636 145.772 30.86C145.38 31.084 144.965 31.196 144.526 31.196C144.069 31.196 143.644 31.1213 143.252 30.972C142.86 30.8133 142.515 30.5847 142.216 30.286C141.927 29.978 141.698 29.6047 141.53 29.166C141.362 28.7273 141.278 28.2187 141.278 27.64V27.416C141.278 26.8467 141.362 26.3427 141.53 25.904C141.698 25.4653 141.927 25.0967 142.216 24.798C142.515 24.49 142.86 24.2567 143.252 24.098C143.644 23.9393 144.06 23.86 144.498 23.86C144.974 23.86 145.404 23.9673 145.786 24.182C146.178 24.3873 146.486 24.7093 146.71 25.148H146.878V24.056H147.97V29.572C147.97 29.852 148.096 29.992 148.348 29.992H148.698V31H147.956C147.639 31 147.378 30.8973 147.172 30.692C146.976 30.4867 146.878 30.2253 146.878 29.908V29.824ZM144.638 30.16C144.965 30.16 145.264 30.0993 145.534 29.978C145.814 29.8567 146.052 29.684 146.248 29.46C146.444 29.236 146.598 28.97 146.71 28.662C146.822 28.3447 146.878 27.9947 146.878 27.612V27.444C146.878 27.0707 146.822 26.73 146.71 26.422C146.598 26.1047 146.44 25.834 146.234 25.61C146.038 25.386 145.8 25.2133 145.52 25.092C145.25 24.9613 144.956 24.896 144.638 24.896C144.312 24.896 144.013 24.9567 143.742 25.078C143.472 25.1993 143.234 25.372 143.028 25.596C142.832 25.8107 142.678 26.0767 142.566 26.394C142.454 26.702 142.398 27.0427 142.398 27.416V27.64C142.398 28.4333 142.604 29.054 143.014 29.502C143.434 29.9407 143.976 30.16 144.638 30.16ZM153.603 26.94H153.841L156.487 24.056H157.831V24.14L154.947 27.318V27.57L158.167 30.916V31H156.823L153.869 27.948H153.603V31H152.511V21.2H153.603V26.94ZM162.581 27.864C162.609 28.5547 162.824 29.11 163.225 29.53C163.626 29.95 164.186 30.16 164.905 30.16C165.232 30.16 165.516 30.1227 165.759 30.048C166.002 29.9733 166.207 29.8707 166.375 29.74C166.552 29.6093 166.692 29.46 166.795 29.292C166.907 29.1147 166.996 28.928 167.061 28.732L168.097 29.012C167.901 29.656 167.537 30.1833 167.005 30.594C166.482 30.9953 165.773 31.196 164.877 31.196C164.382 31.196 163.925 31.112 163.505 30.944C163.094 30.7667 162.74 30.5193 162.441 30.202C162.142 29.8847 161.909 29.5067 161.741 29.068C161.573 28.6293 161.489 28.144 161.489 27.612V27.276C161.489 26.7907 161.573 26.338 161.741 25.918C161.918 25.498 162.161 25.1387 162.469 24.84C162.777 24.532 163.136 24.294 163.547 24.126C163.967 23.9487 164.42 23.86 164.905 23.86C165.474 23.86 165.964 23.9673 166.375 24.182C166.795 24.3873 167.136 24.644 167.397 24.952C167.668 25.26 167.864 25.596 167.985 25.96C168.116 26.324 168.181 26.66 168.181 26.968V27.864H162.581ZM164.905 24.896C164.597 24.896 164.308 24.9473 164.037 25.05C163.776 25.1433 163.542 25.2787 163.337 25.456C163.141 25.6333 162.978 25.8433 162.847 26.086C162.726 26.3193 162.646 26.576 162.609 26.856H167.089C167.07 26.5573 166.996 26.2867 166.865 26.044C166.744 25.8013 166.58 25.596 166.375 25.428C166.179 25.26 165.95 25.1293 165.689 25.036C165.437 24.9427 165.176 24.896 164.905 24.896ZM183.169 25.848C183.169 26.184 183.309 26.4407 183.589 26.618C183.879 26.7953 184.401 26.912 185.157 26.968C185.969 27.0333 186.585 27.2293 187.005 27.556C187.435 27.8733 187.649 28.34 187.649 28.956V29.04C187.649 29.376 187.579 29.6793 187.439 29.95C187.309 30.2113 187.122 30.4353 186.879 30.622C186.646 30.8087 186.357 30.9487 186.011 31.042C185.675 31.1447 185.307 31.196 184.905 31.196C184.364 31.196 183.897 31.126 183.505 30.986C183.123 30.8367 182.801 30.6453 182.539 30.412C182.287 30.1693 182.096 29.8987 181.965 29.6C181.835 29.292 181.76 28.984 181.741 28.676L182.777 28.424C182.824 28.956 183.029 29.3853 183.393 29.712C183.757 30.0293 184.243 30.188 184.849 30.188C185.363 30.188 185.773 30.09 186.081 29.894C186.399 29.6887 186.557 29.404 186.557 29.04C186.557 28.648 186.403 28.368 186.095 28.2C185.787 28.032 185.288 27.9247 184.597 27.878C183.795 27.822 183.179 27.6353 182.749 27.318C182.32 27.0007 182.105 26.5387 182.105 25.932V25.848C182.105 25.5213 182.175 25.2367 182.315 24.994C182.455 24.742 182.642 24.532 182.875 24.364C183.118 24.196 183.389 24.07 183.687 23.986C183.986 23.902 184.299 23.86 184.625 23.86C185.083 23.86 185.484 23.9253 185.829 24.056C186.175 24.1773 186.464 24.3407 186.697 24.546C186.931 24.742 187.108 24.9707 187.229 25.232C187.36 25.4933 187.444 25.7547 187.481 26.016L186.445 26.268C186.399 25.82 186.217 25.47 185.899 25.218C185.591 24.966 185.185 24.84 184.681 24.84C184.485 24.84 184.294 24.8633 184.107 24.91C183.93 24.9473 183.771 25.008 183.631 25.092C183.491 25.176 183.379 25.2833 183.295 25.414C183.211 25.5353 183.169 25.68 183.169 25.848ZM196.656 24.056H197.748V31H196.656V29.74H196.488C196.264 30.188 195.97 30.5427 195.606 30.804C195.242 31.0653 194.78 31.196 194.22 31.196C193.837 31.196 193.482 31.1307 193.156 31C192.838 30.8787 192.563 30.692 192.33 30.44C192.106 30.188 191.928 29.8753 191.798 29.502C191.676 29.1287 191.616 28.6947 191.616 28.2V24.056H192.708V28.06C192.708 28.788 192.857 29.32 193.156 29.656C193.454 29.992 193.912 30.16 194.528 30.16C195.19 30.16 195.708 29.936 196.082 29.488C196.464 29.0307 196.656 28.424 196.656 27.668V24.056ZM201.28 24.056H203.8V24.98H203.968C204.145 24.5973 204.397 24.3173 204.724 24.14C205.051 23.9533 205.424 23.86 205.844 23.86C206.544 23.86 207.109 24.0887 207.538 24.546C207.967 25.0033 208.196 25.6707 208.224 26.548L207.076 26.716C207.076 26.072 206.922 25.61 206.614 25.33C206.306 25.0407 205.928 24.896 205.48 24.896C205.191 24.896 204.939 24.952 204.724 25.064C204.519 25.176 204.346 25.33 204.206 25.526C204.066 25.722 203.963 25.9507 203.898 26.212C203.833 26.4733 203.8 26.7533 203.8 27.052V29.992H205.564V31H201.112V29.992H202.708V25.064H201.28V24.056ZM212.442 27.864C212.47 28.5547 212.685 29.11 213.086 29.53C213.487 29.95 214.047 30.16 214.766 30.16C215.093 30.16 215.377 30.1227 215.62 30.048C215.863 29.9733 216.068 29.8707 216.236 29.74C216.413 29.6093 216.553 29.46 216.656 29.292C216.768 29.1147 216.857 28.928 216.922 28.732L217.958 29.012C217.762 29.656 217.398 30.1833 216.866 30.594C216.343 30.9953 215.634 31.196 214.738 31.196C214.243 31.196 213.786 31.112 213.366 30.944C212.955 30.7667 212.601 30.5193 212.302 30.202C212.003 29.8847 211.77 29.5067 211.602 29.068C211.434 28.6293 211.35 28.144 211.35 27.612V27.276C211.35 26.7907 211.434 26.338 211.602 25.918C211.779 25.498 212.022 25.1387 212.33 24.84C212.638 24.532 212.997 24.294 213.408 24.126C213.828 23.9487 214.281 23.86 214.766 23.86C215.335 23.86 215.825 23.9673 216.236 24.182C216.656 24.3873 216.997 24.644 217.258 24.952C217.529 25.26 217.725 25.596 217.846 25.96C217.977 26.324 218.042 26.66 218.042 26.968V27.864H212.442ZM214.766 24.896C214.458 24.896 214.169 24.9473 213.898 25.05C213.637 25.1433 213.403 25.2787 213.198 25.456C213.002 25.6333 212.839 25.8433 212.708 26.086C212.587 26.3193 212.507 26.576 212.47 26.856H216.95C216.931 26.5573 216.857 26.2867 216.726 26.044C216.605 25.8013 216.441 25.596 216.236 25.428C216.04 25.26 215.811 25.1293 215.55 25.036C215.298 24.9427 215.037 24.896 214.766 24.896ZM232.681 31H231.589V24.056H232.681V25.232H232.849C233.278 24.3173 234.025 23.86 235.089 23.86C235.891 23.86 236.531 24.112 237.007 24.616C237.483 25.1107 237.721 25.8573 237.721 26.856V31H236.629V27.08C236.629 26.352 236.465 25.806 236.139 25.442C235.812 25.078 235.369 24.896 234.809 24.896C234.146 24.896 233.623 25.1247 233.241 25.582C232.867 26.03 232.681 26.632 232.681 27.388V31ZM248.113 27.612C248.113 28.1907 248.015 28.704 247.819 29.152C247.632 29.5907 247.38 29.964 247.063 30.272C246.746 30.5707 246.372 30.7993 245.943 30.958C245.523 31.1167 245.084 31.196 244.627 31.196C244.16 31.196 243.717 31.1167 243.297 30.958C242.877 30.7993 242.508 30.5707 242.191 30.272C241.874 29.964 241.617 29.5907 241.421 29.152C241.234 28.704 241.141 28.1907 241.141 27.612V27.444C241.141 26.8747 241.234 26.3707 241.421 25.932C241.617 25.484 241.874 25.106 242.191 24.798C242.518 24.49 242.891 24.2567 243.311 24.098C243.731 23.9393 244.17 23.86 244.627 23.86C245.084 23.86 245.523 23.9393 245.943 24.098C246.363 24.2567 246.732 24.49 247.049 24.798C247.376 25.106 247.632 25.484 247.819 25.932C248.015 26.3707 248.113 26.8747 248.113 27.444V27.612ZM244.627 30.16C244.963 30.16 245.271 30.104 245.551 29.992C245.84 29.8707 246.092 29.698 246.307 29.474C246.522 29.25 246.69 28.984 246.811 28.676C246.932 28.3587 246.993 28.004 246.993 27.612V27.444C246.993 27.0707 246.932 26.73 246.811 26.422C246.69 26.1047 246.522 25.834 246.307 25.61C246.092 25.386 245.84 25.2133 245.551 25.092C245.262 24.9613 244.954 24.896 244.627 24.896C244.3 24.896 243.992 24.9613 243.703 25.092C243.414 25.2133 243.162 25.386 242.947 25.61C242.732 25.834 242.564 26.1047 242.443 26.422C242.322 26.73 242.261 27.0707 242.261 27.444V27.612C242.261 28.004 242.322 28.3587 242.443 28.676C242.564 28.984 242.732 29.25 242.947 29.474C243.162 29.698 243.409 29.8707 243.689 29.992C243.978 30.104 244.291 30.16 244.627 30.16ZM251.295 24.056H253.479V21.2H254.571V24.056H257.259V25.064H254.571V29.572C254.571 29.852 254.697 29.992 254.949 29.992H256.923V31H254.557C254.24 31 253.979 30.8973 253.773 30.692C253.577 30.4867 253.479 30.2253 253.479 29.908V25.064H251.295V24.056ZM271.24 24.056H273.424V21.2H274.516V24.056H277.204V25.064H274.516V29.572C274.516 29.852 274.642 29.992 274.894 29.992H276.868V31H274.502C274.184 31 273.923 30.8973 273.718 30.692C273.522 30.4867 273.424 30.2253 273.424 29.908V25.064H271.24V24.056ZM288.002 27.612C288.002 28.1907 287.904 28.704 287.708 29.152C287.521 29.5907 287.269 29.964 286.952 30.272C286.635 30.5707 286.261 30.7993 285.832 30.958C285.412 31.1167 284.973 31.196 284.516 31.196C284.049 31.196 283.606 31.1167 283.186 30.958C282.766 30.7993 282.397 30.5707 282.08 30.272C281.763 29.964 281.506 29.5907 281.31 29.152C281.123 28.704 281.03 28.1907 281.03 27.612V27.444C281.03 26.8747 281.123 26.3707 281.31 25.932C281.506 25.484 281.763 25.106 282.08 24.798C282.407 24.49 282.78 24.2567 283.2 24.098C283.62 23.9393 284.059 23.86 284.516 23.86C284.973 23.86 285.412 23.9393 285.832 24.098C286.252 24.2567 286.621 24.49 286.938 24.798C287.265 25.106 287.521 25.484 287.708 25.932C287.904 26.3707 288.002 26.8747 288.002 27.444V27.612ZM284.516 30.16C284.852 30.16 285.16 30.104 285.44 29.992C285.729 29.8707 285.981 29.698 286.196 29.474C286.411 29.25 286.579 28.984 286.7 28.676C286.821 28.3587 286.882 28.004 286.882 27.612V27.444C286.882 27.0707 286.821 26.73 286.7 26.422C286.579 26.1047 286.411 25.834 286.196 25.61C285.981 25.386 285.729 25.2133 285.44 25.092C285.151 24.9613 284.843 24.896 284.516 24.896C284.189 24.896 283.881 24.9613 283.592 25.092C283.303 25.2133 283.051 25.386 282.836 25.61C282.621 25.834 282.453 26.1047 282.332 26.422C282.211 26.73 282.15 27.0707 282.15 27.444V27.612C282.15 28.004 282.211 28.3587 282.332 28.676C282.453 28.984 282.621 29.25 282.836 29.474C283.051 29.698 283.298 29.8707 283.578 29.992C283.867 30.104 284.18 30.16 284.516 30.16ZM306.673 29.936H306.505C306.281 30.356 305.973 30.6733 305.581 30.888C305.198 31.0933 304.778 31.196 304.321 31.196C303.854 31.196 303.415 31.1167 303.005 30.958C302.594 30.7993 302.23 30.5707 301.913 30.272C301.605 29.9733 301.357 29.6047 301.171 29.166C300.993 28.718 300.905 28.2093 300.905 27.64V27.416C300.905 26.856 300.998 26.3567 301.185 25.918C301.371 25.47 301.619 25.0967 301.927 24.798C302.235 24.49 302.594 24.2567 303.005 24.098C303.415 23.9393 303.845 23.86 304.293 23.86C304.797 23.86 305.235 23.972 305.609 24.196C305.991 24.4107 306.29 24.728 306.505 25.148H306.673V24.056H307.765V32.708C307.765 33.0253 307.662 33.2867 307.457 33.492C307.261 33.6973 307.004 33.8 306.687 33.8H302.165V32.792H306.295C306.547 32.792 306.673 32.652 306.673 32.372V29.936ZM304.349 30.16C304.675 30.16 304.979 30.0993 305.259 29.978C305.539 29.8567 305.781 29.684 305.987 29.46C306.201 29.236 306.369 28.97 306.491 28.662C306.612 28.3447 306.673 27.9947 306.673 27.612V27.444C306.673 27.0707 306.612 26.73 306.491 26.422C306.369 26.1047 306.201 25.834 305.987 25.61C305.781 25.386 305.534 25.2133 305.245 25.092C304.965 24.9613 304.666 24.896 304.349 24.896C304.022 24.896 303.714 24.9567 303.425 25.078C303.145 25.1993 302.897 25.372 302.683 25.596C302.477 25.82 302.314 26.086 302.193 26.394C302.081 26.702 302.025 27.0427 302.025 27.416V27.64C302.025 28.032 302.081 28.382 302.193 28.69C302.314 28.998 302.477 29.264 302.683 29.488C302.897 29.7027 303.145 29.8707 303.425 29.992C303.705 30.104 304.013 30.16 304.349 30.16ZM313.523 21.984C313.523 21.7133 313.616 21.4847 313.803 21.298C313.999 21.102 314.232 21.004 314.503 21.004C314.773 21.004 315.002 21.102 315.189 21.298C315.385 21.4847 315.483 21.7133 315.483 21.984C315.483 22.2547 315.385 22.488 315.189 22.684C315.002 22.8707 314.773 22.964 314.503 22.964C314.232 22.964 313.999 22.8707 313.803 22.684C313.616 22.488 313.523 22.2547 313.523 21.984ZM311.535 29.992H313.971V25.064H311.787V24.056H315.063V29.992H317.331V31H311.535V29.992ZM325.469 31H323.313L320.891 24.056H322.179L324.307 30.496H324.475L326.603 24.056H327.891L325.469 31ZM332.109 27.864C332.137 28.5547 332.352 29.11 332.753 29.53C333.155 29.95 333.715 30.16 334.433 30.16C334.76 30.16 335.045 30.1227 335.287 30.048C335.53 29.9733 335.735 29.8707 335.903 29.74C336.081 29.6093 336.221 29.46 336.323 29.292C336.435 29.1147 336.524 28.928 336.589 28.732L337.625 29.012C337.429 29.656 337.065 30.1833 336.533 30.594C336.011 30.9953 335.301 31.196 334.405 31.196C333.911 31.196 333.453 31.112 333.033 30.944C332.623 30.7667 332.268 30.5193 331.969 30.202C331.671 29.8847 331.437 29.5067 331.269 29.068C331.101 28.6293 331.017 28.144 331.017 27.612V27.276C331.017 26.7907 331.101 26.338 331.269 25.918C331.447 25.498 331.689 25.1387 331.997 24.84C332.305 24.532 332.665 24.294 333.075 24.126C333.495 23.9487 333.948 23.86 334.433 23.86C335.003 23.86 335.493 23.9673 335.903 24.182C336.323 24.3873 336.664 24.644 336.925 24.952C337.196 25.26 337.392 25.596 337.513 25.96C337.644 26.324 337.709 26.66 337.709 26.968V27.864H332.109ZM334.433 24.896C334.125 24.896 333.836 24.9473 333.565 25.05C333.304 25.1433 333.071 25.2787 332.865 25.456C332.669 25.6333 332.506 25.8433 332.375 26.086C332.254 26.3193 332.175 26.576 332.137 26.856H336.617C336.599 26.5573 336.524 26.2867 336.393 26.044C336.272 25.8013 336.109 25.596 335.903 25.428C335.707 25.26 335.479 25.1293 335.217 25.036C334.965 24.9427 334.704 24.896 334.433 24.896ZM356.296 29.824H356.128C355.904 30.2907 355.591 30.636 355.19 30.86C354.798 31.084 354.383 31.196 353.944 31.196C353.487 31.196 353.062 31.1213 352.67 30.972C352.278 30.8133 351.933 30.5847 351.634 30.286C351.345 29.978 351.116 29.6047 350.948 29.166C350.78 28.7273 350.696 28.2187 350.696 27.64V27.416C350.696 26.8467 350.78 26.3427 350.948 25.904C351.116 25.4653 351.345 25.0967 351.634 24.798C351.933 24.49 352.278 24.2567 352.67 24.098C353.062 23.9393 353.477 23.86 353.916 23.86C354.392 23.86 354.821 23.9673 355.204 24.182C355.596 24.3873 355.904 24.7093 356.128 25.148H356.296V24.056H357.388V29.572C357.388 29.852 357.514 29.992 357.766 29.992H358.116V31H357.374C357.057 31 356.795 30.8973 356.59 30.692C356.394 30.4867 356.296 30.2253 356.296 29.908V29.824ZM354.056 30.16C354.383 30.16 354.681 30.0993 354.952 29.978C355.232 29.8567 355.47 29.684 355.666 29.46C355.862 29.236 356.016 28.97 356.128 28.662C356.24 28.3447 356.296 27.9947 356.296 27.612V27.444C356.296 27.0707 356.24 26.73 356.128 26.422C356.016 26.1047 355.857 25.834 355.652 25.61C355.456 25.386 355.218 25.2133 354.938 25.092C354.667 24.9613 354.373 24.896 354.056 24.896C353.729 24.896 353.431 24.9567 353.16 25.078C352.889 25.1993 352.651 25.372 352.446 25.596C352.25 25.8107 352.096 26.0767 351.984 26.394C351.872 26.702 351.816 27.0427 351.816 27.416V27.64C351.816 28.4333 352.021 29.054 352.432 29.502C352.852 29.9407 353.393 30.16 354.056 30.16ZM362.32 31H361.228V24.056H362.32V25.232H362.488C362.917 24.3173 363.664 23.86 364.728 23.86C365.531 23.86 366.17 24.112 366.646 24.616C367.122 25.1107 367.36 25.8573 367.36 26.856V31H366.268V27.08C366.268 26.352 366.105 25.806 365.778 25.442C365.451 25.078 365.008 24.896 364.448 24.896C363.785 24.896 363.263 25.1247 362.88 25.582C362.507 26.03 362.32 26.632 362.32 27.388V31ZM376.24 29.74H376.072C375.848 30.188 375.554 30.5427 375.19 30.804C374.826 31.0653 374.364 31.196 373.804 31.196C373.422 31.196 373.067 31.1307 372.74 31C372.423 30.8787 372.148 30.692 371.914 30.44C371.69 30.188 371.513 29.8753 371.382 29.502C371.261 29.1287 371.2 28.6947 371.2 28.2V24.056H372.292V28.06C372.292 28.788 372.442 29.32 372.74 29.656C373.039 29.992 373.496 30.16 374.112 30.16C374.775 30.16 375.293 29.936 375.666 29.488C376.049 29.0307 376.24 28.424 376.24 27.668V24.056H377.332V32.708C377.332 33.0253 377.23 33.2867 377.024 33.492C376.828 33.6973 376.572 33.8 376.254 33.8H372.292V32.792H375.862C376.114 32.792 376.24 32.652 376.24 32.372V29.74ZM397.151 31H395.135L394.295 24.56H394.127L393.287 31H391.271L390.179 24.056H391.299L392.223 30.496H392.391L393.203 24.056H395.219L396.031 30.496H396.199L397.123 24.056H398.243L397.151 31ZM400.725 24.056H403.245V24.98H403.413C403.591 24.5973 403.843 24.3173 404.169 24.14C404.496 23.9533 404.869 23.86 405.289 23.86C405.989 23.86 406.554 24.0887 406.983 24.546C407.413 25.0033 407.641 25.6707 407.669 26.548L406.521 26.716C406.521 26.072 406.367 25.61 406.059 25.33C405.751 25.0407 405.373 24.896 404.925 24.896C404.636 24.896 404.384 24.952 404.169 25.064C403.964 25.176 403.791 25.33 403.651 25.526C403.511 25.722 403.409 25.9507 403.343 26.212C403.278 26.4733 403.245 26.7533 403.245 27.052V29.992H405.009V31H400.557V29.992H402.153V25.064H400.725V24.056ZM417.641 27.612C417.641 28.1907 417.543 28.704 417.347 29.152C417.161 29.5907 416.909 29.964 416.591 30.272C416.274 30.5707 415.901 30.7993 415.471 30.958C415.051 31.1167 414.613 31.196 414.155 31.196C413.689 31.196 413.245 31.1167 412.825 30.958C412.405 30.7993 412.037 30.5707 411.719 30.272C411.402 29.964 411.145 29.5907 410.949 29.152C410.763 28.704 410.669 28.1907 410.669 27.612V27.444C410.669 26.8747 410.763 26.3707 410.949 25.932C411.145 25.484 411.402 25.106 411.719 24.798C412.046 24.49 412.419 24.2567 412.839 24.098C413.259 23.9393 413.698 23.86 414.155 23.86C414.613 23.86 415.051 23.9393 415.471 24.098C415.891 24.2567 416.26 24.49 416.577 24.798C416.904 25.106 417.161 25.484 417.347 25.932C417.543 26.3707 417.641 26.8747 417.641 27.444V27.612ZM414.155 30.16C414.491 30.16 414.799 30.104 415.079 29.992C415.369 29.8707 415.621 29.698 415.835 29.474C416.05 29.25 416.218 28.984 416.339 28.676C416.461 28.3587 416.521 28.004 416.521 27.612V27.444C416.521 27.0707 416.461 26.73 416.339 26.422C416.218 26.1047 416.05 25.834 415.835 25.61C415.621 25.386 415.369 25.2133 415.079 25.092C414.79 24.9613 414.482 24.896 414.155 24.896C413.829 24.896 413.521 24.9613 413.231 25.092C412.942 25.2133 412.69 25.386 412.475 25.61C412.261 25.834 412.093 26.1047 411.971 26.422C411.85 26.73 411.789 27.0707 411.789 27.444V27.612C411.789 28.004 411.85 28.3587 411.971 28.676C412.093 28.984 412.261 29.25 412.475 29.474C412.69 29.698 412.937 29.8707 413.217 29.992C413.507 30.104 413.819 30.16 414.155 30.16ZM422.154 31H421.062V24.056H422.154V25.232H422.322C422.751 24.3173 423.498 23.86 424.562 23.86C425.364 23.86 426.004 24.112 426.48 24.616C426.956 25.1107 427.194 25.8573 427.194 26.856V31H426.102V27.08C426.102 26.352 425.938 25.806 425.612 25.442C425.285 25.078 424.842 24.896 424.282 24.896C423.619 24.896 423.096 25.1247 422.714 25.582C422.34 26.03 422.154 26.632 422.154 27.388V31ZM436.312 29.936H436.144C435.92 30.356 435.612 30.6733 435.22 30.888C434.837 31.0933 434.417 31.196 433.96 31.196C433.493 31.196 433.055 31.1167 432.644 30.958C432.233 30.7993 431.869 30.5707 431.552 30.272C431.244 29.9733 430.997 29.6047 430.81 29.166C430.633 28.718 430.544 28.2093 430.544 27.64V27.416C430.544 26.856 430.637 26.3567 430.824 25.918C431.011 25.47 431.258 25.0967 431.566 24.798C431.874 24.49 432.233 24.2567 432.644 24.098C433.055 23.9393 433.484 23.86 433.932 23.86C434.436 23.86 434.875 23.972 435.248 24.196C435.631 24.4107 435.929 24.728 436.144 25.148H436.312V24.056H437.404V32.708C437.404 33.0253 437.301 33.2867 437.096 33.492C436.9 33.6973 436.643 33.8 436.326 33.8H431.804V32.792H435.934C436.186 32.792 436.312 32.652 436.312 32.372V29.936ZM433.988 30.16C434.315 30.16 434.618 30.0993 434.898 29.978C435.178 29.8567 435.421 29.684 435.626 29.46C435.841 29.236 436.009 28.97 436.13 28.662C436.251 28.3447 436.312 27.9947 436.312 27.612V27.444C436.312 27.0707 436.251 26.73 436.13 26.422C436.009 26.1047 435.841 25.834 435.626 25.61C435.421 25.386 435.173 25.2133 434.884 25.092C434.604 24.9613 434.305 24.896 433.988 24.896C433.661 24.896 433.353 24.9567 433.064 25.078C432.784 25.1993 432.537 25.372 432.322 25.596C432.117 25.82 431.953 26.086 431.832 26.394C431.72 26.702 431.664 27.0427 431.664 27.416V27.64C431.664 28.032 431.72 28.382 431.832 28.69C431.953 28.998 432.117 29.264 432.322 29.488C432.537 29.7027 432.784 29.8707 433.064 29.992C433.344 30.104 433.652 30.16 433.988 30.16ZM445.626 19.716L446.606 20.024L442.532 32.484L441.538 32.176L445.626 19.716ZM452.421 25.848C452.421 26.184 452.561 26.4407 452.841 26.618C453.13 26.7953 453.653 26.912 454.409 26.968C455.221 27.0333 455.837 27.2293 456.257 27.556C456.686 27.8733 456.901 28.34 456.901 28.956V29.04C456.901 29.376 456.831 29.6793 456.691 29.95C456.56 30.2113 456.373 30.4353 456.131 30.622C455.897 30.8087 455.608 30.9487 455.263 31.042C454.927 31.1447 454.558 31.196 454.157 31.196C453.615 31.196 453.149 31.126 452.757 30.986C452.374 30.8367 452.052 30.6453 451.791 30.412C451.539 30.1693 451.347 29.8987 451.217 29.6C451.086 29.292 451.011 28.984 450.993 28.676L452.029 28.424C452.075 28.956 452.281 29.3853 452.645 29.712C453.009 30.0293 453.494 30.188 454.101 30.188C454.614 30.188 455.025 30.09 455.333 29.894C455.65 29.6887 455.809 29.404 455.809 29.04C455.809 28.648 455.655 28.368 455.347 28.2C455.039 28.032 454.539 27.9247 453.849 27.878C453.046 27.822 452.43 27.6353 452.001 27.318C451.571 27.0007 451.357 26.5387 451.357 25.932V25.848C451.357 25.5213 451.427 25.2367 451.567 24.994C451.707 24.742 451.893 24.532 452.127 24.364C452.369 24.196 452.64 24.07 452.939 23.986C453.237 23.902 453.55 23.86 453.877 23.86C454.334 23.86 454.735 23.9253 455.081 24.056C455.426 24.1773 455.715 24.3407 455.949 24.546C456.182 24.742 456.359 24.9707 456.481 25.232C456.611 25.4933 456.695 25.7547 456.733 26.016L455.697 26.268C455.65 25.82 455.468 25.47 455.151 25.218C454.843 24.966 454.437 24.84 453.933 24.84C453.737 24.84 453.545 24.8633 453.359 24.91C453.181 24.9473 453.023 25.008 452.883 25.092C452.743 25.176 452.631 25.2833 452.547 25.414C452.463 25.5353 452.421 25.68 452.421 25.848ZM465.991 29.824H465.823C465.599 30.2907 465.286 30.636 464.885 30.86C464.493 31.084 464.077 31.196 463.639 31.196C463.181 31.196 462.757 31.1213 462.365 30.972C461.973 30.8133 461.627 30.5847 461.329 30.286C461.039 29.978 460.811 29.6047 460.643 29.166C460.475 28.7273 460.391 28.2187 460.391 27.64V27.416C460.391 26.8467 460.475 26.3427 460.643 25.904C460.811 25.4653 461.039 25.0967 461.329 24.798C461.627 24.49 461.973 24.2567 462.365 24.098C462.757 23.9393 463.172 23.86 463.611 23.86C464.087 23.86 464.516 23.9673 464.899 24.182C465.291 24.3873 465.599 24.7093 465.823 25.148H465.991V24.056H467.083V29.572C467.083 29.852 467.209 29.992 467.461 29.992H467.811V31H467.069C466.751 31 466.49 30.8973 466.285 30.692C466.089 30.4867 465.991 30.2253 465.991 29.908V29.824ZM463.751 30.16C464.077 30.16 464.376 30.0993 464.647 29.978C464.927 29.8567 465.165 29.684 465.361 29.46C465.557 29.236 465.711 28.97 465.823 28.662C465.935 28.3447 465.991 27.9947 465.991 27.612V27.444C465.991 27.0707 465.935 26.73 465.823 26.422C465.711 26.1047 465.552 25.834 465.347 25.61C465.151 25.386 464.913 25.2133 464.633 25.092C464.362 24.9613 464.068 24.896 463.751 24.896C463.424 24.896 463.125 24.9567 462.855 25.078C462.584 25.1993 462.346 25.372 462.141 25.596C461.945 25.8107 461.791 26.0767 461.679 26.394C461.567 26.702 461.511 27.0427 461.511 27.416V27.64C461.511 28.4333 461.716 29.054 462.127 29.502C462.547 29.9407 463.088 30.16 463.751 30.16ZM477.601 31H476.509V26.016C476.509 25.6893 476.434 25.4233 476.285 25.218C476.136 25.0033 475.898 24.896 475.571 24.896C475.263 24.896 475.011 25.0127 474.815 25.246C474.628 25.47 474.535 25.82 474.535 26.296V31H473.443V25.96C473.443 25.652 473.359 25.4 473.191 25.204C473.023 24.9987 472.799 24.896 472.519 24.896C472.183 24.896 471.922 25.0173 471.735 25.26C471.558 25.5027 471.469 25.82 471.469 26.212V31H470.377V24.056H471.469V24.812H471.637C471.758 24.4853 471.936 24.2473 472.169 24.098C472.402 23.9393 472.678 23.86 472.995 23.86C473.331 23.86 473.606 23.9487 473.821 24.126C474.045 24.3033 474.199 24.532 474.283 24.812H474.451C474.768 24.1773 475.272 23.86 475.963 23.86C476.486 23.86 476.887 24.028 477.167 24.364C477.456 24.6907 477.601 25.12 477.601 25.652V31ZM481.693 27.864C481.721 28.5547 481.936 29.11 482.337 29.53C482.739 29.95 483.299 30.16 484.017 30.16C484.344 30.16 484.629 30.1227 484.871 30.048C485.114 29.9733 485.319 29.8707 485.487 29.74C485.665 29.6093 485.805 29.46 485.907 29.292C486.019 29.1147 486.108 28.928 486.173 28.732L487.209 29.012C487.013 29.656 486.649 30.1833 486.117 30.594C485.595 30.9953 484.885 31.196 483.989 31.196C483.495 31.196 483.037 31.112 482.617 30.944C482.207 30.7667 481.852 30.5193 481.553 30.202C481.255 29.8847 481.021 29.5067 480.853 29.068C480.685 28.6293 480.601 28.144 480.601 27.612V27.276C480.601 26.7907 480.685 26.338 480.853 25.918C481.031 25.498 481.273 25.1387 481.581 24.84C481.889 24.532 482.249 24.294 482.659 24.126C483.079 23.9487 483.532 23.86 484.017 23.86C484.587 23.86 485.077 23.9673 485.487 24.182C485.907 24.3873 486.248 24.644 486.509 24.952C486.78 25.26 486.976 25.596 487.097 25.96C487.228 26.324 487.293 26.66 487.293 26.968V27.864H481.693ZM484.017 24.896C483.709 24.896 483.42 24.9473 483.149 25.05C482.888 25.1433 482.655 25.2787 482.449 25.456C482.253 25.6333 482.09 25.8433 481.959 26.086C481.838 26.3193 481.759 26.576 481.721 26.856H486.201C486.183 26.5573 486.108 26.2867 485.977 26.044C485.856 25.8013 485.693 25.596 485.487 25.428C485.291 25.26 485.063 25.1293 484.801 25.036C484.549 24.9427 484.288 24.896 484.017 24.896ZM506.216 29.936H506.048C505.936 30.1507 505.791 30.3373 505.614 30.496C505.446 30.6547 505.259 30.7853 505.054 30.888C504.858 30.9907 504.648 31.0653 504.424 31.112C504.2 31.168 503.985 31.196 503.78 31.196C503.313 31.196 502.879 31.1167 502.478 30.958C502.076 30.7993 501.722 30.5707 501.414 30.272C501.115 29.9733 500.877 29.6047 500.7 29.166C500.532 28.718 500.448 28.2093 500.448 27.64V27.416C500.448 26.856 500.536 26.3567 500.714 25.918C500.891 25.47 501.129 25.0967 501.428 24.798C501.726 24.49 502.076 24.2567 502.478 24.098C502.879 23.9393 503.304 23.86 503.752 23.86C504.228 23.86 504.671 23.9673 505.082 24.182C505.502 24.3873 505.824 24.7093 506.048 25.148H506.216V21.2H507.308V31H506.216V29.936ZM503.892 30.16C504.218 30.16 504.522 30.0993 504.802 29.978C505.082 29.8567 505.324 29.684 505.53 29.46C505.744 29.236 505.912 28.97 506.034 28.662C506.155 28.3447 506.216 27.9947 506.216 27.612V27.444C506.216 27.0707 506.155 26.73 506.034 26.422C505.912 26.1047 505.744 25.834 505.53 25.61C505.324 25.386 505.077 25.2133 504.788 25.092C504.508 24.9613 504.209 24.896 503.892 24.896C503.565 24.896 503.257 24.9567 502.968 25.078C502.688 25.1993 502.44 25.372 502.226 25.596C502.02 25.82 501.857 26.086 501.736 26.394C501.624 26.702 501.568 27.0427 501.568 27.416V27.64C501.568 28.032 501.624 28.382 501.736 28.69C501.857 28.998 502.02 29.264 502.226 29.488C502.44 29.7027 502.688 29.8707 502.968 29.992C503.248 30.104 503.556 30.16 503.892 30.16ZM511.61 27.864C511.638 28.5547 511.853 29.11 512.254 29.53C512.655 29.95 513.215 30.16 513.934 30.16C514.261 30.16 514.545 30.1227 514.788 30.048C515.031 29.9733 515.236 29.8707 515.404 29.74C515.581 29.6093 515.721 29.46 515.824 29.292C515.936 29.1147 516.025 28.928 516.09 28.732L517.126 29.012C516.93 29.656 516.566 30.1833 516.034 30.594C515.511 30.9953 514.802 31.196 513.906 31.196C513.411 31.196 512.954 31.112 512.534 30.944C512.123 30.7667 511.769 30.5193 511.47 30.202C511.171 29.8847 510.938 29.5067 510.77 29.068C510.602 28.6293 510.518 28.144 510.518 27.612V27.276C510.518 26.7907 510.602 26.338 510.77 25.918C510.947 25.498 511.19 25.1387 511.498 24.84C511.806 24.532 512.165 24.294 512.576 24.126C512.996 23.9487 513.449 23.86 513.934 23.86C514.503 23.86 514.993 23.9673 515.404 24.182C515.824 24.3873 516.165 24.644 516.426 24.952C516.697 25.26 516.893 25.596 517.014 25.96C517.145 26.324 517.21 26.66 517.21 26.968V27.864H511.61ZM513.934 24.896C513.626 24.896 513.337 24.9473 513.066 25.05C512.805 25.1433 512.571 25.2787 512.366 25.456C512.17 25.6333 512.007 25.8433 511.876 26.086C511.755 26.3193 511.675 26.576 511.638 26.856H516.118C516.099 26.5573 516.025 26.2867 515.894 26.044C515.773 25.8013 515.609 25.596 515.404 25.428C515.208 25.26 514.979 25.1293 514.718 25.036C514.466 24.9427 514.205 24.896 513.934 24.896ZM520.546 24.056H522.73V21.2H523.822V24.056H526.51V25.064H523.822V29.572C523.822 29.852 523.948 29.992 524.2 29.992H526.174V31H523.808C523.491 31 523.23 30.8973 523.024 30.692C522.828 30.4867 522.73 30.2253 522.73 29.908V25.064H520.546V24.056ZM535.797 29.824H535.629C535.405 30.2907 535.092 30.636 534.691 30.86C534.299 31.084 533.883 31.196 533.445 31.196C532.987 31.196 532.563 31.1213 532.171 30.972C531.779 30.8133 531.433 30.5847 531.135 30.286C530.845 29.978 530.617 29.6047 530.449 29.166C530.281 28.7273 530.197 28.2187 530.197 27.64V27.416C530.197 26.8467 530.281 26.3427 530.449 25.904C530.617 25.4653 530.845 25.0967 531.135 24.798C531.433 24.49 531.779 24.2567 532.171 24.098C532.563 23.9393 532.978 23.86 533.417 23.86C533.893 23.86 534.322 23.9673 534.705 24.182C535.097 24.3873 535.405 24.7093 535.629 25.148H535.797V24.056H536.889V29.572C536.889 29.852 537.015 29.992 537.267 29.992H537.617V31H536.875C536.557 31 536.296 30.8973 536.091 30.692C535.895 30.4867 535.797 30.2253 535.797 29.908V29.824ZM533.557 30.16C533.883 30.16 534.182 30.0993 534.453 29.978C534.733 29.8567 534.971 29.684 535.167 29.46C535.363 29.236 535.517 28.97 535.629 28.662C535.741 28.3447 535.797 27.9947 535.797 27.612V27.444C535.797 27.0707 535.741 26.73 535.629 26.422C535.517 26.1047 535.358 25.834 535.153 25.61C534.957 25.386 534.719 25.2133 534.439 25.092C534.168 24.9613 533.874 24.896 533.557 24.896C533.23 24.896 532.931 24.9567 532.661 25.078C532.39 25.1993 532.152 25.372 531.947 25.596C531.751 25.8107 531.597 26.0767 531.485 26.394C531.373 26.702 531.317 27.0427 531.317 27.416V27.64C531.317 28.4333 531.522 29.054 531.933 29.502C532.353 29.9407 532.894 30.16 533.557 30.16ZM542.885 21.984C542.885 21.7133 542.978 21.4847 543.165 21.298C543.361 21.102 543.594 21.004 543.865 21.004C544.136 21.004 544.364 21.102 544.551 21.298C544.747 21.4847 544.845 21.7133 544.845 21.984C544.845 22.2547 544.747 22.488 544.551 22.684C544.364 22.8707 544.136 22.964 543.865 22.964C543.594 22.964 543.361 22.8707 543.165 22.684C542.978 22.488 542.885 22.2547 542.885 21.984ZM540.897 29.992H543.333V25.064H541.149V24.056H544.425V29.992H546.693V31H540.897V29.992ZM550.701 29.992H553.221V22.208H550.785V21.2H554.313V29.992H556.833V31H550.701V29.992ZM562.115 25.848C562.115 26.184 562.255 26.4407 562.535 26.618C562.825 26.7953 563.347 26.912 564.103 26.968C564.915 27.0333 565.531 27.2293 565.951 27.556C566.381 27.8733 566.595 28.34 566.595 28.956V29.04C566.595 29.376 566.525 29.6793 566.385 29.95C566.255 30.2113 566.068 30.4353 565.825 30.622C565.592 30.8087 565.303 30.9487 564.957 31.042C564.621 31.1447 564.253 31.196 563.851 31.196C563.31 31.196 562.843 31.126 562.451 30.986C562.069 30.8367 561.747 30.6453 561.485 30.412C561.233 30.1693 561.042 29.8987 560.911 29.6C560.781 29.292 560.706 28.984 560.687 28.676L561.723 28.424C561.77 28.956 561.975 29.3853 562.339 29.712C562.703 30.0293 563.189 30.188 563.795 30.188C564.309 30.188 564.719 30.09 565.027 29.894C565.345 29.6887 565.503 29.404 565.503 29.04C565.503 28.648 565.349 28.368 565.041 28.2C564.733 28.032 564.234 27.9247 563.543 27.878C562.741 27.822 562.125 27.6353 561.695 27.318C561.266 27.0007 561.051 26.5387 561.051 25.932V25.848C561.051 25.5213 561.121 25.2367 561.261 24.994C561.401 24.742 561.588 24.532 561.821 24.364C562.064 24.196 562.335 24.07 562.633 23.986C562.932 23.902 563.245 23.86 563.571 23.86C564.029 23.86 564.43 23.9253 564.775 24.056C565.121 24.1773 565.41 24.3407 565.643 24.546C565.877 24.742 566.054 24.9707 566.175 25.232C566.306 25.4933 566.39 25.7547 566.427 26.016L565.391 26.268C565.345 25.82 565.163 25.47 564.845 25.218C564.537 24.966 564.131 24.84 563.627 24.84C563.431 24.84 563.24 24.8633 563.053 24.91C562.876 24.9473 562.717 25.008 562.577 25.092C562.437 25.176 562.325 25.2833 562.241 25.414C562.157 25.5353 562.115 25.68 562.115 25.848ZM572.732 30.216C572.732 29.9453 572.825 29.7167 573.012 29.53C573.208 29.334 573.441 29.236 573.712 29.236C573.982 29.236 574.211 29.334 574.398 29.53C574.594 29.7167 574.692 29.9453 574.692 30.216C574.692 30.4867 574.594 30.72 574.398 30.916C574.211 31.1027 573.982 31.196 573.712 31.196C573.441 31.196 573.208 31.1027 573.012 30.916C572.825 30.72 572.732 30.4867 572.732 30.216Z" fill="white"/>
</svg>
