<svg width="416" height="31" viewBox="0 0 416 31" fill="none" xmlns="http://www.w3.org/2000/svg">
<path d="M0.833628 1.6H5.18563L9.56963 21.888H10.1456L14.5296 1.6H18.8816L13.8256 24H5.88963L0.833628 1.6ZM22.2834 1.6H37.2594V5.632H31.8834V19.968H37.2594V24H22.2834V19.968H27.6594V5.632H22.2834V1.6ZM53.5251 8.448C53.5251 7.552 53.1731 6.77333 52.4691 6.112C51.7865 5.45067 50.8158 5.12 49.5571 5.12C48.4905 5.12 47.6478 5.344 47.0291 5.792C46.4105 6.21867 46.1011 6.80533 46.1011 7.552C46.1011 7.936 46.1758 8.288 46.3251 8.608C46.4745 8.90667 46.7305 9.184 47.0931 9.44C47.4771 9.67467 47.9678 9.888 48.5651 10.08C49.1838 10.272 49.9625 10.4533 50.9011 10.624C53.2478 11.0507 55.0398 11.7653 56.2771 12.768C57.5145 13.7707 58.1331 15.2533 58.1331 17.216V17.6C58.1331 18.6453 57.9411 19.5947 57.5571 20.448C57.1945 21.28 56.6611 21.9947 55.9571 22.592C55.2531 23.1893 54.3998 23.648 53.3971 23.968C52.3945 24.288 51.2638 24.448 50.0051 24.448C48.5331 24.448 47.2318 24.2453 46.1011 23.84C44.9918 23.4133 44.0638 22.8373 43.3171 22.112C42.5705 21.3653 42.0051 20.5013 41.6211 19.52C41.2371 18.5173 41.0451 17.4293 41.0451 16.256V15.296H45.2691V16.064C45.2691 17.408 45.6531 18.4853 46.4211 19.296C47.2105 20.0853 48.4265 20.48 50.0691 20.48C51.3491 20.48 52.2985 20.2027 52.9171 19.648C53.5358 19.0933 53.8451 18.432 53.8451 17.664C53.8451 17.3013 53.7811 16.96 53.6531 16.64C53.5251 16.2987 53.3011 16 52.9811 15.744C52.6611 15.4667 52.2238 15.2213 51.6691 15.008C51.1145 14.7947 50.4105 14.6133 49.5571 14.464C48.4265 14.272 47.3918 14.0267 46.4531 13.728C45.5145 13.408 44.6931 12.992 43.9891 12.48C43.3065 11.968 42.7731 11.328 42.3891 10.56C42.0051 9.792 41.8131 8.85333 41.8131 7.744V7.552C41.8131 6.63467 41.9945 5.792 42.3571 5.024C42.7411 4.23466 43.2638 3.552 43.9251 2.976C44.6078 2.4 45.4185 1.952 46.3571 1.632C47.3171 1.312 48.3838 1.152 49.5571 1.152C50.8798 1.152 52.0531 1.344 53.0771 1.728C54.1011 2.09067 54.9545 2.592 55.6371 3.232C56.3411 3.872 56.8638 4.608 57.2051 5.44C57.5678 6.272 57.7491 7.14667 57.7491 8.064V9.216H53.5251V8.448ZM62.1109 1.6H77.0869V5.632H71.7109V19.968H77.0869V24H62.1109V19.968H67.4869V5.632H62.1109V1.6ZM81.2566 10.304C81.2566 7.40267 81.982 5.152 83.4326 3.552C84.9046 1.952 86.9313 1.152 89.5126 1.152C92.094 1.152 94.11 1.952 95.5606 3.552C97.0326 5.152 97.7686 7.40267 97.7686 10.304V15.296C97.7686 18.2827 97.0326 20.5547 95.5606 22.112C94.11 23.6693 92.094 24.448 89.5126 24.448C86.9313 24.448 84.9046 23.6693 83.4326 22.112C81.982 20.5547 81.2566 18.2827 81.2566 15.296V10.304ZM89.5126 20.608C90.2806 20.608 90.9206 20.4907 91.4326 20.256C91.9446 20 92.3606 19.648 92.6806 19.2C93.0006 18.752 93.2246 18.2187 93.3526 17.6C93.4806 16.9813 93.5446 16.2987 93.5446 15.552V10.048C93.5446 9.344 93.47 8.68267 93.3206 8.064C93.1713 7.44533 92.9366 6.912 92.6166 6.464C92.2966 6.016 91.8806 5.664 91.3686 5.408C90.8566 5.13067 90.238 4.992 89.5126 4.992C88.7873 4.992 88.1686 5.13067 87.6566 5.408C87.1446 5.664 86.7286 6.016 86.4086 6.464C86.0886 6.912 85.854 7.44533 85.7046 8.064C85.5553 8.68267 85.4806 9.344 85.4806 10.048V15.552C85.4806 16.2987 85.5446 16.9813 85.6726 17.6C85.8006 18.2187 86.0246 18.752 86.3446 19.2C86.6646 19.648 87.0806 20 87.5926 20.256C88.1046 20.4907 88.7446 20.608 89.5126 20.608ZM112.466 21.888H113.042V1.6H117.266V24H109.01L106.386 3.712H105.81V24H101.586V1.6H109.842L112.466 21.888ZM145.094 1.6L148.87 10.752H149.638L153.414 1.6H157.99L153.382 12.48V13.056L157.99 24H153.414L149.638 14.784H148.87L145.094 24H140.518L145.126 13.056V12.48L140.518 1.6H145.094ZM196.665 24H192.441V17.28C192.441 16.768 192.303 16.352 192.025 16.032C191.769 15.712 191.332 15.552 190.713 15.552H185.849V24H181.625V1.6H190.201C191.353 1.6 192.367 1.76 193.241 2.08C194.116 2.4 194.841 2.848 195.417 3.424C196.015 3.97867 196.463 4.62933 196.761 5.376C197.081 6.12267 197.241 6.92267 197.241 7.776V8.544C197.241 9.46133 196.996 10.3253 196.505 11.136C196.015 11.9253 195.257 12.5333 194.233 12.96V13.536C194.98 13.6213 195.567 13.9093 195.993 14.4C196.441 14.8907 196.665 15.5093 196.665 16.256V24ZM185.849 11.52H189.881C190.905 11.52 191.684 11.2853 192.217 10.816C192.751 10.3253 193.017 9.64267 193.017 8.768V8.384C193.017 7.63733 192.751 6.99733 192.217 6.464C191.684 5.90933 190.905 5.632 189.881 5.632H185.849V11.52ZM205.251 17.376C205.272 17.8453 205.379 18.2827 205.571 18.688C205.784 19.072 206.062 19.4133 206.403 19.712C206.766 19.9893 207.171 20.2133 207.619 20.384C208.088 20.5333 208.579 20.608 209.091 20.608C210.094 20.608 210.862 20.4373 211.395 20.096C211.928 19.7333 212.312 19.3067 212.547 18.816L216.003 20.736C215.811 21.1413 215.544 21.568 215.203 22.016C214.862 22.4427 214.414 22.8373 213.859 23.2C213.326 23.5627 212.664 23.8613 211.875 24.096C211.107 24.3307 210.2 24.448 209.155 24.448C207.96 24.448 206.872 24.256 205.891 23.872C204.91 23.488 204.056 22.9333 203.331 22.208C202.627 21.4827 202.072 20.5973 201.667 19.552C201.283 18.5067 201.091 17.3227 201.091 16V15.808C201.091 14.592 201.294 13.4827 201.699 12.48C202.126 11.4773 202.702 10.624 203.427 9.92C204.152 9.216 204.995 8.672 205.955 8.288C206.936 7.88267 207.982 7.68 209.091 7.68C210.456 7.68 211.63 7.92533 212.611 8.416C213.592 8.88533 214.403 9.49333 215.043 10.24C215.683 10.9653 216.152 11.776 216.451 12.672C216.75 13.5467 216.899 14.4 216.899 15.232V17.376H205.251ZM209.059 11.328C208.035 11.328 207.203 11.5947 206.563 12.128C205.923 12.64 205.507 13.2373 205.315 13.92H212.803C212.675 13.1733 212.27 12.5547 211.587 12.064C210.926 11.5733 210.083 11.328 209.059 11.328ZM232.941 21.696H232.365C232.194 22.0587 231.981 22.4107 231.725 22.752C231.49 23.072 231.17 23.36 230.765 23.616C230.381 23.872 229.912 24.0747 229.357 24.224C228.824 24.3733 228.173 24.448 227.405 24.448C226.424 24.448 225.506 24.2773 224.653 23.936C223.821 23.5733 223.085 23.0507 222.445 22.368C221.826 21.664 221.336 20.8107 220.973 19.808C220.632 18.8053 220.461 17.6533 220.461 16.352V15.776C220.461 14.496 220.642 13.3547 221.005 12.352C221.389 11.3493 221.901 10.5067 222.541 9.824C223.202 9.12 223.96 8.58667 224.813 8.224C225.688 7.86133 226.605 7.68 227.565 7.68C228.845 7.68 229.858 7.92533 230.605 8.416C231.352 8.88533 231.938 9.55733 232.365 10.432H232.941V8.128H236.973V27.904C236.973 28.6293 236.738 29.2267 236.269 29.696C235.821 30.1653 235.234 30.4 234.509 30.4H223.821V26.56H232.077C232.653 26.56 232.941 26.24 232.941 25.6V21.696ZM228.717 20.608C229.976 20.608 230.989 20.2133 231.757 19.424C232.546 18.6133 232.941 17.5573 232.941 16.256V15.872C232.941 14.5707 232.546 13.5253 231.757 12.736C230.989 11.9253 229.976 11.52 228.717 11.52C227.458 11.52 226.434 11.9147 225.645 12.704C224.877 13.472 224.493 14.528 224.493 15.872V16.256C224.493 17.6 224.877 18.6667 225.645 19.456C226.434 20.224 227.458 20.608 228.717 20.608ZM241.815 20.16H247.191V11.968H242.199V8.128H251.223V20.16H255.831V24H241.815V20.16ZM252.215 3.424C252.215 3.85067 252.129 4.256 251.959 4.64C251.809 5.00267 251.596 5.32267 251.319 5.6C251.041 5.856 250.711 6.06933 250.327 6.24C249.964 6.38933 249.58 6.464 249.175 6.464C248.748 6.464 248.353 6.38933 247.991 6.24C247.628 6.06933 247.308 5.856 247.031 5.6C246.753 5.32267 246.529 5.00267 246.359 4.64C246.209 4.256 246.135 3.85067 246.135 3.424C246.135 2.99733 246.209 2.60267 246.359 2.24C246.529 1.856 246.753 1.536 247.031 1.28C247.308 1.00267 247.628 0.789332 247.991 0.639999C248.353 0.469332 248.748 0.383999 249.175 0.383999C249.58 0.383999 249.964 0.469332 250.327 0.639999C250.711 0.789332 251.041 1.00267 251.319 1.28C251.596 1.536 251.809 1.856 251.959 2.24C252.129 2.60267 252.215 2.99733 252.215 3.424ZM266.496 12.608C266.496 13.12 266.763 13.4933 267.296 13.728C267.83 13.9413 268.8 14.1227 270.208 14.272C271.83 14.4427 273.152 14.9333 274.176 15.744C275.2 16.5333 275.712 17.6427 275.712 19.072V19.264C275.712 20.8427 275.136 22.1013 273.984 23.04C272.832 23.9787 271.211 24.448 269.12 24.448C267.883 24.448 266.827 24.288 265.952 23.968C265.078 23.648 264.352 23.2533 263.776 22.784C263.2 22.2933 262.752 21.76 262.432 21.184C262.134 20.5867 261.931 20.0107 261.824 19.456L265.536 18.24C265.707 18.9227 266.059 19.52 266.592 20.032C267.147 20.544 267.99 20.8 269.12 20.8C270.123 20.8 270.806 20.6507 271.168 20.352C271.552 20.032 271.744 19.6907 271.744 19.328C271.744 19.1147 271.691 18.9227 271.584 18.752C271.499 18.56 271.328 18.3893 271.072 18.24C270.816 18.0693 270.464 17.9307 270.016 17.824C269.59 17.7173 269.046 17.632 268.384 17.568C266.592 17.4187 265.163 16.96 264.096 16.192C263.051 15.4027 262.528 14.2507 262.528 12.736V12.544C262.528 11.7547 262.699 11.0613 263.04 10.464C263.382 9.86667 263.83 9.36533 264.384 8.96C264.939 8.53333 265.579 8.21333 266.304 8C267.03 7.78667 267.776 7.68 268.544 7.68C269.547 7.68 270.411 7.808 271.136 8.064C271.883 8.29867 272.512 8.61867 273.024 9.024C273.536 9.408 273.952 9.84533 274.272 10.336C274.592 10.8053 274.838 11.264 275.008 11.712L271.36 13.184C271.168 12.608 270.838 12.16 270.368 11.84C269.899 11.4987 269.291 11.328 268.544 11.328C267.862 11.328 267.35 11.456 267.008 11.712C266.667 11.9467 266.496 12.2453 266.496 12.608ZM280.906 8.128H285.61V1.6H289.642V8.128H295.37V11.968H289.642V19.2C289.642 19.84 289.93 20.16 290.506 20.16H294.794V24H288.074C287.349 24 286.751 23.7653 286.282 23.296C285.834 22.8267 285.61 22.2293 285.61 21.504V11.968H280.906V8.128ZM300.5 8.128H307.22V10.432H307.796C308.095 9.55733 308.596 8.88533 309.3 8.416C310.025 7.92533 310.889 7.68 311.892 7.68C313.471 7.68 314.74 8.18133 315.7 9.184C316.66 10.1653 317.14 11.6693 317.14 13.696V14.4L312.98 14.784V14.336C312.98 13.4613 312.756 12.768 312.308 12.256C311.86 11.7227 311.188 11.456 310.292 11.456C309.396 11.456 308.692 11.7653 308.18 12.384C307.668 13.0027 307.412 13.888 307.412 15.04V20.16H311.06V24H300.116V20.16H303.38V11.968H300.5V8.128ZM331.454 21.696C331.027 22.6987 330.43 23.4133 329.662 23.84C328.894 24.2453 327.998 24.448 326.974 24.448C326.014 24.448 325.107 24.2667 324.254 23.904C323.422 23.5413 322.686 23.008 322.046 22.304C321.406 21.6 320.894 20.7467 320.51 19.744C320.147 18.7413 319.966 17.6 319.966 16.32V15.808C319.966 14.5493 320.147 13.4187 320.51 12.416C320.872 11.4133 321.363 10.56 321.982 9.856C322.6 9.152 323.315 8.61867 324.126 8.256C324.958 7.872 325.843 7.68 326.782 7.68C327.912 7.68 328.819 7.872 329.502 8.256C330.206 8.64 330.76 9.23733 331.166 10.048H331.742V8.128H335.774V19.2C335.774 19.84 336.062 20.16 336.638 20.16H337.246V24H334.494C333.768 24 333.171 23.7867 332.702 23.36C332.254 22.9333 332.03 22.3787 332.03 21.696H331.454ZM327.87 20.608C329.043 20.608 329.982 20.224 330.686 19.456C331.39 18.6667 331.742 17.6 331.742 16.256V15.872C331.742 14.528 331.39 13.472 330.686 12.704C329.982 11.9147 329.043 11.52 327.87 11.52C326.696 11.52 325.758 11.9147 325.054 12.704C324.35 13.472 323.998 14.528 323.998 15.872V16.256C323.998 17.6 324.35 18.6667 325.054 19.456C325.758 20.224 326.696 20.608 327.87 20.608ZM340.647 8.128H345.351V1.6H349.383V8.128H355.111V11.968H349.383V19.2C349.383 19.84 349.671 20.16 350.247 20.16H354.535V24H347.815C347.09 24 346.493 23.7653 346.023 23.296C345.575 22.8267 345.351 22.2293 345.351 21.504V11.968H340.647V8.128ZM361.297 20.16H366.673V11.968H361.681V8.128H370.705V20.16H375.313V24H361.297V20.16ZM371.697 3.424C371.697 3.85067 371.612 4.256 371.441 4.64C371.292 5.00267 371.078 5.32267 370.801 5.6C370.524 5.856 370.193 6.06933 369.809 6.24C369.446 6.38933 369.062 6.464 368.657 6.464C368.23 6.464 367.836 6.38933 367.473 6.24C367.11 6.06933 366.79 5.856 366.513 5.6C366.236 5.32267 366.012 5.00267 365.841 4.64C365.692 4.256 365.617 3.85067 365.617 3.424C365.617 2.99733 365.692 2.60267 365.841 2.24C366.012 1.856 366.236 1.536 366.513 1.28C366.79 1.00267 367.11 0.789332 367.473 0.639999C367.836 0.469332 368.23 0.383999 368.657 0.383999C369.062 0.383999 369.446 0.469332 369.809 0.639999C370.193 0.789332 370.524 1.00267 370.801 1.28C371.078 1.536 371.292 1.856 371.441 2.24C371.612 2.60267 371.697 2.99733 371.697 3.424ZM396.475 16.256C396.475 17.5787 396.251 18.752 395.803 19.776C395.355 20.7787 394.747 21.632 393.979 22.336C393.211 23.0187 392.326 23.5413 391.323 23.904C390.342 24.2667 389.307 24.448 388.219 24.448C387.131 24.448 386.086 24.2667 385.083 23.904C384.102 23.5413 383.227 23.0187 382.459 22.336C381.691 21.632 381.083 20.7787 380.635 19.776C380.187 18.752 379.963 17.5787 379.963 16.256V15.872C379.963 14.5707 380.187 13.4187 380.635 12.416C381.083 11.392 381.691 10.528 382.459 9.824C383.227 9.12 384.102 8.58667 385.083 8.224C386.086 7.86133 387.131 7.68 388.219 7.68C389.307 7.68 390.342 7.86133 391.323 8.224C392.326 8.58667 393.211 9.12 393.979 9.824C394.747 10.528 395.355 11.392 395.803 12.416C396.251 13.4187 396.475 14.5707 396.475 15.872V16.256ZM388.219 20.608C388.795 20.608 389.339 20.512 389.851 20.32C390.363 20.128 390.811 19.8507 391.195 19.488C391.579 19.1253 391.878 18.688 392.091 18.176C392.326 17.6427 392.443 17.0453 392.443 16.384V15.744C392.443 15.0827 392.326 14.496 392.091 13.984C391.878 13.4507 391.579 13.0027 391.195 12.64C390.811 12.2773 390.363 12 389.851 11.808C389.339 11.616 388.795 11.52 388.219 11.52C387.643 11.52 387.099 11.616 386.587 11.808C386.075 12 385.627 12.2773 385.243 12.64C384.859 13.0027 384.55 13.4507 384.315 13.984C384.102 14.496 383.995 15.0827 383.995 15.744V16.384C383.995 17.0453 384.102 17.6427 384.315 18.176C384.55 18.688 384.859 19.1253 385.243 19.488C385.627 19.8507 386.075 20.128 386.587 20.32C387.099 20.512 387.643 20.608 388.219 20.608ZM404.869 24H400.837V8.128H404.869V10.496H405.445C405.807 9.6 406.394 8.90667 407.205 8.416C408.015 7.92533 408.965 7.68 410.053 7.68C410.821 7.68 411.535 7.808 412.197 8.064C412.879 8.29867 413.477 8.672 413.989 9.184C414.501 9.696 414.895 10.3467 415.173 11.136C415.471 11.9253 415.621 12.864 415.621 13.952V24H411.589V14.976C411.589 13.8453 411.311 12.96 410.757 12.32C410.223 11.6587 409.445 11.328 408.421 11.328C407.226 11.328 406.33 11.7333 405.733 12.544C405.157 13.3333 404.869 14.4 404.869 15.744V24Z" fill="white"/>
</svg>
