<svg width="348" height="185" viewBox="0 0 348 185" fill="none" xmlns="http://www.w3.org/2000/svg">
<g filter="url(#filter0_b_544_3383)">
<rect width="348" height="185" rx="11" fill="white" fill-opacity="0.05"/>
</g>
<path d="M41.86 52H39.22V47.8C39.22 47.48 39.1333 47.22 38.96 47.02C38.8 46.82 38.5267 46.72 38.14 46.72H35.1V52H32.46V38H37.82C38.54 38 39.1733 38.1 39.72 38.3C40.2667 38.5 40.72 38.78 41.08 39.14C41.4533 39.4867 41.7333 39.8933 41.92 40.36C42.12 40.8267 42.22 41.3267 42.22 41.86V42.34C42.22 42.9133 42.0667 43.4533 41.76 43.96C41.4533 44.4533 40.98 44.8333 40.34 45.1V45.46C40.8067 45.5133 41.1733 45.6933 41.44 46C41.72 46.3067 41.86 46.6933 41.86 47.16V52ZM35.1 44.2H37.62C38.26 44.2 38.7467 44.0533 39.08 43.76C39.4133 43.4533 39.58 43.0267 39.58 42.48V42.24C39.58 41.7733 39.4133 41.3733 39.08 41.04C38.7467 40.6933 38.26 40.52 37.62 40.52H35.1V44.2ZM52.1261 42.08H54.6461V52H52.1261V50.56H51.7661C51.3261 51.7067 50.3794 52.28 48.9261 52.28C48.4328 52.28 47.9728 52.2 47.5461 52.04C47.1194 51.88 46.7461 51.6333 46.4261 51.3C46.1061 50.9667 45.8528 50.5533 45.6661 50.06C45.4928 49.5533 45.4061 48.96 45.4061 48.28V42.08H47.9261V47.76C47.9261 48.4667 48.0928 49.02 48.4261 49.42C48.7594 49.8067 49.2594 50 49.9261 50C50.6861 50 51.2394 49.76 51.5861 49.28C51.9461 48.7867 52.1261 48.12 52.1261 47.28V42.08ZM58.1922 49.6H61.6722V40.4H58.3122V38H64.1922V49.6H67.4322V52H58.1922V49.6ZM73.3183 47.86C73.3316 48.1533 73.3983 48.4267 73.5183 48.68C73.6516 48.92 73.8249 49.1333 74.0383 49.32C74.2649 49.4933 74.5183 49.6333 74.7983 49.74C75.0916 49.8333 75.3983 49.88 75.7183 49.88C76.3449 49.88 76.8249 49.7733 77.1583 49.56C77.4916 49.3333 77.7316 49.0667 77.8783 48.76L80.0383 49.96C79.9183 50.2133 79.7516 50.48 79.5383 50.76C79.3249 51.0267 79.0449 51.2733 78.6983 51.5C78.3649 51.7267 77.9516 51.9133 77.4583 52.06C76.9783 52.2067 76.4116 52.28 75.7583 52.28C75.0116 52.28 74.3316 52.16 73.7183 51.92C73.1049 51.68 72.5716 51.3333 72.1183 50.88C71.6783 50.4267 71.3316 49.8733 71.0783 49.22C70.8383 48.5667 70.7183 47.8267 70.7183 47V46.88C70.7183 46.12 70.8449 45.4267 71.0983 44.8C71.3649 44.1733 71.7249 43.64 72.1783 43.2C72.6316 42.76 73.1583 42.42 73.7583 42.18C74.3716 41.9267 75.0249 41.8 75.7183 41.8C76.5716 41.8 77.3049 41.9533 77.9183 42.26C78.5316 42.5533 79.0383 42.9333 79.4383 43.4C79.8383 43.8533 80.1316 44.36 80.3183 44.92C80.5049 45.4667 80.5983 46 80.5983 46.52V47.86H73.3183ZM75.6983 44.08C75.0583 44.08 74.5383 44.2467 74.1383 44.58C73.7383 44.9 73.4783 45.2733 73.3583 45.7H78.0383C77.9583 45.2333 77.7049 44.8467 77.2783 44.54C76.8649 44.2333 76.3383 44.08 75.6983 44.08ZM85.3844 45.36H91.6244V47.64H85.3844V45.36ZM106.37 49.48V52H96.5305V49.24C96.5305 48.5067 96.6371 47.88 96.8505 47.36C97.0771 46.84 97.3905 46.4 97.7905 46.04C98.2038 45.68 98.6971 45.3867 99.2705 45.16C99.8438 44.92 100.49 44.72 101.21 44.56C101.744 44.44 102.177 44.3067 102.51 44.16C102.857 44 103.13 43.8267 103.33 43.64C103.53 43.44 103.664 43.2267 103.73 43C103.81 42.76 103.85 42.4933 103.85 42.2C103.85 41.64 103.644 41.1733 103.23 40.8C102.83 40.4267 102.27 40.24 101.55 40.24C100.79 40.24 100.184 40.4733 99.7305 40.94C99.2771 41.3933 99.0505 42.0267 99.0505 42.84V43.72H96.4105V42.6C96.4105 41.9467 96.5238 41.3267 96.7505 40.74C96.9905 40.14 97.3238 39.62 97.7505 39.18C98.1905 38.7267 98.7238 38.3733 99.3505 38.12C99.9771 37.8533 100.684 37.72 101.47 37.72C102.31 37.72 103.044 37.8467 103.67 38.1C104.297 38.34 104.817 38.66 105.23 39.06C105.657 39.46 105.97 39.9267 106.17 40.46C106.384 40.98 106.49 41.52 106.49 42.08V42.32C106.49 43.4933 106.157 44.4667 105.49 45.24C104.837 46.0133 103.764 46.5733 102.27 46.92C101.644 47.0667 101.124 47.22 100.71 47.38C100.31 47.5267 99.9971 47.6933 99.7705 47.88C99.5438 48.0667 99.3838 48.2733 99.2905 48.5C99.2105 48.7133 99.1705 48.96 99.1705 49.24V49.48H106.37Z" fill="white"/>
<path d="M38.536 89.032C38.536 88.6693 38.4613 88.3493 38.312 88.072C38.1733 87.7947 37.9813 87.5653 37.736 87.384C37.4907 87.2027 37.208 87.064 36.888 86.968C36.568 86.872 36.232 86.824 35.88 86.824C35.5707 86.824 35.2773 86.8667 35 86.952C34.7227 87.0267 34.472 87.1387 34.248 87.288C34.0347 87.4373 33.864 87.624 33.736 87.848C33.608 88.0613 33.544 88.312 33.544 88.6V88.696C33.544 89.0053 33.608 89.272 33.736 89.496C33.864 89.7093 34.0507 89.896 34.296 90.056C34.552 90.2053 34.8667 90.3333 35.24 90.44C35.6133 90.536 36.0507 90.6213 36.552 90.696C37.7253 90.8773 38.5893 91.224 39.144 91.736C39.6987 92.2373 39.976 92.9147 39.976 93.768V93.96C39.976 94.44 39.8907 94.8827 39.72 95.288C39.56 95.6827 39.3147 96.024 38.984 96.312C38.664 96.6 38.264 96.824 37.784 96.984C37.304 97.144 36.7493 97.224 36.12 97.224C35.4053 97.224 34.7707 97.1227 34.216 96.92C33.672 96.7067 33.2133 96.4187 32.84 96.056C32.4773 95.6827 32.2 95.2507 32.008 94.76C31.816 94.2587 31.72 93.7147 31.72 93.128V92.648H33.064V93.032C33.064 94.0133 33.3307 94.7493 33.864 95.24C34.408 95.7307 35.16 95.976 36.12 95.976C36.952 95.976 37.576 95.7947 37.992 95.432C38.4187 95.0587 38.632 94.568 38.632 93.96V93.864C38.632 93.2773 38.4133 92.8293 37.976 92.52C37.5493 92.2107 36.8507 91.9867 35.88 91.848C35.3147 91.7733 34.8027 91.6613 34.344 91.512C33.896 91.352 33.512 91.1493 33.192 90.904C32.872 90.648 32.6267 90.344 32.456 89.992C32.2853 89.64 32.2 89.224 32.2 88.744V88.552C32.2 88.1147 32.2907 87.7147 32.472 87.352C32.6533 86.9893 32.904 86.6747 33.224 86.408C33.5547 86.1413 33.944 85.9387 34.392 85.8C34.8507 85.6507 35.352 85.576 35.896 85.576C36.5253 85.576 37.0853 85.6667 37.576 85.848C38.0773 86.0293 38.4987 86.2747 38.84 86.584C39.1813 86.8827 39.4373 87.24 39.608 87.656C39.7893 88.0613 39.88 88.488 39.88 88.936V89.608H38.536V89.032ZM42.3969 89.064H44.8929V85.8H46.1409V89.064H49.2129V90.216H46.1409V95.368C46.1409 95.688 46.2849 95.848 46.5729 95.848H48.8289V97H46.1249C45.7622 97 45.4635 96.8827 45.2289 96.648C45.0049 96.4133 44.8929 96.1147 44.8929 95.752V90.216H42.3969V89.064ZM60.4337 93.128C60.4337 93.7893 60.3217 94.376 60.0977 94.888C59.8844 95.3893 59.5964 95.816 59.2337 96.168C58.8711 96.5093 58.4444 96.7707 57.9537 96.952C57.4737 97.1333 56.9724 97.224 56.4497 97.224C55.9164 97.224 55.4097 97.1333 54.9297 96.952C54.4497 96.7707 54.0284 96.5093 53.6657 96.168C53.3031 95.816 53.0097 95.3893 52.7857 94.888C52.5724 94.376 52.4657 93.7893 52.4657 93.128V92.936C52.4657 92.2853 52.5724 91.7093 52.7857 91.208C53.0097 90.696 53.3031 90.264 53.6657 89.912C54.0391 89.56 54.4657 89.2933 54.9457 89.112C55.4257 88.9307 55.9271 88.84 56.4497 88.84C56.9724 88.84 57.4737 88.9307 57.9537 89.112C58.4337 89.2933 58.8551 89.56 59.2177 89.912C59.5911 90.264 59.8844 90.696 60.0977 91.208C60.3217 91.7093 60.4337 92.2853 60.4337 92.936V93.128ZM56.4497 96.04C56.8337 96.04 57.1857 95.976 57.5057 95.848C57.8364 95.7093 58.1244 95.512 58.3697 95.256C58.6151 95 58.8071 94.696 58.9457 94.344C59.0844 93.9813 59.1537 93.576 59.1537 93.128V92.936C59.1537 92.5093 59.0844 92.12 58.9457 91.768C58.8071 91.4053 58.6151 91.096 58.3697 90.84C58.1244 90.584 57.8364 90.3867 57.5057 90.248C57.1751 90.0987 56.8231 90.024 56.4497 90.024C56.0764 90.024 55.7244 90.0987 55.3937 90.248C55.0631 90.3867 54.7751 90.584 54.5297 90.84C54.2844 91.096 54.0924 91.4053 53.9537 91.768C53.8151 92.12 53.7457 92.5093 53.7457 92.936V93.128C53.7457 93.576 53.8151 93.9813 53.9537 94.344C54.0924 94.696 54.2844 95 54.5297 95.256C54.7751 95.512 55.0577 95.7093 55.3777 95.848C55.7084 95.976 56.0657 96.04 56.4497 96.04ZM64.1826 100.2H62.9346V89.064H64.1826V90.312H64.3746C64.652 89.832 65.036 89.4693 65.5266 89.224C66.0173 88.968 66.5506 88.84 67.1266 88.84C67.6173 88.84 68.0813 88.9307 68.5186 89.112C68.956 89.2933 69.34 89.5547 69.6706 89.896C70.012 90.2373 70.2786 90.6587 70.4706 91.16C70.6733 91.6613 70.7746 92.232 70.7746 92.872V93.192C70.7746 93.8427 70.6786 94.4187 70.4866 94.92C70.2946 95.4213 70.028 95.8427 69.6866 96.184C69.356 96.5253 68.9666 96.7867 68.5186 96.968C68.0706 97.1387 67.596 97.224 67.0946 97.224C66.8386 97.224 66.5773 97.192 66.3106 97.128C66.044 97.0747 65.788 96.9893 65.5426 96.872C65.308 96.744 65.0893 96.5947 64.8866 96.424C64.684 96.2427 64.5133 96.0293 64.3746 95.784H64.1826V100.2ZM66.8386 96.04C67.2226 96.04 67.5746 95.976 67.8946 95.848C68.2146 95.7093 68.492 95.5173 68.7266 95.272C68.972 95.0267 69.1586 94.728 69.2866 94.376C69.4253 94.024 69.4946 93.6293 69.4946 93.192V92.872C69.4946 92.4453 69.4253 92.0613 69.2866 91.72C69.1586 91.368 68.972 91.0693 68.7266 90.824C68.492 90.568 68.2093 90.3707 67.8786 90.232C67.5586 90.0933 67.212 90.024 66.8386 90.024C66.4653 90.024 66.1186 90.0987 65.7986 90.248C65.4786 90.3867 65.196 90.584 64.9506 90.84C64.716 91.096 64.5293 91.4053 64.3906 91.768C64.252 92.12 64.1826 92.5093 64.1826 92.936V93.128C64.1826 93.5653 64.252 93.9653 64.3906 94.328C64.5293 94.68 64.716 94.984 64.9506 95.24C65.196 95.496 65.4786 95.6933 65.7986 95.832C66.1186 95.9707 66.4653 96.04 66.8386 96.04ZM80.9235 94.184C80.8382 94.6213 80.6888 95.0267 80.4755 95.4C80.2728 95.7733 80.0115 96.0987 79.6915 96.376C79.3715 96.6427 78.9982 96.8507 78.5715 97C78.1448 97.1493 77.6702 97.224 77.1475 97.224C76.5928 97.224 76.0648 97.1333 75.5635 96.952C75.0728 96.7707 74.6408 96.5093 74.2675 96.168C73.8942 95.816 73.5955 95.3893 73.3715 94.888C73.1582 94.3867 73.0515 93.8107 73.0515 93.16V92.968C73.0515 92.328 73.1582 91.752 73.3715 91.24C73.5955 90.728 73.8942 90.296 74.2675 89.944C74.6408 89.592 75.0728 89.32 75.5635 89.128C76.0648 88.936 76.5928 88.84 77.1475 88.84C77.6488 88.84 78.1128 88.9147 78.5395 89.064C78.9662 89.2133 79.3395 89.4267 79.6595 89.704C79.9902 89.9707 80.2568 90.2907 80.4595 90.664C80.6728 91.0373 80.8168 91.4427 80.8915 91.88L79.6435 92.168C79.6115 91.8907 79.5315 91.624 79.4035 91.368C79.2862 91.1013 79.1208 90.872 78.9075 90.68C78.7048 90.4773 78.4542 90.3173 78.1555 90.2C77.8568 90.0827 77.5102 90.024 77.1155 90.024C76.7315 90.024 76.3688 90.0987 76.0275 90.248C75.6968 90.3867 75.4035 90.5893 75.1475 90.856C74.8915 91.112 74.6888 91.4213 74.5395 91.784C74.4008 92.1467 74.3315 92.5413 74.3315 92.968V93.16C74.3315 93.608 74.4008 94.0133 74.5395 94.376C74.6888 94.728 74.8915 95.0267 75.1475 95.272C75.4035 95.5173 75.7022 95.7093 76.0435 95.848C76.3848 95.976 76.7528 96.04 77.1475 96.04C77.5422 96.04 77.8835 95.9813 78.1715 95.864C78.4702 95.736 78.7208 95.576 78.9235 95.384C79.1368 95.1813 79.3022 94.952 79.4195 94.696C79.5475 94.44 79.6328 94.1733 79.6755 93.896L80.9235 94.184ZM83.7764 95.848H86.6564V86.952H83.8724V85.8H87.9044V95.848H90.7844V97H83.7764V95.848ZM101.541 93.128C101.541 93.7893 101.429 94.376 101.205 94.888C100.992 95.3893 100.704 95.816 100.341 96.168C99.9786 96.5093 99.5519 96.7707 99.0613 96.952C98.5813 97.1333 98.0799 97.224 97.5573 97.224C97.0239 97.224 96.5173 97.1333 96.0373 96.952C95.5573 96.7707 95.1359 96.5093 94.7733 96.168C94.4106 95.816 94.1173 95.3893 93.8933 94.888C93.6799 94.376 93.5733 93.7893 93.5733 93.128V92.936C93.5733 92.2853 93.6799 91.7093 93.8933 91.208C94.1173 90.696 94.4106 90.264 94.7733 89.912C95.1466 89.56 95.5733 89.2933 96.0533 89.112C96.5333 88.9307 97.0346 88.84 97.5573 88.84C98.0799 88.84 98.5813 88.9307 99.0613 89.112C99.5413 89.2933 99.9626 89.56 100.325 89.912C100.699 90.264 100.992 90.696 101.205 91.208C101.429 91.7093 101.541 92.2853 101.541 92.936V93.128ZM97.5573 96.04C97.9413 96.04 98.2933 95.976 98.6133 95.848C98.9439 95.7093 99.2319 95.512 99.4773 95.256C99.7226 95 99.9146 94.696 100.053 94.344C100.192 93.9813 100.261 93.576 100.261 93.128V92.936C100.261 92.5093 100.192 92.12 100.053 91.768C99.9146 91.4053 99.7226 91.096 99.4773 90.84C99.2319 90.584 98.9439 90.3867 98.6133 90.248C98.2826 90.0987 97.9306 90.024 97.5573 90.024C97.1839 90.024 96.8319 90.0987 96.5013 90.248C96.1706 90.3867 95.8826 90.584 95.6373 90.84C95.3919 91.096 95.1999 91.4053 95.0613 91.768C94.9226 92.12 94.8533 92.5093 94.8533 92.936V93.128C94.8533 93.576 94.9226 93.9813 95.0613 94.344C95.1999 94.696 95.3919 95 95.6373 95.256C95.8826 95.512 96.1653 95.7093 96.4853 95.848C96.8159 95.976 97.1733 96.04 97.5573 96.04ZM111.754 94.184C111.669 94.6213 111.519 95.0267 111.306 95.4C111.103 95.7733 110.842 96.0987 110.522 96.376C110.202 96.6427 109.829 96.8507 109.402 97C108.975 97.1493 108.501 97.224 107.978 97.224C107.423 97.224 106.895 97.1333 106.394 96.952C105.903 96.7707 105.471 96.5093 105.098 96.168C104.725 95.816 104.426 95.3893 104.202 94.888C103.989 94.3867 103.882 93.8107 103.882 93.16V92.968C103.882 92.328 103.989 91.752 104.202 91.24C104.426 90.728 104.725 90.296 105.098 89.944C105.471 89.592 105.903 89.32 106.394 89.128C106.895 88.936 107.423 88.84 107.978 88.84C108.479 88.84 108.943 88.9147 109.37 89.064C109.797 89.2133 110.17 89.4267 110.49 89.704C110.821 89.9707 111.087 90.2907 111.29 90.664C111.503 91.0373 111.647 91.4427 111.722 91.88L110.474 92.168C110.442 91.8907 110.362 91.624 110.234 91.368C110.117 91.1013 109.951 90.872 109.738 90.68C109.535 90.4773 109.285 90.3173 108.986 90.2C108.687 90.0827 108.341 90.024 107.946 90.024C107.562 90.024 107.199 90.0987 106.858 90.248C106.527 90.3867 106.234 90.5893 105.978 90.856C105.722 91.112 105.519 91.4213 105.37 91.784C105.231 92.1467 105.162 92.5413 105.162 92.968V93.16C105.162 93.608 105.231 94.0133 105.37 94.376C105.519 94.728 105.722 95.0267 105.978 95.272C106.234 95.5173 106.533 95.7093 106.874 95.848C107.215 95.976 107.583 96.04 107.978 96.04C108.373 96.04 108.714 95.9813 109.002 95.864C109.301 95.736 109.551 95.576 109.754 95.384C109.967 95.1813 110.133 94.952 110.25 94.696C110.378 94.44 110.463 94.1733 110.506 93.896L111.754 94.184ZM116.655 92.36H116.927L119.951 89.064H121.487V89.16L118.191 92.792V93.08L121.871 96.904V97H120.335L116.959 93.512H116.655V97H115.407V85.8H116.655V92.36ZM126.532 91.112C126.532 91.496 126.692 91.7893 127.012 91.992C127.343 92.1947 127.94 92.328 128.804 92.392C129.732 92.4667 130.436 92.6907 130.916 93.064C131.407 93.4267 131.652 93.96 131.652 94.664V94.76C131.652 95.144 131.572 95.4907 131.412 95.8C131.263 96.0987 131.049 96.3547 130.772 96.568C130.505 96.7813 130.175 96.9413 129.78 97.048C129.396 97.1653 128.975 97.224 128.516 97.224C127.897 97.224 127.364 97.144 126.916 96.984C126.479 96.8133 126.111 96.5947 125.812 96.328C125.524 96.0507 125.305 95.7413 125.156 95.4C125.007 95.048 124.921 94.696 124.9 94.344L126.084 94.056C126.137 94.664 126.372 95.1547 126.788 95.528C127.204 95.8907 127.759 96.072 128.452 96.072C129.039 96.072 129.508 95.96 129.86 95.736C130.223 95.5013 130.404 95.176 130.404 94.76C130.404 94.312 130.228 93.992 129.876 93.8C129.524 93.608 128.953 93.4853 128.164 93.432C127.247 93.368 126.543 93.1547 126.052 92.792C125.561 92.4293 125.316 91.9013 125.316 91.208V91.112C125.316 90.7387 125.396 90.4133 125.556 90.136C125.716 89.848 125.929 89.608 126.196 89.416C126.473 89.224 126.783 89.08 127.124 88.984C127.465 88.888 127.823 88.84 128.196 88.84C128.719 88.84 129.177 88.9147 129.572 89.064C129.967 89.2027 130.297 89.3893 130.564 89.624C130.831 89.848 131.033 90.1093 131.172 90.408C131.321 90.7067 131.417 91.0053 131.46 91.304L130.276 91.592C130.223 91.08 130.015 90.68 129.652 90.392C129.3 90.104 128.836 89.96 128.26 89.96C128.036 89.96 127.817 89.9867 127.604 90.04C127.401 90.0827 127.22 90.152 127.06 90.248C126.9 90.344 126.772 90.4667 126.676 90.616C126.58 90.7547 126.532 90.92 126.532 91.112ZM154.476 97H152.172L151.212 89.64H151.02L150.06 97H147.756L146.508 89.064H147.788L148.844 96.424H149.036L149.964 89.064H152.268L153.196 96.424H153.388L154.444 89.064H155.724L154.476 97ZM160.353 86.696C160.353 86.3867 160.46 86.1253 160.673 85.912C160.897 85.688 161.164 85.576 161.473 85.576C161.783 85.576 162.044 85.688 162.257 85.912C162.481 86.1253 162.593 86.3867 162.593 86.696C162.593 87.0053 162.481 87.272 162.257 87.496C162.044 87.7093 161.783 87.816 161.473 87.816C161.164 87.816 160.897 87.7093 160.673 87.496C160.46 87.272 160.353 87.0053 160.353 86.696ZM158.081 95.848H160.865V90.216H158.369V89.064H162.113V95.848H164.705V97H158.081V95.848ZM168.166 95.848H171.046V86.952H168.262V85.8H172.294V95.848H175.174V97H168.166V95.848ZM178.443 95.848H181.323V86.952H178.539V85.8H182.571V95.848H185.451V97H178.443V95.848ZM202.132 97H200.884V85.8H202.132V90.312H202.324C202.601 89.832 202.985 89.4693 203.476 89.224C203.966 88.968 204.5 88.84 205.076 88.84C205.566 88.84 206.03 88.9307 206.468 89.112C206.905 89.2933 207.289 89.5547 207.62 89.896C207.961 90.2373 208.228 90.6587 208.42 91.16C208.622 91.6613 208.724 92.232 208.724 92.872V93.192C208.724 93.8427 208.628 94.4187 208.436 94.92C208.244 95.4213 207.977 95.8427 207.636 96.184C207.305 96.5253 206.916 96.7867 206.468 96.968C206.02 97.1387 205.545 97.224 205.044 97.224C204.788 97.224 204.526 97.192 204.26 97.128C203.993 97.0747 203.737 96.9893 203.492 96.872C203.257 96.744 203.038 96.5947 202.836 96.424C202.633 96.2427 202.462 96.0293 202.324 95.784H202.132V97ZM204.788 96.04C205.172 96.04 205.524 95.976 205.844 95.848C206.164 95.7093 206.441 95.5173 206.676 95.272C206.921 95.0267 207.108 94.728 207.236 94.376C207.374 94.024 207.444 93.6293 207.444 93.192V92.872C207.444 92.4453 207.374 92.0613 207.236 91.72C207.108 91.368 206.921 91.0693 206.676 90.824C206.441 90.568 206.158 90.3707 205.828 90.232C205.508 90.0933 205.161 90.024 204.788 90.024C204.414 90.024 204.068 90.0987 203.748 90.248C203.428 90.3867 203.145 90.584 202.9 90.84C202.665 91.096 202.478 91.4053 202.34 91.768C202.201 92.12 202.132 92.5093 202.132 92.936V93.128C202.132 93.5653 202.201 93.9653 202.34 94.328C202.478 94.68 202.665 94.984 202.9 95.24C203.145 95.496 203.428 95.6933 203.748 95.832C204.068 95.9707 204.414 96.04 204.788 96.04ZM212.36 93.416C212.392 94.2053 212.638 94.84 213.096 95.32C213.555 95.8 214.195 96.04 215.016 96.04C215.39 96.04 215.715 95.9973 215.992 95.912C216.27 95.8267 216.504 95.7093 216.696 95.56C216.899 95.4107 217.059 95.24 217.176 95.048C217.304 94.8453 217.406 94.632 217.48 94.408L218.664 94.728C218.44 95.464 218.024 96.0667 217.416 96.536C216.819 96.9947 216.008 97.224 214.984 97.224C214.419 97.224 213.896 97.128 213.416 96.936C212.947 96.7333 212.542 96.4507 212.2 96.088C211.859 95.7253 211.592 95.2933 211.4 94.792C211.208 94.2907 211.112 93.736 211.112 93.128V92.744C211.112 92.1893 211.208 91.672 211.4 91.192C211.603 90.712 211.88 90.3013 212.232 89.96C212.584 89.608 212.995 89.336 213.464 89.144C213.944 88.9413 214.462 88.84 215.016 88.84C215.667 88.84 216.227 88.9627 216.696 89.208C217.176 89.4427 217.566 89.736 217.864 90.088C218.174 90.44 218.398 90.824 218.536 91.24C218.686 91.656 218.76 92.04 218.76 92.392V93.416H212.36ZM215.016 90.024C214.664 90.024 214.334 90.0827 214.024 90.2C213.726 90.3067 213.459 90.4613 213.224 90.664C213 90.8667 212.814 91.1067 212.664 91.384C212.526 91.6507 212.435 91.944 212.392 92.264H217.512C217.491 91.9227 217.406 91.6133 217.256 91.336C217.118 91.0587 216.931 90.824 216.696 90.632C216.472 90.44 216.211 90.2907 215.912 90.184C215.624 90.0773 215.326 90.024 215.016 90.024ZM239.841 89.064H241.089V97H239.841V95.56H239.649C239.393 96.072 239.057 96.4773 238.641 96.776C238.225 97.0747 237.697 97.224 237.057 97.224C236.62 97.224 236.214 97.1493 235.841 97C235.478 96.8613 235.164 96.648 234.897 96.36C234.641 96.072 234.438 95.7147 234.289 95.288C234.15 94.8613 234.081 94.3653 234.081 93.8V89.064H235.329V93.64C235.329 94.472 235.5 95.08 235.841 95.464C236.182 95.848 236.705 96.04 237.409 96.04C238.166 96.04 238.758 95.784 239.185 95.272C239.622 94.7493 239.841 94.056 239.841 93.192V89.064ZM244.182 89.064H246.678V85.8H247.926V89.064H250.998V90.216H247.926V95.368C247.926 95.688 248.07 95.848 248.358 95.848H250.614V97H247.91C247.547 97 247.249 96.8827 247.014 96.648C246.79 96.4133 246.678 96.1147 246.678 95.752V90.216H244.182V89.064ZM257.195 86.696C257.195 86.3867 257.301 86.1253 257.515 85.912C257.739 85.688 258.005 85.576 258.315 85.576C258.624 85.576 258.885 85.688 259.099 85.912C259.323 86.1253 259.435 86.3867 259.435 86.696C259.435 87.0053 259.323 87.272 259.099 87.496C258.885 87.7093 258.624 87.816 258.315 87.816C258.005 87.816 257.739 87.7093 257.515 87.496C257.301 87.272 257.195 87.0053 257.195 86.696ZM254.923 95.848H257.707V90.216H255.211V89.064H258.955V95.848H261.547V97H254.923V95.848ZM265.008 95.848H267.888V86.952H265.104V85.8H269.136V95.848H272.016V97H265.008V95.848ZM277.749 86.696C277.749 86.3867 277.855 86.1253 278.069 85.912C278.293 85.688 278.559 85.576 278.869 85.576C279.178 85.576 279.439 85.688 279.653 85.912C279.877 86.1253 279.989 86.3867 279.989 86.696C279.989 87.0053 279.877 87.272 279.653 87.496C279.439 87.7093 279.178 87.816 278.869 87.816C278.559 87.816 278.293 87.7093 278.069 87.496C277.855 87.272 277.749 87.0053 277.749 86.696ZM275.477 95.848H278.261V90.216H275.765V89.064H279.509V95.848H282.101V97H275.477V95.848ZM292.537 95.848V97H285.625V95.016L291.289 90.408V90.216H285.721V89.064H292.345V90.984L286.649 95.656V95.848H292.537ZM296.75 93.416C296.782 94.2053 297.028 94.84 297.486 95.32C297.945 95.8 298.585 96.04 299.406 96.04C299.78 96.04 300.105 95.9973 300.382 95.912C300.66 95.8267 300.894 95.7093 301.086 95.56C301.289 95.4107 301.449 95.24 301.566 95.048C301.694 94.8453 301.796 94.632 301.87 94.408L303.054 94.728C302.83 95.464 302.414 96.0667 301.806 96.536C301.209 96.9947 300.398 97.224 299.374 97.224C298.809 97.224 298.286 97.128 297.806 96.936C297.337 96.7333 296.932 96.4507 296.59 96.088C296.249 95.7253 295.982 95.2933 295.79 94.792C295.598 94.2907 295.502 93.736 295.502 93.128V92.744C295.502 92.1893 295.598 91.672 295.79 91.192C295.993 90.712 296.27 90.3013 296.622 89.96C296.974 89.608 297.385 89.336 297.854 89.144C298.334 88.9413 298.852 88.84 299.406 88.84C300.057 88.84 300.617 88.9627 301.086 89.208C301.566 89.4427 301.956 89.736 302.254 90.088C302.564 90.44 302.788 90.824 302.926 91.24C303.076 91.656 303.15 92.04 303.15 92.392V93.416H296.75ZM299.406 90.024C299.054 90.024 298.724 90.0827 298.414 90.2C298.116 90.3067 297.849 90.4613 297.614 90.664C297.39 90.8667 297.204 91.1067 297.054 91.384C296.916 91.6507 296.825 91.944 296.782 92.264H301.902C301.881 91.9227 301.796 91.6133 301.646 91.336C301.508 91.0587 301.321 90.824 301.086 90.632C300.862 90.44 300.601 90.2907 300.302 90.184C300.014 90.0773 299.716 90.024 299.406 90.024ZM312.259 95.784H312.067C311.939 96.0293 311.774 96.2427 311.571 96.424C311.379 96.6053 311.166 96.7547 310.931 96.872C310.707 96.9893 310.467 97.0747 310.211 97.128C309.955 97.192 309.71 97.224 309.475 97.224C308.942 97.224 308.446 97.1333 307.987 96.952C307.528 96.7707 307.123 96.5093 306.771 96.168C306.43 95.8267 306.158 95.4053 305.955 94.904C305.763 94.392 305.667 93.8107 305.667 93.16V92.904C305.667 92.264 305.768 91.6933 305.971 91.192C306.174 90.68 306.446 90.2533 306.787 89.912C307.128 89.56 307.528 89.2933 307.987 89.112C308.446 88.9307 308.931 88.84 309.443 88.84C309.987 88.84 310.494 88.9627 310.963 89.208C311.443 89.4427 311.811 89.8107 312.067 90.312H312.259V85.8H313.507V97H312.259V95.784ZM309.603 96.04C309.976 96.04 310.323 95.9707 310.643 95.832C310.963 95.6933 311.24 95.496 311.475 95.24C311.72 94.984 311.912 94.68 312.051 94.328C312.19 93.9653 312.259 93.5653 312.259 93.128V92.936C312.259 92.5093 312.19 92.12 312.051 91.768C311.912 91.4053 311.72 91.096 311.475 90.84C311.24 90.584 310.958 90.3867 310.627 90.248C310.307 90.0987 309.966 90.024 309.603 90.024C309.23 90.024 308.878 90.0933 308.547 90.232C308.227 90.3707 307.944 90.568 307.699 90.824C307.464 91.08 307.278 91.384 307.139 91.736C307.011 92.088 306.947 92.4773 306.947 92.904V93.16C306.947 93.608 307.011 94.008 307.139 94.36C307.278 94.712 307.464 95.016 307.699 95.272C307.944 95.5173 308.227 95.7093 308.547 95.848C308.867 95.976 309.219 96.04 309.603 96.04ZM32.12 118.064H34.616V114.8H35.864V118.064H38.936V119.216H35.864V124.368C35.864 124.688 36.008 124.848 36.296 124.848H38.552V126H35.848C35.4853 126 35.1867 125.883 34.952 125.648C34.728 125.413 34.616 125.115 34.616 124.752V119.216H32.12V118.064ZM50.1569 122.128C50.1569 122.789 50.0449 123.376 49.8209 123.888C49.6075 124.389 49.3195 124.816 48.9569 125.168C48.5942 125.509 48.1675 125.771 47.6769 125.952C47.1969 126.133 46.6955 126.224 46.1729 126.224C45.6395 126.224 45.1329 126.133 44.6529 125.952C44.1729 125.771 43.7515 125.509 43.3889 125.168C43.0262 124.816 42.7329 124.389 42.5089 123.888C42.2955 123.376 42.1889 122.789 42.1889 122.128V121.936C42.1889 121.285 42.2955 120.709 42.5089 120.208C42.7329 119.696 43.0262 119.264 43.3889 118.912C43.7622 118.56 44.1889 118.293 44.6689 118.112C45.1489 117.931 45.6502 117.84 46.1729 117.84C46.6955 117.84 47.1969 117.931 47.6769 118.112C48.1569 118.293 48.5782 118.56 48.9409 118.912C49.3142 119.264 49.6075 119.696 49.8209 120.208C50.0449 120.709 50.1569 121.285 50.1569 121.936V122.128ZM46.1729 125.04C46.5569 125.04 46.9089 124.976 47.2289 124.848C47.5595 124.709 47.8475 124.512 48.0929 124.256C48.3382 124 48.5302 123.696 48.6689 123.344C48.8075 122.981 48.8769 122.576 48.8769 122.128V121.936C48.8769 121.509 48.8075 121.12 48.6689 120.768C48.5302 120.405 48.3382 120.096 48.0929 119.84C47.8475 119.584 47.5595 119.387 47.2289 119.248C46.8982 119.099 46.5462 119.024 46.1729 119.024C45.7995 119.024 45.4475 119.099 45.1169 119.248C44.7862 119.387 44.4982 119.584 44.2529 119.84C44.0075 120.096 43.8155 120.405 43.6769 120.768C43.5382 121.12 43.4689 121.509 43.4689 121.936V122.128C43.4689 122.576 43.5382 122.981 43.6769 123.344C43.8155 123.696 44.0075 124 44.2529 124.256C44.4982 124.512 44.7809 124.709 45.1009 124.848C45.4315 124.976 45.7889 125.04 46.1729 125.04ZM65.2706 121.36H65.5426L68.5666 118.064H70.1026V118.16L66.8066 121.792V122.08L70.4866 125.904V126H68.9506L65.5746 122.512H65.2706V126H64.0226V114.8H65.2706V121.36ZM74.4115 122.416C74.4435 123.205 74.6888 123.84 75.1475 124.32C75.6062 124.8 76.2462 125.04 77.0675 125.04C77.4408 125.04 77.7662 124.997 78.0435 124.912C78.3208 124.827 78.5555 124.709 78.7475 124.56C78.9502 124.411 79.1102 124.24 79.2275 124.048C79.3555 123.845 79.4568 123.632 79.5315 123.408L80.7155 123.728C80.4915 124.464 80.0755 125.067 79.4675 125.536C78.8702 125.995 78.0595 126.224 77.0355 126.224C76.4702 126.224 75.9475 126.128 75.4675 125.936C74.9982 125.733 74.5928 125.451 74.2515 125.088C73.9102 124.725 73.6435 124.293 73.4515 123.792C73.2595 123.291 73.1635 122.736 73.1635 122.128V121.744C73.1635 121.189 73.2595 120.672 73.4515 120.192C73.6542 119.712 73.9315 119.301 74.2835 118.96C74.6355 118.608 75.0462 118.336 75.5155 118.144C75.9955 117.941 76.5128 117.84 77.0675 117.84C77.7182 117.84 78.2782 117.963 78.7475 118.208C79.2275 118.443 79.6168 118.736 79.9155 119.088C80.2248 119.44 80.4488 119.824 80.5875 120.24C80.7368 120.656 80.8115 121.04 80.8115 121.392V122.416H74.4115ZM77.0675 119.024C76.7155 119.024 76.3848 119.083 76.0755 119.2C75.7768 119.307 75.5102 119.461 75.2755 119.664C75.0515 119.867 74.8648 120.107 74.7155 120.384C74.5768 120.651 74.4862 120.944 74.4435 121.264H79.5635C79.5422 120.923 79.4568 120.613 79.3075 120.336C79.1688 120.059 78.9822 119.824 78.7475 119.632C78.5235 119.44 78.2622 119.291 77.9635 119.184C77.6755 119.077 77.3768 119.024 77.0675 119.024ZM84.6884 122.416C84.7204 123.205 84.9657 123.84 85.4244 124.32C85.883 124.8 86.523 125.04 87.3444 125.04C87.7177 125.04 88.043 124.997 88.3204 124.912C88.5977 124.827 88.8324 124.709 89.0244 124.56C89.227 124.411 89.387 124.24 89.5044 124.048C89.6324 123.845 89.7337 123.632 89.8084 123.408L90.9924 123.728C90.7684 124.464 90.3524 125.067 89.7444 125.536C89.147 125.995 88.3364 126.224 87.3124 126.224C86.747 126.224 86.2244 126.128 85.7444 125.936C85.275 125.733 84.8697 125.451 84.5284 125.088C84.187 124.725 83.9204 124.293 83.7284 123.792C83.5364 123.291 83.4404 122.736 83.4404 122.128V121.744C83.4404 121.189 83.5364 120.672 83.7284 120.192C83.931 119.712 84.2084 119.301 84.5604 118.96C84.9124 118.608 85.323 118.336 85.7924 118.144C86.2724 117.941 86.7897 117.84 87.3444 117.84C87.995 117.84 88.555 117.963 89.0244 118.208C89.5044 118.443 89.8937 118.736 90.1924 119.088C90.5017 119.44 90.7257 119.824 90.8644 120.24C91.0137 120.656 91.0884 121.04 91.0884 121.392V122.416H84.6884ZM87.3444 119.024C86.9924 119.024 86.6617 119.083 86.3524 119.2C86.0537 119.307 85.787 119.461 85.5524 119.664C85.3284 119.867 85.1417 120.107 84.9924 120.384C84.8537 120.651 84.763 120.944 84.7204 121.264H89.8404C89.819 120.923 89.7337 120.613 89.5844 120.336C89.4457 120.059 89.259 119.824 89.0244 119.632C88.8004 119.44 88.539 119.291 88.2404 119.184C87.9524 119.077 87.6537 119.024 87.3444 119.024ZM95.0133 129.2H93.7653V118.064H95.0133V119.312H95.2053C95.4826 118.832 95.8666 118.469 96.3573 118.224C96.8479 117.968 97.3813 117.84 97.9573 117.84C98.4479 117.84 98.9119 117.931 99.3493 118.112C99.7866 118.293 100.171 118.555 100.501 118.896C100.843 119.237 101.109 119.659 101.301 120.16C101.504 120.661 101.605 121.232 101.605 121.872V122.192C101.605 122.843 101.509 123.419 101.317 123.92C101.125 124.421 100.859 124.843 100.517 125.184C100.187 125.525 99.7973 125.787 99.3493 125.968C98.9013 126.139 98.4266 126.224 97.9253 126.224C97.6693 126.224 97.4079 126.192 97.1413 126.128C96.8746 126.075 96.6186 125.989 96.3733 125.872C96.1386 125.744 95.9199 125.595 95.7173 125.424C95.5146 125.243 95.3439 125.029 95.2053 124.784H95.0133V129.2ZM97.6693 125.04C98.0533 125.04 98.4053 124.976 98.7253 124.848C99.0453 124.709 99.3226 124.517 99.5573 124.272C99.8026 124.027 99.9893 123.728 100.117 123.376C100.256 123.024 100.325 122.629 100.325 122.192V121.872C100.325 121.445 100.256 121.061 100.117 120.72C99.9893 120.368 99.8026 120.069 99.5573 119.824C99.3226 119.568 99.0399 119.371 98.7093 119.232C98.3893 119.093 98.0426 119.024 97.6693 119.024C97.2959 119.024 96.9493 119.099 96.6293 119.248C96.3093 119.387 96.0266 119.584 95.7813 119.84C95.5466 120.096 95.3599 120.405 95.2213 120.768C95.0826 121.12 95.0133 121.509 95.0133 121.936V122.128C95.0133 122.565 95.0826 122.965 95.2213 123.328C95.3599 123.68 95.5466 123.984 95.7813 124.24C96.0266 124.496 96.3093 124.693 96.6293 124.832C96.9493 124.971 97.2959 125.04 97.6693 125.04ZM114.335 118.064H116.831V114.8H118.079V118.064H121.151V119.216H118.079V124.368C118.079 124.688 118.223 124.848 118.511 124.848H120.767V126H118.063C117.7 126 117.402 125.883 117.167 125.648C116.943 125.413 116.831 125.115 116.831 124.752V119.216H114.335V118.064ZM124.436 118.064H127.316V119.12H127.508C127.711 118.683 127.999 118.363 128.372 118.16C128.745 117.947 129.172 117.84 129.652 117.84C130.452 117.84 131.097 118.101 131.588 118.624C132.079 119.147 132.34 119.909 132.372 120.912L131.06 121.104C131.06 120.368 130.884 119.84 130.532 119.52C130.18 119.189 129.748 119.024 129.236 119.024C128.905 119.024 128.617 119.088 128.372 119.216C128.137 119.344 127.94 119.52 127.78 119.744C127.62 119.968 127.503 120.229 127.428 120.528C127.353 120.827 127.316 121.147 127.316 121.488V124.848H129.332V126H124.244V124.848H126.068V119.216H124.436V118.064ZM140.921 124.656H140.729C140.473 125.189 140.115 125.584 139.657 125.84C139.209 126.096 138.734 126.224 138.233 126.224C137.71 126.224 137.225 126.139 136.777 125.968C136.329 125.787 135.934 125.525 135.593 125.184C135.262 124.832 135.001 124.405 134.809 123.904C134.617 123.403 134.521 122.821 134.521 122.16V121.904C134.521 121.253 134.617 120.677 134.809 120.176C135.001 119.675 135.262 119.253 135.593 118.912C135.934 118.56 136.329 118.293 136.777 118.112C137.225 117.931 137.699 117.84 138.201 117.84C138.745 117.84 139.235 117.963 139.673 118.208C140.121 118.443 140.473 118.811 140.729 119.312H140.921V118.064H142.169V124.368C142.169 124.688 142.313 124.848 142.601 124.848H143.001V126H142.153C141.79 126 141.491 125.883 141.257 125.648C141.033 125.413 140.921 125.115 140.921 124.752V124.656ZM138.361 125.04C138.734 125.04 139.075 124.971 139.385 124.832C139.705 124.693 139.977 124.496 140.201 124.24C140.425 123.984 140.601 123.68 140.729 123.328C140.857 122.965 140.921 122.565 140.921 122.128V121.936C140.921 121.509 140.857 121.12 140.729 120.768C140.601 120.405 140.419 120.096 140.185 119.84C139.961 119.584 139.689 119.387 139.369 119.248C139.059 119.099 138.723 119.024 138.361 119.024C137.987 119.024 137.646 119.093 137.337 119.232C137.027 119.371 136.755 119.568 136.521 119.824C136.297 120.069 136.121 120.373 135.993 120.736C135.865 121.088 135.801 121.477 135.801 121.904V122.16C135.801 123.067 136.035 123.776 136.505 124.288C136.985 124.789 137.603 125.04 138.361 125.04ZM152.862 123.184C152.776 123.621 152.627 124.027 152.414 124.4C152.211 124.773 151.95 125.099 151.63 125.376C151.31 125.643 150.936 125.851 150.51 126C150.083 126.149 149.608 126.224 149.086 126.224C148.531 126.224 148.003 126.133 147.502 125.952C147.011 125.771 146.579 125.509 146.206 125.168C145.832 124.816 145.534 124.389 145.31 123.888C145.096 123.387 144.99 122.811 144.99 122.16V121.968C144.99 121.328 145.096 120.752 145.31 120.24C145.534 119.728 145.832 119.296 146.206 118.944C146.579 118.592 147.011 118.32 147.502 118.128C148.003 117.936 148.531 117.84 149.086 117.84C149.587 117.84 150.051 117.915 150.478 118.064C150.904 118.213 151.278 118.427 151.598 118.704C151.928 118.971 152.195 119.291 152.398 119.664C152.611 120.037 152.755 120.443 152.83 120.88L151.582 121.168C151.55 120.891 151.47 120.624 151.342 120.368C151.224 120.101 151.059 119.872 150.846 119.68C150.643 119.477 150.392 119.317 150.094 119.2C149.795 119.083 149.448 119.024 149.054 119.024C148.67 119.024 148.307 119.099 147.966 119.248C147.635 119.387 147.342 119.589 147.086 119.856C146.83 120.112 146.627 120.421 146.478 120.784C146.339 121.147 146.27 121.541 146.27 121.968V122.16C146.27 122.608 146.339 123.013 146.478 123.376C146.627 123.728 146.83 124.027 147.086 124.272C147.342 124.517 147.64 124.709 147.982 124.848C148.323 124.976 148.691 125.04 149.086 125.04C149.48 125.04 149.822 124.981 150.11 124.864C150.408 124.736 150.659 124.576 150.862 124.384C151.075 124.181 151.24 123.952 151.358 123.696C151.486 123.44 151.571 123.173 151.614 122.896L152.862 123.184ZM157.763 121.36H158.035L161.059 118.064H162.595V118.16L159.299 121.792V122.08L162.979 125.904V126H161.443L158.067 122.512H157.763V126H156.515V114.8H157.763V121.36ZM183.756 122.128C183.756 122.789 183.644 123.376 183.42 123.888C183.207 124.389 182.919 124.816 182.556 125.168C182.194 125.509 181.767 125.771 181.276 125.952C180.796 126.133 180.295 126.224 179.772 126.224C179.239 126.224 178.732 126.133 178.252 125.952C177.772 125.771 177.351 125.509 176.988 125.168C176.626 124.816 176.332 124.389 176.108 123.888C175.895 123.376 175.788 122.789 175.788 122.128V121.936C175.788 121.285 175.895 120.709 176.108 120.208C176.332 119.696 176.626 119.264 176.988 118.912C177.362 118.56 177.788 118.293 178.268 118.112C178.748 117.931 179.25 117.84 179.772 117.84C180.295 117.84 180.796 117.931 181.276 118.112C181.756 118.293 182.178 118.56 182.54 118.912C182.914 119.264 183.207 119.696 183.42 120.208C183.644 120.709 183.756 121.285 183.756 121.936V122.128ZM179.772 125.04C180.156 125.04 180.508 124.976 180.828 124.848C181.159 124.709 181.447 124.512 181.692 124.256C181.938 124 182.13 123.696 182.268 123.344C182.407 122.981 182.476 122.576 182.476 122.128V121.936C182.476 121.509 182.407 121.12 182.268 120.768C182.13 120.405 181.938 120.096 181.692 119.84C181.447 119.584 181.159 119.387 180.828 119.248C180.498 119.099 180.146 119.024 179.772 119.024C179.399 119.024 179.047 119.099 178.716 119.248C178.386 119.387 178.098 119.584 177.852 119.84C177.607 120.096 177.415 120.405 177.276 120.768C177.138 121.12 177.068 121.509 177.068 121.936V122.128C177.068 122.576 177.138 122.981 177.276 123.344C177.415 123.696 177.607 124 177.852 124.256C178.098 124.512 178.38 124.709 178.7 124.848C179.031 124.976 179.388 125.04 179.772 125.04ZM186.465 118.064H188.913V116.048C188.913 115.685 189.025 115.387 189.249 115.152C189.484 114.917 189.782 114.8 190.145 114.8H193.281V115.952H190.593C190.305 115.952 190.161 116.112 190.161 116.432V118.064H193.473V119.216H190.161V126H188.913V119.216H186.465V118.064ZM206.827 118.064H209.323V114.8H210.571V118.064H213.643V119.216H210.571V124.368C210.571 124.688 210.715 124.848 211.003 124.848H213.259V126H210.555C210.192 126 209.894 125.883 209.659 125.648C209.435 125.413 209.323 125.115 209.323 124.752V119.216H206.827V118.064ZM218.624 126H217.376V114.8H218.624V119.504H218.816C219.061 118.992 219.402 118.587 219.84 118.288C220.288 117.989 220.832 117.84 221.472 117.84C222.336 117.84 223.034 118.128 223.568 118.704C224.112 119.269 224.384 120.123 224.384 121.264V126H223.136V121.52C223.136 120.688 222.949 120.064 222.576 119.648C222.202 119.232 221.696 119.024 221.056 119.024C220.298 119.024 219.701 119.285 219.264 119.808C218.837 120.32 218.624 121.008 218.624 121.872V126ZM228.565 122.416C228.597 123.205 228.842 123.84 229.301 124.32C229.759 124.8 230.399 125.04 231.221 125.04C231.594 125.04 231.919 124.997 232.197 124.912C232.474 124.827 232.709 124.709 232.901 124.56C233.103 124.411 233.263 124.24 233.381 124.048C233.509 123.845 233.61 123.632 233.685 123.408L234.869 123.728C234.645 124.464 234.229 125.067 233.621 125.536C233.023 125.995 232.213 126.224 231.189 126.224C230.623 126.224 230.101 126.128 229.621 125.936C229.151 125.733 228.746 125.451 228.405 125.088C228.063 124.725 227.797 124.293 227.605 123.792C227.413 123.291 227.317 122.736 227.317 122.128V121.744C227.317 121.189 227.413 120.672 227.605 120.192C227.807 119.712 228.085 119.301 228.437 118.96C228.789 118.608 229.199 118.336 229.669 118.144C230.149 117.941 230.666 117.84 231.221 117.84C231.871 117.84 232.431 117.963 232.901 118.208C233.381 118.443 233.77 118.736 234.069 119.088C234.378 119.44 234.602 119.824 234.741 120.24C234.89 120.656 234.965 121.04 234.965 121.392V122.416H228.565ZM231.221 119.024C230.869 119.024 230.538 119.083 230.229 119.2C229.93 119.307 229.663 119.461 229.429 119.664C229.205 119.867 229.018 120.107 228.869 120.384C228.73 120.651 228.639 120.944 228.597 121.264H233.717C233.695 120.923 233.61 120.613 233.461 120.336C233.322 120.059 233.135 119.824 232.901 119.632C232.677 119.44 232.415 119.291 232.117 119.184C231.829 119.077 231.53 119.024 231.221 119.024ZM247.934 118.064H250.43V114.8H251.678V118.064H254.75V119.216H251.678V124.368C251.678 124.688 251.822 124.848 252.11 124.848H254.366V126H251.662C251.3 126 251.001 125.883 250.766 125.648C250.542 125.413 250.43 125.115 250.43 124.752V119.216H247.934V118.064ZM260.947 115.696C260.947 115.387 261.054 115.125 261.267 114.912C261.491 114.688 261.758 114.576 262.067 114.576C262.377 114.576 262.638 114.688 262.851 114.912C263.075 115.125 263.187 115.387 263.187 115.696C263.187 116.005 263.075 116.272 262.851 116.496C262.638 116.709 262.377 116.816 262.067 116.816C261.758 116.816 261.491 116.709 261.267 116.496C261.054 116.272 260.947 116.005 260.947 115.696ZM258.675 124.848H261.459V119.216H258.963V118.064H262.707V124.848H265.299V126H258.675V124.848ZM276.392 126H275.144V120.304C275.144 119.931 275.059 119.627 274.888 119.392C274.717 119.147 274.445 119.024 274.072 119.024C273.72 119.024 273.432 119.157 273.208 119.424C272.995 119.68 272.888 120.08 272.888 120.624V126H271.64V120.24C271.64 119.888 271.544 119.6 271.352 119.376C271.16 119.141 270.904 119.024 270.584 119.024C270.2 119.024 269.901 119.163 269.688 119.44C269.485 119.717 269.384 120.08 269.384 120.528V126H268.136V118.064H269.384V118.928H269.576C269.715 118.555 269.917 118.283 270.184 118.112C270.451 117.931 270.765 117.84 271.128 117.84C271.512 117.84 271.827 117.941 272.072 118.144C272.328 118.347 272.504 118.608 272.6 118.928H272.792C273.155 118.203 273.731 117.84 274.52 117.84C275.117 117.84 275.576 118.032 275.896 118.416C276.227 118.789 276.392 119.28 276.392 119.888V126ZM279.949 122.416C279.981 123.205 280.226 123.84 280.685 124.32C281.144 124.8 281.784 125.04 282.605 125.04C282.978 125.04 283.304 124.997 283.581 124.912C283.858 124.827 284.093 124.709 284.285 124.56C284.488 124.411 284.648 124.24 284.765 124.048C284.893 123.845 284.994 123.632 285.069 123.408L286.253 123.728C286.029 124.464 285.613 125.067 285.005 125.536C284.408 125.995 283.597 126.224 282.573 126.224C282.008 126.224 281.485 126.128 281.005 125.936C280.536 125.733 280.13 125.451 279.789 125.088C279.448 124.725 279.181 124.293 278.989 123.792C278.797 123.291 278.701 122.736 278.701 122.128V121.744C278.701 121.189 278.797 120.672 278.989 120.192C279.192 119.712 279.469 119.301 279.821 118.96C280.173 118.608 280.584 118.336 281.053 118.144C281.533 117.941 282.05 117.84 282.605 117.84C283.256 117.84 283.816 117.963 284.285 118.208C284.765 118.443 285.154 118.736 285.453 119.088C285.762 119.44 285.986 119.824 286.125 120.24C286.274 120.656 286.349 121.04 286.349 121.392V122.416H279.949ZM282.605 119.024C282.253 119.024 281.922 119.083 281.613 119.2C281.314 119.307 281.048 119.461 280.813 119.664C280.589 119.867 280.402 120.107 280.253 120.384C280.114 120.651 280.024 120.944 279.981 121.264H285.101C285.08 120.923 284.994 120.613 284.845 120.336C284.706 120.059 284.52 119.824 284.285 119.632C284.061 119.44 283.8 119.291 283.501 119.184C283.213 119.077 282.914 119.024 282.605 119.024ZM291.698 125.104C291.698 124.795 291.805 124.533 292.018 124.32C292.242 124.096 292.509 123.984 292.818 123.984C293.127 123.984 293.389 124.096 293.602 124.32C293.826 124.533 293.938 124.795 293.938 125.104C293.938 125.413 293.826 125.68 293.602 125.904C293.389 126.117 293.127 126.224 292.818 126.224C292.509 126.224 292.242 126.117 292.018 125.904C291.805 125.68 291.698 125.413 291.698 125.104Z" fill="white"/>
<defs>
<filter id="filter0_b_544_3383" x="-30" y="-30" width="408" height="245" filterUnits="userSpaceOnUse" color-interpolation-filters="sRGB">
<feFlood flood-opacity="0" result="BackgroundImageFix"/>
<feGaussianBlur in="BackgroundImageFix" stdDeviation="15"/>
<feComposite in2="SourceAlpha" operator="in" result="effect1_backgroundBlur_544_3383"/>
<feBlend mode="normal" in="SourceGraphic" in2="effect1_backgroundBlur_544_3383" result="shape"/>
</filter>
</defs>
</svg>
