<svg width="365" height="161" viewBox="0 0 365 161" fill="none" xmlns="http://www.w3.org/2000/svg">
<g filter="url(#filter0_b_544_3388)">
<rect width="365" height="161" rx="11" fill="white" fill-opacity="0.05"/>
</g>
<path d="M33.4 83H32.056V79.256C32.056 78.9787 31.992 78.7653 31.864 78.616C31.736 78.4667 31.512 78.392 31.192 78.392H27.704V83H26.36V71.8H30.36C30.936 71.8 31.4373 71.8853 31.864 72.056C32.2907 72.216 32.6427 72.4347 32.92 72.712C33.208 72.9893 33.4213 73.3147 33.56 73.688C33.7093 74.0507 33.784 74.4347 33.784 74.84V75.32C33.784 75.736 33.6667 76.152 33.432 76.568C33.208 76.984 32.856 77.304 32.376 77.528V77.72C32.696 77.7733 32.9467 77.9013 33.128 78.104C33.3093 78.3067 33.4 78.5947 33.4 78.968V83ZM27.704 77.144H30.2C30.9573 77.144 31.5173 76.984 31.88 76.664C32.2533 76.3333 32.44 75.8533 32.44 75.224V74.936C32.44 74.3707 32.2533 73.9173 31.88 73.576C31.5173 73.224 30.9573 73.048 30.2 73.048H27.704V77.144ZM36.7809 79.416C36.8129 80.2053 37.0582 80.84 37.5169 81.32C37.9755 81.8 38.6155 82.04 39.4369 82.04C39.8102 82.04 40.1355 81.9973 40.4129 81.912C40.6902 81.8267 40.9249 81.7093 41.1169 81.56C41.3195 81.4107 41.4795 81.24 41.5969 81.048C41.7249 80.8453 41.8262 80.632 41.9009 80.408L43.0849 80.728C42.8609 81.464 42.4449 82.0667 41.8369 82.536C41.2395 82.9947 40.4289 83.224 39.4049 83.224C38.8395 83.224 38.3169 83.128 37.8369 82.936C37.3675 82.7333 36.9622 82.4507 36.6209 82.088C36.2795 81.7253 36.0129 81.2933 35.8209 80.792C35.6289 80.2907 35.5329 79.736 35.5329 79.128V78.744C35.5329 78.1893 35.6289 77.672 35.8209 77.192C36.0235 76.712 36.3009 76.3013 36.6529 75.96C37.0049 75.608 37.4155 75.336 37.8849 75.144C38.3649 74.9413 38.8822 74.84 39.4369 74.84C40.0875 74.84 40.6475 74.9627 41.1169 75.208C41.5969 75.4427 41.9862 75.736 42.2849 76.088C42.5942 76.44 42.8182 76.824 42.9569 77.24C43.1062 77.656 43.1809 78.04 43.1809 78.392V79.416H36.7809ZM39.4369 76.024C39.0849 76.024 38.7542 76.0827 38.4449 76.2C38.1462 76.3067 37.8795 76.4613 37.6449 76.664C37.4209 76.8667 37.2342 77.1067 37.0849 77.384C36.9462 77.6507 36.8555 77.944 36.8129 78.264H41.9329C41.9115 77.9227 41.8262 77.6133 41.6769 77.336C41.5382 77.0587 41.3515 76.824 41.1169 76.632C40.8929 76.44 40.6315 76.2907 40.3329 76.184C40.0449 76.0773 39.7462 76.024 39.4369 76.024ZM52.9778 83H51.7298V77.304C51.7298 76.9307 51.6444 76.6267 51.4738 76.392C51.3031 76.1467 51.0311 76.024 50.6578 76.024C50.3058 76.024 50.0178 76.1573 49.7938 76.424C49.5804 76.68 49.4738 77.08 49.4738 77.624V83H48.2258V77.24C48.2258 76.888 48.1298 76.6 47.9378 76.376C47.7458 76.1413 47.4898 76.024 47.1698 76.024C46.7858 76.024 46.4871 76.1627 46.2738 76.44C46.0711 76.7173 45.9698 77.08 45.9698 77.528V83H44.7218V75.064H45.9698V75.928H46.1618C46.3004 75.5547 46.5031 75.2827 46.7698 75.112C47.0364 74.9307 47.3511 74.84 47.7138 74.84C48.0978 74.84 48.4124 74.9413 48.6578 75.144C48.9138 75.3467 49.0898 75.608 49.1858 75.928H49.3778C49.7404 75.2027 50.3164 74.84 51.1058 74.84C51.7031 74.84 52.1618 75.032 52.4818 75.416C52.8124 75.7893 52.9778 76.28 52.9778 76.888V83ZM55.7346 79.416C55.7666 80.2053 56.012 80.84 56.4706 81.32C56.9293 81.8 57.5693 82.04 58.3906 82.04C58.764 82.04 59.0893 81.9973 59.3666 81.912C59.644 81.8267 59.8786 81.7093 60.0706 81.56C60.2733 81.4107 60.4333 81.24 60.5506 81.048C60.6786 80.8453 60.78 80.632 60.8546 80.408L62.0386 80.728C61.8146 81.464 61.3986 82.0667 60.7906 82.536C60.1933 82.9947 59.3826 83.224 58.3586 83.224C57.7933 83.224 57.2706 83.128 56.7906 82.936C56.3213 82.7333 55.916 82.4507 55.5746 82.088C55.2333 81.7253 54.9666 81.2933 54.7746 80.792C54.5826 80.2907 54.4866 79.736 54.4866 79.128V78.744C54.4866 78.1893 54.5826 77.672 54.7746 77.192C54.9773 76.712 55.2546 76.3013 55.6066 75.96C55.9586 75.608 56.3693 75.336 56.8386 75.144C57.3186 74.9413 57.836 74.84 58.3906 74.84C59.0413 74.84 59.6013 74.9627 60.0706 75.208C60.5506 75.4427 60.94 75.736 61.2386 76.088C61.548 76.44 61.772 76.824 61.9106 77.24C62.06 77.656 62.1346 78.04 62.1346 78.392V79.416H55.7346ZM58.3906 76.024C58.0386 76.024 57.708 76.0827 57.3986 76.2C57.1 76.3067 56.8333 76.4613 56.5986 76.664C56.3746 76.8667 56.188 77.1067 56.0386 77.384C55.9 77.6507 55.8093 77.944 55.7666 78.264H60.8866C60.8653 77.9227 60.78 77.6133 60.6306 77.336C60.492 77.0587 60.3053 76.824 60.0706 76.632C59.8466 76.44 59.5853 76.2907 59.2866 76.184C58.9986 76.0773 58.7 76.024 58.3906 76.024ZM71.9315 83H70.6835V77.304C70.6835 76.9307 70.5982 76.6267 70.4275 76.392C70.2568 76.1467 69.9848 76.024 69.6115 76.024C69.2595 76.024 68.9715 76.1573 68.7475 76.424C68.5342 76.68 68.4275 77.08 68.4275 77.624V83H67.1795V77.24C67.1795 76.888 67.0835 76.6 66.8915 76.376C66.6995 76.1413 66.4435 76.024 66.1235 76.024C65.7395 76.024 65.4408 76.1627 65.2275 76.44C65.0248 76.7173 64.9235 77.08 64.9235 77.528V83H63.6755V75.064H64.9235V75.928H65.1155C65.2542 75.5547 65.4568 75.2827 65.7235 75.112C65.9902 74.9307 66.3048 74.84 66.6675 74.84C67.0515 74.84 67.3662 74.9413 67.6115 75.144C67.8675 75.3467 68.0435 75.608 68.1395 75.928H68.3315C68.6942 75.2027 69.2702 74.84 70.0595 74.84C70.6568 74.84 71.1155 75.032 71.4355 75.416C71.7662 75.7893 71.9315 76.28 71.9315 76.888V83ZM74.7364 83H73.4884V71.8H74.7364V76.312H74.9284C75.2057 75.832 75.5897 75.4693 76.0804 75.224C76.571 74.968 77.1044 74.84 77.6804 74.84C78.171 74.84 78.635 74.9307 79.0724 75.112C79.5097 75.2933 79.8937 75.5547 80.2244 75.896C80.5657 76.2373 80.8324 76.6587 81.0244 77.16C81.227 77.6613 81.3284 78.232 81.3284 78.872V79.192C81.3284 79.8427 81.2324 80.4187 81.0404 80.92C80.8484 81.4213 80.5817 81.8427 80.2404 82.184C79.9097 82.5253 79.5204 82.7867 79.0724 82.968C78.6244 83.1387 78.1497 83.224 77.6484 83.224C77.3924 83.224 77.131 83.192 76.8644 83.128C76.5977 83.0747 76.3417 82.9893 76.0964 82.872C75.8617 82.744 75.643 82.5947 75.4404 82.424C75.2377 82.2427 75.067 82.0293 74.9284 81.784H74.7364V83ZM77.3924 82.04C77.7764 82.04 78.1284 81.976 78.4484 81.848C78.7684 81.7093 79.0457 81.5173 79.2804 81.272C79.5257 81.0267 79.7124 80.728 79.8404 80.376C79.979 80.024 80.0484 79.6293 80.0484 79.192V78.872C80.0484 78.4453 79.979 78.0613 79.8404 77.72C79.7124 77.368 79.5257 77.0693 79.2804 76.824C79.0457 76.568 78.763 76.3707 78.4324 76.232C78.1124 76.0933 77.7657 76.024 77.3924 76.024C77.019 76.024 76.6724 76.0987 76.3524 76.248C76.0324 76.3867 75.7497 76.584 75.5044 76.84C75.2697 77.096 75.083 77.4053 74.9444 77.768C74.8057 78.12 74.7364 78.5093 74.7364 78.936V79.128C74.7364 79.5653 74.8057 79.9653 74.9444 80.328C75.083 80.68 75.2697 80.984 75.5044 81.24C75.7497 81.496 76.0324 81.6933 76.3524 81.832C76.6724 81.9707 77.019 82.04 77.3924 82.04ZM84.1653 79.416C84.1973 80.2053 84.4426 80.84 84.9013 81.32C85.3599 81.8 85.9999 82.04 86.8213 82.04C87.1946 82.04 87.5199 81.9973 87.7973 81.912C88.0746 81.8267 88.3093 81.7093 88.5013 81.56C88.7039 81.4107 88.8639 81.24 88.9813 81.048C89.1093 80.8453 89.2106 80.632 89.2853 80.408L90.4693 80.728C90.2453 81.464 89.8293 82.0667 89.2213 82.536C88.6239 82.9947 87.8133 83.224 86.7893 83.224C86.2239 83.224 85.7013 83.128 85.2213 82.936C84.7519 82.7333 84.3466 82.4507 84.0053 82.088C83.6639 81.7253 83.3973 81.2933 83.2053 80.792C83.0133 80.2907 82.9173 79.736 82.9173 79.128V78.744C82.9173 78.1893 83.0133 77.672 83.2053 77.192C83.4079 76.712 83.6853 76.3013 84.0373 75.96C84.3893 75.608 84.7999 75.336 85.2693 75.144C85.7493 74.9413 86.2666 74.84 86.8213 74.84C87.4719 74.84 88.0319 74.9627 88.5013 75.208C88.9813 75.4427 89.3706 75.736 89.6693 76.088C89.9786 76.44 90.2026 76.824 90.3413 77.24C90.4906 77.656 90.5653 78.04 90.5653 78.392V79.416H84.1653ZM86.8213 76.024C86.4693 76.024 86.1386 76.0827 85.8293 76.2C85.5306 76.3067 85.2639 76.4613 85.0293 76.664C84.8053 76.8667 84.6186 77.1067 84.4693 77.384C84.3306 77.6507 84.2399 77.944 84.1973 78.264H89.3173C89.2959 77.9227 89.2106 77.6133 89.0613 77.336C88.9226 77.0587 88.7359 76.824 88.5013 76.632C88.2773 76.44 88.0159 76.2907 87.7173 76.184C87.4293 76.0773 87.1306 76.024 86.8213 76.024ZM92.2821 75.064H95.1621V76.12H95.3541C95.5568 75.6827 95.8448 75.3627 96.2181 75.16C96.5915 74.9467 97.0181 74.84 97.4981 74.84C98.2981 74.84 98.9435 75.1013 99.4341 75.624C99.9248 76.1467 100.186 76.9093 100.218 77.912L98.9061 78.104C98.9061 77.368 98.7301 76.84 98.3781 76.52C98.0261 76.1893 97.5941 76.024 97.0821 76.024C96.7515 76.024 96.4635 76.088 96.2181 76.216C95.9835 76.344 95.7861 76.52 95.6261 76.744C95.4661 76.968 95.3488 77.2293 95.2741 77.528C95.1995 77.8267 95.1621 78.1467 95.1621 78.488V81.848H97.1781V83H92.0901V81.848H93.9141V76.216H92.2821V75.064ZM113.465 75.064H115.961V71.8H117.209V75.064H120.281V76.216H117.209V81.368C117.209 81.688 117.353 81.848 117.641 81.848H119.897V83H117.193C116.83 83 116.531 82.8827 116.297 82.648C116.073 82.4133 115.961 82.1147 115.961 81.752V76.216H113.465V75.064ZM130.701 79.128C130.701 79.7893 130.589 80.376 130.365 80.888C130.152 81.3893 129.864 81.816 129.501 82.168C129.139 82.5093 128.712 82.7707 128.221 82.952C127.741 83.1333 127.24 83.224 126.717 83.224C126.184 83.224 125.677 83.1333 125.197 82.952C124.717 82.7707 124.296 82.5093 123.933 82.168C123.571 81.816 123.277 81.3893 123.053 80.888C122.84 80.376 122.733 79.7893 122.733 79.128V78.936C122.733 78.2853 122.84 77.7093 123.053 77.208C123.277 76.696 123.571 76.264 123.933 75.912C124.307 75.56 124.733 75.2933 125.213 75.112C125.693 74.9307 126.195 74.84 126.717 74.84C127.24 74.84 127.741 74.9307 128.221 75.112C128.701 75.2933 129.123 75.56 129.485 75.912C129.859 76.264 130.152 76.696 130.365 77.208C130.589 77.7093 130.701 78.2853 130.701 78.936V79.128ZM126.717 82.04C127.101 82.04 127.453 81.976 127.773 81.848C128.104 81.7093 128.392 81.512 128.637 81.256C128.883 81 129.075 80.696 129.213 80.344C129.352 79.9813 129.421 79.576 129.421 79.128V78.936C129.421 78.5093 129.352 78.12 129.213 77.768C129.075 77.4053 128.883 77.096 128.637 76.84C128.392 76.584 128.104 76.3867 127.773 76.248C127.443 76.0987 127.091 76.024 126.717 76.024C126.344 76.024 125.992 76.0987 125.661 76.248C125.331 76.3867 125.043 76.584 124.797 76.84C124.552 77.096 124.36 77.4053 124.221 77.768C124.083 78.12 124.013 78.5093 124.013 78.936V79.128C124.013 79.576 124.083 79.9813 124.221 80.344C124.36 80.696 124.552 81 124.797 81.256C125.043 81.512 125.325 81.7093 125.645 81.848C125.976 81.976 126.333 82.04 126.717 82.04ZM145.18 83H143.932V71.8H145.18V76.312H145.372C145.649 75.832 146.033 75.4693 146.524 75.224C147.014 74.968 147.548 74.84 148.124 74.84C148.614 74.84 149.078 74.9307 149.516 75.112C149.953 75.2933 150.337 75.5547 150.668 75.896C151.009 76.2373 151.276 76.6587 151.468 77.16C151.67 77.6613 151.772 78.232 151.772 78.872V79.192C151.772 79.8427 151.676 80.4187 151.484 80.92C151.292 81.4213 151.025 81.8427 150.684 82.184C150.353 82.5253 149.964 82.7867 149.516 82.968C149.068 83.1387 148.593 83.224 148.092 83.224C147.836 83.224 147.574 83.192 147.308 83.128C147.041 83.0747 146.785 82.9893 146.54 82.872C146.305 82.744 146.086 82.5947 145.884 82.424C145.681 82.2427 145.51 82.0293 145.372 81.784H145.18V83ZM147.836 82.04C148.22 82.04 148.572 81.976 148.892 81.848C149.212 81.7093 149.489 81.5173 149.724 81.272C149.969 81.0267 150.156 80.728 150.284 80.376C150.422 80.024 150.492 79.6293 150.492 79.192V78.872C150.492 78.4453 150.422 78.0613 150.284 77.72C150.156 77.368 149.969 77.0693 149.724 76.824C149.489 76.568 149.206 76.3707 148.876 76.232C148.556 76.0933 148.209 76.024 147.836 76.024C147.462 76.024 147.116 76.0987 146.796 76.248C146.476 76.3867 146.193 76.584 145.948 76.84C145.713 77.096 145.526 77.4053 145.388 77.768C145.249 78.12 145.18 78.5093 145.18 78.936V79.128C145.18 79.5653 145.249 79.9653 145.388 80.328C145.526 80.68 145.713 80.984 145.948 81.24C146.193 81.496 146.476 81.6933 146.796 81.832C147.116 81.9707 147.462 82.04 147.836 82.04ZM153.249 75.064H156.129V76.12H156.321C156.523 75.6827 156.811 75.3627 157.185 75.16C157.558 74.9467 157.985 74.84 158.465 74.84C159.265 74.84 159.91 75.1013 160.401 75.624C160.891 76.1467 161.153 76.9093 161.185 77.912L159.873 78.104C159.873 77.368 159.697 76.84 159.345 76.52C158.993 76.1893 158.561 76.024 158.049 76.024C157.718 76.024 157.43 76.088 157.185 76.216C156.95 76.344 156.753 76.52 156.593 76.744C156.433 76.968 156.315 77.2293 156.241 77.528C156.166 77.8267 156.129 78.1467 156.129 78.488V81.848H158.145V83H153.057V81.848H154.881V76.216H153.249V75.064ZM165.638 72.696C165.638 72.3867 165.744 72.1253 165.958 71.912C166.182 71.688 166.448 71.576 166.758 71.576C167.067 71.576 167.328 71.688 167.542 71.912C167.766 72.1253 167.878 72.3867 167.878 72.696C167.878 73.0053 167.766 73.272 167.542 73.496C167.328 73.7093 167.067 73.816 166.758 73.816C166.448 73.816 166.182 73.7093 165.958 73.496C165.744 73.272 165.638 73.0053 165.638 72.696ZM163.366 81.848H166.15V76.216H163.654V75.064H167.398V81.848H169.99V83H163.366V81.848ZM173.898 83H172.65V75.064H173.898V76.408H174.09C174.581 75.3627 175.434 74.84 176.65 74.84C177.568 74.84 178.298 75.128 178.842 75.704C179.386 76.2693 179.658 77.1227 179.658 78.264V83H178.41V78.52C178.41 77.688 178.224 77.064 177.85 76.648C177.477 76.232 176.97 76.024 176.33 76.024C175.573 76.024 174.976 76.2853 174.538 76.808C174.112 77.32 173.898 78.008 173.898 78.872V83ZM188.159 81.784H187.967C187.711 82.264 187.359 82.6267 186.911 82.872C186.474 83.1067 185.994 83.224 185.471 83.224C184.938 83.224 184.437 83.1333 183.967 82.952C183.498 82.7707 183.082 82.5093 182.719 82.168C182.367 81.8267 182.085 81.4053 181.871 80.904C181.669 80.392 181.567 79.8107 181.567 79.16V78.904C181.567 78.264 181.674 77.6933 181.887 77.192C182.101 76.68 182.383 76.2533 182.735 75.912C183.087 75.56 183.498 75.2933 183.967 75.112C184.437 74.9307 184.927 74.84 185.439 74.84C186.015 74.84 186.517 74.968 186.943 75.224C187.381 75.4693 187.722 75.832 187.967 76.312H188.159V75.064H189.407V84.952C189.407 85.3147 189.29 85.6133 189.055 85.848C188.831 86.0827 188.538 86.2 188.175 86.2H183.007V85.048H187.727C188.015 85.048 188.159 84.888 188.159 84.568V81.784ZM185.503 82.04C185.877 82.04 186.223 81.9707 186.543 81.832C186.863 81.6933 187.141 81.496 187.375 81.24C187.621 80.984 187.813 80.68 187.951 80.328C188.09 79.9653 188.159 79.5653 188.159 79.128V78.936C188.159 78.5093 188.09 78.12 187.951 77.768C187.813 77.4053 187.621 77.096 187.375 76.84C187.141 76.584 186.858 76.3867 186.527 76.248C186.207 76.0987 185.866 76.024 185.503 76.024C185.13 76.024 184.778 76.0933 184.447 76.232C184.127 76.3707 183.845 76.568 183.599 76.824C183.365 77.08 183.178 77.384 183.039 77.736C182.911 78.088 182.847 78.4773 182.847 78.904V79.16C182.847 79.608 182.911 80.008 183.039 80.36C183.178 80.712 183.365 81.016 183.599 81.272C183.845 81.5173 184.127 81.7093 184.447 81.848C184.767 81.976 185.119 82.04 185.503 82.04ZM208.894 81.56H208.702C208.446 82.072 208.11 82.4773 207.694 82.776C207.278 83.0747 206.75 83.224 206.11 83.224C205.672 83.224 205.267 83.1493 204.894 83C204.531 82.8613 204.216 82.648 203.95 82.36C203.694 82.072 203.491 81.7147 203.342 81.288C203.203 80.8613 203.134 80.3653 203.134 79.8V75.064H204.382V79.64C204.382 80.472 204.552 81.08 204.894 81.464C205.235 81.848 205.758 82.04 206.462 82.04C207.219 82.04 207.811 81.784 208.238 81.272C208.675 80.7493 208.894 80.056 208.894 79.192V75.064H210.142V84.952C210.142 85.3147 210.024 85.6133 209.79 85.848C209.566 86.0827 209.272 86.2 208.91 86.2H204.382V85.048H208.462C208.75 85.048 208.894 84.888 208.894 84.568V81.56ZM220.098 79.128C220.098 79.7893 219.986 80.376 219.762 80.888C219.549 81.3893 219.261 81.816 218.898 82.168C218.536 82.5093 218.109 82.7707 217.618 82.952C217.138 83.1333 216.637 83.224 216.114 83.224C215.581 83.224 215.074 83.1333 214.594 82.952C214.114 82.7707 213.693 82.5093 213.33 82.168C212.968 81.816 212.674 81.3893 212.45 80.888C212.237 80.376 212.13 79.7893 212.13 79.128V78.936C212.13 78.2853 212.237 77.7093 212.45 77.208C212.674 76.696 212.968 76.264 213.33 75.912C213.704 75.56 214.13 75.2933 214.61 75.112C215.09 74.9307 215.592 74.84 216.114 74.84C216.637 74.84 217.138 74.9307 217.618 75.112C218.098 75.2933 218.52 75.56 218.882 75.912C219.256 76.264 219.549 76.696 219.762 77.208C219.986 77.7093 220.098 78.2853 220.098 78.936V79.128ZM216.114 82.04C216.498 82.04 216.85 81.976 217.17 81.848C217.501 81.7093 217.789 81.512 218.034 81.256C218.28 81 218.472 80.696 218.61 80.344C218.749 79.9813 218.818 79.576 218.818 79.128V78.936C218.818 78.5093 218.749 78.12 218.61 77.768C218.472 77.4053 218.28 77.096 218.034 76.84C217.789 76.584 217.501 76.3867 217.17 76.248C216.84 76.0987 216.488 76.024 216.114 76.024C215.741 76.024 215.389 76.0987 215.058 76.248C214.728 76.3867 214.44 76.584 214.194 76.84C213.949 77.096 213.757 77.4053 213.618 77.768C213.48 78.12 213.41 78.5093 213.41 78.936V79.128C213.41 79.576 213.48 79.9813 213.618 80.344C213.757 80.696 213.949 81 214.194 81.256C214.44 81.512 214.722 81.7093 215.042 81.848C215.373 81.976 215.73 82.04 216.114 82.04ZM227.751 75.064H228.999V83H227.751V81.56H227.559C227.303 82.072 226.967 82.4773 226.551 82.776C226.135 83.0747 225.607 83.224 224.967 83.224C224.53 83.224 224.125 83.1493 223.751 83C223.389 82.8613 223.074 82.648 222.807 82.36C222.551 82.072 222.349 81.7147 222.199 81.288C222.061 80.8613 221.991 80.3653 221.991 79.8V75.064H223.239V79.64C223.239 80.472 223.41 81.08 223.751 81.464C224.093 81.848 224.615 82.04 225.319 82.04C226.077 82.04 226.669 81.784 227.095 81.272C227.533 80.7493 227.751 80.056 227.751 79.192V75.064ZM231.116 75.064H233.996V76.12H234.188C234.391 75.6827 234.679 75.3627 235.052 75.16C235.426 74.9467 235.852 74.84 236.332 74.84C237.132 74.84 237.778 75.1013 238.268 75.624C238.759 76.1467 239.02 76.9093 239.052 77.912L237.74 78.104C237.74 77.368 237.564 76.84 237.212 76.52C236.86 76.1893 236.428 76.024 235.916 76.024C235.586 76.024 235.298 76.088 235.052 76.216C234.818 76.344 234.62 76.52 234.46 76.744C234.3 76.968 234.183 77.2293 234.108 77.528C234.034 77.8267 233.996 78.1467 233.996 78.488V81.848H236.012V83H230.924V81.848H232.748V76.216H231.116V75.064ZM252.571 81.848H255.451V72.952H252.667V71.8H256.699V81.848H259.579V83H252.571V81.848ZM267.808 81.656H267.616C267.36 82.1893 267.002 82.584 266.544 82.84C266.096 83.096 265.621 83.224 265.12 83.224C264.597 83.224 264.112 83.1387 263.664 82.968C263.216 82.7867 262.821 82.5253 262.48 82.184C262.149 81.832 261.888 81.4053 261.696 80.904C261.504 80.4027 261.408 79.8213 261.408 79.16V78.904C261.408 78.2533 261.504 77.6773 261.696 77.176C261.888 76.6747 262.149 76.2533 262.48 75.912C262.821 75.56 263.216 75.2933 263.664 75.112C264.112 74.9307 264.586 74.84 265.088 74.84C265.632 74.84 266.122 74.9627 266.56 75.208C267.008 75.4427 267.36 75.8107 267.616 76.312H267.808V75.064H269.056V81.368C269.056 81.688 269.2 81.848 269.488 81.848H269.888V83H269.04C268.677 83 268.378 82.8827 268.144 82.648C267.92 82.4133 267.808 82.1147 267.808 81.752V81.656ZM265.248 82.04C265.621 82.04 265.962 81.9707 266.272 81.832C266.592 81.6933 266.864 81.496 267.088 81.24C267.312 80.984 267.488 80.68 267.616 80.328C267.744 79.9653 267.808 79.5653 267.808 79.128V78.936C267.808 78.5093 267.744 78.12 267.616 77.768C267.488 77.4053 267.306 77.096 267.072 76.84C266.848 76.584 266.576 76.3867 266.256 76.248C265.946 76.0987 265.61 76.024 265.248 76.024C264.874 76.024 264.533 76.0933 264.224 76.232C263.914 76.3707 263.642 76.568 263.408 76.824C263.184 77.0693 263.008 77.3733 262.88 77.736C262.752 78.088 262.688 78.4773 262.688 78.904V79.16C262.688 80.0667 262.922 80.776 263.392 81.288C263.872 81.7893 264.49 82.04 265.248 82.04ZM272.484 86.2H271.236V75.064H272.484V76.312H272.676C272.954 75.832 273.338 75.4693 273.828 75.224C274.319 74.968 274.852 74.84 275.428 74.84C275.919 74.84 276.383 74.9307 276.82 75.112C277.258 75.2933 277.642 75.5547 277.972 75.896C278.314 76.2373 278.58 76.6587 278.772 77.16C278.975 77.6613 279.076 78.232 279.076 78.872V79.192C279.076 79.8427 278.98 80.4187 278.788 80.92C278.596 81.4213 278.33 81.8427 277.988 82.184C277.658 82.5253 277.268 82.7867 276.82 82.968C276.372 83.1387 275.898 83.224 275.396 83.224C275.14 83.224 274.879 83.192 274.612 83.128C274.346 83.0747 274.09 82.9893 273.844 82.872C273.61 82.744 273.391 82.5947 273.188 82.424C272.986 82.2427 272.815 82.0293 272.676 81.784H272.484V86.2ZM275.14 82.04C275.524 82.04 275.876 81.976 276.196 81.848C276.516 81.7093 276.794 81.5173 277.028 81.272C277.274 81.0267 277.46 80.728 277.588 80.376C277.727 80.024 277.796 79.6293 277.796 79.192V78.872C277.796 78.4453 277.727 78.0613 277.588 77.72C277.46 77.368 277.274 77.0693 277.028 76.824C276.794 76.568 276.511 76.3707 276.18 76.232C275.86 76.0933 275.514 76.024 275.14 76.024C274.767 76.024 274.42 76.0987 274.1 76.248C273.78 76.3867 273.498 76.584 273.252 76.84C273.018 77.096 272.831 77.4053 272.692 77.768C272.554 78.12 272.484 78.5093 272.484 78.936V79.128C272.484 79.5653 272.554 79.9653 272.692 80.328C272.831 80.68 273.018 80.984 273.252 81.24C273.498 81.496 273.78 81.6933 274.1 81.832C274.42 81.9707 274.767 82.04 275.14 82.04ZM280.729 75.064H283.225V71.8H284.473V75.064H287.545V76.216H284.473V81.368C284.473 81.688 284.617 81.848 284.905 81.848H287.161V83H284.457C284.095 83 283.796 82.8827 283.561 82.648C283.337 82.4133 283.225 82.1147 283.225 81.752V76.216H280.729V75.064ZM297.966 79.128C297.966 79.7893 297.854 80.376 297.63 80.888C297.417 81.3893 297.129 81.816 296.766 82.168C296.403 82.5093 295.977 82.7707 295.486 82.952C295.006 83.1333 294.505 83.224 293.982 83.224C293.449 83.224 292.942 83.1333 292.462 82.952C291.982 82.7707 291.561 82.5093 291.198 82.168C290.835 81.816 290.542 81.3893 290.318 80.888C290.105 80.376 289.998 79.7893 289.998 79.128V78.936C289.998 78.2853 290.105 77.7093 290.318 77.208C290.542 76.696 290.835 76.264 291.198 75.912C291.571 75.56 291.998 75.2933 292.478 75.112C292.958 74.9307 293.459 74.84 293.982 74.84C294.505 74.84 295.006 74.9307 295.486 75.112C295.966 75.2933 296.387 75.56 296.75 75.912C297.123 76.264 297.417 76.696 297.63 77.208C297.854 77.7093 297.966 78.2853 297.966 78.936V79.128ZM293.982 82.04C294.366 82.04 294.718 81.976 295.038 81.848C295.369 81.7093 295.657 81.512 295.902 81.256C296.147 81 296.339 80.696 296.478 80.344C296.617 79.9813 296.686 79.576 296.686 79.128V78.936C296.686 78.5093 296.617 78.12 296.478 77.768C296.339 77.4053 296.147 77.096 295.902 76.84C295.657 76.584 295.369 76.3867 295.038 76.248C294.707 76.0987 294.355 76.024 293.982 76.024C293.609 76.024 293.257 76.0987 292.926 76.248C292.595 76.3867 292.307 76.584 292.062 76.84C291.817 77.096 291.625 77.4053 291.486 77.768C291.347 78.12 291.278 78.5093 291.278 78.936V79.128C291.278 79.576 291.347 79.9813 291.486 80.344C291.625 80.696 291.817 81 292.062 81.256C292.307 81.512 292.59 81.7093 292.91 81.848C293.241 81.976 293.598 82.04 293.982 82.04ZM300.915 86.2H299.667V75.064H300.915V76.312H301.107C301.384 75.832 301.768 75.4693 302.259 75.224C302.75 74.968 303.283 74.84 303.859 74.84C304.35 74.84 304.814 74.9307 305.251 75.112C305.688 75.2933 306.072 75.5547 306.403 75.896C306.744 76.2373 307.011 76.6587 307.203 77.16C307.406 77.6613 307.507 78.232 307.507 78.872V79.192C307.507 79.8427 307.411 80.4187 307.219 80.92C307.027 81.4213 306.76 81.8427 306.419 82.184C306.088 82.5253 305.699 82.7867 305.251 82.968C304.803 83.1387 304.328 83.224 303.827 83.224C303.571 83.224 303.31 83.192 303.043 83.128C302.776 83.0747 302.52 82.9893 302.275 82.872C302.04 82.744 301.822 82.5947 301.619 82.424C301.416 82.2427 301.246 82.0293 301.107 81.784H300.915V86.2ZM303.571 82.04C303.955 82.04 304.307 81.976 304.627 81.848C304.947 81.7093 305.224 81.5173 305.459 81.272C305.704 81.0267 305.891 80.728 306.019 80.376C306.158 80.024 306.227 79.6293 306.227 79.192V78.872C306.227 78.4453 306.158 78.0613 306.019 77.72C305.891 77.368 305.704 77.0693 305.459 76.824C305.224 76.568 304.942 76.3707 304.611 76.232C304.291 76.0933 303.944 76.024 303.571 76.024C303.198 76.024 302.851 76.0987 302.531 76.248C302.211 76.3867 301.928 76.584 301.683 76.84C301.448 77.096 301.262 77.4053 301.123 77.768C300.984 78.12 300.915 78.5093 300.915 78.936V79.128C300.915 79.5653 300.984 79.9653 301.123 80.328C301.262 80.68 301.448 80.984 301.683 81.24C301.928 81.496 302.211 81.6933 302.531 81.832C302.851 81.9707 303.198 82.04 303.571 82.04ZM326.721 81.656H326.529C326.273 82.1893 325.916 82.584 325.457 82.84C325.009 83.096 324.535 83.224 324.033 83.224C323.511 83.224 323.025 83.1387 322.577 82.968C322.129 82.7867 321.735 82.5253 321.393 82.184C321.063 81.832 320.801 81.4053 320.609 80.904C320.417 80.4027 320.321 79.8213 320.321 79.16V78.904C320.321 78.2533 320.417 77.6773 320.609 77.176C320.801 76.6747 321.063 76.2533 321.393 75.912C321.735 75.56 322.129 75.2933 322.577 75.112C323.025 74.9307 323.5 74.84 324.001 74.84C324.545 74.84 325.036 74.9627 325.473 75.208C325.921 75.4427 326.273 75.8107 326.529 76.312H326.721V75.064H327.969V81.368C327.969 81.688 328.113 81.848 328.401 81.848H328.801V83H327.953C327.591 83 327.292 82.8827 327.057 82.648C326.833 82.4133 326.721 82.1147 326.721 81.752V81.656ZM324.161 82.04C324.535 82.04 324.876 81.9707 325.185 81.832C325.505 81.6933 325.777 81.496 326.001 81.24C326.225 80.984 326.401 80.68 326.529 80.328C326.657 79.9653 326.721 79.5653 326.721 79.128V78.936C326.721 78.5093 326.657 78.12 326.529 77.768C326.401 77.4053 326.22 77.096 325.985 76.84C325.761 76.584 325.489 76.3867 325.169 76.248C324.86 76.0987 324.524 76.024 324.161 76.024C323.788 76.024 323.447 76.0933 323.137 76.232C322.828 76.3707 322.556 76.568 322.321 76.824C322.097 77.0693 321.921 77.3733 321.793 77.736C321.665 78.088 321.601 78.4773 321.601 78.904V79.16C321.601 80.0667 321.836 80.776 322.305 81.288C322.785 81.7893 323.404 82.04 324.161 82.04ZM331.686 83H330.438V75.064H331.686V76.408H331.878C332.369 75.3627 333.222 74.84 334.438 74.84C335.356 74.84 336.086 75.128 336.63 75.704C337.174 76.2693 337.446 77.1227 337.446 78.264V83H336.198V78.52C336.198 77.688 336.012 77.064 335.638 76.648C335.265 76.232 334.758 76.024 334.118 76.024C333.361 76.024 332.764 76.2853 332.326 76.808C331.9 77.32 331.686 78.008 331.686 78.872V83ZM346.059 81.784H345.867C345.739 82.0293 345.574 82.2427 345.371 82.424C345.179 82.6053 344.966 82.7547 344.731 82.872C344.507 82.9893 344.267 83.0747 344.011 83.128C343.755 83.192 343.51 83.224 343.275 83.224C342.742 83.224 342.246 83.1333 341.787 82.952C341.328 82.7707 340.923 82.5093 340.571 82.168C340.23 81.8267 339.958 81.4053 339.755 80.904C339.563 80.392 339.467 79.8107 339.467 79.16V78.904C339.467 78.264 339.568 77.6933 339.771 77.192C339.974 76.68 340.246 76.2533 340.587 75.912C340.928 75.56 341.328 75.2933 341.787 75.112C342.246 74.9307 342.731 74.84 343.243 74.84C343.787 74.84 344.294 74.9627 344.763 75.208C345.243 75.4427 345.611 75.8107 345.867 76.312H346.059V71.8H347.307V83H346.059V81.784ZM343.403 82.04C343.776 82.04 344.123 81.9707 344.443 81.832C344.763 81.6933 345.04 81.496 345.275 81.24C345.52 80.984 345.712 80.68 345.851 80.328C345.99 79.9653 346.059 79.5653 346.059 79.128V78.936C346.059 78.5093 345.99 78.12 345.851 77.768C345.712 77.4053 345.52 77.096 345.275 76.84C345.04 76.584 344.758 76.3867 344.427 76.248C344.107 76.0987 343.766 76.024 343.403 76.024C343.03 76.024 342.678 76.0933 342.347 76.232C342.027 76.3707 341.744 76.568 341.499 76.824C341.264 77.08 341.078 77.384 340.939 77.736C340.811 78.088 340.747 78.4773 340.747 78.904V79.16C340.747 79.608 340.811 80.008 340.939 80.36C341.078 80.712 341.264 81.016 341.499 81.272C341.744 81.5173 342.027 81.7093 342.347 81.848C342.667 81.976 343.019 82.04 343.403 82.04ZM32.152 104.656H31.96C31.704 105.189 31.3467 105.584 30.888 105.84C30.44 106.096 29.9653 106.224 29.464 106.224C28.9413 106.224 28.456 106.139 28.008 105.968C27.56 105.787 27.1653 105.525 26.824 105.184C26.4933 104.832 26.232 104.405 26.04 103.904C25.848 103.403 25.752 102.821 25.752 102.16V101.904C25.752 101.253 25.848 100.677 26.04 100.176C26.232 99.6747 26.4933 99.2533 26.824 98.912C27.1653 98.56 27.56 98.2933 28.008 98.112C28.456 97.9307 28.9307 97.84 29.432 97.84C29.976 97.84 30.4667 97.9627 30.904 98.208C31.352 98.4427 31.704 98.8107 31.96 99.312H32.152V98.064H33.4V104.368C33.4 104.688 33.544 104.848 33.832 104.848H34.232V106H33.384C33.0213 106 32.7227 105.883 32.488 105.648C32.264 105.413 32.152 105.115 32.152 104.752V104.656ZM29.592 105.04C29.9653 105.04 30.3067 104.971 30.616 104.832C30.936 104.693 31.208 104.496 31.432 104.24C31.656 103.984 31.832 103.68 31.96 103.328C32.088 102.965 32.152 102.565 32.152 102.128V101.936C32.152 101.509 32.088 101.12 31.96 100.768C31.832 100.405 31.6507 100.096 31.416 99.84C31.192 99.584 30.92 99.3867 30.6 99.248C30.2907 99.0987 29.9547 99.024 29.592 99.024C29.2187 99.024 28.8773 99.0933 28.568 99.232C28.2587 99.3707 27.9867 99.568 27.752 99.824C27.528 100.069 27.352 100.373 27.224 100.736C27.096 101.088 27.032 101.477 27.032 101.904V102.16C27.032 103.067 27.2667 103.776 27.736 104.288C28.216 104.789 28.8347 105.04 29.592 105.04ZM37.1169 106H35.8689V98.064H37.1169V99.408H37.3089C37.7995 98.3627 38.6529 97.84 39.8689 97.84C40.7862 97.84 41.5169 98.128 42.0609 98.704C42.6049 99.2693 42.8769 100.123 42.8769 101.264V106H41.6289V101.52C41.6289 100.688 41.4422 100.064 41.0689 99.648C40.6955 99.232 40.1889 99.024 39.5489 99.024C38.7915 99.024 38.1942 99.2853 37.7569 99.808C37.3302 100.32 37.1169 101.008 37.1169 101.872V106ZM51.1058 104.56H50.9138C50.6578 105.072 50.3218 105.477 49.9058 105.776C49.4898 106.075 48.9618 106.224 48.3218 106.224C47.8844 106.224 47.4791 106.149 47.1058 106C46.7431 105.861 46.4284 105.648 46.1618 105.36C45.9058 105.072 45.7031 104.715 45.5538 104.288C45.4151 103.861 45.3458 103.365 45.3458 102.8V98.064H46.5938V102.64C46.5938 103.472 46.7644 104.08 47.1058 104.464C47.4471 104.848 47.9698 105.04 48.6738 105.04C49.4311 105.04 50.0231 104.784 50.4498 104.272C50.8871 103.749 51.1058 103.056 51.1058 102.192V98.064H52.3538V107.952C52.3538 108.315 52.2364 108.613 52.0018 108.848C51.7778 109.083 51.4844 109.2 51.1218 109.2H46.5938V108.048H50.6738C50.9618 108.048 51.1058 107.888 51.1058 107.568V104.56ZM94.1623 102.128C94.1623 102.789 94.0503 103.376 93.8263 103.888C93.613 104.389 93.325 104.816 92.9623 105.168C92.5996 105.509 92.173 105.771 91.6823 105.952C91.2023 106.133 90.701 106.224 90.1783 106.224C89.645 106.224 89.1383 106.133 88.6583 105.952C88.1783 105.771 87.757 105.509 87.3943 105.168C87.0316 104.816 86.7383 104.389 86.5143 103.888C86.301 103.376 86.1943 102.789 86.1943 102.128V101.936C86.1943 101.285 86.301 100.709 86.5143 100.208C86.7383 99.696 87.0316 99.264 87.3943 98.912C87.7676 98.56 88.1943 98.2933 88.6743 98.112C89.1543 97.9307 89.6556 97.84 90.1783 97.84C90.701 97.84 91.2023 97.9307 91.6823 98.112C92.1623 98.2933 92.5836 98.56 92.9463 98.912C93.3196 99.264 93.613 99.696 93.8263 100.208C94.0503 100.709 94.1623 101.285 94.1623 101.936V102.128ZM90.1783 105.04C90.5623 105.04 90.9143 104.976 91.2343 104.848C91.565 104.709 91.853 104.512 92.0983 104.256C92.3436 104 92.5356 103.696 92.6743 103.344C92.813 102.981 92.8823 102.576 92.8823 102.128V101.936C92.8823 101.509 92.813 101.12 92.6743 100.768C92.5356 100.405 92.3436 100.096 92.0983 99.84C91.853 99.584 91.565 99.3867 91.2343 99.248C90.9036 99.0987 90.5516 99.024 90.1783 99.024C89.805 99.024 89.453 99.0987 89.1223 99.248C88.7916 99.3867 88.5036 99.584 88.2583 99.84C88.013 100.096 87.821 100.405 87.6823 100.768C87.5436 101.12 87.4743 101.509 87.4743 101.936V102.128C87.4743 102.576 87.5436 102.981 87.6823 103.344C87.821 103.696 88.013 104 88.2583 104.256C88.5036 104.512 88.7863 104.709 89.1063 104.848C89.437 104.976 89.7943 105.04 90.1783 105.04ZM95.8792 98.064H98.3752V94.8H99.6232V98.064H102.695V99.216H99.6232V104.368C99.6232 104.688 99.7672 104.848 100.055 104.848H102.311V106H99.6072C99.2445 106 98.9458 105.883 98.7112 105.648C98.4872 105.413 98.3752 105.115 98.3752 104.752V99.216H95.8792V98.064ZM106.876 106H105.628V94.8H106.876V99.504H107.068C107.313 98.992 107.655 98.5867 108.092 98.288C108.54 97.9893 109.084 97.84 109.724 97.84C110.588 97.84 111.287 98.128 111.82 98.704C112.364 99.2693 112.636 100.123 112.636 101.264V106H111.388V101.52C111.388 100.688 111.201 100.064 110.828 99.648C110.455 99.232 109.948 99.024 109.308 99.024C108.551 99.024 107.953 99.2853 107.516 99.808C107.089 100.32 106.876 101.008 106.876 101.872V106ZM116.017 102.416C116.049 103.205 116.294 103.84 116.753 104.32C117.212 104.8 117.852 105.04 118.673 105.04C119.046 105.04 119.372 104.997 119.649 104.912C119.926 104.827 120.161 104.709 120.353 104.56C120.556 104.411 120.716 104.24 120.833 104.048C120.961 103.845 121.062 103.632 121.137 103.408L122.321 103.728C122.097 104.464 121.681 105.067 121.073 105.536C120.476 105.995 119.665 106.224 118.641 106.224C118.076 106.224 117.553 106.128 117.073 105.936C116.604 105.733 116.198 105.451 115.857 105.088C115.516 104.725 115.249 104.293 115.057 103.792C114.865 103.291 114.769 102.736 114.769 102.128V101.744C114.769 101.189 114.865 100.672 115.057 100.192C115.26 99.712 115.537 99.3013 115.889 98.96C116.241 98.608 116.652 98.336 117.121 98.144C117.601 97.9413 118.118 97.84 118.673 97.84C119.324 97.84 119.884 97.9627 120.353 98.208C120.833 98.4427 121.222 98.736 121.521 99.088C121.83 99.44 122.054 99.824 122.193 100.24C122.342 100.656 122.417 101.04 122.417 101.392V102.416H116.017ZM118.673 99.024C118.321 99.024 117.99 99.0827 117.681 99.2C117.382 99.3067 117.116 99.4613 116.881 99.664C116.657 99.8667 116.47 100.107 116.321 100.384C116.182 100.651 116.092 100.944 116.049 101.264H121.169C121.148 100.923 121.062 100.613 120.913 100.336C120.774 100.059 120.588 99.824 120.353 99.632C120.129 99.44 119.868 99.2907 119.569 99.184C119.281 99.0773 118.982 99.024 118.673 99.024ZM124.134 98.064H127.014V99.12H127.206C127.408 98.6827 127.696 98.3627 128.07 98.16C128.443 97.9467 128.87 97.84 129.35 97.84C130.15 97.84 130.795 98.1013 131.286 98.624C131.776 99.1467 132.038 99.9093 132.07 100.912L130.758 101.104C130.758 100.368 130.582 99.84 130.23 99.52C129.878 99.1893 129.446 99.024 128.934 99.024C128.603 99.024 128.315 99.088 128.07 99.216C127.835 99.344 127.638 99.52 127.478 99.744C127.318 99.968 127.2 100.229 127.126 100.528C127.051 100.827 127.014 101.147 127.014 101.488V104.848H129.03V106H123.942V104.848H125.766V99.216H124.134V98.064ZM166.822 102.416C166.854 103.205 167.1 103.84 167.558 104.32C168.017 104.8 168.657 105.04 169.478 105.04C169.852 105.04 170.177 104.997 170.454 104.912C170.732 104.827 170.966 104.709 171.158 104.56C171.361 104.411 171.521 104.24 171.638 104.048C171.766 103.845 171.868 103.632 171.942 103.408L173.126 103.728C172.902 104.464 172.486 105.067 171.878 105.536C171.281 105.995 170.47 106.224 169.446 106.224C168.881 106.224 168.358 106.128 167.878 105.936C167.409 105.733 167.004 105.451 166.662 105.088C166.321 104.725 166.054 104.293 165.862 103.792C165.67 103.291 165.574 102.736 165.574 102.128V101.744C165.574 101.189 165.67 100.672 165.862 100.192C166.065 99.712 166.342 99.3013 166.694 98.96C167.046 98.608 167.457 98.336 167.926 98.144C168.406 97.9413 168.924 97.84 169.478 97.84C170.129 97.84 170.689 97.9627 171.158 98.208C171.638 98.4427 172.028 98.736 172.326 99.088C172.636 99.44 172.86 99.824 172.998 100.24C173.148 100.656 173.222 101.04 173.222 101.392V102.416H166.822ZM169.478 99.024C169.126 99.024 168.796 99.0827 168.486 99.2C168.188 99.3067 167.921 99.4613 167.686 99.664C167.462 99.8667 167.276 100.107 167.126 100.384C166.988 100.651 166.897 100.944 166.854 101.264H171.974C171.953 100.923 171.868 100.613 171.718 100.336C171.58 100.059 171.393 99.824 171.158 99.632C170.934 99.44 170.673 99.2907 170.374 99.184C170.086 99.0773 169.788 99.024 169.478 99.024ZM177.035 100.112C177.035 100.496 177.195 100.789 177.515 100.992C177.846 101.195 178.443 101.328 179.307 101.392C180.235 101.467 180.939 101.691 181.419 102.064C181.91 102.427 182.155 102.96 182.155 103.664V103.76C182.155 104.144 182.075 104.491 181.915 104.8C181.766 105.099 181.553 105.355 181.275 105.568C181.009 105.781 180.678 105.941 180.283 106.048C179.899 106.165 179.478 106.224 179.019 106.224C178.401 106.224 177.867 106.144 177.419 105.984C176.982 105.813 176.614 105.595 176.315 105.328C176.027 105.051 175.809 104.741 175.659 104.4C175.51 104.048 175.425 103.696 175.403 103.344L176.587 103.056C176.641 103.664 176.875 104.155 177.291 104.528C177.707 104.891 178.262 105.072 178.955 105.072C179.542 105.072 180.011 104.96 180.363 104.736C180.726 104.501 180.907 104.176 180.907 103.76C180.907 103.312 180.731 102.992 180.379 102.8C180.027 102.608 179.457 102.485 178.667 102.432C177.75 102.368 177.046 102.155 176.555 101.792C176.065 101.429 175.819 100.901 175.819 100.208V100.112C175.819 99.7387 175.899 99.4133 176.059 99.136C176.219 98.848 176.433 98.608 176.699 98.416C176.977 98.224 177.286 98.08 177.627 97.984C177.969 97.888 178.326 97.84 178.699 97.84C179.222 97.84 179.681 97.9147 180.075 98.064C180.47 98.2027 180.801 98.3893 181.067 98.624C181.334 98.848 181.537 99.1093 181.675 99.408C181.825 99.7067 181.921 100.005 181.963 100.304L180.779 100.592C180.726 100.08 180.518 99.68 180.155 99.392C179.803 99.104 179.339 98.96 178.763 98.96C178.539 98.96 178.321 98.9867 178.107 99.04C177.905 99.0827 177.723 99.152 177.563 99.248C177.403 99.344 177.275 99.4667 177.179 99.616C177.083 99.7547 177.035 99.92 177.035 100.112ZM186.512 100.112C186.512 100.496 186.672 100.789 186.992 100.992C187.323 101.195 187.92 101.328 188.784 101.392C189.712 101.467 190.416 101.691 190.896 102.064C191.387 102.427 191.632 102.96 191.632 103.664V103.76C191.632 104.144 191.552 104.491 191.392 104.8C191.243 105.099 191.029 105.355 190.752 105.568C190.485 105.781 190.155 105.941 189.76 106.048C189.376 106.165 188.955 106.224 188.496 106.224C187.877 106.224 187.344 106.144 186.896 105.984C186.459 105.813 186.091 105.595 185.792 105.328C185.504 105.051 185.285 104.741 185.136 104.4C184.987 104.048 184.901 103.696 184.88 103.344L186.064 103.056C186.117 103.664 186.352 104.155 186.768 104.528C187.184 104.891 187.739 105.072 188.432 105.072C189.019 105.072 189.488 104.96 189.84 104.736C190.203 104.501 190.384 104.176 190.384 103.76C190.384 103.312 190.208 102.992 189.856 102.8C189.504 102.608 188.933 102.485 188.144 102.432C187.227 102.368 186.523 102.155 186.032 101.792C185.541 101.429 185.296 100.901 185.296 100.208V100.112C185.296 99.7387 185.376 99.4133 185.536 99.136C185.696 98.848 185.909 98.608 186.176 98.416C186.453 98.224 186.763 98.08 187.104 97.984C187.445 97.888 187.803 97.84 188.176 97.84C188.699 97.84 189.157 97.9147 189.552 98.064C189.947 98.2027 190.277 98.3893 190.544 98.624C190.811 98.848 191.013 99.1093 191.152 99.408C191.301 99.7067 191.397 100.005 191.44 100.304L190.256 100.592C190.203 100.08 189.995 99.68 189.632 99.392C189.28 99.104 188.816 98.96 188.24 98.96C188.016 98.96 187.797 98.9867 187.584 99.04C187.381 99.0827 187.2 99.152 187.04 99.248C186.88 99.344 186.752 99.4667 186.656 99.616C186.56 99.7547 186.512 99.92 186.512 100.112ZM195.253 102.416C195.285 103.205 195.53 103.84 195.989 104.32C196.448 104.8 197.088 105.04 197.909 105.04C198.282 105.04 198.608 104.997 198.885 104.912C199.162 104.827 199.397 104.709 199.589 104.56C199.792 104.411 199.952 104.24 200.069 104.048C200.197 103.845 200.298 103.632 200.373 103.408L201.557 103.728C201.333 104.464 200.917 105.067 200.309 105.536C199.712 105.995 198.901 106.224 197.877 106.224C197.312 106.224 196.789 106.128 196.309 105.936C195.84 105.733 195.434 105.451 195.093 105.088C194.752 104.725 194.485 104.293 194.293 103.792C194.101 103.291 194.005 102.736 194.005 102.128V101.744C194.005 101.189 194.101 100.672 194.293 100.192C194.496 99.712 194.773 99.3013 195.125 98.96C195.477 98.608 195.888 98.336 196.357 98.144C196.837 97.9413 197.354 97.84 197.909 97.84C198.56 97.84 199.12 97.9627 199.589 98.208C200.069 98.4427 200.458 98.736 200.757 99.088C201.066 99.44 201.29 99.824 201.429 100.24C201.578 100.656 201.653 101.04 201.653 101.392V102.416H195.253ZM197.909 99.024C197.557 99.024 197.226 99.0827 196.917 99.2C196.618 99.3067 196.352 99.4613 196.117 99.664C195.893 99.8667 195.706 100.107 195.557 100.384C195.418 100.651 195.328 100.944 195.285 101.264H200.405C200.384 100.923 200.298 100.613 200.149 100.336C200.01 100.059 199.824 99.824 199.589 99.632C199.365 99.44 199.104 99.2907 198.805 99.184C198.517 99.0773 198.218 99.024 197.909 99.024ZM205.066 106H203.818V98.064H205.066V99.408H205.258C205.749 98.3627 206.602 97.84 207.818 97.84C208.735 97.84 209.466 98.128 210.01 98.704C210.554 99.2693 210.826 100.123 210.826 101.264V106H209.578V101.52C209.578 100.688 209.391 100.064 209.018 99.648C208.645 99.232 208.138 99.024 207.498 99.024C206.741 99.024 206.143 99.2853 205.706 99.808C205.279 100.32 205.066 101.008 205.066 101.872V106ZM213.023 98.064H215.519V94.8H216.767V98.064H219.839V99.216H216.767V104.368C216.767 104.688 216.911 104.848 217.199 104.848H219.455V106H216.751C216.388 106 216.089 105.883 215.855 105.648C215.631 105.413 215.519 105.115 215.519 104.752V99.216H213.023V98.064ZM225.236 95.696C225.236 95.3867 225.342 95.1253 225.556 94.912C225.78 94.688 226.046 94.576 226.356 94.576C226.665 94.576 226.926 94.688 227.14 94.912C227.364 95.1253 227.476 95.3867 227.476 95.696C227.476 96.0053 227.364 96.272 227.14 96.496C226.926 96.7093 226.665 96.816 226.356 96.816C226.046 96.816 225.78 96.7093 225.556 96.496C225.342 96.272 225.236 96.0053 225.236 95.696ZM222.964 104.848H225.748V99.216H223.252V98.064H226.996V104.848H229.588V106H222.964V104.848ZM238.008 104.656H237.816C237.56 105.189 237.203 105.584 236.744 105.84C236.296 106.096 235.822 106.224 235.32 106.224C234.798 106.224 234.312 106.139 233.864 105.968C233.416 105.787 233.022 105.525 232.68 105.184C232.35 104.832 232.088 104.405 231.896 103.904C231.704 103.403 231.608 102.821 231.608 102.16V101.904C231.608 101.253 231.704 100.677 231.896 100.176C232.088 99.6747 232.35 99.2533 232.68 98.912C233.022 98.56 233.416 98.2933 233.864 98.112C234.312 97.9307 234.787 97.84 235.288 97.84C235.832 97.84 236.323 97.9627 236.76 98.208C237.208 98.4427 237.56 98.8107 237.816 99.312H238.008V98.064H239.256V104.368C239.256 104.688 239.4 104.848 239.688 104.848H240.088V106H239.24C238.878 106 238.579 105.883 238.344 105.648C238.12 105.413 238.008 105.115 238.008 104.752V104.656ZM235.448 105.04C235.822 105.04 236.163 104.971 236.472 104.832C236.792 104.693 237.064 104.496 237.288 104.24C237.512 103.984 237.688 103.68 237.816 103.328C237.944 102.965 238.008 102.565 238.008 102.128V101.936C238.008 101.509 237.944 101.12 237.816 100.768C237.688 100.405 237.507 100.096 237.272 99.84C237.048 99.584 236.776 99.3867 236.456 99.248C236.147 99.0987 235.811 99.024 235.448 99.024C235.075 99.024 234.734 99.0933 234.424 99.232C234.115 99.3707 233.843 99.568 233.608 99.824C233.384 100.069 233.208 100.373 233.08 100.736C232.952 101.088 232.888 101.477 232.888 101.904V102.16C232.888 103.067 233.123 103.776 233.592 104.288C234.072 104.789 234.691 105.04 235.448 105.04ZM241.725 104.848H244.605V95.952H241.821V94.8H245.853V104.848H248.733V106H241.725V104.848ZM289.086 104.784H288.894C288.638 105.264 288.286 105.627 287.838 105.872C287.401 106.107 286.921 106.224 286.398 106.224C285.865 106.224 285.363 106.133 284.894 105.952C284.425 105.771 284.009 105.509 283.646 105.168C283.294 104.827 283.011 104.405 282.798 103.904C282.595 103.392 282.494 102.811 282.494 102.16V101.904C282.494 101.264 282.601 100.693 282.814 100.192C283.027 99.68 283.31 99.2533 283.662 98.912C284.014 98.56 284.425 98.2933 284.894 98.112C285.363 97.9307 285.854 97.84 286.366 97.84C286.942 97.84 287.443 97.968 287.87 98.224C288.307 98.4693 288.649 98.832 288.894 99.312H289.086V98.064H290.334V107.952C290.334 108.315 290.217 108.613 289.982 108.848C289.758 109.083 289.465 109.2 289.102 109.2H283.934V108.048H288.654C288.942 108.048 289.086 107.888 289.086 107.568V104.784ZM286.43 105.04C286.803 105.04 287.15 104.971 287.47 104.832C287.79 104.693 288.067 104.496 288.302 104.24C288.547 103.984 288.739 103.68 288.878 103.328C289.017 102.965 289.086 102.565 289.086 102.128V101.936C289.086 101.509 289.017 101.12 288.878 100.768C288.739 100.405 288.547 100.096 288.302 99.84C288.067 99.584 287.785 99.3867 287.454 99.248C287.134 99.0987 286.793 99.024 286.43 99.024C286.057 99.024 285.705 99.0933 285.374 99.232C285.054 99.3707 284.771 99.568 284.526 99.824C284.291 100.08 284.105 100.384 283.966 100.736C283.838 101.088 283.774 101.477 283.774 101.904V102.16C283.774 102.608 283.838 103.008 283.966 103.36C284.105 103.712 284.291 104.016 284.526 104.272C284.771 104.517 285.054 104.709 285.374 104.848C285.694 104.976 286.046 105.04 286.43 105.04ZM298.291 104.656H298.099C297.843 105.189 297.485 105.584 297.027 105.84C296.579 106.096 296.104 106.224 295.603 106.224C295.08 106.224 294.595 106.139 294.147 105.968C293.699 105.787 293.304 105.525 292.963 105.184C292.632 104.832 292.371 104.405 292.179 103.904C291.987 103.403 291.891 102.821 291.891 102.16V101.904C291.891 101.253 291.987 100.677 292.179 100.176C292.371 99.6747 292.632 99.2533 292.963 98.912C293.304 98.56 293.699 98.2933 294.147 98.112C294.595 97.9307 295.069 97.84 295.571 97.84C296.115 97.84 296.605 97.9627 297.043 98.208C297.491 98.4427 297.843 98.8107 298.099 99.312H298.291V98.064H299.539V104.368C299.539 104.688 299.683 104.848 299.971 104.848H300.371V106H299.523C299.16 106 298.861 105.883 298.627 105.648C298.403 105.413 298.291 105.115 298.291 104.752V104.656ZM295.731 105.04C296.104 105.04 296.445 104.971 296.755 104.832C297.075 104.693 297.347 104.496 297.571 104.24C297.795 103.984 297.971 103.68 298.099 103.328C298.227 102.965 298.291 102.565 298.291 102.128V101.936C298.291 101.509 298.227 101.12 298.099 100.768C297.971 100.405 297.789 100.096 297.555 99.84C297.331 99.584 297.059 99.3867 296.739 99.248C296.429 99.0987 296.093 99.024 295.731 99.024C295.357 99.024 295.016 99.0933 294.707 99.232C294.397 99.3707 294.125 99.568 293.891 99.824C293.667 100.069 293.491 100.373 293.363 100.736C293.235 101.088 293.171 101.477 293.171 101.904V102.16C293.171 103.067 293.405 103.776 293.875 104.288C294.355 104.789 294.973 105.04 295.731 105.04ZM308.152 104.784H307.96C307.832 105.029 307.666 105.243 307.464 105.424C307.272 105.605 307.058 105.755 306.824 105.872C306.6 105.989 306.36 106.075 306.104 106.128C305.848 106.192 305.602 106.224 305.368 106.224C304.834 106.224 304.338 106.133 303.88 105.952C303.421 105.771 303.016 105.509 302.664 105.168C302.322 104.827 302.05 104.405 301.848 103.904C301.656 103.392 301.56 102.811 301.56 102.16V101.904C301.56 101.264 301.661 100.693 301.864 100.192C302.066 99.68 302.338 99.2533 302.68 98.912C303.021 98.56 303.421 98.2933 303.88 98.112C304.338 97.9307 304.824 97.84 305.336 97.84C305.88 97.84 306.386 97.9627 306.856 98.208C307.336 98.4427 307.704 98.8107 307.96 99.312H308.152V94.8H309.4V106H308.152V104.784ZM305.496 105.04C305.869 105.04 306.216 104.971 306.536 104.832C306.856 104.693 307.133 104.496 307.368 104.24C307.613 103.984 307.805 103.68 307.944 103.328C308.082 102.965 308.152 102.565 308.152 102.128V101.936C308.152 101.509 308.082 101.12 307.944 100.768C307.805 100.405 307.613 100.096 307.368 99.84C307.133 99.584 306.85 99.3867 306.52 99.248C306.2 99.0987 305.858 99.024 305.496 99.024C305.122 99.024 304.77 99.0933 304.44 99.232C304.12 99.3707 303.837 99.568 303.592 99.824C303.357 100.08 303.17 100.384 303.032 100.736C302.904 101.088 302.84 101.477 302.84 101.904V102.16C302.84 102.608 302.904 103.008 303.032 103.36C303.17 103.712 303.357 104.016 303.592 104.272C303.837 104.517 304.12 104.709 304.44 104.848C304.76 104.976 305.112 105.04 305.496 105.04ZM317.516 104.784H317.324C317.068 105.264 316.716 105.627 316.268 105.872C315.831 106.107 315.351 106.224 314.828 106.224C314.295 106.224 313.794 106.133 313.324 105.952C312.855 105.771 312.439 105.509 312.076 105.168C311.724 104.827 311.442 104.405 311.228 103.904C311.026 103.392 310.924 102.811 310.924 102.16V101.904C310.924 101.264 311.031 100.693 311.244 100.192C311.458 99.68 311.74 99.2533 312.092 98.912C312.444 98.56 312.855 98.2933 313.324 98.112C313.794 97.9307 314.284 97.84 314.796 97.84C315.372 97.84 315.874 97.968 316.3 98.224C316.738 98.4693 317.079 98.832 317.324 99.312H317.516V98.064H318.764V107.952C318.764 108.315 318.647 108.613 318.412 108.848C318.188 109.083 317.895 109.2 317.532 109.2H312.364V108.048H317.084C317.372 108.048 317.516 107.888 317.516 107.568V104.784ZM314.86 105.04C315.234 105.04 315.58 104.971 315.9 104.832C316.22 104.693 316.498 104.496 316.732 104.24C316.978 103.984 317.17 103.68 317.308 103.328C317.447 102.965 317.516 102.565 317.516 102.128V101.936C317.516 101.509 317.447 101.12 317.308 100.768C317.17 100.405 316.978 100.096 316.732 99.84C316.498 99.584 316.215 99.3867 315.884 99.248C315.564 99.0987 315.223 99.024 314.86 99.024C314.487 99.024 314.135 99.0933 313.804 99.232C313.484 99.3707 313.202 99.568 312.956 99.824C312.722 100.08 312.535 100.384 312.396 100.736C312.268 101.088 312.204 101.477 312.204 101.904V102.16C312.204 102.608 312.268 103.008 312.396 103.36C312.535 103.712 312.722 104.016 312.956 104.272C313.202 104.517 313.484 104.709 313.804 104.848C314.124 104.976 314.476 105.04 314.86 105.04ZM321.873 102.416C321.905 103.205 322.151 103.84 322.609 104.32C323.068 104.8 323.708 105.04 324.529 105.04C324.903 105.04 325.228 104.997 325.505 104.912C325.783 104.827 326.017 104.709 326.209 104.56C326.412 104.411 326.572 104.24 326.689 104.048C326.817 103.845 326.919 103.632 326.993 103.408L328.177 103.728C327.953 104.464 327.537 105.067 326.929 105.536C326.332 105.995 325.521 106.224 324.497 106.224C323.932 106.224 323.409 106.128 322.929 105.936C322.46 105.733 322.055 105.451 321.713 105.088C321.372 104.725 321.105 104.293 320.913 103.792C320.721 103.291 320.625 102.736 320.625 102.128V101.744C320.625 101.189 320.721 100.672 320.913 100.192C321.116 99.712 321.393 99.3013 321.745 98.96C322.097 98.608 322.508 98.336 322.977 98.144C323.457 97.9413 323.975 97.84 324.529 97.84C325.18 97.84 325.74 97.9627 326.209 98.208C326.689 98.4427 327.079 98.736 327.377 99.088C327.687 99.44 327.911 99.824 328.049 100.24C328.199 100.656 328.273 101.04 328.273 101.392V102.416H321.873ZM324.529 99.024C324.177 99.024 323.847 99.0827 323.537 99.2C323.239 99.3067 322.972 99.4613 322.737 99.664C322.513 99.8667 322.327 100.107 322.177 100.384C322.039 100.651 321.948 100.944 321.905 101.264H327.025C327.004 100.923 326.919 100.613 326.769 100.336C326.631 100.059 326.444 99.824 326.209 99.632C325.985 99.44 325.724 99.2907 325.425 99.184C325.137 99.0773 324.839 99.024 324.529 99.024ZM330.166 98.064H332.662V94.8H333.91V98.064H336.982V99.216H333.91V104.368C333.91 104.688 334.054 104.848 334.342 104.848H336.598V106H333.894C333.532 106 333.233 105.883 332.998 105.648C332.774 105.413 332.662 105.115 332.662 104.752V99.216H330.166V98.064ZM341.563 100.112C341.563 100.496 341.723 100.789 342.043 100.992C342.374 101.195 342.971 101.328 343.835 101.392C344.763 101.467 345.467 101.691 345.947 102.064C346.438 102.427 346.683 102.96 346.683 103.664V103.76C346.683 104.144 346.603 104.491 346.443 104.8C346.294 105.099 346.08 105.355 345.803 105.568C345.536 105.781 345.206 105.941 344.811 106.048C344.427 106.165 344.006 106.224 343.547 106.224C342.928 106.224 342.395 106.144 341.947 105.984C341.51 105.813 341.142 105.595 340.843 105.328C340.555 105.051 340.336 104.741 340.187 104.4C340.038 104.048 339.952 103.696 339.931 103.344L341.115 103.056C341.168 103.664 341.403 104.155 341.819 104.528C342.235 104.891 342.79 105.072 343.483 105.072C344.07 105.072 344.539 104.96 344.891 104.736C345.254 104.501 345.435 104.176 345.435 103.76C345.435 103.312 345.259 102.992 344.907 102.8C344.555 102.608 343.984 102.485 343.195 102.432C342.278 102.368 341.574 102.155 341.083 101.792C340.592 101.429 340.347 100.901 340.347 100.208V100.112C340.347 99.7387 340.427 99.4133 340.587 99.136C340.747 98.848 340.96 98.608 341.227 98.416C341.504 98.224 341.814 98.08 342.155 97.984C342.496 97.888 342.854 97.84 343.227 97.84C343.75 97.84 344.208 97.9147 344.603 98.064C344.998 98.2027 345.328 98.3893 345.595 98.624C345.862 98.848 346.064 99.1093 346.203 99.408C346.352 99.7067 346.448 100.005 346.491 100.304L345.307 100.592C345.254 100.08 345.046 99.68 344.683 99.392C344.331 99.104 343.867 98.96 343.291 98.96C343.067 98.96 342.848 98.9867 342.635 99.04C342.432 99.0827 342.251 99.152 342.091 99.248C341.931 99.344 341.803 99.4667 341.707 99.616C341.611 99.7547 341.563 99.92 341.563 100.112ZM25.944 121.064H28.824V122.12H29.016C29.2187 121.683 29.5067 121.363 29.88 121.16C30.2533 120.947 30.68 120.84 31.16 120.84C31.96 120.84 32.6053 121.101 33.096 121.624C33.5867 122.147 33.848 122.909 33.88 123.912L32.568 124.104C32.568 123.368 32.392 122.84 32.04 122.52C31.688 122.189 31.256 122.024 30.744 122.024C30.4133 122.024 30.1253 122.088 29.88 122.216C29.6453 122.344 29.448 122.52 29.288 122.744C29.128 122.968 29.0107 123.229 28.936 123.528C28.8613 123.827 28.824 124.147 28.824 124.488V127.848H30.84V129H25.752V127.848H27.576V122.216H25.944V121.064ZM36.7809 125.416C36.8129 126.205 37.0582 126.84 37.5169 127.32C37.9755 127.8 38.6155 128.04 39.4369 128.04C39.8102 128.04 40.1355 127.997 40.4129 127.912C40.6902 127.827 40.9249 127.709 41.1169 127.56C41.3195 127.411 41.4795 127.24 41.5969 127.048C41.7249 126.845 41.8262 126.632 41.9009 126.408L43.0849 126.728C42.8609 127.464 42.4449 128.067 41.8369 128.536C41.2395 128.995 40.4289 129.224 39.4049 129.224C38.8395 129.224 38.3169 129.128 37.8369 128.936C37.3675 128.733 36.9622 128.451 36.6209 128.088C36.2795 127.725 36.0129 127.293 35.8209 126.792C35.6289 126.291 35.5329 125.736 35.5329 125.128V124.744C35.5329 124.189 35.6289 123.672 35.8209 123.192C36.0235 122.712 36.3009 122.301 36.6529 121.96C37.0049 121.608 37.4155 121.336 37.8849 121.144C38.3649 120.941 38.8822 120.84 39.4369 120.84C40.0875 120.84 40.6475 120.963 41.1169 121.208C41.5969 121.443 41.9862 121.736 42.2849 122.088C42.5942 122.44 42.8182 122.824 42.9569 123.24C43.1062 123.656 43.1809 124.04 43.1809 124.392V125.416H36.7809ZM39.4369 122.024C39.0849 122.024 38.7542 122.083 38.4449 122.2C38.1462 122.307 37.8795 122.461 37.6449 122.664C37.4209 122.867 37.2342 123.107 37.0849 123.384C36.9462 123.651 36.8555 123.944 36.8129 124.264H41.9329C41.9115 123.923 41.8262 123.613 41.6769 123.336C41.5382 123.059 41.3515 122.824 41.1169 122.632C40.8929 122.44 40.6315 122.291 40.3329 122.184C40.0449 122.077 39.7462 122.024 39.4369 122.024ZM51.4258 127.784H51.2338C51.0951 128.029 50.9244 128.243 50.7218 128.424C50.5298 128.595 50.3164 128.744 50.0818 128.872C49.8578 128.989 49.6178 129.075 49.3618 129.128C49.1164 129.192 48.8764 129.224 48.6418 129.224C48.1084 129.224 47.6124 129.133 47.1538 128.952C46.6951 128.771 46.2898 128.509 45.9378 128.168C45.5964 127.827 45.3244 127.405 45.1218 126.904C44.9298 126.392 44.8338 125.811 44.8338 125.16V124.904C44.8338 124.264 44.9351 123.693 45.1378 123.192C45.3404 122.68 45.6124 122.253 45.9538 121.912C46.2951 121.56 46.6951 121.293 47.1538 121.112C47.6124 120.931 48.0978 120.84 48.6098 120.84C49.1538 120.84 49.6551 120.968 50.1138 121.224C50.5831 121.469 50.9564 121.832 51.2338 122.312H51.4258V121.064H52.6738V132.2H51.4258V127.784ZM48.7698 128.04C49.1431 128.04 49.4898 127.971 49.8098 127.832C50.1298 127.693 50.4071 127.496 50.6418 127.24C50.8871 126.984 51.0791 126.68 51.2178 126.328C51.3564 125.965 51.4258 125.565 51.4258 125.128V124.936C51.4258 124.509 51.3564 124.12 51.2178 123.768C51.0791 123.405 50.8871 123.096 50.6418 122.84C50.4071 122.584 50.1244 122.387 49.7938 122.248C49.4738 122.099 49.1324 122.024 48.7698 122.024C48.3964 122.024 48.0444 122.093 47.7138 122.232C47.3938 122.371 47.1111 122.568 46.8658 122.824C46.6311 123.08 46.4444 123.384 46.3058 123.736C46.1778 124.088 46.1138 124.477 46.1138 124.904V125.16C46.1138 125.608 46.1778 126.008 46.3058 126.36C46.4444 126.712 46.6311 127.016 46.8658 127.272C47.1111 127.517 47.3938 127.709 47.7138 127.848C48.0338 127.976 48.3858 128.04 48.7698 128.04ZM60.4866 121.064H61.7346V129H60.4866V127.56H60.2946C60.0386 128.072 59.7026 128.477 59.2866 128.776C58.8706 129.075 58.3426 129.224 57.7026 129.224C57.2653 129.224 56.86 129.149 56.4866 129C56.124 128.861 55.8093 128.648 55.5426 128.36C55.2866 128.072 55.084 127.715 54.9346 127.288C54.796 126.861 54.7266 126.365 54.7266 125.8V121.064H55.9746V125.64C55.9746 126.472 56.1453 127.08 56.4866 127.464C56.828 127.848 57.3506 128.04 58.0546 128.04C58.812 128.04 59.404 127.784 59.8306 127.272C60.268 126.749 60.4866 126.056 60.4866 125.192V121.064ZM66.7635 118.696C66.7635 118.387 66.8702 118.125 67.0835 117.912C67.3075 117.688 67.5742 117.576 67.8835 117.576C68.1928 117.576 68.4542 117.688 68.6675 117.912C68.8915 118.125 69.0035 118.387 69.0035 118.696C69.0035 119.005 68.8915 119.272 68.6675 119.496C68.4542 119.709 68.1928 119.816 67.8835 119.816C67.5742 119.816 67.3075 119.709 67.0835 119.496C66.8702 119.272 66.7635 119.005 66.7635 118.696ZM64.4915 127.848H67.2755V122.216H64.7795V121.064H68.5235V127.848H71.1155V129H64.4915V127.848ZM73.3284 121.064H76.2084V122.12H76.4004C76.603 121.683 76.891 121.363 77.2644 121.16C77.6377 120.947 78.0644 120.84 78.5444 120.84C79.3444 120.84 79.9897 121.101 80.4804 121.624C80.971 122.147 81.2324 122.909 81.2644 123.912L79.9524 124.104C79.9524 123.368 79.7764 122.84 79.4244 122.52C79.0724 122.189 78.6404 122.024 78.1284 122.024C77.7977 122.024 77.5097 122.088 77.2644 122.216C77.0297 122.344 76.8324 122.52 76.6724 122.744C76.5124 122.968 76.395 123.229 76.3204 123.528C76.2457 123.827 76.2084 124.147 76.2084 124.488V127.848H78.2244V129H73.1364V127.848H74.9604V122.216H73.3284V121.064ZM84.1653 125.416C84.1973 126.205 84.4426 126.84 84.9013 127.32C85.3599 127.8 85.9999 128.04 86.8213 128.04C87.1946 128.04 87.5199 127.997 87.7973 127.912C88.0746 127.827 88.3093 127.709 88.5013 127.56C88.7039 127.411 88.8639 127.24 88.9813 127.048C89.1093 126.845 89.2106 126.632 89.2853 126.408L90.4693 126.728C90.2453 127.464 89.8293 128.067 89.2213 128.536C88.6239 128.995 87.8133 129.224 86.7893 129.224C86.2239 129.224 85.7013 129.128 85.2213 128.936C84.7519 128.733 84.3466 128.451 84.0053 128.088C83.6639 127.725 83.3973 127.293 83.2053 126.792C83.0133 126.291 82.9173 125.736 82.9173 125.128V124.744C82.9173 124.189 83.0133 123.672 83.2053 123.192C83.4079 122.712 83.6853 122.301 84.0373 121.96C84.3893 121.608 84.7999 121.336 85.2693 121.144C85.7493 120.941 86.2666 120.84 86.8213 120.84C87.4719 120.84 88.0319 120.963 88.5013 121.208C88.9813 121.443 89.3706 121.736 89.6693 122.088C89.9786 122.44 90.2026 122.824 90.3413 123.24C90.4906 123.656 90.5653 124.04 90.5653 124.392V125.416H84.1653ZM86.8213 122.024C86.4693 122.024 86.1386 122.083 85.8293 122.2C85.5306 122.307 85.2639 122.461 85.0293 122.664C84.8053 122.867 84.6186 123.107 84.4693 123.384C84.3306 123.651 84.2399 123.944 84.1973 124.264H89.3173C89.2959 123.923 89.2106 123.613 89.0613 123.336C88.9226 123.059 88.7359 122.824 88.5013 122.632C88.2773 122.44 88.0159 122.291 87.7173 122.184C87.4293 122.077 87.1306 122.024 86.8213 122.024ZM98.8741 127.784H98.6821C98.5541 128.029 98.3888 128.243 98.1861 128.424C97.9941 128.605 97.7808 128.755 97.5461 128.872C97.3221 128.989 97.0821 129.075 96.8261 129.128C96.5701 129.192 96.3248 129.224 96.0901 129.224C95.5568 129.224 95.0608 129.133 94.6021 128.952C94.1435 128.771 93.7381 128.509 93.3861 128.168C93.0448 127.827 92.7728 127.405 92.5701 126.904C92.3781 126.392 92.2821 125.811 92.2821 125.16V124.904C92.2821 124.264 92.3835 123.693 92.5861 123.192C92.7888 122.68 93.0608 122.253 93.4021 121.912C93.7435 121.56 94.1435 121.293 94.6021 121.112C95.0608 120.931 95.5461 120.84 96.0581 120.84C96.6021 120.84 97.1088 120.963 97.5781 121.208C98.0581 121.443 98.4261 121.811 98.6821 122.312H98.8741V117.8H100.122V129H98.8741V127.784ZM96.2181 128.04C96.5915 128.04 96.9381 127.971 97.2581 127.832C97.5781 127.693 97.8555 127.496 98.0901 127.24C98.3355 126.984 98.5275 126.68 98.6661 126.328C98.8048 125.965 98.8741 125.565 98.8741 125.128V124.936C98.8741 124.509 98.8048 124.12 98.6661 123.768C98.5275 123.405 98.3355 123.096 98.0901 122.84C97.8555 122.584 97.5728 122.387 97.2421 122.248C96.9221 122.099 96.5808 122.024 96.2181 122.024C95.8448 122.024 95.4928 122.093 95.1621 122.232C94.8421 122.371 94.5595 122.568 94.3141 122.824C94.0795 123.08 93.8928 123.384 93.7541 123.736C93.6261 124.088 93.5621 124.477 93.5621 124.904V125.16C93.5621 125.608 93.6261 126.008 93.7541 126.36C93.8928 126.712 94.0795 127.016 94.3141 127.272C94.5595 127.517 94.8421 127.709 95.1621 127.848C95.4821 127.976 95.8341 128.04 96.2181 128.04ZM111.604 121.064H114.052V119.048C114.052 118.685 114.164 118.387 114.388 118.152C114.623 117.917 114.921 117.8 115.284 117.8H118.42V118.952H115.732C115.444 118.952 115.3 119.112 115.3 119.432V121.064H118.612V122.216H115.3V129H114.052V122.216H111.604V121.064ZM128.649 125.128C128.649 125.789 128.537 126.376 128.313 126.888C128.099 127.389 127.811 127.816 127.449 128.168C127.086 128.509 126.659 128.771 126.169 128.952C125.689 129.133 125.187 129.224 124.665 129.224C124.131 129.224 123.625 129.133 123.145 128.952C122.665 128.771 122.243 128.509 121.881 128.168C121.518 127.816 121.225 127.389 121.001 126.888C120.787 126.376 120.681 125.789 120.681 125.128V124.936C120.681 124.285 120.787 123.709 121.001 123.208C121.225 122.696 121.518 122.264 121.881 121.912C122.254 121.56 122.681 121.293 123.161 121.112C123.641 120.931 124.142 120.84 124.665 120.84C125.187 120.84 125.689 120.931 126.169 121.112C126.649 121.293 127.07 121.56 127.433 121.912C127.806 122.264 128.099 122.696 128.313 123.208C128.537 123.709 128.649 124.285 128.649 124.936V125.128ZM124.665 128.04C125.049 128.04 125.401 127.976 125.721 127.848C126.051 127.709 126.339 127.512 126.585 127.256C126.83 127 127.022 126.696 127.161 126.344C127.299 125.981 127.369 125.576 127.369 125.128V124.936C127.369 124.509 127.299 124.12 127.161 123.768C127.022 123.405 126.83 123.096 126.585 122.84C126.339 122.584 126.051 122.387 125.721 122.248C125.39 122.099 125.038 122.024 124.665 122.024C124.291 122.024 123.939 122.099 123.609 122.248C123.278 122.387 122.99 122.584 122.745 122.84C122.499 123.096 122.307 123.405 122.169 123.768C122.03 124.12 121.961 124.509 121.961 124.936V125.128C121.961 125.576 122.03 125.981 122.169 126.344C122.307 126.696 122.499 127 122.745 127.256C122.99 127.512 123.273 127.709 123.593 127.848C123.923 127.976 124.281 128.04 124.665 128.04ZM130.19 121.064H133.07V122.12H133.262C133.464 121.683 133.752 121.363 134.126 121.16C134.499 120.947 134.926 120.84 135.406 120.84C136.206 120.84 136.851 121.101 137.342 121.624C137.832 122.147 138.094 122.909 138.126 123.912L136.814 124.104C136.814 123.368 136.638 122.84 136.286 122.52C135.934 122.189 135.502 122.024 134.99 122.024C134.659 122.024 134.371 122.088 134.126 122.216C133.891 122.344 133.694 122.52 133.534 122.744C133.374 122.968 133.256 123.229 133.182 123.528C133.107 123.827 133.07 124.147 133.07 124.488V127.848H135.086V129H129.998V127.848H131.822V122.216H130.19V121.064ZM149.319 121.064H151.815V117.8H153.063V121.064H156.135V122.216H153.063V127.368C153.063 127.688 153.207 127.848 153.495 127.848H155.751V129H153.047C152.685 129 152.386 128.883 152.151 128.648C151.927 128.413 151.815 128.115 151.815 127.752V122.216H149.319V121.064ZM160.316 129H159.068V117.8H160.316V122.504H160.508C160.754 121.992 161.095 121.587 161.532 121.288C161.98 120.989 162.524 120.84 163.164 120.84C164.028 120.84 164.727 121.128 165.26 121.704C165.804 122.269 166.076 123.123 166.076 124.264V129H164.828V124.52C164.828 123.688 164.642 123.064 164.268 122.648C163.895 122.232 163.388 122.024 162.748 122.024C161.991 122.024 161.394 122.285 160.956 122.808C160.53 123.32 160.316 124.008 160.316 124.872V129ZM169.457 125.416C169.489 126.205 169.734 126.84 170.193 127.32C170.652 127.8 171.292 128.04 172.113 128.04C172.486 128.04 172.812 127.997 173.089 127.912C173.366 127.827 173.601 127.709 173.793 127.56C173.996 127.411 174.156 127.24 174.273 127.048C174.401 126.845 174.502 126.632 174.577 126.408L175.761 126.728C175.537 127.464 175.121 128.067 174.513 128.536C173.916 128.995 173.105 129.224 172.081 129.224C171.516 129.224 170.993 129.128 170.513 128.936C170.044 128.733 169.638 128.451 169.297 128.088C168.956 127.725 168.689 127.293 168.497 126.792C168.305 126.291 168.209 125.736 168.209 125.128V124.744C168.209 124.189 168.305 123.672 168.497 123.192C168.7 122.712 168.977 122.301 169.329 121.96C169.681 121.608 170.092 121.336 170.561 121.144C171.041 120.941 171.558 120.84 172.113 120.84C172.764 120.84 173.324 120.963 173.793 121.208C174.273 121.443 174.662 121.736 174.961 122.088C175.27 122.44 175.494 122.824 175.633 123.24C175.782 123.656 175.857 124.04 175.857 124.392V125.416H169.457ZM172.113 122.024C171.761 122.024 171.43 122.083 171.121 122.2C170.822 122.307 170.556 122.461 170.321 122.664C170.097 122.867 169.91 123.107 169.761 123.384C169.622 123.651 169.532 123.944 169.489 124.264H174.609C174.588 123.923 174.502 123.613 174.353 123.336C174.214 123.059 174.028 122.824 173.793 122.632C173.569 122.44 173.308 122.291 173.009 122.184C172.721 122.077 172.422 122.024 172.113 122.024ZM188.411 125.416C188.443 126.205 188.688 126.84 189.147 127.32C189.606 127.8 190.246 128.04 191.067 128.04C191.44 128.04 191.766 127.997 192.043 127.912C192.32 127.827 192.555 127.709 192.747 127.56C192.95 127.411 193.11 127.24 193.227 127.048C193.355 126.845 193.456 126.632 193.531 126.408L194.715 126.728C194.491 127.464 194.075 128.067 193.467 128.536C192.87 128.995 192.059 129.224 191.035 129.224C190.47 129.224 189.947 129.128 189.467 128.936C188.998 128.733 188.592 128.451 188.251 128.088C187.91 127.725 187.643 127.293 187.451 126.792C187.259 126.291 187.163 125.736 187.163 125.128V124.744C187.163 124.189 187.259 123.672 187.451 123.192C187.654 122.712 187.931 122.301 188.283 121.96C188.635 121.608 189.046 121.336 189.515 121.144C189.995 120.941 190.512 120.84 191.067 120.84C191.718 120.84 192.278 120.963 192.747 121.208C193.227 121.443 193.616 121.736 193.915 122.088C194.224 122.44 194.448 122.824 194.587 123.24C194.736 123.656 194.811 124.04 194.811 124.392V125.416H188.411ZM191.067 122.024C190.715 122.024 190.384 122.083 190.075 122.2C189.776 122.307 189.51 122.461 189.275 122.664C189.051 122.867 188.864 123.107 188.715 123.384C188.576 123.651 188.486 123.944 188.443 124.264H193.563C193.542 123.923 193.456 123.613 193.307 123.336C193.168 123.059 192.982 122.824 192.747 122.632C192.523 122.44 192.262 122.291 191.963 122.184C191.675 122.077 191.376 122.024 191.067 122.024ZM201.696 129H199.232L196.464 121.064H197.936L200.368 128.424H200.56L202.992 121.064H204.464L201.696 129ZM207.365 125.416C207.397 126.205 207.642 126.84 208.101 127.32C208.559 127.8 209.199 128.04 210.021 128.04C210.394 128.04 210.719 127.997 210.997 127.912C211.274 127.827 211.509 127.709 211.701 127.56C211.903 127.411 212.063 127.24 212.181 127.048C212.309 126.845 212.41 126.632 212.485 126.408L213.669 126.728C213.445 127.464 213.029 128.067 212.421 128.536C211.823 128.995 211.013 129.224 209.989 129.224C209.423 129.224 208.901 129.128 208.421 128.936C207.951 128.733 207.546 128.451 207.205 128.088C206.863 127.725 206.597 127.293 206.405 126.792C206.213 126.291 206.117 125.736 206.117 125.128V124.744C206.117 124.189 206.213 123.672 206.405 123.192C206.607 122.712 206.885 122.301 207.237 121.96C207.589 121.608 207.999 121.336 208.469 121.144C208.949 120.941 209.466 120.84 210.021 120.84C210.671 120.84 211.231 120.963 211.701 121.208C212.181 121.443 212.57 121.736 212.869 122.088C213.178 122.44 213.402 122.824 213.541 123.24C213.69 123.656 213.765 124.04 213.765 124.392V125.416H207.365ZM210.021 122.024C209.669 122.024 209.338 122.083 209.029 122.2C208.73 122.307 208.463 122.461 208.229 122.664C208.005 122.867 207.818 123.107 207.669 123.384C207.53 123.651 207.439 123.944 207.397 124.264H212.517C212.495 123.923 212.41 123.613 212.261 123.336C212.122 123.059 211.935 122.824 211.701 122.632C211.477 122.44 211.215 122.291 210.917 122.184C210.629 122.077 210.33 122.024 210.021 122.024ZM217.178 129H215.93V121.064H217.178V122.408H217.37C217.86 121.363 218.714 120.84 219.93 120.84C220.847 120.84 221.578 121.128 222.122 121.704C222.666 122.269 222.938 123.123 222.938 124.264V129H221.69V124.52C221.69 123.688 221.503 123.064 221.13 122.648C220.756 122.232 220.25 122.024 219.61 122.024C218.852 122.024 218.255 122.285 217.818 122.808C217.391 123.32 217.178 124.008 217.178 124.872V129ZM225.134 121.064H227.63V117.8H228.878V121.064H231.95V122.216H228.878V127.368C228.878 127.688 229.022 127.848 229.31 127.848H231.566V129H228.862C228.5 129 228.201 128.883 227.966 128.648C227.742 128.413 227.63 128.115 227.63 127.752V122.216H225.134V121.064ZM237.267 128.104C237.267 127.795 237.374 127.533 237.587 127.32C237.811 127.096 238.078 126.984 238.387 126.984C238.697 126.984 238.958 127.096 239.171 127.32C239.395 127.533 239.507 127.795 239.507 128.104C239.507 128.413 239.395 128.68 239.171 128.904C238.958 129.117 238.697 129.224 238.387 129.224C238.078 129.224 237.811 129.117 237.587 128.904C237.374 128.68 237.267 128.413 237.267 128.104Z" fill="white" fill-opacity="0.95"/>
<path d="M35.86 41H33.22V36.8C33.22 36.48 33.1333 36.22 32.96 36.02C32.8 35.82 32.5267 35.72 32.14 35.72H29.1V41H26.46V27H31.82C32.54 27 33.1733 27.1 33.72 27.3C34.2667 27.5 34.72 27.78 35.08 28.14C35.4533 28.4867 35.7333 28.8933 35.92 29.36C36.12 29.8267 36.22 30.3267 36.22 30.86V31.34C36.22 31.9133 36.0667 32.4533 35.76 32.96C35.4533 33.4533 34.98 33.8333 34.34 34.1V34.46C34.8067 34.5133 35.1733 34.6933 35.44 35C35.72 35.3067 35.86 35.6933 35.86 36.16V41ZM29.1 33.2H31.62C32.26 33.2 32.7467 33.0533 33.08 32.76C33.4133 32.4533 33.58 32.0267 33.58 31.48V31.24C33.58 30.7733 33.4133 30.3733 33.08 30.04C32.7467 29.6933 32.26 29.52 31.62 29.52H29.1V33.2ZM46.1261 31.08H48.6461V41H46.1261V39.56H45.7661C45.3261 40.7067 44.3794 41.28 42.9261 41.28C42.4328 41.28 41.9728 41.2 41.5461 41.04C41.1194 40.88 40.7461 40.6333 40.4261 40.3C40.1061 39.9667 39.8528 39.5533 39.6661 39.06C39.4928 38.5533 39.4061 37.96 39.4061 37.28V31.08H41.9261V36.76C41.9261 37.4667 42.0928 38.02 42.4261 38.42C42.7594 38.8067 43.2594 39 43.9261 39C44.6861 39 45.2394 38.76 45.5861 38.28C45.9461 37.7867 46.1261 37.12 46.1261 36.28V31.08ZM52.1922 38.6H55.6722V29.4H52.3122V27H58.1922V38.6H61.4322V41H52.1922V38.6ZM67.3183 36.86C67.3316 37.1533 67.3983 37.4267 67.5183 37.68C67.6516 37.92 67.8249 38.1333 68.0383 38.32C68.2649 38.4933 68.5183 38.6333 68.7983 38.74C69.0916 38.8333 69.3983 38.88 69.7183 38.88C70.3449 38.88 70.8249 38.7733 71.1583 38.56C71.4916 38.3333 71.7316 38.0667 71.8783 37.76L74.0383 38.96C73.9183 39.2133 73.7516 39.48 73.5383 39.76C73.3249 40.0267 73.0449 40.2733 72.6983 40.5C72.3649 40.7267 71.9516 40.9133 71.4583 41.06C70.9783 41.2067 70.4116 41.28 69.7583 41.28C69.0116 41.28 68.3316 41.16 67.7183 40.92C67.1049 40.68 66.5716 40.3333 66.1183 39.88C65.6783 39.4267 65.3316 38.8733 65.0783 38.22C64.8383 37.5667 64.7183 36.8267 64.7183 36V35.88C64.7183 35.12 64.8449 34.4267 65.0983 33.8C65.3649 33.1733 65.7249 32.64 66.1783 32.2C66.6316 31.76 67.1583 31.42 67.7583 31.18C68.3716 30.9267 69.0249 30.8 69.7183 30.8C70.5716 30.8 71.3049 30.9533 71.9183 31.26C72.5316 31.5533 73.0383 31.9333 73.4383 32.4C73.8383 32.8533 74.1316 33.36 74.3183 33.92C74.5049 34.4667 74.5983 35 74.5983 35.52V36.86H67.3183ZM69.6983 33.08C69.0583 33.08 68.5383 33.2467 68.1383 33.58C67.7383 33.9 67.4783 34.2733 67.3583 34.7H72.0383C71.9583 34.2333 71.7049 33.8467 71.2783 33.54C70.8649 33.2333 70.3383 33.08 69.6983 33.08ZM79.3844 34.36H85.6244V36.64H79.3844V34.36ZM90.4305 27H100.27V31.12L95.2105 38.52C94.9438 38.92 94.7305 39.2667 94.5705 39.56C94.4238 39.84 94.3505 40.16 94.3505 40.52V41H91.5105V40.4C91.5105 40.1333 91.5305 39.8933 91.5705 39.68C91.6105 39.4667 91.6705 39.2533 91.7505 39.04C91.8438 38.8267 91.9638 38.6 92.1105 38.36C92.2571 38.12 92.4371 37.84 92.6505 37.52L97.8705 29.88V29.52H90.4305V27Z" fill="white"/>
<defs>
<filter id="filter0_b_544_3388" x="-30" y="-30" width="425" height="221" filterUnits="userSpaceOnUse" color-interpolation-filters="sRGB">
<feFlood flood-opacity="0" result="BackgroundImageFix"/>
<feGaussianBlur in="BackgroundImageFix" stdDeviation="15"/>
<feComposite in2="SourceAlpha" operator="in" result="effect1_backgroundBlur_544_3388"/>
<feBlend mode="normal" in="SourceGraphic" in2="effect1_backgroundBlur_544_3388" result="shape"/>
</filter>
</defs>
</svg>
