<svg width="367" height="161" viewBox="0 0 367 161" fill="none" xmlns="http://www.w3.org/2000/svg">
<g filter="url(#filter0_b_544_3387)">
<rect width="367" height="161" rx="11" fill="white" fill-opacity="0.05"/>
</g>
<path d="M25.0435 81.752H26.0035V73.048H25.0435V71.8H29.5715C30.1048 71.8 30.5741 71.8747 30.9795 72.024C31.3955 72.1733 31.7421 72.376 32.0195 72.632C32.3075 72.888 32.5208 73.1973 32.6595 73.56C32.8088 73.912 32.8835 74.296 32.8835 74.712V74.904C32.8835 75.2133 32.8355 75.496 32.7395 75.752C32.6435 76.008 32.5101 76.2373 32.3395 76.44C32.1688 76.6427 31.9661 76.8187 31.7315 76.968C31.5075 77.1067 31.2621 77.2133 30.9955 77.288V77.48C31.5288 77.6293 31.9768 77.9173 32.3395 78.344C32.7021 78.76 32.8835 79.272 32.8835 79.88V80.072C32.8835 80.488 32.8088 80.8773 32.6595 81.24C32.5208 81.592 32.3075 81.9013 32.0195 82.168C31.7421 82.424 31.3955 82.6267 30.9795 82.776C30.5741 82.9253 30.1048 83 29.5715 83H25.0435V81.752ZM27.3475 81.752H29.4755C30.1048 81.752 30.6168 81.5973 31.0115 81.288C31.4061 80.968 31.6035 80.5307 31.6035 79.976V79.88C31.6035 79.304 31.4168 78.8507 31.0435 78.52C30.6701 78.1787 30.1635 78.008 29.5235 78.008H27.3475V81.752ZM27.3475 76.76H29.5235C30.1635 76.76 30.6701 76.5947 31.0435 76.264C31.4168 75.9333 31.6035 75.48 31.6035 74.904V74.808C31.6035 74.264 31.4061 73.8373 31.0115 73.528C30.6168 73.208 30.1048 73.048 29.4755 73.048H27.3475V76.76ZM35.9123 79.416C35.9443 80.2053 36.1897 80.84 36.6483 81.32C37.107 81.8 37.747 82.04 38.5683 82.04C38.9417 82.04 39.267 81.9973 39.5443 81.912C39.8217 81.8267 40.0563 81.7093 40.2483 81.56C40.451 81.4107 40.611 81.24 40.7283 81.048C40.8563 80.8453 40.9577 80.632 41.0323 80.408L42.2163 80.728C41.9923 81.464 41.5763 82.0667 40.9683 82.536C40.371 82.9947 39.5603 83.224 38.5363 83.224C37.971 83.224 37.4483 83.128 36.9683 82.936C36.499 82.7333 36.0937 82.4507 35.7523 82.088C35.411 81.7253 35.1443 81.2933 34.9523 80.792C34.7603 80.2907 34.6643 79.736 34.6643 79.128V78.744C34.6643 78.1893 34.7603 77.672 34.9523 77.192C35.155 76.712 35.4323 76.3013 35.7843 75.96C36.1363 75.608 36.547 75.336 37.0163 75.144C37.4963 74.9413 38.0137 74.84 38.5683 74.84C39.219 74.84 39.779 74.9627 40.2483 75.208C40.7283 75.4427 41.1177 75.736 41.4163 76.088C41.7257 76.44 41.9497 76.824 42.0883 77.24C42.2377 77.656 42.3123 78.04 42.3123 78.392V79.416H35.9123ZM38.5683 76.024C38.2163 76.024 37.8857 76.0827 37.5763 76.2C37.2777 76.3067 37.011 76.4613 36.7763 76.664C36.5523 76.8667 36.3657 77.1067 36.2163 77.384C36.0777 77.6507 35.987 77.944 35.9443 78.264H41.0643C41.043 77.9227 40.9577 77.6133 40.8083 77.336C40.6697 77.0587 40.483 76.824 40.2483 76.632C40.0243 76.44 39.763 76.2907 39.4643 76.184C39.1763 76.0773 38.8777 76.024 38.5683 76.024ZM57.2048 75.064H60.0848V76.12H60.2768C60.4794 75.6827 60.7674 75.3627 61.1408 75.16C61.5141 74.9467 61.9408 74.84 62.4208 74.84C63.2208 74.84 63.8661 75.1013 64.3568 75.624C64.8474 76.1467 65.1088 76.9093 65.1408 77.912L63.8288 78.104C63.8288 77.368 63.6528 76.84 63.3008 76.52C62.9488 76.1893 62.5168 76.024 62.0048 76.024C61.6741 76.024 61.3861 76.088 61.1408 76.216C60.9061 76.344 60.7088 76.52 60.5488 76.744C60.3888 76.968 60.2714 77.2293 60.1968 77.528C60.1221 77.8267 60.0848 78.1467 60.0848 78.488V81.848H62.1008V83H57.0128V81.848H58.8368V76.216H57.2048V75.064ZM68.0417 79.416C68.0737 80.2053 68.319 80.84 68.7777 81.32C69.2363 81.8 69.8763 82.04 70.6977 82.04C71.071 82.04 71.3963 81.9973 71.6737 81.912C71.951 81.8267 72.1857 81.7093 72.3777 81.56C72.5803 81.4107 72.7403 81.24 72.8577 81.048C72.9857 80.8453 73.087 80.632 73.1617 80.408L74.3457 80.728C74.1217 81.464 73.7057 82.0667 73.0977 82.536C72.5003 82.9947 71.6897 83.224 70.6657 83.224C70.1003 83.224 69.5777 83.128 69.0977 82.936C68.6283 82.7333 68.223 82.4507 67.8817 82.088C67.5403 81.7253 67.2737 81.2933 67.0817 80.792C66.8897 80.2907 66.7937 79.736 66.7937 79.128V78.744C66.7937 78.1893 66.8897 77.672 67.0817 77.192C67.2843 76.712 67.5617 76.3013 67.9137 75.96C68.2657 75.608 68.6763 75.336 69.1457 75.144C69.6257 74.9413 70.143 74.84 70.6977 74.84C71.3483 74.84 71.9083 74.9627 72.3777 75.208C72.8577 75.4427 73.247 75.736 73.5457 76.088C73.855 76.44 74.079 76.824 74.2177 77.24C74.367 77.656 74.4417 78.04 74.4417 78.392V79.416H68.0417ZM70.6977 76.024C70.3457 76.024 70.015 76.0827 69.7057 76.2C69.407 76.3067 69.1403 76.4613 68.9057 76.664C68.6817 76.8667 68.495 77.1067 68.3457 77.384C68.207 77.6507 68.1163 77.944 68.0737 78.264H73.1937C73.1723 77.9227 73.087 77.6133 72.9377 77.336C72.799 77.0587 72.6123 76.824 72.3777 76.632C72.1537 76.44 71.8923 76.2907 71.5937 76.184C71.3057 76.0773 71.007 76.024 70.6977 76.024ZM82.3665 81.656H82.1745C81.9185 82.1893 81.5612 82.584 81.1025 82.84C80.6545 83.096 80.1799 83.224 79.6785 83.224C79.1559 83.224 78.6705 83.1387 78.2225 82.968C77.7745 82.7867 77.3799 82.5253 77.0385 82.184C76.7079 81.832 76.4465 81.4053 76.2545 80.904C76.0625 80.4027 75.9665 79.8213 75.9665 79.16V78.904C75.9665 78.2533 76.0625 77.6773 76.2545 77.176C76.4465 76.6747 76.7079 76.2533 77.0385 75.912C77.3799 75.56 77.7745 75.2933 78.2225 75.112C78.6705 74.9307 79.1452 74.84 79.6465 74.84C80.1905 74.84 80.6812 74.9627 81.1185 75.208C81.5665 75.4427 81.9185 75.8107 82.1745 76.312H82.3665V75.064H83.6145V81.368C83.6145 81.688 83.7585 81.848 84.0465 81.848H84.4465V83H83.5985C83.2359 83 82.9372 82.8827 82.7025 82.648C82.4785 82.4133 82.3665 82.1147 82.3665 81.752V81.656ZM79.8065 82.04C80.1799 82.04 80.5212 81.9707 80.8305 81.832C81.1505 81.6933 81.4225 81.496 81.6465 81.24C81.8705 80.984 82.0465 80.68 82.1745 80.328C82.3025 79.9653 82.3665 79.5653 82.3665 79.128V78.936C82.3665 78.5093 82.3025 78.12 82.1745 77.768C82.0465 77.4053 81.8652 77.096 81.6305 76.84C81.4065 76.584 81.1345 76.3867 80.8145 76.248C80.5052 76.0987 80.1692 76.024 79.8065 76.024C79.4332 76.024 79.0919 76.0933 78.7825 76.232C78.4732 76.3707 78.2012 76.568 77.9665 76.824C77.7425 77.0693 77.5665 77.3733 77.4385 77.736C77.3105 78.088 77.2465 78.4773 77.2465 78.904V79.16C77.2465 80.0667 77.4812 80.776 77.9505 81.288C78.4305 81.7893 79.0492 82.04 79.8065 82.04ZM92.2274 81.784H92.0354C91.9074 82.0293 91.7421 82.2427 91.5394 82.424C91.3474 82.6053 91.1341 82.7547 90.8994 82.872C90.6754 82.9893 90.4354 83.0747 90.1794 83.128C89.9234 83.192 89.6781 83.224 89.4434 83.224C88.9101 83.224 88.4141 83.1333 87.9554 82.952C87.4967 82.7707 87.0914 82.5093 86.7394 82.168C86.3981 81.8267 86.1261 81.4053 85.9234 80.904C85.7314 80.392 85.6354 79.8107 85.6354 79.16V78.904C85.6354 78.264 85.7367 77.6933 85.9394 77.192C86.1421 76.68 86.4141 76.2533 86.7554 75.912C87.0967 75.56 87.4967 75.2933 87.9554 75.112C88.4141 74.9307 88.8994 74.84 89.4114 74.84C89.9554 74.84 90.4621 74.9627 90.9314 75.208C91.4114 75.4427 91.7794 75.8107 92.0354 76.312H92.2274V71.8H93.4754V83H92.2274V81.784ZM89.5714 82.04C89.9447 82.04 90.2914 81.9707 90.6114 81.832C90.9314 81.6933 91.2087 81.496 91.4434 81.24C91.6887 80.984 91.8807 80.68 92.0194 80.328C92.1581 79.9653 92.2274 79.5653 92.2274 79.128V78.936C92.2274 78.5093 92.1581 78.12 92.0194 77.768C91.8807 77.4053 91.6887 77.096 91.4434 76.84C91.2087 76.584 90.9261 76.3867 90.5954 76.248C90.2754 76.0987 89.9341 76.024 89.5714 76.024C89.1981 76.024 88.8461 76.0933 88.5154 76.232C88.1954 76.3707 87.9127 76.568 87.6674 76.824C87.4327 77.08 87.2461 77.384 87.1074 77.736C86.9794 78.088 86.9154 78.4773 86.9154 78.904V79.16C86.9154 79.608 86.9794 80.008 87.1074 80.36C87.2461 80.712 87.4327 81.016 87.6674 81.272C87.9127 81.5173 88.1954 81.7093 88.5154 81.848C88.8354 81.976 89.1874 82.04 89.5714 82.04ZM101.32 81.56H101.128C100.872 82.072 100.536 82.4773 100.12 82.776C99.7043 83.0747 99.1763 83.224 98.5363 83.224C98.0989 83.224 97.6936 83.1493 97.3203 83C96.9576 82.8613 96.6429 82.648 96.3763 82.36C96.1203 82.072 95.9176 81.7147 95.7683 81.288C95.6296 80.8613 95.5603 80.3653 95.5603 79.8V75.064H96.8083V79.64C96.8083 80.472 96.9789 81.08 97.3203 81.464C97.6616 81.848 98.1843 82.04 98.8883 82.04C99.6456 82.04 100.238 81.784 100.664 81.272C101.102 80.7493 101.32 80.056 101.32 79.192V75.064H102.568V84.952C102.568 85.3147 102.451 85.6133 102.216 85.848C101.992 86.0827 101.699 86.2 101.336 86.2H96.8083V85.048H100.888C101.176 85.048 101.32 84.888 101.32 84.568V81.56ZM118.133 75.064H120.581V73.048C120.581 72.6853 120.693 72.3867 120.917 72.152C121.151 71.9173 121.45 71.8 121.813 71.8H124.949V72.952H122.261C121.973 72.952 121.829 73.112 121.829 73.432V75.064H125.141V76.216H121.829V83H120.581V76.216H118.133V75.064ZM135.178 79.128C135.178 79.7893 135.066 80.376 134.842 80.888C134.628 81.3893 134.34 81.816 133.978 82.168C133.615 82.5093 133.188 82.7707 132.698 82.952C132.218 83.1333 131.716 83.224 131.194 83.224C130.66 83.224 130.154 83.1333 129.674 82.952C129.194 82.7707 128.772 82.5093 128.41 82.168C128.047 81.816 127.754 81.3893 127.53 80.888C127.316 80.376 127.21 79.7893 127.21 79.128V78.936C127.21 78.2853 127.316 77.7093 127.53 77.208C127.754 76.696 128.047 76.264 128.41 75.912C128.783 75.56 129.21 75.2933 129.69 75.112C130.17 74.9307 130.671 74.84 131.194 74.84C131.716 74.84 132.218 74.9307 132.698 75.112C133.178 75.2933 133.599 75.56 133.962 75.912C134.335 76.264 134.628 76.696 134.842 77.208C135.066 77.7093 135.178 78.2853 135.178 78.936V79.128ZM131.194 82.04C131.578 82.04 131.93 81.976 132.25 81.848C132.58 81.7093 132.868 81.512 133.114 81.256C133.359 81 133.551 80.696 133.69 80.344C133.828 79.9813 133.898 79.576 133.898 79.128V78.936C133.898 78.5093 133.828 78.12 133.69 77.768C133.551 77.4053 133.359 77.096 133.114 76.84C132.868 76.584 132.58 76.3867 132.25 76.248C131.919 76.0987 131.567 76.024 131.194 76.024C130.82 76.024 130.468 76.0987 130.138 76.248C129.807 76.3867 129.519 76.584 129.274 76.84C129.028 77.096 128.836 77.4053 128.698 77.768C128.559 78.12 128.49 78.5093 128.49 78.936V79.128C128.49 79.576 128.559 79.9813 128.698 80.344C128.836 80.696 129.028 81 129.274 81.256C129.519 81.512 129.802 81.7093 130.122 81.848C130.452 81.976 130.81 82.04 131.194 82.04ZM136.718 75.064H139.598V76.12H139.79C139.993 75.6827 140.281 75.3627 140.654 75.16C141.028 74.9467 141.454 74.84 141.934 74.84C142.734 74.84 143.38 75.1013 143.87 75.624C144.361 76.1467 144.622 76.9093 144.654 77.912L143.342 78.104C143.342 77.368 143.166 76.84 142.814 76.52C142.462 76.1893 142.03 76.024 141.518 76.024C141.188 76.024 140.9 76.088 140.654 76.216C140.42 76.344 140.222 76.52 140.062 76.744C139.902 76.968 139.785 77.2293 139.71 77.528C139.636 77.8267 139.598 78.1467 139.598 78.488V81.848H141.614V83H136.526V81.848H138.35V76.216H136.718V75.064ZM159.547 75.064H162.043V71.8H163.291V75.064H166.363V76.216H163.291V81.368C163.291 81.688 163.435 81.848 163.723 81.848H165.979V83H163.275C162.912 83 162.614 82.8827 162.379 82.648C162.155 82.4133 162.043 82.1147 162.043 81.752V76.216H159.547V75.064ZM170.544 83H169.296V71.8H170.544V76.504H170.736C170.981 75.992 171.322 75.5867 171.76 75.288C172.208 74.9893 172.752 74.84 173.392 74.84C174.256 74.84 174.954 75.128 175.488 75.704C176.032 76.2693 176.304 77.1227 176.304 78.264V83H175.056V78.52C175.056 77.688 174.869 77.064 174.496 76.648C174.122 76.232 173.616 76.024 172.976 76.024C172.218 76.024 171.621 76.2853 171.184 76.808C170.757 77.32 170.544 78.008 170.544 78.872V83ZM179.685 79.416C179.717 80.2053 179.962 80.84 180.421 81.32C180.879 81.8 181.519 82.04 182.341 82.04C182.714 82.04 183.039 81.9973 183.317 81.912C183.594 81.8267 183.829 81.7093 184.021 81.56C184.223 81.4107 184.383 81.24 184.501 81.048C184.629 80.8453 184.73 80.632 184.805 80.408L185.989 80.728C185.765 81.464 185.349 82.0667 184.741 82.536C184.143 82.9947 183.333 83.224 182.309 83.224C181.743 83.224 181.221 83.128 180.741 82.936C180.271 82.7333 179.866 82.4507 179.525 82.088C179.183 81.7253 178.917 81.2933 178.725 80.792C178.533 80.2907 178.437 79.736 178.437 79.128V78.744C178.437 78.1893 178.533 77.672 178.725 77.192C178.927 76.712 179.205 76.3013 179.557 75.96C179.909 75.608 180.319 75.336 180.789 75.144C181.269 74.9413 181.786 74.84 182.341 74.84C182.991 74.84 183.551 74.9627 184.021 75.208C184.501 75.4427 184.89 75.736 185.189 76.088C185.498 76.44 185.722 76.824 185.861 77.24C186.01 77.656 186.085 78.04 186.085 78.392V79.416H179.685ZM182.341 76.024C181.989 76.024 181.658 76.0827 181.349 76.2C181.05 76.3067 180.783 76.4613 180.549 76.664C180.325 76.8667 180.138 77.1067 179.989 77.384C179.85 77.6507 179.759 77.944 179.717 78.264H184.837C184.815 77.9227 184.73 77.6133 184.581 77.336C184.442 77.0587 184.255 76.824 184.021 76.632C183.797 76.44 183.535 76.2907 183.237 76.184C182.949 76.0773 182.65 76.024 182.341 76.024ZM203.073 77.112C203.073 77.496 203.233 77.7893 203.553 77.992C203.884 78.1947 204.481 78.328 205.345 78.392C206.273 78.4667 206.977 78.6907 207.457 79.064C207.948 79.4267 208.193 79.96 208.193 80.664V80.76C208.193 81.144 208.113 81.4907 207.953 81.8C207.804 82.0987 207.59 82.3547 207.313 82.568C207.046 82.7813 206.716 82.9413 206.321 83.048C205.937 83.1653 205.516 83.224 205.057 83.224C204.438 83.224 203.905 83.144 203.457 82.984C203.02 82.8133 202.652 82.5947 202.353 82.328C202.065 82.0507 201.846 81.7413 201.697 81.4C201.548 81.048 201.462 80.696 201.441 80.344L202.625 80.056C202.678 80.664 202.913 81.1547 203.329 81.528C203.745 81.8907 204.3 82.072 204.993 82.072C205.58 82.072 206.049 81.96 206.401 81.736C206.764 81.5013 206.945 81.176 206.945 80.76C206.945 80.312 206.769 79.992 206.417 79.8C206.065 79.608 205.494 79.4853 204.705 79.432C203.788 79.368 203.084 79.1547 202.593 78.792C202.102 78.4293 201.857 77.9013 201.857 77.208V77.112C201.857 76.7387 201.937 76.4133 202.097 76.136C202.257 75.848 202.47 75.608 202.737 75.416C203.014 75.224 203.324 75.08 203.665 74.984C204.006 74.888 204.364 74.84 204.737 74.84C205.26 74.84 205.718 74.9147 206.113 75.064C206.508 75.2027 206.838 75.3893 207.105 75.624C207.372 75.848 207.574 76.1093 207.713 76.408C207.862 76.7067 207.958 77.0053 208.001 77.304L206.817 77.592C206.764 77.08 206.556 76.68 206.193 76.392C205.841 76.104 205.377 75.96 204.801 75.96C204.577 75.96 204.358 75.9867 204.145 76.04C203.942 76.0827 203.761 76.152 203.601 76.248C203.441 76.344 203.313 76.4667 203.217 76.616C203.121 76.7547 203.073 76.92 203.073 77.112ZM216.566 75.064H217.814V83H216.566V81.56H216.374C216.118 82.072 215.782 82.4773 215.366 82.776C214.95 83.0747 214.422 83.224 213.782 83.224C213.345 83.224 212.939 83.1493 212.566 83C212.203 82.8613 211.889 82.648 211.622 82.36C211.366 82.072 211.163 81.7147 211.014 81.288C210.875 80.8613 210.806 80.3653 210.806 79.8V75.064H212.054V79.64C212.054 80.472 212.225 81.08 212.566 81.464C212.907 81.848 213.43 82.04 214.134 82.04C214.891 82.04 215.483 81.784 215.91 81.272C216.347 80.7493 216.566 80.056 216.566 79.192V75.064ZM219.931 75.064H222.811V76.12H223.003C223.205 75.6827 223.493 75.3627 223.867 75.16C224.24 74.9467 224.667 74.84 225.147 74.84C225.947 74.84 226.592 75.1013 227.083 75.624C227.573 76.1467 227.835 76.9093 227.867 77.912L226.555 78.104C226.555 77.368 226.379 76.84 226.027 76.52C225.675 76.1893 225.243 76.024 224.731 76.024C224.4 76.024 224.112 76.088 223.867 76.216C223.632 76.344 223.435 76.52 223.275 76.744C223.115 76.968 222.997 77.2293 222.923 77.528C222.848 77.8267 222.811 78.1467 222.811 78.488V81.848H224.827V83H219.739V81.848H221.563V76.216H219.931V75.064ZM230.816 86.2H229.568V75.064H230.816V76.312H231.008C231.285 75.832 231.669 75.4693 232.16 75.224C232.65 74.968 233.184 74.84 233.76 74.84C234.25 74.84 234.714 74.9307 235.152 75.112C235.589 75.2933 235.973 75.5547 236.304 75.896C236.645 76.2373 236.912 76.6587 237.104 77.16C237.306 77.6613 237.408 78.232 237.408 78.872V79.192C237.408 79.8427 237.312 80.4187 237.12 80.92C236.928 81.4213 236.661 81.8427 236.32 82.184C235.989 82.5253 235.6 82.7867 235.152 82.968C234.704 83.1387 234.229 83.224 233.728 83.224C233.472 83.224 233.21 83.192 232.944 83.128C232.677 83.0747 232.421 82.9893 232.176 82.872C231.941 82.744 231.722 82.5947 231.52 82.424C231.317 82.2427 231.146 82.0293 231.008 81.784H230.816V86.2ZM233.472 82.04C233.856 82.04 234.208 81.976 234.528 81.848C234.848 81.7093 235.125 81.5173 235.36 81.272C235.605 81.0267 235.792 80.728 235.92 80.376C236.058 80.024 236.128 79.6293 236.128 79.192V78.872C236.128 78.4453 236.058 78.0613 235.92 77.72C235.792 77.368 235.605 77.0693 235.36 76.824C235.125 76.568 234.842 76.3707 234.512 76.232C234.192 76.0933 233.845 76.024 233.472 76.024C233.098 76.024 232.752 76.0987 232.432 76.248C232.112 76.3867 231.829 76.584 231.584 76.84C231.349 77.096 231.162 77.4053 231.024 77.768C230.885 78.12 230.816 78.5093 230.816 78.936V79.128C230.816 79.5653 230.885 79.9653 231.024 80.328C231.162 80.68 231.349 80.984 231.584 81.24C231.829 81.496 232.112 81.6933 232.432 81.832C232.752 81.9707 233.098 82.04 233.472 82.04ZM238.885 75.064H241.765V76.12H241.957C242.159 75.6827 242.447 75.3627 242.821 75.16C243.194 74.9467 243.621 74.84 244.101 74.84C244.901 74.84 245.546 75.1013 246.037 75.624C246.527 76.1467 246.789 76.9093 246.821 77.912L245.509 78.104C245.509 77.368 245.333 76.84 244.981 76.52C244.629 76.1893 244.197 76.024 243.685 76.024C243.354 76.024 243.066 76.088 242.821 76.216C242.586 76.344 242.389 76.52 242.229 76.744C242.069 76.968 241.951 77.2293 241.877 77.528C241.802 77.8267 241.765 78.1467 241.765 78.488V81.848H243.781V83H238.693V81.848H240.517V76.216H238.885V75.064ZM251.273 72.696C251.273 72.3867 251.38 72.1253 251.593 71.912C251.817 71.688 252.084 71.576 252.393 71.576C252.703 71.576 252.964 71.688 253.177 71.912C253.401 72.1253 253.513 72.3867 253.513 72.696C253.513 73.0053 253.401 73.272 253.177 73.496C252.964 73.7093 252.703 73.816 252.393 73.816C252.084 73.816 251.817 73.7093 251.593 73.496C251.38 73.272 251.273 73.0053 251.273 72.696ZM249.001 81.848H251.785V76.216H249.289V75.064H253.033V81.848H255.625V83H249.001V81.848ZM259.934 77.112C259.934 77.496 260.094 77.7893 260.414 77.992C260.745 78.1947 261.342 78.328 262.206 78.392C263.134 78.4667 263.838 78.6907 264.318 79.064C264.809 79.4267 265.054 79.96 265.054 80.664V80.76C265.054 81.144 264.974 81.4907 264.814 81.8C264.665 82.0987 264.452 82.3547 264.174 82.568C263.908 82.7813 263.577 82.9413 263.182 83.048C262.798 83.1653 262.377 83.224 261.918 83.224C261.3 83.224 260.766 83.144 260.318 82.984C259.881 82.8133 259.513 82.5947 259.214 82.328C258.926 82.0507 258.708 81.7413 258.558 81.4C258.409 81.048 258.324 80.696 258.302 80.344L259.486 80.056C259.54 80.664 259.774 81.1547 260.19 81.528C260.606 81.8907 261.161 82.072 261.854 82.072C262.441 82.072 262.91 81.96 263.262 81.736C263.625 81.5013 263.806 81.176 263.806 80.76C263.806 80.312 263.63 79.992 263.278 79.8C262.926 79.608 262.356 79.4853 261.566 79.432C260.649 79.368 259.945 79.1547 259.454 78.792C258.964 78.4293 258.718 77.9013 258.718 77.208V77.112C258.718 76.7387 258.798 76.4133 258.958 76.136C259.118 75.848 259.332 75.608 259.598 75.416C259.876 75.224 260.185 75.08 260.526 74.984C260.868 74.888 261.225 74.84 261.598 74.84C262.121 74.84 262.58 74.9147 262.974 75.064C263.369 75.2027 263.7 75.3893 263.966 75.624C264.233 75.848 264.436 76.1093 264.574 76.408C264.724 76.7067 264.82 77.0053 264.862 77.304L263.678 77.592C263.625 77.08 263.417 76.68 263.054 76.392C262.702 76.104 262.238 75.96 261.662 75.96C261.438 75.96 261.22 75.9867 261.006 76.04C260.804 76.0827 260.622 76.152 260.462 76.248C260.302 76.344 260.174 76.4667 260.078 76.616C259.982 76.7547 259.934 76.92 259.934 77.112ZM268.675 79.416C268.707 80.2053 268.953 80.84 269.411 81.32C269.87 81.8 270.51 82.04 271.331 82.04C271.705 82.04 272.03 81.9973 272.307 81.912C272.585 81.8267 272.819 81.7093 273.011 81.56C273.214 81.4107 273.374 81.24 273.491 81.048C273.619 80.8453 273.721 80.632 273.795 80.408L274.979 80.728C274.755 81.464 274.339 82.0667 273.731 82.536C273.134 82.9947 272.323 83.224 271.299 83.224C270.734 83.224 270.211 83.128 269.731 82.936C269.262 82.7333 268.857 82.4507 268.515 82.088C268.174 81.7253 267.907 81.2933 267.715 80.792C267.523 80.2907 267.427 79.736 267.427 79.128V78.744C267.427 78.1893 267.523 77.672 267.715 77.192C267.918 76.712 268.195 76.3013 268.547 75.96C268.899 75.608 269.31 75.336 269.779 75.144C270.259 74.9413 270.777 74.84 271.331 74.84C271.982 74.84 272.542 74.9627 273.011 75.208C273.491 75.4427 273.881 75.736 274.179 76.088C274.489 76.44 274.713 76.824 274.851 77.24C275.001 77.656 275.075 78.04 275.075 78.392V79.416H268.675ZM271.331 76.024C270.979 76.024 270.649 76.0827 270.339 76.2C270.041 76.3067 269.774 76.4613 269.539 76.664C269.315 76.8667 269.129 77.1067 268.979 77.384C268.841 77.6507 268.75 77.944 268.707 78.264H273.827C273.806 77.9227 273.721 77.6133 273.571 77.336C273.433 77.0587 273.246 76.824 273.011 76.632C272.787 76.44 272.526 76.2907 272.227 76.184C271.939 76.0773 271.641 76.024 271.331 76.024ZM291.328 79.416C291.36 80.2053 291.605 80.84 292.064 81.32C292.522 81.8 293.162 82.04 293.984 82.04C294.357 82.04 294.682 81.9973 294.96 81.912C295.237 81.8267 295.472 81.7093 295.664 81.56C295.866 81.4107 296.026 81.24 296.144 81.048C296.272 80.8453 296.373 80.632 296.448 80.408L297.632 80.728C297.408 81.464 296.992 82.0667 296.384 82.536C295.786 82.9947 294.976 83.224 293.952 83.224C293.386 83.224 292.864 83.128 292.384 82.936C291.914 82.7333 291.509 82.4507 291.168 82.088C290.826 81.7253 290.56 81.2933 290.368 80.792C290.176 80.2907 290.08 79.736 290.08 79.128V78.744C290.08 78.1893 290.176 77.672 290.368 77.192C290.57 76.712 290.848 76.3013 291.2 75.96C291.552 75.608 291.962 75.336 292.432 75.144C292.912 74.9413 293.429 74.84 293.984 74.84C294.634 74.84 295.194 74.9627 295.664 75.208C296.144 75.4427 296.533 75.736 296.832 76.088C297.141 76.44 297.365 76.824 297.504 77.24C297.653 77.656 297.728 78.04 297.728 78.392V79.416H291.328ZM293.984 76.024C293.632 76.024 293.301 76.0827 292.992 76.2C292.693 76.3067 292.426 76.4613 292.192 76.664C291.968 76.8667 291.781 77.1067 291.632 77.384C291.493 77.6507 291.402 77.944 291.36 78.264H296.48C296.458 77.9227 296.373 77.6133 296.224 77.336C296.085 77.0587 295.898 76.824 295.664 76.632C295.44 76.44 295.178 76.2907 294.88 76.184C294.592 76.0773 294.293 76.024 293.984 76.024ZM304.612 83H302.148L299.38 75.064H300.852L303.284 82.424H303.476L305.908 75.064H307.38L304.612 83ZM310.281 79.416C310.313 80.2053 310.559 80.84 311.017 81.32C311.476 81.8 312.116 82.04 312.937 82.04C313.311 82.04 313.636 81.9973 313.913 81.912C314.191 81.8267 314.425 81.7093 314.617 81.56C314.82 81.4107 314.98 81.24 315.097 81.048C315.225 80.8453 315.327 80.632 315.401 80.408L316.585 80.728C316.361 81.464 315.945 82.0667 315.337 82.536C314.74 82.9947 313.929 83.224 312.905 83.224C312.34 83.224 311.817 83.128 311.337 82.936C310.868 82.7333 310.463 82.4507 310.121 82.088C309.78 81.7253 309.513 81.2933 309.321 80.792C309.129 80.2907 309.033 79.736 309.033 79.128V78.744C309.033 78.1893 309.129 77.672 309.321 77.192C309.524 76.712 309.801 76.3013 310.153 75.96C310.505 75.608 310.916 75.336 311.385 75.144C311.865 74.9413 312.383 74.84 312.937 74.84C313.588 74.84 314.148 74.9627 314.617 75.208C315.097 75.4427 315.487 75.736 315.785 76.088C316.095 76.44 316.319 76.824 316.457 77.24C316.607 77.656 316.681 78.04 316.681 78.392V79.416H310.281ZM312.937 76.024C312.585 76.024 312.255 76.0827 311.945 76.2C311.647 76.3067 311.38 76.4613 311.145 76.664C310.921 76.8667 310.735 77.1067 310.585 77.384C310.447 77.6507 310.356 77.944 310.313 78.264H315.433C315.412 77.9227 315.327 77.6133 315.177 77.336C315.039 77.0587 314.852 76.824 314.617 76.632C314.393 76.44 314.132 76.2907 313.833 76.184C313.545 76.0773 313.247 76.024 312.937 76.024ZM320.094 83H318.846V75.064H320.094V76.408H320.286C320.777 75.3627 321.63 74.84 322.846 74.84C323.764 74.84 324.494 75.128 325.038 75.704C325.582 76.2693 325.854 77.1227 325.854 78.264V83H324.606V78.52C324.606 77.688 324.42 77.064 324.046 76.648C323.673 76.232 323.166 76.024 322.526 76.024C321.769 76.024 321.172 76.2853 320.734 76.808C320.308 77.32 320.094 78.008 320.094 78.872V83ZM328.051 75.064H330.547V71.8H331.795V75.064H334.867V76.216H331.795V81.368C331.795 81.688 331.939 81.848 332.227 81.848H334.483V83H331.779C331.416 83 331.118 82.8827 330.883 82.648C330.659 82.4133 330.547 82.1147 330.547 81.752V76.216H328.051V75.064ZM339.448 77.112C339.448 77.496 339.608 77.7893 339.928 77.992C340.259 78.1947 340.856 78.328 341.72 78.392C342.648 78.4667 343.352 78.6907 343.832 79.064C344.323 79.4267 344.568 79.96 344.568 80.664V80.76C344.568 81.144 344.488 81.4907 344.328 81.8C344.179 82.0987 343.965 82.3547 343.688 82.568C343.421 82.7813 343.091 82.9413 342.696 83.048C342.312 83.1653 341.891 83.224 341.432 83.224C340.813 83.224 340.28 83.144 339.832 82.984C339.395 82.8133 339.027 82.5947 338.728 82.328C338.44 82.0507 338.221 81.7413 338.072 81.4C337.923 81.048 337.837 80.696 337.816 80.344L339 80.056C339.053 80.664 339.288 81.1547 339.704 81.528C340.12 81.8907 340.675 82.072 341.368 82.072C341.955 82.072 342.424 81.96 342.776 81.736C343.139 81.5013 343.32 81.176 343.32 80.76C343.32 80.312 343.144 79.992 342.792 79.8C342.44 79.608 341.869 79.4853 341.08 79.432C340.163 79.368 339.459 79.1547 338.968 78.792C338.477 78.4293 338.232 77.9013 338.232 77.208V77.112C338.232 76.7387 338.312 76.4133 338.472 76.136C338.632 75.848 338.845 75.608 339.112 75.416C339.389 75.224 339.699 75.08 340.04 74.984C340.381 74.888 340.739 74.84 341.112 74.84C341.635 74.84 342.093 74.9147 342.488 75.064C342.883 75.2027 343.213 75.3893 343.48 75.624C343.747 75.848 343.949 76.1093 344.088 76.408C344.237 76.7067 344.333 77.0053 344.376 77.304L343.192 77.592C343.139 77.08 342.931 76.68 342.568 76.392C342.216 76.104 341.752 75.96 341.176 75.96C340.952 75.96 340.733 75.9867 340.52 76.04C340.317 76.0827 340.136 76.152 339.976 76.248C339.816 76.344 339.688 76.4667 339.592 76.616C339.496 76.7547 339.448 76.92 339.448 77.112ZM25.2515 98.064H27.7475V94.8H28.9955V98.064H32.0675V99.216H28.9955V104.368C28.9955 104.688 29.1395 104.848 29.4275 104.848H31.6835V106H28.9795C28.6168 106 28.3181 105.883 28.0835 105.648C27.8595 105.413 27.7475 105.115 27.7475 104.752V99.216H25.2515V98.064ZM36.2483 106H35.0003V94.8H36.2483V99.504H36.4403C36.6857 98.992 37.027 98.5867 37.4643 98.288C37.9123 97.9893 38.4563 97.84 39.0963 97.84C39.9603 97.84 40.659 98.128 41.1923 98.704C41.7363 99.2693 42.0083 100.123 42.0083 101.264V106H40.7603V101.52C40.7603 100.688 40.5737 100.064 40.2003 99.648C39.827 99.232 39.3203 99.024 38.6803 99.024C37.923 99.024 37.3257 99.2853 36.8883 99.808C36.4617 100.32 36.2483 101.008 36.2483 101.872V106ZM50.2372 104.656H50.0452C49.7892 105.189 49.4319 105.584 48.9732 105.84C48.5252 106.096 48.0506 106.224 47.5492 106.224C47.0266 106.224 46.5412 106.139 46.0932 105.968C45.6452 105.787 45.2506 105.525 44.9092 105.184C44.5786 104.832 44.3172 104.405 44.1252 103.904C43.9332 103.403 43.8372 102.821 43.8372 102.16V101.904C43.8372 101.253 43.9332 100.677 44.1252 100.176C44.3172 99.6747 44.5786 99.2533 44.9092 98.912C45.2506 98.56 45.6452 98.2933 46.0932 98.112C46.5412 97.9307 47.0159 97.84 47.5172 97.84C48.0612 97.84 48.5519 97.9627 48.9892 98.208C49.4372 98.4427 49.7892 98.8107 50.0452 99.312H50.2372V98.064H51.4852V104.368C51.4852 104.688 51.6292 104.848 51.9172 104.848H52.3172V106H51.4692C51.1066 106 50.8079 105.883 50.5732 105.648C50.3492 105.413 50.2372 105.115 50.2372 104.752V104.656ZM47.6772 105.04C48.0506 105.04 48.3919 104.971 48.7012 104.832C49.0212 104.693 49.2932 104.496 49.5172 104.24C49.7412 103.984 49.9172 103.68 50.0452 103.328C50.1732 102.965 50.2372 102.565 50.2372 102.128V101.936C50.2372 101.509 50.1732 101.12 50.0452 100.768C49.9172 100.405 49.7359 100.096 49.5012 99.84C49.2772 99.584 49.0052 99.3867 48.6852 99.248C48.3759 99.0987 48.0399 99.024 47.6772 99.024C47.3039 99.024 46.9626 99.0933 46.6532 99.232C46.3439 99.3707 46.0719 99.568 45.8372 99.824C45.6132 100.069 45.4372 100.373 45.3092 100.736C45.1812 101.088 45.1172 101.477 45.1172 101.904V102.16C45.1172 103.067 45.3519 103.776 45.8212 104.288C46.3012 104.789 46.9199 105.04 47.6772 105.04ZM53.6821 98.064H56.1781V94.8H57.4261V98.064H60.4981V99.216H57.4261V104.368C57.4261 104.688 57.5701 104.848 57.8581 104.848H60.1141V106H57.4101C57.0474 106 56.7488 105.883 56.5141 105.648C56.2901 105.413 56.1781 105.115 56.1781 104.752V99.216H53.6821V98.064ZM85.1632 106H83.9152V100.304C83.9152 99.9307 83.8299 99.6267 83.6592 99.392C83.4885 99.1467 83.2165 99.024 82.8432 99.024C82.4912 99.024 82.2032 99.1573 81.9792 99.424C81.7659 99.68 81.6592 100.08 81.6592 100.624V106H80.4112V100.24C80.4112 99.888 80.3152 99.6 80.1232 99.376C79.9312 99.1413 79.6752 99.024 79.3552 99.024C78.9712 99.024 78.6725 99.1627 78.4592 99.44C78.2565 99.7173 78.1552 100.08 78.1552 100.528V106H76.9072V98.064H78.1552V98.928H78.3472C78.4859 98.5547 78.6885 98.2827 78.9552 98.112C79.2219 97.9307 79.5365 97.84 79.8992 97.84C80.2832 97.84 80.5979 97.9413 80.8432 98.144C81.0992 98.3467 81.2752 98.608 81.3712 98.928H81.5632C81.9259 98.2027 82.5019 97.84 83.2912 97.84C83.8885 97.84 84.3472 98.032 84.6672 98.416C84.9979 98.7893 85.1632 99.28 85.1632 99.888V106ZM89.4721 95.696C89.4721 95.3867 89.5787 95.1253 89.7921 94.912C90.0161 94.688 90.2827 94.576 90.5921 94.576C90.9014 94.576 91.1627 94.688 91.3761 94.912C91.6001 95.1253 91.7121 95.3867 91.7121 95.696C91.7121 96.0053 91.6001 96.272 91.3761 96.496C91.1627 96.7093 90.9014 96.816 90.5921 96.816C90.2827 96.816 90.0161 96.7093 89.7921 96.496C89.5787 96.272 89.4721 96.0053 89.4721 95.696ZM87.2001 104.848H89.9841V99.216H87.4881V98.064H91.2321V104.848H93.8241V106H87.2001V104.848ZM102.517 104.784H102.325C102.069 105.264 101.717 105.627 101.269 105.872C100.832 106.107 100.352 106.224 99.8289 106.224C99.2956 106.224 98.7943 106.133 98.3249 105.952C97.8556 105.771 97.4396 105.509 97.0769 105.168C96.7249 104.827 96.4423 104.405 96.2289 103.904C96.0263 103.392 95.9249 102.811 95.9249 102.16V101.904C95.9249 101.264 96.0316 100.693 96.2449 100.192C96.4583 99.68 96.7409 99.2533 97.0929 98.912C97.4449 98.56 97.8556 98.2933 98.3249 98.112C98.7943 97.9307 99.2849 97.84 99.7969 97.84C100.373 97.84 100.874 97.968 101.301 98.224C101.738 98.4693 102.08 98.832 102.325 99.312H102.517V98.064H103.765V107.952C103.765 108.315 103.648 108.613 103.413 108.848C103.189 109.083 102.896 109.2 102.533 109.2H97.3649V108.048H102.085C102.373 108.048 102.517 107.888 102.517 107.568V104.784ZM99.8609 105.04C100.234 105.04 100.581 104.971 100.901 104.832C101.221 104.693 101.498 104.496 101.733 104.24C101.978 103.984 102.17 103.68 102.309 103.328C102.448 102.965 102.517 102.565 102.517 102.128V101.936C102.517 101.509 102.448 101.12 102.309 100.768C102.17 100.405 101.978 100.096 101.733 99.84C101.498 99.584 101.216 99.3867 100.885 99.248C100.565 99.0987 100.224 99.024 99.8609 99.024C99.4876 99.024 99.1356 99.0933 98.8049 99.232C98.4849 99.3707 98.2023 99.568 97.9569 99.824C97.7223 100.08 97.5356 100.384 97.3969 100.736C97.2689 101.088 97.2049 101.477 97.2049 101.904V102.16C97.2049 102.608 97.2689 103.008 97.3969 103.36C97.5356 103.712 97.7223 104.016 97.9569 104.272C98.2023 104.517 98.4849 104.709 98.8049 104.848C99.1249 104.976 99.4769 105.04 99.8609 105.04ZM107.21 106H105.962V94.8H107.21V99.504H107.402C107.647 98.992 107.988 98.5867 108.426 98.288C108.874 97.9893 109.418 97.84 110.058 97.84C110.922 97.84 111.62 98.128 112.154 98.704C112.698 99.2693 112.97 100.123 112.97 101.264V106H111.722V101.52C111.722 100.688 111.535 100.064 111.162 99.648C110.788 99.232 110.282 99.024 109.642 99.024C108.884 99.024 108.287 99.2853 107.85 99.808C107.423 100.32 107.21 101.008 107.21 101.872V106ZM115.167 98.064H117.663V94.8H118.911V98.064H121.983V99.216H118.911V104.368C118.911 104.688 119.055 104.848 119.343 104.848H121.599V106H118.895C118.532 106 118.233 105.883 117.999 105.648C117.775 105.413 117.663 105.115 117.663 104.752V99.216H115.167V98.064ZM146.44 103.184C146.354 103.621 146.205 104.027 145.992 104.4C145.789 104.773 145.528 105.099 145.208 105.376C144.888 105.643 144.514 105.851 144.088 106C143.661 106.149 143.186 106.224 142.664 106.224C142.109 106.224 141.581 106.133 141.08 105.952C140.589 105.771 140.157 105.509 139.784 105.168C139.41 104.816 139.112 104.389 138.888 103.888C138.674 103.387 138.568 102.811 138.568 102.16V101.968C138.568 101.328 138.674 100.752 138.888 100.24C139.112 99.728 139.41 99.296 139.784 98.944C140.157 98.592 140.589 98.32 141.08 98.128C141.581 97.936 142.109 97.84 142.664 97.84C143.165 97.84 143.629 97.9147 144.056 98.064C144.482 98.2133 144.856 98.4267 145.176 98.704C145.506 98.9707 145.773 99.2907 145.976 99.664C146.189 100.037 146.333 100.443 146.408 100.88L145.16 101.168C145.128 100.891 145.048 100.624 144.92 100.368C144.802 100.101 144.637 99.872 144.424 99.68C144.221 99.4773 143.97 99.3173 143.672 99.2C143.373 99.0827 143.026 99.024 142.632 99.024C142.248 99.024 141.885 99.0987 141.544 99.248C141.213 99.3867 140.92 99.5893 140.664 99.856C140.408 100.112 140.205 100.421 140.056 100.784C139.917 101.147 139.848 101.541 139.848 101.968V102.16C139.848 102.608 139.917 103.013 140.056 103.376C140.205 103.728 140.408 104.027 140.664 104.272C140.92 104.517 141.218 104.709 141.56 104.848C141.901 104.976 142.269 105.04 142.664 105.04C143.058 105.04 143.4 104.981 143.688 104.864C143.986 104.736 144.237 104.576 144.44 104.384C144.653 104.181 144.818 103.952 144.936 103.696C145.064 103.44 145.149 103.173 145.192 102.896L146.44 103.184ZM149.741 106H148.493V94.8H149.741V99.504H149.933C150.178 98.992 150.519 98.5867 150.957 98.288C151.405 97.9893 151.949 97.84 152.589 97.84C153.453 97.84 154.151 98.128 154.685 98.704C155.229 99.2693 155.501 100.123 155.501 101.264V106H154.253V101.52C154.253 100.688 154.066 100.064 153.693 99.648C153.319 99.232 152.813 99.024 152.173 99.024C151.415 99.024 150.818 99.2853 150.381 99.808C149.954 100.32 149.741 101.008 149.741 101.872V106ZM163.73 104.656H163.538C163.282 105.189 162.924 105.584 162.466 105.84C162.018 106.096 161.543 106.224 161.042 106.224C160.519 106.224 160.034 106.139 159.586 105.968C159.138 105.787 158.743 105.525 158.402 105.184C158.071 104.832 157.81 104.405 157.618 103.904C157.426 103.403 157.33 102.821 157.33 102.16V101.904C157.33 101.253 157.426 100.677 157.618 100.176C157.81 99.6747 158.071 99.2533 158.402 98.912C158.743 98.56 159.138 98.2933 159.586 98.112C160.034 97.9307 160.508 97.84 161.01 97.84C161.554 97.84 162.044 97.9627 162.482 98.208C162.93 98.4427 163.282 98.8107 163.538 99.312H163.73V98.064H164.978V104.368C164.978 104.688 165.122 104.848 165.41 104.848H165.81V106H164.962C164.599 106 164.3 105.883 164.066 105.648C163.842 105.413 163.73 105.115 163.73 104.752V104.656ZM161.17 105.04C161.543 105.04 161.884 104.971 162.194 104.832C162.514 104.693 162.786 104.496 163.01 104.24C163.234 103.984 163.41 103.68 163.538 103.328C163.666 102.965 163.73 102.565 163.73 102.128V101.936C163.73 101.509 163.666 101.12 163.538 100.768C163.41 100.405 163.228 100.096 162.994 99.84C162.77 99.584 162.498 99.3867 162.178 99.248C161.868 99.0987 161.532 99.024 161.17 99.024C160.796 99.024 160.455 99.0933 160.146 99.232C159.836 99.3707 159.564 99.568 159.33 99.824C159.106 100.069 158.93 100.373 158.802 100.736C158.674 101.088 158.61 101.477 158.61 101.904V102.16C158.61 103.067 158.844 103.776 159.314 104.288C159.794 104.789 160.412 105.04 161.17 105.04ZM167.446 104.848H170.326V95.952H167.542V94.8H171.574V104.848H174.454V106H167.446V104.848ZM176.923 104.848H179.803V95.952H177.019V94.8H181.051V104.848H183.931V106H176.923V104.848ZM187.312 102.416C187.344 103.205 187.59 103.84 188.048 104.32C188.507 104.8 189.147 105.04 189.968 105.04C190.342 105.04 190.667 104.997 190.944 104.912C191.222 104.827 191.456 104.709 191.648 104.56C191.851 104.411 192.011 104.24 192.128 104.048C192.256 103.845 192.358 103.632 192.432 103.408L193.616 103.728C193.392 104.464 192.976 105.067 192.368 105.536C191.771 105.995 190.96 106.224 189.936 106.224C189.371 106.224 188.848 106.128 188.368 105.936C187.899 105.733 187.494 105.451 187.152 105.088C186.811 104.725 186.544 104.293 186.352 103.792C186.16 103.291 186.064 102.736 186.064 102.128V101.744C186.064 101.189 186.16 100.672 186.352 100.192C186.555 99.712 186.832 99.3013 187.184 98.96C187.536 98.608 187.947 98.336 188.416 98.144C188.896 97.9413 189.414 97.84 189.968 97.84C190.619 97.84 191.179 97.9627 191.648 98.208C192.128 98.4427 192.518 98.736 192.816 99.088C193.126 99.44 193.35 99.824 193.488 100.24C193.638 100.656 193.712 101.04 193.712 101.392V102.416H187.312ZM189.968 99.024C189.616 99.024 189.286 99.0827 188.976 99.2C188.678 99.3067 188.411 99.4613 188.176 99.664C187.952 99.8667 187.766 100.107 187.616 100.384C187.478 100.651 187.387 100.944 187.344 101.264H192.464C192.443 100.923 192.358 100.613 192.208 100.336C192.07 100.059 191.883 99.824 191.648 99.632C191.424 99.44 191.163 99.2907 190.864 99.184C190.576 99.0773 190.278 99.024 189.968 99.024ZM197.125 106H195.877V98.064H197.125V99.408H197.317C197.808 98.3627 198.661 97.84 199.877 97.84C200.794 97.84 201.525 98.128 202.069 98.704C202.613 99.2693 202.885 100.123 202.885 101.264V106H201.637V101.52C201.637 100.688 201.45 100.064 201.077 99.648C200.704 99.232 200.197 99.024 199.557 99.024C198.8 99.024 198.202 99.2853 197.765 99.808C197.338 100.32 197.125 101.008 197.125 101.872V106ZM211.386 104.784H211.194C210.938 105.264 210.586 105.627 210.138 105.872C209.701 106.107 209.221 106.224 208.698 106.224C208.165 106.224 207.663 106.133 207.194 105.952C206.725 105.771 206.309 105.509 205.946 105.168C205.594 104.827 205.311 104.405 205.098 103.904C204.895 103.392 204.794 102.811 204.794 102.16V101.904C204.794 101.264 204.901 100.693 205.114 100.192C205.327 99.68 205.61 99.2533 205.962 98.912C206.314 98.56 206.725 98.2933 207.194 98.112C207.663 97.9307 208.154 97.84 208.666 97.84C209.242 97.84 209.743 97.968 210.17 98.224C210.607 98.4693 210.949 98.832 211.194 99.312H211.386V98.064H212.634V107.952C212.634 108.315 212.517 108.613 212.282 108.848C212.058 109.083 211.765 109.2 211.402 109.2H206.234V108.048H210.954C211.242 108.048 211.386 107.888 211.386 107.568V104.784ZM208.73 105.04C209.103 105.04 209.45 104.971 209.77 104.832C210.09 104.693 210.367 104.496 210.602 104.24C210.847 103.984 211.039 103.68 211.178 103.328C211.317 102.965 211.386 102.565 211.386 102.128V101.936C211.386 101.509 211.317 101.12 211.178 100.768C211.039 100.405 210.847 100.096 210.602 99.84C210.367 99.584 210.085 99.3867 209.754 99.248C209.434 99.0987 209.093 99.024 208.73 99.024C208.357 99.024 208.005 99.0933 207.674 99.232C207.354 99.3707 207.071 99.568 206.826 99.824C206.591 100.08 206.405 100.384 206.266 100.736C206.138 101.088 206.074 101.477 206.074 101.904V102.16C206.074 102.608 206.138 103.008 206.266 103.36C206.405 103.712 206.591 104.016 206.826 104.272C207.071 104.517 207.354 104.709 207.674 104.848C207.994 104.976 208.346 105.04 208.73 105.04ZM215.743 102.416C215.775 103.205 216.02 103.84 216.479 104.32C216.937 104.8 217.577 105.04 218.399 105.04C218.772 105.04 219.097 104.997 219.375 104.912C219.652 104.827 219.887 104.709 220.079 104.56C220.281 104.411 220.441 104.24 220.559 104.048C220.687 103.845 220.788 103.632 220.863 103.408L222.047 103.728C221.823 104.464 221.407 105.067 220.799 105.536C220.201 105.995 219.391 106.224 218.367 106.224C217.801 106.224 217.279 106.128 216.799 105.936C216.329 105.733 215.924 105.451 215.583 105.088C215.241 104.725 214.975 104.293 214.783 103.792C214.591 103.291 214.495 102.736 214.495 102.128V101.744C214.495 101.189 214.591 100.672 214.783 100.192C214.985 99.712 215.263 99.3013 215.615 98.96C215.967 98.608 216.377 98.336 216.847 98.144C217.327 97.9413 217.844 97.84 218.399 97.84C219.049 97.84 219.609 97.9627 220.079 98.208C220.559 98.4427 220.948 98.736 221.247 99.088C221.556 99.44 221.78 99.824 221.919 100.24C222.068 100.656 222.143 101.04 222.143 101.392V102.416H215.743ZM218.399 99.024C218.047 99.024 217.716 99.0827 217.407 99.2C217.108 99.3067 216.841 99.4613 216.607 99.664C216.383 99.8667 216.196 100.107 216.047 100.384C215.908 100.651 215.817 100.944 215.775 101.264H220.895C220.873 100.923 220.788 100.613 220.639 100.336C220.5 100.059 220.313 99.824 220.079 99.632C219.855 99.44 219.593 99.2907 219.295 99.184C219.007 99.0773 218.708 99.024 218.399 99.024ZM244.168 104.56H243.976C243.72 105.072 243.384 105.477 242.968 105.776C242.552 106.075 242.024 106.224 241.384 106.224C240.947 106.224 240.541 106.149 240.168 106C239.805 105.861 239.491 105.648 239.224 105.36C238.968 105.072 238.765 104.715 238.616 104.288C238.477 103.861 238.408 103.365 238.408 102.8V98.064H239.656V102.64C239.656 103.472 239.827 104.08 240.168 104.464C240.509 104.848 241.032 105.04 241.736 105.04C242.493 105.04 243.085 104.784 243.512 104.272C243.949 103.749 244.168 103.056 244.168 102.192V98.064H245.416V107.952C245.416 108.315 245.299 108.613 245.064 108.848C244.84 109.083 244.547 109.2 244.184 109.2H239.656V108.048H243.736C244.024 108.048 244.168 107.888 244.168 107.568V104.56ZM255.373 102.128C255.373 102.789 255.261 103.376 255.037 103.888C254.823 104.389 254.535 104.816 254.173 105.168C253.81 105.509 253.383 105.771 252.893 105.952C252.413 106.133 251.911 106.224 251.389 106.224C250.855 106.224 250.349 106.133 249.869 105.952C249.389 105.771 248.967 105.509 248.605 105.168C248.242 104.816 247.949 104.389 247.725 103.888C247.511 103.376 247.405 102.789 247.405 102.128V101.936C247.405 101.285 247.511 100.709 247.725 100.208C247.949 99.696 248.242 99.264 248.605 98.912C248.978 98.56 249.405 98.2933 249.885 98.112C250.365 97.9307 250.866 97.84 251.389 97.84C251.911 97.84 252.413 97.9307 252.893 98.112C253.373 98.2933 253.794 98.56 254.157 98.912C254.53 99.264 254.823 99.696 255.037 100.208C255.261 100.709 255.373 101.285 255.373 101.936V102.128ZM251.389 105.04C251.773 105.04 252.125 104.976 252.445 104.848C252.775 104.709 253.063 104.512 253.309 104.256C253.554 104 253.746 103.696 253.885 103.344C254.023 102.981 254.093 102.576 254.093 102.128V101.936C254.093 101.509 254.023 101.12 253.885 100.768C253.746 100.405 253.554 100.096 253.309 99.84C253.063 99.584 252.775 99.3867 252.445 99.248C252.114 99.0987 251.762 99.024 251.389 99.024C251.015 99.024 250.663 99.0987 250.333 99.248C250.002 99.3867 249.714 99.584 249.469 99.84C249.223 100.096 249.031 100.405 248.893 100.768C248.754 101.12 248.685 101.509 248.685 101.936V102.128C248.685 102.576 248.754 102.981 248.893 103.344C249.031 103.696 249.223 104 249.469 104.256C249.714 104.512 249.997 104.709 250.317 104.848C250.647 104.976 251.005 105.04 251.389 105.04ZM263.026 98.064H264.274V106H263.026V104.56H262.834C262.578 105.072 262.242 105.477 261.826 105.776C261.41 106.075 260.882 106.224 260.242 106.224C259.804 106.224 259.399 106.149 259.026 106C258.663 105.861 258.348 105.648 258.082 105.36C257.826 105.072 257.623 104.715 257.474 104.288C257.335 103.861 257.266 103.365 257.266 102.8V98.064H258.514V102.64C258.514 103.472 258.684 104.08 259.026 104.464C259.367 104.848 259.89 105.04 260.594 105.04C261.351 105.04 261.943 104.784 262.37 104.272C262.807 103.749 263.026 103.056 263.026 102.192V98.064ZM266.391 98.064H269.271V99.12H269.463C269.665 98.6827 269.953 98.3627 270.327 98.16C270.7 97.9467 271.127 97.84 271.607 97.84C272.407 97.84 273.052 98.1013 273.543 98.624C274.033 99.1467 274.295 99.9093 274.327 100.912L273.015 101.104C273.015 100.368 272.839 99.84 272.487 99.52C272.135 99.1893 271.703 99.024 271.191 99.024C270.86 99.024 270.572 99.088 270.327 99.216C270.092 99.344 269.895 99.52 269.735 99.744C269.575 99.968 269.457 100.229 269.383 100.528C269.308 100.827 269.271 101.147 269.271 101.488V104.848H271.287V106H266.199V104.848H268.023V99.216H266.391V98.064ZM292.064 100.112C292.064 100.496 292.224 100.789 292.544 100.992C292.874 101.195 293.472 101.328 294.336 101.392C295.264 101.467 295.968 101.691 296.448 102.064C296.938 102.427 297.184 102.96 297.184 103.664V103.76C297.184 104.144 297.104 104.491 296.944 104.8C296.794 105.099 296.581 105.355 296.304 105.568C296.037 105.781 295.706 105.941 295.312 106.048C294.928 106.165 294.506 106.224 294.048 106.224C293.429 106.224 292.896 106.144 292.448 105.984C292.01 105.813 291.642 105.595 291.344 105.328C291.056 105.051 290.837 104.741 290.688 104.4C290.538 104.048 290.453 103.696 290.432 103.344L291.616 103.056C291.669 103.664 291.904 104.155 292.32 104.528C292.736 104.891 293.29 105.072 293.984 105.072C294.57 105.072 295.04 104.96 295.392 104.736C295.754 104.501 295.936 104.176 295.936 103.76C295.936 103.312 295.76 102.992 295.408 102.8C295.056 102.608 294.485 102.485 293.696 102.432C292.778 102.368 292.074 102.155 291.584 101.792C291.093 101.429 290.848 100.901 290.848 100.208V100.112C290.848 99.7387 290.928 99.4133 291.088 99.136C291.248 98.848 291.461 98.608 291.728 98.416C292.005 98.224 292.314 98.08 292.656 97.984C292.997 97.888 293.354 97.84 293.728 97.84C294.25 97.84 294.709 97.9147 295.104 98.064C295.498 98.2027 295.829 98.3893 296.096 98.624C296.362 98.848 296.565 99.1093 296.704 99.408C296.853 99.7067 296.949 100.005 296.992 100.304L295.808 100.592C295.754 100.08 295.546 99.68 295.184 99.392C294.832 99.104 294.368 98.96 293.792 98.96C293.568 98.96 293.349 98.9867 293.136 99.04C292.933 99.0827 292.752 99.152 292.592 99.248C292.432 99.344 292.304 99.4667 292.208 99.616C292.112 99.7547 292.064 99.92 292.064 100.112ZM301.94 101.36H302.212L305.236 98.064H306.772V98.16L303.476 101.792V102.08L307.156 105.904V106H305.62L302.244 102.512H301.94V106H300.692V94.8H301.94V101.36ZM311.833 95.696C311.833 95.3867 311.94 95.1253 312.153 94.912C312.377 94.688 312.644 94.576 312.953 94.576C313.263 94.576 313.524 94.688 313.737 94.912C313.961 95.1253 314.073 95.3867 314.073 95.696C314.073 96.0053 313.961 96.272 313.737 96.496C313.524 96.7093 313.263 96.816 312.953 96.816C312.644 96.816 312.377 96.7093 312.153 96.496C311.94 96.272 311.833 96.0053 311.833 95.696ZM309.561 104.848H312.345V99.216H309.849V98.064H313.593V104.848H316.185V106H309.561V104.848ZM318.846 104.848H321.726V95.952H318.942V94.8H322.974V104.848H325.854V106H318.846V104.848ZM328.323 104.848H331.203V95.952H328.419V94.8H332.451V104.848H335.331V106H328.323V104.848ZM339.448 100.112C339.448 100.496 339.608 100.789 339.928 100.992C340.259 101.195 340.856 101.328 341.72 101.392C342.648 101.467 343.352 101.691 343.832 102.064C344.323 102.427 344.568 102.96 344.568 103.664V103.76C344.568 104.144 344.488 104.491 344.328 104.8C344.179 105.099 343.965 105.355 343.688 105.568C343.421 105.781 343.091 105.941 342.696 106.048C342.312 106.165 341.891 106.224 341.432 106.224C340.813 106.224 340.28 106.144 339.832 105.984C339.395 105.813 339.027 105.595 338.728 105.328C338.44 105.051 338.221 104.741 338.072 104.4C337.923 104.048 337.837 103.696 337.816 103.344L339 103.056C339.053 103.664 339.288 104.155 339.704 104.528C340.12 104.891 340.675 105.072 341.368 105.072C341.955 105.072 342.424 104.96 342.776 104.736C343.139 104.501 343.32 104.176 343.32 103.76C343.32 103.312 343.144 102.992 342.792 102.8C342.44 102.608 341.869 102.485 341.08 102.432C340.163 102.368 339.459 102.155 338.968 101.792C338.477 101.429 338.232 100.901 338.232 100.208V100.112C338.232 99.7387 338.312 99.4133 338.472 99.136C338.632 98.848 338.845 98.608 339.112 98.416C339.389 98.224 339.699 98.08 340.04 97.984C340.381 97.888 340.739 97.84 341.112 97.84C341.635 97.84 342.093 97.9147 342.488 98.064C342.883 98.2027 343.213 98.3893 343.48 98.624C343.747 98.848 343.949 99.1093 344.088 99.408C344.237 99.7067 344.333 100.005 344.376 100.304L343.192 100.592C343.139 100.08 342.931 99.68 342.568 99.392C342.216 99.104 341.752 98.96 341.176 98.96C340.952 98.96 340.733 98.9867 340.52 99.04C340.317 99.0827 340.136 99.152 339.976 99.248C339.816 99.344 339.688 99.4667 339.592 99.616C339.496 99.7547 339.448 99.92 339.448 100.112ZM31.2835 127.656H31.0915C30.8355 128.189 30.4781 128.584 30.0195 128.84C29.5715 129.096 29.0968 129.224 28.5955 129.224C28.0728 129.224 27.5875 129.139 27.1395 128.968C26.6915 128.787 26.2968 128.525 25.9555 128.184C25.6248 127.832 25.3635 127.405 25.1715 126.904C24.9795 126.403 24.8835 125.821 24.8835 125.16V124.904C24.8835 124.253 24.9795 123.677 25.1715 123.176C25.3635 122.675 25.6248 122.253 25.9555 121.912C26.2968 121.56 26.6915 121.293 27.1395 121.112C27.5875 120.931 28.0621 120.84 28.5635 120.84C29.1075 120.84 29.5981 120.963 30.0355 121.208C30.4835 121.443 30.8355 121.811 31.0915 122.312H31.2835V121.064H32.5315V127.368C32.5315 127.688 32.6755 127.848 32.9635 127.848H33.3635V129H32.5155C32.1528 129 31.8541 128.883 31.6195 128.648C31.3955 128.413 31.2835 128.115 31.2835 127.752V127.656ZM28.7235 128.04C29.0968 128.04 29.4381 127.971 29.7475 127.832C30.0675 127.693 30.3395 127.496 30.5635 127.24C30.7875 126.984 30.9635 126.68 31.0915 126.328C31.2195 125.965 31.2835 125.565 31.2835 125.128V124.936C31.2835 124.509 31.2195 124.12 31.0915 123.768C30.9635 123.405 30.7821 123.096 30.5475 122.84C30.3235 122.584 30.0515 122.387 29.7315 122.248C29.4221 122.099 29.0861 122.024 28.7235 122.024C28.3501 122.024 28.0088 122.093 27.6995 122.232C27.3901 122.371 27.1181 122.568 26.8835 122.824C26.6595 123.069 26.4835 123.373 26.3555 123.736C26.2275 124.088 26.1635 124.477 26.1635 124.904V125.16C26.1635 126.067 26.3981 126.776 26.8675 127.288C27.3475 127.789 27.9661 128.04 28.7235 128.04ZM36.2483 129H35.0003V121.064H36.2483V122.408H36.4403C36.931 121.363 37.7843 120.84 39.0003 120.84C39.9177 120.84 40.6483 121.128 41.1923 121.704C41.7363 122.269 42.0083 123.123 42.0083 124.264V129H40.7603V124.52C40.7603 123.688 40.5737 123.064 40.2003 122.648C39.827 122.232 39.3203 122.024 38.6803 122.024C37.923 122.024 37.3257 122.285 36.8883 122.808C36.4617 123.32 36.2483 124.008 36.2483 124.872V129ZM50.6212 127.784H50.4292C50.3012 128.029 50.1359 128.243 49.9332 128.424C49.7412 128.605 49.5279 128.755 49.2932 128.872C49.0692 128.989 48.8292 129.075 48.5732 129.128C48.3172 129.192 48.0719 129.224 47.8372 129.224C47.3039 129.224 46.8079 129.133 46.3492 128.952C45.8906 128.771 45.4852 128.509 45.1332 128.168C44.7919 127.827 44.5199 127.405 44.3172 126.904C44.1252 126.392 44.0292 125.811 44.0292 125.16V124.904C44.0292 124.264 44.1306 123.693 44.3332 123.192C44.5359 122.68 44.8079 122.253 45.1492 121.912C45.4906 121.56 45.8906 121.293 46.3492 121.112C46.8079 120.931 47.2932 120.84 47.8052 120.84C48.3492 120.84 48.8559 120.963 49.3252 121.208C49.8052 121.443 50.1732 121.811 50.4292 122.312H50.6212V117.8H51.8692V129H50.6212V127.784ZM47.9652 128.04C48.3386 128.04 48.6852 127.971 49.0052 127.832C49.3252 127.693 49.6026 127.496 49.8372 127.24C50.0826 126.984 50.2746 126.68 50.4132 126.328C50.5519 125.965 50.6212 125.565 50.6212 125.128V124.936C50.6212 124.509 50.5519 124.12 50.4132 123.768C50.2746 123.405 50.0826 123.096 49.8372 122.84C49.6026 122.584 49.3199 122.387 48.9892 122.248C48.6692 122.099 48.3279 122.024 47.9652 122.024C47.5919 122.024 47.2399 122.093 46.9092 122.232C46.5892 122.371 46.3066 122.568 46.0612 122.824C45.8266 123.08 45.6399 123.384 45.5012 123.736C45.3732 124.088 45.3092 124.477 45.3092 124.904V125.16C45.3092 125.608 45.3732 126.008 45.5012 126.36C45.6399 126.712 45.8266 127.016 46.0612 127.272C46.3066 127.517 46.5892 127.709 46.9092 127.848C47.2292 127.976 47.5812 128.04 47.9652 128.04ZM70.855 126.184C70.7696 126.621 70.6203 127.027 70.407 127.4C70.2043 127.773 69.943 128.099 69.623 128.376C69.303 128.643 68.9296 128.851 68.503 129C68.0763 129.149 67.6016 129.224 67.079 129.224C66.5243 129.224 65.9963 129.133 65.495 128.952C65.0043 128.771 64.5723 128.509 64.199 128.168C63.8256 127.816 63.527 127.389 63.303 126.888C63.0896 126.387 62.983 125.811 62.983 125.16V124.968C62.983 124.328 63.0896 123.752 63.303 123.24C63.527 122.728 63.8256 122.296 64.199 121.944C64.5723 121.592 65.0043 121.32 65.495 121.128C65.9963 120.936 66.5243 120.84 67.079 120.84C67.5803 120.84 68.0443 120.915 68.471 121.064C68.8976 121.213 69.271 121.427 69.591 121.704C69.9216 121.971 70.1883 122.291 70.391 122.664C70.6043 123.037 70.7483 123.443 70.823 123.88L69.575 124.168C69.543 123.891 69.463 123.624 69.335 123.368C69.2176 123.101 69.0523 122.872 68.839 122.68C68.6363 122.477 68.3856 122.317 68.087 122.2C67.7883 122.083 67.4416 122.024 67.047 122.024C66.663 122.024 66.3003 122.099 65.959 122.248C65.6283 122.387 65.335 122.589 65.079 122.856C64.823 123.112 64.6203 123.421 64.471 123.784C64.3323 124.147 64.263 124.541 64.263 124.968V125.16C64.263 125.608 64.3323 126.013 64.471 126.376C64.6203 126.728 64.823 127.027 65.079 127.272C65.335 127.517 65.6336 127.709 65.975 127.848C66.3163 127.976 66.6843 128.04 67.079 128.04C67.4736 128.04 67.815 127.981 68.103 127.864C68.4016 127.736 68.6523 127.576 68.855 127.384C69.0683 127.181 69.2336 126.952 69.351 126.696C69.479 126.44 69.5643 126.173 69.607 125.896L70.855 126.184ZM72.4598 121.064H75.3398V122.12H75.5318C75.7345 121.683 76.0225 121.363 76.3958 121.16C76.7692 120.947 77.1958 120.84 77.6758 120.84C78.4758 120.84 79.1212 121.101 79.6118 121.624C80.1025 122.147 80.3638 122.909 80.3958 123.912L79.0838 124.104C79.0838 123.368 78.9078 122.84 78.5558 122.52C78.2038 122.189 77.7718 122.024 77.2598 122.024C76.9292 122.024 76.6412 122.088 76.3958 122.216C76.1612 122.344 75.9638 122.52 75.8038 122.744C75.6438 122.968 75.5265 123.229 75.4518 123.528C75.3772 123.827 75.3398 124.147 75.3398 124.488V127.848H77.3558V129H72.2678V127.848H74.0918V122.216H72.4598V121.064ZM83.2967 125.416C83.3287 126.205 83.5741 126.84 84.0327 127.32C84.4914 127.8 85.1314 128.04 85.9527 128.04C86.3261 128.04 86.6514 127.997 86.9287 127.912C87.2061 127.827 87.4407 127.709 87.6327 127.56C87.8354 127.411 87.9954 127.24 88.1127 127.048C88.2407 126.845 88.3421 126.632 88.4167 126.408L89.6007 126.728C89.3767 127.464 88.9607 128.067 88.3527 128.536C87.7554 128.995 86.9447 129.224 85.9207 129.224C85.3554 129.224 84.8327 129.128 84.3527 128.936C83.8834 128.733 83.4781 128.451 83.1367 128.088C82.7954 127.725 82.5287 127.293 82.3367 126.792C82.1447 126.291 82.0487 125.736 82.0487 125.128V124.744C82.0487 124.189 82.1447 123.672 82.3367 123.192C82.5394 122.712 82.8167 122.301 83.1687 121.96C83.5207 121.608 83.9314 121.336 84.4007 121.144C84.8807 120.941 85.3981 120.84 85.9527 120.84C86.6034 120.84 87.1634 120.963 87.6327 121.208C88.1127 121.443 88.5021 121.736 88.8007 122.088C89.1101 122.44 89.3341 122.824 89.4727 123.24C89.6221 123.656 89.6967 124.04 89.6967 124.392V125.416H83.2967ZM85.9527 122.024C85.6007 122.024 85.2701 122.083 84.9607 122.2C84.6621 122.307 84.3954 122.461 84.1607 122.664C83.9367 122.867 83.7501 123.107 83.6007 123.384C83.4621 123.651 83.3714 123.944 83.3287 124.264H88.4487C88.4274 123.923 88.3421 123.613 88.1927 123.336C88.0541 123.059 87.8674 122.824 87.6327 122.632C87.4087 122.44 87.1474 122.291 86.8487 122.184C86.5607 122.077 86.2621 122.024 85.9527 122.024ZM97.6216 127.656H97.4296C97.1736 128.189 96.8163 128.584 96.3576 128.84C95.9096 129.096 95.4349 129.224 94.9336 129.224C94.4109 129.224 93.9256 129.139 93.4776 128.968C93.0296 128.787 92.6349 128.525 92.2936 128.184C91.9629 127.832 91.7016 127.405 91.5096 126.904C91.3176 126.403 91.2216 125.821 91.2216 125.16V124.904C91.2216 124.253 91.3176 123.677 91.5096 123.176C91.7016 122.675 91.9629 122.253 92.2936 121.912C92.6349 121.56 93.0296 121.293 93.4776 121.112C93.9256 120.931 94.4003 120.84 94.9016 120.84C95.4456 120.84 95.9363 120.963 96.3736 121.208C96.8216 121.443 97.1736 121.811 97.4296 122.312H97.6216V121.064H98.8696V127.368C98.8696 127.688 99.0136 127.848 99.3016 127.848H99.7016V129H98.8536C98.4909 129 98.1923 128.883 97.9576 128.648C97.7336 128.413 97.6216 128.115 97.6216 127.752V127.656ZM95.0616 128.04C95.4349 128.04 95.7763 127.971 96.0856 127.832C96.4056 127.693 96.6776 127.496 96.9016 127.24C97.1256 126.984 97.3016 126.68 97.4296 126.328C97.5576 125.965 97.6216 125.565 97.6216 125.128V124.936C97.6216 124.509 97.5576 124.12 97.4296 123.768C97.3016 123.405 97.1203 123.096 96.8856 122.84C96.6616 122.584 96.3896 122.387 96.0696 122.248C95.7603 122.099 95.4243 122.024 95.0616 122.024C94.6883 122.024 94.3469 122.093 94.0376 122.232C93.7283 122.371 93.4563 122.568 93.2216 122.824C92.9976 123.069 92.8216 123.373 92.6936 123.736C92.5656 124.088 92.5016 124.477 92.5016 124.904V125.16C92.5016 126.067 92.7363 126.776 93.2056 127.288C93.6856 127.789 94.3043 128.04 95.0616 128.04ZM101.066 121.064H103.562V117.8H104.81V121.064H107.882V122.216H104.81V127.368C104.81 127.688 104.954 127.848 105.242 127.848H107.498V129H104.794C104.432 129 104.133 128.883 103.898 128.648C103.674 128.413 103.562 128.115 103.562 127.752V122.216H101.066V121.064ZM113.279 118.696C113.279 118.387 113.386 118.125 113.599 117.912C113.823 117.688 114.09 117.576 114.399 117.576C114.709 117.576 114.97 117.688 115.183 117.912C115.407 118.125 115.519 118.387 115.519 118.696C115.519 119.005 115.407 119.272 115.183 119.496C114.97 119.709 114.709 119.816 114.399 119.816C114.09 119.816 113.823 119.709 113.599 119.496C113.386 119.272 113.279 119.005 113.279 118.696ZM111.007 127.848H113.791V122.216H111.295V121.064H115.039V127.848H117.631V129H111.007V127.848ZM125.012 129H122.548L119.78 121.064H121.252L123.684 128.424H123.876L126.308 121.064H127.78L125.012 129ZM132.233 118.696C132.233 118.387 132.34 118.125 132.553 117.912C132.777 117.688 133.044 117.576 133.353 117.576C133.662 117.576 133.924 117.688 134.137 117.912C134.361 118.125 134.473 118.387 134.473 118.696C134.473 119.005 134.361 119.272 134.137 119.496C133.924 119.709 133.662 119.816 133.353 119.816C133.044 119.816 132.777 119.709 132.553 119.496C132.34 119.272 132.233 119.005 132.233 118.696ZM129.961 127.848H132.745V122.216H130.249V121.064H133.993V127.848H136.585V129H129.961V127.848ZM138.974 121.064H141.47V117.8H142.718V121.064H145.79V122.216H142.718V127.368C142.718 127.688 142.862 127.848 143.15 127.848H145.406V129H142.702C142.339 129 142.041 128.883 141.806 128.648C141.582 128.413 141.47 128.115 141.47 127.752V122.216H138.974V121.064ZM154.483 127.56H154.291C154.035 128.072 153.699 128.477 153.283 128.776C152.867 129.075 152.339 129.224 151.699 129.224C151.262 129.224 150.856 129.149 150.483 129C150.12 128.861 149.806 128.648 149.539 128.36C149.283 128.072 149.08 127.715 148.931 127.288C148.792 126.861 148.723 126.365 148.723 125.8V121.064H149.971V125.64C149.971 126.472 150.142 127.08 150.483 127.464C150.824 127.848 151.347 128.04 152.051 128.04C152.808 128.04 153.4 127.784 153.827 127.272C154.264 126.749 154.483 126.056 154.483 125.192V121.064H155.731V130.952C155.731 131.315 155.614 131.613 155.379 131.848C155.155 132.083 154.862 132.2 154.499 132.2H149.971V131.048H154.051C154.339 131.048 154.483 130.888 154.483 130.568V127.56ZM160.584 128.104C160.584 127.795 160.69 127.533 160.904 127.32C161.128 127.096 161.394 126.984 161.704 126.984C162.013 126.984 162.274 127.096 162.488 127.32C162.712 127.533 162.824 127.795 162.824 128.104C162.824 128.413 162.712 128.68 162.488 128.904C162.274 129.117 162.013 129.224 161.704 129.224C161.394 129.224 161.128 129.117 160.904 128.904C160.69 128.68 160.584 128.413 160.584 128.104Z" fill="white" fill-opacity="0.95"/>
<path d="M31.9751 41H29.3351V36.8C29.3351 36.48 29.2484 36.22 29.0751 36.02C28.9151 35.82 28.6418 35.72 28.2551 35.72H25.2151V41H22.5751V27H27.9351C28.6551 27 29.2884 27.1 29.8351 27.3C30.3818 27.5 30.8351 27.78 31.1951 28.14C31.5684 28.4867 31.8484 28.8933 32.0351 29.36C32.2351 29.8267 32.3351 30.3267 32.3351 30.86V31.34C32.3351 31.9133 32.1818 32.4533 31.8751 32.96C31.5684 33.4533 31.0951 33.8333 30.4551 34.1V34.46C30.9218 34.5133 31.2884 34.6933 31.5551 35C31.8351 35.3067 31.9751 35.6933 31.9751 36.16V41ZM25.2151 33.2H27.7351C28.3751 33.2 28.8618 33.0533 29.1951 32.76C29.5284 32.4533 29.6951 32.0267 29.6951 31.48V31.24C29.6951 30.7733 29.5284 30.3733 29.1951 30.04C28.8618 29.6933 28.3751 29.52 27.7351 29.52H25.2151V33.2ZM42.2412 31.08H44.7612V41H42.2412V39.56H41.8812C41.4412 40.7067 40.4945 41.28 39.0412 41.28C38.5479 41.28 38.0879 41.2 37.6612 41.04C37.2345 40.88 36.8612 40.6333 36.5412 40.3C36.2212 39.9667 35.9679 39.5533 35.7812 39.06C35.6079 38.5533 35.5212 37.96 35.5212 37.28V31.08H38.0412V36.76C38.0412 37.4667 38.2079 38.02 38.5412 38.42C38.8745 38.8067 39.3745 39 40.0412 39C40.8012 39 41.3545 38.76 41.7012 38.28C42.0612 37.7867 42.2412 37.12 42.2412 36.28V31.08ZM48.3073 38.6H51.7873V29.4H48.4273V27H54.3073V38.6H57.5473V41H48.3073V38.6ZM63.4334 36.86C63.4467 37.1533 63.5134 37.4267 63.6334 37.68C63.7667 37.92 63.9401 38.1333 64.1534 38.32C64.3801 38.4933 64.6334 38.6333 64.9134 38.74C65.2067 38.8333 65.5134 38.88 65.8334 38.88C66.4601 38.88 66.9401 38.7733 67.2734 38.56C67.6067 38.3333 67.8467 38.0667 67.9934 37.76L70.1534 38.96C70.0334 39.2133 69.8667 39.48 69.6534 39.76C69.4401 40.0267 69.1601 40.2733 68.8134 40.5C68.4801 40.7267 68.0667 40.9133 67.5734 41.06C67.0934 41.2067 66.5267 41.28 65.8734 41.28C65.1267 41.28 64.4467 41.16 63.8334 40.92C63.2201 40.68 62.6867 40.3333 62.2334 39.88C61.7934 39.4267 61.4467 38.8733 61.1934 38.22C60.9534 37.5667 60.8334 36.8267 60.8334 36V35.88C60.8334 35.12 60.9601 34.4267 61.2134 33.8C61.4801 33.1733 61.8401 32.64 62.2934 32.2C62.7467 31.76 63.2734 31.42 63.8734 31.18C64.4867 30.9267 65.1401 30.8 65.8334 30.8C66.6867 30.8 67.4201 30.9533 68.0334 31.26C68.6467 31.5533 69.1534 31.9333 69.5534 32.4C69.9534 32.8533 70.2467 33.36 70.4334 33.92C70.6201 34.4667 70.7134 35 70.7134 35.52V36.86H63.4334ZM65.8134 33.08C65.1734 33.08 64.6534 33.2467 64.2534 33.58C63.8534 33.9 63.5934 34.2733 63.4734 34.7H68.1534C68.0734 34.2333 67.8201 33.8467 67.3934 33.54C66.9801 33.2333 66.4534 33.08 65.8134 33.08ZM75.4995 34.36H81.7395V36.64H75.4995V34.36ZM93.5656 30.96C93.5656 30.4933 93.3922 30.0933 93.0456 29.76C92.7122 29.4133 92.1856 29.24 91.4656 29.24C90.7456 29.24 90.1722 29.4533 89.7456 29.88C89.3322 30.2933 89.1256 30.84 89.1256 31.52V33.32H89.4856C89.7122 32.8533 90.0789 32.48 90.5856 32.2C91.0922 31.9067 91.6656 31.76 92.3056 31.76C92.8789 31.76 93.4189 31.8667 93.9256 32.08C94.4322 32.28 94.8722 32.5733 95.2456 32.96C95.6189 33.3333 95.9122 33.7933 96.1256 34.34C96.3389 34.8867 96.4456 35.5067 96.4456 36.2V36.44C96.4456 37.1467 96.3256 37.8 96.0856 38.4C95.8589 38.9867 95.5256 39.4933 95.0856 39.92C94.6589 40.3467 94.1389 40.68 93.5256 40.92C92.9122 41.16 92.2256 41.28 91.4656 41.28C90.7722 41.28 90.1189 41.1667 89.5056 40.94C88.9056 40.7133 88.3789 40.4 87.9256 40C87.4856 39.5867 87.1322 39.1 86.8656 38.54C86.6122 37.9667 86.4856 37.34 86.4856 36.66V31.56C86.4856 30.8267 86.6189 30.16 86.8856 29.56C87.1522 28.96 87.5122 28.4533 87.9656 28.04C88.4189 27.6133 88.9389 27.2867 89.5256 27.06C90.1256 26.8333 90.7589 26.72 91.4256 26.72C92.0922 26.72 92.7122 26.82 93.2856 27.02C93.8722 27.2067 94.3789 27.4867 94.8056 27.86C95.2456 28.22 95.5856 28.6667 95.8256 29.2C96.0789 29.72 96.2056 30.3067 96.2056 30.96H93.5656ZM91.4656 38.76C92.1456 38.76 92.7056 38.56 93.1456 38.16C93.5856 37.7467 93.8056 37.2 93.8056 36.52C93.8056 35.84 93.5856 35.3 93.1456 34.9C92.7056 34.4867 92.1456 34.28 91.4656 34.28C90.7856 34.28 90.2256 34.4867 89.7856 34.9C89.3456 35.3 89.1256 35.84 89.1256 36.52C89.1256 37.2 89.3456 37.7467 89.7856 38.16C90.2256 38.56 90.7856 38.76 91.4656 38.76Z" fill="white"/>
<defs>
<filter id="filter0_b_544_3387" x="-30" y="-30" width="427" height="221" filterUnits="userSpaceOnUse" color-interpolation-filters="sRGB">
<feFlood flood-opacity="0" result="BackgroundImageFix"/>
<feGaussianBlur in="BackgroundImageFix" stdDeviation="15"/>
<feComposite in2="SourceAlpha" operator="in" result="effect1_backgroundBlur_544_3387"/>
<feBlend mode="normal" in="SourceGraphic" in2="effect1_backgroundBlur_544_3387" result="shape"/>
</filter>
</defs>
</svg>
