<svg width="365" height="161" viewBox="0 0 365 161" fill="none" xmlns="http://www.w3.org/2000/svg">
<g filter="url(#filter0_b_544_3386)">
<rect width="365" height="161" rx="11" fill="white" fill-opacity="0.05"/>
</g>
<path d="M27.504 71.8H34.288V73.048H28.848V76.76H34.192V78.008H28.848V81.752H34.384V83H27.504V71.8ZM38.5969 83H37.3489V75.064H38.5969V76.408H38.7889C39.2795 75.3627 40.1329 74.84 41.3489 74.84C42.2662 74.84 42.9969 75.128 43.5409 75.704C44.0849 76.2693 44.3569 77.1227 44.3569 78.264V83H43.1089V78.52C43.1089 77.688 42.9222 77.064 42.5489 76.648C42.1755 76.232 41.6689 76.024 41.0289 76.024C40.2715 76.024 39.6742 76.2853 39.2369 76.808C38.8102 77.32 38.5969 78.008 38.5969 78.872V83ZM48.9537 77.112C48.9537 77.496 49.1137 77.7893 49.4337 77.992C49.7644 78.1947 50.3617 78.328 51.2257 78.392C52.1538 78.4667 52.8578 78.6907 53.3377 79.064C53.8284 79.4267 54.0738 79.96 54.0738 80.664V80.76C54.0738 81.144 53.9938 81.4907 53.8338 81.8C53.6844 82.0987 53.4711 82.3547 53.1937 82.568C52.9271 82.7813 52.5964 82.9413 52.2017 83.048C51.8177 83.1653 51.3964 83.224 50.9377 83.224C50.3191 83.224 49.7857 83.144 49.3377 82.984C48.9004 82.8133 48.5324 82.5947 48.2337 82.328C47.9457 82.0507 47.7271 81.7413 47.5777 81.4C47.4284 81.048 47.3431 80.696 47.3217 80.344L48.5057 80.056C48.5591 80.664 48.7937 81.1547 49.2097 81.528C49.6257 81.8907 50.1804 82.072 50.8737 82.072C51.4604 82.072 51.9297 81.96 52.2818 81.736C52.6444 81.5013 52.8257 81.176 52.8257 80.76C52.8257 80.312 52.6497 79.992 52.2977 79.8C51.9458 79.608 51.3751 79.4853 50.5858 79.432C49.6684 79.368 48.9644 79.1547 48.4737 78.792C47.9831 78.4293 47.7377 77.9013 47.7377 77.208V77.112C47.7377 76.7387 47.8177 76.4133 47.9777 76.136C48.1377 75.848 48.3511 75.608 48.6177 75.416C48.8951 75.224 49.2044 75.08 49.5457 74.984C49.8871 74.888 50.2444 74.84 50.6177 74.84C51.1404 74.84 51.5991 74.9147 51.9938 75.064C52.3884 75.2027 52.7191 75.3893 52.9858 75.624C53.2524 75.848 53.4551 76.1093 53.5938 76.408C53.7431 76.7067 53.8391 77.0053 53.8818 77.304L52.6978 77.592C52.6444 77.08 52.4364 76.68 52.0738 76.392C51.7218 76.104 51.2578 75.96 50.6817 75.96C50.4577 75.96 50.2391 75.9867 50.0257 76.04C49.8231 76.0827 49.6417 76.152 49.4817 76.248C49.3217 76.344 49.1937 76.4667 49.0977 76.616C49.0017 76.7547 48.9537 76.92 48.9537 77.112ZM62.9266 75.064H64.1746V83H62.9266V81.56H62.7346C62.4786 82.072 62.1426 82.4773 61.7266 82.776C61.3106 83.0747 60.7826 83.224 60.1426 83.224C59.7053 83.224 59.3 83.1493 58.9266 83C58.564 82.8613 58.2493 82.648 57.9826 82.36C57.7266 82.072 57.524 81.7147 57.3746 81.288C57.236 80.8613 57.1666 80.3653 57.1666 79.8V75.064H58.4146V79.64C58.4146 80.472 58.5853 81.08 58.9266 81.464C59.268 81.848 59.7906 82.04 60.4946 82.04C61.252 82.04 61.844 81.784 62.2706 81.272C62.708 80.7493 62.9266 80.056 62.9266 79.192V75.064ZM66.7715 75.064H69.6515V76.12H69.8435C70.0462 75.6827 70.3342 75.3627 70.7075 75.16C71.0808 74.9467 71.5075 74.84 71.9875 74.84C72.7875 74.84 73.4328 75.1013 73.9235 75.624C74.4142 76.1467 74.6755 76.9093 74.7075 77.912L73.3955 78.104C73.3955 77.368 73.2195 76.84 72.8675 76.52C72.5155 76.1893 72.0835 76.024 71.5715 76.024C71.2408 76.024 70.9528 76.088 70.7075 76.216C70.4728 76.344 70.2755 76.52 70.1155 76.744C69.9555 76.968 69.8382 77.2293 69.7635 77.528C69.6888 77.8267 69.6515 78.1467 69.6515 78.488V81.848H71.6675V83H66.5795V81.848H68.4035V76.216H66.7715V75.064ZM78.0884 79.416C78.1204 80.2053 78.3657 80.84 78.8244 81.32C79.283 81.8 79.923 82.04 80.7444 82.04C81.1177 82.04 81.443 81.9973 81.7204 81.912C81.9977 81.8267 82.2324 81.7093 82.4244 81.56C82.627 81.4107 82.787 81.24 82.9044 81.048C83.0324 80.8453 83.1337 80.632 83.2084 80.408L84.3924 80.728C84.1684 81.464 83.7524 82.0667 83.1444 82.536C82.547 82.9947 81.7364 83.224 80.7124 83.224C80.147 83.224 79.6244 83.128 79.1444 82.936C78.675 82.7333 78.2697 82.4507 77.9284 82.088C77.587 81.7253 77.3204 81.2933 77.1284 80.792C76.9364 80.2907 76.8404 79.736 76.8404 79.128V78.744C76.8404 78.1893 76.9364 77.672 77.1284 77.192C77.331 76.712 77.6084 76.3013 77.9604 75.96C78.3124 75.608 78.723 75.336 79.1924 75.144C79.6724 74.9413 80.1897 74.84 80.7444 74.84C81.395 74.84 81.955 74.9627 82.4244 75.208C82.9044 75.4427 83.2937 75.736 83.5924 76.088C83.9017 76.44 84.1257 76.824 84.2644 77.24C84.4137 77.656 84.4884 78.04 84.4884 78.392V79.416H78.0884ZM80.7444 76.024C80.3924 76.024 80.0617 76.0827 79.7524 76.2C79.4537 76.3067 79.187 76.4613 78.9524 76.664C78.7284 76.8667 78.5417 77.1067 78.3924 77.384C78.2537 77.6507 78.163 77.944 78.1204 78.264H83.2404C83.219 77.9227 83.1337 77.6133 82.9844 77.336C82.8457 77.0587 82.659 76.824 82.4244 76.632C82.2004 76.44 81.939 76.2907 81.6404 76.184C81.3524 76.0773 81.0537 76.024 80.7444 76.024ZM111.641 81.56H111.449C111.193 82.072 110.857 82.4773 110.441 82.776C110.025 83.0747 109.497 83.224 108.857 83.224C108.42 83.224 108.015 83.1493 107.641 83C107.279 82.8613 106.964 82.648 106.697 82.36C106.441 82.072 106.239 81.7147 106.089 81.288C105.951 80.8613 105.881 80.3653 105.881 79.8V75.064H107.129V79.64C107.129 80.472 107.3 81.08 107.641 81.464C107.983 81.848 108.505 82.04 109.209 82.04C109.967 82.04 110.559 81.784 110.985 81.272C111.423 80.7493 111.641 80.056 111.641 79.192V75.064H112.889V84.952C112.889 85.3147 112.772 85.6133 112.537 85.848C112.313 86.0827 112.02 86.2 111.657 86.2H107.129V85.048H111.209C111.497 85.048 111.641 84.888 111.641 84.568V81.56ZM123.326 79.128C123.326 79.7893 123.214 80.376 122.99 80.888C122.777 81.3893 122.489 81.816 122.126 82.168C121.763 82.5093 121.337 82.7707 120.846 82.952C120.366 83.1333 119.865 83.224 119.342 83.224C118.809 83.224 118.302 83.1333 117.822 82.952C117.342 82.7707 116.921 82.5093 116.558 82.168C116.195 81.816 115.902 81.3893 115.678 80.888C115.465 80.376 115.358 79.7893 115.358 79.128V78.936C115.358 78.2853 115.465 77.7093 115.678 77.208C115.902 76.696 116.195 76.264 116.558 75.912C116.931 75.56 117.358 75.2933 117.838 75.112C118.318 74.9307 118.819 74.84 119.342 74.84C119.865 74.84 120.366 74.9307 120.846 75.112C121.326 75.2933 121.747 75.56 122.11 75.912C122.483 76.264 122.777 76.696 122.99 77.208C123.214 77.7093 123.326 78.2853 123.326 78.936V79.128ZM119.342 82.04C119.726 82.04 120.078 81.976 120.398 81.848C120.729 81.7093 121.017 81.512 121.262 81.256C121.507 81 121.699 80.696 121.838 80.344C121.977 79.9813 122.046 79.576 122.046 79.128V78.936C122.046 78.5093 121.977 78.12 121.838 77.768C121.699 77.4053 121.507 77.096 121.262 76.84C121.017 76.584 120.729 76.3867 120.398 76.248C120.067 76.0987 119.715 76.024 119.342 76.024C118.969 76.024 118.617 76.0987 118.286 76.248C117.955 76.3867 117.667 76.584 117.422 76.84C117.177 77.096 116.985 77.4053 116.846 77.768C116.707 78.12 116.638 78.5093 116.638 78.936V79.128C116.638 79.576 116.707 79.9813 116.846 80.344C116.985 80.696 117.177 81 117.422 81.256C117.667 81.512 117.95 81.7093 118.27 81.848C118.601 81.976 118.958 82.04 119.342 82.04ZM131.459 75.064H132.707V83H131.459V81.56H131.267C131.011 82.072 130.675 82.4773 130.259 82.776C129.843 83.0747 129.315 83.224 128.675 83.224C128.238 83.224 127.832 83.1493 127.459 83C127.096 82.8613 126.782 82.648 126.515 82.36C126.259 82.072 126.056 81.7147 125.907 81.288C125.768 80.8613 125.699 80.3653 125.699 79.8V75.064H126.947V79.64C126.947 80.472 127.118 81.08 127.459 81.464C127.8 81.848 128.323 82.04 129.027 82.04C129.784 82.04 130.376 81.784 130.803 81.272C131.24 80.7493 131.459 80.056 131.459 79.192V75.064ZM135.304 75.064H138.184V76.12H138.376C138.579 75.6827 138.867 75.3627 139.24 75.16C139.613 74.9467 140.04 74.84 140.52 74.84C141.32 74.84 141.965 75.1013 142.456 75.624C142.947 76.1467 143.208 76.9093 143.24 77.912L141.928 78.104C141.928 77.368 141.752 76.84 141.4 76.52C141.048 76.1893 140.616 76.024 140.104 76.024C139.773 76.024 139.485 76.088 139.24 76.216C139.005 76.344 138.808 76.52 138.648 76.744C138.488 76.968 138.371 77.2293 138.296 77.528C138.221 77.8267 138.184 78.1467 138.184 78.488V81.848H140.2V83H135.112V81.848H136.936V76.216H135.304V75.064ZM165.417 86.2H164.169V75.064H165.417V76.312H165.609C165.886 75.832 166.27 75.4693 166.761 75.224C167.251 74.968 167.785 74.84 168.361 74.84C168.851 74.84 169.315 74.9307 169.753 75.112C170.19 75.2933 170.574 75.5547 170.905 75.896C171.246 76.2373 171.513 76.6587 171.705 77.16C171.907 77.6613 172.009 78.232 172.009 78.872V79.192C172.009 79.8427 171.913 80.4187 171.721 80.92C171.529 81.4213 171.262 81.8427 170.921 82.184C170.59 82.5253 170.201 82.7867 169.753 82.968C169.305 83.1387 168.83 83.224 168.329 83.224C168.073 83.224 167.811 83.192 167.545 83.128C167.278 83.0747 167.022 82.9893 166.777 82.872C166.542 82.744 166.323 82.5947 166.121 82.424C165.918 82.2427 165.747 82.0293 165.609 81.784H165.417V86.2ZM168.073 82.04C168.457 82.04 168.809 81.976 169.129 81.848C169.449 81.7093 169.726 81.5173 169.961 81.272C170.206 81.0267 170.393 80.728 170.521 80.376C170.659 80.024 170.729 79.6293 170.729 79.192V78.872C170.729 78.4453 170.659 78.0613 170.521 77.72C170.393 77.368 170.206 77.0693 169.961 76.824C169.726 76.568 169.443 76.3707 169.113 76.232C168.793 76.0933 168.446 76.024 168.073 76.024C167.699 76.024 167.353 76.0987 167.033 76.248C166.713 76.3867 166.43 76.584 166.185 76.84C165.95 77.096 165.763 77.4053 165.625 77.768C165.486 78.12 165.417 78.5093 165.417 78.936V79.128C165.417 79.5653 165.486 79.9653 165.625 80.328C165.763 80.68 165.95 80.984 166.185 81.24C166.43 81.496 166.713 81.6933 167.033 81.832C167.353 81.9707 167.699 82.04 168.073 82.04ZM175.374 86.2H174.126V75.064H175.374V76.312H175.566C175.843 75.832 176.227 75.4693 176.718 75.224C177.208 74.968 177.742 74.84 178.318 74.84C178.808 74.84 179.272 74.9307 179.71 75.112C180.147 75.2933 180.531 75.5547 180.862 75.896C181.203 76.2373 181.47 76.6587 181.662 77.16C181.864 77.6613 181.966 78.232 181.966 78.872V79.192C181.966 79.8427 181.87 80.4187 181.678 80.92C181.486 81.4213 181.219 81.8427 180.878 82.184C180.547 82.5253 180.158 82.7867 179.71 82.968C179.262 83.1387 178.787 83.224 178.286 83.224C178.03 83.224 177.768 83.192 177.502 83.128C177.235 83.0747 176.979 82.9893 176.734 82.872C176.499 82.744 176.28 82.5947 176.078 82.424C175.875 82.2427 175.704 82.0293 175.566 81.784H175.374V86.2ZM178.03 82.04C178.414 82.04 178.766 81.976 179.086 81.848C179.406 81.7093 179.683 81.5173 179.918 81.272C180.163 81.0267 180.35 80.728 180.478 80.376C180.616 80.024 180.686 79.6293 180.686 79.192V78.872C180.686 78.4453 180.616 78.0613 180.478 77.72C180.35 77.368 180.163 77.0693 179.918 76.824C179.683 76.568 179.4 76.3707 179.07 76.232C178.75 76.0933 178.403 76.024 178.03 76.024C177.656 76.024 177.31 76.0987 176.99 76.248C176.67 76.3867 176.387 76.584 176.142 76.84C175.907 77.096 175.72 77.4053 175.582 77.768C175.443 78.12 175.374 78.5093 175.374 78.936V79.128C175.374 79.5653 175.443 79.9653 175.582 80.328C175.72 80.68 175.907 80.984 176.142 81.24C176.387 81.496 176.67 81.6933 176.99 81.832C177.31 81.9707 177.656 82.04 178.03 82.04ZM184.098 75.064H186.594V71.8H187.842V75.064H190.914V76.216H187.842V81.368C187.842 81.688 187.986 81.848 188.274 81.848H190.53V83H187.826C187.464 83 187.165 82.8827 186.93 82.648C186.706 82.4133 186.594 82.1147 186.594 81.752V76.216H184.098V75.064ZM215.539 72.696C215.539 72.3867 215.646 72.1253 215.859 71.912C216.083 71.688 216.35 71.576 216.659 71.576C216.969 71.576 217.23 71.688 217.443 71.912C217.667 72.1253 217.779 72.3867 217.779 72.696C217.779 73.0053 217.667 73.272 217.443 73.496C217.23 73.7093 216.969 73.816 216.659 73.816C216.35 73.816 216.083 73.7093 215.859 73.496C215.646 73.272 215.539 73.0053 215.539 72.696ZM213.267 81.848H216.051V76.216H213.555V75.064H217.299V81.848H219.891V83H213.267V81.848ZM224.68 77.112C224.68 77.496 224.84 77.7893 225.16 77.992C225.491 78.1947 226.088 78.328 226.952 78.392C227.88 78.4667 228.584 78.6907 229.064 79.064C229.555 79.4267 229.8 79.96 229.8 80.664V80.76C229.8 81.144 229.72 81.4907 229.56 81.8C229.411 82.0987 229.197 82.3547 228.92 82.568C228.653 82.7813 228.323 82.9413 227.928 83.048C227.544 83.1653 227.123 83.224 226.664 83.224C226.045 83.224 225.512 83.144 225.064 82.984C224.627 82.8133 224.259 82.5947 223.96 82.328C223.672 82.0507 223.453 81.7413 223.304 81.4C223.155 81.048 223.069 80.696 223.048 80.344L224.232 80.056C224.285 80.664 224.52 81.1547 224.936 81.528C225.352 81.8907 225.907 82.072 226.6 82.072C227.187 82.072 227.656 81.96 228.008 81.736C228.371 81.5013 228.552 81.176 228.552 80.76C228.552 80.312 228.376 79.992 228.024 79.8C227.672 79.608 227.101 79.4853 226.312 79.432C225.395 79.368 224.691 79.1547 224.2 78.792C223.709 78.4293 223.464 77.9013 223.464 77.208V77.112C223.464 76.7387 223.544 76.4133 223.704 76.136C223.864 75.848 224.077 75.608 224.344 75.416C224.621 75.224 224.931 75.08 225.272 74.984C225.613 74.888 225.971 74.84 226.344 74.84C226.867 74.84 227.325 74.9147 227.72 75.064C228.115 75.2027 228.445 75.3893 228.712 75.624C228.979 75.848 229.181 76.1093 229.32 76.408C229.469 76.7067 229.565 77.0053 229.608 77.304L228.424 77.592C228.371 77.08 228.163 76.68 227.8 76.392C227.448 76.104 226.984 75.96 226.408 75.96C226.184 75.96 225.965 75.9867 225.752 76.04C225.549 76.0827 225.368 76.152 225.208 76.248C225.048 76.344 224.92 76.4667 224.824 76.616C224.728 76.7547 224.68 76.92 224.68 77.112ZM252.697 86.2H251.449V75.064H252.697V76.312H252.889C253.166 75.832 253.55 75.4693 254.041 75.224C254.532 74.968 255.065 74.84 255.641 74.84C256.132 74.84 256.596 74.9307 257.033 75.112C257.47 75.2933 257.854 75.5547 258.185 75.896C258.526 76.2373 258.793 76.6587 258.985 77.16C259.188 77.6613 259.289 78.232 259.289 78.872V79.192C259.289 79.8427 259.193 80.4187 259.001 80.92C258.809 81.4213 258.542 81.8427 258.201 82.184C257.87 82.5253 257.481 82.7867 257.033 82.968C256.585 83.1387 256.11 83.224 255.609 83.224C255.353 83.224 255.092 83.192 254.825 83.128C254.558 83.0747 254.302 82.9893 254.057 82.872C253.822 82.744 253.604 82.5947 253.401 82.424C253.198 82.2427 253.028 82.0293 252.889 81.784H252.697V86.2ZM255.353 82.04C255.737 82.04 256.089 81.976 256.409 81.848C256.729 81.7093 257.006 81.5173 257.241 81.272C257.486 81.0267 257.673 80.728 257.801 80.376C257.94 80.024 258.009 79.6293 258.009 79.192V78.872C258.009 78.4453 257.94 78.0613 257.801 77.72C257.673 77.368 257.486 77.0693 257.241 76.824C257.006 76.568 256.724 76.3707 256.393 76.232C256.073 76.0933 255.726 76.024 255.353 76.024C254.98 76.024 254.633 76.0987 254.313 76.248C253.993 76.3867 253.71 76.584 253.465 76.84C253.23 77.096 253.044 77.4053 252.905 77.768C252.766 78.12 252.697 78.5093 252.697 78.936V79.128C252.697 79.5653 252.766 79.9653 252.905 80.328C253.044 80.68 253.23 80.984 253.465 81.24C253.71 81.496 253.993 81.6933 254.313 81.832C254.633 81.9707 254.98 82.04 255.353 82.04ZM269.182 79.128C269.182 79.7893 269.07 80.376 268.846 80.888C268.633 81.3893 268.345 81.816 267.982 82.168C267.619 82.5093 267.193 82.7707 266.702 82.952C266.222 83.1333 265.721 83.224 265.198 83.224C264.665 83.224 264.158 83.1333 263.678 82.952C263.198 82.7707 262.777 82.5093 262.414 82.168C262.051 81.816 261.758 81.3893 261.534 80.888C261.321 80.376 261.214 79.7893 261.214 79.128V78.936C261.214 78.2853 261.321 77.7093 261.534 77.208C261.758 76.696 262.051 76.264 262.414 75.912C262.787 75.56 263.214 75.2933 263.694 75.112C264.174 74.9307 264.675 74.84 265.198 74.84C265.721 74.84 266.222 74.9307 266.702 75.112C267.182 75.2933 267.603 75.56 267.966 75.912C268.339 76.264 268.633 76.696 268.846 77.208C269.07 77.7093 269.182 78.2853 269.182 78.936V79.128ZM265.198 82.04C265.582 82.04 265.934 81.976 266.254 81.848C266.585 81.7093 266.873 81.512 267.118 81.256C267.363 81 267.555 80.696 267.694 80.344C267.833 79.9813 267.902 79.576 267.902 79.128V78.936C267.902 78.5093 267.833 78.12 267.694 77.768C267.555 77.4053 267.363 77.096 267.118 76.84C266.873 76.584 266.585 76.3867 266.254 76.248C265.923 76.0987 265.571 76.024 265.198 76.024C264.825 76.024 264.473 76.0987 264.142 76.248C263.811 76.3867 263.523 76.584 263.278 76.84C263.033 77.096 262.841 77.4053 262.702 77.768C262.563 78.12 262.494 78.5093 262.494 78.936V79.128C262.494 79.576 262.563 79.9813 262.702 80.344C262.841 80.696 263.033 81 263.278 81.256C263.523 81.512 263.806 81.7093 264.126 81.848C264.457 81.976 264.814 82.04 265.198 82.04ZM271.651 81.848H274.531V72.952H271.747V71.8H275.779V81.848H278.659V83H271.651V81.848ZM284.072 72.696C284.072 72.3867 284.178 72.1253 284.392 71.912C284.616 71.688 284.882 71.576 285.192 71.576C285.501 71.576 285.762 71.688 285.976 71.912C286.2 72.1253 286.312 72.3867 286.312 72.696C286.312 73.0053 286.2 73.272 285.976 73.496C285.762 73.7093 285.501 73.816 285.192 73.816C284.882 73.816 284.616 73.7093 284.392 73.496C284.178 73.272 284.072 73.0053 284.072 72.696ZM281.8 81.848H284.584V76.216H282.088V75.064H285.832V81.848H288.424V83H281.8V81.848ZM293.212 77.112C293.212 77.496 293.372 77.7893 293.692 77.992C294.023 78.1947 294.62 78.328 295.484 78.392C296.412 78.4667 297.116 78.6907 297.596 79.064C298.087 79.4267 298.332 79.96 298.332 80.664V80.76C298.332 81.144 298.252 81.4907 298.092 81.8C297.943 82.0987 297.73 82.3547 297.452 82.568C297.186 82.7813 296.855 82.9413 296.46 83.048C296.076 83.1653 295.655 83.224 295.196 83.224C294.578 83.224 294.044 83.144 293.596 82.984C293.159 82.8133 292.791 82.5947 292.492 82.328C292.204 82.0507 291.986 81.7413 291.836 81.4C291.687 81.048 291.602 80.696 291.58 80.344L292.764 80.056C292.818 80.664 293.052 81.1547 293.468 81.528C293.884 81.8907 294.439 82.072 295.132 82.072C295.719 82.072 296.188 81.96 296.54 81.736C296.903 81.5013 297.084 81.176 297.084 80.76C297.084 80.312 296.908 79.992 296.556 79.8C296.204 79.608 295.634 79.4853 294.844 79.432C293.927 79.368 293.223 79.1547 292.732 78.792C292.242 78.4293 291.996 77.9013 291.996 77.208V77.112C291.996 76.7387 292.076 76.4133 292.236 76.136C292.396 75.848 292.61 75.608 292.876 75.416C293.154 75.224 293.463 75.08 293.804 74.984C294.146 74.888 294.503 74.84 294.876 74.84C295.399 74.84 295.858 74.9147 296.252 75.064C296.647 75.2027 296.978 75.3893 297.244 75.624C297.511 75.848 297.714 76.1093 297.852 76.408C298.002 76.7067 298.098 77.0053 298.14 77.304L296.956 77.592C296.903 77.08 296.695 76.68 296.332 76.392C295.98 76.104 295.516 75.96 294.94 75.96C294.716 75.96 294.498 75.9867 294.284 76.04C294.082 76.0827 293.9 76.152 293.74 76.248C293.58 76.344 293.452 76.4667 293.356 76.616C293.26 76.7547 293.212 76.92 293.212 77.112ZM302.769 83H301.521V71.8H302.769V76.504H302.961C303.207 75.992 303.548 75.5867 303.985 75.288C304.433 74.9893 304.977 74.84 305.617 74.84C306.481 74.84 307.18 75.128 307.713 75.704C308.257 76.2693 308.529 77.1227 308.529 78.264V83H307.281V78.52C307.281 77.688 307.095 77.064 306.721 76.648C306.348 76.232 305.841 76.024 305.201 76.024C304.444 76.024 303.847 76.2853 303.409 76.808C302.983 77.32 302.769 78.008 302.769 78.872V83ZM312.39 79.416C312.422 80.2053 312.668 80.84 313.126 81.32C313.585 81.8 314.225 82.04 315.046 82.04C315.42 82.04 315.745 81.9973 316.022 81.912C316.3 81.8267 316.534 81.7093 316.726 81.56C316.929 81.4107 317.089 81.24 317.206 81.048C317.334 80.8453 317.436 80.632 317.51 80.408L318.694 80.728C318.47 81.464 318.054 82.0667 317.446 82.536C316.849 82.9947 316.038 83.224 315.014 83.224C314.449 83.224 313.926 83.128 313.446 82.936C312.977 82.7333 312.572 82.4507 312.23 82.088C311.889 81.7253 311.622 81.2933 311.43 80.792C311.238 80.2907 311.142 79.736 311.142 79.128V78.744C311.142 78.1893 311.238 77.672 311.43 77.192C311.633 76.712 311.91 76.3013 312.262 75.96C312.614 75.608 313.025 75.336 313.494 75.144C313.974 74.9413 314.492 74.84 315.046 74.84C315.697 74.84 316.257 74.9627 316.726 75.208C317.206 75.4427 317.596 75.736 317.894 76.088C318.204 76.44 318.428 76.824 318.566 77.24C318.716 77.656 318.79 78.04 318.79 78.392V79.416H312.39ZM315.046 76.024C314.694 76.024 314.364 76.0827 314.054 76.2C313.756 76.3067 313.489 76.4613 313.254 76.664C313.03 76.8667 312.844 77.1067 312.694 77.384C312.556 77.6507 312.465 77.944 312.422 78.264H317.542C317.521 77.9227 317.436 77.6133 317.286 77.336C317.148 77.0587 316.961 76.824 316.726 76.632C316.502 76.44 316.241 76.2907 315.942 76.184C315.654 76.0773 315.356 76.024 315.046 76.024ZM327.579 81.784H327.387C327.259 82.0293 327.094 82.2427 326.891 82.424C326.699 82.6053 326.486 82.7547 326.251 82.872C326.027 82.9893 325.787 83.0747 325.531 83.128C325.275 83.192 325.03 83.224 324.795 83.224C324.262 83.224 323.766 83.1333 323.307 82.952C322.848 82.7707 322.443 82.5093 322.091 82.168C321.75 81.8267 321.478 81.4053 321.275 80.904C321.083 80.392 320.987 79.8107 320.987 79.16V78.904C320.987 78.264 321.088 77.6933 321.291 77.192C321.494 76.68 321.766 76.2533 322.107 75.912C322.448 75.56 322.848 75.2933 323.307 75.112C323.766 74.9307 324.251 74.84 324.763 74.84C325.307 74.84 325.814 74.9627 326.283 75.208C326.763 75.4427 327.131 75.8107 327.387 76.312H327.579V71.8H328.827V83H327.579V81.784ZM324.923 82.04C325.296 82.04 325.643 81.9707 325.963 81.832C326.283 81.6933 326.56 81.496 326.795 81.24C327.04 80.984 327.232 80.68 327.371 80.328C327.51 79.9653 327.579 79.5653 327.579 79.128V78.936C327.579 78.5093 327.51 78.12 327.371 77.768C327.232 77.4053 327.04 77.096 326.795 76.84C326.56 76.584 326.278 76.3867 325.947 76.248C325.627 76.0987 325.286 76.024 324.923 76.024C324.55 76.024 324.198 76.0933 323.867 76.232C323.547 76.3707 323.264 76.568 323.019 76.824C322.784 77.08 322.598 77.384 322.459 77.736C322.331 78.088 322.267 78.4773 322.267 78.904V79.16C322.267 79.608 322.331 80.008 322.459 80.36C322.598 80.712 322.784 81.016 323.019 81.272C323.264 81.5173 323.547 81.7093 323.867 81.848C324.187 81.976 324.539 82.04 324.923 82.04ZM33.152 104.656H32.96C32.704 105.189 32.3467 105.584 31.888 105.84C31.44 106.096 30.9653 106.224 30.464 106.224C29.9413 106.224 29.456 106.139 29.008 105.968C28.56 105.787 28.1653 105.525 27.824 105.184C27.4933 104.832 27.232 104.405 27.04 103.904C26.848 103.403 26.752 102.821 26.752 102.16V101.904C26.752 101.253 26.848 100.677 27.04 100.176C27.232 99.6747 27.4933 99.2533 27.824 98.912C28.1653 98.56 28.56 98.2933 29.008 98.112C29.456 97.9307 29.9307 97.84 30.432 97.84C30.976 97.84 31.4667 97.9627 31.904 98.208C32.352 98.4427 32.704 98.8107 32.96 99.312H33.152V98.064H34.4V104.368C34.4 104.688 34.544 104.848 34.832 104.848H35.232V106H34.384C34.0213 106 33.7227 105.883 33.488 105.648C33.264 105.413 33.152 105.115 33.152 104.752V104.656ZM30.592 105.04C30.9653 105.04 31.3067 104.971 31.616 104.832C31.936 104.693 32.208 104.496 32.432 104.24C32.656 103.984 32.832 103.68 32.96 103.328C33.088 102.965 33.152 102.565 33.152 102.128V101.936C33.152 101.509 33.088 101.12 32.96 100.768C32.832 100.405 32.6507 100.096 32.416 99.84C32.192 99.584 31.92 99.3867 31.6 99.248C31.2907 99.0987 30.9547 99.024 30.592 99.024C30.2187 99.024 29.8773 99.0933 29.568 99.232C29.2587 99.3707 28.9867 99.568 28.752 99.824C28.528 100.069 28.352 100.373 28.224 100.736C28.096 101.088 28.032 101.477 28.032 101.904V102.16C28.032 103.067 28.2667 103.776 28.736 104.288C29.216 104.789 29.8347 105.04 30.592 105.04ZM38.5969 106H37.3489V98.064H38.5969V99.408H38.7889C39.2795 98.3627 40.1329 97.84 41.3489 97.84C42.2662 97.84 42.9969 98.128 43.5409 98.704C44.0849 99.2693 44.3569 100.123 44.3569 101.264V106H43.1089V101.52C43.1089 100.688 42.9222 100.064 42.5489 99.648C42.1755 99.232 41.6689 99.024 41.0289 99.024C40.2715 99.024 39.6742 99.2853 39.2369 99.808C38.8102 100.32 38.5969 101.008 38.5969 101.872V106ZM53.4497 104.784H53.2578C53.1298 105.029 52.9644 105.243 52.7618 105.424C52.5698 105.605 52.3564 105.755 52.1217 105.872C51.8977 105.989 51.6577 106.075 51.4018 106.128C51.1457 106.192 50.9004 106.224 50.6658 106.224C50.1324 106.224 49.6364 106.133 49.1777 105.952C48.7191 105.771 48.3137 105.509 47.9617 105.168C47.6204 104.827 47.3484 104.405 47.1457 103.904C46.9537 103.392 46.8577 102.811 46.8577 102.16V101.904C46.8577 101.264 46.9591 100.693 47.1617 100.192C47.3644 99.68 47.6364 99.2533 47.9777 98.912C48.3191 98.56 48.7191 98.2933 49.1777 98.112C49.6364 97.9307 50.1217 97.84 50.6337 97.84C51.1777 97.84 51.6844 97.9627 52.1537 98.208C52.6338 98.4427 53.0018 98.8107 53.2578 99.312H53.4497V94.8H54.6978V106H53.4497V104.784ZM50.7937 105.04C51.1671 105.04 51.5137 104.971 51.8337 104.832C52.1537 104.693 52.4311 104.496 52.6658 104.24C52.9111 103.984 53.1031 103.68 53.2418 103.328C53.3804 102.965 53.4497 102.565 53.4497 102.128V101.936C53.4497 101.509 53.3804 101.12 53.2418 100.768C53.1031 100.405 52.9111 100.096 52.6658 99.84C52.4311 99.584 52.1484 99.3867 51.8177 99.248C51.4977 99.0987 51.1564 99.024 50.7937 99.024C50.4204 99.024 50.0684 99.0933 49.7377 99.232C49.4177 99.3707 49.1351 99.568 48.8897 99.824C48.6551 100.08 48.4684 100.384 48.3297 100.736C48.2017 101.088 48.1377 101.477 48.1377 101.904V102.16C48.1377 102.608 48.2017 103.008 48.3297 103.36C48.4684 103.712 48.6551 104.016 48.8897 104.272C49.1351 104.517 49.4177 104.709 49.7377 104.848C50.0577 104.976 50.4097 105.04 50.7937 105.04ZM81.7706 104.656H81.5786C81.3226 105.189 80.9653 105.584 80.5066 105.84C80.0586 106.096 79.5839 106.224 79.0826 106.224C78.5599 106.224 78.0746 106.139 77.6266 105.968C77.1786 105.787 76.7839 105.525 76.4426 105.184C76.1119 104.832 75.8506 104.405 75.6586 103.904C75.4666 103.403 75.3706 102.821 75.3706 102.16V101.904C75.3706 101.253 75.4666 100.677 75.6586 100.176C75.8506 99.6747 76.1119 99.2533 76.4426 98.912C76.7839 98.56 77.1786 98.2933 77.6266 98.112C78.0746 97.9307 78.5493 97.84 79.0506 97.84C79.5946 97.84 80.0853 97.9627 80.5226 98.208C80.9706 98.4427 81.3226 98.8107 81.5786 99.312H81.7706V98.064H83.0186V104.368C83.0186 104.688 83.1626 104.848 83.4506 104.848H83.8506V106H83.0026C82.6399 106 82.3413 105.883 82.1066 105.648C81.8826 105.413 81.7706 105.115 81.7706 104.752V104.656ZM79.2106 105.04C79.5839 105.04 79.9253 104.971 80.2346 104.832C80.5546 104.693 80.8266 104.496 81.0506 104.24C81.2746 103.984 81.4506 103.68 81.5786 103.328C81.7066 102.965 81.7706 102.565 81.7706 102.128V101.936C81.7706 101.509 81.7066 101.12 81.5786 100.768C81.4506 100.405 81.2693 100.096 81.0346 99.84C80.8106 99.584 80.5386 99.3867 80.2186 99.248C79.9093 99.0987 79.5733 99.024 79.2106 99.024C78.8373 99.024 78.4959 99.0933 78.1866 99.232C77.8773 99.3707 77.6053 99.568 77.3706 99.824C77.1466 100.069 76.9706 100.373 76.8426 100.736C76.7146 101.088 76.6506 101.477 76.6506 101.904V102.16C76.6506 103.067 76.8853 103.776 77.3546 104.288C77.8346 104.789 78.4533 105.04 79.2106 105.04ZM85.9675 104.848H88.8475V95.952H86.0635V94.8H90.0955V104.848H92.9755V106H85.9675V104.848ZM98.3883 95.696C98.3883 95.3867 98.495 95.1253 98.7083 94.912C98.9323 94.688 99.199 94.576 99.5083 94.576C99.8177 94.576 100.079 94.688 100.292 94.912C100.516 95.1253 100.628 95.3867 100.628 95.696C100.628 96.0053 100.516 96.272 100.292 96.496C100.079 96.7093 99.8177 96.816 99.5083 96.816C99.199 96.816 98.9323 96.7093 98.7083 96.496C98.495 96.272 98.3883 96.0053 98.3883 95.696ZM96.1163 104.848H98.9003V99.216H96.4043V98.064H100.148V104.848H102.74V106H96.1163V104.848ZM111.913 104.784H111.721C111.465 105.264 111.113 105.627 110.665 105.872C110.228 106.107 109.748 106.224 109.225 106.224C108.692 106.224 108.191 106.133 107.721 105.952C107.252 105.771 106.836 105.509 106.473 105.168C106.121 104.827 105.839 104.405 105.625 103.904C105.423 103.392 105.321 102.811 105.321 102.16V101.904C105.321 101.264 105.428 100.693 105.641 100.192C105.855 99.68 106.137 99.2533 106.489 98.912C106.841 98.56 107.252 98.2933 107.721 98.112C108.191 97.9307 108.681 97.84 109.193 97.84C109.769 97.84 110.271 97.968 110.697 98.224C111.135 98.4693 111.476 98.832 111.721 99.312H111.913V98.064H113.161V107.952C113.161 108.315 113.044 108.613 112.809 108.848C112.585 109.083 112.292 109.2 111.929 109.2H106.761V108.048H111.481C111.769 108.048 111.913 107.888 111.913 107.568V104.784ZM109.257 105.04C109.631 105.04 109.977 104.971 110.297 104.832C110.617 104.693 110.895 104.496 111.129 104.24C111.375 103.984 111.567 103.68 111.705 103.328C111.844 102.965 111.913 102.565 111.913 102.128V101.936C111.913 101.509 111.844 101.12 111.705 100.768C111.567 100.405 111.375 100.096 111.129 99.84C110.895 99.584 110.612 99.3867 110.281 99.248C109.961 99.0987 109.62 99.024 109.257 99.024C108.884 99.024 108.532 99.0933 108.201 99.232C107.881 99.3707 107.599 99.568 107.353 99.824C107.119 100.08 106.932 100.384 106.793 100.736C106.665 101.088 106.601 101.477 106.601 101.904V102.16C106.601 102.608 106.665 103.008 106.793 103.36C106.932 103.712 107.119 104.016 107.353 104.272C107.599 104.517 107.881 104.709 108.201 104.848C108.521 104.976 108.873 105.04 109.257 105.04ZM117.086 106H115.838V98.064H117.086V99.408H117.278C117.769 98.3627 118.622 97.84 119.838 97.84C120.755 97.84 121.486 98.128 122.03 98.704C122.574 99.2693 122.846 100.123 122.846 101.264V106H121.598V101.52C121.598 100.688 121.411 100.064 121.038 99.648C120.665 99.232 120.158 99.024 119.518 99.024C118.761 99.024 118.163 99.2853 117.726 99.808C117.299 100.32 117.086 101.008 117.086 101.872V106ZM126.707 102.416C126.739 103.205 126.984 103.84 127.443 104.32C127.902 104.8 128.542 105.04 129.363 105.04C129.736 105.04 130.062 104.997 130.339 104.912C130.616 104.827 130.851 104.709 131.043 104.56C131.246 104.411 131.406 104.24 131.523 104.048C131.651 103.845 131.752 103.632 131.827 103.408L133.011 103.728C132.787 104.464 132.371 105.067 131.763 105.536C131.166 105.995 130.355 106.224 129.331 106.224C128.766 106.224 128.243 106.128 127.763 105.936C127.294 105.733 126.888 105.451 126.547 105.088C126.206 104.725 125.939 104.293 125.747 103.792C125.555 103.291 125.459 102.736 125.459 102.128V101.744C125.459 101.189 125.555 100.672 125.747 100.192C125.95 99.712 126.227 99.3013 126.579 98.96C126.931 98.608 127.342 98.336 127.811 98.144C128.291 97.9413 128.808 97.84 129.363 97.84C130.014 97.84 130.574 97.9627 131.043 98.208C131.523 98.4427 131.912 98.736 132.211 99.088C132.52 99.44 132.744 99.824 132.883 100.24C133.032 100.656 133.107 101.04 133.107 101.392V102.416H126.707ZM129.363 99.024C129.011 99.024 128.68 99.0827 128.371 99.2C128.072 99.3067 127.806 99.4613 127.571 99.664C127.347 99.8667 127.16 100.107 127.011 100.384C126.872 100.651 126.782 100.944 126.739 101.264H131.859C131.838 100.923 131.752 100.613 131.603 100.336C131.464 100.059 131.278 99.824 131.043 99.632C130.819 99.44 130.558 99.2907 130.259 99.184C129.971 99.0773 129.672 99.024 129.363 99.024ZM141.896 104.784H141.704C141.576 105.029 141.411 105.243 141.208 105.424C141.016 105.605 140.803 105.755 140.568 105.872C140.344 105.989 140.104 106.075 139.848 106.128C139.592 106.192 139.347 106.224 139.112 106.224C138.579 106.224 138.083 106.133 137.624 105.952C137.165 105.771 136.76 105.509 136.408 105.168C136.067 104.827 135.795 104.405 135.592 103.904C135.4 103.392 135.304 102.811 135.304 102.16V101.904C135.304 101.264 135.405 100.693 135.608 100.192C135.811 99.68 136.083 99.2533 136.424 98.912C136.765 98.56 137.165 98.2933 137.624 98.112C138.083 97.9307 138.568 97.84 139.08 97.84C139.624 97.84 140.131 97.9627 140.6 98.208C141.08 98.4427 141.448 98.8107 141.704 99.312H141.896V94.8H143.144V106H141.896V104.784ZM139.24 105.04C139.613 105.04 139.96 104.971 140.28 104.832C140.6 104.693 140.877 104.496 141.112 104.24C141.357 103.984 141.549 103.68 141.688 103.328C141.827 102.965 141.896 102.565 141.896 102.128V101.936C141.896 101.509 141.827 101.12 141.688 100.768C141.549 100.405 141.357 100.096 141.112 99.84C140.877 99.584 140.595 99.3867 140.264 99.248C139.944 99.0987 139.603 99.024 139.24 99.024C138.867 99.024 138.515 99.0933 138.184 99.232C137.864 99.3707 137.581 99.568 137.336 99.824C137.101 100.08 136.915 100.384 136.776 100.736C136.648 101.088 136.584 101.477 136.584 101.904V102.16C136.584 102.608 136.648 103.008 136.776 103.36C136.915 103.712 137.101 104.016 137.336 104.272C137.581 104.517 137.864 104.709 138.184 104.848C138.504 104.976 138.856 105.04 139.24 105.04ZM171.321 106H169.017L168.057 98.64H167.865L166.905 106H164.601L163.353 98.064H164.633L165.689 105.424H165.881L166.809 98.064H169.113L170.041 105.424H170.233L171.289 98.064H172.569L171.321 106ZM176.878 95.696C176.878 95.3867 176.984 95.1253 177.198 94.912C177.422 94.688 177.688 94.576 177.998 94.576C178.307 94.576 178.568 94.688 178.782 94.912C179.006 95.1253 179.118 95.3867 179.118 95.696C179.118 96.0053 179.006 96.272 178.782 96.496C178.568 96.7093 178.307 96.816 177.998 96.816C177.688 96.816 177.422 96.7093 177.198 96.496C176.984 96.272 176.878 96.0053 176.878 95.696ZM174.606 104.848H177.39V99.216H174.894V98.064H178.638V104.848H181.23V106H174.606V104.848ZM184.098 98.064H186.594V94.8H187.842V98.064H190.914V99.216H187.842V104.368C187.842 104.688 187.986 104.848 188.274 104.848H190.53V106H187.826C187.464 106 187.165 105.883 186.93 105.648C186.706 105.413 186.594 105.115 186.594 104.752V99.216H184.098V98.064ZM195.575 106H194.327V94.8H195.575V99.504H195.767C196.013 98.992 196.354 98.5867 196.791 98.288C197.239 97.9893 197.783 97.84 198.423 97.84C199.287 97.84 199.986 98.128 200.519 98.704C201.063 99.2693 201.335 100.123 201.335 101.264V106H200.087V101.52C200.087 100.688 199.901 100.064 199.527 99.648C199.154 99.232 198.647 99.024 198.007 99.024C197.25 99.024 196.653 99.2853 196.215 99.808C195.789 100.32 195.575 101.008 195.575 101.872V106ZM222.76 98.064H225.256V94.8H226.504V98.064H229.576V99.216H226.504V104.368C226.504 104.688 226.648 104.848 226.936 104.848H229.192V106H226.488C226.125 106 225.827 105.883 225.592 105.648C225.368 105.413 225.256 105.115 225.256 104.752V99.216H222.76V98.064ZM234.237 106H232.989V94.8H234.237V99.504H234.429C234.674 98.992 235.016 98.5867 235.453 98.288C235.901 97.9893 236.445 97.84 237.085 97.84C237.949 97.84 238.648 98.128 239.181 98.704C239.725 99.2693 239.997 100.123 239.997 101.264V106H238.749V101.52C238.749 100.688 238.562 100.064 238.189 99.648C237.816 99.232 237.309 99.024 236.669 99.024C235.912 99.024 235.314 99.2853 234.877 99.808C234.45 100.32 234.237 101.008 234.237 101.872V106ZM243.858 102.416C243.89 103.205 244.135 103.84 244.594 104.32C245.053 104.8 245.693 105.04 246.514 105.04C246.887 105.04 247.213 104.997 247.49 104.912C247.767 104.827 248.002 104.709 248.194 104.56C248.397 104.411 248.557 104.24 248.674 104.048C248.802 103.845 248.903 103.632 248.978 103.408L250.162 103.728C249.938 104.464 249.522 105.067 248.914 105.536C248.317 105.995 247.506 106.224 246.482 106.224C245.917 106.224 245.394 106.128 244.914 105.936C244.445 105.733 244.039 105.451 243.698 105.088C243.357 104.725 243.09 104.293 242.898 103.792C242.706 103.291 242.61 102.736 242.61 102.128V101.744C242.61 101.189 242.706 100.672 242.898 100.192C243.101 99.712 243.378 99.3013 243.73 98.96C244.082 98.608 244.493 98.336 244.962 98.144C245.442 97.9413 245.959 97.84 246.514 97.84C247.165 97.84 247.725 97.9627 248.194 98.208C248.674 98.4427 249.063 98.736 249.362 99.088C249.671 99.44 249.895 99.824 250.034 100.24C250.183 100.656 250.258 101.04 250.258 101.392V102.416H243.858ZM246.514 99.024C246.162 99.024 245.831 99.0827 245.522 99.2C245.223 99.3067 244.957 99.4613 244.722 99.664C244.498 99.8667 244.311 100.107 244.162 100.384C244.023 100.651 243.933 100.944 243.89 101.264H249.01C248.989 100.923 248.903 100.613 248.754 100.336C248.615 100.059 248.429 99.824 248.194 99.632C247.97 99.44 247.709 99.2907 247.41 99.184C247.122 99.0773 246.823 99.024 246.514 99.024ZM273.299 100.112C273.299 100.496 273.459 100.789 273.779 100.992C274.109 101.195 274.707 101.328 275.571 101.392C276.499 101.467 277.203 101.691 277.683 102.064C278.173 102.427 278.419 102.96 278.419 103.664V103.76C278.419 104.144 278.339 104.491 278.179 104.8C278.029 105.099 277.816 105.355 277.539 105.568C277.272 105.781 276.941 105.941 276.547 106.048C276.163 106.165 275.741 106.224 275.283 106.224C274.664 106.224 274.131 106.144 273.683 105.984C273.245 105.813 272.877 105.595 272.579 105.328C272.291 105.051 272.072 104.741 271.923 104.4C271.773 104.048 271.688 103.696 271.667 103.344L272.851 103.056C272.904 103.664 273.139 104.155 273.555 104.528C273.971 104.891 274.525 105.072 275.219 105.072C275.805 105.072 276.275 104.96 276.627 104.736C276.989 104.501 277.171 104.176 277.171 103.76C277.171 103.312 276.995 102.992 276.643 102.8C276.291 102.608 275.72 102.485 274.931 102.432C274.013 102.368 273.309 102.155 272.819 101.792C272.328 101.429 272.083 100.901 272.083 100.208V100.112C272.083 99.7387 272.163 99.4133 272.323 99.136C272.483 98.848 272.696 98.608 272.963 98.416C273.24 98.224 273.549 98.08 273.891 97.984C274.232 97.888 274.589 97.84 274.963 97.84C275.485 97.84 275.944 97.9147 276.339 98.064C276.733 98.2027 277.064 98.3893 277.331 98.624C277.597 98.848 277.8 99.1093 277.939 99.408C278.088 99.7067 278.184 100.005 278.227 100.304L277.043 100.592C276.989 100.08 276.781 99.68 276.419 99.392C276.067 99.104 275.603 98.96 275.027 98.96C274.803 98.96 274.584 98.9867 274.371 99.04C274.168 99.0827 273.987 99.152 273.827 99.248C273.667 99.344 273.539 99.4667 273.443 99.616C273.347 99.7547 273.299 99.92 273.299 100.112ZM287.368 104.656H287.176C286.92 105.189 286.562 105.584 286.104 105.84C285.656 106.096 285.181 106.224 284.68 106.224C284.157 106.224 283.672 106.139 283.224 105.968C282.776 105.787 282.381 105.525 282.04 105.184C281.709 104.832 281.448 104.405 281.256 103.904C281.064 103.403 280.968 102.821 280.968 102.16V101.904C280.968 101.253 281.064 100.677 281.256 100.176C281.448 99.6747 281.709 99.2533 282.04 98.912C282.381 98.56 282.776 98.2933 283.224 98.112C283.672 97.9307 284.146 97.84 284.648 97.84C285.192 97.84 285.682 97.9627 286.12 98.208C286.568 98.4427 286.92 98.8107 287.176 99.312H287.368V98.064H288.616V104.368C288.616 104.688 288.76 104.848 289.048 104.848H289.448V106H288.6C288.237 106 287.938 105.883 287.704 105.648C287.48 105.413 287.368 105.115 287.368 104.752V104.656ZM284.808 105.04C285.181 105.04 285.522 104.971 285.832 104.832C286.152 104.693 286.424 104.496 286.648 104.24C286.872 103.984 287.048 103.68 287.176 103.328C287.304 102.965 287.368 102.565 287.368 102.128V101.936C287.368 101.509 287.304 101.12 287.176 100.768C287.048 100.405 286.866 100.096 286.632 99.84C286.408 99.584 286.136 99.3867 285.816 99.248C285.506 99.0987 285.17 99.024 284.808 99.024C284.434 99.024 284.093 99.0933 283.784 99.232C283.474 99.3707 283.202 99.568 282.968 99.824C282.744 100.069 282.568 100.373 282.44 100.736C282.312 101.088 282.248 101.477 282.248 101.904V102.16C282.248 103.067 282.482 103.776 282.952 104.288C283.432 104.789 284.05 105.04 284.808 105.04ZM299.196 106H297.948V100.304C297.948 99.9307 297.863 99.6267 297.692 99.392C297.522 99.1467 297.25 99.024 296.876 99.024C296.524 99.024 296.236 99.1573 296.012 99.424C295.799 99.68 295.692 100.08 295.692 100.624V106H294.444V100.24C294.444 99.888 294.348 99.6 294.156 99.376C293.964 99.1413 293.708 99.024 293.388 99.024C293.004 99.024 292.706 99.1627 292.492 99.44C292.29 99.7173 292.188 100.08 292.188 100.528V106H290.94V98.064H292.188V98.928H292.38C292.519 98.5547 292.722 98.2827 292.988 98.112C293.255 97.9307 293.57 97.84 293.932 97.84C294.316 97.84 294.631 97.9413 294.876 98.144C295.132 98.3467 295.308 98.608 295.404 98.928H295.596C295.959 98.2027 296.535 97.84 297.324 97.84C297.922 97.84 298.38 98.032 298.7 98.416C299.031 98.7893 299.196 99.28 299.196 99.888V106ZM302.481 109.2H301.233V98.064H302.481V99.312H302.673C302.951 98.832 303.335 98.4693 303.825 98.224C304.316 97.968 304.849 97.84 305.425 97.84C305.916 97.84 306.38 97.9307 306.817 98.112C307.255 98.2933 307.639 98.5547 307.969 98.896C308.311 99.2373 308.577 99.6587 308.769 100.16C308.972 100.661 309.073 101.232 309.073 101.872V102.192C309.073 102.843 308.977 103.419 308.785 103.92C308.593 104.421 308.327 104.843 307.985 105.184C307.655 105.525 307.265 105.787 306.817 105.968C306.369 106.139 305.895 106.224 305.393 106.224C305.137 106.224 304.876 106.192 304.609 106.128C304.343 106.075 304.087 105.989 303.841 105.872C303.607 105.744 303.388 105.595 303.185 105.424C302.983 105.243 302.812 105.029 302.673 104.784H302.481V109.2ZM305.137 105.04C305.521 105.04 305.873 104.976 306.193 104.848C306.513 104.709 306.791 104.517 307.025 104.272C307.271 104.027 307.457 103.728 307.585 103.376C307.724 103.024 307.793 102.629 307.793 102.192V101.872C307.793 101.445 307.724 101.061 307.585 100.72C307.457 100.368 307.271 100.069 307.025 99.824C306.791 99.568 306.508 99.3707 306.177 99.232C305.857 99.0933 305.511 99.024 305.137 99.024C304.764 99.024 304.417 99.0987 304.097 99.248C303.777 99.3867 303.495 99.584 303.249 99.84C303.015 100.096 302.828 100.405 302.689 100.768C302.551 101.12 302.481 101.509 302.481 101.936V102.128C302.481 102.565 302.551 102.965 302.689 103.328C302.828 103.68 303.015 103.984 303.249 104.24C303.495 104.496 303.777 104.693 304.097 104.832C304.417 104.971 304.764 105.04 305.137 105.04ZM311.478 104.848H314.358V95.952H311.574V94.8H315.606V104.848H318.486V106H311.478V104.848ZM322.347 102.416C322.379 103.205 322.624 103.84 323.083 104.32C323.542 104.8 324.182 105.04 325.003 105.04C325.376 105.04 325.702 104.997 325.979 104.912C326.256 104.827 326.491 104.709 326.683 104.56C326.886 104.411 327.046 104.24 327.163 104.048C327.291 103.845 327.392 103.632 327.467 103.408L328.651 103.728C328.427 104.464 328.011 105.067 327.403 105.536C326.806 105.995 325.995 106.224 324.971 106.224C324.406 106.224 323.883 106.128 323.403 105.936C322.934 105.733 322.528 105.451 322.187 105.088C321.846 104.725 321.579 104.293 321.387 103.792C321.195 103.291 321.099 102.736 321.099 102.128V101.744C321.099 101.189 321.195 100.672 321.387 100.192C321.59 99.712 321.867 99.3013 322.219 98.96C322.571 98.608 322.982 98.336 323.451 98.144C323.931 97.9413 324.448 97.84 325.003 97.84C325.654 97.84 326.214 97.9627 326.683 98.208C327.163 98.4427 327.552 98.736 327.851 99.088C328.16 99.44 328.384 99.824 328.523 100.24C328.672 100.656 328.747 101.04 328.747 101.392V102.416H322.347ZM325.003 99.024C324.651 99.024 324.32 99.0827 324.011 99.2C323.712 99.3067 323.446 99.4613 323.211 99.664C322.987 99.8667 322.8 100.107 322.651 100.384C322.512 100.651 322.422 100.944 322.379 101.264H327.499C327.478 100.923 327.392 100.613 327.243 100.336C327.104 100.059 326.918 99.824 326.683 99.632C326.459 99.44 326.198 99.2907 325.899 99.184C325.611 99.0773 325.312 99.024 325.003 99.024ZM28.352 132.2H27.104V121.064H28.352V122.312H28.544C28.8213 121.832 29.2053 121.469 29.696 121.224C30.1867 120.968 30.72 120.84 31.296 120.84C31.7867 120.84 32.2507 120.931 32.688 121.112C33.1253 121.293 33.5093 121.555 33.84 121.896C34.1813 122.237 34.448 122.659 34.64 123.16C34.8427 123.661 34.944 124.232 34.944 124.872V125.192C34.944 125.843 34.848 126.419 34.656 126.92C34.464 127.421 34.1973 127.843 33.856 128.184C33.5253 128.525 33.136 128.787 32.688 128.968C32.24 129.139 31.7653 129.224 31.264 129.224C31.008 129.224 30.7467 129.192 30.48 129.128C30.2133 129.075 29.9573 128.989 29.712 128.872C29.4773 128.744 29.2587 128.595 29.056 128.424C28.8533 128.243 28.6827 128.029 28.544 127.784H28.352V132.2ZM31.008 128.04C31.392 128.04 31.744 127.976 32.064 127.848C32.384 127.709 32.6613 127.517 32.896 127.272C33.1413 127.027 33.328 126.728 33.456 126.376C33.5947 126.024 33.664 125.629 33.664 125.192V124.872C33.664 124.445 33.5947 124.061 33.456 123.72C33.328 123.368 33.1413 123.069 32.896 122.824C32.6613 122.568 32.3787 122.371 32.048 122.232C31.728 122.093 31.3813 122.024 31.008 122.024C30.6347 122.024 30.288 122.099 29.968 122.248C29.648 122.387 29.3653 122.584 29.12 122.84C28.8853 123.096 28.6987 123.405 28.56 123.768C28.4213 124.12 28.352 124.509 28.352 124.936V125.128C28.352 125.565 28.4213 125.965 28.56 126.328C28.6987 126.68 28.8853 126.984 29.12 127.24C29.3653 127.496 29.648 127.693 29.968 127.832C30.288 127.971 30.6347 128.04 31.008 128.04ZM38.3089 132.2H37.0609V121.064H38.3089V122.312H38.5009C38.7782 121.832 39.1622 121.469 39.6529 121.224C40.1435 120.968 40.6769 120.84 41.2529 120.84C41.7435 120.84 42.2075 120.931 42.6449 121.112C43.0822 121.293 43.4662 121.555 43.7969 121.896C44.1382 122.237 44.4049 122.659 44.5969 123.16C44.7995 123.661 44.9009 124.232 44.9009 124.872V125.192C44.9009 125.843 44.8049 126.419 44.6129 126.92C44.4209 127.421 44.1542 127.843 43.8129 128.184C43.4822 128.525 43.0929 128.787 42.6449 128.968C42.1969 129.139 41.7222 129.224 41.2209 129.224C40.9649 129.224 40.7035 129.192 40.4369 129.128C40.1702 129.075 39.9142 128.989 39.6689 128.872C39.4342 128.744 39.2155 128.595 39.0129 128.424C38.8102 128.243 38.6395 128.029 38.5009 127.784H38.3089V132.2ZM40.9649 128.04C41.3489 128.04 41.7009 127.976 42.0209 127.848C42.3409 127.709 42.6182 127.517 42.8529 127.272C43.0982 127.027 43.2849 126.728 43.4129 126.376C43.5515 126.024 43.6209 125.629 43.6209 125.192V124.872C43.6209 124.445 43.5515 124.061 43.4129 123.72C43.2849 123.368 43.0982 123.069 42.8529 122.824C42.6182 122.568 42.3355 122.371 42.0049 122.232C41.6849 122.093 41.3382 122.024 40.9649 122.024C40.5915 122.024 40.2449 122.099 39.9249 122.248C39.6049 122.387 39.3222 122.584 39.0769 122.84C38.8422 123.096 38.6555 123.405 38.5169 123.768C38.3782 124.12 38.3089 124.509 38.3089 124.936V125.128C38.3089 125.565 38.3782 125.965 38.5169 126.328C38.6555 126.68 38.8422 126.984 39.0769 127.24C39.3222 127.496 39.6049 127.693 39.9249 127.832C40.2449 127.971 40.5915 128.04 40.9649 128.04ZM47.0337 121.064H49.5297V117.8H50.7778V121.064H53.8498V122.216H50.7778V127.368C50.7778 127.688 50.9218 127.848 51.2098 127.848H53.4658V129H50.7617C50.3991 129 50.1004 128.883 49.8657 128.648C49.6417 128.413 49.5297 128.115 49.5297 127.752V122.216H47.0337V121.064ZM68.1795 132.2H66.9315V121.064H68.1795V122.312H68.3715C68.6488 121.832 69.0328 121.469 69.5235 121.224C70.0142 120.968 70.5475 120.84 71.1235 120.84C71.6142 120.84 72.0782 120.931 72.5155 121.112C72.9528 121.293 73.3368 121.555 73.6675 121.896C74.0088 122.237 74.2755 122.659 74.4675 123.16C74.6702 123.661 74.7715 124.232 74.7715 124.872V125.192C74.7715 125.843 74.6755 126.419 74.4835 126.92C74.2915 127.421 74.0248 127.843 73.6835 128.184C73.3528 128.525 72.9635 128.787 72.5155 128.968C72.0675 129.139 71.5928 129.224 71.0915 129.224C70.8355 129.224 70.5742 129.192 70.3075 129.128C70.0408 129.075 69.7848 128.989 69.5395 128.872C69.3048 128.744 69.0862 128.595 68.8835 128.424C68.6808 128.243 68.5102 128.029 68.3715 127.784H68.1795V132.2ZM70.8355 128.04C71.2195 128.04 71.5715 127.976 71.8915 127.848C72.2115 127.709 72.4888 127.517 72.7235 127.272C72.9688 127.027 73.1555 126.728 73.2835 126.376C73.4222 126.024 73.4915 125.629 73.4915 125.192V124.872C73.4915 124.445 73.4222 124.061 73.2835 123.72C73.1555 123.368 72.9688 123.069 72.7235 122.824C72.4888 122.568 72.2062 122.371 71.8755 122.232C71.5555 122.093 71.2088 122.024 70.8355 122.024C70.4622 122.024 70.1155 122.099 69.7955 122.248C69.4755 122.387 69.1928 122.584 68.9475 122.84C68.7128 123.096 68.5262 123.405 68.3875 123.768C68.2488 124.12 68.1795 124.509 68.1795 124.936V125.128C68.1795 125.565 68.2488 125.965 68.3875 126.328C68.5262 126.68 68.7128 126.984 68.9475 127.24C69.1928 127.496 69.4755 127.693 69.7955 127.832C70.1155 127.971 70.4622 128.04 70.8355 128.04ZM76.7284 121.064H79.6084V122.12H79.8004C80.003 121.683 80.291 121.363 80.6644 121.16C81.0377 120.947 81.4644 120.84 81.9444 120.84C82.7444 120.84 83.3897 121.101 83.8804 121.624C84.371 122.147 84.6324 122.909 84.6644 123.912L83.3524 124.104C83.3524 123.368 83.1764 122.84 82.8244 122.52C82.4724 122.189 82.0404 122.024 81.5284 122.024C81.1977 122.024 80.9097 122.088 80.6644 122.216C80.4297 122.344 80.2324 122.52 80.0724 122.744C79.9124 122.968 79.795 123.229 79.7204 123.528C79.6457 123.827 79.6084 124.147 79.6084 124.488V127.848H81.6244V129H76.5364V127.848H78.3604V122.216H76.7284V121.064ZM94.6212 125.128C94.6212 125.789 94.5092 126.376 94.2852 126.888C94.0719 127.389 93.7839 127.816 93.4212 128.168C93.0586 128.509 92.6319 128.771 92.1412 128.952C91.6612 129.133 91.1599 129.224 90.6372 129.224C90.1039 129.224 89.5972 129.133 89.1172 128.952C88.6372 128.771 88.2159 128.509 87.8532 128.168C87.4906 127.816 87.1972 127.389 86.9732 126.888C86.7599 126.376 86.6532 125.789 86.6532 125.128V124.936C86.6532 124.285 86.7599 123.709 86.9732 123.208C87.1972 122.696 87.4906 122.264 87.8532 121.912C88.2266 121.56 88.6532 121.293 89.1332 121.112C89.6132 120.931 90.1146 120.84 90.6372 120.84C91.1599 120.84 91.6612 120.931 92.1412 121.112C92.6212 121.293 93.0426 121.56 93.4052 121.912C93.7786 122.264 94.0719 122.696 94.2852 123.208C94.5092 123.709 94.6212 124.285 94.6212 124.936V125.128ZM90.6372 128.04C91.0212 128.04 91.3732 127.976 91.6932 127.848C92.0239 127.709 92.3119 127.512 92.5572 127.256C92.8026 127 92.9946 126.696 93.1332 126.344C93.2719 125.981 93.3412 125.576 93.3412 125.128V124.936C93.3412 124.509 93.2719 124.12 93.1332 123.768C92.9946 123.405 92.8026 123.096 92.5572 122.84C92.3119 122.584 92.0239 122.387 91.6932 122.248C91.3626 122.099 91.0106 122.024 90.6372 122.024C90.2639 122.024 89.9119 122.099 89.5812 122.248C89.2506 122.387 88.9626 122.584 88.7172 122.84C88.4719 123.096 88.2799 123.405 88.1412 123.768C88.0026 124.12 87.9332 124.509 87.9332 124.936V125.128C87.9332 125.576 88.0026 125.981 88.1412 126.344C88.2799 126.696 88.4719 127 88.7172 127.256C88.9626 127.512 89.2452 127.709 89.5652 127.848C89.8959 127.976 90.2532 128.04 90.6372 128.04ZM101.81 129H99.3461L96.5781 121.064H98.0501L100.482 128.424H100.674L103.106 121.064H104.578L101.81 129ZM109.511 118.696C109.511 118.387 109.618 118.125 109.831 117.912C110.055 117.688 110.322 117.576 110.631 117.576C110.94 117.576 111.202 117.688 111.415 117.912C111.639 118.125 111.751 118.387 111.751 118.696C111.751 119.005 111.639 119.272 111.415 119.496C111.202 119.709 110.94 119.816 110.631 119.816C110.322 119.816 110.055 119.709 109.831 119.496C109.618 119.272 109.511 119.005 109.511 118.696ZM107.239 127.848H110.023V122.216H107.527V121.064H111.271V127.848H113.863V129H107.239V127.848ZM123.148 127.784H122.956C122.828 128.029 122.663 128.243 122.46 128.424C122.268 128.605 122.055 128.755 121.82 128.872C121.596 128.989 121.356 129.075 121.1 129.128C120.844 129.192 120.599 129.224 120.364 129.224C119.831 129.224 119.335 129.133 118.876 128.952C118.417 128.771 118.012 128.509 117.66 128.168C117.319 127.827 117.047 127.405 116.844 126.904C116.652 126.392 116.556 125.811 116.556 125.16V124.904C116.556 124.264 116.657 123.693 116.86 123.192C117.063 122.68 117.335 122.253 117.676 121.912C118.017 121.56 118.417 121.293 118.876 121.112C119.335 120.931 119.82 120.84 120.332 120.84C120.876 120.84 121.383 120.963 121.852 121.208C122.332 121.443 122.7 121.811 122.956 122.312H123.148V117.8H124.396V129H123.148V127.784ZM120.492 128.04C120.865 128.04 121.212 127.971 121.532 127.832C121.852 127.693 122.129 127.496 122.364 127.24C122.609 126.984 122.801 126.68 122.94 126.328C123.079 125.965 123.148 125.565 123.148 125.128V124.936C123.148 124.509 123.079 124.12 122.94 123.768C122.801 123.405 122.609 123.096 122.364 122.84C122.129 122.584 121.847 122.387 121.516 122.248C121.196 122.099 120.855 122.024 120.492 122.024C120.119 122.024 119.767 122.093 119.436 122.232C119.116 122.371 118.833 122.568 118.588 122.824C118.353 123.08 118.167 123.384 118.028 123.736C117.9 124.088 117.836 124.477 117.836 124.904V125.16C117.836 125.608 117.9 126.008 118.028 126.36C118.167 126.712 118.353 127.016 118.588 127.272C118.833 127.517 119.116 127.709 119.436 127.848C119.756 127.976 120.108 128.04 120.492 128.04ZM127.873 125.416C127.905 126.205 128.15 126.84 128.609 127.32C129.067 127.8 129.707 128.04 130.529 128.04C130.902 128.04 131.227 127.997 131.505 127.912C131.782 127.827 132.017 127.709 132.209 127.56C132.411 127.411 132.571 127.24 132.689 127.048C132.817 126.845 132.918 126.632 132.993 126.408L134.177 126.728C133.953 127.464 133.537 128.067 132.929 128.536C132.331 128.995 131.521 129.224 130.497 129.224C129.931 129.224 129.409 129.128 128.929 128.936C128.459 128.733 128.054 128.451 127.713 128.088C127.371 127.725 127.105 127.293 126.913 126.792C126.721 126.291 126.625 125.736 126.625 125.128V124.744C126.625 124.189 126.721 123.672 126.913 123.192C127.115 122.712 127.393 122.301 127.745 121.96C128.097 121.608 128.507 121.336 128.977 121.144C129.457 120.941 129.974 120.84 130.529 120.84C131.179 120.84 131.739 120.963 132.209 121.208C132.689 121.443 133.078 121.736 133.377 122.088C133.686 122.44 133.91 122.824 134.049 123.24C134.198 123.656 134.273 124.04 134.273 124.392V125.416H127.873ZM130.529 122.024C130.177 122.024 129.846 122.083 129.537 122.2C129.238 122.307 128.971 122.461 128.737 122.664C128.513 122.867 128.326 123.107 128.177 123.384C128.038 123.651 127.947 123.944 127.905 124.264H133.025C133.003 123.923 132.918 123.613 132.769 123.336C132.63 123.059 132.443 122.824 132.209 122.632C131.985 122.44 131.723 122.291 131.425 122.184C131.137 122.077 130.838 122.024 130.529 122.024ZM143.062 127.784H142.87C142.742 128.029 142.576 128.243 142.374 128.424C142.182 128.605 141.968 128.755 141.734 128.872C141.51 128.989 141.27 129.075 141.014 129.128C140.758 129.192 140.512 129.224 140.278 129.224C139.744 129.224 139.248 129.133 138.79 128.952C138.331 128.771 137.926 128.509 137.574 128.168C137.232 127.827 136.96 127.405 136.758 126.904C136.566 126.392 136.47 125.811 136.47 125.16V124.904C136.47 124.264 136.571 123.693 136.774 123.192C136.976 122.68 137.248 122.253 137.59 121.912C137.931 121.56 138.331 121.293 138.79 121.112C139.248 120.931 139.734 120.84 140.246 120.84C140.79 120.84 141.296 120.963 141.766 121.208C142.246 121.443 142.614 121.811 142.87 122.312H143.062V117.8H144.31V129H143.062V127.784ZM140.406 128.04C140.779 128.04 141.126 127.971 141.446 127.832C141.766 127.693 142.043 127.496 142.278 127.24C142.523 126.984 142.715 126.68 142.854 126.328C142.992 125.965 143.062 125.565 143.062 125.128V124.936C143.062 124.509 142.992 124.12 142.854 123.768C142.715 123.405 142.523 123.096 142.278 122.84C142.043 122.584 141.76 122.387 141.43 122.248C141.11 122.099 140.768 122.024 140.406 122.024C140.032 122.024 139.68 122.093 139.35 122.232C139.03 122.371 138.747 122.568 138.502 122.824C138.267 123.08 138.08 123.384 137.942 123.736C137.814 124.088 137.75 124.477 137.75 124.904V125.16C137.75 125.608 137.814 126.008 137.942 126.36C138.08 126.712 138.267 127.016 138.502 127.272C138.747 127.517 139.03 127.709 139.35 127.848C139.67 127.976 140.022 128.04 140.406 128.04ZM149.258 128.104C149.258 127.795 149.365 127.533 149.578 127.32C149.802 127.096 150.069 126.984 150.378 126.984C150.688 126.984 150.949 127.096 151.162 127.32C151.386 127.533 151.498 127.795 151.498 128.104C151.498 128.413 151.386 128.68 151.162 128.904C150.949 129.117 150.688 129.224 150.378 129.224C150.069 129.224 149.802 129.117 149.578 128.904C149.365 128.68 149.258 128.413 149.258 128.104Z" fill="white" fill-opacity="0.95"/>
<path d="M33.86 41H31.22V36.8C31.22 36.48 31.1333 36.22 30.96 36.02C30.8 35.82 30.5267 35.72 30.14 35.72H27.1V41H24.46V27H29.82C30.54 27 31.1733 27.1 31.72 27.3C32.2667 27.5 32.72 27.78 33.08 28.14C33.4533 28.4867 33.7333 28.8933 33.92 29.36C34.12 29.8267 34.22 30.3267 34.22 30.86V31.34C34.22 31.9133 34.0667 32.4533 33.76 32.96C33.4533 33.4533 32.98 33.8333 32.34 34.1V34.46C32.8067 34.5133 33.1733 34.6933 33.44 35C33.72 35.3067 33.86 35.6933 33.86 36.16V41ZM27.1 33.2H29.62C30.26 33.2 30.7467 33.0533 31.08 32.76C31.4133 32.4533 31.58 32.0267 31.58 31.48V31.24C31.58 30.7733 31.4133 30.3733 31.08 30.04C30.7467 29.6933 30.26 29.52 29.62 29.52H27.1V33.2ZM44.1261 31.08H46.6461V41H44.1261V39.56H43.7661C43.3261 40.7067 42.3794 41.28 40.9261 41.28C40.4328 41.28 39.9728 41.2 39.5461 41.04C39.1194 40.88 38.7461 40.6333 38.4261 40.3C38.1061 39.9667 37.8528 39.5533 37.6661 39.06C37.4928 38.5533 37.4061 37.96 37.4061 37.28V31.08H39.9261V36.76C39.9261 37.4667 40.0928 38.02 40.4261 38.42C40.7594 38.8067 41.2594 39 41.9261 39C42.6861 39 43.2394 38.76 43.5861 38.28C43.9461 37.7867 44.1261 37.12 44.1261 36.28V31.08ZM50.1922 38.6H53.6722V29.4H50.3122V27H56.1922V38.6H59.4322V41H50.1922V38.6ZM65.3183 36.86C65.3316 37.1533 65.3983 37.4267 65.5183 37.68C65.6516 37.92 65.8249 38.1333 66.0383 38.32C66.2649 38.4933 66.5183 38.6333 66.7983 38.74C67.0916 38.8333 67.3983 38.88 67.7183 38.88C68.3449 38.88 68.8249 38.7733 69.1583 38.56C69.4916 38.3333 69.7316 38.0667 69.8783 37.76L72.0383 38.96C71.9183 39.2133 71.7516 39.48 71.5383 39.76C71.3249 40.0267 71.0449 40.2733 70.6983 40.5C70.3649 40.7267 69.9516 40.9133 69.4583 41.06C68.9783 41.2067 68.4116 41.28 67.7583 41.28C67.0116 41.28 66.3316 41.16 65.7183 40.92C65.1049 40.68 64.5716 40.3333 64.1183 39.88C63.6783 39.4267 63.3316 38.8733 63.0783 38.22C62.8383 37.5667 62.7183 36.8267 62.7183 36V35.88C62.7183 35.12 62.8449 34.4267 63.0983 33.8C63.3649 33.1733 63.7249 32.64 64.1783 32.2C64.6316 31.76 65.1583 31.42 65.7583 31.18C66.3716 30.9267 67.0249 30.8 67.7183 30.8C68.5716 30.8 69.3049 30.9533 69.9183 31.26C70.5316 31.5533 71.0383 31.9333 71.4383 32.4C71.8383 32.8533 72.1316 33.36 72.3183 33.92C72.5049 34.4667 72.5983 35 72.5983 35.52V36.86H65.3183ZM67.6983 33.08C67.0583 33.08 66.5383 33.2467 66.1383 33.58C65.7383 33.9 65.4783 34.2733 65.3583 34.7H70.0383C69.9583 34.2333 69.7049 33.8467 69.2783 33.54C68.8649 33.2333 68.3383 33.08 67.6983 33.08ZM77.3844 34.36H83.6244V36.64H77.3844V34.36ZM88.5505 34.76V27H97.9105V29.52H91.1905V33.32H91.5505C91.7371 32.8 92.0838 32.3533 92.5905 31.98C93.1105 31.5933 93.8038 31.4 94.6705 31.4C95.3238 31.4 95.9105 31.5133 96.4305 31.74C96.9505 31.9667 97.3905 32.28 97.7505 32.68C98.1105 33.08 98.3838 33.56 98.5705 34.12C98.7705 34.68 98.8705 35.2933 98.8705 35.96V36.08C98.8705 36.7867 98.7505 37.4533 98.5105 38.08C98.2838 38.7067 97.9438 39.26 97.4905 39.74C97.0505 40.2067 96.5038 40.58 95.8505 40.86C95.1971 41.14 94.4438 41.28 93.5905 41.28C92.7371 41.28 91.9838 41.1667 91.3305 40.94C90.6771 40.7 90.1238 40.3733 89.6705 39.96C89.2305 39.5333 88.8905 39.0333 88.6505 38.46C88.4238 37.8733 88.3105 37.24 88.3105 36.56V36.08H90.9505V36.32C90.9505 37.0267 91.1638 37.6133 91.5905 38.08C92.0305 38.5333 92.6705 38.76 93.5105 38.76C94.3505 38.76 95.0105 38.5333 95.4905 38.08C95.9838 37.6267 96.2305 37 96.2305 36.2C96.2305 35.44 96.0505 34.8733 95.6905 34.5C95.3305 34.1133 94.8571 33.92 94.2705 33.92C93.8838 33.92 93.5705 34.0067 93.3305 34.18C93.0905 34.34 92.9371 34.5333 92.8705 34.76H88.5505Z" fill="white"/>
<defs>
<filter id="filter0_b_544_3386" x="-30" y="-30" width="425" height="221" filterUnits="userSpaceOnUse" color-interpolation-filters="sRGB">
<feFlood flood-opacity="0" result="BackgroundImageFix"/>
<feGaussianBlur in="BackgroundImageFix" stdDeviation="15"/>
<feComposite in2="SourceAlpha" operator="in" result="effect1_backgroundBlur_544_3386"/>
<feBlend mode="normal" in="SourceGraphic" in2="effect1_backgroundBlur_544_3386" result="shape"/>
</filter>
</defs>
</svg>
