<svg width="447" height="185" viewBox="0 0 447 185" fill="none" xmlns="http://www.w3.org/2000/svg">
<g filter="url(#filter0_b_544_3384)">
<rect width="447" height="185" rx="11" fill="white" fill-opacity="0.05"/>
</g>
<path d="M40.86 52H38.22V47.8C38.22 47.48 38.1333 47.22 37.96 47.02C37.8 46.82 37.5267 46.72 37.14 46.72H34.1V52H31.46V38H36.82C37.54 38 38.1733 38.1 38.72 38.3C39.2667 38.5 39.72 38.78 40.08 39.14C40.4533 39.4867 40.7333 39.8933 40.92 40.36C41.12 40.8267 41.22 41.3267 41.22 41.86V42.34C41.22 42.9133 41.0667 43.4533 40.76 43.96C40.4533 44.4533 39.98 44.8333 39.34 45.1V45.46C39.8067 45.5133 40.1733 45.6933 40.44 46C40.72 46.3067 40.86 46.6933 40.86 47.16V52ZM34.1 44.2H36.62C37.26 44.2 37.7467 44.0533 38.08 43.76C38.4133 43.4533 38.58 43.0267 38.58 42.48V42.24C38.58 41.7733 38.4133 41.3733 38.08 41.04C37.7467 40.6933 37.26 40.52 36.62 40.52H34.1V44.2ZM51.1261 42.08H53.6461V52H51.1261V50.56H50.7661C50.3261 51.7067 49.3794 52.28 47.9261 52.28C47.4328 52.28 46.9728 52.2 46.5461 52.04C46.1194 51.88 45.7461 51.6333 45.4261 51.3C45.1061 50.9667 44.8528 50.5533 44.6661 50.06C44.4928 49.5533 44.4061 48.96 44.4061 48.28V42.08H46.9261V47.76C46.9261 48.4667 47.0928 49.02 47.4261 49.42C47.7594 49.8067 48.2594 50 48.9261 50C49.6861 50 50.2394 49.76 50.5861 49.28C50.9461 48.7867 51.1261 48.12 51.1261 47.28V42.08ZM57.1922 49.6H60.6722V40.4H57.3122V38H63.1922V49.6H66.4322V52H57.1922V49.6ZM72.3183 47.86C72.3316 48.1533 72.3983 48.4267 72.5183 48.68C72.6516 48.92 72.8249 49.1333 73.0383 49.32C73.2649 49.4933 73.5183 49.6333 73.7983 49.74C74.0916 49.8333 74.3983 49.88 74.7183 49.88C75.3449 49.88 75.8249 49.7733 76.1583 49.56C76.4916 49.3333 76.7316 49.0667 76.8783 48.76L79.0383 49.96C78.9183 50.2133 78.7516 50.48 78.5383 50.76C78.3249 51.0267 78.0449 51.2733 77.6983 51.5C77.3649 51.7267 76.9516 51.9133 76.4583 52.06C75.9783 52.2067 75.4116 52.28 74.7583 52.28C74.0116 52.28 73.3316 52.16 72.7183 51.92C72.1049 51.68 71.5716 51.3333 71.1183 50.88C70.6783 50.4267 70.3316 49.8733 70.0783 49.22C69.8383 48.5667 69.7183 47.8267 69.7183 47V46.88C69.7183 46.12 69.8449 45.4267 70.0983 44.8C70.3649 44.1733 70.7249 43.64 71.1783 43.2C71.6316 42.76 72.1583 42.42 72.7583 42.18C73.3716 41.9267 74.0249 41.8 74.7183 41.8C75.5716 41.8 76.3049 41.9533 76.9183 42.26C77.5316 42.5533 78.0383 42.9333 78.4383 43.4C78.8383 43.8533 79.1316 44.36 79.3183 44.92C79.5049 45.4667 79.5983 46 79.5983 46.52V47.86H72.3183ZM74.6983 44.08C74.0583 44.08 73.5383 44.2467 73.1383 44.58C72.7383 44.9 72.4783 45.2733 72.3583 45.7H77.0383C76.9583 45.2333 76.7049 44.8467 76.2783 44.54C75.8649 44.2333 75.3383 44.08 74.6983 44.08ZM84.3844 45.36H90.6244V47.64H84.3844V45.36ZM98.9905 46V41.84L102.47 40.88V40.52H95.5105V38H104.63V42.4L100.91 43.48V43.84H101.39C101.884 43.84 102.37 43.92 102.85 44.08C103.33 44.2267 103.75 44.46 104.11 44.78C104.484 45.1 104.784 45.5 105.01 45.98C105.237 46.4467 105.35 47 105.35 47.64V47.88C105.35 48.5067 105.244 49.0867 105.03 49.62C104.83 50.1533 104.524 50.62 104.11 51.02C103.71 51.4067 103.21 51.7133 102.61 51.94C102.01 52.1667 101.324 52.28 100.55 52.28C99.7638 52.28 99.0505 52.1533 98.4105 51.9C97.7705 51.6467 97.2238 51.3 96.7705 50.86C96.3305 50.42 95.9905 49.9133 95.7505 49.34C95.5105 48.7667 95.3905 48.16 95.3905 47.52V46.68H98.0305V47.4C98.0305 48.04 98.2371 48.5933 98.6505 49.06C99.0638 49.5267 99.6838 49.76 100.51 49.76C101.217 49.76 101.757 49.58 102.13 49.22C102.517 48.86 102.71 48.3867 102.71 47.8C102.71 47.1733 102.504 46.72 102.09 46.44C101.69 46.1467 101.177 46 100.55 46H98.9905Z" fill="white"/>
<path d="M32.704 92.392V97H31.36V85.8H35.36C35.936 85.8 36.4373 85.8853 36.864 86.056C37.2907 86.216 37.6427 86.4347 37.92 86.712C38.208 86.9893 38.4213 87.3147 38.56 87.688C38.7093 88.0507 38.784 88.4347 38.784 88.84V89.32C38.784 89.7253 38.7093 90.1147 38.56 90.488C38.4213 90.8613 38.208 91.192 37.92 91.48C37.632 91.7573 37.2747 91.9813 36.848 92.152C36.4213 92.312 35.9253 92.392 35.36 92.392H32.704ZM32.704 91.144H35.2C36.6933 91.144 37.44 90.504 37.44 89.224V88.936C37.44 88.3707 37.2533 87.9173 36.88 87.576C36.5173 87.224 35.9573 87.048 35.2 87.048H32.704V91.144ZM41.0609 89.064H43.9409V90.12H44.1329C44.3355 89.6827 44.6235 89.3627 44.9969 89.16C45.3702 88.9467 45.7969 88.84 46.2769 88.84C47.0769 88.84 47.7222 89.1013 48.2129 89.624C48.7035 90.1467 48.9649 90.9093 48.9969 91.912L47.6849 92.104C47.6849 91.368 47.5089 90.84 47.1569 90.52C46.8049 90.1893 46.3729 90.024 45.8609 90.024C45.5302 90.024 45.2422 90.088 44.9969 90.216C44.7622 90.344 44.5649 90.52 44.4049 90.744C44.2449 90.968 44.1275 91.2293 44.0529 91.528C43.9782 91.8267 43.9409 92.1467 43.9409 92.488V95.848H45.9569V97H40.8689V95.848H42.6929V90.216H41.0609V89.064ZM52.5377 93.416C52.5697 94.2053 52.8151 94.84 53.2737 95.32C53.7324 95.8 54.3724 96.04 55.1937 96.04C55.5671 96.04 55.8924 95.9973 56.1697 95.912C56.4471 95.8267 56.6817 95.7093 56.8737 95.56C57.0764 95.4107 57.2364 95.24 57.3537 95.048C57.4817 94.8453 57.5831 94.632 57.6577 94.408L58.8418 94.728C58.6177 95.464 58.2017 96.0667 57.5937 96.536C56.9964 96.9947 56.1857 97.224 55.1617 97.224C54.5964 97.224 54.0737 97.128 53.5937 96.936C53.1244 96.7333 52.7191 96.4507 52.3777 96.088C52.0364 95.7253 51.7697 95.2933 51.5777 94.792C51.3857 94.2907 51.2897 93.736 51.2897 93.128V92.744C51.2897 92.1893 51.3857 91.672 51.5777 91.192C51.7804 90.712 52.0577 90.3013 52.4097 89.96C52.7617 89.608 53.1724 89.336 53.6417 89.144C54.1217 88.9413 54.6391 88.84 55.1937 88.84C55.8444 88.84 56.4044 88.9627 56.8737 89.208C57.3537 89.4427 57.7431 89.736 58.0417 90.088C58.3511 90.44 58.5751 90.824 58.7137 91.24C58.8631 91.656 58.9377 92.04 58.9377 92.392V93.416H52.5377ZM55.1937 90.024C54.8417 90.024 54.5111 90.0827 54.2017 90.2C53.9031 90.3067 53.6364 90.4613 53.4017 90.664C53.1777 90.8667 52.9911 91.1067 52.8417 91.384C52.7031 91.6507 52.6124 91.944 52.5697 92.264H57.6897C57.6684 91.9227 57.5831 91.6133 57.4337 91.336C57.2951 91.0587 57.1084 90.824 56.8737 90.632C56.6497 90.44 56.3884 90.2907 56.0897 90.184C55.8017 90.0773 55.5031 90.024 55.1937 90.024ZM62.7026 100.2H61.4546V89.064H62.7026V90.312H62.8946C63.172 89.832 63.556 89.4693 64.0466 89.224C64.5373 88.968 65.0706 88.84 65.6466 88.84C66.1373 88.84 66.6013 88.9307 67.0386 89.112C67.476 89.2933 67.86 89.5547 68.1906 89.896C68.532 90.2373 68.7986 90.6587 68.9906 91.16C69.1933 91.6613 69.2946 92.232 69.2946 92.872V93.192C69.2946 93.8427 69.1986 94.4187 69.0066 94.92C68.8146 95.4213 68.548 95.8427 68.2066 96.184C67.876 96.5253 67.4866 96.7867 67.0386 96.968C66.5906 97.1387 66.116 97.224 65.6146 97.224C65.3586 97.224 65.0973 97.192 64.8306 97.128C64.564 97.0747 64.308 96.9893 64.0626 96.872C63.828 96.744 63.6093 96.5947 63.4066 96.424C63.204 96.2427 63.0333 96.0293 62.8946 95.784H62.7026V100.2ZM65.3586 96.04C65.7426 96.04 66.0946 95.976 66.4146 95.848C66.7346 95.7093 67.012 95.5173 67.2466 95.272C67.492 95.0267 67.6786 94.728 67.8066 94.376C67.9453 94.024 68.0146 93.6293 68.0146 93.192V92.872C68.0146 92.4453 67.9453 92.0613 67.8066 91.72C67.6786 91.368 67.492 91.0693 67.2466 90.824C67.012 90.568 66.7293 90.3707 66.3986 90.232C66.0786 90.0933 65.732 90.024 65.3586 90.024C64.9853 90.024 64.6386 90.0987 64.3186 90.248C63.9986 90.3867 63.716 90.584 63.4706 90.84C63.236 91.096 63.0493 91.4053 62.9106 91.768C62.772 92.12 62.7026 92.5093 62.7026 92.936V93.128C62.7026 93.5653 62.772 93.9653 62.9106 94.328C63.0493 94.68 63.236 94.984 63.4706 95.24C63.716 95.496 63.9986 95.6933 64.3186 95.832C64.6386 95.9707 64.9853 96.04 65.3586 96.04ZM77.6195 95.656H77.4275C77.1715 96.1893 76.8142 96.584 76.3555 96.84C75.9075 97.096 75.4328 97.224 74.9315 97.224C74.4088 97.224 73.9235 97.1387 73.4755 96.968C73.0275 96.7867 72.6328 96.5253 72.2915 96.184C71.9608 95.832 71.6995 95.4053 71.5075 94.904C71.3155 94.4027 71.2195 93.8213 71.2195 93.16V92.904C71.2195 92.2533 71.3155 91.6773 71.5075 91.176C71.6995 90.6747 71.9608 90.2533 72.2915 89.912C72.6328 89.56 73.0275 89.2933 73.4755 89.112C73.9235 88.9307 74.3982 88.84 74.8995 88.84C75.4435 88.84 75.9342 88.9627 76.3715 89.208C76.8195 89.4427 77.1715 89.8107 77.4275 90.312H77.6195V89.064H78.8675V95.368C78.8675 95.688 79.0115 95.848 79.2995 95.848H79.6995V97H78.8515C78.4888 97 78.1902 96.8827 77.9555 96.648C77.7315 96.4133 77.6195 96.1147 77.6195 95.752V95.656ZM75.0595 96.04C75.4328 96.04 75.7742 95.9707 76.0835 95.832C76.4035 95.6933 76.6755 95.496 76.8995 95.24C77.1235 94.984 77.2995 94.68 77.4275 94.328C77.5555 93.9653 77.6195 93.5653 77.6195 93.128V92.936C77.6195 92.5093 77.5555 92.12 77.4275 91.768C77.2995 91.4053 77.1182 91.096 76.8835 90.84C76.6595 90.584 76.3875 90.3867 76.0675 90.248C75.7582 90.0987 75.4222 90.024 75.0595 90.024C74.6862 90.024 74.3448 90.0933 74.0355 90.232C73.7262 90.3707 73.4542 90.568 73.2195 90.824C72.9955 91.0693 72.8195 91.3733 72.6915 91.736C72.5635 92.088 72.4995 92.4773 72.4995 92.904V93.16C72.4995 94.0667 72.7342 94.776 73.2035 95.288C73.6835 95.7893 74.3022 96.04 75.0595 96.04ZM81.5284 89.064H84.4084V90.12H84.6004C84.803 89.6827 85.091 89.3627 85.4644 89.16C85.8377 88.9467 86.2644 88.84 86.7444 88.84C87.5444 88.84 88.1897 89.1013 88.6804 89.624C89.171 90.1467 89.4324 90.9093 89.4644 91.912L88.1524 92.104C88.1524 91.368 87.9764 90.84 87.6244 90.52C87.2724 90.1893 86.8404 90.024 86.3284 90.024C85.9977 90.024 85.7097 90.088 85.4644 90.216C85.2297 90.344 85.0324 90.52 84.8724 90.744C84.7124 90.968 84.595 91.2293 84.5204 91.528C84.4457 91.8267 84.4084 92.1467 84.4084 92.488V95.848H86.4244V97H81.3364V95.848H83.1604V90.216H81.5284V89.064ZM93.0052 93.416C93.0372 94.2053 93.2826 94.84 93.7412 95.32C94.1999 95.8 94.8399 96.04 95.6612 96.04C96.0346 96.04 96.3599 95.9973 96.6372 95.912C96.9146 95.8267 97.1492 95.7093 97.3412 95.56C97.5439 95.4107 97.7039 95.24 97.8212 95.048C97.9492 94.8453 98.0506 94.632 98.1252 94.408L99.3092 94.728C99.0852 95.464 98.6692 96.0667 98.0612 96.536C97.4639 96.9947 96.6532 97.224 95.6292 97.224C95.0639 97.224 94.5412 97.128 94.0612 96.936C93.5919 96.7333 93.1866 96.4507 92.8452 96.088C92.5039 95.7253 92.2372 95.2933 92.0452 94.792C91.8532 94.2907 91.7572 93.736 91.7572 93.128V92.744C91.7572 92.1893 91.8532 91.672 92.0452 91.192C92.2479 90.712 92.5252 90.3013 92.8772 89.96C93.2292 89.608 93.6399 89.336 94.1092 89.144C94.5892 88.9413 95.1066 88.84 95.6612 88.84C96.3119 88.84 96.8719 88.9627 97.3412 89.208C97.8212 89.4427 98.2106 89.736 98.5092 90.088C98.8186 90.44 99.0426 90.824 99.1812 91.24C99.3306 91.656 99.4052 92.04 99.4052 92.392V93.416H93.0052ZM95.6612 90.024C95.3092 90.024 94.9786 90.0827 94.6692 90.2C94.3706 90.3067 94.1039 90.4613 93.8692 90.664C93.6452 90.8667 93.4586 91.1067 93.3092 91.384C93.1706 91.6507 93.0799 91.944 93.0372 92.264H98.1572C98.1359 91.9227 98.0506 91.6133 97.9012 91.336C97.7626 91.0587 97.5759 90.824 97.3412 90.632C97.1172 90.44 96.8559 90.2907 96.5572 90.184C96.2692 90.0773 95.9706 90.024 95.6612 90.024ZM155.329 95.656H155.137C154.881 96.1893 154.524 96.584 154.065 96.84C153.617 97.096 153.143 97.224 152.641 97.224C152.119 97.224 151.633 97.1387 151.185 96.968C150.737 96.7867 150.343 96.5253 150.001 96.184C149.671 95.832 149.409 95.4053 149.217 94.904C149.025 94.4027 148.929 93.8213 148.929 93.16V92.904C148.929 92.2533 149.025 91.6773 149.217 91.176C149.409 90.6747 149.671 90.2533 150.001 89.912C150.343 89.56 150.737 89.2933 151.185 89.112C151.633 88.9307 152.108 88.84 152.609 88.84C153.153 88.84 153.644 88.9627 154.081 89.208C154.529 89.4427 154.881 89.8107 155.137 90.312H155.329V89.064H156.577V95.368C156.577 95.688 156.721 95.848 157.009 95.848H157.409V97H156.561C156.199 97 155.9 96.8827 155.665 96.648C155.441 96.4133 155.329 96.1147 155.329 95.752V95.656ZM152.769 96.04C153.143 96.04 153.484 95.9707 153.793 95.832C154.113 95.6933 154.385 95.496 154.609 95.24C154.833 94.984 155.009 94.68 155.137 94.328C155.265 93.9653 155.329 93.5653 155.329 93.128V92.936C155.329 92.5093 155.265 92.12 155.137 91.768C155.009 91.4053 154.828 91.096 154.593 90.84C154.369 90.584 154.097 90.3867 153.777 90.248C153.468 90.0987 153.132 90.024 152.769 90.024C152.396 90.024 152.055 90.0933 151.745 90.232C151.436 90.3707 151.164 90.568 150.929 90.824C150.705 91.0693 150.529 91.3733 150.401 91.736C150.273 92.088 150.209 92.4773 150.209 92.904V93.16C150.209 94.0667 150.444 94.776 150.913 95.288C151.393 95.7893 152.012 96.04 152.769 96.04ZM214.47 94.184C214.384 94.6213 214.235 95.0267 214.022 95.4C213.819 95.7733 213.558 96.0987 213.238 96.376C212.918 96.6427 212.544 96.8507 212.118 97C211.691 97.1493 211.216 97.224 210.694 97.224C210.139 97.224 209.611 97.1333 209.11 96.952C208.619 96.7707 208.187 96.5093 207.814 96.168C207.44 95.816 207.142 95.3893 206.918 94.888C206.704 94.3867 206.598 93.8107 206.598 93.16V92.968C206.598 92.328 206.704 91.752 206.918 91.24C207.142 90.728 207.44 90.296 207.814 89.944C208.187 89.592 208.619 89.32 209.11 89.128C209.611 88.936 210.139 88.84 210.694 88.84C211.195 88.84 211.659 88.9147 212.086 89.064C212.512 89.2133 212.886 89.4267 213.206 89.704C213.536 89.9707 213.803 90.2907 214.006 90.664C214.219 91.0373 214.363 91.4427 214.438 91.88L213.19 92.168C213.158 91.8907 213.078 91.624 212.95 91.368C212.832 91.1013 212.667 90.872 212.454 90.68C212.251 90.4773 212 90.3173 211.702 90.2C211.403 90.0827 211.056 90.024 210.662 90.024C210.278 90.024 209.915 90.0987 209.574 90.248C209.243 90.3867 208.95 90.5893 208.694 90.856C208.438 91.112 208.235 91.4213 208.086 91.784C207.947 92.1467 207.878 92.5413 207.878 92.968V93.16C207.878 93.608 207.947 94.0133 208.086 94.376C208.235 94.728 208.438 95.0267 208.694 95.272C208.95 95.5173 209.248 95.7093 209.59 95.848C209.931 95.976 210.299 96.04 210.694 96.04C211.088 96.04 211.43 95.9813 211.718 95.864C212.016 95.736 212.267 95.576 212.47 95.384C212.683 95.1813 212.848 94.952 212.966 94.696C213.094 94.44 213.179 94.1733 213.222 93.896L214.47 94.184ZM224.651 93.128C224.651 93.7893 224.539 94.376 224.315 94.888C224.101 95.3893 223.813 95.816 223.451 96.168C223.088 96.5093 222.661 96.7707 222.171 96.952C221.691 97.1333 221.189 97.224 220.667 97.224C220.133 97.224 219.627 97.1333 219.147 96.952C218.667 96.7707 218.245 96.5093 217.883 96.168C217.52 95.816 217.227 95.3893 217.003 94.888C216.789 94.376 216.683 93.7893 216.683 93.128V92.936C216.683 92.2853 216.789 91.7093 217.003 91.208C217.227 90.696 217.52 90.264 217.883 89.912C218.256 89.56 218.683 89.2933 219.163 89.112C219.643 88.9307 220.144 88.84 220.667 88.84C221.189 88.84 221.691 88.9307 222.171 89.112C222.651 89.2933 223.072 89.56 223.435 89.912C223.808 90.264 224.101 90.696 224.315 91.208C224.539 91.7093 224.651 92.2853 224.651 92.936V93.128ZM220.667 96.04C221.051 96.04 221.403 95.976 221.723 95.848C222.053 95.7093 222.341 95.512 222.587 95.256C222.832 95 223.024 94.696 223.163 94.344C223.301 93.9813 223.371 93.576 223.371 93.128V92.936C223.371 92.5093 223.301 92.12 223.163 91.768C223.024 91.4053 222.832 91.096 222.587 90.84C222.341 90.584 222.053 90.3867 221.723 90.248C221.392 90.0987 221.04 90.024 220.667 90.024C220.293 90.024 219.941 90.0987 219.611 90.248C219.28 90.3867 218.992 90.584 218.747 90.84C218.501 91.096 218.309 91.4053 218.171 91.768C218.032 92.12 217.963 92.5093 217.963 92.936V93.128C217.963 93.576 218.032 93.9813 218.171 94.344C218.309 94.696 218.501 95 218.747 95.256C218.992 95.512 219.275 95.7093 219.595 95.848C219.925 95.976 220.283 96.04 220.667 96.04ZM228.527 97H227.279V89.064H228.527V90.408H228.719C229.21 89.3627 230.063 88.84 231.279 88.84C232.197 88.84 232.927 89.128 233.471 89.704C234.015 90.2693 234.287 91.1227 234.287 92.264V97H233.039V92.52C233.039 91.688 232.853 91.064 232.479 90.648C232.106 90.232 231.599 90.024 230.959 90.024C230.202 90.024 229.605 90.2853 229.167 90.808C228.741 91.32 228.527 92.008 228.527 92.872V97ZM244.82 94.184C244.735 94.6213 244.586 95.0267 244.372 95.4C244.17 95.7733 243.908 96.0987 243.588 96.376C243.268 96.6427 242.895 96.8507 242.468 97C242.042 97.1493 241.567 97.224 241.044 97.224C240.49 97.224 239.962 97.1333 239.46 96.952C238.97 96.7707 238.538 96.5093 238.164 96.168C237.791 95.816 237.492 95.3893 237.268 94.888C237.055 94.3867 236.948 93.8107 236.948 93.16V92.968C236.948 92.328 237.055 91.752 237.268 91.24C237.492 90.728 237.791 90.296 238.164 89.944C238.538 89.592 238.97 89.32 239.46 89.128C239.962 88.936 240.49 88.84 241.044 88.84C241.546 88.84 242.01 88.9147 242.436 89.064C242.863 89.2133 243.236 89.4267 243.556 89.704C243.887 89.9707 244.154 90.2907 244.356 90.664C244.57 91.0373 244.714 91.4427 244.788 91.88L243.54 92.168C243.508 91.8907 243.428 91.624 243.3 91.368C243.183 91.1013 243.018 90.872 242.804 90.68C242.602 90.4773 242.351 90.3173 242.052 90.2C241.754 90.0827 241.407 90.024 241.012 90.024C240.628 90.024 240.266 90.0987 239.924 90.248C239.594 90.3867 239.3 90.5893 239.044 90.856C238.788 91.112 238.586 91.4213 238.436 91.784C238.298 92.1467 238.228 92.5413 238.228 92.968V93.16C238.228 93.608 238.298 94.0133 238.436 94.376C238.586 94.728 238.788 95.0267 239.044 95.272C239.3 95.5173 239.599 95.7093 239.94 95.848C240.282 95.976 240.65 96.04 241.044 96.04C241.439 96.04 241.78 95.9813 242.068 95.864C242.367 95.736 242.618 95.576 242.82 95.384C243.034 95.1813 243.199 94.952 243.316 94.696C243.444 94.44 243.53 94.1733 243.572 93.896L244.82 94.184ZM249.977 86.696C249.977 86.3867 250.084 86.1253 250.297 85.912C250.521 85.688 250.788 85.576 251.097 85.576C251.407 85.576 251.668 85.688 251.881 85.912C252.105 86.1253 252.217 86.3867 252.217 86.696C252.217 87.0053 252.105 87.272 251.881 87.496C251.668 87.7093 251.407 87.816 251.097 87.816C250.788 87.816 250.521 87.7093 250.297 87.496C250.084 87.272 249.977 87.0053 249.977 86.696ZM247.705 95.848H250.489V90.216H247.993V89.064H251.737V95.848H254.329V97H247.705V95.848ZM259.278 91.112C259.278 91.496 259.438 91.7893 259.758 91.992C260.089 92.1947 260.686 92.328 261.55 92.392C262.478 92.4667 263.182 92.6907 263.662 93.064C264.153 93.4267 264.398 93.96 264.398 94.664V94.76C264.398 95.144 264.318 95.4907 264.158 95.8C264.009 96.0987 263.795 96.3547 263.518 96.568C263.251 96.7813 262.921 96.9413 262.526 97.048C262.142 97.1653 261.721 97.224 261.262 97.224C260.643 97.224 260.11 97.144 259.662 96.984C259.225 96.8133 258.857 96.5947 258.558 96.328C258.27 96.0507 258.051 95.7413 257.902 95.4C257.753 95.048 257.667 94.696 257.646 94.344L258.83 94.056C258.883 94.664 259.118 95.1547 259.534 95.528C259.95 95.8907 260.505 96.072 261.198 96.072C261.785 96.072 262.254 95.96 262.606 95.736C262.969 95.5013 263.15 95.176 263.15 94.76C263.15 94.312 262.974 93.992 262.622 93.8C262.27 93.608 261.699 93.4853 260.91 93.432C259.993 93.368 259.289 93.1547 258.798 92.792C258.307 92.4293 258.062 91.9013 258.062 91.208V91.112C258.062 90.7387 258.142 90.4133 258.302 90.136C258.462 89.848 258.675 89.608 258.942 89.416C259.219 89.224 259.529 89.08 259.87 88.984C260.211 88.888 260.569 88.84 260.942 88.84C261.465 88.84 261.923 88.9147 262.318 89.064C262.713 89.2027 263.043 89.3893 263.31 89.624C263.577 89.848 263.779 90.1093 263.918 90.408C264.067 90.7067 264.163 91.0053 264.206 91.304L263.022 91.592C262.969 91.08 262.761 90.68 262.398 90.392C262.046 90.104 261.582 89.96 261.006 89.96C260.782 89.96 260.563 89.9867 260.35 90.04C260.147 90.0827 259.966 90.152 259.806 90.248C259.646 90.344 259.518 90.4667 259.422 90.616C259.326 90.7547 259.278 90.92 259.278 91.112ZM268.659 93.416C268.691 94.2053 268.936 94.84 269.395 95.32C269.854 95.8 270.494 96.04 271.315 96.04C271.688 96.04 272.014 95.9973 272.291 95.912C272.568 95.8267 272.803 95.7093 272.995 95.56C273.198 95.4107 273.358 95.24 273.475 95.048C273.603 94.8453 273.704 94.632 273.779 94.408L274.963 94.728C274.739 95.464 274.323 96.0667 273.715 96.536C273.118 96.9947 272.307 97.224 271.283 97.224C270.718 97.224 270.195 97.128 269.715 96.936C269.246 96.7333 268.84 96.4507 268.499 96.088C268.158 95.7253 267.891 95.2933 267.699 94.792C267.507 94.2907 267.411 93.736 267.411 93.128V92.744C267.411 92.1893 267.507 91.672 267.699 91.192C267.902 90.712 268.179 90.3013 268.531 89.96C268.883 89.608 269.294 89.336 269.763 89.144C270.243 88.9413 270.76 88.84 271.315 88.84C271.966 88.84 272.526 88.9627 272.995 89.208C273.475 89.4427 273.864 89.736 274.163 90.088C274.472 90.44 274.696 90.824 274.835 91.24C274.984 91.656 275.059 92.04 275.059 92.392V93.416H268.659ZM271.315 90.024C270.963 90.024 270.632 90.0827 270.323 90.2C270.024 90.3067 269.758 90.4613 269.523 90.664C269.299 90.8667 269.112 91.1067 268.963 91.384C268.824 91.6507 268.734 91.944 268.691 92.264H273.811C273.79 91.9227 273.704 91.6133 273.555 91.336C273.416 91.0587 273.23 90.824 272.995 90.632C272.771 90.44 272.51 90.2907 272.211 90.184C271.923 90.0773 271.624 90.024 271.315 90.024ZM332.535 95.752V97H324.951V95.08C324.951 94.568 325.037 94.1253 325.207 93.752C325.378 93.368 325.618 93.0427 325.927 92.776C326.247 92.4987 326.631 92.2693 327.079 92.088C327.527 91.9067 328.034 91.752 328.599 91.624C329.549 91.4107 330.231 91.1067 330.647 90.712C331.074 90.3173 331.287 89.832 331.287 89.256V89.16C331.287 88.872 331.239 88.5893 331.143 88.312C331.047 88.0347 330.898 87.784 330.695 87.56C330.493 87.336 330.231 87.16 329.911 87.032C329.602 86.8933 329.229 86.824 328.791 86.824C327.97 86.824 327.33 87.0747 326.871 87.576C326.423 88.0773 326.199 88.744 326.199 89.576V90.28H324.855V89.48C324.855 88.968 324.941 88.4773 325.111 88.008C325.282 87.5387 325.533 87.1227 325.863 86.76C326.194 86.3973 326.605 86.1093 327.095 85.896C327.586 85.6827 328.151 85.576 328.791 85.576C329.442 85.576 330.007 85.6773 330.487 85.88C330.967 86.072 331.367 86.3333 331.687 86.664C332.007 86.984 332.242 87.352 332.391 87.768C332.551 88.1733 332.631 88.5893 332.631 89.016V89.304C332.631 90.1573 332.365 90.888 331.831 91.496C331.298 92.0933 330.445 92.52 329.271 92.776C328.247 93 327.495 93.2987 327.015 93.672C326.535 94.0347 326.295 94.568 326.295 95.272V95.752H332.535ZM336.444 92.264H341.244V93.416H336.444V92.264ZM347.857 91.432V89.576L351.505 87.24V87.048H345.169V85.8H352.657V87.848L349.009 90.184V90.376H349.649C350.076 90.376 350.486 90.4453 350.881 90.584C351.276 90.7227 351.622 90.9253 351.921 91.192C352.23 91.4587 352.476 91.7893 352.657 92.184C352.849 92.568 352.945 93.016 352.945 93.528V93.816C352.945 94.296 352.849 94.744 352.657 95.16C352.465 95.576 352.198 95.9387 351.857 96.248C351.516 96.5467 351.11 96.7867 350.641 96.968C350.182 97.1387 349.681 97.224 349.137 97.224C348.508 97.224 347.942 97.128 347.441 96.936C346.94 96.744 346.513 96.4827 346.161 96.152C345.809 95.8107 345.537 95.416 345.345 94.968C345.164 94.5093 345.073 94.024 345.073 93.512V92.648H346.417V93.416C346.417 93.8213 346.481 94.184 346.609 94.504C346.748 94.8133 346.934 95.08 347.169 95.304C347.414 95.5173 347.702 95.6827 348.033 95.8C348.364 95.9173 348.721 95.976 349.105 95.976C349.457 95.976 349.782 95.9173 350.081 95.8C350.39 95.6827 350.657 95.5227 350.881 95.32C351.105 95.1067 351.281 94.8613 351.409 94.584C351.537 94.296 351.601 93.992 351.601 93.672V93.576C351.601 92.904 351.388 92.3813 350.961 92.008C350.534 91.624 350.001 91.432 349.361 91.432H347.857ZM363.206 97H361.958V91.304C361.958 90.9307 361.873 90.6267 361.702 90.392C361.531 90.1467 361.259 90.024 360.886 90.024C360.534 90.024 360.246 90.1573 360.022 90.424C359.809 90.68 359.702 91.08 359.702 91.624V97H358.454V91.24C358.454 90.888 358.358 90.6 358.166 90.376C357.974 90.1413 357.718 90.024 357.398 90.024C357.014 90.024 356.715 90.1627 356.502 90.44C356.299 90.7173 356.198 91.08 356.198 91.528V97H354.95V89.064H356.198V89.928H356.39C356.529 89.5547 356.731 89.2827 356.998 89.112C357.265 88.9307 357.579 88.84 357.942 88.84C358.326 88.84 358.641 88.9413 358.886 89.144C359.142 89.3467 359.318 89.608 359.414 89.928H359.606C359.969 89.2027 360.545 88.84 361.334 88.84C361.931 88.84 362.39 89.032 362.71 89.416C363.041 89.7893 363.206 90.28 363.206 90.888V97ZM368.155 86.696C368.155 86.3867 368.261 86.1253 368.475 85.912C368.699 85.688 368.965 85.576 369.275 85.576C369.584 85.576 369.845 85.688 370.059 85.912C370.283 86.1253 370.395 86.3867 370.395 86.696C370.395 87.0053 370.283 87.272 370.059 87.496C369.845 87.7093 369.584 87.816 369.275 87.816C368.965 87.816 368.699 87.7093 368.475 87.496C368.261 87.272 368.155 87.0053 368.155 86.696ZM365.883 95.848H368.667V90.216H366.171V89.064H369.915V95.848H372.507V97H365.883V95.848ZM377.056 97H375.808V89.064H377.056V90.408H377.248C377.738 89.3627 378.592 88.84 379.808 88.84C380.725 88.84 381.456 89.128 382 89.704C382.544 90.2693 382.816 91.1227 382.816 92.264V97H381.568V92.52C381.568 91.688 381.381 91.064 381.008 90.648C380.634 90.232 380.128 90.024 379.488 90.024C378.73 90.024 378.133 90.2853 377.696 90.808C377.269 91.32 377.056 92.008 377.056 92.872V97ZM391.589 89.064H392.837V97H391.589V95.56H391.397C391.141 96.072 390.805 96.4773 390.389 96.776C389.973 97.0747 389.445 97.224 388.805 97.224C388.367 97.224 387.962 97.1493 387.589 97C387.226 96.8613 386.911 96.648 386.645 96.36C386.389 96.072 386.186 95.7147 386.037 95.288C385.898 94.8613 385.829 94.3653 385.829 93.8V89.064H387.077V93.64C387.077 94.472 387.247 95.08 387.589 95.464C387.93 95.848 388.453 96.04 389.157 96.04C389.914 96.04 390.506 95.784 390.933 95.272C391.37 94.7493 391.589 94.056 391.589 93.192V89.064ZM395.769 89.064H398.265V85.8H399.513V89.064H402.585V90.216H399.513V95.368C399.513 95.688 399.657 95.848 399.945 95.848H402.201V97H399.497C399.135 97 398.836 96.8827 398.601 96.648C398.377 96.4133 398.265 96.1147 398.265 95.752V90.216H395.769V89.064ZM407.07 93.416C407.102 94.2053 407.348 94.84 407.806 95.32C408.265 95.8 408.905 96.04 409.726 96.04C410.1 96.04 410.425 95.9973 410.702 95.912C410.98 95.8267 411.214 95.7093 411.406 95.56C411.609 95.4107 411.769 95.24 411.886 95.048C412.014 94.8453 412.116 94.632 412.19 94.408L413.374 94.728C413.15 95.464 412.734 96.0667 412.126 96.536C411.529 96.9947 410.718 97.224 409.694 97.224C409.129 97.224 408.606 97.128 408.126 96.936C407.657 96.7333 407.252 96.4507 406.91 96.088C406.569 95.7253 406.302 95.2933 406.11 94.792C405.918 94.2907 405.822 93.736 405.822 93.128V92.744C405.822 92.1893 405.918 91.672 406.11 91.192C406.313 90.712 406.59 90.3013 406.942 89.96C407.294 89.608 407.705 89.336 408.174 89.144C408.654 88.9413 409.172 88.84 409.726 88.84C410.377 88.84 410.937 88.9627 411.406 89.208C411.886 89.4427 412.276 89.736 412.574 90.088C412.884 90.44 413.108 90.824 413.246 91.24C413.396 91.656 413.47 92.04 413.47 92.392V93.416H407.07ZM409.726 90.024C409.374 90.024 409.044 90.0827 408.734 90.2C408.436 90.3067 408.169 90.4613 407.934 90.664C407.71 90.8667 407.524 91.1067 407.374 91.384C407.236 91.6507 407.145 91.944 407.102 92.264H412.222C412.201 91.9227 412.116 91.6133 411.966 91.336C411.828 91.0587 411.641 90.824 411.406 90.632C411.182 90.44 410.921 90.2907 410.622 90.184C410.334 90.0773 410.036 90.024 409.726 90.024ZM417.923 91.112C417.923 91.496 418.083 91.7893 418.403 91.992C418.734 92.1947 419.331 92.328 420.195 92.392C421.123 92.4667 421.827 92.6907 422.307 93.064C422.798 93.4267 423.043 93.96 423.043 94.664V94.76C423.043 95.144 422.963 95.4907 422.803 95.8C422.654 96.0987 422.44 96.3547 422.163 96.568C421.896 96.7813 421.566 96.9413 421.171 97.048C420.787 97.1653 420.366 97.224 419.907 97.224C419.288 97.224 418.755 97.144 418.307 96.984C417.87 96.8133 417.502 96.5947 417.203 96.328C416.915 96.0507 416.696 95.7413 416.547 95.4C416.398 95.048 416.312 94.696 416.291 94.344L417.475 94.056C417.528 94.664 417.763 95.1547 418.179 95.528C418.595 95.8907 419.15 96.072 419.843 96.072C420.43 96.072 420.899 95.96 421.251 95.736C421.614 95.5013 421.795 95.176 421.795 94.76C421.795 94.312 421.619 93.992 421.267 93.8C420.915 93.608 420.344 93.4853 419.555 93.432C418.638 93.368 417.934 93.1547 417.443 92.792C416.952 92.4293 416.707 91.9013 416.707 91.208V91.112C416.707 90.7387 416.787 90.4133 416.947 90.136C417.107 89.848 417.32 89.608 417.587 89.416C417.864 89.224 418.174 89.08 418.515 88.984C418.856 88.888 419.214 88.84 419.587 88.84C420.11 88.84 420.568 88.9147 420.963 89.064C421.358 89.2027 421.688 89.3893 421.955 89.624C422.222 89.848 422.424 90.1093 422.563 90.408C422.712 90.7067 422.808 91.0053 422.851 91.304L421.667 91.592C421.614 91.08 421.406 90.68 421.043 90.392C420.691 90.104 420.227 89.96 419.651 89.96C419.427 89.96 419.208 89.9867 418.995 90.04C418.792 90.0827 418.611 90.152 418.451 90.248C418.291 90.344 418.163 90.4667 418.067 90.616C417.971 90.7547 417.923 90.92 417.923 91.112ZM37.536 124.784H37.344C37.216 125.029 37.0507 125.243 36.848 125.424C36.656 125.605 36.4427 125.755 36.208 125.872C35.984 125.989 35.744 126.075 35.488 126.128C35.232 126.192 34.9867 126.224 34.752 126.224C34.2187 126.224 33.7227 126.133 33.264 125.952C32.8053 125.771 32.4 125.509 32.048 125.168C31.7067 124.827 31.4347 124.405 31.232 123.904C31.04 123.392 30.944 122.811 30.944 122.16V121.904C30.944 121.264 31.0453 120.693 31.248 120.192C31.4507 119.68 31.7227 119.253 32.064 118.912C32.4053 118.56 32.8053 118.293 33.264 118.112C33.7227 117.931 34.208 117.84 34.72 117.84C35.264 117.84 35.7707 117.963 36.24 118.208C36.72 118.443 37.088 118.811 37.344 119.312H37.536V114.8H38.784V126H37.536V124.784ZM34.88 125.04C35.2533 125.04 35.6 124.971 35.92 124.832C36.24 124.693 36.5173 124.496 36.752 124.24C36.9973 123.984 37.1893 123.68 37.328 123.328C37.4667 122.965 37.536 122.565 37.536 122.128V121.936C37.536 121.509 37.4667 121.12 37.328 120.768C37.1893 120.405 36.9973 120.096 36.752 119.84C36.5173 119.584 36.2347 119.387 35.904 119.248C35.584 119.099 35.2427 119.024 34.88 119.024C34.5067 119.024 34.1547 119.093 33.824 119.232C33.504 119.371 33.2213 119.568 32.976 119.824C32.7413 120.08 32.5547 120.384 32.416 120.736C32.288 121.088 32.224 121.477 32.224 121.904V122.16C32.224 122.608 32.288 123.008 32.416 123.36C32.5547 123.712 32.7413 124.016 32.976 124.272C33.2213 124.517 33.504 124.709 33.824 124.848C34.144 124.976 34.496 125.04 34.88 125.04ZM48.9969 122.128C48.9969 122.789 48.8849 123.376 48.6609 123.888C48.4475 124.389 48.1595 124.816 47.7969 125.168C47.4342 125.509 47.0075 125.771 46.5169 125.952C46.0369 126.133 45.5355 126.224 45.0129 126.224C44.4795 126.224 43.9729 126.133 43.4929 125.952C43.0129 125.771 42.5915 125.509 42.2289 125.168C41.8662 124.816 41.5729 124.389 41.3489 123.888C41.1355 123.376 41.0289 122.789 41.0289 122.128V121.936C41.0289 121.285 41.1355 120.709 41.3489 120.208C41.5729 119.696 41.8662 119.264 42.2289 118.912C42.6022 118.56 43.0289 118.293 43.5089 118.112C43.9889 117.931 44.4902 117.84 45.0129 117.84C45.5355 117.84 46.0369 117.931 46.5169 118.112C46.9969 118.293 47.4182 118.56 47.7809 118.912C48.1542 119.264 48.4475 119.696 48.6609 120.208C48.8849 120.709 48.9969 121.285 48.9969 121.936V122.128ZM45.0129 125.04C45.3969 125.04 45.7489 124.976 46.0689 124.848C46.3995 124.709 46.6875 124.512 46.9329 124.256C47.1782 124 47.3702 123.696 47.5089 123.344C47.6475 122.981 47.7169 122.576 47.7169 122.128V121.936C47.7169 121.509 47.6475 121.12 47.5089 120.768C47.3702 120.405 47.1782 120.096 46.9329 119.84C46.6875 119.584 46.3995 119.387 46.0689 119.248C45.7382 119.099 45.3862 119.024 45.0129 119.024C44.6395 119.024 44.2875 119.099 43.9569 119.248C43.6262 119.387 43.3382 119.584 43.0929 119.84C42.8475 120.096 42.6555 120.405 42.5169 120.768C42.3782 121.12 42.3089 121.509 42.3089 121.936V122.128C42.3089 122.576 42.3782 122.981 42.5169 123.344C42.6555 123.696 42.8475 124 43.0929 124.256C43.3382 124.512 43.6209 124.709 43.9409 124.848C44.2715 124.976 44.6289 125.04 45.0129 125.04ZM59.0497 123.184C58.9644 123.621 58.8151 124.027 58.6017 124.4C58.3991 124.773 58.1377 125.099 57.8177 125.376C57.4977 125.643 57.1244 125.851 56.6977 126C56.2711 126.149 55.7964 126.224 55.2737 126.224C54.7191 126.224 54.1911 126.133 53.6897 125.952C53.1991 125.771 52.7671 125.509 52.3937 125.168C52.0204 124.816 51.7217 124.389 51.4977 123.888C51.2844 123.387 51.1777 122.811 51.1777 122.16V121.968C51.1777 121.328 51.2844 120.752 51.4977 120.24C51.7217 119.728 52.0204 119.296 52.3937 118.944C52.7671 118.592 53.1991 118.32 53.6897 118.128C54.1911 117.936 54.7191 117.84 55.2737 117.84C55.7751 117.84 56.2391 117.915 56.6657 118.064C57.0924 118.213 57.4657 118.427 57.7857 118.704C58.1164 118.971 58.3831 119.291 58.5857 119.664C58.7991 120.037 58.9431 120.443 59.0177 120.88L57.7697 121.168C57.7377 120.891 57.6577 120.624 57.5297 120.368C57.4124 120.101 57.2471 119.872 57.0337 119.68C56.8311 119.477 56.5804 119.317 56.2817 119.2C55.9831 119.083 55.6364 119.024 55.2417 119.024C54.8577 119.024 54.4951 119.099 54.1537 119.248C53.8231 119.387 53.5297 119.589 53.2737 119.856C53.0177 120.112 52.8151 120.421 52.6657 120.784C52.5271 121.147 52.4577 121.541 52.4577 121.968V122.16C52.4577 122.608 52.5271 123.013 52.6657 123.376C52.8151 123.728 53.0177 124.027 53.2737 124.272C53.5297 124.517 53.8284 124.709 54.1697 124.848C54.5111 124.976 54.8791 125.04 55.2737 125.04C55.6684 125.04 56.0097 124.981 56.2977 124.864C56.5964 124.736 56.8471 124.576 57.0497 124.384C57.2631 124.181 57.4284 123.952 57.5457 123.696C57.6737 123.44 57.7591 123.173 57.8017 122.896L59.0497 123.184ZM67.4066 118.064H68.6546V126H67.4066V124.56H67.2146C66.9586 125.072 66.6226 125.477 66.2066 125.776C65.7906 126.075 65.2626 126.224 64.6226 126.224C64.1853 126.224 63.78 126.149 63.4066 126C63.044 125.861 62.7293 125.648 62.4626 125.36C62.2066 125.072 62.004 124.715 61.8546 124.288C61.716 123.861 61.6466 123.365 61.6466 122.8V118.064H62.8946V122.64C62.8946 123.472 63.0653 124.08 63.4066 124.464C63.748 124.848 64.2706 125.04 64.9746 125.04C65.732 125.04 66.324 124.784 66.7506 124.272C67.188 123.749 67.4066 123.056 67.4066 122.192V118.064ZM79.4915 126H78.2435V120.304C78.2435 119.931 78.1582 119.627 77.9875 119.392C77.8168 119.147 77.5448 119.024 77.1715 119.024C76.8195 119.024 76.5315 119.157 76.3075 119.424C76.0942 119.68 75.9875 120.08 75.9875 120.624V126H74.7395V120.24C74.7395 119.888 74.6435 119.6 74.4515 119.376C74.2595 119.141 74.0035 119.024 73.6835 119.024C73.2995 119.024 73.0008 119.163 72.7875 119.44C72.5848 119.717 72.4835 120.08 72.4835 120.528V126H71.2355V118.064H72.4835V118.928H72.6755C72.8142 118.555 73.0168 118.283 73.2835 118.112C73.5502 117.931 73.8648 117.84 74.2275 117.84C74.6115 117.84 74.9262 117.941 75.1715 118.144C75.4275 118.347 75.6035 118.608 75.6995 118.928H75.8915C76.2542 118.203 76.8302 117.84 77.6195 117.84C78.2168 117.84 78.6755 118.032 78.9955 118.416C79.3262 118.789 79.4915 119.28 79.4915 119.888V126ZM82.8884 122.416C82.9204 123.205 83.1657 123.84 83.6244 124.32C84.083 124.8 84.723 125.04 85.5444 125.04C85.9177 125.04 86.243 124.997 86.5204 124.912C86.7977 124.827 87.0324 124.709 87.2244 124.56C87.427 124.411 87.587 124.24 87.7044 124.048C87.8324 123.845 87.9337 123.632 88.0084 123.408L89.1924 123.728C88.9684 124.464 88.5524 125.067 87.9444 125.536C87.347 125.995 86.5364 126.224 85.5124 126.224C84.947 126.224 84.4244 126.128 83.9444 125.936C83.475 125.733 83.0697 125.451 82.7284 125.088C82.387 124.725 82.1204 124.293 81.9284 123.792C81.7364 123.291 81.6404 122.736 81.6404 122.128V121.744C81.6404 121.189 81.7364 120.672 81.9284 120.192C82.131 119.712 82.4084 119.301 82.7604 118.96C83.1124 118.608 83.523 118.336 83.9924 118.144C84.4724 117.941 84.9897 117.84 85.5444 117.84C86.195 117.84 86.755 117.963 87.2244 118.208C87.7044 118.443 88.0937 118.736 88.3924 119.088C88.7017 119.44 88.9257 119.824 89.0644 120.24C89.2137 120.656 89.2884 121.04 89.2884 121.392V122.416H82.8884ZM85.5444 119.024C85.1924 119.024 84.8617 119.083 84.5524 119.2C84.2537 119.307 83.987 119.461 83.7524 119.664C83.5284 119.867 83.3417 120.107 83.1924 120.384C83.0537 120.651 82.963 120.944 82.9204 121.264H88.0404C88.019 120.923 87.9337 120.613 87.7844 120.336C87.6457 120.059 87.459 119.824 87.2244 119.632C87.0004 119.44 86.739 119.291 86.4404 119.184C86.1524 119.077 85.8537 119.024 85.5444 119.024ZM93.3412 126H92.0932V118.064H93.3412V119.408H93.5332C94.0239 118.363 94.8772 117.84 96.0932 117.84C97.0106 117.84 97.7412 118.128 98.2852 118.704C98.8292 119.269 99.1012 120.123 99.1012 121.264V126H97.8532V121.52C97.8532 120.688 97.6666 120.064 97.2932 119.648C96.9199 119.232 96.4132 119.024 95.7732 119.024C95.0159 119.024 94.4186 119.285 93.9812 119.808C93.5546 120.32 93.3412 121.008 93.3412 121.872V126ZM101.938 118.064H104.434V114.8H105.682V118.064H108.754V119.216H105.682V124.368C105.682 124.688 105.826 124.848 106.114 124.848H108.37V126H105.666C105.303 126 105.005 125.883 104.77 125.648C104.546 125.413 104.434 125.115 104.434 124.752V119.216H101.938V118.064ZM118.087 124.656H117.895C117.639 125.189 117.282 125.584 116.823 125.84C116.375 126.096 115.9 126.224 115.399 126.224C114.876 126.224 114.391 126.139 113.943 125.968C113.495 125.787 113.1 125.525 112.759 125.184C112.428 124.832 112.167 124.405 111.975 123.904C111.783 123.403 111.687 122.821 111.687 122.16V121.904C111.687 121.253 111.783 120.677 111.975 120.176C112.167 119.675 112.428 119.253 112.759 118.912C113.1 118.56 113.495 118.293 113.943 118.112C114.391 117.931 114.866 117.84 115.367 117.84C115.911 117.84 116.402 117.963 116.839 118.208C117.287 118.443 117.639 118.811 117.895 119.312H118.087V118.064H119.335V124.368C119.335 124.688 119.479 124.848 119.767 124.848H120.167V126H119.319C118.956 126 118.658 125.883 118.423 125.648C118.199 125.413 118.087 125.115 118.087 124.752V124.656ZM115.527 125.04C115.9 125.04 116.242 124.971 116.551 124.832C116.871 124.693 117.143 124.496 117.367 124.24C117.591 123.984 117.767 123.68 117.895 123.328C118.023 122.965 118.087 122.565 118.087 122.128V121.936C118.087 121.509 118.023 121.12 117.895 120.768C117.767 120.405 117.586 120.096 117.351 119.84C117.127 119.584 116.855 119.387 116.535 119.248C116.226 119.099 115.89 119.024 115.527 119.024C115.154 119.024 114.812 119.093 114.503 119.232C114.194 119.371 113.922 119.568 113.687 119.824C113.463 120.069 113.287 120.373 113.159 120.736C113.031 121.088 112.967 121.477 112.967 121.904V122.16C112.967 123.067 113.202 123.776 113.671 124.288C114.151 124.789 114.77 125.04 115.527 125.04ZM121.996 118.064H124.876V119.12H125.068C125.271 118.683 125.559 118.363 125.932 118.16C126.305 117.947 126.732 117.84 127.212 117.84C128.012 117.84 128.657 118.101 129.148 118.624C129.639 119.147 129.9 119.909 129.932 120.912L128.62 121.104C128.62 120.368 128.444 119.84 128.092 119.52C127.74 119.189 127.308 119.024 126.796 119.024C126.465 119.024 126.177 119.088 125.932 119.216C125.697 119.344 125.5 119.52 125.34 119.744C125.18 119.968 125.063 120.229 124.988 120.528C124.913 120.827 124.876 121.147 124.876 121.488V124.848H126.892V126H121.804V124.848H123.628V119.216H121.996V118.064ZM138.321 124.56H138.129C137.873 125.072 137.537 125.477 137.121 125.776C136.705 126.075 136.177 126.224 135.537 126.224C135.099 126.224 134.694 126.149 134.321 126C133.958 125.861 133.643 125.648 133.377 125.36C133.121 125.072 132.918 124.715 132.769 124.288C132.63 123.861 132.561 123.365 132.561 122.8V118.064H133.809V122.64C133.809 123.472 133.979 124.08 134.321 124.464C134.662 124.848 135.185 125.04 135.889 125.04C136.646 125.04 137.238 124.784 137.665 124.272C138.102 123.749 138.321 123.056 138.321 122.192V118.064H139.569V127.952C139.569 128.315 139.451 128.613 139.217 128.848C138.993 129.083 138.699 129.2 138.337 129.2H133.809V128.048H137.889C138.177 128.048 138.321 127.888 138.321 127.568V124.56ZM150.022 127.312V128.496H149.446C148.699 128.496 147.984 128.357 147.302 128.08C146.619 127.803 146.016 127.397 145.494 126.864C144.971 126.341 144.555 125.707 144.246 124.96C143.936 124.213 143.782 123.365 143.782 122.416V118.384C143.782 117.445 143.936 116.603 144.246 115.856C144.555 115.099 144.971 114.459 145.494 113.936C146.016 113.403 146.619 112.997 147.302 112.72C147.984 112.443 148.699 112.304 149.446 112.304H150.022V113.488H149.446C148.87 113.488 148.315 113.605 147.782 113.84C147.248 114.064 146.779 114.389 146.374 114.816C145.968 115.243 145.643 115.765 145.398 116.384C145.152 116.992 145.03 117.68 145.03 118.448V122.352C145.03 123.12 145.152 123.813 145.398 124.432C145.643 125.04 145.968 125.557 146.374 125.984C146.779 126.411 147.248 126.736 147.782 126.96C148.315 127.195 148.87 127.312 149.446 127.312H150.022ZM157.514 126H155.05L152.282 118.064H153.754L156.186 125.424H156.378L158.81 118.064H160.282L157.514 126ZM165.375 115.696C165.375 115.387 165.482 115.125 165.695 114.912C165.919 114.688 166.186 114.576 166.495 114.576C166.805 114.576 167.066 114.688 167.279 114.912C167.503 115.125 167.615 115.387 167.615 115.696C167.615 116.005 167.503 116.272 167.279 116.496C167.066 116.709 166.805 116.816 166.495 116.816C166.186 116.816 165.919 116.709 165.695 116.496C165.482 116.272 165.375 116.005 165.375 115.696ZM163.103 124.848H165.887V119.216H163.391V118.064H167.135V124.848H169.727V126H163.103V124.848ZM179.172 124.784H178.98C178.852 125.029 178.687 125.243 178.484 125.424C178.292 125.605 178.079 125.755 177.844 125.872C177.62 125.989 177.38 126.075 177.124 126.128C176.868 126.192 176.623 126.224 176.388 126.224C175.855 126.224 175.359 126.133 174.9 125.952C174.442 125.771 174.036 125.509 173.684 125.168C173.343 124.827 173.071 124.405 172.868 123.904C172.676 123.392 172.58 122.811 172.58 122.16V121.904C172.58 121.264 172.682 120.693 172.884 120.192C173.087 119.68 173.359 119.253 173.7 118.912C174.042 118.56 174.442 118.293 174.9 118.112C175.359 117.931 175.844 117.84 176.356 117.84C176.9 117.84 177.407 117.963 177.876 118.208C178.356 118.443 178.724 118.811 178.98 119.312H179.172V114.8H180.42V126H179.172V124.784ZM176.516 125.04C176.89 125.04 177.236 124.971 177.556 124.832C177.876 124.693 178.154 124.496 178.388 124.24C178.634 123.984 178.826 123.68 178.964 123.328C179.103 122.965 179.172 122.565 179.172 122.128V121.936C179.172 121.509 179.103 121.12 178.964 120.768C178.826 120.405 178.634 120.096 178.388 119.84C178.154 119.584 177.871 119.387 177.54 119.248C177.22 119.099 176.879 119.024 176.516 119.024C176.143 119.024 175.791 119.093 175.46 119.232C175.14 119.371 174.858 119.568 174.612 119.824C174.378 120.08 174.191 120.384 174.052 120.736C173.924 121.088 173.86 121.477 173.86 121.904V122.16C173.86 122.608 173.924 123.008 174.052 123.36C174.191 123.712 174.378 124.016 174.612 124.272C174.858 124.517 175.14 124.709 175.46 124.848C175.78 124.976 176.132 125.04 176.516 125.04ZM184.057 122.416C184.089 123.205 184.334 123.84 184.793 124.32C185.252 124.8 185.892 125.04 186.713 125.04C187.086 125.04 187.412 124.997 187.689 124.912C187.966 124.827 188.201 124.709 188.393 124.56C188.596 124.411 188.756 124.24 188.873 124.048C189.001 123.845 189.102 123.632 189.177 123.408L190.361 123.728C190.137 124.464 189.721 125.067 189.113 125.536C188.516 125.995 187.705 126.224 186.681 126.224C186.116 126.224 185.593 126.128 185.113 125.936C184.644 125.733 184.238 125.451 183.897 125.088C183.556 124.725 183.289 124.293 183.097 123.792C182.905 123.291 182.809 122.736 182.809 122.128V121.744C182.809 121.189 182.905 120.672 183.097 120.192C183.3 119.712 183.577 119.301 183.929 118.96C184.281 118.608 184.692 118.336 185.161 118.144C185.641 117.941 186.158 117.84 186.713 117.84C187.364 117.84 187.924 117.963 188.393 118.208C188.873 118.443 189.262 118.736 189.561 119.088C189.87 119.44 190.094 119.824 190.233 120.24C190.382 120.656 190.457 121.04 190.457 121.392V122.416H184.057ZM186.713 119.024C186.361 119.024 186.03 119.083 185.721 119.2C185.422 119.307 185.156 119.461 184.921 119.664C184.697 119.867 184.51 120.107 184.361 120.384C184.222 120.651 184.132 120.944 184.089 121.264H189.209C189.188 120.923 189.102 120.613 188.953 120.336C188.814 120.059 188.628 119.824 188.393 119.632C188.169 119.44 187.908 119.291 187.609 119.184C187.321 119.077 187.022 119.024 186.713 119.024ZM200.75 122.128C200.75 122.789 200.638 123.376 200.414 123.888C200.201 124.389 199.913 124.816 199.55 125.168C199.187 125.509 198.761 125.771 198.27 125.952C197.79 126.133 197.289 126.224 196.766 126.224C196.233 126.224 195.726 126.133 195.246 125.952C194.766 125.771 194.345 125.509 193.982 125.168C193.619 124.816 193.326 124.389 193.102 123.888C192.889 123.376 192.782 122.789 192.782 122.128V121.936C192.782 121.285 192.889 120.709 193.102 120.208C193.326 119.696 193.619 119.264 193.982 118.912C194.355 118.56 194.782 118.293 195.262 118.112C195.742 117.931 196.243 117.84 196.766 117.84C197.289 117.84 197.79 117.931 198.27 118.112C198.75 118.293 199.171 118.56 199.534 118.912C199.907 119.264 200.201 119.696 200.414 120.208C200.638 120.709 200.75 121.285 200.75 121.936V122.128ZM196.766 125.04C197.15 125.04 197.502 124.976 197.822 124.848C198.153 124.709 198.441 124.512 198.686 124.256C198.931 124 199.123 123.696 199.262 123.344C199.401 122.981 199.47 122.576 199.47 122.128V121.936C199.47 121.509 199.401 121.12 199.262 120.768C199.123 120.405 198.931 120.096 198.686 119.84C198.441 119.584 198.153 119.387 197.822 119.248C197.491 119.099 197.139 119.024 196.766 119.024C196.393 119.024 196.041 119.099 195.71 119.248C195.379 119.387 195.091 119.584 194.846 119.84C194.601 120.096 194.409 120.405 194.27 120.768C194.131 121.12 194.062 121.509 194.062 121.936V122.128C194.062 122.576 194.131 122.981 194.27 123.344C194.409 123.696 194.601 124 194.846 124.256C195.091 124.512 195.374 124.709 195.694 124.848C196.025 124.976 196.382 125.04 196.766 125.04ZM203.619 127.312C204.195 127.312 204.75 127.195 205.283 126.96C205.816 126.736 206.286 126.411 206.691 125.984C207.096 125.557 207.422 125.04 207.667 124.432C207.912 123.813 208.035 123.12 208.035 122.352V118.448C208.035 117.68 207.912 116.992 207.667 116.384C207.422 115.765 207.096 115.243 206.691 114.816C206.286 114.389 205.816 114.064 205.283 113.84C204.75 113.605 204.195 113.488 203.619 113.488H203.043V112.304H203.619C204.366 112.304 205.08 112.443 205.763 112.72C206.446 112.997 207.048 113.403 207.571 113.936C208.094 114.459 208.51 115.099 208.819 115.856C209.128 116.603 209.283 117.445 209.283 118.384V122.416C209.283 123.365 209.128 124.213 208.819 124.96C208.51 125.707 208.094 126.341 207.571 126.864C207.048 127.397 206.446 127.803 205.763 128.08C205.08 128.357 204.366 128.496 203.619 128.496H203.043V127.312H203.619ZM226.86 118.064H229.356V114.8H230.604V118.064H233.676V119.216H230.604V124.368C230.604 124.688 230.748 124.848 231.036 124.848H233.292V126H230.588C230.226 126 229.927 125.883 229.692 125.648C229.468 125.413 229.356 125.115 229.356 124.752V119.216H226.86V118.064ZM238.497 126H237.249V114.8H238.497V119.504H238.689C238.934 118.992 239.276 118.587 239.713 118.288C240.161 117.989 240.705 117.84 241.345 117.84C242.209 117.84 242.908 118.128 243.441 118.704C243.985 119.269 244.257 120.123 244.257 121.264V126H243.009V121.52C243.009 120.688 242.822 120.064 242.449 119.648C242.076 119.232 241.569 119.024 240.929 119.024C240.172 119.024 239.574 119.285 239.137 119.808C238.71 120.32 238.497 121.008 238.497 121.872V126ZM253.126 124.656H252.934C252.678 125.189 252.321 125.584 251.862 125.84C251.414 126.096 250.939 126.224 250.438 126.224C249.915 126.224 249.43 126.139 248.982 125.968C248.534 125.787 248.139 125.525 247.798 125.184C247.467 124.832 247.206 124.405 247.014 123.904C246.822 123.403 246.726 122.821 246.726 122.16V121.904C246.726 121.253 246.822 120.677 247.014 120.176C247.206 119.675 247.467 119.253 247.798 118.912C248.139 118.56 248.534 118.293 248.982 118.112C249.43 117.931 249.905 117.84 250.406 117.84C250.95 117.84 251.441 117.963 251.878 118.208C252.326 118.443 252.678 118.811 252.934 119.312H253.126V118.064H254.374V124.368C254.374 124.688 254.518 124.848 254.806 124.848H255.206V126H254.358C253.995 126 253.697 125.883 253.462 125.648C253.238 125.413 253.126 125.115 253.126 124.752V124.656ZM250.566 125.04C250.939 125.04 251.281 124.971 251.59 124.832C251.91 124.693 252.182 124.496 252.406 124.24C252.63 123.984 252.806 123.68 252.934 123.328C253.062 122.965 253.126 122.565 253.126 122.128V121.936C253.126 121.509 253.062 121.12 252.934 120.768C252.806 120.405 252.625 120.096 252.39 119.84C252.166 119.584 251.894 119.387 251.574 119.248C251.265 119.099 250.929 119.024 250.566 119.024C250.193 119.024 249.851 119.093 249.542 119.232C249.233 119.371 248.961 119.568 248.726 119.824C248.502 120.069 248.326 120.373 248.198 120.736C248.07 121.088 248.006 121.477 248.006 121.904V122.16C248.006 123.067 248.241 123.776 248.71 124.288C249.19 124.789 249.809 125.04 250.566 125.04ZM257.211 118.064H259.707V114.8H260.955V118.064H264.027V119.216H260.955V124.368C260.955 124.688 261.099 124.848 261.387 124.848H263.643V126H260.939C260.576 126 260.277 125.883 260.043 125.648C259.819 125.413 259.707 125.115 259.707 124.752V119.216H257.211V118.064ZM288.66 123.184C288.575 123.621 288.425 124.027 288.212 124.4C288.009 124.773 287.748 125.099 287.428 125.376C287.108 125.643 286.735 125.851 286.308 126C285.881 126.149 285.407 126.224 284.884 126.224C284.329 126.224 283.801 126.133 283.3 125.952C282.809 125.771 282.377 125.509 282.004 125.168C281.631 124.816 281.332 124.389 281.108 123.888C280.895 123.387 280.788 122.811 280.788 122.16V121.968C280.788 121.328 280.895 120.752 281.108 120.24C281.332 119.728 281.631 119.296 282.004 118.944C282.377 118.592 282.809 118.32 283.3 118.128C283.801 117.936 284.329 117.84 284.884 117.84C285.385 117.84 285.849 117.915 286.276 118.064C286.703 118.213 287.076 118.427 287.396 118.704C287.727 118.971 287.993 119.291 288.196 119.664C288.409 120.037 288.553 120.443 288.628 120.88L287.38 121.168C287.348 120.891 287.268 120.624 287.14 120.368C287.023 120.101 286.857 119.872 286.644 119.68C286.441 119.477 286.191 119.317 285.892 119.2C285.593 119.083 285.247 119.024 284.852 119.024C284.468 119.024 284.105 119.099 283.764 119.248C283.433 119.387 283.14 119.589 282.884 119.856C282.628 120.112 282.425 120.421 282.276 120.784C282.137 121.147 282.068 121.541 282.068 121.968V122.16C282.068 122.608 282.137 123.013 282.276 123.376C282.425 123.728 282.628 124.027 282.884 124.272C283.14 124.517 283.439 124.709 283.78 124.848C284.121 124.976 284.489 125.04 284.884 125.04C285.279 125.04 285.62 124.981 285.908 124.864C286.207 124.736 286.457 124.576 286.66 124.384C286.873 124.181 287.039 123.952 287.156 123.696C287.284 123.44 287.369 123.173 287.412 122.896L288.66 123.184ZM297.113 124.656H296.921C296.665 125.189 296.308 125.584 295.849 125.84C295.401 126.096 294.926 126.224 294.425 126.224C293.902 126.224 293.417 126.139 292.969 125.968C292.521 125.787 292.126 125.525 291.785 125.184C291.454 124.832 291.193 124.405 291.001 123.904C290.809 123.403 290.713 122.821 290.713 122.16V121.904C290.713 121.253 290.809 120.677 291.001 120.176C291.193 119.675 291.454 119.253 291.785 118.912C292.126 118.56 292.521 118.293 292.969 118.112C293.417 117.931 293.892 117.84 294.393 117.84C294.937 117.84 295.428 117.963 295.865 118.208C296.313 118.443 296.665 118.811 296.921 119.312H297.113V118.064H298.361V124.368C298.361 124.688 298.505 124.848 298.793 124.848H299.193V126H298.345C297.982 126 297.684 125.883 297.449 125.648C297.225 125.413 297.113 125.115 297.113 124.752V124.656ZM294.553 125.04C294.926 125.04 295.268 124.971 295.577 124.832C295.897 124.693 296.169 124.496 296.393 124.24C296.617 123.984 296.793 123.68 296.921 123.328C297.049 122.965 297.113 122.565 297.113 122.128V121.936C297.113 121.509 297.049 121.12 296.921 120.768C296.793 120.405 296.612 120.096 296.377 119.84C296.153 119.584 295.881 119.387 295.561 119.248C295.252 119.099 294.916 119.024 294.553 119.024C294.18 119.024 293.838 119.093 293.529 119.232C293.22 119.371 292.948 119.568 292.713 119.824C292.489 120.069 292.313 120.373 292.185 120.736C292.057 121.088 291.993 121.477 291.993 121.904V122.16C291.993 123.067 292.228 123.776 292.697 124.288C293.177 124.789 293.796 125.04 294.553 125.04ZM302.43 129.2H301.182V118.064H302.43V119.312H302.622C302.899 118.832 303.283 118.469 303.774 118.224C304.265 117.968 304.798 117.84 305.374 117.84C305.865 117.84 306.329 117.931 306.766 118.112C307.203 118.293 307.587 118.555 307.918 118.896C308.259 119.237 308.526 119.659 308.718 120.16C308.921 120.661 309.022 121.232 309.022 121.872V122.192C309.022 122.843 308.926 123.419 308.734 123.92C308.542 124.421 308.275 124.843 307.934 125.184C307.603 125.525 307.214 125.787 306.766 125.968C306.318 126.139 305.843 126.224 305.342 126.224C305.086 126.224 304.825 126.192 304.558 126.128C304.291 126.075 304.035 125.989 303.79 125.872C303.555 125.744 303.337 125.595 303.134 125.424C302.931 125.243 302.761 125.029 302.622 124.784H302.43V129.2ZM305.086 125.04C305.47 125.04 305.822 124.976 306.142 124.848C306.462 124.709 306.739 124.517 306.974 124.272C307.219 124.027 307.406 123.728 307.534 123.376C307.673 123.024 307.742 122.629 307.742 122.192V121.872C307.742 121.445 307.673 121.061 307.534 120.72C307.406 120.368 307.219 120.069 306.974 119.824C306.739 119.568 306.457 119.371 306.126 119.232C305.806 119.093 305.459 119.024 305.086 119.024C304.713 119.024 304.366 119.099 304.046 119.248C303.726 119.387 303.443 119.584 303.198 119.84C302.963 120.096 302.777 120.405 302.638 120.768C302.499 121.12 302.43 121.509 302.43 121.936V122.128C302.43 122.565 302.499 122.965 302.638 123.328C302.777 123.68 302.963 123.984 303.198 124.24C303.443 124.496 303.726 124.693 304.046 124.832C304.366 124.971 304.713 125.04 305.086 125.04ZM311.315 118.064H313.811V114.8H315.059V118.064H318.131V119.216H315.059V124.368C315.059 124.688 315.203 124.848 315.491 124.848H317.747V126H315.043C314.68 126 314.381 125.883 314.147 125.648C313.923 125.413 313.811 125.115 313.811 124.752V119.216H311.315V118.064ZM324.168 115.696C324.168 115.387 324.274 115.125 324.488 114.912C324.712 114.688 324.978 114.576 325.288 114.576C325.597 114.576 325.858 114.688 326.072 114.912C326.296 115.125 326.408 115.387 326.408 115.696C326.408 116.005 326.296 116.272 326.072 116.496C325.858 116.709 325.597 116.816 325.288 116.816C324.978 116.816 324.712 116.709 324.488 116.496C324.274 116.272 324.168 116.005 324.168 115.696ZM321.896 124.848H324.68V119.216H322.184V118.064H325.928V124.848H328.52V126H321.896V124.848ZM336.541 126H334.077L331.309 118.064H332.781L335.213 125.424H335.405L337.837 118.064H339.309L336.541 126ZM347.697 124.656H347.505C347.249 125.189 346.892 125.584 346.433 125.84C345.985 126.096 345.511 126.224 345.009 126.224C344.487 126.224 344.001 126.139 343.553 125.968C343.105 125.787 342.711 125.525 342.369 125.184C342.039 124.832 341.777 124.405 341.585 123.904C341.393 123.403 341.297 122.821 341.297 122.16V121.904C341.297 121.253 341.393 120.677 341.585 120.176C341.777 119.675 342.039 119.253 342.369 118.912C342.711 118.56 343.105 118.293 343.553 118.112C344.001 117.931 344.476 117.84 344.977 117.84C345.521 117.84 346.012 117.963 346.449 118.208C346.897 118.443 347.249 118.811 347.505 119.312H347.697V118.064H348.945V124.368C348.945 124.688 349.089 124.848 349.377 124.848H349.777V126H348.929C348.567 126 348.268 125.883 348.033 125.648C347.809 125.413 347.697 125.115 347.697 124.752V124.656ZM345.137 125.04C345.511 125.04 345.852 124.971 346.161 124.832C346.481 124.693 346.753 124.496 346.977 124.24C347.201 123.984 347.377 123.68 347.505 123.328C347.633 122.965 347.697 122.565 347.697 122.128V121.936C347.697 121.509 347.633 121.12 347.505 120.768C347.377 120.405 347.196 120.096 346.961 119.84C346.737 119.584 346.465 119.387 346.145 119.248C345.836 119.099 345.5 119.024 345.137 119.024C344.764 119.024 344.423 119.093 344.113 119.232C343.804 119.371 343.532 119.568 343.297 119.824C343.073 120.069 342.897 120.373 342.769 120.736C342.641 121.088 342.577 121.477 342.577 121.904V122.16C342.577 123.067 342.812 123.776 343.281 124.288C343.761 124.789 344.38 125.04 345.137 125.04ZM351.782 118.064H354.278V114.8H355.526V118.064H358.598V119.216H355.526V124.368C355.526 124.688 355.67 124.848 355.958 124.848H358.214V126H355.51C355.148 126 354.849 125.883 354.614 125.648C354.39 125.413 354.278 125.115 354.278 124.752V119.216H351.782V118.064ZM363.083 122.416C363.115 123.205 363.36 123.84 363.819 124.32C364.278 124.8 364.918 125.04 365.739 125.04C366.112 125.04 366.438 124.997 366.715 124.912C366.992 124.827 367.227 124.709 367.419 124.56C367.622 124.411 367.782 124.24 367.899 124.048C368.027 123.845 368.128 123.632 368.203 123.408L369.387 123.728C369.163 124.464 368.747 125.067 368.139 125.536C367.542 125.995 366.731 126.224 365.707 126.224C365.142 126.224 364.619 126.128 364.139 125.936C363.67 125.733 363.264 125.451 362.923 125.088C362.582 124.725 362.315 124.293 362.123 123.792C361.931 123.291 361.835 122.736 361.835 122.128V121.744C361.835 121.189 361.931 120.672 362.123 120.192C362.326 119.712 362.603 119.301 362.955 118.96C363.307 118.608 363.718 118.336 364.187 118.144C364.667 117.941 365.184 117.84 365.739 117.84C366.39 117.84 366.95 117.963 367.419 118.208C367.899 118.443 368.288 118.736 368.587 119.088C368.896 119.44 369.12 119.824 369.259 120.24C369.408 120.656 369.483 121.04 369.483 121.392V122.416H363.083ZM365.739 119.024C365.387 119.024 365.056 119.083 364.747 119.2C364.448 119.307 364.182 119.461 363.947 119.664C363.723 119.867 363.536 120.107 363.387 120.384C363.248 120.651 363.158 120.944 363.115 121.264H368.235C368.214 120.923 368.128 120.613 367.979 120.336C367.84 120.059 367.654 119.824 367.419 119.632C367.195 119.44 366.934 119.291 366.635 119.184C366.347 119.077 366.048 119.024 365.739 119.024ZM373.936 120.112C373.936 120.496 374.096 120.789 374.416 120.992C374.747 121.195 375.344 121.328 376.208 121.392C377.136 121.467 377.84 121.691 378.32 122.064C378.811 122.427 379.056 122.96 379.056 123.664V123.76C379.056 124.144 378.976 124.491 378.816 124.8C378.667 125.099 378.453 125.355 378.176 125.568C377.909 125.781 377.579 125.941 377.184 126.048C376.8 126.165 376.379 126.224 375.92 126.224C375.301 126.224 374.768 126.144 374.32 125.984C373.883 125.813 373.515 125.595 373.216 125.328C372.928 125.051 372.709 124.741 372.56 124.4C372.411 124.048 372.325 123.696 372.304 123.344L373.488 123.056C373.541 123.664 373.776 124.155 374.192 124.528C374.608 124.891 375.163 125.072 375.856 125.072C376.443 125.072 376.912 124.96 377.264 124.736C377.627 124.501 377.808 124.176 377.808 123.76C377.808 123.312 377.632 122.992 377.28 122.8C376.928 122.608 376.357 122.485 375.568 122.432C374.651 122.368 373.947 122.155 373.456 121.792C372.965 121.429 372.72 120.901 372.72 120.208V120.112C372.72 119.739 372.8 119.413 372.96 119.136C373.12 118.848 373.333 118.608 373.6 118.416C373.877 118.224 374.187 118.08 374.528 117.984C374.869 117.888 375.227 117.84 375.6 117.84C376.123 117.84 376.581 117.915 376.976 118.064C377.371 118.203 377.701 118.389 377.968 118.624C378.235 118.848 378.437 119.109 378.576 119.408C378.725 119.707 378.821 120.005 378.864 120.304L377.68 120.592C377.627 120.08 377.419 119.68 377.056 119.392C376.704 119.104 376.24 118.96 375.664 118.96C375.44 118.96 375.221 118.987 375.008 119.04C374.805 119.083 374.624 119.152 374.464 119.248C374.304 119.344 374.176 119.467 374.08 119.616C373.984 119.755 373.936 119.92 373.936 120.112ZM395.769 118.064H398.265V114.8H399.513V118.064H402.585V119.216H399.513V124.368C399.513 124.688 399.657 124.848 399.945 124.848H402.201V126H399.497C399.135 126 398.836 125.883 398.601 125.648C398.377 125.413 398.265 125.115 398.265 124.752V119.216H395.769V118.064ZM407.406 126H406.158V114.8H407.406V119.504H407.598C407.844 118.992 408.185 118.587 408.622 118.288C409.07 117.989 409.614 117.84 410.254 117.84C411.118 117.84 411.817 118.128 412.35 118.704C412.894 119.269 413.166 120.123 413.166 121.264V126H411.918V121.52C411.918 120.688 411.732 120.064 411.358 119.648C410.985 119.232 410.478 119.024 409.838 119.024C409.081 119.024 408.484 119.285 408.046 119.808C407.62 120.32 407.406 121.008 407.406 121.872V126ZM417.187 122.416C417.219 123.205 417.464 123.84 417.923 124.32C418.382 124.8 419.022 125.04 419.843 125.04C420.216 125.04 420.542 124.997 420.819 124.912C421.096 124.827 421.331 124.709 421.523 124.56C421.726 124.411 421.886 124.24 422.003 124.048C422.131 123.845 422.232 123.632 422.307 123.408L423.491 123.728C423.267 124.464 422.851 125.067 422.243 125.536C421.646 125.995 420.835 126.224 419.811 126.224C419.246 126.224 418.723 126.128 418.243 125.936C417.774 125.733 417.368 125.451 417.027 125.088C416.686 124.725 416.419 124.293 416.227 123.792C416.035 123.291 415.939 122.736 415.939 122.128V121.744C415.939 121.189 416.035 120.672 416.227 120.192C416.43 119.712 416.707 119.301 417.059 118.96C417.411 118.608 417.822 118.336 418.291 118.144C418.771 117.941 419.288 117.84 419.843 117.84C420.494 117.84 421.054 117.963 421.523 118.208C422.003 118.443 422.392 118.736 422.691 119.088C423 119.44 423.224 119.824 423.363 120.24C423.512 120.656 423.587 121.04 423.587 121.392V122.416H417.187ZM419.843 119.024C419.491 119.024 419.16 119.083 418.851 119.2C418.552 119.307 418.286 119.461 418.051 119.664C417.827 119.867 417.64 120.107 417.491 120.384C417.352 120.651 417.262 120.944 417.219 121.264H422.339C422.318 120.923 422.232 120.613 422.083 120.336C421.944 120.059 421.758 119.824 421.523 119.632C421.299 119.44 421.038 119.291 420.739 119.184C420.451 119.077 420.152 119.024 419.843 119.024ZM32.352 158.2H31.104V147.064H32.352V148.312H32.544C32.8213 147.832 33.2053 147.469 33.696 147.224C34.1867 146.968 34.72 146.84 35.296 146.84C35.7867 146.84 36.2507 146.931 36.688 147.112C37.1253 147.293 37.5093 147.555 37.84 147.896C38.1813 148.237 38.448 148.659 38.64 149.16C38.8427 149.661 38.944 150.232 38.944 150.872V151.192C38.944 151.843 38.848 152.419 38.656 152.92C38.464 153.421 38.1973 153.843 37.856 154.184C37.5253 154.525 37.136 154.787 36.688 154.968C36.24 155.139 35.7653 155.224 35.264 155.224C35.008 155.224 34.7467 155.192 34.48 155.128C34.2133 155.075 33.9573 154.989 33.712 154.872C33.4773 154.744 33.2587 154.595 33.056 154.424C32.8533 154.243 32.6827 154.029 32.544 153.784H32.352V158.2ZM35.008 154.04C35.392 154.04 35.744 153.976 36.064 153.848C36.384 153.709 36.6613 153.517 36.896 153.272C37.1413 153.027 37.328 152.728 37.456 152.376C37.5947 152.024 37.664 151.629 37.664 151.192V150.872C37.664 150.445 37.5947 150.061 37.456 149.72C37.328 149.368 37.1413 149.069 36.896 148.824C36.6613 148.568 36.3787 148.371 36.048 148.232C35.728 148.093 35.3813 148.024 35.008 148.024C34.6347 148.024 34.288 148.099 33.968 148.248C33.648 148.387 33.3653 148.584 33.12 148.84C32.8853 149.096 32.6987 149.405 32.56 149.768C32.4213 150.12 32.352 150.509 32.352 150.936V151.128C32.352 151.565 32.4213 151.965 32.56 152.328C32.6987 152.68 32.8853 152.984 33.12 153.24C33.3653 153.496 33.648 153.693 33.968 153.832C34.288 153.971 34.6347 154.04 35.008 154.04ZM41.0609 147.064H43.9409V148.12H44.1329C44.3355 147.683 44.6235 147.363 44.9969 147.16C45.3702 146.947 45.7969 146.84 46.2769 146.84C47.0769 146.84 47.7222 147.101 48.2129 147.624C48.7035 148.147 48.9649 148.909 48.9969 149.912L47.6849 150.104C47.6849 149.368 47.5089 148.84 47.1569 148.52C46.8049 148.189 46.3729 148.024 45.8609 148.024C45.5302 148.024 45.2422 148.088 44.9969 148.216C44.7622 148.344 44.5649 148.52 44.4049 148.744C44.2449 148.968 44.1275 149.229 44.0529 149.528C43.9782 149.827 43.9409 150.147 43.9409 150.488V153.848H45.9569V155H40.8689V153.848H42.6929V148.216H41.0609V147.064ZM59.1137 151.128C59.1137 151.789 59.0017 152.376 58.7778 152.888C58.5644 153.389 58.2764 153.816 57.9137 154.168C57.5511 154.509 57.1244 154.771 56.6337 154.952C56.1537 155.133 55.6524 155.224 55.1297 155.224C54.5964 155.224 54.0897 155.133 53.6097 154.952C53.1297 154.771 52.7084 154.509 52.3457 154.168C51.9831 153.816 51.6897 153.389 51.4657 152.888C51.2524 152.376 51.1457 151.789 51.1457 151.128V150.936C51.1457 150.285 51.2524 149.709 51.4657 149.208C51.6897 148.696 51.9831 148.264 52.3457 147.912C52.7191 147.56 53.1457 147.293 53.6257 147.112C54.1057 146.931 54.6071 146.84 55.1297 146.84C55.6524 146.84 56.1537 146.931 56.6337 147.112C57.1137 147.293 57.5351 147.56 57.8977 147.912C58.2711 148.264 58.5644 148.696 58.7778 149.208C59.0017 149.709 59.1137 150.285 59.1137 150.936V151.128ZM55.1297 154.04C55.5137 154.04 55.8657 153.976 56.1857 153.848C56.5164 153.709 56.8044 153.512 57.0497 153.256C57.2951 153 57.4871 152.696 57.6257 152.344C57.7644 151.981 57.8337 151.576 57.8337 151.128V150.936C57.8337 150.509 57.7644 150.12 57.6257 149.768C57.4871 149.405 57.2951 149.096 57.0497 148.84C56.8044 148.584 56.5164 148.387 56.1857 148.248C55.8551 148.099 55.5031 148.024 55.1297 148.024C54.7564 148.024 54.4044 148.099 54.0737 148.248C53.7431 148.387 53.4551 148.584 53.2097 148.84C52.9644 149.096 52.7724 149.405 52.6337 149.768C52.4951 150.12 52.4257 150.509 52.4257 150.936V151.128C52.4257 151.576 52.4951 151.981 52.6337 152.344C52.7724 152.696 52.9644 153 53.2097 153.256C53.4551 153.512 53.7377 153.709 54.0577 153.848C54.3884 153.976 54.7457 154.04 55.1297 154.04ZM62.7026 155H61.4546V143.8H62.7026V148.312H62.8946C63.172 147.832 63.556 147.469 64.0466 147.224C64.5373 146.968 65.0706 146.84 65.6466 146.84C66.1373 146.84 66.6013 146.931 67.0386 147.112C67.476 147.293 67.86 147.555 68.1906 147.896C68.532 148.237 68.7986 148.659 68.9906 149.16C69.1933 149.661 69.2946 150.232 69.2946 150.872V151.192C69.2946 151.843 69.1986 152.419 69.0066 152.92C68.8146 153.421 68.548 153.843 68.2066 154.184C67.876 154.525 67.4866 154.787 67.0386 154.968C66.5906 155.139 66.116 155.224 65.6146 155.224C65.3586 155.224 65.0973 155.192 64.8306 155.128C64.564 155.075 64.308 154.989 64.0626 154.872C63.828 154.744 63.6093 154.595 63.4066 154.424C63.204 154.243 63.0333 154.029 62.8946 153.784H62.7026V155ZM65.3586 154.04C65.7426 154.04 66.0946 153.976 66.4146 153.848C66.7346 153.709 67.012 153.517 67.2466 153.272C67.492 153.027 67.6786 152.728 67.8066 152.376C67.9453 152.024 68.0146 151.629 68.0146 151.192V150.872C68.0146 150.445 67.9453 150.061 67.8066 149.72C67.6786 149.368 67.492 149.069 67.2466 148.824C67.012 148.568 66.7293 148.371 66.3986 148.232C66.0786 148.093 65.732 148.024 65.3586 148.024C64.9853 148.024 64.6386 148.099 64.3186 148.248C63.9986 148.387 63.716 148.584 63.4706 148.84C63.236 149.096 63.0493 149.405 62.9106 149.768C62.772 150.12 62.7026 150.509 62.7026 150.936V151.128C62.7026 151.565 62.772 151.965 62.9106 152.328C63.0493 152.68 63.236 152.984 63.4706 153.24C63.716 153.496 63.9986 153.693 64.3186 153.832C64.6386 153.971 64.9853 154.04 65.3586 154.04ZM71.8595 153.848H74.7395V144.952H71.9555V143.8H75.9875V153.848H78.8675V155H71.8595V153.848ZM82.8884 151.416C82.9204 152.205 83.1657 152.84 83.6244 153.32C84.083 153.8 84.723 154.04 85.5444 154.04C85.9177 154.04 86.243 153.997 86.5204 153.912C86.7977 153.827 87.0324 153.709 87.2244 153.56C87.427 153.411 87.587 153.24 87.7044 153.048C87.8324 152.845 87.9337 152.632 88.0084 152.408L89.1924 152.728C88.9684 153.464 88.5524 154.067 87.9444 154.536C87.347 154.995 86.5364 155.224 85.5124 155.224C84.947 155.224 84.4244 155.128 83.9444 154.936C83.475 154.733 83.0697 154.451 82.7284 154.088C82.387 153.725 82.1204 153.293 81.9284 152.792C81.7364 152.291 81.6404 151.736 81.6404 151.128V150.744C81.6404 150.189 81.7364 149.672 81.9284 149.192C82.131 148.712 82.4084 148.301 82.7604 147.96C83.1124 147.608 83.523 147.336 83.9924 147.144C84.4724 146.941 84.9897 146.84 85.5444 146.84C86.195 146.84 86.755 146.963 87.2244 147.208C87.7044 147.443 88.0937 147.736 88.3924 148.088C88.7017 148.44 88.9257 148.824 89.0644 149.24C89.2137 149.656 89.2884 150.04 89.2884 150.392V151.416H82.8884ZM85.5444 148.024C85.1924 148.024 84.8617 148.083 84.5524 148.2C84.2537 148.307 83.987 148.461 83.7524 148.664C83.5284 148.867 83.3417 149.107 83.1924 149.384C83.0537 149.651 82.963 149.944 82.9204 150.264H88.0404C88.019 149.923 87.9337 149.613 87.7844 149.336C87.6457 149.059 87.459 148.824 87.2244 148.632C87.0004 148.44 86.739 148.291 86.4404 148.184C86.1524 148.077 85.8537 148.024 85.5444 148.024ZM99.7252 155H98.4772V149.304C98.4772 148.931 98.3919 148.627 98.2212 148.392C98.0506 148.147 97.7786 148.024 97.4052 148.024C97.0532 148.024 96.7652 148.157 96.5412 148.424C96.3279 148.68 96.2212 149.08 96.2212 149.624V155H94.9732V149.24C94.9732 148.888 94.8772 148.6 94.6852 148.376C94.4932 148.141 94.2372 148.024 93.9172 148.024C93.5332 148.024 93.2346 148.163 93.0212 148.44C92.8186 148.717 92.7172 149.08 92.7172 149.528V155H91.4692V147.064H92.7172V147.928H92.9092C93.0479 147.555 93.2506 147.283 93.5172 147.112C93.7839 146.931 94.0986 146.84 94.4612 146.84C94.8452 146.84 95.1599 146.941 95.4052 147.144C95.6612 147.347 95.8372 147.608 95.9332 147.928H96.1252C96.4879 147.203 97.0639 146.84 97.8532 146.84C98.4506 146.84 98.9092 147.032 99.2292 147.416C99.5599 147.789 99.7252 148.28 99.7252 148.888V155ZM113.975 149.112C113.975 149.496 114.135 149.789 114.455 149.992C114.786 150.195 115.383 150.328 116.247 150.392C117.175 150.467 117.879 150.691 118.359 151.064C118.85 151.427 119.095 151.96 119.095 152.664V152.76C119.095 153.144 119.015 153.491 118.855 153.8C118.706 154.099 118.492 154.355 118.215 154.568C117.948 154.781 117.618 154.941 117.223 155.048C116.839 155.165 116.418 155.224 115.959 155.224C115.34 155.224 114.807 155.144 114.359 154.984C113.922 154.813 113.554 154.595 113.255 154.328C112.967 154.051 112.748 153.741 112.599 153.4C112.45 153.048 112.364 152.696 112.343 152.344L113.527 152.056C113.58 152.664 113.815 153.155 114.231 153.528C114.647 153.891 115.202 154.072 115.895 154.072C116.482 154.072 116.951 153.96 117.303 153.736C117.666 153.501 117.847 153.176 117.847 152.76C117.847 152.312 117.671 151.992 117.319 151.8C116.967 151.608 116.396 151.485 115.607 151.432C114.69 151.368 113.986 151.155 113.495 150.792C113.004 150.429 112.759 149.901 112.759 149.208V149.112C112.759 148.739 112.839 148.413 112.999 148.136C113.159 147.848 113.372 147.608 113.639 147.416C113.916 147.224 114.226 147.08 114.567 146.984C114.908 146.888 115.266 146.84 115.639 146.84C116.162 146.84 116.62 146.915 117.015 147.064C117.41 147.203 117.74 147.389 118.007 147.624C118.274 147.848 118.476 148.109 118.615 148.408C118.764 148.707 118.86 149.005 118.903 149.304L117.719 149.592C117.666 149.08 117.458 148.68 117.095 148.392C116.743 148.104 116.279 147.96 115.703 147.96C115.479 147.96 115.26 147.987 115.047 148.04C114.844 148.083 114.663 148.152 114.503 148.248C114.343 148.344 114.215 148.467 114.119 148.616C114.023 148.755 113.975 148.92 113.975 149.112ZM122.172 147.064H124.668V143.8H125.916V147.064H128.988V148.216H125.916V153.368C125.916 153.688 126.06 153.848 126.348 153.848H128.604V155H125.9C125.537 155 125.239 154.883 125.004 154.648C124.78 154.413 124.668 154.115 124.668 153.752V148.216H122.172V147.064ZM138.321 153.656H138.129C137.873 154.189 137.515 154.584 137.057 154.84C136.609 155.096 136.134 155.224 135.633 155.224C135.11 155.224 134.625 155.139 134.177 154.968C133.729 154.787 133.334 154.525 132.993 154.184C132.662 153.832 132.401 153.405 132.209 152.904C132.017 152.403 131.921 151.821 131.921 151.16V150.904C131.921 150.253 132.017 149.677 132.209 149.176C132.401 148.675 132.662 148.253 132.993 147.912C133.334 147.56 133.729 147.293 134.177 147.112C134.625 146.931 135.099 146.84 135.601 146.84C136.145 146.84 136.635 146.963 137.073 147.208C137.521 147.443 137.873 147.811 138.129 148.312H138.321V147.064H139.569V153.368C139.569 153.688 139.713 153.848 140.001 153.848H140.401V155H139.553C139.19 155 138.891 154.883 138.657 154.648C138.433 154.413 138.321 154.115 138.321 153.752V153.656ZM135.761 154.04C136.134 154.04 136.475 153.971 136.785 153.832C137.105 153.693 137.377 153.496 137.601 153.24C137.825 152.984 138.001 152.68 138.129 152.328C138.257 151.965 138.321 151.565 138.321 151.128V150.936C138.321 150.509 138.257 150.12 138.129 149.768C138.001 149.405 137.819 149.096 137.585 148.84C137.361 148.584 137.089 148.387 136.769 148.248C136.459 148.099 136.123 148.024 135.761 148.024C135.387 148.024 135.046 148.093 134.737 148.232C134.427 148.371 134.155 148.568 133.921 148.824C133.697 149.069 133.521 149.373 133.393 149.736C133.265 150.088 133.201 150.477 133.201 150.904V151.16C133.201 152.067 133.435 152.776 133.905 153.288C134.385 153.789 135.003 154.04 135.761 154.04ZM142.406 147.064H144.902V143.8H146.15V147.064H149.222V148.216H146.15V153.368C146.15 153.688 146.294 153.848 146.582 153.848H148.838V155H146.134C145.771 155 145.472 154.883 145.238 154.648C145.014 154.413 144.902 154.115 144.902 153.752V148.216H142.406V147.064ZM153.706 151.416C153.738 152.205 153.984 152.84 154.442 153.32C154.901 153.8 155.541 154.04 156.362 154.04C156.736 154.04 157.061 153.997 157.338 153.912C157.616 153.827 157.85 153.709 158.042 153.56C158.245 153.411 158.405 153.24 158.522 153.048C158.65 152.845 158.752 152.632 158.826 152.408L160.01 152.728C159.786 153.464 159.37 154.067 158.762 154.536C158.165 154.995 157.354 155.224 156.33 155.224C155.765 155.224 155.242 155.128 154.762 154.936C154.293 154.733 153.888 154.451 153.546 154.088C153.205 153.725 152.938 153.293 152.746 152.792C152.554 152.291 152.458 151.736 152.458 151.128V150.744C152.458 150.189 152.554 149.672 152.746 149.192C152.949 148.712 153.226 148.301 153.578 147.96C153.93 147.608 154.341 147.336 154.81 147.144C155.29 146.941 155.808 146.84 156.362 146.84C157.013 146.84 157.573 146.963 158.042 147.208C158.522 147.443 158.912 147.736 159.21 148.088C159.52 148.44 159.744 148.824 159.882 149.24C160.032 149.656 160.106 150.04 160.106 150.392V151.416H153.706ZM156.362 148.024C156.01 148.024 155.68 148.083 155.37 148.2C155.072 148.307 154.805 148.461 154.57 148.664C154.346 148.867 154.16 149.107 154.01 149.384C153.872 149.651 153.781 149.944 153.738 150.264H158.858C158.837 149.923 158.752 149.613 158.602 149.336C158.464 149.059 158.277 148.824 158.042 148.632C157.818 148.44 157.557 148.291 157.258 148.184C156.97 148.077 156.672 148.024 156.362 148.024ZM170.543 155H169.295V149.304C169.295 148.931 169.21 148.627 169.039 148.392C168.869 148.147 168.597 148.024 168.223 148.024C167.871 148.024 167.583 148.157 167.359 148.424C167.146 148.68 167.039 149.08 167.039 149.624V155H165.791V149.24C165.791 148.888 165.695 148.6 165.503 148.376C165.311 148.141 165.055 148.024 164.735 148.024C164.351 148.024 164.053 148.163 163.839 148.44C163.637 148.717 163.535 149.08 163.535 149.528V155H162.287V147.064H163.535V147.928H163.727C163.866 147.555 164.069 147.283 164.335 147.112C164.602 146.931 164.917 146.84 165.279 146.84C165.663 146.84 165.978 146.941 166.223 147.144C166.479 147.347 166.655 147.608 166.751 147.928H166.943C167.306 147.203 167.882 146.84 168.671 146.84C169.269 146.84 169.727 147.032 170.047 147.416C170.378 147.789 170.543 148.28 170.543 148.888V155ZM173.94 151.416C173.972 152.205 174.218 152.84 174.676 153.32C175.135 153.8 175.775 154.04 176.596 154.04C176.97 154.04 177.295 153.997 177.572 153.912C177.85 153.827 178.084 153.709 178.276 153.56C178.479 153.411 178.639 153.24 178.756 153.048C178.884 152.845 178.986 152.632 179.06 152.408L180.244 152.728C180.02 153.464 179.604 154.067 178.996 154.536C178.399 154.995 177.588 155.224 176.564 155.224C175.999 155.224 175.476 155.128 174.996 154.936C174.527 154.733 174.122 154.451 173.78 154.088C173.439 153.725 173.172 153.293 172.98 152.792C172.788 152.291 172.692 151.736 172.692 151.128V150.744C172.692 150.189 172.788 149.672 172.98 149.192C173.183 148.712 173.46 148.301 173.812 147.96C174.164 147.608 174.575 147.336 175.044 147.144C175.524 146.941 176.042 146.84 176.596 146.84C177.247 146.84 177.807 146.963 178.276 147.208C178.756 147.443 179.146 147.736 179.444 148.088C179.754 148.44 179.978 148.824 180.116 149.24C180.266 149.656 180.34 150.04 180.34 150.392V151.416H173.94ZM176.596 148.024C176.244 148.024 175.914 148.083 175.604 148.2C175.306 148.307 175.039 148.461 174.804 148.664C174.58 148.867 174.394 149.107 174.244 149.384C174.106 149.651 174.015 149.944 173.972 150.264H179.092C179.071 149.923 178.986 149.613 178.836 149.336C178.698 149.059 178.511 148.824 178.276 148.632C178.052 148.44 177.791 148.291 177.492 148.184C177.204 148.077 176.906 148.024 176.596 148.024ZM184.393 155H183.145V147.064H184.393V148.408H184.585C185.076 147.363 185.929 146.84 187.145 146.84C188.062 146.84 188.793 147.128 189.337 147.704C189.881 148.269 190.153 149.123 190.153 150.264V155H188.905V150.52C188.905 149.688 188.718 149.064 188.345 148.648C187.972 148.232 187.465 148.024 186.825 148.024C186.068 148.024 185.47 148.285 185.033 148.808C184.606 149.32 184.393 150.008 184.393 150.872V155ZM192.99 147.064H195.486V143.8H196.734V147.064H199.806V148.216H196.734V153.368C196.734 153.688 196.878 153.848 197.166 153.848H199.422V155H196.718C196.355 155 196.057 154.883 195.822 154.648C195.598 154.413 195.486 154.115 195.486 153.752V148.216H192.99V147.064ZM219.256 153.656H219.064C218.808 154.189 218.45 154.584 217.992 154.84C217.544 155.096 217.069 155.224 216.568 155.224C216.045 155.224 215.56 155.139 215.112 154.968C214.664 154.787 214.269 154.525 213.928 154.184C213.597 153.832 213.336 153.405 213.144 152.904C212.952 152.403 212.856 151.821 212.856 151.16V150.904C212.856 150.253 212.952 149.677 213.144 149.176C213.336 148.675 213.597 148.253 213.928 147.912C214.269 147.56 214.664 147.293 215.112 147.112C215.56 146.931 216.034 146.84 216.536 146.84C217.08 146.84 217.57 146.963 218.008 147.208C218.456 147.443 218.808 147.811 219.064 148.312H219.256V147.064H220.504V153.368C220.504 153.688 220.648 153.848 220.936 153.848H221.336V155H220.488C220.125 155 219.826 154.883 219.592 154.648C219.368 154.413 219.256 154.115 219.256 153.752V153.656ZM216.696 154.04C217.069 154.04 217.41 153.971 217.72 153.832C218.04 153.693 218.312 153.496 218.536 153.24C218.76 152.984 218.936 152.68 219.064 152.328C219.192 151.965 219.256 151.565 219.256 151.128V150.936C219.256 150.509 219.192 150.12 219.064 149.768C218.936 149.405 218.754 149.096 218.52 148.84C218.296 148.584 218.024 148.387 217.704 148.248C217.394 148.099 217.058 148.024 216.696 148.024C216.322 148.024 215.981 148.093 215.672 148.232C215.362 148.371 215.09 148.568 214.856 148.824C214.632 149.069 214.456 149.373 214.328 149.736C214.2 150.088 214.136 150.477 214.136 150.904V151.16C214.136 152.067 214.37 152.776 214.84 153.288C215.32 153.789 215.938 154.04 216.696 154.04ZM224.861 155H223.613V147.064H224.861V148.408H225.053C225.543 147.363 226.397 146.84 227.613 146.84C228.53 146.84 229.261 147.128 229.805 147.704C230.349 148.269 230.621 149.123 230.621 150.264V155H229.373V150.52C229.373 149.688 229.186 149.064 228.813 148.648C228.439 148.232 227.933 148.024 227.293 148.024C226.535 148.024 225.938 148.285 225.501 148.808C225.074 149.32 224.861 150.008 224.861 150.872V155ZM239.873 153.784H239.681C239.553 154.029 239.388 154.243 239.185 154.424C238.993 154.605 238.78 154.755 238.545 154.872C238.321 154.989 238.081 155.075 237.825 155.128C237.569 155.192 237.324 155.224 237.089 155.224C236.556 155.224 236.06 155.133 235.601 154.952C235.143 154.771 234.737 154.509 234.385 154.168C234.044 153.827 233.772 153.405 233.569 152.904C233.377 152.392 233.281 151.811 233.281 151.16V150.904C233.281 150.264 233.383 149.693 233.585 149.192C233.788 148.68 234.06 148.253 234.401 147.912C234.743 147.56 235.143 147.293 235.601 147.112C236.06 146.931 236.545 146.84 237.057 146.84C237.601 146.84 238.108 146.963 238.577 147.208C239.057 147.443 239.425 147.811 239.681 148.312H239.873V143.8H241.121V155H239.873V153.784ZM237.217 154.04C237.591 154.04 237.937 153.971 238.257 153.832C238.577 153.693 238.855 153.496 239.089 153.24C239.335 152.984 239.527 152.68 239.665 152.328C239.804 151.965 239.873 151.565 239.873 151.128V150.936C239.873 150.509 239.804 150.12 239.665 149.768C239.527 149.405 239.335 149.096 239.089 148.84C238.855 148.584 238.572 148.387 238.241 148.248C237.921 148.099 237.58 148.024 237.217 148.024C236.844 148.024 236.492 148.093 236.161 148.232C235.841 148.371 235.559 148.568 235.313 148.824C235.079 149.08 234.892 149.384 234.753 149.736C234.625 150.088 234.561 150.477 234.561 150.904V151.16C234.561 151.608 234.625 152.008 234.753 152.36C234.892 152.712 235.079 153.016 235.313 153.272C235.559 153.517 235.841 153.709 236.161 153.848C236.481 153.976 236.833 154.04 237.217 154.04ZM255.611 149.112C255.611 149.496 255.771 149.789 256.091 149.992C256.422 150.195 257.019 150.328 257.883 150.392C258.811 150.467 259.515 150.691 259.995 151.064C260.486 151.427 260.731 151.96 260.731 152.664V152.76C260.731 153.144 260.651 153.491 260.491 153.8C260.342 154.099 260.129 154.355 259.851 154.568C259.585 154.781 259.254 154.941 258.859 155.048C258.475 155.165 258.054 155.224 257.595 155.224C256.977 155.224 256.443 155.144 255.995 154.984C255.558 154.813 255.19 154.595 254.891 154.328C254.603 154.051 254.385 153.741 254.235 153.4C254.086 153.048 254.001 152.696 253.979 152.344L255.163 152.056C255.217 152.664 255.451 153.155 255.867 153.528C256.283 153.891 256.838 154.072 257.531 154.072C258.118 154.072 258.587 153.96 258.939 153.736C259.302 153.501 259.483 153.176 259.483 152.76C259.483 152.312 259.307 151.992 258.955 151.8C258.603 151.608 258.033 151.485 257.243 151.432C256.326 151.368 255.622 151.155 255.131 150.792C254.641 150.429 254.395 149.901 254.395 149.208V149.112C254.395 148.739 254.475 148.413 254.635 148.136C254.795 147.848 255.009 147.608 255.275 147.416C255.553 147.224 255.862 147.08 256.203 146.984C256.545 146.888 256.902 146.84 257.275 146.84C257.798 146.84 258.257 146.915 258.651 147.064C259.046 147.203 259.377 147.389 259.643 147.624C259.91 147.848 260.113 148.109 260.251 148.408C260.401 148.707 260.497 149.005 260.539 149.304L259.355 149.592C259.302 149.08 259.094 148.68 258.731 148.392C258.379 148.104 257.915 147.96 257.339 147.96C257.115 147.96 256.897 147.987 256.683 148.04C256.481 148.083 256.299 148.152 256.139 148.248C255.979 148.344 255.851 148.467 255.755 148.616C255.659 148.755 255.611 148.92 255.611 149.112ZM271.568 151.128C271.568 151.789 271.456 152.376 271.232 152.888C271.019 153.389 270.731 153.816 270.368 154.168C270.005 154.509 269.579 154.771 269.088 154.952C268.608 155.133 268.107 155.224 267.584 155.224C267.051 155.224 266.544 155.133 266.064 154.952C265.584 154.771 265.163 154.509 264.8 154.168C264.437 153.816 264.144 153.389 263.92 152.888C263.707 152.376 263.6 151.789 263.6 151.128V150.936C263.6 150.285 263.707 149.709 263.92 149.208C264.144 148.696 264.437 148.264 264.8 147.912C265.173 147.56 265.6 147.293 266.08 147.112C266.56 146.931 267.061 146.84 267.584 146.84C268.107 146.84 268.608 146.931 269.088 147.112C269.568 147.293 269.989 147.56 270.352 147.912C270.725 148.264 271.019 148.696 271.232 149.208C271.456 149.709 271.568 150.285 271.568 150.936V151.128ZM267.584 154.04C267.968 154.04 268.32 153.976 268.64 153.848C268.971 153.709 269.259 153.512 269.504 153.256C269.749 153 269.941 152.696 270.08 152.344C270.219 151.981 270.288 151.576 270.288 151.128V150.936C270.288 150.509 270.219 150.12 270.08 149.768C269.941 149.405 269.749 149.096 269.504 148.84C269.259 148.584 268.971 148.387 268.64 148.248C268.309 148.099 267.957 148.024 267.584 148.024C267.211 148.024 266.859 148.099 266.528 148.248C266.197 148.387 265.909 148.584 265.664 148.84C265.419 149.096 265.227 149.405 265.088 149.768C264.949 150.12 264.88 150.509 264.88 150.936V151.128C264.88 151.576 264.949 151.981 265.088 152.344C265.227 152.696 265.419 153 265.664 153.256C265.909 153.512 266.192 153.709 266.512 153.848C266.843 153.976 267.2 154.04 267.584 154.04ZM274.197 153.848H277.077V144.952H274.293V143.8H278.325V153.848H281.205V155H274.197V153.848ZM289.978 147.064H291.226V155H289.978V153.56H289.786C289.53 154.072 289.194 154.477 288.778 154.776C288.362 155.075 287.834 155.224 287.194 155.224C286.757 155.224 286.351 155.149 285.978 155C285.615 154.861 285.301 154.648 285.034 154.36C284.778 154.072 284.575 153.715 284.426 153.288C284.287 152.861 284.218 152.365 284.218 151.8V147.064H285.466V151.64C285.466 152.472 285.637 153.08 285.978 153.464C286.319 153.848 286.842 154.04 287.546 154.04C288.303 154.04 288.895 153.784 289.322 153.272C289.759 152.749 289.978 152.056 289.978 151.192V147.064ZM294.159 147.064H296.655V143.8H297.903V147.064H300.975V148.216H297.903V153.368C297.903 153.688 298.047 153.848 298.335 153.848H300.591V155H297.887C297.524 155 297.225 154.883 296.991 154.648C296.767 154.413 296.655 154.115 296.655 153.752V148.216H294.159V147.064ZM307.012 144.696C307.012 144.387 307.118 144.125 307.332 143.912C307.556 143.688 307.822 143.576 308.132 143.576C308.441 143.576 308.702 143.688 308.916 143.912C309.14 144.125 309.252 144.387 309.252 144.696C309.252 145.005 309.14 145.272 308.916 145.496C308.702 145.709 308.441 145.816 308.132 145.816C307.822 145.816 307.556 145.709 307.332 145.496C307.118 145.272 307.012 145.005 307.012 144.696ZM304.74 153.848H307.524V148.216H305.028V147.064H308.772V153.848H311.364V155H304.74V153.848ZM322.152 151.128C322.152 151.789 322.04 152.376 321.816 152.888C321.603 153.389 321.315 153.816 320.952 154.168C320.59 154.509 320.163 154.771 319.672 154.952C319.192 155.133 318.691 155.224 318.168 155.224C317.635 155.224 317.128 155.133 316.648 154.952C316.168 154.771 315.747 154.509 315.384 154.168C315.022 153.816 314.728 153.389 314.504 152.888C314.291 152.376 314.184 151.789 314.184 151.128V150.936C314.184 150.285 314.291 149.709 314.504 149.208C314.728 148.696 315.022 148.264 315.384 147.912C315.758 147.56 316.184 147.293 316.664 147.112C317.144 146.931 317.646 146.84 318.168 146.84C318.691 146.84 319.192 146.931 319.672 147.112C320.152 147.293 320.574 147.56 320.936 147.912C321.31 148.264 321.603 148.696 321.816 149.208C322.04 149.709 322.152 150.285 322.152 150.936V151.128ZM318.168 154.04C318.552 154.04 318.904 153.976 319.224 153.848C319.555 153.709 319.843 153.512 320.088 153.256C320.334 153 320.526 152.696 320.664 152.344C320.803 151.981 320.872 151.576 320.872 151.128V150.936C320.872 150.509 320.803 150.12 320.664 149.768C320.526 149.405 320.334 149.096 320.088 148.84C319.843 148.584 319.555 148.387 319.224 148.248C318.894 148.099 318.542 148.024 318.168 148.024C317.795 148.024 317.443 148.099 317.112 148.248C316.782 148.387 316.494 148.584 316.248 148.84C316.003 149.096 315.811 149.405 315.672 149.768C315.534 150.12 315.464 150.509 315.464 150.936V151.128C315.464 151.576 315.534 151.981 315.672 152.344C315.811 152.696 316.003 153 316.248 153.256C316.494 153.512 316.776 153.709 317.096 153.848C317.427 153.976 317.784 154.04 318.168 154.04ZM326.029 155H324.781V147.064H326.029V148.408H326.221C326.712 147.363 327.565 146.84 328.781 146.84C329.699 146.84 330.429 147.128 330.973 147.704C331.517 148.269 331.789 149.123 331.789 150.264V155H330.541V150.52C330.541 149.688 330.355 149.064 329.981 148.648C329.608 148.232 329.101 148.024 328.461 148.024C327.704 148.024 327.107 148.285 326.669 148.808C326.243 149.32 326.029 150.008 326.029 150.872V155ZM337.282 154.104C337.282 153.795 337.389 153.533 337.602 153.32C337.826 153.096 338.093 152.984 338.402 152.984C338.712 152.984 338.973 153.096 339.186 153.32C339.41 153.533 339.522 153.795 339.522 154.104C339.522 154.413 339.41 154.68 339.186 154.904C338.973 155.117 338.712 155.224 338.402 155.224C338.093 155.224 337.826 155.117 337.602 154.904C337.389 154.68 337.282 154.413 337.282 154.104Z" fill="white" fill-opacity="0.95"/>
<defs>
<filter id="filter0_b_544_3384" x="-30" y="-30" width="507" height="245" filterUnits="userSpaceOnUse" color-interpolation-filters="sRGB">
<feFlood flood-opacity="0" result="BackgroundImageFix"/>
<feGaussianBlur in="BackgroundImageFix" stdDeviation="15"/>
<feComposite in2="SourceAlpha" operator="in" result="effect1_backgroundBlur_544_3384"/>
<feBlend mode="normal" in="SourceGraphic" in2="effect1_backgroundBlur_544_3384" result="shape"/>
</filter>
</defs>
</svg>
