<svg width="302" height="185" viewBox="0 0 302 185" fill="none" xmlns="http://www.w3.org/2000/svg">
<g filter="url(#filter0_b_544_3382)">
<rect width="302" height="185" rx="11" fill="white" fill-opacity="0.05"/>
</g>
<path d="M38.86 49H36.22V44.8C36.22 44.48 36.1333 44.22 35.96 44.02C35.8 43.82 35.5267 43.72 35.14 43.72H32.1V49H29.46V35H34.82C35.54 35 36.1733 35.1 36.72 35.3C37.2667 35.5 37.72 35.78 38.08 36.14C38.4533 36.4867 38.7333 36.8933 38.92 37.36C39.12 37.8267 39.22 38.3267 39.22 38.86V39.34C39.22 39.9133 39.0667 40.4533 38.76 40.96C38.4533 41.4533 37.98 41.8333 37.34 42.1V42.46C37.8067 42.5133 38.1733 42.6933 38.44 43C38.72 43.3067 38.86 43.6933 38.86 44.16V49ZM32.1 41.2H34.62C35.26 41.2 35.7467 41.0533 36.08 40.76C36.4133 40.4533 36.58 40.0267 36.58 39.48V39.24C36.58 38.7733 36.4133 38.3733 36.08 38.04C35.7467 37.6933 35.26 37.52 34.62 37.52H32.1V41.2ZM49.1261 39.08H51.6461V49H49.1261V47.56H48.7661C48.3261 48.7067 47.3794 49.28 45.9261 49.28C45.4328 49.28 44.9728 49.2 44.5461 49.04C44.1194 48.88 43.7461 48.6333 43.4261 48.3C43.1061 47.9667 42.8528 47.5533 42.6661 47.06C42.4928 46.5533 42.4061 45.96 42.4061 45.28V39.08H44.9261V44.76C44.9261 45.4667 45.0928 46.02 45.4261 46.42C45.7594 46.8067 46.2594 47 46.9261 47C47.6861 47 48.2394 46.76 48.5861 46.28C48.9461 45.7867 49.1261 45.12 49.1261 44.28V39.08ZM55.1922 46.6H58.6722V37.4H55.3122V35H61.1922V46.6H64.4322V49H55.1922V46.6ZM70.3183 44.86C70.3316 45.1533 70.3983 45.4267 70.5183 45.68C70.6516 45.92 70.8249 46.1333 71.0383 46.32C71.2649 46.4933 71.5183 46.6333 71.7983 46.74C72.0916 46.8333 72.3983 46.88 72.7183 46.88C73.3449 46.88 73.8249 46.7733 74.1583 46.56C74.4916 46.3333 74.7316 46.0667 74.8783 45.76L77.0383 46.96C76.9183 47.2133 76.7516 47.48 76.5383 47.76C76.3249 48.0267 76.0449 48.2733 75.6983 48.5C75.3649 48.7267 74.9516 48.9133 74.4583 49.06C73.9783 49.2067 73.4116 49.28 72.7583 49.28C72.0116 49.28 71.3316 49.16 70.7183 48.92C70.1049 48.68 69.5716 48.3333 69.1183 47.88C68.6783 47.4267 68.3316 46.8733 68.0783 46.22C67.8383 45.5667 67.7183 44.8267 67.7183 44V43.88C67.7183 43.12 67.8449 42.4267 68.0983 41.8C68.3649 41.1733 68.7249 40.64 69.1783 40.2C69.6316 39.76 70.1583 39.42 70.7583 39.18C71.3716 38.9267 72.0249 38.8 72.7183 38.8C73.5716 38.8 74.3049 38.9533 74.9183 39.26C75.5316 39.5533 76.0383 39.9333 76.4383 40.4C76.8383 40.8533 77.1316 41.36 77.3183 41.92C77.5049 42.4667 77.5983 43 77.5983 43.52V44.86H70.3183ZM72.6983 41.08C72.0583 41.08 71.5383 41.2467 71.1383 41.58C70.7383 41.9 70.4783 42.2733 70.3583 42.7H75.0383C74.9583 42.2333 74.7049 41.8467 74.2783 41.54C73.8649 41.2333 73.3383 41.08 72.6983 41.08ZM82.3844 42.36H88.6244V44.64H82.3844V42.36ZM97.5105 46.48V36.32H97.1505L95.8305 41.12H93.3105V40.88L94.9905 35H100.15V46.48H103.63V49H93.5505V46.48H97.5105Z" fill="white"/>
<path d="M35.296 94.216H30.496L29.68 97H28.24L31.632 85.8H34.16L37.552 97H36.112L35.296 94.216ZM32.8 86.376L30.864 92.968H34.928L32.992 86.376H32.8ZM55.9702 89.064H58.4662V85.8H59.7142V89.064H62.7862V90.216H59.7142V95.368C59.7142 95.688 59.8582 95.848 60.1462 95.848H62.4022V97H59.6982C59.3355 97 59.0368 96.8827 58.8022 96.648C58.5782 96.4133 58.4662 96.1147 58.4662 95.752V90.216H55.9702V89.064ZM67.431 93.416C67.463 94.2053 67.7084 94.84 68.167 95.32C68.6257 95.8 69.2657 96.04 70.087 96.04C70.4604 96.04 70.7857 95.9973 71.063 95.912C71.3404 95.8267 71.575 95.7093 71.767 95.56C71.9697 95.4107 72.1297 95.24 72.247 95.048C72.375 94.8453 72.4764 94.632 72.551 94.408L73.735 94.728C73.511 95.464 73.095 96.0667 72.487 96.536C71.8897 96.9947 71.079 97.224 70.055 97.224C69.4897 97.224 68.967 97.128 68.487 96.936C68.0177 96.7333 67.6124 96.4507 67.271 96.088C66.9297 95.7253 66.663 95.2933 66.471 94.792C66.279 94.2907 66.183 93.736 66.183 93.128V92.744C66.183 92.1893 66.279 91.672 66.471 91.192C66.6737 90.712 66.951 90.3013 67.303 89.96C67.655 89.608 68.0657 89.336 68.535 89.144C69.015 88.9413 69.5324 88.84 70.087 88.84C70.7377 88.84 71.2977 88.9627 71.767 89.208C72.247 89.4427 72.6364 89.736 72.935 90.088C73.2444 90.44 73.4684 90.824 73.607 91.24C73.7564 91.656 73.831 92.04 73.831 92.392V93.416H67.431ZM70.087 90.024C69.735 90.024 69.4044 90.0827 69.095 90.2C68.7964 90.3067 68.5297 90.4613 68.295 90.664C68.071 90.8667 67.8844 91.1067 67.735 91.384C67.5964 91.6507 67.5057 91.944 67.463 92.264H72.583C72.5617 91.9227 72.4764 91.6133 72.327 91.336C72.1884 91.0587 72.0017 90.824 71.767 90.632C71.543 90.44 71.2817 90.2907 70.983 90.184C70.695 90.0773 70.3964 90.024 70.087 90.024ZM82.5559 95.656H82.3639C82.1079 96.1893 81.7506 96.584 81.2919 96.84C80.8439 97.096 80.3692 97.224 79.8679 97.224C79.3452 97.224 78.8599 97.1387 78.4119 96.968C77.9639 96.7867 77.5692 96.5253 77.2279 96.184C76.8972 95.832 76.6359 95.4053 76.4439 94.904C76.2519 94.4027 76.1559 93.8213 76.1559 93.16V92.904C76.1559 92.2533 76.2519 91.6773 76.4439 91.176C76.6359 90.6747 76.8972 90.2533 77.2279 89.912C77.5692 89.56 77.9639 89.2933 78.4119 89.112C78.8599 88.9307 79.3346 88.84 79.8359 88.84C80.3799 88.84 80.8706 88.9627 81.3079 89.208C81.7559 89.4427 82.1079 89.8107 82.3639 90.312H82.5559V89.064H83.8039V95.368C83.8039 95.688 83.9479 95.848 84.2359 95.848H84.6359V97H83.7879C83.4252 97 83.1266 96.8827 82.8919 96.648C82.6679 96.4133 82.5559 96.1147 82.5559 95.752V95.656ZM79.9959 96.04C80.3692 96.04 80.7106 95.9707 81.0199 95.832C81.3399 95.6933 81.6119 95.496 81.8359 95.24C82.0599 94.984 82.2359 94.68 82.3639 94.328C82.4919 93.9653 82.5559 93.5653 82.5559 93.128V92.936C82.5559 92.5093 82.4919 92.12 82.3639 91.768C82.2359 91.4053 82.0546 91.096 81.8199 90.84C81.5959 90.584 81.3239 90.3867 81.0039 90.248C80.6946 90.0987 80.3586 90.024 79.9959 90.024C79.6226 90.024 79.2812 90.0933 78.9719 90.232C78.6626 90.3707 78.3906 90.568 78.1559 90.824C77.9319 91.0693 77.7559 91.3733 77.6279 91.736C77.4999 92.088 77.4359 92.4773 77.4359 92.904V93.16C77.4359 94.0667 77.6706 94.776 78.1399 95.288C78.6199 95.7893 79.2386 96.04 79.9959 96.04ZM94.7048 97H93.4568V91.304C93.4568 90.9307 93.3714 90.6267 93.2008 90.392C93.0301 90.1467 92.7581 90.024 92.3848 90.024C92.0328 90.024 91.7448 90.1573 91.5208 90.424C91.3074 90.68 91.2008 91.08 91.2008 91.624V97H89.9528V91.24C89.9528 90.888 89.8568 90.6 89.6648 90.376C89.4728 90.1413 89.2168 90.024 88.8968 90.024C88.5128 90.024 88.2141 90.1627 88.0008 90.44C87.7981 90.7173 87.6968 91.08 87.6968 91.528V97H86.4488V89.064H87.6968V89.928H87.8888C88.0274 89.5547 88.2301 89.2827 88.4968 89.112C88.7634 88.9307 89.0781 88.84 89.4408 88.84C89.8248 88.84 90.1394 88.9413 90.3848 89.144C90.6408 89.3467 90.8168 89.608 90.9128 89.928H91.1048C91.4674 89.2027 92.0434 88.84 92.8328 88.84C93.4301 88.84 93.8888 89.032 94.2088 89.416C94.5394 89.7893 94.7048 90.28 94.7048 90.888V97ZM121.347 94.184C121.262 94.6213 121.112 95.0267 120.899 95.4C120.696 95.7733 120.435 96.0987 120.115 96.376C119.795 96.6427 119.422 96.8507 118.995 97C118.568 97.1493 118.094 97.224 117.571 97.224C117.016 97.224 116.488 97.1333 115.987 96.952C115.496 96.7707 115.064 96.5093 114.691 96.168C114.318 95.816 114.019 95.3893 113.795 94.888C113.582 94.3867 113.475 93.8107 113.475 93.16V92.968C113.475 92.328 113.582 91.752 113.795 91.24C114.019 90.728 114.318 90.296 114.691 89.944C115.064 89.592 115.496 89.32 115.987 89.128C116.488 88.936 117.016 88.84 117.571 88.84C118.072 88.84 118.536 88.9147 118.963 89.064C119.39 89.2133 119.763 89.4267 120.083 89.704C120.414 89.9707 120.68 90.2907 120.883 90.664C121.096 91.0373 121.24 91.4427 121.315 91.88L120.067 92.168C120.035 91.8907 119.955 91.624 119.827 91.368C119.71 91.1013 119.544 90.872 119.331 90.68C119.128 90.4773 118.878 90.3173 118.579 90.2C118.28 90.0827 117.934 90.024 117.539 90.024C117.155 90.024 116.792 90.0987 116.451 90.248C116.12 90.3867 115.827 90.5893 115.571 90.856C115.315 91.112 115.112 91.4213 114.963 91.784C114.824 92.1467 114.755 92.5413 114.755 92.968V93.16C114.755 93.608 114.824 94.0133 114.963 94.376C115.112 94.728 115.315 95.0267 115.571 95.272C115.827 95.5173 116.126 95.7093 116.467 95.848C116.808 95.976 117.176 96.04 117.571 96.04C117.966 96.04 118.307 95.9813 118.595 95.864C118.894 95.736 119.144 95.576 119.347 95.384C119.56 95.1813 119.726 94.952 119.843 94.696C119.971 94.44 120.056 94.1733 120.099 93.896L121.347 94.184ZM129.96 95.656H129.768C129.512 96.1893 129.154 96.584 128.696 96.84C128.248 97.096 127.773 97.224 127.272 97.224C126.749 97.224 126.264 97.1387 125.816 96.968C125.368 96.7867 124.973 96.5253 124.632 96.184C124.301 95.832 124.04 95.4053 123.848 94.904C123.656 94.4027 123.56 93.8213 123.56 93.16V92.904C123.56 92.2533 123.656 91.6773 123.848 91.176C124.04 90.6747 124.301 90.2533 124.632 89.912C124.973 89.56 125.368 89.2933 125.816 89.112C126.264 88.9307 126.738 88.84 127.24 88.84C127.784 88.84 128.274 88.9627 128.712 89.208C129.16 89.4427 129.512 89.8107 129.768 90.312H129.96V89.064H131.208V95.368C131.208 95.688 131.352 95.848 131.64 95.848H132.04V97H131.192C130.829 97 130.53 96.8827 130.296 96.648C130.072 96.4133 129.96 96.1147 129.96 95.752V95.656ZM127.4 96.04C127.773 96.04 128.114 95.9707 128.424 95.832C128.744 95.6933 129.016 95.496 129.24 95.24C129.464 94.984 129.64 94.68 129.768 94.328C129.896 93.9653 129.96 93.5653 129.96 93.128V92.936C129.96 92.5093 129.896 92.12 129.768 91.768C129.64 91.4053 129.458 91.096 129.224 90.84C129 90.584 128.728 90.3867 128.408 90.248C128.098 90.0987 127.762 90.024 127.4 90.024C127.026 90.024 126.685 90.0933 126.376 90.232C126.066 90.3707 125.794 90.568 125.56 90.824C125.336 91.0693 125.16 91.3733 125.032 91.736C124.904 92.088 124.84 92.4773 124.84 92.904V93.16C124.84 94.0667 125.074 94.776 125.544 95.288C126.024 95.7893 126.642 96.04 127.4 96.04ZM135.725 97H134.477V89.064H135.725V90.408H135.917C136.407 89.3627 137.261 88.84 138.477 88.84C139.394 88.84 140.125 89.128 140.669 89.704C141.213 90.2693 141.485 91.1227 141.485 92.264V97H140.237V92.52C140.237 91.688 140.05 91.064 139.677 90.648C139.303 90.232 138.797 90.024 138.157 90.024C137.399 90.024 136.802 90.2853 136.365 90.808C135.938 91.32 135.725 92.008 135.725 92.872V97ZM168.751 94.184C168.666 94.6213 168.516 95.0267 168.303 95.4C168.1 95.7733 167.839 96.0987 167.519 96.376C167.199 96.6427 166.826 96.8507 166.399 97C165.972 97.1493 165.498 97.224 164.975 97.224C164.42 97.224 163.892 97.1333 163.391 96.952C162.9 96.7707 162.468 96.5093 162.095 96.168C161.722 95.816 161.423 95.3893 161.199 94.888C160.986 94.3867 160.879 93.8107 160.879 93.16V92.968C160.879 92.328 160.986 91.752 161.199 91.24C161.423 90.728 161.722 90.296 162.095 89.944C162.468 89.592 162.9 89.32 163.391 89.128C163.892 88.936 164.42 88.84 164.975 88.84C165.476 88.84 165.94 88.9147 166.367 89.064C166.794 89.2133 167.167 89.4267 167.487 89.704C167.818 89.9707 168.084 90.2907 168.287 90.664C168.5 91.0373 168.644 91.4427 168.719 91.88L167.471 92.168C167.439 91.8907 167.359 91.624 167.231 91.368C167.114 91.1013 166.948 90.872 166.735 90.68C166.532 90.4773 166.282 90.3173 165.983 90.2C165.684 90.0827 165.338 90.024 164.943 90.024C164.559 90.024 164.196 90.0987 163.855 90.248C163.524 90.3867 163.231 90.5893 162.975 90.856C162.719 91.112 162.516 91.4213 162.367 91.784C162.228 92.1467 162.159 92.5413 162.159 92.968V93.16C162.159 93.608 162.228 94.0133 162.367 94.376C162.516 94.728 162.719 95.0267 162.975 95.272C163.231 95.5173 163.53 95.7093 163.871 95.848C164.212 95.976 164.58 96.04 164.975 96.04C165.37 96.04 165.711 95.9813 165.999 95.864C166.298 95.736 166.548 95.576 166.751 95.384C166.964 95.1813 167.13 94.952 167.247 94.696C167.375 94.44 167.46 94.1733 167.503 93.896L168.751 94.184ZM179.092 93.128C179.092 93.7893 178.98 94.376 178.756 94.888C178.542 95.3893 178.254 95.816 177.892 96.168C177.529 96.5093 177.102 96.7707 176.612 96.952C176.132 97.1333 175.63 97.224 175.108 97.224C174.574 97.224 174.068 97.1333 173.588 96.952C173.108 96.7707 172.686 96.5093 172.324 96.168C171.961 95.816 171.668 95.3893 171.444 94.888C171.23 94.376 171.124 93.7893 171.124 93.128V92.936C171.124 92.2853 171.23 91.7093 171.444 91.208C171.668 90.696 171.961 90.264 172.324 89.912C172.697 89.56 173.124 89.2933 173.604 89.112C174.084 88.9307 174.585 88.84 175.108 88.84C175.63 88.84 176.132 88.9307 176.612 89.112C177.092 89.2933 177.513 89.56 177.876 89.912C178.249 90.264 178.542 90.696 178.756 91.208C178.98 91.7093 179.092 92.2853 179.092 92.936V93.128ZM175.108 96.04C175.492 96.04 175.844 95.976 176.164 95.848C176.494 95.7093 176.782 95.512 177.028 95.256C177.273 95 177.465 94.696 177.604 94.344C177.742 93.9813 177.812 93.576 177.812 93.128V92.936C177.812 92.5093 177.742 92.12 177.604 91.768C177.465 91.4053 177.273 91.096 177.028 90.84C176.782 90.584 176.494 90.3867 176.164 90.248C175.833 90.0987 175.481 90.024 175.108 90.024C174.734 90.024 174.382 90.0987 174.052 90.248C173.721 90.3867 173.433 90.584 173.188 90.84C172.942 91.096 172.75 91.4053 172.612 91.768C172.473 92.12 172.404 92.5093 172.404 92.936V93.128C172.404 93.576 172.473 93.9813 172.612 94.344C172.75 94.696 172.942 95 173.188 95.256C173.433 95.512 173.716 95.7093 174.036 95.848C174.366 95.976 174.724 96.04 175.108 96.04ZM183.129 97H181.881V89.064H183.129V90.408H183.321C183.811 89.3627 184.665 88.84 185.881 88.84C186.798 88.84 187.529 89.128 188.073 89.704C188.617 90.2693 188.889 91.1227 188.889 92.264V97H187.641V92.52C187.641 91.688 187.454 91.064 187.081 90.648C186.707 90.232 186.201 90.024 185.561 90.024C184.803 90.024 184.206 90.2853 183.769 90.808C183.342 91.32 183.129 92.008 183.129 92.872V97ZM193.805 91.112C193.805 91.496 193.965 91.7893 194.285 91.992C194.616 92.1947 195.213 92.328 196.077 92.392C197.005 92.4667 197.709 92.6907 198.189 93.064C198.68 93.4267 198.925 93.96 198.925 94.664V94.76C198.925 95.144 198.845 95.4907 198.685 95.8C198.536 96.0987 198.323 96.3547 198.045 96.568C197.779 96.7813 197.448 96.9413 197.053 97.048C196.669 97.1653 196.248 97.224 195.789 97.224C195.171 97.224 194.637 97.144 194.189 96.984C193.752 96.8133 193.384 96.5947 193.085 96.328C192.797 96.0507 192.579 95.7413 192.429 95.4C192.28 95.048 192.195 94.696 192.173 94.344L193.357 94.056C193.411 94.664 193.645 95.1547 194.061 95.528C194.477 95.8907 195.032 96.072 195.725 96.072C196.312 96.072 196.781 95.96 197.133 95.736C197.496 95.5013 197.677 95.176 197.677 94.76C197.677 94.312 197.501 93.992 197.149 93.8C196.797 93.608 196.227 93.4853 195.437 93.432C194.52 93.368 193.816 93.1547 193.325 92.792C192.835 92.4293 192.589 91.9013 192.589 91.208V91.112C192.589 90.7387 192.669 90.4133 192.829 90.136C192.989 89.848 193.203 89.608 193.469 89.416C193.747 89.224 194.056 89.08 194.397 88.984C194.739 88.888 195.096 88.84 195.469 88.84C195.992 88.84 196.451 88.9147 196.845 89.064C197.24 89.2027 197.571 89.3893 197.837 89.624C198.104 89.848 198.307 90.1093 198.445 90.408C198.595 90.7067 198.691 91.0053 198.733 91.304L197.549 91.592C197.496 91.08 197.288 90.68 196.925 90.392C196.573 90.104 196.109 89.96 195.533 89.96C195.309 89.96 195.091 89.9867 194.877 90.04C194.675 90.0827 194.493 90.152 194.333 90.248C194.173 90.344 194.045 90.4667 193.949 90.616C193.853 90.7547 193.805 90.92 193.805 91.112ZM204.898 86.696C204.898 86.3867 205.005 86.1253 205.218 85.912C205.442 85.688 205.709 85.576 206.018 85.576C206.328 85.576 206.589 85.688 206.802 85.912C207.026 86.1253 207.138 86.3867 207.138 86.696C207.138 87.0053 207.026 87.272 206.802 87.496C206.589 87.7093 206.328 87.816 206.018 87.816C205.709 87.816 205.442 87.7093 205.218 87.496C205.005 87.272 204.898 87.0053 204.898 86.696ZM202.626 95.848H205.41V90.216H202.914V89.064H206.658V95.848H209.25V97H202.626V95.848ZM214.359 91.112C214.359 91.496 214.519 91.7893 214.839 91.992C215.17 92.1947 215.767 92.328 216.631 92.392C217.559 92.4667 218.263 92.6907 218.743 93.064C219.234 93.4267 219.479 93.96 219.479 94.664V94.76C219.479 95.144 219.399 95.4907 219.239 95.8C219.09 96.0987 218.877 96.3547 218.599 96.568C218.333 96.7813 218.002 96.9413 217.607 97.048C217.223 97.1653 216.802 97.224 216.343 97.224C215.725 97.224 215.191 97.144 214.743 96.984C214.306 96.8133 213.938 96.5947 213.639 96.328C213.351 96.0507 213.133 95.7413 212.983 95.4C212.834 95.048 212.749 94.696 212.727 94.344L213.911 94.056C213.965 94.664 214.199 95.1547 214.615 95.528C215.031 95.8907 215.586 96.072 216.279 96.072C216.866 96.072 217.335 95.96 217.687 95.736C218.05 95.5013 218.231 95.176 218.231 94.76C218.231 94.312 218.055 93.992 217.703 93.8C217.351 93.608 216.781 93.4853 215.991 93.432C215.074 93.368 214.37 93.1547 213.879 92.792C213.389 92.4293 213.143 91.9013 213.143 91.208V91.112C213.143 90.7387 213.223 90.4133 213.383 90.136C213.543 89.848 213.757 89.608 214.023 89.416C214.301 89.224 214.61 89.08 214.951 88.984C215.293 88.888 215.65 88.84 216.023 88.84C216.546 88.84 217.005 88.9147 217.399 89.064C217.794 89.2027 218.125 89.3893 218.391 89.624C218.658 89.848 218.861 90.1093 218.999 90.408C219.149 90.7067 219.245 91.0053 219.287 91.304L218.103 91.592C218.05 91.08 217.842 90.68 217.479 90.392C217.127 90.104 216.663 89.96 216.087 89.96C215.863 89.96 215.645 89.9867 215.431 90.04C215.229 90.0827 215.047 90.152 214.887 90.248C214.727 90.344 214.599 90.4667 214.503 90.616C214.407 90.7547 214.359 90.92 214.359 91.112ZM222.716 89.064H225.212V85.8H226.46V89.064H229.532V90.216H226.46V95.368C226.46 95.688 226.604 95.848 226.892 95.848H229.148V97H226.444C226.081 97 225.783 96.8827 225.548 96.648C225.324 96.4133 225.212 96.1147 225.212 95.752V90.216H222.716V89.064ZM257.326 93.128C257.326 93.7893 257.214 94.376 256.99 94.888C256.777 95.3893 256.489 95.816 256.126 96.168C255.764 96.5093 255.337 96.7707 254.846 96.952C254.366 97.1333 253.865 97.224 253.342 97.224C252.809 97.224 252.302 97.1333 251.822 96.952C251.342 96.7707 250.921 96.5093 250.558 96.168C250.196 95.816 249.902 95.3893 249.678 94.888C249.465 94.376 249.358 93.7893 249.358 93.128V92.936C249.358 92.2853 249.465 91.7093 249.678 91.208C249.902 90.696 250.196 90.264 250.558 89.912C250.932 89.56 251.358 89.2933 251.838 89.112C252.318 88.9307 252.82 88.84 253.342 88.84C253.865 88.84 254.366 88.9307 254.846 89.112C255.326 89.2933 255.748 89.56 256.11 89.912C256.484 90.264 256.777 90.696 256.99 91.208C257.214 91.7093 257.326 92.2853 257.326 92.936V93.128ZM253.342 96.04C253.726 96.04 254.078 95.976 254.398 95.848C254.729 95.7093 255.017 95.512 255.262 95.256C255.508 95 255.7 94.696 255.838 94.344C255.977 93.9813 256.046 93.576 256.046 93.128V92.936C256.046 92.5093 255.977 92.12 255.838 91.768C255.7 91.4053 255.508 91.096 255.262 90.84C255.017 90.584 254.729 90.3867 254.398 90.248C254.068 90.0987 253.716 90.024 253.342 90.024C252.969 90.024 252.617 90.0987 252.286 90.248C251.956 90.3867 251.668 90.584 251.422 90.84C251.177 91.096 250.985 91.4053 250.846 91.768C250.708 92.12 250.638 92.5093 250.638 92.936V93.128C250.638 93.576 250.708 93.9813 250.846 94.344C250.985 94.696 251.177 95 251.422 95.256C251.668 95.512 251.95 95.7093 252.27 95.848C252.601 95.976 252.958 96.04 253.342 96.04ZM260.035 89.064H262.483V87.048C262.483 86.6853 262.595 86.3867 262.819 86.152C263.054 85.9173 263.352 85.8 263.715 85.8H266.851V86.952H264.163C263.875 86.952 263.731 87.112 263.731 87.432V89.064H267.043V90.216H263.731V97H262.483V90.216H260.035V89.064ZM35.056 118.064H36.304V126H35.056V124.56H34.864C34.608 125.072 34.272 125.477 33.856 125.776C33.44 126.075 32.912 126.224 32.272 126.224C31.8347 126.224 31.4293 126.149 31.056 126C30.6933 125.861 30.3787 125.648 30.112 125.36C29.856 125.072 29.6533 124.715 29.504 124.288C29.3653 123.861 29.296 123.365 29.296 122.8V118.064H30.544V122.64C30.544 123.472 30.7147 124.08 31.056 124.464C31.3973 124.848 31.92 125.04 32.624 125.04C33.3813 125.04 33.9733 124.784 34.4 124.272C34.8373 123.749 35.056 123.056 35.056 122.192V118.064ZM40.6289 129.2H39.3809V118.064H40.6289V119.312H40.8209C41.0982 118.832 41.4822 118.469 41.9729 118.224C42.4635 117.968 42.9969 117.84 43.5729 117.84C44.0635 117.84 44.5275 117.931 44.9649 118.112C45.4022 118.293 45.7862 118.555 46.1169 118.896C46.4582 119.237 46.7249 119.659 46.9169 120.16C47.1195 120.661 47.2209 121.232 47.2209 121.872V122.192C47.2209 122.843 47.1249 123.419 46.9329 123.92C46.7409 124.421 46.4742 124.843 46.1329 125.184C45.8022 125.525 45.4129 125.787 44.9649 125.968C44.5169 126.139 44.0422 126.224 43.5409 126.224C43.2849 126.224 43.0235 126.192 42.7569 126.128C42.4902 126.075 42.2342 125.989 41.9889 125.872C41.7542 125.744 41.5355 125.595 41.3329 125.424C41.1302 125.243 40.9595 125.029 40.8209 124.784H40.6289V129.2ZM43.2849 125.04C43.6689 125.04 44.0209 124.976 44.3409 124.848C44.6609 124.709 44.9382 124.517 45.1729 124.272C45.4182 124.027 45.6049 123.728 45.7329 123.376C45.8715 123.024 45.9409 122.629 45.9409 122.192V121.872C45.9409 121.445 45.8715 121.061 45.7329 120.72C45.6049 120.368 45.4182 120.069 45.1729 119.824C44.9382 119.568 44.6555 119.371 44.3249 119.232C44.0049 119.093 43.6582 119.024 43.2849 119.024C42.9115 119.024 42.5649 119.099 42.2449 119.248C41.9249 119.387 41.6422 119.584 41.3969 119.84C41.1622 120.096 40.9755 120.405 40.8369 120.768C40.6982 121.12 40.6289 121.509 40.6289 121.936V122.128C40.6289 122.565 40.6982 122.965 40.8369 123.328C40.9755 123.68 41.1622 123.984 41.3969 124.24C41.6422 124.496 41.9249 124.693 42.2449 124.832C42.5649 124.971 42.9115 125.04 43.2849 125.04ZM59.9506 118.064H62.4466V114.8H63.6946V118.064H66.7666V119.216H63.6946V124.368C63.6946 124.688 63.8386 124.848 64.1266 124.848H66.3826V126H63.6786C63.316 126 63.0173 125.883 62.7826 125.648C62.5586 125.413 62.4466 125.115 62.4466 124.752V119.216H59.9506V118.064ZM77.9875 122.128C77.9875 122.789 77.8755 123.376 77.6515 123.888C77.4382 124.389 77.1502 124.816 76.7875 125.168C76.4248 125.509 75.9982 125.771 75.5075 125.952C75.0275 126.133 74.5262 126.224 74.0035 126.224C73.4702 126.224 72.9635 126.133 72.4835 125.952C72.0035 125.771 71.5822 125.509 71.2195 125.168C70.8568 124.816 70.5635 124.389 70.3395 123.888C70.1262 123.376 70.0195 122.789 70.0195 122.128V121.936C70.0195 121.285 70.1262 120.709 70.3395 120.208C70.5635 119.696 70.8568 119.264 71.2195 118.912C71.5928 118.56 72.0195 118.293 72.4995 118.112C72.9795 117.931 73.4808 117.84 74.0035 117.84C74.5262 117.84 75.0275 117.931 75.5075 118.112C75.9875 118.293 76.4088 118.56 76.7715 118.912C77.1448 119.264 77.4382 119.696 77.6515 120.208C77.8755 120.709 77.9875 121.285 77.9875 121.936V122.128ZM74.0035 125.04C74.3875 125.04 74.7395 124.976 75.0595 124.848C75.3902 124.709 75.6782 124.512 75.9235 124.256C76.1688 124 76.3608 123.696 76.4995 123.344C76.6382 122.981 76.7075 122.576 76.7075 122.128V121.936C76.7075 121.509 76.6382 121.12 76.4995 120.768C76.3608 120.405 76.1688 120.096 75.9235 119.84C75.6782 119.584 75.3902 119.387 75.0595 119.248C74.7288 119.099 74.3768 119.024 74.0035 119.024C73.6302 119.024 73.2782 119.099 72.9475 119.248C72.6168 119.387 72.3288 119.584 72.0835 119.84C71.8382 120.096 71.6462 120.405 71.5075 120.768C71.3688 121.12 71.2995 121.509 71.2995 121.936V122.128C71.2995 122.576 71.3688 122.981 71.5075 123.344C71.6462 123.696 71.8382 124 72.0835 124.256C72.3288 124.512 72.6115 124.709 72.9315 124.848C73.2622 124.976 73.6195 125.04 74.0035 125.04ZM93.4533 120.432V118.576L97.1013 116.24V116.048H90.7653V114.8H98.2533V116.848L94.6053 119.184V119.376H95.2453C95.6719 119.376 96.0826 119.445 96.4773 119.584C96.8719 119.723 97.2186 119.925 97.5173 120.192C97.8266 120.459 98.0719 120.789 98.2533 121.184C98.4453 121.568 98.5413 122.016 98.5413 122.528V122.816C98.5413 123.296 98.4453 123.744 98.2533 124.16C98.0613 124.576 97.7946 124.939 97.4533 125.248C97.1119 125.547 96.7066 125.787 96.2373 125.968C95.7786 126.139 95.2773 126.224 94.7333 126.224C94.1039 126.224 93.5386 126.128 93.0373 125.936C92.5359 125.744 92.1093 125.483 91.7573 125.152C91.4053 124.811 91.1333 124.416 90.9413 123.968C90.7599 123.509 90.6693 123.024 90.6693 122.512V121.648H92.0133V122.416C92.0133 122.821 92.0773 123.184 92.2053 123.504C92.3439 123.813 92.5306 124.08 92.7653 124.304C93.0106 124.517 93.2986 124.683 93.6293 124.8C93.9599 124.917 94.3173 124.976 94.7013 124.976C95.0533 124.976 95.3786 124.917 95.6773 124.8C95.9866 124.683 96.2533 124.523 96.4773 124.32C96.7013 124.107 96.8773 123.861 97.0053 123.584C97.1333 123.296 97.1973 122.992 97.1973 122.672V122.576C97.1973 121.904 96.9839 121.381 96.5573 121.008C96.1306 120.624 95.5973 120.432 94.9573 120.432H93.4533ZM119.239 126H117.991V120.304C117.991 119.931 117.906 119.627 117.735 119.392C117.564 119.147 117.292 119.024 116.919 119.024C116.567 119.024 116.279 119.157 116.055 119.424C115.842 119.68 115.735 120.08 115.735 120.624V126H114.487V120.24C114.487 119.888 114.391 119.6 114.199 119.376C114.007 119.141 113.751 119.024 113.431 119.024C113.047 119.024 112.748 119.163 112.535 119.44C112.332 119.717 112.231 120.08 112.231 120.528V126H110.983V118.064H112.231V118.928H112.423C112.562 118.555 112.764 118.283 113.031 118.112C113.298 117.931 113.612 117.84 113.975 117.84C114.359 117.84 114.674 117.941 114.919 118.144C115.175 118.347 115.351 118.608 115.447 118.928H115.639C116.002 118.203 116.578 117.84 117.367 117.84C117.964 117.84 118.423 118.032 118.743 118.416C119.074 118.789 119.239 119.28 119.239 119.888V126ZM122.796 122.416C122.828 123.205 123.073 123.84 123.532 124.32C123.991 124.8 124.631 125.04 125.452 125.04C125.825 125.04 126.151 124.997 126.428 124.912C126.705 124.827 126.94 124.709 127.132 124.56C127.335 124.411 127.495 124.24 127.612 124.048C127.74 123.845 127.841 123.632 127.916 123.408L129.1 123.728C128.876 124.464 128.46 125.067 127.852 125.536C127.255 125.995 126.444 126.224 125.42 126.224C124.855 126.224 124.332 126.128 123.852 125.936C123.383 125.733 122.977 125.451 122.636 125.088C122.295 124.725 122.028 124.293 121.836 123.792C121.644 123.291 121.548 122.736 121.548 122.128V121.744C121.548 121.189 121.644 120.672 121.836 120.192C122.039 119.712 122.316 119.301 122.668 118.96C123.02 118.608 123.431 118.336 123.9 118.144C124.38 117.941 124.897 117.84 125.452 117.84C126.103 117.84 126.663 117.963 127.132 118.208C127.612 118.443 128.001 118.736 128.3 119.088C128.609 119.44 128.833 119.824 128.972 120.24C129.121 120.656 129.196 121.04 129.196 121.392V122.416H122.796ZM125.452 119.024C125.1 119.024 124.769 119.083 124.46 119.2C124.161 119.307 123.895 119.461 123.66 119.664C123.436 119.867 123.249 120.107 123.1 120.384C122.961 120.651 122.871 120.944 122.828 121.264H127.948C127.927 120.923 127.841 120.613 127.692 120.336C127.553 120.059 127.367 119.824 127.132 119.632C126.908 119.44 126.647 119.291 126.348 119.184C126.06 119.077 125.761 119.024 125.452 119.024ZM139.793 126H138.545V120.304C138.545 119.931 138.459 119.627 138.289 119.392C138.118 119.147 137.846 119.024 137.473 119.024C137.121 119.024 136.833 119.157 136.609 119.424C136.395 119.68 136.289 120.08 136.289 120.624V126H135.041V120.24C135.041 119.888 134.945 119.6 134.753 119.376C134.561 119.141 134.305 119.024 133.985 119.024C133.601 119.024 133.302 119.163 133.089 119.44C132.886 119.717 132.785 120.08 132.785 120.528V126H131.537V118.064H132.785V118.928H132.977C133.115 118.555 133.318 118.283 133.585 118.112C133.851 117.931 134.166 117.84 134.529 117.84C134.913 117.84 135.227 117.941 135.473 118.144C135.729 118.347 135.905 118.608 136.001 118.928H136.193C136.555 118.203 137.131 117.84 137.921 117.84C138.518 117.84 138.977 118.032 139.297 118.416C139.627 118.789 139.793 119.28 139.793 119.888V126ZM143.398 126H142.15V114.8H143.398V119.312H143.59C143.867 118.832 144.251 118.469 144.742 118.224C145.232 117.968 145.766 117.84 146.342 117.84C146.832 117.84 147.296 117.931 147.734 118.112C148.171 118.293 148.555 118.555 148.886 118.896C149.227 119.237 149.494 119.659 149.686 120.16C149.888 120.661 149.99 121.232 149.99 121.872V122.192C149.99 122.843 149.894 123.419 149.702 123.92C149.51 124.421 149.243 124.843 148.902 125.184C148.571 125.525 148.182 125.787 147.734 125.968C147.286 126.139 146.811 126.224 146.31 126.224C146.054 126.224 145.792 126.192 145.526 126.128C145.259 126.075 145.003 125.989 144.758 125.872C144.523 125.744 144.304 125.595 144.102 125.424C143.899 125.243 143.728 125.029 143.59 124.784H143.398V126ZM146.054 125.04C146.438 125.04 146.79 124.976 147.11 124.848C147.43 124.709 147.707 124.517 147.942 124.272C148.187 124.027 148.374 123.728 148.502 123.376C148.64 123.024 148.71 122.629 148.71 122.192V121.872C148.71 121.445 148.64 121.061 148.502 120.72C148.374 120.368 148.187 120.069 147.942 119.824C147.707 119.568 147.424 119.371 147.094 119.232C146.774 119.093 146.427 119.024 146.054 119.024C145.68 119.024 145.334 119.099 145.014 119.248C144.694 119.387 144.411 119.584 144.166 119.84C143.931 120.096 143.744 120.405 143.606 120.768C143.467 121.12 143.398 121.509 143.398 121.936V122.128C143.398 122.565 143.467 122.965 143.606 123.328C143.744 123.68 143.931 123.984 144.166 124.24C144.411 124.496 144.694 124.693 145.014 124.832C145.334 124.971 145.68 125.04 146.054 125.04ZM153.627 122.416C153.659 123.205 153.904 123.84 154.363 124.32C154.821 124.8 155.461 125.04 156.283 125.04C156.656 125.04 156.981 124.997 157.259 124.912C157.536 124.827 157.771 124.709 157.963 124.56C158.165 124.411 158.325 124.24 158.443 124.048C158.571 123.845 158.672 123.632 158.747 123.408L159.931 123.728C159.707 124.464 159.291 125.067 158.683 125.536C158.085 125.995 157.275 126.224 156.251 126.224C155.685 126.224 155.163 126.128 154.683 125.936C154.213 125.733 153.808 125.451 153.467 125.088C153.125 124.725 152.859 124.293 152.667 123.792C152.475 123.291 152.379 122.736 152.379 122.128V121.744C152.379 121.189 152.475 120.672 152.667 120.192C152.869 119.712 153.147 119.301 153.499 118.96C153.851 118.608 154.261 118.336 154.731 118.144C155.211 117.941 155.728 117.84 156.283 117.84C156.933 117.84 157.493 117.963 157.963 118.208C158.443 118.443 158.832 118.736 159.131 119.088C159.44 119.44 159.664 119.824 159.803 120.24C159.952 120.656 160.027 121.04 160.027 121.392V122.416H153.627ZM156.283 119.024C155.931 119.024 155.6 119.083 155.291 119.2C154.992 119.307 154.725 119.461 154.491 119.664C154.267 119.867 154.08 120.107 153.931 120.384C153.792 120.651 153.701 120.944 153.659 121.264H158.779C158.757 120.923 158.672 120.613 158.523 120.336C158.384 120.059 158.197 119.824 157.963 119.632C157.739 119.44 157.477 119.291 157.179 119.184C156.891 119.077 156.592 119.024 156.283 119.024ZM162.543 118.064H165.423V119.12H165.615C165.818 118.683 166.106 118.363 166.479 118.16C166.853 117.947 167.279 117.84 167.759 117.84C168.559 117.84 169.205 118.101 169.695 118.624C170.186 119.147 170.447 119.909 170.479 120.912L169.167 121.104C169.167 120.368 168.991 119.84 168.639 119.52C168.287 119.189 167.855 119.024 167.343 119.024C167.013 119.024 166.725 119.088 166.479 119.216C166.245 119.344 166.047 119.52 165.887 119.744C165.727 119.968 165.61 120.229 165.535 120.528C165.461 120.827 165.423 121.147 165.423 121.488V124.848H167.439V126H162.351V124.848H164.175V119.216H162.543V118.064ZM174.916 120.112C174.916 120.496 175.076 120.789 175.396 120.992C175.727 121.195 176.324 121.328 177.188 121.392C178.116 121.467 178.82 121.691 179.3 122.064C179.791 122.427 180.036 122.96 180.036 123.664V123.76C180.036 124.144 179.956 124.491 179.796 124.8C179.647 125.099 179.434 125.355 179.156 125.568C178.89 125.781 178.559 125.941 178.164 126.048C177.78 126.165 177.359 126.224 176.9 126.224C176.282 126.224 175.748 126.144 175.3 125.984C174.863 125.813 174.495 125.595 174.196 125.328C173.908 125.051 173.69 124.741 173.54 124.4C173.391 124.048 173.306 123.696 173.284 123.344L174.468 123.056C174.522 123.664 174.756 124.155 175.172 124.528C175.588 124.891 176.143 125.072 176.836 125.072C177.423 125.072 177.892 124.96 178.244 124.736C178.607 124.501 178.788 124.176 178.788 123.76C178.788 123.312 178.612 122.992 178.26 122.8C177.908 122.608 177.338 122.485 176.548 122.432C175.631 122.368 174.927 122.155 174.436 121.792C173.946 121.429 173.7 120.901 173.7 120.208V120.112C173.7 119.739 173.78 119.413 173.94 119.136C174.1 118.848 174.314 118.608 174.58 118.416C174.858 118.224 175.167 118.08 175.508 117.984C175.85 117.888 176.207 117.84 176.58 117.84C177.103 117.84 177.562 117.915 177.956 118.064C178.351 118.203 178.682 118.389 178.948 118.624C179.215 118.848 179.418 119.109 179.556 119.408C179.706 119.707 179.802 120.005 179.844 120.304L178.66 120.592C178.607 120.08 178.399 119.68 178.036 119.392C177.684 119.104 177.22 118.96 176.644 118.96C176.42 118.96 176.202 118.987 175.988 119.04C175.786 119.083 175.604 119.152 175.444 119.248C175.284 119.344 175.156 119.467 175.06 119.616C174.964 119.755 174.916 119.92 174.916 120.112ZM199.582 124.656H199.39C199.134 125.189 198.777 125.584 198.318 125.84C197.87 126.096 197.395 126.224 196.894 126.224C196.371 126.224 195.886 126.139 195.438 125.968C194.99 125.787 194.595 125.525 194.254 125.184C193.923 124.832 193.662 124.405 193.47 123.904C193.278 123.403 193.182 122.821 193.182 122.16V121.904C193.182 121.253 193.278 120.677 193.47 120.176C193.662 119.675 193.923 119.253 194.254 118.912C194.595 118.56 194.99 118.293 195.438 118.112C195.886 117.931 196.361 117.84 196.862 117.84C197.406 117.84 197.897 117.963 198.334 118.208C198.782 118.443 199.134 118.811 199.39 119.312H199.582V118.064H200.83V124.368C200.83 124.688 200.974 124.848 201.262 124.848H201.662V126H200.814C200.451 126 200.153 125.883 199.918 125.648C199.694 125.413 199.582 125.115 199.582 124.752V124.656ZM197.022 125.04C197.395 125.04 197.737 124.971 198.046 124.832C198.366 124.693 198.638 124.496 198.862 124.24C199.086 123.984 199.262 123.68 199.39 123.328C199.518 122.965 199.582 122.565 199.582 122.128V121.936C199.582 121.509 199.518 121.12 199.39 120.768C199.262 120.405 199.081 120.096 198.846 119.84C198.622 119.584 198.35 119.387 198.03 119.248C197.721 119.099 197.385 119.024 197.022 119.024C196.649 119.024 196.307 119.093 195.998 119.232C195.689 119.371 195.417 119.568 195.182 119.824C194.958 120.069 194.782 120.373 194.654 120.736C194.526 121.088 194.462 121.477 194.462 121.904V122.16C194.462 123.067 194.697 123.776 195.166 124.288C195.646 124.789 196.265 125.04 197.022 125.04ZM203.827 118.064H206.323V114.8H207.571V118.064H210.643V119.216H207.571V124.368C207.571 124.688 207.715 124.848 208.003 124.848H210.259V126H207.555C207.192 126 206.894 125.883 206.659 125.648C206.435 125.413 206.323 125.115 206.323 124.752V119.216H203.827V118.064ZM232.285 126H231.037V120.304C231.037 119.931 230.951 119.627 230.781 119.392C230.61 119.147 230.338 119.024 229.965 119.024C229.613 119.024 229.325 119.157 229.101 119.424C228.887 119.68 228.781 120.08 228.781 120.624V126H227.533V120.24C227.533 119.888 227.437 119.6 227.245 119.376C227.053 119.141 226.797 119.024 226.477 119.024C226.093 119.024 225.794 119.163 225.581 119.44C225.378 119.717 225.277 120.08 225.277 120.528V126H224.029V118.064H225.277V118.928H225.469C225.607 118.555 225.81 118.283 226.077 118.112C226.343 117.931 226.658 117.84 227.021 117.84C227.405 117.84 227.719 117.941 227.965 118.144C228.221 118.347 228.397 118.608 228.493 118.928H228.685C229.047 118.203 229.623 117.84 230.413 117.84C231.01 117.84 231.469 118.032 231.789 118.416C232.119 118.789 232.285 119.28 232.285 119.888V126ZM242.418 122.128C242.418 122.789 242.306 123.376 242.082 123.888C241.868 124.389 241.58 124.816 241.218 125.168C240.855 125.509 240.428 125.771 239.938 125.952C239.458 126.133 238.956 126.224 238.434 126.224C237.9 126.224 237.394 126.133 236.914 125.952C236.434 125.771 236.012 125.509 235.65 125.168C235.287 124.816 234.994 124.389 234.77 123.888C234.556 123.376 234.45 122.789 234.45 122.128V121.936C234.45 121.285 234.556 120.709 234.77 120.208C234.994 119.696 235.287 119.264 235.65 118.912C236.023 118.56 236.45 118.293 236.93 118.112C237.41 117.931 237.911 117.84 238.434 117.84C238.956 117.84 239.458 117.931 239.938 118.112C240.418 118.293 240.839 118.56 241.202 118.912C241.575 119.264 241.868 119.696 242.082 120.208C242.306 120.709 242.418 121.285 242.418 121.936V122.128ZM238.434 125.04C238.818 125.04 239.17 124.976 239.49 124.848C239.82 124.709 240.108 124.512 240.354 124.256C240.599 124 240.791 123.696 240.93 123.344C241.068 122.981 241.138 122.576 241.138 122.128V121.936C241.138 121.509 241.068 121.12 240.93 120.768C240.791 120.405 240.599 120.096 240.354 119.84C240.108 119.584 239.82 119.387 239.49 119.248C239.159 119.099 238.807 119.024 238.434 119.024C238.06 119.024 237.708 119.099 237.378 119.248C237.047 119.387 236.759 119.584 236.514 119.84C236.268 120.096 236.076 120.405 235.938 120.768C235.799 121.12 235.73 121.509 235.73 121.936V122.128C235.73 122.576 235.799 122.981 235.938 123.344C236.076 123.696 236.268 124 236.514 124.256C236.759 124.512 237.042 124.709 237.362 124.848C237.692 124.976 238.05 125.04 238.434 125.04ZM246.854 120.112C246.854 120.496 247.014 120.789 247.334 120.992C247.665 121.195 248.262 121.328 249.126 121.392C250.054 121.467 250.758 121.691 251.238 122.064C251.729 122.427 251.974 122.96 251.974 123.664V123.76C251.974 124.144 251.894 124.491 251.734 124.8C251.585 125.099 251.372 125.355 251.094 125.568C250.828 125.781 250.497 125.941 250.102 126.048C249.718 126.165 249.297 126.224 248.838 126.224C248.22 126.224 247.686 126.144 247.238 125.984C246.801 125.813 246.433 125.595 246.134 125.328C245.846 125.051 245.628 124.741 245.478 124.4C245.329 124.048 245.244 123.696 245.222 123.344L246.406 123.056C246.46 123.664 246.694 124.155 247.11 124.528C247.526 124.891 248.081 125.072 248.774 125.072C249.361 125.072 249.83 124.96 250.182 124.736C250.545 124.501 250.726 124.176 250.726 123.76C250.726 123.312 250.55 122.992 250.198 122.8C249.846 122.608 249.276 122.485 248.486 122.432C247.569 122.368 246.865 122.155 246.374 121.792C245.884 121.429 245.638 120.901 245.638 120.208V120.112C245.638 119.739 245.718 119.413 245.878 119.136C246.038 118.848 246.252 118.608 246.518 118.416C246.796 118.224 247.105 118.08 247.446 117.984C247.788 117.888 248.145 117.84 248.518 117.84C249.041 117.84 249.5 117.915 249.894 118.064C250.289 118.203 250.62 118.389 250.886 118.624C251.153 118.848 251.356 119.109 251.494 119.408C251.644 119.707 251.74 120.005 251.782 120.304L250.598 120.592C250.545 120.08 250.337 119.68 249.974 119.392C249.622 119.104 249.158 118.96 248.582 118.96C248.358 118.96 248.14 118.987 247.926 119.04C247.724 119.083 247.542 119.152 247.382 119.248C247.222 119.344 247.094 119.467 246.998 119.616C246.902 119.755 246.854 119.92 246.854 120.112ZM255.211 118.064H257.707V114.8H258.955V118.064H262.027V119.216H258.955V124.368C258.955 124.688 259.099 124.848 259.387 124.848H261.643V126H258.939C258.577 126 258.278 125.883 258.043 125.648C257.819 125.413 257.707 125.115 257.707 124.752V119.216H255.211V118.064Z" fill="white"/>
<defs>
<filter id="filter0_b_544_3382" x="-30" y="-30" width="362" height="245" filterUnits="userSpaceOnUse" color-interpolation-filters="sRGB">
<feFlood flood-opacity="0" result="BackgroundImageFix"/>
<feGaussianBlur in="BackgroundImageFix" stdDeviation="15"/>
<feComposite in2="SourceAlpha" operator="in" result="effect1_backgroundBlur_544_3382"/>
<feBlend mode="normal" in="SourceGraphic" in2="effect1_backgroundBlur_544_3382" result="shape"/>
</filter>
</defs>
</svg>
