<svg width="1280" height="1601" viewBox="0 0 1280 1601" fill="none" xmlns="http://www.w3.org/2000/svg">
<g style="mix-blend-mode:overlay" opacity="0.7" filter="url(#filter0_f_490_37)">
<path d="M-57.08 965.614C-69.9116 1047.56 -49.4655 1188.54 134.972 1096.89C365.519 982.323 1021.73 754.028 875.685 1194.04" stroke="white"/>
<path d="M677.737 -271.238C833.189 372.247 -302.325 0.0202557 -9.57874 96.5248C781.059 357.161 462.864 948.995 804.801 1247.9" stroke="white"/>
<path d="M-50.0189 930.47C-58.4526 1030.8 -74.3024 1153.14 113.271 1067.75C361.161 966.298 984.464 762.653 854.397 1198.99" stroke="white"/>
<path d="M-42.4787 894.753C-46.4452 1013.46 -98.661 1117.29 92.0723 1038.15C357.355 949.741 947.842 770.871 833.743 1203.47" stroke="white"/>
<path d="M-34.5327 858.531C-33.9629 995.589 -122.614 1081.05 71.3032 1008.15C354.029 932.723 911.796 778.748 813.649 1207.55" stroke="white"/>
<path d="M-26.2402 821.858C-21.0649 977.253 -146.221 1044.49 50.9047 977.814C351.124 915.295 876.266 786.34 794.057 1211.28" stroke="white"/>
<path d="M-17.6505 784.78C-7.80088 958.496 -169.53 1007.64 30.8276 947.178C348.589 897.506 841.204 793.691 774.917 1214.72" stroke="white"/>
<path d="M-8.80533 747.336C5.78776 939.356 -192.584 970.548 11.0307 916.285C346.384 879.392 806.567 800.841 756.189 1217.9" stroke="white"/>
<path d="M0.260203 709.558C19.6657 919.865 -215.416 933.243 -8.52097 885.167C344.473 860.987 772.322 807.82 737.836 1220.85" stroke="white"/>
<path d="M9.51579 671.475C33.8025 900.051 -238.057 895.752 -27.8573 853.852C342.827 842.318 738.439 814.658 719.83 1223.6" stroke="white"/>
<path d="M18.9354 633.11C48.1723 879.938 -260.532 858.101 -47.004 822.364C341.419 823.41 704.892 821.376 702.144 1226.17" stroke="white"/>
<path d="M28.4954 594.486C62.7512 859.547 -282.865 820.311 -65.9845 790.724C340.226 804.282 671.657 827.997 684.756 1228.58" stroke="white"/>
<path d="M38.1781 555.619C77.5214 838.895 -305.073 782.4 -84.8162 758.949C339.23 784.954 638.718 834.537 667.647 1230.86" stroke="white"/>
<path d="M49.9499 518.419C94.4497 819.892 -325.189 746.276 -101.532 728.95C340.398 767.333 608.042 842.905 652.784 1234.91" stroke="white"/>
<path d="M71.3996 490.101C121.124 809.752 -335.625 719.155 -108.544 707.94C351.318 758.634 587.218 860.315 647.758 1247.94" stroke="white"/>
<path d="M93.0869 461.654C148.105 799.466 -345.819 692.026 -115.29 686.909C362.552 749.848 566.805 877.757 643.126 1260.94" stroke="white"/>
<path d="M114.971 433.063C175.352 789.015 -355.813 664.873 -121.812 665.842C374.057 740.956 546.765 895.214 638.85 1273.9" stroke="white"/>
<path d="M137.023 404.316C202.834 778.39 -365.636 637.686 -128.14 644.727C385.805 731.95 527.066 912.675 634.9 1286.81" stroke="white"/>
<path d="M159.216 375.41C230.526 767.587 -375.312 610.46 -134.297 623.56C397.77 722.824 507.686 930.135 631.25 1299.66" stroke="white"/>
<path d="M181.533 346.341C258.41 756.601 -384.861 583.193 -140.303 602.339C409.933 713.575 488.604 947.59 627.883 1312.44" stroke="white"/>
<path d="M203.955 317.109C286.469 745.433 -394.299 555.883 -146.175 581.061C422.278 704.202 469.805 965.04 624.781 1325.17" stroke="white"/>
<path d="M232.946 280.715C321.163 727.082 -397.163 521.532 -145.449 552.729C441.267 687.707 457.751 975.486 628.406 1330.83" stroke="white"/>
<path d="M273.796 231.325C367.785 695.716 -388.162 474.306 -132.835 511.509C472.19 658.254 457.735 973.092 644.051 1323.59" stroke="white"/>
<path d="M314.571 181.783C414.401 664.178 -379.23 427.049 -120.266 470.244C503.115 628.689 457.821 970.702 659.782 1316.3" stroke="white"/>
<path d="M355.268 132.088C461.007 632.466 -370.37 379.759 -107.746 428.932C534.038 599.008 458.007 968.315 675.595 1308.95" stroke="white"/>
<path d="M395.884 82.2361C507.599 600.577 -361.584 332.433 -95.2765 387.571C564.955 569.21 458.291 965.926 691.487 1301.55" stroke="white"/>
<path d="M436.415 32.2257C554.175 568.508 -352.876 285.069 -82.8608 346.159C595.865 539.29 458.67 963.533 707.456 1294.08" stroke="white"/>
<path d="M476.86 -17.9446C600.733 536.258 -344.246 237.667 -70.5008 304.693C626.764 509.249 459.142 961.135 723.5 1286.55" stroke="white"/>
<path d="M517.217 -68.2757C647.27 503.827 -335.697 190.224 -58.1981 263.174C657.652 479.085 459.706 958.73 739.618 1278.96" stroke="white"/>
<path d="M557.483 -118.769C693.784 471.212 -327.231 142.739 -45.9551 221.599C688.524 448.795 460.36 956.315 755.806 1271.3" stroke="white"/>
<path d="M597.658 -169.425C740.275 438.412 -318.847 95.2125 -33.771 179.968C719.383 418.38 461.104 953.89 772.066 1263.57" stroke="white"/>
<path d="M637.741 -220.245C786.741 405.427 -310.548 47.6429 -21.6481 138.28C750.226 387.839 461.936 951.454 788.395 1255.77" stroke="white" stroke-opacity="0.75"/>
</g>
<defs>
<filter id="filter0_f_490_37" x="-207.405" y="-277.356" width="1110.57" height="1614.4" filterUnits="userSpaceOnUse" color-interpolation-filters="sRGB">
<feFlood flood-opacity="0" result="BackgroundImageFix"/>
<feBlend mode="normal" in="SourceGraphic" in2="BackgroundImageFix" result="shape"/>
<feGaussianBlur stdDeviation="3" result="effect1_foregroundBlur_490_37"/>
</filter>
</defs>
</svg>
