<svg width="370" height="13" viewBox="0 0 370 13" fill="none" xmlns="http://www.w3.org/2000/svg">
<path d="M7.44536 4.032C7.44536 3.66933 7.3707 3.34933 7.22136 3.072C7.0827 2.79467 6.8907 2.56533 6.64536 2.384C6.40003 2.20267 6.11736 2.064 5.79736 1.968C5.47736 1.872 5.14136 1.824 4.78936 1.824C4.48003 1.824 4.1867 1.86667 3.90936 1.952C3.63203 2.02667 3.38136 2.13867 3.15736 2.288C2.94403 2.43733 2.77336 2.624 2.64536 2.848C2.51736 3.06133 2.45336 3.312 2.45336 3.6V3.696C2.45336 4.00533 2.51736 4.272 2.64536 4.496C2.77336 4.70933 2.96003 4.896 3.20536 5.056C3.46136 5.20533 3.77603 5.33333 4.14936 5.44C4.5227 5.536 4.96003 5.62133 5.46136 5.696C6.6347 5.87733 7.4987 6.224 8.05336 6.736C8.60803 7.23733 8.88536 7.91467 8.88536 8.768V8.96C8.88536 9.44 8.80003 9.88267 8.62936 10.288C8.46936 10.6827 8.22403 11.024 7.89336 11.312C7.57336 11.6 7.17336 11.824 6.69336 11.984C6.21336 12.144 5.6587 12.224 5.02936 12.224C4.3147 12.224 3.68003 12.1227 3.12536 11.92C2.58136 11.7067 2.1227 11.4187 1.74936 11.056C1.3867 10.6827 1.10936 10.2507 0.917363 9.76C0.725363 9.25867 0.629363 8.71467 0.629363 8.128V7.648H1.97336V8.032C1.97336 9.01333 2.24003 9.74933 2.77336 10.24C3.31736 10.7307 4.06936 10.976 5.02936 10.976C5.86136 10.976 6.48536 10.7947 6.90136 10.432C7.32803 10.0587 7.54136 9.568 7.54136 8.96V8.864C7.54136 8.27733 7.3227 7.82933 6.88536 7.52C6.4587 7.21067 5.76003 6.98667 4.78936 6.848C4.22403 6.77333 3.71203 6.66133 3.25336 6.512C2.80536 6.352 2.42136 6.14933 2.10136 5.904C1.78136 5.648 1.53603 5.344 1.36536 4.992C1.1947 4.64 1.10936 4.224 1.10936 3.744V3.552C1.10936 3.11467 1.20003 2.71467 1.38136 2.352C1.5627 1.98933 1.81336 1.67467 2.13336 1.408C2.46403 1.14133 2.85336 0.938666 3.30136 0.799999C3.76003 0.650666 4.26136 0.575999 4.80536 0.575999C5.4347 0.575999 5.9947 0.666666 6.48536 0.848C6.9867 1.02933 7.40803 1.27467 7.74936 1.584C8.0907 1.88267 8.3467 2.24 8.51736 2.656C8.6987 3.06133 8.78936 3.488 8.78936 3.936V4.608H7.44536V4.032ZM18.9062 12H17.5622V8.256C17.5622 7.97867 17.4982 7.76533 17.3702 7.616C17.2422 7.46667 17.0182 7.392 16.6982 7.392H13.2102V12H11.8662V0.799999H15.8662C16.4422 0.799999 16.9436 0.885333 17.3702 1.056C17.7969 1.216 18.1489 1.43467 18.4262 1.712C18.7142 1.98933 18.9276 2.31467 19.0662 2.688C19.2156 3.05067 19.2902 3.43467 19.2902 3.84V4.32C19.2902 4.736 19.1729 5.152 18.9382 5.568C18.7142 5.984 18.3622 6.304 17.8822 6.528V6.72C18.2022 6.77333 18.4529 6.90133 18.6342 7.104C18.8156 7.30667 18.9062 7.59467 18.9062 7.968V12ZM13.2102 6.144H15.7062C16.4636 6.144 17.0236 5.984 17.3862 5.664C17.7596 5.33333 17.9462 4.85333 17.9462 4.224V3.936C17.9462 3.37067 17.7596 2.91733 17.3862 2.576C17.0236 2.224 16.4636 2.048 15.7062 2.048H13.2102V6.144ZM22.4471 0.799999H29.5511V2.048H26.6711V10.752H29.5511V12H22.4471V10.752H25.3271V2.048H22.4471V0.799999ZM49.8329 4.032C49.8329 3.66933 49.7582 3.34933 49.6089 3.072C49.4702 2.79467 49.2782 2.56533 49.0329 2.384C48.7875 2.20267 48.5049 2.064 48.1849 1.968C47.8649 1.872 47.5289 1.824 47.1769 1.824C46.8675 1.824 46.5742 1.86667 46.2969 1.952C46.0195 2.02667 45.7689 2.13867 45.5449 2.288C45.3315 2.43733 45.1609 2.624 45.0329 2.848C44.9049 3.06133 44.8409 3.312 44.8409 3.6V3.696C44.8409 4.00533 44.9049 4.272 45.0329 4.496C45.1609 4.70933 45.3475 4.896 45.5929 5.056C45.8489 5.20533 46.1635 5.33333 46.5369 5.44C46.9102 5.536 47.3475 5.62133 47.8489 5.696C49.0222 5.87733 49.8862 6.224 50.4409 6.736C50.9955 7.23733 51.2729 7.91467 51.2729 8.768V8.96C51.2729 9.44 51.1875 9.88267 51.0169 10.288C50.8569 10.6827 50.6115 11.024 50.2809 11.312C49.9609 11.6 49.5609 11.824 49.0809 11.984C48.6009 12.144 48.0462 12.224 47.4169 12.224C46.7022 12.224 46.0675 12.1227 45.5129 11.92C44.9689 11.7067 44.5102 11.4187 44.1369 11.056C43.7742 10.6827 43.4969 10.2507 43.3049 9.76C43.1129 9.25867 43.0169 8.71467 43.0169 8.128V7.648H44.3609V8.032C44.3609 9.01333 44.6275 9.74933 45.1609 10.24C45.7049 10.7307 46.4569 10.976 47.4169 10.976C48.2489 10.976 48.8729 10.7947 49.2889 10.432C49.7155 10.0587 49.9289 9.568 49.9289 8.96V8.864C49.9289 8.27733 49.7102 7.82933 49.2729 7.52C48.8462 7.21067 48.1475 6.98667 47.1769 6.848C46.6115 6.77333 46.0995 6.66133 45.6409 6.512C45.1929 6.352 44.8089 6.14933 44.4889 5.904C44.1689 5.648 43.9235 5.344 43.7529 4.992C43.5822 4.64 43.4969 4.224 43.4969 3.744V3.552C43.4969 3.11467 43.5875 2.71467 43.7689 2.352C43.9502 1.98933 44.2009 1.67467 44.5209 1.408C44.8515 1.14133 45.2409 0.938666 45.6889 0.799999C46.1475 0.650666 46.6489 0.575999 47.1929 0.575999C47.8222 0.575999 48.3822 0.666666 48.8729 0.848C49.3742 1.02933 49.7955 1.27467 50.1369 1.584C50.4782 1.88267 50.7342 2.24 50.9049 2.656C51.0862 3.06133 51.1769 3.488 51.1769 3.936V4.608H49.8329V4.032ZM60.1897 9.216H55.3897L54.5737 12H53.1337L56.5257 0.799999H59.0537L62.4457 12H61.0057L60.1897 9.216ZM57.6937 1.376L55.7577 7.968H59.8217L57.8857 1.376H57.6937ZM64.8346 0.799999H71.9386V2.048H69.0586V10.752H71.9386V12H64.8346V10.752H67.7146V2.048H64.8346V0.799999ZM93.0844 12H91.7404V8.256C91.7404 7.97867 91.6764 7.76533 91.5484 7.616C91.4204 7.46667 91.1964 7.392 90.8764 7.392H87.3884V12H86.0444V0.799999H90.0444C90.6204 0.799999 91.1217 0.885333 91.5484 1.056C91.975 1.216 92.327 1.43467 92.6044 1.712C92.8924 1.98933 93.1057 2.31467 93.2444 2.688C93.3937 3.05067 93.4684 3.43467 93.4684 3.84V4.32C93.4684 4.736 93.351 5.152 93.1164 5.568C92.8924 5.984 92.5404 6.304 92.0604 6.528V6.72C92.3804 6.77333 92.631 6.90133 92.8124 7.104C92.9937 7.30667 93.0844 7.59467 93.0844 7.968V12ZM87.3884 6.144H89.8844C90.6417 6.144 91.2017 5.984 91.5644 5.664C91.9377 5.33333 92.1244 4.85333 92.1244 4.224V3.936C92.1244 3.37067 91.9377 2.91733 91.5644 2.576C91.2017 2.224 90.6417 2.048 89.8844 2.048H87.3884V6.144ZM102.577 9.216H97.7772L96.9612 12H95.5212L98.9132 0.799999H101.441L104.833 12H103.393L102.577 9.216ZM100.081 1.376L98.1452 7.968H102.209L100.273 1.376H100.081ZM106.614 0.799999H109.174L110.678 11.424H110.87L112.374 0.799999H114.934V12H113.686V1.376H113.494L111.99 12H109.558L108.054 1.376H107.862V12H106.614V0.799999ZM128.416 0.799999H135.52V2.048H132.64V10.752H135.52V12H128.416V10.752H131.296V2.048H128.416V0.799999ZM144.757 11.424H144.949V0.799999H146.293V12H143.605L140.373 1.376H140.181V12H138.837V0.799999H141.525L144.757 11.424ZM155.802 4.032C155.802 3.66933 155.727 3.34933 155.578 3.072C155.439 2.79467 155.247 2.56533 155.002 2.384C154.756 2.20267 154.474 2.064 154.154 1.968C153.834 1.872 153.498 1.824 153.146 1.824C152.836 1.824 152.543 1.86667 152.266 1.952C151.988 2.02667 151.738 2.13867 151.514 2.288C151.3 2.43733 151.13 2.624 151.002 2.848C150.874 3.06133 150.81 3.312 150.81 3.6V3.696C150.81 4.00533 150.874 4.272 151.002 4.496C151.13 4.70933 151.316 4.896 151.562 5.056C151.818 5.20533 152.132 5.33333 152.506 5.44C152.879 5.536 153.316 5.62133 153.818 5.696C154.991 5.87733 155.855 6.224 156.41 6.736C156.964 7.23733 157.242 7.91467 157.242 8.768V8.96C157.242 9.44 157.156 9.88267 156.986 10.288C156.826 10.6827 156.58 11.024 156.25 11.312C155.93 11.6 155.53 11.824 155.05 11.984C154.57 12.144 154.015 12.224 153.386 12.224C152.671 12.224 152.036 12.1227 151.482 11.92C150.938 11.7067 150.479 11.4187 150.106 11.056C149.743 10.6827 149.466 10.2507 149.274 9.76C149.082 9.25867 148.986 8.71467 148.986 8.128V7.648H150.33V8.032C150.33 9.01333 150.596 9.74933 151.13 10.24C151.674 10.7307 152.426 10.976 153.386 10.976C154.218 10.976 154.842 10.7947 155.258 10.432C155.684 10.0587 155.898 9.568 155.898 8.96V8.864C155.898 8.27733 155.679 7.82933 155.242 7.52C154.815 7.21067 154.116 6.98667 153.146 6.848C152.58 6.77333 152.068 6.66133 151.61 6.512C151.162 6.352 150.778 6.14933 150.458 5.904C150.138 5.648 149.892 5.344 149.722 4.992C149.551 4.64 149.466 4.224 149.466 3.744V3.552C149.466 3.11467 149.556 2.71467 149.738 2.352C149.919 1.98933 150.17 1.67467 150.49 1.408C150.82 1.14133 151.21 0.938666 151.658 0.799999C152.116 0.650666 152.618 0.575999 153.162 0.575999C153.791 0.575999 154.351 0.666666 154.842 0.848C155.343 1.02933 155.764 1.27467 156.106 1.584C156.447 1.88267 156.703 2.24 156.874 2.656C157.055 3.06133 157.146 3.488 157.146 3.936V4.608H155.802V4.032ZM159.822 0.799999H167.694V2.048H164.43V12H163.086V2.048H159.822V0.799999ZM170.803 0.799999H177.907V2.048H175.027V10.752H177.907V12H170.803V10.752H173.683V2.048H170.803V0.799999ZM181.016 0.799999H188.888V2.048H185.624V12H184.28V2.048H181.016V0.799999ZM193.053 0.799999V8.224C193.053 9.13067 193.261 9.81867 193.677 10.288C194.104 10.7467 194.728 10.976 195.549 10.976C196.37 10.976 196.989 10.7467 197.405 10.288C197.832 9.81867 198.045 9.13067 198.045 8.224V0.799999H199.389V8.224C199.389 9.52533 199.048 10.5173 198.365 11.2C197.682 11.8827 196.744 12.224 195.549 12.224C194.354 12.224 193.416 11.8827 192.733 11.2C192.05 10.5173 191.709 9.52533 191.709 8.224V0.799999H193.053ZM202.21 0.799999H210.082V2.048H206.818V12H205.474V2.048H202.21V0.799999ZM213.351 0.799999H220.135V2.048H214.695V5.76H220.039V7.008H214.695V10.752H220.231V12H213.351V0.799999ZM234.001 5.152C234.001 3.70133 234.347 2.576 235.041 1.776C235.734 0.975999 236.699 0.575999 237.937 0.575999C239.174 0.575999 240.139 0.975999 240.833 1.776C241.526 2.576 241.873 3.70133 241.873 5.152V7.648C241.873 9.14133 241.526 10.2773 240.833 11.056C240.139 11.8347 239.174 12.224 237.937 12.224C236.699 12.224 235.734 11.8347 235.041 11.056C234.347 10.2773 234.001 9.14133 234.001 7.648V5.152ZM237.937 10.976C238.801 10.976 239.446 10.6827 239.873 10.096C240.31 9.49867 240.529 8.65067 240.529 7.552V5.248C240.529 4.224 240.31 3.39733 239.873 2.768C239.446 2.13867 238.801 1.824 237.937 1.824C237.073 1.824 236.422 2.13867 235.985 2.768C235.558 3.39733 235.345 4.224 235.345 5.248V7.552C235.345 8.65067 235.558 9.49867 235.985 10.096C236.422 10.6827 237.073 10.976 237.937 10.976ZM245.157 0.799999H252.037V2.048H246.501V5.76H251.941V7.008H246.501V12H245.157V0.799999ZM265.791 0.799999H273.663V2.048H270.399V12H269.055V2.048H265.791V0.799999ZM276.932 0.799999H283.716V2.048H278.276V5.76H283.62V7.008H278.276V10.752H283.812V12H276.932V0.799999ZM290.985 10.976C291.444 10.976 291.833 10.9013 292.153 10.752C292.484 10.592 292.75 10.384 292.953 10.128C293.166 9.86133 293.321 9.56267 293.417 9.232C293.524 8.89067 293.577 8.53333 293.577 8.16V7.968H294.921V8.16C294.921 8.72533 294.836 9.25867 294.665 9.76C294.494 10.2507 294.244 10.6827 293.913 11.056C293.582 11.4187 293.172 11.7067 292.681 11.92C292.19 12.1227 291.625 12.224 290.985 12.224C289.748 12.224 288.782 11.8347 288.089 11.056C287.396 10.2773 287.049 9.14133 287.049 7.648V5.152C287.049 3.70133 287.396 2.576 288.089 1.776C288.782 0.975999 289.748 0.575999 290.985 0.575999C291.625 0.575999 292.19 0.682666 292.681 0.896C293.172 1.09867 293.582 1.38667 293.913 1.76C294.244 2.12267 294.494 2.55467 294.665 3.056C294.836 3.54667 294.921 4.07467 294.921 4.64V4.832H293.577V4.64C293.566 4.27733 293.508 3.92533 293.401 3.584C293.305 3.24267 293.15 2.944 292.937 2.688C292.734 2.42133 292.473 2.21333 292.153 2.064C291.833 1.904 291.444 1.824 290.985 1.824C290.121 1.824 289.47 2.13867 289.033 2.768C288.606 3.39733 288.393 4.224 288.393 5.248V7.552C288.393 8.65067 288.606 9.49867 289.033 10.096C289.47 10.6827 290.121 10.976 290.985 10.976ZM297.79 0.799999H299.134V5.76H303.902V0.799999H305.246V12H303.902V7.008H299.134V12H297.79V0.799999ZM314.307 11.424H314.499V0.799999H315.843V12H313.155L309.923 1.376H309.731V12H308.387V0.799999H311.075L314.307 11.424ZM318.776 5.152C318.776 3.70133 319.122 2.576 319.816 1.776C320.509 0.975999 321.474 0.575999 322.712 0.575999C323.949 0.575999 324.914 0.975999 325.608 1.776C326.301 2.576 326.648 3.70133 326.648 5.152V7.648C326.648 9.14133 326.301 10.2773 325.608 11.056C324.914 11.8347 323.949 12.224 322.712 12.224C321.474 12.224 320.509 11.8347 319.816 11.056C319.122 10.2773 318.776 9.14133 318.776 7.648V5.152ZM322.712 10.976C323.576 10.976 324.221 10.6827 324.648 10.096C325.085 9.49867 325.304 8.65067 325.304 7.552V5.248C325.304 4.224 325.085 3.39733 324.648 2.768C324.221 2.13867 323.576 1.824 322.712 1.824C321.848 1.824 321.197 2.13867 320.76 2.768C320.333 3.39733 320.12 4.224 320.12 5.248V7.552C320.12 8.65067 320.333 9.49867 320.76 10.096C321.197 10.6827 321.848 10.976 322.712 10.976ZM329.804 0.799999H331.148V10.752H337.004V12H329.804V0.799999ZM339.969 5.152C339.969 3.70133 340.316 2.576 341.009 1.776C341.703 0.975999 342.668 0.575999 343.905 0.575999C345.143 0.575999 346.108 0.975999 346.801 1.776C347.495 2.576 347.841 3.70133 347.841 5.152V7.648C347.841 9.14133 347.495 10.2773 346.801 11.056C346.108 11.8347 345.143 12.224 343.905 12.224C342.668 12.224 341.703 11.8347 341.009 11.056C340.316 10.2773 339.969 9.14133 339.969 7.648V5.152ZM343.905 10.976C344.769 10.976 345.415 10.6827 345.841 10.096C346.279 9.49867 346.497 8.65067 346.497 7.552V5.248C346.497 4.224 346.279 3.39733 345.841 2.768C345.415 2.13867 344.769 1.824 343.905 1.824C343.041 1.824 342.391 2.13867 341.953 2.768C341.527 3.39733 341.313 4.224 341.313 5.248V7.552C341.313 8.65067 341.527 9.49867 341.953 10.096C342.391 10.6827 343.041 10.976 343.905 10.976ZM353.43 6.624H358.422V12H357.174V10.656H356.982C356.801 11.1253 356.481 11.504 356.022 11.792C355.564 12.08 355.03 12.224 354.422 12.224C353.217 12.224 352.268 11.8347 351.574 11.056C350.892 10.2773 350.55 9.14133 350.55 7.648V5.152C350.55 3.70133 350.897 2.576 351.59 1.776C352.284 0.975999 353.249 0.575999 354.486 0.575999C355.126 0.575999 355.692 0.682666 356.182 0.896C356.673 1.09867 357.084 1.38667 357.414 1.76C357.745 2.12267 357.996 2.55467 358.166 3.056C358.337 3.54667 358.422 4.07467 358.422 4.64V4.832H357.078V4.64C357.078 4.27733 357.025 3.92533 356.918 3.584C356.822 3.24267 356.668 2.944 356.454 2.688C356.252 2.42133 355.985 2.21333 355.654 2.064C355.334 1.904 354.945 1.824 354.486 1.824C353.622 1.824 352.972 2.13867 352.534 2.768C352.108 3.39733 351.894 4.224 351.894 5.248V7.552C351.894 8.65067 352.108 9.49867 352.534 10.096C352.972 10.6827 353.633 10.976 354.518 10.976C355.318 10.976 355.942 10.72 356.39 10.208C356.849 9.696 357.078 8.98133 357.078 8.064V7.872H353.43V6.624ZM364.427 8.064H364.139L360.635 0.799999H362.139L365.003 6.912H365.195L368.059 0.799999H369.563L366.059 8.064H365.771V12H364.427V8.064Z" fill="white"/>
</svg>
