<svg width="526" height="107" viewBox="0 0 526 107" fill="none" xmlns="http://www.w3.org/2000/svg">
<g filter="url(#filter0_d_21_77)">
<path d="M46.4 62C46.05 62 45.7 61.93 45.49 61.58L18.12 25.95V48H28.27C28.69 48 28.97 48.28 28.97 48.7V52.2C28.97 52.62 28.69 52.9 28.27 52.9H13.85C13.43 52.9 13.15 52.62 13.15 52.2V48L13.22 18.25C13.22 17.76 13.5 17.55 13.92 17.55H17.56C17.91 17.55 18.26 17.62 18.47 17.97L45.84 53.95L45.91 18.18C45.91 17.76 46.19 17.48 46.61 17.48L50.11 17.55C50.53 17.55 50.81 17.83 50.81 18.25V61.3C50.81 61.72 50.53 62 50.11 62H46.4ZM13.15 61.3V57.8C13.15 57.38 13.43 57.1 13.85 57.1H35.48C35.9 57.1 36.18 57.38 36.18 57.8V61.3C36.18 61.72 35.9 62 35.48 62H13.85C13.43 62 13.15 61.72 13.15 61.3ZM110.235 62C98.3351 62 92.1051 52.97 92.1051 43.94V18.25C92.1051 17.83 92.3851 17.55 92.8051 17.55H96.3051C96.7251 17.55 97.0051 17.83 97.0051 18.25V43.94C97.0051 50.31 100.995 57.1 110.235 57.1C119.335 57.1 123.325 50.31 123.325 43.94V18.25C123.325 17.83 123.605 17.55 124.025 17.55H127.525C127.945 17.55 128.225 17.83 128.225 18.25V43.94C128.225 52.97 122.065 62 110.235 62ZM170.256 62C169.836 62 169.556 61.72 169.556 61.3L169.626 18.25C169.626 17.76 169.906 17.55 170.326 17.55H187.896C188.316 17.55 188.596 17.83 188.596 18.25V21.75C188.596 22.17 188.316 22.45 187.896 22.45H174.526V61.3C174.526 61.72 174.246 62 173.826 62H170.256ZM245.657 45.27H232.357V61.3C232.357 61.72 232.077 62 231.657 62H228.157C227.737 62 227.457 61.72 227.457 61.3V41.07C227.457 40.65 227.737 40.37 228.157 40.37H245.657C250.627 40.37 254.617 36.38 254.617 31.34C254.617 26.44 250.627 22.45 245.657 22.45H231.307C230.887 22.45 230.607 22.17 230.607 21.75V18.25C230.607 17.83 230.887 17.55 231.307 17.55H245.657C253.287 17.55 259.517 23.71 259.517 31.34C259.517 39.04 253.287 45.27 245.657 45.27ZM290.474 62C289.984 62 289.704 61.65 289.914 61.16L307.344 18.11C307.484 17.69 307.764 17.55 308.114 17.55H310.564C310.914 17.55 311.194 17.69 311.334 18.11L328.764 61.16C328.974 61.65 328.694 62 328.204 62H290.474ZM296.774 57.1H321.904L309.374 26.09L296.774 57.1ZM418.657 62C418.307 62 418.027 61.86 417.887 61.44L403.257 24.2L388.557 61.44C388.417 61.86 388.137 62 387.787 62H383.727C383.237 62 383.027 61.65 383.237 61.16L392.967 36.73L388.067 24.27L373.437 61.44C373.297 61.86 373.017 62 372.667 62H368.607C368.117 62 367.907 61.65 368.117 61.16L385.267 18.11C385.407 17.69 385.687 17.55 386.037 17.55H390.167C390.517 17.55 390.797 17.69 390.937 18.11L395.627 29.94L400.387 18.11C400.527 17.69 400.807 17.55 401.157 17.55H405.287C405.637 17.55 405.917 17.69 406.057 18.11L423.207 61.16C423.417 61.65 423.207 62 422.717 62H418.657ZM464.552 43.87C455.872 43.87 456.642 52.62 456.642 57.1H478.762C479.182 57.1 479.462 57.38 479.462 57.8V61.3C479.462 61.72 479.182 62 478.762 62H452.862C452.442 62 452.162 61.72 452.162 61.3V57.1C452.162 48.98 452.652 39.39 464.272 39.39H464.552C471.272 39.39 474.282 35.33 474.282 30.36C474.282 25.46 469.872 21.4 464.552 21.4C459.512 21.4 455.312 24.97 454.822 29.38C454.752 29.87 454.472 30.08 454.052 30.08H450.552C450.132 30.08 449.852 29.8 449.852 29.38C450.412 22.45 456.782 16.92 464.552 16.92C472.602 16.92 479.182 22.94 479.182 30.36C479.182 37.85 474.002 43.87 464.552 43.87ZM465.042 52.69V49.19C465.042 48.77 465.322 48.49 465.742 48.49H478.552C478.972 48.49 479.252 48.77 479.252 49.19V52.69C479.252 53.11 478.972 53.39 478.552 53.39H465.742C465.322 53.39 465.042 53.11 465.042 52.69ZM497.706 61.86C489.866 61.86 483.496 56.26 483.006 49.19C483.006 48.77 483.286 48.49 483.706 48.49H487.206C487.626 48.49 487.906 48.7 487.976 49.19C488.396 53.74 492.596 57.38 497.706 57.38C503.026 57.38 507.436 53.32 507.436 48.42C507.436 43.45 503.026 39.39 497.706 39.39H495.816C495.396 39.39 495.116 39.11 495.116 38.69V35.61C495.116 35.19 495.396 34.91 495.816 34.91H497.776C501.976 34.91 505.476 31.76 505.476 27.84C505.476 23.92 501.976 20.7 497.776 20.7C493.576 20.7 490.076 23.92 490.076 27.84C490.076 27.98 489.796 28.05 489.376 28.05H485.876C485.456 28.05 485.176 27.98 485.176 27.84C485.176 21.4 490.846 16.29 497.776 16.29C504.706 16.29 510.306 21.4 510.306 27.84C510.306 31.55 508.206 35.47 504.076 36.94C508.206 38.2 512.336 43.59 512.336 48.42C512.336 55.84 505.756 61.86 497.706 61.86Z" fill="white"/>
</g>
<path d="M20.384 99.848C20.1707 100.349 19.872 100.707 19.488 100.92C19.104 101.123 18.656 101.224 18.144 101.224C17.664 101.224 17.2107 101.133 16.784 100.952C16.368 100.771 16 100.504 15.68 100.152C15.36 99.8 15.104 99.3733 14.912 98.872C14.7307 98.3707 14.64 97.8 14.64 97.16V96.904C14.64 96.2747 14.7307 95.7093 14.912 95.208C15.0933 94.7067 15.3387 94.28 15.648 93.928C15.9573 93.576 16.3147 93.3093 16.72 93.128C17.136 92.936 17.5787 92.84 18.048 92.84C18.6133 92.84 19.0667 92.936 19.408 93.128C19.76 93.32 20.0373 93.6187 20.24 94.024H20.528V93.064H22.544V98.6C22.544 98.92 22.688 99.08 22.976 99.08H23.28V101H21.904C21.5413 101 21.2427 100.893 21.008 100.68C20.784 100.467 20.672 100.189 20.672 99.848H20.384ZM18.592 99.304C19.1787 99.304 19.648 99.112 20 98.728C20.352 98.3333 20.528 97.8 20.528 97.128V96.936C20.528 96.264 20.352 95.736 20 95.352C19.648 94.9573 19.1787 94.76 18.592 94.76C18.0053 94.76 17.536 94.9573 17.184 95.352C16.832 95.736 16.656 96.264 16.656 96.936V97.128C16.656 97.8 16.832 98.3333 17.184 98.728C17.536 99.112 18.0053 99.304 18.592 99.304ZM28.6609 101H26.6449V93.064H28.6609V94.248H28.9489C29.1302 93.8 29.4235 93.4533 29.8289 93.208C30.2342 92.9627 30.7089 92.84 31.2529 92.84C31.6369 92.84 31.9942 92.904 32.3249 93.032C32.6662 93.1493 32.9649 93.336 33.2209 93.592C33.4769 93.848 33.6742 94.1733 33.8129 94.568C33.9622 94.9627 34.0369 95.432 34.0369 95.976V101H32.0209V96.488C32.0209 95.9227 31.8822 95.48 31.6049 95.16C31.3382 94.8293 30.9489 94.664 30.4369 94.664C29.8395 94.664 29.3915 94.8667 29.0929 95.272C28.8049 95.6667 28.6609 96.2 28.6609 96.872V101ZM49.5826 99.08H52.2706V94.984H49.7746V93.064H54.2866V99.08H56.5906V101H49.5826V99.08ZM54.7826 90.712C54.7826 90.9253 54.74 91.128 54.6546 91.32C54.58 91.5013 54.4733 91.6613 54.3346 91.8C54.196 91.928 54.0306 92.0347 53.8386 92.12C53.6573 92.1947 53.4653 92.232 53.2626 92.232C53.0493 92.232 52.852 92.1947 52.6706 92.12C52.4893 92.0347 52.3293 91.928 52.1906 91.8C52.052 91.6613 51.94 91.5013 51.8546 91.32C51.78 91.128 51.7426 90.9253 51.7426 90.712C51.7426 90.4987 51.78 90.3013 51.8546 90.12C51.94 89.928 52.052 89.768 52.1906 89.64C52.3293 89.5013 52.4893 89.3947 52.6706 89.32C52.852 89.2347 53.0493 89.192 53.2626 89.192C53.4653 89.192 53.6573 89.2347 53.8386 89.32C54.0306 89.3947 54.196 89.5013 54.3346 89.64C54.4733 89.768 54.58 89.928 54.6546 90.12C54.74 90.3013 54.7826 90.4987 54.7826 90.712ZM62.8515 101H60.8355V93.064H62.8515V94.248H63.1395C63.3208 93.8 63.6142 93.4533 64.0195 93.208C64.4248 92.9627 64.8995 92.84 65.4435 92.84C65.8275 92.84 66.1848 92.904 66.5155 93.032C66.8568 93.1493 67.1555 93.336 67.4115 93.592C67.6675 93.848 67.8648 94.1733 68.0035 94.568C68.1528 94.9627 68.2275 95.432 68.2275 95.976V101H66.2115V96.488C66.2115 95.9227 66.0728 95.48 65.7955 95.16C65.5288 94.8293 65.1395 94.664 64.6275 94.664C64.0302 94.664 63.5822 94.8667 63.2835 95.272C62.9955 95.6667 62.8515 96.2 62.8515 96.872V101ZM74.2484 101H72.2324V93.064H74.2484V94.248H74.5364C74.7177 93.8 75.011 93.4533 75.4164 93.208C75.8217 92.9627 76.2964 92.84 76.8404 92.84C77.2244 92.84 77.5817 92.904 77.9124 93.032C78.2537 93.1493 78.5524 93.336 78.8084 93.592C79.0644 93.848 79.2617 94.1733 79.4004 94.568C79.5497 94.9627 79.6244 95.432 79.6244 95.976V101H77.6084V96.488C77.6084 95.9227 77.4697 95.48 77.1924 95.16C76.9257 94.8293 76.5364 94.664 76.0244 94.664C75.427 94.664 74.979 94.8667 74.6804 95.272C74.3924 95.6667 74.2484 96.2 74.2484 96.872V101ZM91.4052 97.128C91.4052 97.7893 91.2932 98.376 91.0692 98.888C90.8452 99.3893 90.5412 99.816 90.1572 100.168C89.7732 100.509 89.3306 100.771 88.8292 100.952C88.3386 101.133 87.8212 101.224 87.2772 101.224C86.7332 101.224 86.2106 101.133 85.7092 100.952C85.2186 100.771 84.7812 100.509 84.3972 100.168C84.0132 99.816 83.7092 99.3893 83.4852 98.888C83.2612 98.376 83.1492 97.7893 83.1492 97.128V96.936C83.1492 96.2853 83.2612 95.7093 83.4852 95.208C83.7092 94.696 84.0132 94.264 84.3972 93.912C84.7812 93.56 85.2186 93.2933 85.7092 93.112C86.2106 92.9307 86.7332 92.84 87.2772 92.84C87.8212 92.84 88.3386 92.9307 88.8292 93.112C89.3306 93.2933 89.7732 93.56 90.1572 93.912C90.5412 94.264 90.8452 94.696 91.0692 95.208C91.2932 95.7093 91.4052 96.2853 91.4052 96.936V97.128ZM87.2772 99.304C87.5652 99.304 87.8372 99.256 88.0932 99.16C88.3492 99.064 88.5732 98.9253 88.7652 98.744C88.9572 98.5627 89.1066 98.344 89.2132 98.088C89.3306 97.8213 89.3892 97.5227 89.3892 97.192V96.872C89.3892 96.5413 89.3306 96.248 89.2132 95.992C89.1066 95.7253 88.9572 95.5013 88.7652 95.32C88.5732 95.1387 88.3492 95 88.0932 94.904C87.8372 94.808 87.5652 94.76 87.2772 94.76C86.9892 94.76 86.7172 94.808 86.4612 94.904C86.2052 95 85.9812 95.1387 85.7892 95.32C85.5972 95.5013 85.4426 95.7253 85.3252 95.992C85.2186 96.248 85.1652 96.5413 85.1652 96.872V97.192C85.1652 97.5227 85.2186 97.8213 85.3252 98.088C85.4426 98.344 85.5972 98.5627 85.7892 98.744C85.9812 98.9253 86.2052 99.064 86.4612 99.16C86.7172 99.256 86.9892 99.304 87.2772 99.304ZM94.4661 93.064H96.6421L98.5141 100.04H98.8021L100.674 93.064H102.85L100.578 101H96.7381L94.4661 93.064ZM111.559 99.848C111.346 100.349 111.047 100.707 110.663 100.92C110.279 101.123 109.831 101.224 109.319 101.224C108.839 101.224 108.386 101.133 107.959 100.952C107.543 100.771 107.175 100.504 106.855 100.152C106.535 99.8 106.279 99.3733 106.087 98.872C105.906 98.3707 105.815 97.8 105.815 97.16V96.904C105.815 96.2747 105.906 95.7093 106.087 95.208C106.268 94.7067 106.514 94.28 106.823 93.928C107.132 93.576 107.49 93.3093 107.895 93.128C108.311 92.936 108.754 92.84 109.223 92.84C109.788 92.84 110.242 92.936 110.583 93.128C110.935 93.32 111.212 93.6187 111.415 94.024H111.703V93.064H113.719V98.6C113.719 98.92 113.863 99.08 114.151 99.08H114.455V101H113.079C112.716 101 112.418 100.893 112.183 100.68C111.959 100.467 111.847 100.189 111.847 99.848H111.559ZM109.767 99.304C110.354 99.304 110.823 99.112 111.175 98.728C111.527 98.3333 111.703 97.8 111.703 97.128V96.936C111.703 96.264 111.527 95.736 111.175 95.352C110.823 94.9573 110.354 94.76 109.767 94.76C109.18 94.76 108.711 94.9573 108.359 95.352C108.007 95.736 107.831 96.264 107.831 96.936V97.128C107.831 97.8 108.007 98.3333 108.359 98.728C108.711 99.112 109.18 99.304 109.767 99.304ZM117.596 93.064H119.948V89.8H121.964V93.064H124.828V94.984H121.964V98.6C121.964 98.92 122.108 99.08 122.396 99.08H124.54V101H121.18C120.817 101 120.519 100.883 120.284 100.648C120.06 100.413 119.948 100.115 119.948 99.752V94.984H117.596V93.064ZM129.361 99.08H132.049V94.984H129.553V93.064H134.065V99.08H136.369V101H129.361V99.08ZM134.561 90.712C134.561 90.9253 134.518 91.128 134.433 91.32C134.358 91.5013 134.251 91.6613 134.113 91.8C133.974 91.928 133.809 92.0347 133.617 92.12C133.435 92.1947 133.243 92.232 133.041 92.232C132.827 92.232 132.63 92.1947 132.449 92.12C132.267 92.0347 132.107 91.928 131.969 91.8C131.83 91.6613 131.718 91.5013 131.633 91.32C131.558 91.128 131.521 90.9253 131.521 90.712C131.521 90.4987 131.558 90.3013 131.633 90.12C131.718 89.928 131.83 89.768 131.969 89.64C132.107 89.5013 132.267 89.3947 132.449 89.32C132.63 89.2347 132.827 89.192 133.041 89.192C133.243 89.192 133.435 89.2347 133.617 89.32C133.809 89.3947 133.974 89.5013 134.113 89.64C134.251 89.768 134.358 89.928 134.433 90.12C134.518 90.3013 134.561 90.4987 134.561 90.712ZM148.39 97.128C148.39 97.7893 148.278 98.376 148.054 98.888C147.83 99.3893 147.526 99.816 147.142 100.168C146.758 100.509 146.315 100.771 145.814 100.952C145.323 101.133 144.806 101.224 144.262 101.224C143.718 101.224 143.195 101.133 142.694 100.952C142.203 100.771 141.766 100.509 141.382 100.168C140.998 99.816 140.694 99.3893 140.47 98.888C140.246 98.376 140.134 97.7893 140.134 97.128V96.936C140.134 96.2853 140.246 95.7093 140.47 95.208C140.694 94.696 140.998 94.264 141.382 93.912C141.766 93.56 142.203 93.2933 142.694 93.112C143.195 92.9307 143.718 92.84 144.262 92.84C144.806 92.84 145.323 92.9307 145.814 93.112C146.315 93.2933 146.758 93.56 147.142 93.912C147.526 94.264 147.83 94.696 148.054 95.208C148.278 95.7093 148.39 96.2853 148.39 96.936V97.128ZM144.262 99.304C144.55 99.304 144.822 99.256 145.078 99.16C145.334 99.064 145.558 98.9253 145.75 98.744C145.942 98.5627 146.091 98.344 146.198 98.088C146.315 97.8213 146.374 97.5227 146.374 97.192V96.872C146.374 96.5413 146.315 96.248 146.198 95.992C146.091 95.7253 145.942 95.5013 145.75 95.32C145.558 95.1387 145.334 95 145.078 94.904C144.822 94.808 144.55 94.76 144.262 94.76C143.974 94.76 143.702 94.808 143.446 94.904C143.19 95 142.966 95.1387 142.774 95.32C142.582 95.5013 142.427 95.7253 142.31 95.992C142.203 96.248 142.15 96.5413 142.15 96.872V97.192C142.15 97.5227 142.203 97.8213 142.31 98.088C142.427 98.344 142.582 98.5627 142.774 98.744C142.966 98.9253 143.19 99.064 143.446 99.16C143.702 99.256 143.974 99.304 144.262 99.304ZM154.026 101H152.01V93.064H154.026V94.248H154.314C154.496 93.8 154.789 93.4533 155.194 93.208C155.6 92.9627 156.074 92.84 156.618 92.84C157.002 92.84 157.36 92.904 157.69 93.032C158.032 93.1493 158.33 93.336 158.586 93.592C158.842 93.848 159.04 94.1733 159.178 94.568C159.328 94.9627 159.402 95.432 159.402 95.976V101H157.386V96.488C157.386 95.9227 157.248 95.48 156.97 95.16C156.704 94.8293 156.314 94.664 155.802 94.664C155.205 94.664 154.757 94.8667 154.458 95.272C154.17 95.6667 154.026 96.2 154.026 96.872V101ZM180.5 99.848H180.212C180.127 100.029 180.02 100.205 179.892 100.376C179.775 100.536 179.615 100.68 179.412 100.808C179.22 100.936 178.986 101.037 178.708 101.112C178.442 101.187 178.116 101.224 177.732 101.224C177.242 101.224 176.783 101.139 176.356 100.968C175.94 100.787 175.572 100.525 175.252 100.184C174.943 99.832 174.698 99.4053 174.516 98.904C174.346 98.4027 174.26 97.8267 174.26 97.176V96.888C174.26 96.248 174.351 95.6773 174.532 95.176C174.724 94.6747 174.98 94.2533 175.3 93.912C175.631 93.56 176.01 93.2933 176.436 93.112C176.874 92.9307 177.332 92.84 177.812 92.84C178.452 92.84 178.959 92.9627 179.332 93.208C179.706 93.4427 179.999 93.7787 180.212 94.216H180.5V93.064H182.516V104.2H180.5V99.848ZM178.388 99.304C179.018 99.304 179.524 99.1067 179.908 98.712C180.303 98.3067 180.5 97.7787 180.5 97.128V96.936C180.5 96.2853 180.303 95.7627 179.908 95.368C179.524 94.9627 179.018 94.76 178.388 94.76C177.759 94.76 177.247 94.9573 176.852 95.352C176.468 95.736 176.276 96.264 176.276 96.936V97.128C176.276 97.8 176.468 98.3333 176.852 98.728C177.247 99.112 177.759 99.304 178.388 99.304ZM191.577 93.064H193.593V101H191.577V99.848H191.289C190.937 100.765 190.18 101.224 189.017 101.224C188.622 101.224 188.254 101.16 187.913 101.032C187.572 100.904 187.273 100.707 187.017 100.44C186.761 100.173 186.558 99.8427 186.409 99.448C186.27 99.0427 186.201 98.568 186.201 98.024V93.064H188.217V97.608C188.217 98.1733 188.35 98.616 188.617 98.936C188.884 99.2453 189.284 99.4 189.817 99.4C190.425 99.4 190.868 99.208 191.145 98.824C191.433 98.4293 191.577 97.896 191.577 97.224V93.064ZM199.374 97.688C199.385 97.9227 199.438 98.1413 199.534 98.344C199.641 98.536 199.779 98.7067 199.95 98.856C200.131 98.9947 200.334 99.1067 200.558 99.192C200.793 99.2667 201.038 99.304 201.294 99.304C201.795 99.304 202.179 99.2187 202.446 99.048C202.713 98.8667 202.905 98.6533 203.022 98.408L204.75 99.368C204.654 99.5707 204.521 99.784 204.35 100.008C204.179 100.221 203.955 100.419 203.678 100.6C203.411 100.781 203.081 100.931 202.686 101.048C202.302 101.165 201.849 101.224 201.326 101.224C200.729 101.224 200.185 101.128 199.694 100.936C199.203 100.744 198.777 100.467 198.414 100.104C198.062 99.7413 197.785 99.2987 197.582 98.776C197.39 98.2533 197.294 97.6613 197.294 97V96.904C197.294 96.296 197.395 95.7413 197.598 95.24C197.811 94.7387 198.099 94.312 198.462 93.96C198.825 93.608 199.246 93.336 199.726 93.144C200.217 92.9413 200.739 92.84 201.294 92.84C201.977 92.84 202.563 92.9627 203.054 93.208C203.545 93.4427 203.95 93.7467 204.27 94.12C204.59 94.4827 204.825 94.888 204.974 95.336C205.123 95.7733 205.198 96.2 205.198 96.616V97.688H199.374ZM201.278 94.664C200.766 94.664 200.35 94.7973 200.03 95.064C199.71 95.32 199.502 95.6187 199.406 95.96H203.15C203.086 95.5867 202.883 95.2773 202.542 95.032C202.211 94.7867 201.79 94.664 201.278 94.664ZM211.523 95.304C211.523 95.56 211.656 95.7467 211.923 95.864C212.19 95.9707 212.675 96.0613 213.379 96.136C214.19 96.2213 214.851 96.4667 215.363 96.872C215.875 97.2667 216.131 97.8213 216.131 98.536V98.632C216.131 99.4213 215.843 100.051 215.267 100.52C214.691 100.989 213.88 101.224 212.835 101.224C212.216 101.224 211.688 101.144 211.251 100.984C210.814 100.824 210.451 100.627 210.163 100.392C209.875 100.147 209.651 99.88 209.491 99.592C209.342 99.2933 209.24 99.0053 209.187 98.728L211.043 98.12C211.128 98.4613 211.304 98.76 211.571 99.016C211.848 99.272 212.27 99.4 212.835 99.4C213.336 99.4 213.678 99.3253 213.859 99.176C214.051 99.016 214.147 98.8453 214.147 98.664C214.147 98.5573 214.12 98.4613 214.067 98.376C214.024 98.28 213.939 98.1947 213.811 98.12C213.683 98.0347 213.507 97.9653 213.283 97.912C213.07 97.8587 212.798 97.816 212.467 97.784C211.571 97.7093 210.856 97.48 210.323 97.096C209.8 96.7013 209.539 96.1253 209.539 95.368V95.272C209.539 94.8773 209.624 94.5307 209.795 94.232C209.966 93.9333 210.19 93.6827 210.467 93.48C210.744 93.2667 211.064 93.1067 211.427 93C211.79 92.8933 212.163 92.84 212.547 92.84C213.048 92.84 213.48 92.904 213.843 93.032C214.216 93.1493 214.531 93.3093 214.787 93.512C215.043 93.704 215.251 93.9227 215.411 94.168C215.571 94.4027 215.694 94.632 215.779 94.856L213.955 95.592C213.859 95.304 213.694 95.08 213.459 94.92C213.224 94.7493 212.92 94.664 212.547 94.664C212.206 94.664 211.95 94.728 211.779 94.856C211.608 94.9733 211.523 95.1227 211.523 95.304ZM220.168 93.064H222.52V89.8H224.536V93.064H227.4V94.984H224.536V98.6C224.536 98.92 224.68 99.08 224.968 99.08H227.112V101H223.752C223.389 101 223.09 100.883 222.856 100.648C222.632 100.413 222.52 100.115 222.52 99.752V94.984H220.168V93.064Z" fill="white"/>
<defs>
<filter id="filter0_d_21_77" x="0.149902" y="3.28999" width="525.186" height="71.71" filterUnits="userSpaceOnUse" color-interpolation-filters="sRGB">
<feFlood flood-opacity="0" result="BackgroundImageFix"/>
<feColorMatrix in="SourceAlpha" type="matrix" values="0 0 0 0 0 0 0 0 0 0 0 0 0 0 0 0 0 0 127 0" result="hardAlpha"/>
<feOffset/>
<feGaussianBlur stdDeviation="6.5"/>
<feComposite in2="hardAlpha" operator="out"/>
<feColorMatrix type="matrix" values="0 0 0 0 1 0 0 0 0 1 0 0 0 0 1 0 0 0 0.5 0"/>
<feBlend mode="normal" in2="BackgroundImageFix" result="effect1_dropShadow_21_77"/>
<feBlend mode="normal" in="SourceGraphic" in2="effect1_dropShadow_21_77" result="shape"/>
</filter>
</defs>
</svg>
