<svg width="177" height="162" viewBox="0 0 177 162" fill="none" xmlns="http://www.w3.org/2000/svg">
<path d="M72.7617 45.1876L76.352 51.5209L85.2079 0.496094L72.7617 34.672V45.1876Z" fill="white"/>
<path d="M76.5918 72.0641L88.2003 90.1168L100.527 72.0641L88.2601 7.66455L76.5918 72.0641Z" fill="#55F2D4"/>
<path d="M61.9922 72.306L88.201 110.903L115.008 72.306L108.785 63.3438L105.434 52.8281L100.887 56.652L103.519 72.306L88.201 95.8467L73.481 72.306L75.3958 56.652L71.5662 52.8281L68.335 63.3438L61.9922 72.306Z" fill="white"/>
<path d="M32.586 139.977L57.5631 104.942L63.1879 113.785L32.586 139.977Z" fill="#55F2D4"/>
<path d="M100.648 102.784L92.3906 114.733V135.286L177.001 161.815L151.869 123.217L142.295 119.513L129.729 112.582L154.502 152.494L109.743 114.136L121.711 93.4628L114.291 81.9912L108.427 91.3119L111.898 101.111L100.648 126.683V102.784Z" fill="white"/>
<path d="M23.6957 124.058L0 161.819L84.0119 135.291V114.499L76.3527 103.744L74.1985 124.058L65.3426 100.637L69.1721 92.2725L61.9916 81.7568L54.5718 93.9454L67.4967 114.499L22.0202 151.543L45.9552 113.304L34.9451 119.757L23.6957 124.058Z" fill="white"/>
<path d="M104.117 46.381L100.527 52.7143L91.671 1.68945L104.117 35.8653V46.381Z" fill="white"/>
<path d="M142.785 138.931L117.999 105.776L113.571 113.663L142.785 138.931Z" fill="#55F2D4"/>
</svg>
