<svg width="1280" height="902" viewBox="0 0 1280 902" fill="none" xmlns="http://www.w3.org/2000/svg">
<g clip-path="url(#clip0_61_2)">
<rect width="1280" height="902" fill="white"/>
<rect width="1280" height="832" fill="#0C0C0C"/>
<g filter="url(#filter0_f_61_2)">
<ellipse cx="1662.5" cy="1286" rx="2089.5" ry="1864" fill="#0D081A"/>
<ellipse cx="1662.5" cy="1286" rx="1903.5" ry="1698" fill="#221440"/>
<ellipse cx="1662.5" cy="1286" rx="1301.33" ry="1160.95" fill="#442881"/>
<ellipse cx="1662.5" cy="1286" rx="965.045" ry="860.941" fill="#673DC1"/>
<ellipse cx="1662.5" cy="1286" rx="683.509" ry="609.775" fill="#997DD6"/>
<circle cx="602.5" cy="423.5" r="98.5" fill="#F53565"/>
</g>
<g style="mix-blend-mode:overlay">
<path d="M2958.72 1182.42C2960.98 1205.21 2962.5 1228.2 2963.26 1251.36L2962.76 1251.38C2963.14 1262.88 2963.33 1274.42 2963.33 1286C2963.33 1297.58 2963.14 1309.12 2962.76 1320.62L2963.26 1320.64C2962.5 1343.8 2960.98 1366.79 2958.72 1389.58L2958.22 1389.54C2955.94 1412.55 2952.9 1435.38 2949.14 1457.99L2949.63 1458.07C2945.83 1480.88 2941.29 1503.48 2936.02 1525.84L2935.54 1525.72C2930.24 1548.2 2924.22 1570.44 2917.5 1592.42L2917.97 1592.57C2911.22 1614.63 2903.75 1636.44 2895.6 1657.96L2895.13 1657.78C2886.97 1679.33 2878.11 1700.6 2868.59 1721.56L2869.04 1721.77C2859.52 1742.74 2849.32 1763.42 2838.48 1783.76L2838.04 1783.53C2827.22 1803.84 2815.76 1823.82 2803.68 1843.46L2804.1 1843.72C2792.05 1863.32 2779.38 1882.57 2766.12 1901.46L2765.71 1901.17C2752.5 1919.98 2738.7 1938.43 2724.34 1956.5L2724.73 1956.81C2710.43 1974.8 2695.56 1992.42 2680.16 2009.64L2679.78 2009.31C2664.47 2026.43 2648.62 2043.16 2632.26 2059.47L2632.61 2059.82C2616.34 2076.05 2599.56 2091.86 2582.3 2107.25L2581.97 2106.88C2564.83 2122.15 2547.22 2137 2529.16 2151.4L2529.47 2151.79C2511.52 2166.11 2493.12 2179.99 2474.3 2193.41L2474.01 2193C2455.32 2206.32 2436.22 2219.2 2416.71 2231.6L2416.98 2232.02C2397.6 2244.34 2377.84 2256.2 2357.7 2267.57L2357.45 2267.14C2337.47 2278.43 2317.12 2289.24 2296.42 2299.56L2296.65 2300.01C2276.11 2310.26 2255.22 2320.02 2234.01 2329.29L2233.81 2328.83C2212.78 2338.01 2191.44 2346.71 2169.79 2354.89L2169.97 2355.36C2148.52 2363.47 2126.77 2371.09 2104.74 2378.19L2104.59 2377.71C2082.77 2384.74 2060.68 2391.27 2038.34 2397.27L2038.47 2397.76C2016.32 2403.71 1993.93 2409.15 1971.31 2414.06L1971.2 2413.57C1948.81 2418.43 1926.19 2422.78 1903.35 2426.59L1903.44 2427.09C1880.83 2430.86 1858.02 2434.12 1835.01 2436.83L1834.95 2436.34C1812.2 2439.03 1789.27 2441.19 1766.17 2442.81L1766.2 2443.31C1743.35 2444.92 1720.33 2446 1697.16 2446.54L1697.15 2446.04C1685.63 2446.31 1674.08 2446.45 1662.5 2446.45C1650.91 2446.45 1639.36 2446.31 1627.85 2446.04L1627.84 2446.54C1604.67 2446 1581.65 2444.92 1558.8 2443.31L1558.83 2442.81C1535.73 2441.19 1512.79 2439.03 1490.05 2436.34L1489.99 2436.83C1466.98 2434.12 1444.17 2430.86 1421.56 2427.09L1421.65 2426.59C1398.81 2422.78 1376.19 2418.43 1353.8 2413.57L1353.69 2414.06C1331.07 2409.15 1308.68 2403.71 1286.53 2397.76L1286.66 2397.27C1264.32 2391.27 1242.23 2384.74 1220.41 2377.71L1220.26 2378.19C1198.23 2371.09 1176.48 2363.47 1155.03 2355.36L1155.21 2354.89C1133.56 2346.71 1112.22 2338.01 1091.19 2328.83L1090.99 2329.29C1069.78 2320.02 1048.89 2310.26 1028.35 2300.01L1028.58 2299.56C1007.88 2289.24 987.529 2278.43 967.549 2267.14L967.303 2267.57C947.162 2256.2 927.395 2244.34 908.023 2232.02L908.291 2231.6C888.784 2219.2 869.677 2206.32 850.99 2193L850.7 2193.41C831.875 2179.99 813.477 2166.11 795.527 2151.79L795.839 2151.4C777.777 2137 760.168 2122.15 743.035 2106.88L742.702 2107.25C725.442 2091.86 708.665 2076.05 692.391 2059.82L692.744 2059.47C676.384 2043.16 660.534 2026.43 645.215 2009.31L644.842 2009.64C629.44 1992.42 614.574 1974.8 600.269 1956.81L600.661 1956.5C586.299 1938.43 572.502 1919.98 559.293 1901.17L558.884 1901.46C545.622 1882.57 532.952 1863.32 520.898 1843.72L521.324 1843.46C509.243 1823.82 497.78 1803.84 486.96 1783.53L486.518 1783.76C475.679 1763.41 465.483 1742.74 455.955 1721.77L456.41 1721.56C446.889 1700.6 438.034 1679.33 429.869 1657.78L429.401 1657.96C421.247 1636.44 413.781 1614.63 407.027 1592.57L407.505 1592.42C400.777 1570.44 394.755 1548.2 389.463 1525.72L388.976 1525.84C383.712 1503.48 379.169 1480.88 375.37 1458.07L375.863 1457.99C372.098 1435.38 369.063 1412.55 366.782 1389.54L366.284 1389.58C364.025 1366.79 362.504 1343.8 361.743 1320.64L362.243 1320.62C361.865 1309.12 361.675 1297.58 361.675 1286C361.675 1274.42 361.865 1262.88 362.243 1251.38L361.743 1251.36C362.504 1228.2 364.025 1205.21 366.284 1182.42L366.782 1182.46C369.063 1159.45 372.098 1136.62 375.863 1114.01L375.37 1113.93C379.169 1091.12 383.712 1068.52 388.976 1046.16L389.463 1046.28C394.756 1023.8 400.777 1001.56 407.505 979.58L407.027 979.434C413.781 957.367 421.247 935.562 429.401 914.041L429.869 914.218C438.034 892.668 446.889 871.401 456.41 850.439L455.955 850.233C465.483 829.256 475.679 808.585 486.518 788.239L486.96 788.475C497.78 768.164 509.243 748.179 521.324 728.539L520.898 728.277C532.952 708.682 545.622 689.43 558.884 670.544L559.293 670.831C572.502 652.019 586.299 633.57 600.661 615.502L600.269 615.191C614.574 597.195 629.44 579.579 644.842 562.361L645.215 562.695C660.534 545.572 676.384 528.844 692.744 512.532L692.391 512.178C708.665 495.952 725.442 480.136 742.702 464.751L743.034 465.124C760.168 449.852 777.777 435.003 795.839 420.598L795.527 420.207C813.477 405.891 831.875 392.013 850.7 378.592L850.99 378.999C869.677 365.676 888.784 352.804 908.291 340.399L908.023 339.978C927.395 327.659 947.162 315.802 967.303 304.425L967.549 304.861C987.529 293.574 1007.88 282.76 1028.58 272.436L1028.35 271.989C1048.89 261.743 1069.78 251.979 1090.99 242.714L1091.19 243.173C1112.22 233.988 1133.56 225.294 1155.21 217.109L1155.03 216.641C1176.48 208.528 1198.23 200.913 1220.26 193.814L1220.41 194.29C1242.23 187.257 1264.32 180.731 1286.66 174.725L1286.53 174.242C1308.68 168.291 1331.07 162.851 1353.69 157.939L1353.8 158.428C1376.19 153.566 1398.81 149.22 1421.65 145.407L1421.56 144.914C1444.17 141.138 1466.98 137.884 1489.99 135.166L1490.05 135.663C1512.8 132.975 1535.73 130.811 1558.83 129.186L1558.8 128.687C1581.65 127.08 1604.67 125.999 1627.84 125.459L1627.85 125.958C1639.37 125.69 1650.92 125.555 1662.5 125.555C1674.09 125.555 1685.64 125.69 1697.15 125.958L1697.16 125.459C1720.33 125.999 1743.35 127.08 1766.2 128.687L1766.17 129.186C1789.27 130.811 1812.21 132.975 1834.95 135.663L1835.01 135.166C1858.02 137.884 1880.83 141.138 1903.44 144.914L1903.35 145.407C1926.19 149.22 1948.81 153.566 1971.2 158.428L1971.31 157.939C1993.93 162.851 2016.32 168.291 2038.47 174.242L2038.34 174.725C2060.68 180.731 2082.77 187.258 2104.59 194.29L2104.74 193.814C2126.77 200.913 2148.52 208.528 2169.97 216.641L2169.79 217.109C2191.44 225.294 2212.78 233.988 2233.81 243.173L2234.01 242.715C2255.22 251.979 2276.11 261.743 2296.65 271.989L2296.42 272.436C2317.12 282.76 2337.47 293.574 2357.45 304.861L2357.7 304.425C2377.84 315.802 2397.6 327.659 2416.98 339.978L2416.71 340.399C2436.22 352.804 2455.32 365.676 2474.01 378.999L2474.3 378.592C2493.12 392.013 2511.52 405.891 2529.47 420.207L2529.16 420.598C2547.22 435.003 2564.83 449.851 2581.97 465.124L2582.3 464.751C2599.56 480.136 2616.34 495.952 2632.61 512.178L2632.26 512.532C2648.62 528.844 2664.47 545.572 2679.78 562.695L2680.16 562.361C2695.56 579.578 2710.43 597.195 2724.73 615.191L2724.34 615.502C2738.7 633.57 2752.5 652.019 2765.71 670.831L2766.12 670.544C2779.38 689.43 2792.05 708.682 2804.1 728.277L2803.68 728.539C2815.76 748.179 2827.22 768.165 2838.04 788.475L2838.48 788.24C2849.32 808.585 2859.52 829.257 2869.04 850.233L2868.59 850.44C2878.11 871.402 2886.97 892.668 2895.13 914.218L2895.6 914.041C2903.75 935.563 2911.22 957.367 2917.97 979.434L2917.5 979.581C2924.22 1001.56 2930.24 1023.8 2935.54 1046.28L2936.02 1046.16C2941.29 1068.52 2945.83 1091.12 2949.63 1113.93L2949.14 1114.01C2952.9 1136.62 2955.94 1159.45 2958.22 1182.46L2958.72 1182.42Z" stroke="white" stroke-dasharray="70 70"/>
</g>
</g>
<defs>
<filter id="filter0_f_61_2" x="-581" y="-732" width="4487" height="4036" filterUnits="userSpaceOnUse" color-interpolation-filters="sRGB">
<feFlood flood-opacity="0" result="BackgroundImageFix"/>
<feBlend mode="normal" in="SourceGraphic" in2="BackgroundImageFix" result="shape"/>
<feGaussianBlur stdDeviation="77" result="effect1_foregroundBlur_61_2"/>
</filter>
<clipPath id="clip0_61_2">
<rect width="1280" height="902" fill="white"/>
</clipPath>
</defs>
</svg>
