<svg width="415" height="101" viewBox="0 0 415 101" fill="none" xmlns="http://www.w3.org/2000/svg">
<g filter="url(#filter0_b_532_2476)">
<rect x="21" y="10" width="394" height="82" fill="white" fill-opacity="0.05"/>
</g>
<g filter="url(#filter1_b_532_2476)">
<rect y="10" width="16" height="81" fill="white" fill-opacity="0.05"/>
</g>
<path d="M92.144 63C91.904 63 91.712 62.904 91.616 62.616L81.584 37.08L71.504 62.616C71.408 62.904 71.216 63 70.976 63H68.192C67.856 63 67.712 62.76 67.856 62.424L74.528 45.672L71.168 37.128L61.136 62.616C61.04 62.904 60.848 63 60.608 63H57.824C57.488 63 57.344 62.76 57.488 62.424L69.248 32.904C69.344 32.616 69.536 32.52 69.776 32.52H72.608C72.848 32.52 73.04 32.616 73.136 32.904L76.352 41.016L79.616 32.904C79.712 32.616 79.904 32.52 80.144 32.52H82.976C83.216 32.52 83.408 32.616 83.504 32.904L95.264 62.424C95.408 62.76 95.264 63 94.928 63H92.144ZM108.037 63C107.749 63 107.557 62.808 107.557 62.52V33C107.557 32.712 107.749 32.52 108.037 32.52H110.437C110.725 32.52 110.917 32.712 110.917 33V62.52C110.917 62.808 110.725 63 110.437 63H108.037ZM124.268 63C123.98 63 123.788 62.808 123.788 62.52V60.072C123.788 59.784 123.932 59.592 124.268 59.544C127.436 59.256 130.268 56.52 130.268 53.304C130.268 51.528 129.116 50.136 128.012 48.84C126.428 47.016 124.7 45 124.7 42.216C124.7 39.624 125.708 37.128 127.628 35.304C129.26 33.72 131.804 32.712 134.108 32.52C134.396 32.52 134.588 32.712 134.588 33V35.448C134.588 35.736 134.444 35.928 134.108 35.976C130.94 36.264 128.108 39 128.108 42.216C128.108 43.992 129.212 45.048 130.412 46.44C131.852 48.12 133.676 50.52 133.676 53.304C133.676 55.896 132.668 58.392 130.748 60.216C129.116 61.8 126.572 62.808 124.268 63ZM146.9 63C146.612 63 146.42 62.808 146.42 62.52V60.072C146.42 59.784 146.564 59.592 146.9 59.544C150.068 59.256 152.9 56.52 152.9 53.304C152.9 51.528 151.748 50.136 150.644 48.84C149.06 47.016 147.332 45 147.332 42.216C147.332 39.624 148.34 37.128 150.26 35.304C151.892 33.72 154.436 32.712 156.74 32.52C157.028 32.52 157.22 32.712 157.22 33V35.448C157.22 35.736 157.076 35.928 156.74 35.976C153.572 36.264 150.74 39 150.74 42.216C150.74 43.992 151.844 45.048 153.044 46.44C154.484 48.12 156.308 50.52 156.308 53.304C156.308 55.896 155.3 58.392 153.38 60.216C151.748 61.8 149.204 62.808 146.9 63ZM170.587 63C170.299 63 170.107 62.808 170.107 62.52V33C170.107 32.712 170.299 32.52 170.587 32.52H172.987C173.275 32.52 173.467 32.712 173.467 33V62.52C173.467 62.808 173.275 63 172.987 63H170.587ZM201.938 63.288C193.298 63.288 186.338 56.328 186.338 47.688C186.338 39.096 193.298 32.136 201.938 32.136C210.53 32.136 217.49 39.096 217.49 47.688C217.49 56.328 210.53 63.288 201.938 63.288ZM189.794 47.688C189.794 54.408 195.218 59.832 201.938 59.832C208.61 59.832 214.034 54.408 214.034 47.688C214.034 41.016 208.61 35.592 201.938 35.592C195.218 35.592 189.794 41.016 189.794 47.688ZM253.169 63C252.929 63 252.689 62.952 252.545 62.712L233.777 38.28V53.4H240.737C241.025 53.4 241.217 53.592 241.217 53.88V56.28C241.217 56.568 241.025 56.76 240.737 56.76H230.849C230.561 56.76 230.369 56.568 230.369 56.28V53.4L230.417 33C230.417 32.664 230.609 32.52 230.897 32.52H233.393C233.633 32.52 233.873 32.568 234.017 32.808L252.785 57.48L252.833 32.952C252.833 32.664 253.025 32.472 253.313 32.472L255.713 32.52C256.001 32.52 256.193 32.712 256.193 33V62.52C256.193 62.808 256.001 63 255.713 63H253.169ZM230.369 62.52V60.12C230.369 59.832 230.561 59.64 230.849 59.64H245.681C245.969 59.64 246.161 59.832 246.161 60.12V62.52C246.161 62.808 245.969 63 245.681 63H230.849C230.561 63 230.369 62.808 230.369 62.52ZM292.19 63C291.902 63 291.71 62.808 291.71 62.52L291.758 33C291.758 32.664 291.95 32.52 292.238 32.52H294.638C294.926 32.52 295.118 32.712 295.118 33V59.592L310.526 59.64C310.814 59.64 311.006 59.832 311.006 60.12L310.958 62.52C310.958 62.856 310.766 63 310.478 63H292.19ZM325.415 63C325.127 63 324.935 62.808 324.935 62.52V33C324.935 32.712 325.127 32.52 325.415 32.52H327.815C328.103 32.52 328.295 32.712 328.295 33V62.52C328.295 62.808 328.103 63 327.815 63H325.415ZM341.646 63C341.359 63 341.167 62.808 341.167 62.52V60.072C341.167 59.784 341.311 59.592 341.646 59.544C344.815 59.256 347.647 56.52 347.647 53.304C347.647 51.528 346.495 50.136 345.391 48.84C343.807 47.016 342.079 45 342.079 42.216C342.079 39.624 343.087 37.128 345.007 35.304C346.639 33.72 349.183 32.712 351.487 32.52C351.775 32.52 351.967 32.712 351.967 33V35.448C351.967 35.736 351.823 35.928 351.487 35.976C348.319 36.264 345.487 39 345.487 42.216C345.487 43.992 346.591 45.048 347.791 46.44C349.231 48.12 351.055 50.52 351.055 53.304C351.055 55.896 350.047 58.392 348.127 60.216C346.495 61.8 343.951 62.808 341.646 63ZM365.334 63C365.046 63 364.854 62.808 364.854 62.52L364.902 33C364.902 32.664 365.094 32.52 365.382 32.52H377.43C377.718 32.52 377.91 32.712 377.91 33V35.4C377.91 35.688 377.718 35.88 377.43 35.88H368.262V62.52C368.262 62.808 368.07 63 367.782 63H365.334Z" fill="white"/>
<defs>
<filter id="filter0_b_532_2476" x="3" y="-8" width="430" height="118" filterUnits="userSpaceOnUse" color-interpolation-filters="sRGB">
<feFlood flood-opacity="0" result="BackgroundImageFix"/>
<feGaussianBlur in="BackgroundImageFix" stdDeviation="9"/>
<feComposite in2="SourceAlpha" operator="in" result="effect1_backgroundBlur_532_2476"/>
<feBlend mode="normal" in="SourceGraphic" in2="effect1_backgroundBlur_532_2476" result="shape"/>
</filter>
<filter id="filter1_b_532_2476" x="-18" y="-8" width="52" height="117" filterUnits="userSpaceOnUse" color-interpolation-filters="sRGB">
<feFlood flood-opacity="0" result="BackgroundImageFix"/>
<feGaussianBlur in="BackgroundImageFix" stdDeviation="9"/>
<feComposite in2="SourceAlpha" operator="in" result="effect1_backgroundBlur_532_2476"/>
<feBlend mode="normal" in="SourceGraphic" in2="effect1_backgroundBlur_532_2476" result="shape"/>
</filter>
</defs>
</svg>
