<svg width="128" height="25" viewBox="0 0 128 25" fill="none" xmlns="http://www.w3.org/2000/svg">
<path d="M17.0365 0H6.97548C2.6053 0 0 2.6053 0 6.97548V17.0245C0 21.4067 2.6053 24.012 6.97548 24.012H17.0245C21.3947 24.012 24 21.4067 24 17.0365V6.97548C24.012 2.6053 21.4067 0 17.0365 0ZM12.006 16.6643C9.4367 16.6643 7.34766 14.5753 7.34766 12.006C7.34766 9.4367 9.4367 7.34766 12.006 7.34766C14.5753 7.34766 16.6643 9.4367 16.6643 12.006C16.6643 14.5753 14.5753 16.6643 12.006 16.6643ZM19.1135 5.85892C19.0535 6.00299 18.9695 6.13506 18.8614 6.25512C18.7413 6.36317 18.6093 6.44721 18.4652 6.50724C18.3211 6.56727 18.1651 6.60329 18.009 6.60329C17.6848 6.60329 17.3847 6.48323 17.1565 6.25512C17.0485 6.13506 16.9645 6.00299 16.9044 5.85892C16.8444 5.71485 16.8084 5.55877 16.8084 5.40269C16.8084 5.24661 16.8444 5.09054 16.9044 4.94647C16.9645 4.79039 17.0485 4.67033 17.1565 4.55027C17.4327 4.27413 17.8529 4.14206 18.2371 4.22611C18.3211 4.23811 18.3932 4.26212 18.4652 4.29814C18.5372 4.32215 18.6093 4.35817 18.6813 4.4062C18.7413 4.44221 18.8014 4.50224 18.8614 4.55027C18.9695 4.67033 19.0535 4.79039 19.1135 4.94647C19.1736 5.09054 19.2096 5.24661 19.2096 5.40269C19.2096 5.55877 19.1736 5.71485 19.1135 5.85892Z" fill="white"/>
<g clip-path="url(#clip0_290_35)">
<path d="M72.6667 0H55.3333C53.4927 0 52 1.49199 52 3.33333V20.6667C52 22.508 53.4927 24 55.3333 24H72.6667C74.508 24 76 22.508 76 20.6667V3.33333C76 1.49199 74.508 0 72.6667 0ZM59.3333 20H56V8.66667H59.3333V20ZM57.6567 7.33333H57.638C56.6434 7.33333 56 6.592 56 5.66601C56 4.72001 56.6633 4 57.676 4C58.69 4 59.3147 4.72001 59.3333 5.66601C59.3333 6.59135 58.69 7.33333 57.6567 7.33333ZM68.6667 20V13.934C68.6667 12.4687 67.85 11.4687 66.5387 11.4687C65.538 11.4687 64.9967 12.1433 64.734 12.7953C64.638 13.0286 64.6667 13.674 64.6667 14V20H61.3333V8.66667H64.6667V10.4107C65.1473 9.66667 65.9 8.66667 67.8253 8.66667C70.2107 8.66667 71.9994 10.1667 71.9994 13.516L72 20H68.6667Z" fill="white"/>
</g>
<path d="M122.667 0H109.333C106.388 0 104 2.388 104 5.33333V18.6667C104 21.612 106.388 24 109.333 24H116.828V14.7187H113.704V11.0853H116.828V8.412C116.828 5.31333 118.723 3.624 121.488 3.624C122.42 3.62133 123.351 3.66933 124.277 3.764V7.004H122.373C120.867 7.004 120.573 7.716 120.573 8.76667V11.08H124.173L123.705 14.7133H120.552V24H122.667C125.612 24 128 21.612 128 18.6667V5.33333C128 2.388 125.612 0 122.667 0Z" fill="white"/>
<defs>
<clipPath id="clip0_290_35">
<rect width="24" height="24" fill="white" transform="translate(52)"/>
</clipPath>
</defs>
</svg>
