<svg width="415" height="101" viewBox="0 0 415 101" fill="none" xmlns="http://www.w3.org/2000/svg">
<g filter="url(#filter0_b_856_34)">
<rect x="21" y="7" width="394" height="82" fill="white" fill-opacity="0.05"/>
</g>
<g filter="url(#filter1_b_856_34)">
<rect y="7" width="16" height="81" fill="white" fill-opacity="0.05"/>
</g>
<path d="M57.872 63C57.536 63 57.344 62.76 57.488 62.424L69.44 32.904C69.536 32.616 69.728 32.52 69.968 32.52H71.648C71.888 32.52 72.08 32.616 72.176 32.904L84.128 62.424C84.272 62.76 84.08 63 83.744 63H57.872ZM62.192 59.64H79.424L70.832 38.376L62.192 59.64ZM96.809 63C96.521 63 96.329 62.808 96.329 62.52V60.072C96.329 59.784 96.473 59.592 96.809 59.544C99.977 59.256 102.809 56.52 102.809 53.304C102.809 51.528 101.657 50.136 100.553 48.84C98.969 47.016 97.241 45 97.241 42.216C97.241 39.624 98.249 37.128 100.169 35.304C101.801 33.72 104.345 32.712 106.649 32.52C106.937 32.52 107.129 32.712 107.129 33V35.448C107.129 35.736 106.985 35.928 106.649 35.976C103.481 36.264 100.649 39 100.649 42.216C100.649 43.992 101.753 45.048 102.953 46.44C104.393 48.12 106.217 50.52 106.217 53.304C106.217 55.896 105.209 58.392 103.289 60.216C101.657 61.8 99.113 62.808 96.809 63ZM120.496 63C120.208 63 120.016 62.808 120.016 62.52L120.064 33C120.064 32.664 120.256 32.52 120.544 32.52H132.592C132.88 32.52 133.072 32.712 133.072 33V35.4C133.072 35.688 132.88 35.88 132.592 35.88H123.424V62.52C123.424 62.808 123.232 63 122.944 63H120.496ZM144.346 63C144.058 63 143.866 62.808 143.866 62.52V48.648C143.866 48.36 144.058 48.168 144.346 48.168H156.346C159.754 48.168 162.49 45.432 162.49 41.976C162.49 38.616 159.754 35.88 156.346 35.88H146.506C146.218 35.88 146.026 35.688 146.026 35.4V33C146.026 32.712 146.218 32.52 146.506 32.52H156.346C161.578 32.52 165.85 36.744 165.85 41.976C165.85 46.488 162.73 50.232 158.602 51.24L165.226 62.424C165.418 62.76 165.274 63 164.89 63H162.01C161.77 63 161.578 62.856 161.434 62.664L154.858 51.528H147.226V62.52C147.226 62.808 147.034 63 146.746 63H144.346ZM193.604 63.288C184.964 63.288 178.004 56.328 178.004 47.688C178.004 39.096 184.964 32.136 193.604 32.136C202.196 32.136 209.156 39.096 209.156 47.688C209.156 56.328 202.196 63.288 193.604 63.288ZM181.46 47.688C181.46 54.408 186.884 59.832 193.604 59.832C200.276 59.832 205.7 54.408 205.7 47.688C205.7 41.016 200.276 35.592 193.604 35.592C186.884 35.592 181.46 41.016 181.46 47.688ZM244.835 63C244.595 63 244.355 62.952 244.211 62.712L225.443 38.28V53.4H232.403C232.691 53.4 232.883 53.592 232.883 53.88V56.28C232.883 56.568 232.691 56.76 232.403 56.76H222.515C222.227 56.76 222.035 56.568 222.035 56.28V53.4L222.083 33C222.083 32.664 222.275 32.52 222.563 32.52H225.059C225.299 32.52 225.539 32.568 225.683 32.808L244.451 57.48L244.499 32.952C244.499 32.664 244.691 32.472 244.979 32.472L247.379 32.52C247.667 32.52 247.859 32.712 247.859 33V62.52C247.859 62.808 247.667 63 247.379 63H244.835ZM222.035 62.52V60.12C222.035 59.832 222.227 59.64 222.515 59.64H237.347C237.635 59.64 237.827 59.832 237.827 60.12V62.52C237.827 62.808 237.635 63 237.347 63H222.515C222.227 63 222.035 62.808 222.035 62.52ZM260.55 63C260.214 63 260.022 62.76 260.166 62.424L272.118 32.904C272.214 32.616 272.406 32.52 272.646 32.52H274.326C274.566 32.52 274.758 32.616 274.854 32.904L286.806 62.424C286.95 62.76 286.758 63 286.422 63H260.55ZM264.87 59.64H282.102L273.51 38.376L264.87 59.64ZM307.714 63C299.554 63 295.282 56.808 295.282 50.616V33C295.282 32.712 295.474 32.52 295.762 32.52H298.162C298.45 32.52 298.642 32.712 298.642 33V50.616C298.642 54.984 301.378 59.64 307.714 59.64C313.954 59.64 316.69 54.984 316.69 50.616V33C316.69 32.712 316.882 32.52 317.17 32.52H319.57C319.858 32.52 320.05 32.712 320.05 33V50.616C320.05 56.808 315.826 63 307.714 63ZM334.471 63C334.183 63 333.991 62.808 333.991 62.52L334.039 33C334.039 32.664 334.231 32.52 334.519 32.52H346.567C346.855 32.52 347.047 32.712 347.047 33V35.4C347.047 35.688 346.855 35.88 346.567 35.88H337.399V62.52C337.399 62.808 337.207 63 336.919 63H334.471ZM359.656 63C359.368 63 359.176 62.808 359.176 62.52V60.072C359.176 59.784 359.32 59.592 359.656 59.544C362.824 59.256 365.656 56.52 365.656 53.304C365.656 51.528 364.504 50.136 363.4 48.84C361.816 47.016 360.088 45 360.088 42.216C360.088 39.624 361.096 37.128 363.016 35.304C364.648 33.72 367.192 32.712 369.496 32.52C369.784 32.52 369.976 32.712 369.976 33V35.448C369.976 35.736 369.832 35.928 369.496 35.976C366.328 36.264 363.496 39 363.496 42.216C363.496 43.992 364.6 45.048 365.8 46.44C367.24 48.12 369.064 50.52 369.064 53.304C369.064 55.896 368.056 58.392 366.136 60.216C364.504 61.8 361.96 62.808 359.656 63Z" fill="white"/>
<defs>
<filter id="filter0_b_856_34" x="3" y="-11" width="430" height="118" filterUnits="userSpaceOnUse" color-interpolation-filters="sRGB">
<feFlood flood-opacity="0" result="BackgroundImageFix"/>
<feGaussianBlur in="BackgroundImageFix" stdDeviation="9"/>
<feComposite in2="SourceAlpha" operator="in" result="effect1_backgroundBlur_856_34"/>
<feBlend mode="normal" in="SourceGraphic" in2="effect1_backgroundBlur_856_34" result="shape"/>
</filter>
<filter id="filter1_b_856_34" x="-18" y="-11" width="52" height="117" filterUnits="userSpaceOnUse" color-interpolation-filters="sRGB">
<feFlood flood-opacity="0" result="BackgroundImageFix"/>
<feGaussianBlur in="BackgroundImageFix" stdDeviation="9"/>
<feComposite in2="SourceAlpha" operator="in" result="effect1_backgroundBlur_856_34"/>
<feBlend mode="normal" in="SourceGraphic" in2="effect1_backgroundBlur_856_34" result="shape"/>
</filter>
</defs>
</svg>
