<svg width="230" height="205" viewBox="0 0 230 205" fill="none" xmlns="http://www.w3.org/2000/svg">
<g filter="url(#filter0_b_553_184)">
<rect width="230" height="205" rx="11" fill="white" fill-opacity="0.05"/>
</g>
<path d="M32.96 83.976C33.4187 83.976 33.808 83.9013 34.128 83.752C34.4587 83.592 34.7253 83.384 34.928 83.128C35.1413 82.8613 35.296 82.5627 35.392 82.232C35.4987 81.8907 35.552 81.5333 35.552 81.16V80.968H36.896V81.16C36.896 81.7253 36.8107 82.2587 36.64 82.76C36.4693 83.2507 36.2187 83.6827 35.888 84.056C35.5573 84.4187 35.1467 84.7067 34.656 84.92C34.1653 85.1227 33.6 85.224 32.96 85.224C31.7227 85.224 30.7573 84.8347 30.064 84.056C29.3707 83.2773 29.024 82.1413 29.024 80.648V78.152C29.024 76.7013 29.3707 75.576 30.064 74.776C30.7573 73.976 31.7227 73.576 32.96 73.576C33.6 73.576 34.1653 73.6827 34.656 73.896C35.1467 74.0987 35.5573 74.3867 35.888 74.76C36.2187 75.1227 36.4693 75.5547 36.64 76.056C36.8107 76.5467 36.896 77.0747 36.896 77.64V77.832H35.552V77.64C35.5413 77.2773 35.4827 76.9253 35.376 76.584C35.28 76.2427 35.1253 75.944 34.912 75.688C34.7093 75.4213 34.448 75.2133 34.128 75.064C33.808 74.904 33.4187 74.824 32.96 74.824C32.096 74.824 31.4453 75.1387 31.008 75.768C30.5813 76.3973 30.368 77.224 30.368 78.248V80.552C30.368 81.6507 30.5813 82.4987 31.008 83.096C31.4453 83.6827 32.096 83.976 32.96 83.976ZM47.0769 81.128C47.0769 81.7893 46.9649 82.376 46.7409 82.888C46.5275 83.3893 46.2395 83.816 45.8769 84.168C45.5142 84.5093 45.0875 84.7707 44.5969 84.952C44.1169 85.1333 43.6155 85.224 43.0929 85.224C42.5595 85.224 42.0529 85.1333 41.5729 84.952C41.0929 84.7707 40.6715 84.5093 40.3089 84.168C39.9462 83.816 39.6529 83.3893 39.4289 82.888C39.2155 82.376 39.1089 81.7893 39.1089 81.128V80.936C39.1089 80.2853 39.2155 79.7093 39.4289 79.208C39.6529 78.696 39.9462 78.264 40.3089 77.912C40.6822 77.56 41.1089 77.2933 41.5889 77.112C42.0689 76.9307 42.5702 76.84 43.0929 76.84C43.6155 76.84 44.1169 76.9307 44.5969 77.112C45.0769 77.2933 45.4982 77.56 45.8609 77.912C46.2342 78.264 46.5275 78.696 46.7409 79.208C46.9649 79.7093 47.0769 80.2853 47.0769 80.936V81.128ZM43.0929 84.04C43.4769 84.04 43.8289 83.976 44.1489 83.848C44.4795 83.7093 44.7675 83.512 45.0129 83.256C45.2582 83 45.4502 82.696 45.5889 82.344C45.7275 81.9813 45.7969 81.576 45.7969 81.128V80.936C45.7969 80.5093 45.7275 80.12 45.5889 79.768C45.4502 79.4053 45.2582 79.096 45.0129 78.84C44.7675 78.584 44.4795 78.3867 44.1489 78.248C43.8182 78.0987 43.4662 78.024 43.0929 78.024C42.7195 78.024 42.3675 78.0987 42.0369 78.248C41.7062 78.3867 41.4182 78.584 41.1729 78.84C40.9275 79.096 40.7355 79.4053 40.5969 79.768C40.4582 80.12 40.3889 80.5093 40.3889 80.936V81.128C40.3889 81.576 40.4582 81.9813 40.5969 82.344C40.7355 82.696 40.9275 83 41.1729 83.256C41.4182 83.512 41.7009 83.7093 42.0209 83.848C42.3515 83.976 42.7089 84.04 43.0929 84.04ZM57.4177 85H56.1697V79.304C56.1697 78.9307 56.0844 78.6267 55.9137 78.392C55.7431 78.1467 55.4711 78.024 55.0977 78.024C54.7457 78.024 54.4577 78.1573 54.2337 78.424C54.0204 78.68 53.9137 79.08 53.9137 79.624V85H52.6657V79.24C52.6657 78.888 52.5697 78.6 52.3777 78.376C52.1857 78.1413 51.9297 78.024 51.6097 78.024C51.2257 78.024 50.9271 78.1627 50.7137 78.44C50.5111 78.7173 50.4097 79.08 50.4097 79.528V85H49.1617V77.064H50.4097V77.928H50.6017C50.7404 77.5547 50.9431 77.2827 51.2097 77.112C51.4764 76.9307 51.7911 76.84 52.1537 76.84C52.5377 76.84 52.8524 76.9413 53.0977 77.144C53.3537 77.3467 53.5297 77.608 53.6257 77.928H53.8177C54.1804 77.2027 54.7564 76.84 55.5457 76.84C56.1431 76.84 56.6017 77.032 56.9218 77.416C57.2524 77.7893 57.4177 78.28 57.4177 78.888V85ZM67.6146 85H66.3666V79.304C66.3666 78.9307 66.2813 78.6267 66.1106 78.392C65.94 78.1467 65.668 78.024 65.2946 78.024C64.9426 78.024 64.6546 78.1573 64.4306 78.424C64.2173 78.68 64.1106 79.08 64.1106 79.624V85H62.8626V79.24C62.8626 78.888 62.7666 78.6 62.5746 78.376C62.3826 78.1413 62.1266 78.024 61.8066 78.024C61.4226 78.024 61.124 78.1627 60.9106 78.44C60.708 78.7173 60.6066 79.08 60.6066 79.528V85H59.3586V77.064H60.6066V77.928H60.7986C60.9373 77.5547 61.14 77.2827 61.4066 77.112C61.6733 76.9307 61.988 76.84 62.3506 76.84C62.7346 76.84 63.0493 76.9413 63.2946 77.144C63.5506 77.3467 63.7266 77.608 63.8226 77.928H64.0146C64.3773 77.2027 64.9533 76.84 65.7426 76.84C66.34 76.84 66.7986 77.032 67.1186 77.416C67.4493 77.7893 67.6146 78.28 67.6146 78.888V85ZM75.8435 77.064H77.0915V85H75.8435V83.56H75.6515C75.3955 84.072 75.0595 84.4773 74.6435 84.776C74.2275 85.0747 73.6995 85.224 73.0595 85.224C72.6222 85.224 72.2168 85.1493 71.8435 85C71.4808 84.8613 71.1662 84.648 70.8995 84.36C70.6435 84.072 70.4408 83.7147 70.2915 83.288C70.1528 82.8613 70.0835 82.3653 70.0835 81.8V77.064H71.3315V81.64C71.3315 82.472 71.5022 83.08 71.8435 83.464C72.1848 83.848 72.7075 84.04 73.4115 84.04C74.1688 84.04 74.7608 83.784 75.1875 83.272C75.6248 82.7493 75.8435 82.056 75.8435 81.192V77.064ZM81.6244 85H80.3764V77.064H81.6244V78.408H81.8164C82.307 77.3627 83.1604 76.84 84.3764 76.84C85.2937 76.84 86.0244 77.128 86.5684 77.704C87.1124 78.2693 87.3844 79.1227 87.3844 80.264V85H86.1364V80.52C86.1364 79.688 85.9497 79.064 85.5764 78.648C85.203 78.232 84.6964 78.024 84.0564 78.024C83.299 78.024 82.7017 78.2853 82.2644 78.808C81.8377 79.32 81.6244 80.008 81.6244 80.872V85ZM93.0373 74.696C93.0373 74.3867 93.1439 74.1253 93.3573 73.912C93.5813 73.688 93.8479 73.576 94.1573 73.576C94.4666 73.576 94.7279 73.688 94.9413 73.912C95.1653 74.1253 95.2773 74.3867 95.2773 74.696C95.2773 75.0053 95.1653 75.272 94.9413 75.496C94.7279 75.7093 94.4666 75.816 94.1573 75.816C93.8479 75.816 93.5813 75.7093 93.3573 75.496C93.1439 75.272 93.0373 75.0053 93.0373 74.696ZM90.7653 83.848H93.5493V78.216H91.0533V77.064H94.7973V83.848H97.3893V85H90.7653V83.848ZM108.194 82.184C108.109 82.6213 107.959 83.0267 107.746 83.4C107.543 83.7733 107.282 84.0987 106.962 84.376C106.642 84.6427 106.269 84.8507 105.842 85C105.415 85.1493 104.941 85.224 104.418 85.224C103.863 85.224 103.335 85.1333 102.834 84.952C102.343 84.7707 101.911 84.5093 101.538 84.168C101.165 83.816 100.866 83.3893 100.642 82.888C100.429 82.3867 100.322 81.8107 100.322 81.16V80.968C100.322 80.328 100.429 79.752 100.642 79.24C100.866 78.728 101.165 78.296 101.538 77.944C101.911 77.592 102.343 77.32 102.834 77.128C103.335 76.936 103.863 76.84 104.418 76.84C104.919 76.84 105.383 76.9147 105.81 77.064C106.237 77.2133 106.61 77.4267 106.93 77.704C107.261 77.9707 107.527 78.2907 107.73 78.664C107.943 79.0373 108.087 79.4427 108.162 79.88L106.914 80.168C106.882 79.8907 106.802 79.624 106.674 79.368C106.557 79.1013 106.391 78.872 106.178 78.68C105.975 78.4773 105.725 78.3173 105.426 78.2C105.127 78.0827 104.781 78.024 104.386 78.024C104.002 78.024 103.639 78.0987 103.298 78.248C102.967 78.3867 102.674 78.5893 102.418 78.856C102.162 79.112 101.959 79.4213 101.81 79.784C101.671 80.1467 101.602 80.5413 101.602 80.968V81.16C101.602 81.608 101.671 82.0133 101.81 82.376C101.959 82.728 102.162 83.0267 102.418 83.272C102.674 83.5173 102.973 83.7093 103.314 83.848C103.655 83.976 104.023 84.04 104.418 84.04C104.813 84.04 105.154 83.9813 105.442 83.864C105.741 83.736 105.991 83.576 106.194 83.384C106.407 83.1813 106.573 82.952 106.69 82.696C106.818 82.44 106.903 82.1733 106.946 81.896L108.194 82.184ZM116.727 83.656H116.535C116.279 84.1893 115.922 84.584 115.463 84.84C115.015 85.096 114.54 85.224 114.039 85.224C113.516 85.224 113.031 85.1387 112.583 84.968C112.135 84.7867 111.74 84.5253 111.399 84.184C111.068 83.832 110.807 83.4053 110.615 82.904C110.423 82.4027 110.327 81.8213 110.327 81.16V80.904C110.327 80.2533 110.423 79.6773 110.615 79.176C110.807 78.6747 111.068 78.2533 111.399 77.912C111.74 77.56 112.135 77.2933 112.583 77.112C113.031 76.9307 113.506 76.84 114.007 76.84C114.551 76.84 115.042 76.9627 115.479 77.208C115.927 77.4427 116.279 77.8107 116.535 78.312H116.727V77.064H117.975V83.368C117.975 83.688 118.119 83.848 118.407 83.848H118.807V85H117.959C117.596 85 117.298 84.8827 117.063 84.648C116.839 84.4133 116.727 84.1147 116.727 83.752V83.656ZM114.167 84.04C114.54 84.04 114.882 83.9707 115.191 83.832C115.511 83.6933 115.783 83.496 116.007 83.24C116.231 82.984 116.407 82.68 116.535 82.328C116.663 81.9653 116.727 81.5653 116.727 81.128V80.936C116.727 80.5093 116.663 80.12 116.535 79.768C116.407 79.4053 116.226 79.096 115.991 78.84C115.767 78.584 115.495 78.3867 115.175 78.248C114.866 78.0987 114.53 78.024 114.167 78.024C113.794 78.024 113.452 78.0933 113.143 78.232C112.834 78.3707 112.562 78.568 112.327 78.824C112.103 79.0693 111.927 79.3733 111.799 79.736C111.671 80.088 111.607 80.4773 111.607 80.904V81.16C111.607 82.0667 111.842 82.776 112.311 83.288C112.791 83.7893 113.41 84.04 114.167 84.04ZM120.892 77.064H123.388V73.8H124.636V77.064H127.708V78.216H124.636V83.368C124.636 83.688 124.78 83.848 125.068 83.848H127.324V85H124.62C124.257 85 123.959 84.8827 123.724 84.648C123.5 84.4133 123.388 84.1147 123.388 83.752V78.216H120.892V77.064ZM133.825 74.696C133.825 74.3867 133.931 74.1253 134.145 73.912C134.369 73.688 134.635 73.576 134.945 73.576C135.254 73.576 135.515 73.688 135.729 73.912C135.953 74.1253 136.065 74.3867 136.065 74.696C136.065 75.0053 135.953 75.272 135.729 75.496C135.515 75.7093 135.254 75.816 134.945 75.816C134.635 75.816 134.369 75.7093 134.145 75.496C133.931 75.272 133.825 75.0053 133.825 74.696ZM131.553 83.848H134.337V78.216H131.841V77.064H135.585V83.848H138.177V85H131.553V83.848ZM149.046 81.128C149.046 81.7893 148.934 82.376 148.71 82.888C148.496 83.3893 148.208 83.816 147.846 84.168C147.483 84.5093 147.056 84.7707 146.566 84.952C146.086 85.1333 145.584 85.224 145.062 85.224C144.528 85.224 144.022 85.1333 143.542 84.952C143.062 84.7707 142.64 84.5093 142.278 84.168C141.915 83.816 141.622 83.3893 141.398 82.888C141.184 82.376 141.078 81.7893 141.078 81.128V80.936C141.078 80.2853 141.184 79.7093 141.398 79.208C141.622 78.696 141.915 78.264 142.278 77.912C142.651 77.56 143.078 77.2933 143.558 77.112C144.038 76.9307 144.539 76.84 145.062 76.84C145.584 76.84 146.086 76.9307 146.566 77.112C147.046 77.2933 147.467 77.56 147.83 77.912C148.203 78.264 148.496 78.696 148.71 79.208C148.934 79.7093 149.046 80.2853 149.046 80.936V81.128ZM145.062 84.04C145.446 84.04 145.798 83.976 146.118 83.848C146.448 83.7093 146.736 83.512 146.982 83.256C147.227 83 147.419 82.696 147.558 82.344C147.696 81.9813 147.766 81.576 147.766 81.128V80.936C147.766 80.5093 147.696 80.12 147.558 79.768C147.419 79.4053 147.227 79.096 146.982 78.84C146.736 78.584 146.448 78.3867 146.118 78.248C145.787 78.0987 145.435 78.024 145.062 78.024C144.688 78.024 144.336 78.0987 144.006 78.248C143.675 78.3867 143.387 78.584 143.142 78.84C142.896 79.096 142.704 79.4053 142.566 79.768C142.427 80.12 142.358 80.5093 142.358 80.936V81.128C142.358 81.576 142.427 81.9813 142.566 82.344C142.704 82.696 142.896 83 143.142 83.256C143.387 83.512 143.67 83.7093 143.99 83.848C144.32 83.976 144.678 84.04 145.062 84.04ZM153.003 85H151.755V77.064H153.003V78.408H153.195C153.685 77.3627 154.539 76.84 155.755 76.84C156.672 76.84 157.403 77.128 157.947 77.704C158.491 78.2693 158.763 79.1227 158.763 80.264V85H157.515V80.52C157.515 79.688 157.328 79.064 156.955 78.648C156.581 78.232 156.075 78.024 155.435 78.024C154.677 78.024 154.08 78.2853 153.643 78.808C153.216 79.32 153.003 80.008 153.003 80.872V85ZM200.486 81.128C200.486 81.7893 200.374 82.376 200.15 82.888C199.937 83.3893 199.649 83.816 199.286 84.168C198.924 84.5093 198.497 84.7707 198.006 84.952C197.526 85.1333 197.025 85.224 196.502 85.224C195.969 85.224 195.462 85.1333 194.982 84.952C194.502 84.7707 194.081 84.5093 193.718 84.168C193.356 83.816 193.062 83.3893 192.838 82.888C192.625 82.376 192.518 81.7893 192.518 81.128V80.936C192.518 80.2853 192.625 79.7093 192.838 79.208C193.062 78.696 193.356 78.264 193.718 77.912C194.092 77.56 194.518 77.2933 194.998 77.112C195.478 76.9307 195.98 76.84 196.502 76.84C197.025 76.84 197.526 76.9307 198.006 77.112C198.486 77.2933 198.908 77.56 199.27 77.912C199.644 78.264 199.937 78.696 200.15 79.208C200.374 79.7093 200.486 80.2853 200.486 80.936V81.128ZM196.502 84.04C196.886 84.04 197.238 83.976 197.558 83.848C197.889 83.7093 198.177 83.512 198.422 83.256C198.668 83 198.86 82.696 198.998 82.344C199.137 81.9813 199.206 81.576 199.206 81.128V80.936C199.206 80.5093 199.137 80.12 198.998 79.768C198.86 79.4053 198.668 79.096 198.422 78.84C198.177 78.584 197.889 78.3867 197.558 78.248C197.228 78.0987 196.876 78.024 196.502 78.024C196.129 78.024 195.777 78.0987 195.446 78.248C195.116 78.3867 194.828 78.584 194.582 78.84C194.337 79.096 194.145 79.4053 194.006 79.768C193.868 80.12 193.798 80.5093 193.798 80.936V81.128C193.798 81.576 193.868 81.9813 194.006 82.344C194.145 82.696 194.337 83 194.582 83.256C194.828 83.512 195.11 83.7093 195.43 83.848C195.761 83.976 196.118 84.04 196.502 84.04ZM202.747 77.064H205.627V78.12H205.819C206.022 77.6827 206.31 77.3627 206.683 77.16C207.056 76.9467 207.483 76.84 207.963 76.84C208.763 76.84 209.408 77.1013 209.899 77.624C210.39 78.1467 210.651 78.9093 210.683 79.912L209.371 80.104C209.371 79.368 209.195 78.84 208.843 78.52C208.491 78.1893 208.059 78.024 207.547 78.024C207.216 78.024 206.928 78.088 206.683 78.216C206.448 78.344 206.251 78.52 206.091 78.744C205.931 78.968 205.814 79.2293 205.739 79.528C205.664 79.8267 205.627 80.1467 205.627 80.488V83.848H207.643V85H202.555V83.848H204.379V78.216H202.747V77.064ZM36.816 111.184C36.7307 111.621 36.5813 112.027 36.368 112.4C36.1653 112.773 35.904 113.099 35.584 113.376C35.264 113.643 34.8907 113.851 34.464 114C34.0373 114.149 33.5627 114.224 33.04 114.224C32.4853 114.224 31.9573 114.133 31.456 113.952C30.9653 113.771 30.5333 113.509 30.16 113.168C29.7867 112.816 29.488 112.389 29.264 111.888C29.0507 111.387 28.944 110.811 28.944 110.16V109.968C28.944 109.328 29.0507 108.752 29.264 108.24C29.488 107.728 29.7867 107.296 30.16 106.944C30.5333 106.592 30.9653 106.32 31.456 106.128C31.9573 105.936 32.4853 105.84 33.04 105.84C33.5413 105.84 34.0053 105.915 34.432 106.064C34.8587 106.213 35.232 106.427 35.552 106.704C35.8827 106.971 36.1493 107.291 36.352 107.664C36.5653 108.037 36.7093 108.443 36.784 108.88L35.536 109.168C35.504 108.891 35.424 108.624 35.296 108.368C35.1787 108.101 35.0133 107.872 34.8 107.68C34.5973 107.477 34.3467 107.317 34.048 107.2C33.7493 107.083 33.4027 107.024 33.008 107.024C32.624 107.024 32.2613 107.099 31.92 107.248C31.5893 107.387 31.296 107.589 31.04 107.856C30.784 108.112 30.5813 108.421 30.432 108.784C30.2933 109.147 30.224 109.541 30.224 109.968V110.16C30.224 110.608 30.2933 111.013 30.432 111.376C30.5813 111.728 30.784 112.027 31.04 112.272C31.296 112.517 31.5947 112.709 31.936 112.848C32.2773 112.976 32.6453 113.04 33.04 113.04C33.4347 113.04 33.776 112.981 34.064 112.864C34.3627 112.736 34.6133 112.576 34.816 112.384C35.0293 112.181 35.1947 111.952 35.312 111.696C35.44 111.44 35.5253 111.173 35.568 110.896L36.816 111.184ZM47.0769 110.128C47.0769 110.789 46.9649 111.376 46.7409 111.888C46.5275 112.389 46.2395 112.816 45.8769 113.168C45.5142 113.509 45.0875 113.771 44.5969 113.952C44.1169 114.133 43.6155 114.224 43.0929 114.224C42.5595 114.224 42.0529 114.133 41.5729 113.952C41.0929 113.771 40.6715 113.509 40.3089 113.168C39.9462 112.816 39.6529 112.389 39.4289 111.888C39.2155 111.376 39.1089 110.789 39.1089 110.128V109.936C39.1089 109.285 39.2155 108.709 39.4289 108.208C39.6529 107.696 39.9462 107.264 40.3089 106.912C40.6822 106.56 41.1089 106.293 41.5889 106.112C42.0689 105.931 42.5702 105.84 43.0929 105.84C43.6155 105.84 44.1169 105.931 44.5969 106.112C45.0769 106.293 45.4982 106.56 45.8609 106.912C46.2342 107.264 46.5275 107.696 46.7409 108.208C46.9649 108.709 47.0769 109.285 47.0769 109.936V110.128ZM43.0929 113.04C43.4769 113.04 43.8289 112.976 44.1489 112.848C44.4795 112.709 44.7675 112.512 45.0129 112.256C45.2582 112 45.4502 111.696 45.5889 111.344C45.7275 110.981 45.7969 110.576 45.7969 110.128V109.936C45.7969 109.509 45.7275 109.12 45.5889 108.768C45.4502 108.405 45.2582 108.096 45.0129 107.84C44.7675 107.584 44.4795 107.387 44.1489 107.248C43.8182 107.099 43.4662 107.024 43.0929 107.024C42.7195 107.024 42.3675 107.099 42.0369 107.248C41.7062 107.387 41.4182 107.584 41.1729 107.84C40.9275 108.096 40.7355 108.405 40.5969 108.768C40.4582 109.12 40.3889 109.509 40.3889 109.936V110.128C40.3889 110.576 40.4582 110.981 40.5969 111.344C40.7355 111.696 40.9275 112 41.1729 112.256C41.4182 112.512 41.7009 112.709 42.0209 112.848C42.3515 112.976 42.7089 113.04 43.0929 113.04ZM49.7857 112.848H52.6657V103.952H49.8817V102.8H53.9137V112.848H56.7937V114H49.7857V112.848ZM59.9826 112.848H62.8626V103.952H60.0786V102.8H64.1106V112.848H66.9906V114H59.9826V112.848ZM75.9395 112.656H75.7475C75.4915 113.189 75.1342 113.584 74.6755 113.84C74.2275 114.096 73.7528 114.224 73.2515 114.224C72.7288 114.224 72.2435 114.139 71.7955 113.968C71.3475 113.787 70.9528 113.525 70.6115 113.184C70.2808 112.832 70.0195 112.405 69.8275 111.904C69.6355 111.403 69.5395 110.821 69.5395 110.16V109.904C69.5395 109.253 69.6355 108.677 69.8275 108.176C70.0195 107.675 70.2808 107.253 70.6115 106.912C70.9528 106.56 71.3475 106.293 71.7955 106.112C72.2435 105.931 72.7182 105.84 73.2195 105.84C73.7635 105.84 74.2542 105.963 74.6915 106.208C75.1395 106.443 75.4915 106.811 75.7475 107.312H75.9395V106.064H77.1875V112.368C77.1875 112.688 77.3315 112.848 77.6195 112.848H78.0195V114H77.1715C76.8088 114 76.5102 113.883 76.2755 113.648C76.0515 113.413 75.9395 113.115 75.9395 112.752V112.656ZM73.3795 113.04C73.7528 113.04 74.0942 112.971 74.4035 112.832C74.7235 112.693 74.9955 112.496 75.2195 112.24C75.4435 111.984 75.6195 111.68 75.7475 111.328C75.8755 110.965 75.9395 110.565 75.9395 110.128V109.936C75.9395 109.509 75.8755 109.12 75.7475 108.768C75.6195 108.405 75.4382 108.096 75.2035 107.84C74.9795 107.584 74.7075 107.387 74.3875 107.248C74.0782 107.099 73.7422 107.024 73.3795 107.024C73.0062 107.024 72.6648 107.093 72.3555 107.232C72.0462 107.371 71.7742 107.568 71.5395 107.824C71.3155 108.069 71.1395 108.373 71.0115 108.736C70.8835 109.088 70.8195 109.477 70.8195 109.904V110.16C70.8195 111.067 71.0542 111.776 71.5235 112.288C72.0035 112.789 72.6222 113.04 73.3795 113.04ZM81.3364 114H80.0884V102.8H81.3364V107.312H81.5284C81.8057 106.832 82.1897 106.469 82.6804 106.224C83.171 105.968 83.7044 105.84 84.2804 105.84C84.771 105.84 85.235 105.931 85.6724 106.112C86.1097 106.293 86.4937 106.555 86.8244 106.896C87.1657 107.237 87.4324 107.659 87.6244 108.16C87.827 108.661 87.9284 109.232 87.9284 109.872V110.192C87.9284 110.843 87.8324 111.419 87.6404 111.92C87.4484 112.421 87.1817 112.843 86.8404 113.184C86.5097 113.525 86.1204 113.787 85.6724 113.968C85.2244 114.139 84.7497 114.224 84.2484 114.224C83.9924 114.224 83.731 114.192 83.4644 114.128C83.1977 114.075 82.9417 113.989 82.6964 113.872C82.4617 113.744 82.243 113.595 82.0404 113.424C81.8377 113.243 81.667 113.029 81.5284 112.784H81.3364V114ZM83.9924 113.04C84.3764 113.04 84.7284 112.976 85.0484 112.848C85.3684 112.709 85.6457 112.517 85.8804 112.272C86.1257 112.027 86.3124 111.728 86.4404 111.376C86.579 111.024 86.6484 110.629 86.6484 110.192V109.872C86.6484 109.445 86.579 109.061 86.4404 108.72C86.3124 108.368 86.1257 108.069 85.8804 107.824C85.6457 107.568 85.363 107.371 85.0324 107.232C84.7124 107.093 84.3657 107.024 83.9924 107.024C83.619 107.024 83.2724 107.099 82.9524 107.248C82.6324 107.387 82.3497 107.584 82.1044 107.84C81.8697 108.096 81.683 108.405 81.5444 108.768C81.4057 109.12 81.3364 109.509 81.3364 109.936V110.128C81.3364 110.565 81.4057 110.965 81.5444 111.328C81.683 111.68 81.8697 111.984 82.1044 112.24C82.3497 112.496 82.6324 112.693 82.9524 112.832C83.2724 112.971 83.619 113.04 83.9924 113.04ZM98.0613 110.128C98.0613 110.789 97.9493 111.376 97.7253 111.888C97.5119 112.389 97.2239 112.816 96.8613 113.168C96.4986 113.509 96.0719 113.771 95.5813 113.952C95.1013 114.133 94.5999 114.224 94.0773 114.224C93.5439 114.224 93.0373 114.133 92.5573 113.952C92.0773 113.771 91.6559 113.509 91.2933 113.168C90.9306 112.816 90.6373 112.389 90.4133 111.888C90.1999 111.376 90.0933 110.789 90.0933 110.128V109.936C90.0933 109.285 90.1999 108.709 90.4133 108.208C90.6373 107.696 90.9306 107.264 91.2933 106.912C91.6666 106.56 92.0933 106.293 92.5733 106.112C93.0533 105.931 93.5546 105.84 94.0773 105.84C94.5999 105.84 95.1013 105.931 95.5813 106.112C96.0613 106.293 96.4826 106.56 96.8453 106.912C97.2186 107.264 97.5119 107.696 97.7253 108.208C97.9493 108.709 98.0613 109.285 98.0613 109.936V110.128ZM94.0773 113.04C94.4613 113.04 94.8133 112.976 95.1333 112.848C95.4639 112.709 95.7519 112.512 95.9973 112.256C96.2426 112 96.4346 111.696 96.5733 111.344C96.7119 110.981 96.7813 110.576 96.7813 110.128V109.936C96.7813 109.509 96.7119 109.12 96.5733 108.768C96.4346 108.405 96.2426 108.096 95.9973 107.84C95.7519 107.584 95.4639 107.387 95.1333 107.248C94.8026 107.099 94.4506 107.024 94.0773 107.024C93.7039 107.024 93.3519 107.099 93.0213 107.248C92.6906 107.387 92.4026 107.584 92.1573 107.84C91.9119 108.096 91.7199 108.405 91.5813 108.768C91.4426 109.12 91.3733 109.509 91.3733 109.936V110.128C91.3733 110.576 91.4426 110.981 91.5813 111.344C91.7199 111.696 91.9119 112 92.1573 112.256C92.4026 112.512 92.6853 112.709 93.0053 112.848C93.3359 112.976 93.6933 113.04 94.0773 113.04ZM100.322 106.064H103.202V107.12H103.394C103.597 106.683 103.885 106.363 104.258 106.16C104.631 105.947 105.058 105.84 105.538 105.84C106.338 105.84 106.983 106.101 107.474 106.624C107.965 107.147 108.226 107.909 108.258 108.912L106.946 109.104C106.946 108.368 106.77 107.84 106.418 107.52C106.066 107.189 105.634 107.024 105.122 107.024C104.791 107.024 104.503 107.088 104.258 107.216C104.023 107.344 103.826 107.52 103.666 107.744C103.506 107.968 103.389 108.229 103.314 108.528C103.239 108.827 103.202 109.147 103.202 109.488V112.848H105.218V114H100.13V112.848H101.954V107.216H100.322V106.064ZM116.727 112.656H116.535C116.279 113.189 115.922 113.584 115.463 113.84C115.015 114.096 114.54 114.224 114.039 114.224C113.516 114.224 113.031 114.139 112.583 113.968C112.135 113.787 111.74 113.525 111.399 113.184C111.068 112.832 110.807 112.405 110.615 111.904C110.423 111.403 110.327 110.821 110.327 110.16V109.904C110.327 109.253 110.423 108.677 110.615 108.176C110.807 107.675 111.068 107.253 111.399 106.912C111.74 106.56 112.135 106.293 112.583 106.112C113.031 105.931 113.506 105.84 114.007 105.84C114.551 105.84 115.042 105.963 115.479 106.208C115.927 106.443 116.279 106.811 116.535 107.312H116.727V106.064H117.975V112.368C117.975 112.688 118.119 112.848 118.407 112.848H118.807V114H117.959C117.596 114 117.298 113.883 117.063 113.648C116.839 113.413 116.727 113.115 116.727 112.752V112.656ZM114.167 113.04C114.54 113.04 114.882 112.971 115.191 112.832C115.511 112.693 115.783 112.496 116.007 112.24C116.231 111.984 116.407 111.68 116.535 111.328C116.663 110.965 116.727 110.565 116.727 110.128V109.936C116.727 109.509 116.663 109.12 116.535 108.768C116.407 108.405 116.226 108.096 115.991 107.84C115.767 107.584 115.495 107.387 115.175 107.248C114.866 107.099 114.53 107.024 114.167 107.024C113.794 107.024 113.452 107.093 113.143 107.232C112.834 107.371 112.562 107.568 112.327 107.824C112.103 108.069 111.927 108.373 111.799 108.736C111.671 109.088 111.607 109.477 111.607 109.904V110.16C111.607 111.067 111.842 111.776 112.311 112.288C112.791 112.789 113.41 113.04 114.167 113.04ZM120.892 106.064H123.388V102.8H124.636V106.064H127.708V107.216H124.636V112.368C124.636 112.688 124.78 112.848 125.068 112.848H127.324V114H124.62C124.257 114 123.959 113.883 123.724 113.648C123.5 113.413 123.388 113.115 123.388 112.752V107.216H120.892V106.064ZM133.825 103.696C133.825 103.387 133.931 103.125 134.145 102.912C134.369 102.688 134.635 102.576 134.945 102.576C135.254 102.576 135.515 102.688 135.729 102.912C135.953 103.125 136.065 103.387 136.065 103.696C136.065 104.005 135.953 104.272 135.729 104.496C135.515 104.709 135.254 104.816 134.945 104.816C134.635 104.816 134.369 104.709 134.145 104.496C133.931 104.272 133.825 104.005 133.825 103.696ZM131.553 112.848H134.337V107.216H131.841V106.064H135.585V112.848H138.177V114H131.553V112.848ZM149.046 110.128C149.046 110.789 148.934 111.376 148.71 111.888C148.496 112.389 148.208 112.816 147.846 113.168C147.483 113.509 147.056 113.771 146.566 113.952C146.086 114.133 145.584 114.224 145.062 114.224C144.528 114.224 144.022 114.133 143.542 113.952C143.062 113.771 142.64 113.509 142.278 113.168C141.915 112.816 141.622 112.389 141.398 111.888C141.184 111.376 141.078 110.789 141.078 110.128V109.936C141.078 109.285 141.184 108.709 141.398 108.208C141.622 107.696 141.915 107.264 142.278 106.912C142.651 106.56 143.078 106.293 143.558 106.112C144.038 105.931 144.539 105.84 145.062 105.84C145.584 105.84 146.086 105.931 146.566 106.112C147.046 106.293 147.467 106.56 147.83 106.912C148.203 107.264 148.496 107.696 148.71 108.208C148.934 108.709 149.046 109.285 149.046 109.936V110.128ZM145.062 113.04C145.446 113.04 145.798 112.976 146.118 112.848C146.448 112.709 146.736 112.512 146.982 112.256C147.227 112 147.419 111.696 147.558 111.344C147.696 110.981 147.766 110.576 147.766 110.128V109.936C147.766 109.509 147.696 109.12 147.558 108.768C147.419 108.405 147.227 108.096 146.982 107.84C146.736 107.584 146.448 107.387 146.118 107.248C145.787 107.099 145.435 107.024 145.062 107.024C144.688 107.024 144.336 107.099 144.006 107.248C143.675 107.387 143.387 107.584 143.142 107.84C142.896 108.096 142.704 108.405 142.566 108.768C142.427 109.12 142.358 109.509 142.358 109.936V110.128C142.358 110.576 142.427 110.981 142.566 111.344C142.704 111.696 142.896 112 143.142 112.256C143.387 112.512 143.67 112.709 143.99 112.848C144.32 112.976 144.678 113.04 145.062 113.04ZM153.003 114H151.755V106.064H153.003V107.408H153.195C153.685 106.363 154.539 105.84 155.755 105.84C156.672 105.84 157.403 106.128 157.947 106.704C158.491 107.269 158.763 108.123 158.763 109.264V114H157.515V109.52C157.515 108.688 157.328 108.064 156.955 107.648C156.581 107.232 156.075 107.024 155.435 107.024C154.677 107.024 154.08 107.285 153.643 107.808C153.216 108.32 153.003 109.008 153.003 109.872V114ZM179.469 114H177.165L176.205 106.64H176.013L175.053 114H172.749L171.501 106.064H172.781L173.837 113.424H174.029L174.957 106.064H177.261L178.189 113.424H178.381L179.437 106.064H180.717L179.469 114ZM185.265 103.696C185.265 103.387 185.372 103.125 185.585 102.912C185.809 102.688 186.076 102.576 186.385 102.576C186.695 102.576 186.956 102.688 187.169 102.912C187.393 103.125 187.505 103.387 187.505 103.696C187.505 104.005 187.393 104.272 187.169 104.496C186.956 104.709 186.695 104.816 186.385 104.816C186.076 104.816 185.809 104.709 185.585 104.496C185.372 104.272 185.265 104.005 185.265 103.696ZM182.993 112.848H185.777V107.216H183.281V106.064H187.025V112.848H189.617V114H182.993V112.848ZM192.726 106.064H195.222V102.8H196.47V106.064H199.542V107.216H196.47V112.368C196.47 112.688 196.614 112.848 196.902 112.848H199.158V114H196.454C196.092 114 195.793 113.883 195.558 113.648C195.334 113.413 195.222 113.115 195.222 112.752V107.216H192.726V106.064ZM204.443 114H203.195V102.8H204.443V107.504H204.635C204.88 106.992 205.222 106.587 205.659 106.288C206.107 105.989 206.651 105.84 207.291 105.84C208.155 105.84 208.854 106.128 209.387 106.704C209.931 107.269 210.203 108.123 210.203 109.264V114H208.955V109.52C208.955 108.688 208.768 108.064 208.395 107.648C208.022 107.232 207.515 107.024 206.875 107.024C206.118 107.024 205.52 107.285 205.083 107.808C204.656 108.32 204.443 109.008 204.443 109.872V114ZM36.88 139.128C36.88 139.789 36.768 140.376 36.544 140.888C36.3307 141.389 36.0427 141.816 35.68 142.168C35.3173 142.509 34.8907 142.771 34.4 142.952C33.92 143.133 33.4187 143.224 32.896 143.224C32.3627 143.224 31.856 143.133 31.376 142.952C30.896 142.771 30.4747 142.509 30.112 142.168C29.7493 141.816 29.456 141.389 29.232 140.888C29.0187 140.376 28.912 139.789 28.912 139.128V138.936C28.912 138.285 29.0187 137.709 29.232 137.208C29.456 136.696 29.7493 136.264 30.112 135.912C30.4853 135.56 30.912 135.293 31.392 135.112C31.872 134.931 32.3733 134.84 32.896 134.84C33.4187 134.84 33.92 134.931 34.4 135.112C34.88 135.293 35.3013 135.56 35.664 135.912C36.0373 136.264 36.3307 136.696 36.544 137.208C36.768 137.709 36.88 138.285 36.88 138.936V139.128ZM32.896 142.04C33.28 142.04 33.632 141.976 33.952 141.848C34.2827 141.709 34.5707 141.512 34.816 141.256C35.0613 141 35.2533 140.696 35.392 140.344C35.5307 139.981 35.6 139.576 35.6 139.128V138.936C35.6 138.509 35.5307 138.12 35.392 137.768C35.2533 137.405 35.0613 137.096 34.816 136.84C34.5707 136.584 34.2827 136.387 33.952 136.248C33.6213 136.099 33.2693 136.024 32.896 136.024C32.5227 136.024 32.1707 136.099 31.84 136.248C31.5093 136.387 31.2213 136.584 30.976 136.84C30.7307 137.096 30.5387 137.405 30.4 137.768C30.2613 138.12 30.192 138.509 30.192 138.936V139.128C30.192 139.576 30.2613 139.981 30.4 140.344C30.5387 140.696 30.7307 141 30.976 141.256C31.2213 141.512 31.504 141.709 31.824 141.848C32.1547 141.976 32.512 142.04 32.896 142.04ZM39.3169 135.064H41.8129V131.8H43.0609V135.064H46.1329V136.216H43.0609V141.368C43.0609 141.688 43.2049 141.848 43.4929 141.848H45.7489V143H43.0449C42.6822 143 42.3835 142.883 42.1489 142.648C41.9249 142.413 41.8129 142.115 41.8129 141.752V136.216H39.3169V135.064ZM51.0337 143H49.7857V131.8H51.0337V136.504H51.2257C51.4711 135.992 51.8124 135.587 52.2497 135.288C52.6977 134.989 53.2417 134.84 53.8817 134.84C54.7457 134.84 55.4444 135.128 55.9777 135.704C56.5217 136.269 56.7937 137.123 56.7937 138.264V143H55.5457V138.52C55.5457 137.688 55.3591 137.064 54.9857 136.648C54.6124 136.232 54.1057 136.024 53.4657 136.024C52.7084 136.024 52.1111 136.285 51.6737 136.808C51.2471 137.32 51.0337 138.008 51.0337 138.872V143ZM60.8946 139.416C60.9266 140.205 61.172 140.84 61.6306 141.32C62.0893 141.8 62.7293 142.04 63.5506 142.04C63.924 142.04 64.2493 141.997 64.5266 141.912C64.804 141.827 65.0386 141.709 65.2306 141.56C65.4333 141.411 65.5933 141.24 65.7106 141.048C65.8386 140.845 65.94 140.632 66.0146 140.408L67.1986 140.728C66.9746 141.464 66.5586 142.067 65.9506 142.536C65.3533 142.995 64.5426 143.224 63.5186 143.224C62.9533 143.224 62.4306 143.128 61.9506 142.936C61.4813 142.733 61.076 142.451 60.7346 142.088C60.3933 141.725 60.1266 141.293 59.9346 140.792C59.7426 140.291 59.6466 139.736 59.6466 139.128V138.744C59.6466 138.189 59.7426 137.672 59.9346 137.192C60.1373 136.712 60.4146 136.301 60.7666 135.96C61.1186 135.608 61.5293 135.336 61.9986 135.144C62.4786 134.941 62.996 134.84 63.5506 134.84C64.2013 134.84 64.7613 134.963 65.2306 135.208C65.7106 135.443 66.1 135.736 66.3986 136.088C66.708 136.44 66.932 136.824 67.0706 137.24C67.22 137.656 67.2946 138.04 67.2946 138.392V139.416H60.8946ZM63.5506 136.024C63.1986 136.024 62.868 136.083 62.5586 136.2C62.26 136.307 61.9933 136.461 61.7586 136.664C61.5346 136.867 61.348 137.107 61.1986 137.384C61.06 137.651 60.9693 137.944 60.9266 138.264H66.0466C66.0253 137.923 65.94 137.613 65.7906 137.336C65.652 137.059 65.4653 136.824 65.2306 136.632C65.0066 136.44 64.7453 136.291 64.4466 136.184C64.1586 136.077 63.86 136.024 63.5506 136.024ZM69.7315 135.064H72.6115V136.12H72.8035C73.0062 135.683 73.2942 135.363 73.6675 135.16C74.0408 134.947 74.4675 134.84 74.9475 134.84C75.7475 134.84 76.3928 135.101 76.8835 135.624C77.3742 136.147 77.6355 136.909 77.6675 137.912L76.3555 138.104C76.3555 137.368 76.1795 136.84 75.8275 136.52C75.4755 136.189 75.0435 136.024 74.5315 136.024C74.2008 136.024 73.9128 136.088 73.6675 136.216C73.4328 136.344 73.2355 136.52 73.0755 136.744C72.9155 136.968 72.7982 137.229 72.7235 137.528C72.6488 137.827 72.6115 138.147 72.6115 138.488V141.848H74.6275V143H69.5395V141.848H71.3635V136.216H69.7315V135.064ZM100.726 135.064H103.222V131.8H104.47V135.064H107.542V136.216H104.47V141.368C104.47 141.688 104.614 141.848 104.902 141.848H107.158V143H104.454C104.092 143 103.793 142.883 103.558 142.648C103.334 142.413 103.222 142.115 103.222 141.752V136.216H100.726V135.064ZM112.107 139.416C112.139 140.205 112.384 140.84 112.843 141.32C113.302 141.8 113.942 142.04 114.763 142.04C115.136 142.04 115.462 141.997 115.739 141.912C116.016 141.827 116.251 141.709 116.443 141.56C116.646 141.411 116.806 141.24 116.923 141.048C117.051 140.845 117.152 140.632 117.227 140.408L118.411 140.728C118.187 141.464 117.771 142.067 117.163 142.536C116.566 142.995 115.755 143.224 114.731 143.224C114.166 143.224 113.643 143.128 113.163 142.936C112.694 142.733 112.288 142.451 111.947 142.088C111.606 141.725 111.339 141.293 111.147 140.792C110.955 140.291 110.859 139.736 110.859 139.128V138.744C110.859 138.189 110.955 137.672 111.147 137.192C111.35 136.712 111.627 136.301 111.979 135.96C112.331 135.608 112.742 135.336 113.211 135.144C113.691 134.941 114.208 134.84 114.763 134.84C115.414 134.84 115.974 134.963 116.443 135.208C116.923 135.443 117.312 135.736 117.611 136.088C117.92 136.44 118.144 136.824 118.283 137.24C118.432 137.656 118.507 138.04 118.507 138.392V139.416H112.107ZM114.763 136.024C114.411 136.024 114.08 136.083 113.771 136.2C113.472 136.307 113.206 136.461 112.971 136.664C112.747 136.867 112.56 137.107 112.411 137.384C112.272 137.651 112.182 137.944 112.139 138.264H117.259C117.238 137.923 117.152 137.613 117.003 137.336C116.864 137.059 116.678 136.824 116.443 136.632C116.219 136.44 115.958 136.291 115.659 136.184C115.371 136.077 115.072 136.024 114.763 136.024ZM127.152 141.656H126.96C126.704 142.189 126.347 142.584 125.888 142.84C125.44 143.096 124.965 143.224 124.464 143.224C123.941 143.224 123.456 143.139 123.008 142.968C122.56 142.787 122.165 142.525 121.824 142.184C121.493 141.832 121.232 141.405 121.04 140.904C120.848 140.403 120.752 139.821 120.752 139.16V138.904C120.752 138.253 120.848 137.677 121.04 137.176C121.232 136.675 121.493 136.253 121.824 135.912C122.165 135.56 122.56 135.293 123.008 135.112C123.456 134.931 123.931 134.84 124.432 134.84C124.976 134.84 125.467 134.963 125.904 135.208C126.352 135.443 126.704 135.811 126.96 136.312H127.152V135.064H128.4V141.368C128.4 141.688 128.544 141.848 128.832 141.848H129.232V143H128.384C128.021 143 127.723 142.883 127.488 142.648C127.264 142.413 127.152 142.115 127.152 141.752V141.656ZM124.592 142.04C124.965 142.04 125.307 141.971 125.616 141.832C125.936 141.693 126.208 141.496 126.432 141.24C126.656 140.984 126.832 140.68 126.96 140.328C127.088 139.965 127.152 139.565 127.152 139.128V138.936C127.152 138.509 127.088 138.12 126.96 137.768C126.832 137.405 126.651 137.096 126.416 136.84C126.192 136.584 125.92 136.387 125.6 136.248C125.291 136.099 124.955 136.024 124.592 136.024C124.219 136.024 123.877 136.093 123.568 136.232C123.259 136.371 122.987 136.568 122.752 136.824C122.528 137.069 122.352 137.373 122.224 137.736C122.096 138.088 122.032 138.477 122.032 138.904V139.16C122.032 140.067 122.267 140.776 122.736 141.288C123.216 141.789 123.835 142.04 124.592 142.04ZM139.221 143H137.973V137.304C137.973 136.931 137.888 136.627 137.717 136.392C137.546 136.147 137.274 136.024 136.901 136.024C136.549 136.024 136.261 136.157 136.037 136.424C135.824 136.68 135.717 137.08 135.717 137.624V143H134.469V137.24C134.469 136.888 134.373 136.6 134.181 136.376C133.989 136.141 133.733 136.024 133.413 136.024C133.029 136.024 132.73 136.163 132.517 136.44C132.314 136.717 132.213 137.08 132.213 137.528V143H130.965V135.064H132.213V135.928H132.405C132.544 135.555 132.746 135.283 133.013 135.112C133.28 134.931 133.594 134.84 133.957 134.84C134.341 134.84 134.656 134.941 134.901 135.144C135.157 135.347 135.333 135.608 135.429 135.928H135.621C135.984 135.203 136.56 134.84 137.349 134.84C137.946 134.84 138.405 135.032 138.725 135.416C139.056 135.789 139.221 136.28 139.221 136.888V143ZM143.434 137.112C143.434 137.496 143.594 137.789 143.914 137.992C144.244 138.195 144.842 138.328 145.706 138.392C146.634 138.467 147.338 138.691 147.818 139.064C148.308 139.427 148.554 139.96 148.554 140.664V140.76C148.554 141.144 148.474 141.491 148.314 141.8C148.164 142.099 147.951 142.355 147.674 142.568C147.407 142.781 147.076 142.941 146.682 143.048C146.298 143.165 145.876 143.224 145.418 143.224C144.799 143.224 144.266 143.144 143.818 142.984C143.38 142.813 143.012 142.595 142.714 142.328C142.426 142.051 142.207 141.741 142.058 141.4C141.908 141.048 141.823 140.696 141.802 140.344L142.986 140.056C143.039 140.664 143.274 141.155 143.69 141.528C144.106 141.891 144.66 142.072 145.354 142.072C145.94 142.072 146.41 141.96 146.762 141.736C147.124 141.501 147.306 141.176 147.306 140.76C147.306 140.312 147.13 139.992 146.778 139.8C146.426 139.608 145.855 139.485 145.066 139.432C144.148 139.368 143.444 139.155 142.954 138.792C142.463 138.429 142.218 137.901 142.218 137.208V137.112C142.218 136.739 142.298 136.413 142.458 136.136C142.618 135.848 142.831 135.608 143.098 135.416C143.375 135.224 143.684 135.08 144.026 134.984C144.367 134.888 144.724 134.84 145.098 134.84C145.62 134.84 146.079 134.915 146.474 135.064C146.868 135.203 147.199 135.389 147.466 135.624C147.732 135.848 147.935 136.109 148.074 136.408C148.223 136.707 148.319 137.005 148.362 137.304L147.178 137.592C147.124 137.08 146.916 136.68 146.554 136.392C146.202 136.104 145.738 135.96 145.162 135.96C144.938 135.96 144.719 135.987 144.506 136.04C144.303 136.083 144.122 136.152 143.962 136.248C143.802 136.344 143.674 136.467 143.578 136.616C143.482 136.755 143.434 136.92 143.434 137.112ZM179.469 143H177.165L176.205 135.64H176.013L175.053 143H172.749L171.501 135.064H172.781L173.837 142.424H174.029L174.957 135.064H177.261L178.189 142.424H178.381L179.437 135.064H180.717L179.469 143ZM185.265 132.696C185.265 132.387 185.372 132.125 185.585 131.912C185.809 131.688 186.076 131.576 186.385 131.576C186.695 131.576 186.956 131.688 187.169 131.912C187.393 132.125 187.505 132.387 187.505 132.696C187.505 133.005 187.393 133.272 187.169 133.496C186.956 133.709 186.695 133.816 186.385 133.816C186.076 133.816 185.809 133.709 185.585 133.496C185.372 133.272 185.265 133.005 185.265 132.696ZM182.993 141.848H185.777V136.216H183.281V135.064H187.025V141.848H189.617V143H182.993V141.848ZM192.998 141.848H195.878V132.952H193.094V131.8H197.126V141.848H200.006V143H192.998V141.848ZM203.195 141.848H206.075V132.952H203.291V131.8H207.323V141.848H210.203V143H203.195V141.848ZM30.352 172H29.104V160.8H30.352V165.312H30.544C30.8213 164.832 31.2053 164.469 31.696 164.224C32.1867 163.968 32.72 163.84 33.296 163.84C33.7867 163.84 34.2507 163.931 34.688 164.112C35.1253 164.293 35.5093 164.555 35.84 164.896C36.1813 165.237 36.448 165.659 36.64 166.16C36.8427 166.661 36.944 167.232 36.944 167.872V168.192C36.944 168.843 36.848 169.419 36.656 169.92C36.464 170.421 36.1973 170.843 35.856 171.184C35.5253 171.525 35.136 171.787 34.688 171.968C34.24 172.139 33.7653 172.224 33.264 172.224C33.008 172.224 32.7467 172.192 32.48 172.128C32.2133 172.075 31.9573 171.989 31.712 171.872C31.4773 171.744 31.2587 171.595 31.056 171.424C30.8533 171.243 30.6827 171.029 30.544 170.784H30.352V172ZM33.008 171.04C33.392 171.04 33.744 170.976 34.064 170.848C34.384 170.709 34.6613 170.517 34.896 170.272C35.1413 170.027 35.328 169.728 35.456 169.376C35.5947 169.024 35.664 168.629 35.664 168.192V167.872C35.664 167.445 35.5947 167.061 35.456 166.72C35.328 166.368 35.1413 166.069 34.896 165.824C34.6613 165.568 34.3787 165.371 34.048 165.232C33.728 165.093 33.3813 165.024 33.008 165.024C32.6347 165.024 32.288 165.099 31.968 165.248C31.648 165.387 31.3653 165.584 31.12 165.84C30.8853 166.096 30.6987 166.405 30.56 166.768C30.4213 167.12 30.352 167.509 30.352 167.936V168.128C30.352 168.565 30.4213 168.965 30.56 169.328C30.6987 169.68 30.8853 169.984 31.12 170.24C31.3653 170.496 31.648 170.693 31.968 170.832C32.288 170.971 32.6347 171.04 33.008 171.04ZM40.5009 168.416C40.5329 169.205 40.7782 169.84 41.2369 170.32C41.6955 170.8 42.3355 171.04 43.1569 171.04C43.5302 171.04 43.8555 170.997 44.1329 170.912C44.4102 170.827 44.6449 170.709 44.8369 170.56C45.0395 170.411 45.1995 170.24 45.3169 170.048C45.4449 169.845 45.5462 169.632 45.6209 169.408L46.8049 169.728C46.5809 170.464 46.1649 171.067 45.5569 171.536C44.9595 171.995 44.1489 172.224 43.1249 172.224C42.5595 172.224 42.0369 172.128 41.5569 171.936C41.0875 171.733 40.6822 171.451 40.3409 171.088C39.9995 170.725 39.7329 170.293 39.5409 169.792C39.3489 169.291 39.2529 168.736 39.2529 168.128V167.744C39.2529 167.189 39.3489 166.672 39.5409 166.192C39.7435 165.712 40.0209 165.301 40.3729 164.96C40.7249 164.608 41.1355 164.336 41.6049 164.144C42.0849 163.941 42.6022 163.84 43.1569 163.84C43.8075 163.84 44.3675 163.963 44.8369 164.208C45.3169 164.443 45.7062 164.736 46.0049 165.088C46.3142 165.44 46.5382 165.824 46.6769 166.24C46.8262 166.656 46.9009 167.04 46.9009 167.392V168.416H40.5009ZM43.1569 165.024C42.8049 165.024 42.4742 165.083 42.1649 165.2C41.8662 165.307 41.5995 165.461 41.3649 165.664C41.1409 165.867 40.9542 166.107 40.8049 166.384C40.6662 166.651 40.5755 166.944 40.5329 167.264H45.6529C45.6315 166.923 45.5462 166.613 45.3969 166.336C45.2582 166.059 45.0715 165.824 44.8369 165.632C44.6129 165.44 44.3515 165.291 44.0529 165.184C43.7649 165.077 43.4662 165.024 43.1569 165.024ZM66.1266 170.784H65.9346C65.8066 171.029 65.6413 171.243 65.4386 171.424C65.2466 171.605 65.0333 171.755 64.7986 171.872C64.5746 171.989 64.3346 172.075 64.0786 172.128C63.8226 172.192 63.5773 172.224 63.3426 172.224C62.8093 172.224 62.3133 172.133 61.8546 171.952C61.396 171.771 60.9906 171.509 60.6386 171.168C60.2973 170.827 60.0253 170.405 59.8226 169.904C59.6306 169.392 59.5346 168.811 59.5346 168.16V167.904C59.5346 167.264 59.636 166.693 59.8386 166.192C60.0413 165.68 60.3133 165.253 60.6546 164.912C60.996 164.56 61.396 164.293 61.8546 164.112C62.3133 163.931 62.7986 163.84 63.3106 163.84C63.8546 163.84 64.3613 163.963 64.8306 164.208C65.3106 164.443 65.6786 164.811 65.9346 165.312H66.1266V160.8H67.3746V172H66.1266V170.784ZM63.4706 171.04C63.844 171.04 64.1906 170.971 64.5106 170.832C64.8306 170.693 65.108 170.496 65.3426 170.24C65.588 169.984 65.78 169.68 65.9186 169.328C66.0573 168.965 66.1266 168.565 66.1266 168.128V167.936C66.1266 167.509 66.0573 167.12 65.9186 166.768C65.78 166.405 65.588 166.096 65.3426 165.84C65.108 165.584 64.8253 165.387 64.4946 165.248C64.1746 165.099 63.8333 165.024 63.4706 165.024C63.0973 165.024 62.7453 165.093 62.4146 165.232C62.0946 165.371 61.812 165.568 61.5666 165.824C61.332 166.08 61.1453 166.384 61.0066 166.736C60.8786 167.088 60.8146 167.477 60.8146 167.904V168.16C60.8146 168.608 60.8786 169.008 61.0066 169.36C61.1453 169.712 61.332 170.016 61.5666 170.272C61.812 170.517 62.0946 170.709 62.4146 170.848C62.7346 170.976 63.0866 171.04 63.4706 171.04ZM72.6435 161.696C72.6435 161.387 72.7502 161.125 72.9635 160.912C73.1875 160.688 73.4542 160.576 73.7635 160.576C74.0728 160.576 74.3342 160.688 74.5475 160.912C74.7715 161.125 74.8835 161.387 74.8835 161.696C74.8835 162.005 74.7715 162.272 74.5475 162.496C74.3342 162.709 74.0728 162.816 73.7635 162.816C73.4542 162.816 73.1875 162.709 72.9635 162.496C72.7502 162.272 72.6435 162.005 72.6435 161.696ZM70.3715 170.848H73.1555V165.216H70.6595V164.064H74.4035V170.848H76.9955V172H70.3715V170.848ZM82.0244 166.112C82.0244 166.496 82.1844 166.789 82.5044 166.992C82.835 167.195 83.4324 167.328 84.2964 167.392C85.2244 167.467 85.9284 167.691 86.4084 168.064C86.899 168.427 87.1444 168.96 87.1444 169.664V169.76C87.1444 170.144 87.0644 170.491 86.9044 170.8C86.755 171.099 86.5417 171.355 86.2644 171.568C85.9977 171.781 85.667 171.941 85.2724 172.048C84.8884 172.165 84.467 172.224 84.0084 172.224C83.3897 172.224 82.8564 172.144 82.4084 171.984C81.971 171.813 81.603 171.595 81.3044 171.328C81.0164 171.051 80.7977 170.741 80.6484 170.4C80.499 170.048 80.4137 169.696 80.3924 169.344L81.5764 169.056C81.6297 169.664 81.8644 170.155 82.2804 170.528C82.6964 170.891 83.251 171.072 83.9444 171.072C84.531 171.072 85.0004 170.96 85.3524 170.736C85.715 170.501 85.8964 170.176 85.8964 169.76C85.8964 169.312 85.7204 168.992 85.3684 168.8C85.0164 168.608 84.4457 168.485 83.6564 168.432C82.739 168.368 82.035 168.155 81.5444 167.792C81.0537 167.429 80.8084 166.901 80.8084 166.208V166.112C80.8084 165.739 80.8884 165.413 81.0484 165.136C81.2084 164.848 81.4217 164.608 81.6884 164.416C81.9657 164.224 82.275 164.08 82.6164 163.984C82.9577 163.888 83.315 163.84 83.6884 163.84C84.211 163.84 84.6697 163.915 85.0644 164.064C85.459 164.203 85.7897 164.389 86.0564 164.624C86.323 164.848 86.5257 165.109 86.6644 165.408C86.8137 165.707 86.9097 166.005 86.9524 166.304L85.7684 166.592C85.715 166.08 85.507 165.68 85.1444 165.392C84.7924 165.104 84.3284 164.96 83.7524 164.96C83.5284 164.96 83.3097 164.987 83.0964 165.04C82.8937 165.083 82.7124 165.152 82.5524 165.248C82.3924 165.344 82.2644 165.467 82.1684 165.616C82.0724 165.755 82.0244 165.92 82.0244 166.112ZM96.6533 170.784H96.4613C96.3226 171.029 96.1519 171.243 95.9493 171.424C95.7573 171.595 95.5439 171.744 95.3093 171.872C95.0853 171.989 94.8453 172.075 94.5893 172.128C94.3439 172.192 94.1039 172.224 93.8693 172.224C93.3359 172.224 92.8399 172.133 92.3813 171.952C91.9226 171.771 91.5173 171.509 91.1653 171.168C90.8239 170.827 90.5519 170.405 90.3493 169.904C90.1573 169.392 90.0613 168.811 90.0613 168.16V167.904C90.0613 167.264 90.1626 166.693 90.3653 166.192C90.5679 165.68 90.8399 165.253 91.1813 164.912C91.5226 164.56 91.9226 164.293 92.3813 164.112C92.8399 163.931 93.3253 163.84 93.8373 163.84C94.3813 163.84 94.8826 163.968 95.3413 164.224C95.8106 164.469 96.1839 164.832 96.4613 165.312H96.6533V164.064H97.9013V175.2H96.6533V170.784ZM93.9973 171.04C94.3706 171.04 94.7173 170.971 95.0373 170.832C95.3573 170.693 95.6346 170.496 95.8693 170.24C96.1146 169.984 96.3066 169.68 96.4453 169.328C96.5839 168.965 96.6533 168.565 96.6533 168.128V167.936C96.6533 167.509 96.5839 167.12 96.4453 166.768C96.3066 166.405 96.1146 166.096 95.8693 165.84C95.6346 165.584 95.3519 165.387 95.0213 165.248C94.7013 165.099 94.3599 165.024 93.9973 165.024C93.6239 165.024 93.2719 165.093 92.9413 165.232C92.6213 165.371 92.3386 165.568 92.0933 165.824C91.8586 166.08 91.6719 166.384 91.5333 166.736C91.4053 167.088 91.3413 167.477 91.3413 167.904V168.16C91.3413 168.608 91.4053 169.008 91.5333 169.36C91.6719 169.712 91.8586 170.016 92.0933 170.272C92.3386 170.517 92.6213 170.709 92.9413 170.848C93.2613 170.976 93.6133 171.04 93.9973 171.04ZM106.434 164.064H107.682V172H106.434V170.56H106.242C105.986 171.072 105.65 171.477 105.234 171.776C104.818 172.075 104.29 172.224 103.65 172.224C103.213 172.224 102.807 172.149 102.434 172C102.071 171.861 101.757 171.648 101.49 171.36C101.234 171.072 101.031 170.715 100.882 170.288C100.743 169.861 100.674 169.365 100.674 168.8V164.064H101.922V168.64C101.922 169.472 102.093 170.08 102.434 170.464C102.775 170.848 103.298 171.04 104.002 171.04C104.759 171.04 105.351 170.784 105.778 170.272C106.215 169.749 106.434 169.056 106.434 168.192V164.064ZM116.727 170.656H116.535C116.279 171.189 115.922 171.584 115.463 171.84C115.015 172.096 114.54 172.224 114.039 172.224C113.516 172.224 113.031 172.139 112.583 171.968C112.135 171.787 111.74 171.525 111.399 171.184C111.068 170.832 110.807 170.405 110.615 169.904C110.423 169.403 110.327 168.821 110.327 168.16V167.904C110.327 167.253 110.423 166.677 110.615 166.176C110.807 165.675 111.068 165.253 111.399 164.912C111.74 164.56 112.135 164.293 112.583 164.112C113.031 163.931 113.506 163.84 114.007 163.84C114.551 163.84 115.042 163.963 115.479 164.208C115.927 164.443 116.279 164.811 116.535 165.312H116.727V164.064H117.975V170.368C117.975 170.688 118.119 170.848 118.407 170.848H118.807V172H117.959C117.596 172 117.298 171.883 117.063 171.648C116.839 171.413 116.727 171.115 116.727 170.752V170.656ZM114.167 171.04C114.54 171.04 114.882 170.971 115.191 170.832C115.511 170.693 115.783 170.496 116.007 170.24C116.231 169.984 116.407 169.68 116.535 169.328C116.663 168.965 116.727 168.565 116.727 168.128V167.936C116.727 167.509 116.663 167.12 116.535 166.768C116.407 166.405 116.226 166.096 115.991 165.84C115.767 165.584 115.495 165.387 115.175 165.248C114.866 165.099 114.53 165.024 114.167 165.024C113.794 165.024 113.452 165.093 113.143 165.232C112.834 165.371 112.562 165.568 112.327 165.824C112.103 166.069 111.927 166.373 111.799 166.736C111.671 167.088 111.607 167.477 111.607 167.904V168.16C111.607 169.067 111.842 169.776 112.311 170.288C112.791 170.789 113.41 171.04 114.167 171.04ZM121.164 170.848H124.044V161.952H121.26V160.8H125.292V170.848H128.172V172H121.164V170.848ZM133.825 161.696C133.825 161.387 133.931 161.125 134.145 160.912C134.369 160.688 134.635 160.576 134.945 160.576C135.254 160.576 135.515 160.688 135.729 160.912C135.953 161.125 136.065 161.387 136.065 161.696C136.065 162.005 135.953 162.272 135.729 162.496C135.515 162.709 135.254 162.816 134.945 162.816C134.635 162.816 134.369 162.709 134.145 162.496C133.931 162.272 133.825 162.005 133.825 161.696ZM131.553 170.848H134.337V165.216H131.841V164.064H135.585V170.848H138.177V172H131.553V170.848ZM146.31 161.696C146.31 161.387 146.416 161.125 146.63 160.912C146.854 160.688 147.12 160.576 147.43 160.576C147.739 160.576 148 160.688 148.214 160.912C148.438 161.125 148.55 161.387 148.55 161.696C148.55 162.005 148.438 162.272 148.214 162.496C148 162.709 147.739 162.816 147.43 162.816C147.12 162.816 146.854 162.709 146.63 162.496C146.416 162.272 146.31 162.005 146.31 161.696ZM146.822 172V165.216H144.054V172H142.806V165.216H140.934V164.064H142.806V162.368C142.806 162.005 142.918 161.707 143.142 161.472C143.376 161.237 143.675 161.12 144.038 161.12H145.734V162.272H144.486C144.198 162.272 144.054 162.432 144.054 162.752V164.064H148.07V172H146.822ZM152.667 168.416C152.699 169.205 152.944 169.84 153.403 170.32C153.861 170.8 154.501 171.04 155.323 171.04C155.696 171.04 156.021 170.997 156.299 170.912C156.576 170.827 156.811 170.709 157.003 170.56C157.205 170.411 157.365 170.24 157.483 170.048C157.611 169.845 157.712 169.632 157.787 169.408L158.971 169.728C158.747 170.464 158.331 171.067 157.723 171.536C157.125 171.995 156.315 172.224 155.291 172.224C154.725 172.224 154.203 172.128 153.723 171.936C153.253 171.733 152.848 171.451 152.507 171.088C152.165 170.725 151.899 170.293 151.707 169.792C151.515 169.291 151.419 168.736 151.419 168.128V167.744C151.419 167.189 151.515 166.672 151.707 166.192C151.909 165.712 152.187 165.301 152.539 164.96C152.891 164.608 153.301 164.336 153.771 164.144C154.251 163.941 154.768 163.84 155.323 163.84C155.973 163.84 156.533 163.963 157.003 164.208C157.483 164.443 157.872 164.736 158.171 165.088C158.48 165.44 158.704 165.824 158.843 166.24C158.992 166.656 159.067 167.04 159.067 167.392V168.416H152.667ZM155.323 165.024C154.971 165.024 154.64 165.083 154.331 165.2C154.032 165.307 153.765 165.461 153.531 165.664C153.307 165.867 153.12 166.107 152.971 166.384C152.832 166.651 152.741 166.944 152.699 167.264H157.819C157.797 166.923 157.712 166.613 157.563 166.336C157.424 166.059 157.237 165.824 157.003 165.632C156.779 165.44 156.517 165.291 156.219 165.184C155.931 165.077 155.632 165.024 155.323 165.024ZM168.095 170.784H167.903C167.775 171.029 167.61 171.243 167.407 171.424C167.215 171.605 167.002 171.755 166.767 171.872C166.543 171.989 166.303 172.075 166.047 172.128C165.791 172.192 165.546 172.224 165.311 172.224C164.778 172.224 164.282 172.133 163.823 171.952C163.365 171.771 162.959 171.509 162.607 171.168C162.266 170.827 161.994 170.405 161.791 169.904C161.599 169.392 161.503 168.811 161.503 168.16V167.904C161.503 167.264 161.605 166.693 161.807 166.192C162.01 165.68 162.282 165.253 162.623 164.912C162.965 164.56 163.365 164.293 163.823 164.112C164.282 163.931 164.767 163.84 165.279 163.84C165.823 163.84 166.33 163.963 166.799 164.208C167.279 164.443 167.647 164.811 167.903 165.312H168.095V160.8H169.343V172H168.095V170.784ZM165.439 171.04C165.813 171.04 166.159 170.971 166.479 170.832C166.799 170.693 167.077 170.496 167.311 170.24C167.557 169.984 167.749 169.68 167.887 169.328C168.026 168.965 168.095 168.565 168.095 168.128V167.936C168.095 167.509 168.026 167.12 167.887 166.768C167.749 166.405 167.557 166.096 167.311 165.84C167.077 165.584 166.794 165.387 166.463 165.248C166.143 165.099 165.802 165.024 165.439 165.024C165.066 165.024 164.714 165.093 164.383 165.232C164.063 165.371 163.781 165.568 163.535 165.824C163.301 166.08 163.114 166.384 162.975 166.736C162.847 167.088 162.783 167.477 162.783 167.904V168.16C162.783 168.608 162.847 169.008 162.975 169.36C163.114 169.712 163.301 170.016 163.535 170.272C163.781 170.517 164.063 170.709 164.383 170.848C164.703 170.976 165.055 171.04 165.439 171.04ZM184.729 171.104C184.729 170.795 184.836 170.533 185.049 170.32C185.273 170.096 185.54 169.984 185.849 169.984C186.158 169.984 186.42 170.096 186.633 170.32C186.857 170.533 186.969 170.795 186.969 171.104C186.969 171.413 186.857 171.68 186.633 171.904C186.42 172.117 186.158 172.224 185.849 172.224C185.54 172.224 185.273 172.117 185.049 171.904C184.836 171.68 184.729 171.413 184.729 171.104Z" fill="white" fill-opacity="0.95"/>
<path d="M38.86 42H36.22V37.8C36.22 37.48 36.1333 37.22 35.96 37.02C35.8 36.82 35.5267 36.72 35.14 36.72H32.1V42H29.46V28H34.82C35.54 28 36.1733 28.1 36.72 28.3C37.2667 28.5 37.72 28.78 38.08 29.14C38.4533 29.4867 38.7333 29.8933 38.92 30.36C39.12 30.8267 39.22 31.3267 39.22 31.86V32.34C39.22 32.9133 39.0667 33.4533 38.76 33.96C38.4533 34.4533 37.98 34.8333 37.34 35.1V35.46C37.8067 35.5133 38.1733 35.6933 38.44 36C38.72 36.3067 38.86 36.6933 38.86 37.16V42ZM32.1 34.2H34.62C35.26 34.2 35.7467 34.0533 36.08 33.76C36.4133 33.4533 36.58 33.0267 36.58 32.48V32.24C36.58 31.7733 36.4133 31.3733 36.08 31.04C35.7467 30.6933 35.26 30.52 34.62 30.52H32.1V34.2ZM49.1261 32.08H51.6461V42H49.1261V40.56H48.7661C48.3261 41.7067 47.3794 42.28 45.9261 42.28C45.4328 42.28 44.9728 42.2 44.5461 42.04C44.1194 41.88 43.7461 41.6333 43.4261 41.3C43.1061 40.9667 42.8528 40.5533 42.6661 40.06C42.4928 39.5533 42.4061 38.96 42.4061 38.28V32.08H44.9261V37.76C44.9261 38.4667 45.0928 39.02 45.4261 39.42C45.7594 39.8067 46.2594 40 46.9261 40C47.6861 40 48.2394 39.76 48.5861 39.28C48.9461 38.7867 49.1261 38.12 49.1261 37.28V32.08ZM55.1922 39.6H58.6722V30.4H55.3122V28H61.1922V39.6H64.4322V42H55.1922V39.6ZM70.3183 37.86C70.3316 38.1533 70.3983 38.4267 70.5183 38.68C70.6516 38.92 70.8249 39.1333 71.0383 39.32C71.2649 39.4933 71.5183 39.6333 71.7983 39.74C72.0916 39.8333 72.3983 39.88 72.7183 39.88C73.3449 39.88 73.8249 39.7733 74.1583 39.56C74.4916 39.3333 74.7316 39.0667 74.8783 38.76L77.0383 39.96C76.9183 40.2133 76.7516 40.48 76.5383 40.76C76.3249 41.0267 76.0449 41.2733 75.6983 41.5C75.3649 41.7267 74.9516 41.9133 74.4583 42.06C73.9783 42.2067 73.4116 42.28 72.7583 42.28C72.0116 42.28 71.3316 42.16 70.7183 41.92C70.1049 41.68 69.5716 41.3333 69.1183 40.88C68.6783 40.4267 68.3316 39.8733 68.0783 39.22C67.8383 38.5667 67.7183 37.8267 67.7183 37V36.88C67.7183 36.12 67.8449 35.4267 68.0983 34.8C68.3649 34.1733 68.7249 33.64 69.1783 33.2C69.6316 32.76 70.1583 32.42 70.7583 32.18C71.3716 31.9267 72.0249 31.8 72.7183 31.8C73.5716 31.8 74.3049 31.9533 74.9183 32.26C75.5316 32.5533 76.0383 32.9333 76.4383 33.4C76.8383 33.8533 77.1316 34.36 77.3183 34.92C77.5049 35.4667 77.5983 36 77.5983 36.52V37.86H70.3183ZM72.6983 34.08C72.0583 34.08 71.5383 34.2467 71.1383 34.58C70.7383 34.9 70.4783 35.2733 70.3583 35.7H75.0383C74.9583 35.2333 74.7049 34.8467 74.2783 34.54C73.8649 34.2333 73.3383 34.08 72.6983 34.08ZM82.3844 35.36H88.6244V37.64H82.3844V35.36ZM96.8705 28H101.87V36.84H103.91V39.36H101.87V42H99.2305V39.36H92.9905V35.72L96.8705 28ZM95.2705 36.48V36.84H99.2305V29.32H98.8705L95.2705 36.48Z" fill="white"/>
<defs>
<filter id="filter0_b_553_184" x="-30" y="-30" width="290" height="265" filterUnits="userSpaceOnUse" color-interpolation-filters="sRGB">
<feFlood flood-opacity="0" result="BackgroundImageFix"/>
<feGaussianBlur in="BackgroundImageFix" stdDeviation="15"/>
<feComposite in2="SourceAlpha" operator="in" result="effect1_backgroundBlur_553_184"/>
<feBlend mode="normal" in="SourceGraphic" in2="effect1_backgroundBlur_553_184" result="shape"/>
</filter>
</defs>
</svg>
