<svg width="211" height="205" viewBox="0 0 211 205" fill="none" xmlns="http://www.w3.org/2000/svg">
<g filter="url(#filter0_b_553_225)">
<rect width="211" height="205" rx="11" fill="white" fill-opacity="0.05"/>
</g>
<path d="M34.168 73.8H37.848C39.2347 73.8 40.248 74.1307 40.888 74.792C41.528 75.4533 41.848 76.5093 41.848 77.96V80.84C41.848 82.2907 41.528 83.3467 40.888 84.008C40.248 84.6693 39.2347 85 37.848 85H34.168V83.736H35.128V75.048H34.168V73.8ZM37.656 83.752C38.1467 83.752 38.568 83.704 38.92 83.608C39.2827 83.512 39.5813 83.352 39.816 83.128C40.0507 82.8933 40.2213 82.584 40.328 82.2C40.4453 81.816 40.504 81.3307 40.504 80.744V78.056C40.504 77.4693 40.4453 76.984 40.328 76.6C40.2213 76.216 40.0507 75.912 39.816 75.688C39.5813 75.4533 39.2827 75.288 38.92 75.192C38.568 75.096 38.1467 75.048 37.656 75.048H36.472V83.752H37.656ZM52.0769 81.128C52.0769 81.7893 51.9649 82.376 51.7409 82.888C51.5275 83.3893 51.2395 83.816 50.8769 84.168C50.5142 84.5093 50.0875 84.7707 49.5969 84.952C49.1169 85.1333 48.6155 85.224 48.0929 85.224C47.5595 85.224 47.0529 85.1333 46.5729 84.952C46.0929 84.7707 45.6715 84.5093 45.3089 84.168C44.9462 83.816 44.6529 83.3893 44.4289 82.888C44.2155 82.376 44.1089 81.7893 44.1089 81.128V80.936C44.1089 80.2853 44.2155 79.7093 44.4289 79.208C44.6529 78.696 44.9462 78.264 45.3089 77.912C45.6822 77.56 46.1089 77.2933 46.5889 77.112C47.0689 76.9307 47.5702 76.84 48.0929 76.84C48.6155 76.84 49.1169 76.9307 49.5969 77.112C50.0769 77.2933 50.4982 77.56 50.8609 77.912C51.2342 78.264 51.5275 78.696 51.7409 79.208C51.9649 79.7093 52.0769 80.2853 52.0769 80.936V81.128ZM48.0929 84.04C48.4769 84.04 48.8289 83.976 49.1489 83.848C49.4795 83.7093 49.7675 83.512 50.0129 83.256C50.2582 83 50.4502 82.696 50.5889 82.344C50.7275 81.9813 50.7969 81.576 50.7969 81.128V80.936C50.7969 80.5093 50.7275 80.12 50.5889 79.768C50.4502 79.4053 50.2582 79.096 50.0129 78.84C49.7675 78.584 49.4795 78.3867 49.1489 78.248C48.8182 78.0987 48.4662 78.024 48.0929 78.024C47.7195 78.024 47.3675 78.0987 47.0369 78.248C46.7062 78.3867 46.4182 78.584 46.1729 78.84C45.9275 79.096 45.7355 79.4053 45.5969 79.768C45.4582 80.12 45.3889 80.5093 45.3889 80.936V81.128C45.3889 81.576 45.4582 81.9813 45.5969 82.344C45.7355 82.696 45.9275 83 46.1729 83.256C46.4182 83.512 46.7009 83.7093 47.0209 83.848C47.3515 83.976 47.7089 84.04 48.0929 84.04ZM76.4509 85H75.2029V77.064H76.4509V78.408H76.6429C77.1336 77.3627 77.9869 76.84 79.2029 76.84C80.1203 76.84 80.8509 77.128 81.3949 77.704C81.9389 78.2693 82.2109 79.1227 82.2109 80.264V85H80.9629V80.52C80.9629 79.688 80.7763 79.064 80.4029 78.648C80.0296 78.232 79.5229 78.024 78.8829 78.024C78.1256 78.024 77.5283 78.2853 77.0909 78.808C76.6643 79.32 76.4509 80.008 76.4509 80.872V85ZM92.8878 81.128C92.8878 81.7893 92.7758 82.376 92.5518 82.888C92.3385 83.3893 92.0505 83.816 91.6878 84.168C91.3251 84.5093 90.8985 84.7707 90.4078 84.952C89.9278 85.1333 89.4265 85.224 88.9038 85.224C88.3705 85.224 87.8638 85.1333 87.3838 84.952C86.9038 84.7707 86.4825 84.5093 86.1198 84.168C85.7571 83.816 85.4638 83.3893 85.2398 82.888C85.0265 82.376 84.9198 81.7893 84.9198 81.128V80.936C84.9198 80.2853 85.0265 79.7093 85.2398 79.208C85.4638 78.696 85.7571 78.264 86.1198 77.912C86.4931 77.56 86.9198 77.2933 87.3998 77.112C87.8798 76.9307 88.3811 76.84 88.9038 76.84C89.4265 76.84 89.9278 76.9307 90.4078 77.112C90.8878 77.2933 91.3091 77.56 91.6718 77.912C92.0451 78.264 92.3385 78.696 92.5518 79.208C92.7758 79.7093 92.8878 80.2853 92.8878 80.936V81.128ZM88.9038 84.04C89.2878 84.04 89.6398 83.976 89.9598 83.848C90.2905 83.7093 90.5785 83.512 90.8238 83.256C91.0691 83 91.2611 82.696 91.3998 82.344C91.5385 81.9813 91.6078 81.576 91.6078 81.128V80.936C91.6078 80.5093 91.5385 80.12 91.3998 79.768C91.2611 79.4053 91.0691 79.096 90.8238 78.84C90.5785 78.584 90.2905 78.3867 89.9598 78.248C89.6291 78.0987 89.2771 78.024 88.9038 78.024C88.5305 78.024 88.1785 78.0987 87.8478 78.248C87.5171 78.3867 87.2291 78.584 86.9838 78.84C86.7385 79.096 86.5465 79.4053 86.4078 79.768C86.2691 80.12 86.1998 80.5093 86.1998 80.936V81.128C86.1998 81.576 86.2691 81.9813 86.4078 82.344C86.5465 82.696 86.7385 83 86.9838 83.256C87.2291 83.512 87.5118 83.7093 87.8318 83.848C88.1625 83.976 88.5198 84.04 88.9038 84.04ZM95.3247 77.064H97.8207V73.8H99.0687V77.064H102.141V78.216H99.0687V83.368C99.0687 83.688 99.2127 83.848 99.5007 83.848H101.757V85H99.0527C98.69 85 98.3914 84.8827 98.1567 84.648C97.9327 84.4133 97.8207 84.1147 97.8207 83.752V78.216H95.3247V77.064ZM132.355 83.784H132.163C132.035 84.0293 131.869 84.2427 131.667 84.424C131.475 84.6053 131.261 84.7547 131.027 84.872C130.803 84.9893 130.563 85.0747 130.307 85.128C130.051 85.192 129.805 85.224 129.571 85.224C129.037 85.224 128.541 85.1333 128.083 84.952C127.624 84.7707 127.219 84.5093 126.867 84.168C126.525 83.8267 126.253 83.4053 126.051 82.904C125.859 82.392 125.763 81.8107 125.763 81.16V80.904C125.763 80.264 125.864 79.6933 126.067 79.192C126.269 78.68 126.541 78.2533 126.883 77.912C127.224 77.56 127.624 77.2933 128.083 77.112C128.541 76.9307 129.027 76.84 129.539 76.84C130.083 76.84 130.589 76.9627 131.059 77.208C131.539 77.4427 131.907 77.8107 132.163 78.312H132.355V73.8H133.603V85H132.355V83.784ZM129.699 84.04C130.072 84.04 130.419 83.9707 130.739 83.832C131.059 83.6933 131.336 83.496 131.571 83.24C131.816 82.984 132.008 82.68 132.147 82.328C132.285 81.9653 132.355 81.5653 132.355 81.128V80.936C132.355 80.5093 132.285 80.12 132.147 79.768C132.008 79.4053 131.816 79.096 131.571 78.84C131.336 78.584 131.053 78.3867 130.723 78.248C130.403 78.0987 130.061 78.024 129.699 78.024C129.325 78.024 128.973 78.0933 128.643 78.232C128.323 78.3707 128.04 78.568 127.795 78.824C127.56 79.08 127.373 79.384 127.235 79.736C127.107 80.088 127.043 80.4773 127.043 80.904V81.16C127.043 81.608 127.107 82.008 127.235 82.36C127.373 82.712 127.56 83.016 127.795 83.272C128.04 83.5173 128.323 83.7093 128.643 83.848C128.963 83.976 129.315 84.04 129.699 84.04ZM142.168 83.656H141.976C141.72 84.1893 141.362 84.584 140.904 84.84C140.456 85.096 139.981 85.224 139.48 85.224C138.957 85.224 138.472 85.1387 138.024 84.968C137.576 84.7867 137.181 84.5253 136.84 84.184C136.509 83.832 136.248 83.4053 136.056 82.904C135.864 82.4027 135.768 81.8213 135.768 81.16V80.904C135.768 80.2533 135.864 79.6773 136.056 79.176C136.248 78.6747 136.509 78.2533 136.84 77.912C137.181 77.56 137.576 77.2933 138.024 77.112C138.472 76.9307 138.946 76.84 139.448 76.84C139.992 76.84 140.482 76.9627 140.92 77.208C141.368 77.4427 141.72 77.8107 141.976 78.312H142.168V77.064H143.416V83.368C143.416 83.688 143.56 83.848 143.848 83.848H144.248V85H143.4C143.037 85 142.738 84.8827 142.504 84.648C142.28 84.4133 142.168 84.1147 142.168 83.752V83.656ZM139.608 84.04C139.981 84.04 140.322 83.9707 140.632 83.832C140.952 83.6933 141.224 83.496 141.448 83.24C141.672 82.984 141.848 82.68 141.976 82.328C142.104 81.9653 142.168 81.5653 142.168 81.128V80.936C142.168 80.5093 142.104 80.12 141.976 79.768C141.848 79.4053 141.666 79.096 141.432 78.84C141.208 78.584 140.936 78.3867 140.616 78.248C140.306 78.0987 139.97 78.024 139.608 78.024C139.234 78.024 138.893 78.0933 138.584 78.232C138.274 78.3707 138.002 78.568 137.768 78.824C137.544 79.0693 137.368 79.3733 137.24 79.736C137.112 80.088 137.048 80.4773 137.048 80.904V81.16C137.048 82.0667 137.282 82.776 137.752 83.288C138.232 83.7893 138.85 84.04 139.608 84.04ZM154.237 85H152.989V79.304C152.989 78.9307 152.903 78.6267 152.733 78.392C152.562 78.1467 152.29 78.024 151.917 78.024C151.565 78.024 151.277 78.1573 151.053 78.424C150.839 78.68 150.733 79.08 150.733 79.624V85H149.485V79.24C149.485 78.888 149.389 78.6 149.197 78.376C149.005 78.1413 148.749 78.024 148.429 78.024C148.045 78.024 147.746 78.1627 147.533 78.44C147.33 78.7173 147.229 79.08 147.229 79.528V85H145.981V77.064H147.229V77.928H147.421C147.559 77.5547 147.762 77.2827 148.029 77.112C148.295 76.9307 148.61 76.84 148.973 76.84C149.357 76.84 149.671 76.9413 149.917 77.144C150.173 77.3467 150.349 77.608 150.445 77.928H150.637C150.999 77.2027 151.575 76.84 152.365 76.84C152.962 76.84 153.421 77.032 153.741 77.416C154.071 77.7893 154.237 78.28 154.237 78.888V85ZM162.561 83.656H162.369C162.113 84.1893 161.756 84.584 161.297 84.84C160.849 85.096 160.375 85.224 159.873 85.224C159.351 85.224 158.865 85.1387 158.417 84.968C157.969 84.7867 157.575 84.5253 157.233 84.184C156.903 83.832 156.641 83.4053 156.449 82.904C156.257 82.4027 156.161 81.8213 156.161 81.16V80.904C156.161 80.2533 156.257 79.6773 156.449 79.176C156.641 78.6747 156.903 78.2533 157.233 77.912C157.575 77.56 157.969 77.2933 158.417 77.112C158.865 76.9307 159.34 76.84 159.841 76.84C160.385 76.84 160.876 76.9627 161.313 77.208C161.761 77.4427 162.113 77.8107 162.369 78.312H162.561V77.064H163.809V83.368C163.809 83.688 163.953 83.848 164.241 83.848H164.641V85H163.793C163.431 85 163.132 84.8827 162.897 84.648C162.673 84.4133 162.561 84.1147 162.561 83.752V83.656ZM160.001 84.04C160.375 84.04 160.716 83.9707 161.025 83.832C161.345 83.6933 161.617 83.496 161.841 83.24C162.065 82.984 162.241 82.68 162.369 82.328C162.497 81.9653 162.561 81.5653 162.561 81.128V80.936C162.561 80.5093 162.497 80.12 162.369 79.768C162.241 79.4053 162.06 79.096 161.825 78.84C161.601 78.584 161.329 78.3867 161.009 78.248C160.7 78.0987 160.364 78.024 160.001 78.024C159.628 78.024 159.287 78.0933 158.977 78.232C158.668 78.3707 158.396 78.568 158.161 78.824C157.937 79.0693 157.761 79.3733 157.633 79.736C157.505 80.088 157.441 80.4773 157.441 80.904V81.16C157.441 82.0667 157.676 82.776 158.145 83.288C158.625 83.7893 159.244 84.04 160.001 84.04ZM173.03 83.784H172.838C172.582 84.264 172.23 84.6267 171.782 84.872C171.345 85.1067 170.865 85.224 170.342 85.224C169.809 85.224 169.308 85.1333 168.838 84.952C168.369 84.7707 167.953 84.5093 167.59 84.168C167.238 83.8267 166.956 83.4053 166.742 82.904C166.54 82.392 166.438 81.8107 166.438 81.16V80.904C166.438 80.264 166.545 79.6933 166.758 79.192C166.972 78.68 167.254 78.2533 167.606 77.912C167.958 77.56 168.369 77.2933 168.838 77.112C169.308 76.9307 169.798 76.84 170.31 76.84C170.886 76.84 171.388 76.968 171.814 77.224C172.252 77.4693 172.593 77.832 172.838 78.312H173.03V77.064H174.278V86.952C174.278 87.3147 174.161 87.6133 173.926 87.848C173.702 88.0827 173.409 88.2 173.046 88.2H167.878V87.048H172.598C172.886 87.048 173.03 86.888 173.03 86.568V83.784ZM170.374 84.04C170.748 84.04 171.094 83.9707 171.414 83.832C171.734 83.6933 172.012 83.496 172.246 83.24C172.492 82.984 172.684 82.68 172.822 82.328C172.961 81.9653 173.03 81.5653 173.03 81.128V80.936C173.03 80.5093 172.961 80.12 172.822 79.768C172.684 79.4053 172.492 79.096 172.246 78.84C172.012 78.584 171.729 78.3867 171.398 78.248C171.078 78.0987 170.737 78.024 170.374 78.024C170.001 78.024 169.649 78.0933 169.318 78.232C168.998 78.3707 168.716 78.568 168.47 78.824C168.236 79.08 168.049 79.384 167.91 79.736C167.782 80.088 167.718 80.4773 167.718 80.904V81.16C167.718 81.608 167.782 82.008 167.91 82.36C168.049 82.712 168.236 83.016 168.47 83.272C168.716 83.5173 168.998 83.7093 169.318 83.848C169.638 83.976 169.99 84.04 170.374 84.04ZM178.107 81.416C178.139 82.2053 178.384 82.84 178.843 83.32C179.302 83.8 179.942 84.04 180.763 84.04C181.136 84.04 181.462 83.9973 181.739 83.912C182.016 83.8267 182.251 83.7093 182.443 83.56C182.646 83.4107 182.806 83.24 182.923 83.048C183.051 82.8453 183.152 82.632 183.227 82.408L184.411 82.728C184.187 83.464 183.771 84.0667 183.163 84.536C182.566 84.9947 181.755 85.224 180.731 85.224C180.166 85.224 179.643 85.128 179.163 84.936C178.694 84.7333 178.288 84.4507 177.947 84.088C177.606 83.7253 177.339 83.2933 177.147 82.792C176.955 82.2907 176.859 81.736 176.859 81.128V80.744C176.859 80.1893 176.955 79.672 177.147 79.192C177.35 78.712 177.627 78.3013 177.979 77.96C178.331 77.608 178.742 77.336 179.211 77.144C179.691 76.9413 180.208 76.84 180.763 76.84C181.414 76.84 181.974 76.9627 182.443 77.208C182.923 77.4427 183.312 77.736 183.611 78.088C183.92 78.44 184.144 78.824 184.283 79.24C184.432 79.656 184.507 80.04 184.507 80.392V81.416H178.107ZM180.763 78.024C180.411 78.024 180.08 78.0827 179.771 78.2C179.472 78.3067 179.206 78.4613 178.971 78.664C178.747 78.8667 178.56 79.1067 178.411 79.384C178.272 79.6507 178.182 79.944 178.139 80.264H183.259C183.238 79.9227 183.152 79.6133 183.003 79.336C182.864 79.0587 182.678 78.824 182.443 78.632C182.219 78.44 181.958 78.2907 181.659 78.184C181.371 78.0773 181.072 78.024 180.763 78.024ZM40.152 112.656H39.96C39.704 113.189 39.3467 113.584 38.888 113.84C38.44 114.096 37.9653 114.224 37.464 114.224C36.9413 114.224 36.456 114.139 36.008 113.968C35.56 113.787 35.1653 113.525 34.824 113.184C34.4933 112.832 34.232 112.405 34.04 111.904C33.848 111.403 33.752 110.821 33.752 110.16V109.904C33.752 109.253 33.848 108.677 34.04 108.176C34.232 107.675 34.4933 107.253 34.824 106.912C35.1653 106.56 35.56 106.293 36.008 106.112C36.456 105.931 36.9307 105.84 37.432 105.84C37.976 105.84 38.4667 105.963 38.904 106.208C39.352 106.443 39.704 106.811 39.96 107.312H40.152V106.064H41.4V112.368C41.4 112.688 41.544 112.848 41.832 112.848H42.232V114H41.384C41.0213 114 40.7227 113.883 40.488 113.648C40.264 113.413 40.152 113.115 40.152 112.752V112.656ZM37.592 113.04C37.9653 113.04 38.3067 112.971 38.616 112.832C38.936 112.693 39.208 112.496 39.432 112.24C39.656 111.984 39.832 111.68 39.96 111.328C40.088 110.965 40.152 110.565 40.152 110.128V109.936C40.152 109.509 40.088 109.12 39.96 108.768C39.832 108.405 39.6507 108.096 39.416 107.84C39.192 107.584 38.92 107.387 38.6 107.248C38.2907 107.099 37.9547 107.024 37.592 107.024C37.2187 107.024 36.8773 107.093 36.568 107.232C36.2587 107.371 35.9867 107.568 35.752 107.824C35.528 108.069 35.352 108.373 35.224 108.736C35.096 109.088 35.032 109.477 35.032 109.904V110.16C35.032 111.067 35.2667 111.776 35.736 112.288C36.216 112.789 36.8347 113.04 37.592 113.04ZM45.8369 114H44.5889V106.064H45.8369V107.408H46.0289C46.5195 106.363 47.3729 105.84 48.5889 105.84C49.5062 105.84 50.2369 106.128 50.7809 106.704C51.3249 107.269 51.5969 108.123 51.5969 109.264V114H50.3489V109.52C50.3489 108.688 50.1622 108.064 49.7889 107.648C49.4155 107.232 48.9089 107.024 48.2689 107.024C47.5115 107.024 46.9142 107.285 46.4769 107.808C46.0502 108.32 45.8369 109.008 45.8369 109.872V114ZM60.5457 112.56H60.3537C60.0977 113.072 59.7617 113.477 59.3457 113.776C58.9297 114.075 58.4017 114.224 57.7617 114.224C57.3244 114.224 56.9191 114.149 56.5457 114C56.1831 113.861 55.8684 113.648 55.6017 113.36C55.3457 113.072 55.1431 112.715 54.9937 112.288C54.8551 111.861 54.7857 111.365 54.7857 110.8V106.064H56.0337V110.64C56.0337 111.472 56.2044 112.08 56.5457 112.464C56.8871 112.848 57.4097 113.04 58.1137 113.04C58.8711 113.04 59.4631 112.784 59.8897 112.272C60.3271 111.749 60.5457 111.056 60.5457 110.192V106.064H61.7937V115.952C61.7937 116.315 61.6764 116.613 61.4417 116.848C61.2177 117.083 60.9244 117.2 60.5617 117.2H56.0337V116.048H60.1137C60.4017 116.048 60.5457 115.888 60.5457 115.568V112.56ZM90.0662 107.152C90.0662 105.701 90.4129 104.576 91.1062 103.776C91.7996 102.976 92.7649 102.576 94.0022 102.576C95.2396 102.576 96.2049 102.976 96.8982 103.776C97.5916 104.576 97.9382 105.701 97.9382 107.152V109.648C97.9382 111.013 97.6449 112.085 97.0582 112.864C96.4822 113.632 95.6716 114.075 94.6262 114.192V114.864C94.6262 115.184 94.7702 115.344 95.0582 115.344H96.4022V116.496H94.6102C94.2476 116.496 93.9489 116.379 93.7142 116.144C93.4902 115.909 93.3782 115.611 93.3782 115.248V114.192C92.3222 114.064 91.5062 113.616 90.9302 112.848C90.3542 112.08 90.0662 111.013 90.0662 109.648V107.152ZM94.0022 112.976C94.8662 112.976 95.5116 112.683 95.9382 112.096C96.3756 111.499 96.5942 110.651 96.5942 109.552V107.248C96.5942 106.224 96.3756 105.397 95.9382 104.768C95.5116 104.139 94.8662 103.824 94.0022 103.824C93.1382 103.824 92.4876 104.139 92.0502 104.768C91.6236 105.397 91.4102 106.224 91.4102 107.248V109.552C91.4102 110.651 91.6236 111.499 92.0502 112.096C92.4876 112.683 93.1382 112.976 94.0022 112.976ZM107.703 114H106.359V110.256C106.359 109.979 106.295 109.765 106.167 109.616C106.039 109.467 105.815 109.392 105.495 109.392H102.007V114H100.663V102.8H104.663C105.239 102.8 105.74 102.885 106.167 103.056C106.594 103.216 106.946 103.435 107.223 103.712C107.511 103.989 107.724 104.315 107.863 104.688C108.012 105.051 108.087 105.435 108.087 105.84V106.32C108.087 106.736 107.97 107.152 107.735 107.568C107.511 107.984 107.159 108.304 106.679 108.528V108.72C106.999 108.773 107.25 108.901 107.431 109.104C107.612 109.307 107.703 109.595 107.703 109.968V114ZM102.007 108.144H104.503C105.26 108.144 105.82 107.984 106.183 107.664C106.556 107.333 106.743 106.853 106.743 106.224V105.936C106.743 105.371 106.556 104.917 106.183 104.576C105.82 104.224 105.26 104.048 104.503 104.048H102.007V108.144ZM143.272 114H140.968L140.008 106.64H139.816L138.856 114H136.552L135.304 106.064H136.584L137.64 113.424H137.832L138.76 106.064H141.064L141.992 113.424H142.184L143.24 106.064H144.52L143.272 114ZM147.852 114H146.604V102.8H147.852V107.504H148.044C148.29 106.992 148.631 106.587 149.068 106.288C149.516 105.989 150.06 105.84 150.7 105.84C151.564 105.84 152.263 106.128 152.796 106.704C153.34 107.269 153.612 108.123 153.612 109.264V114H152.364V109.52C152.364 108.688 152.178 108.064 151.804 107.648C151.431 107.232 150.924 107.024 150.284 107.024C149.527 107.024 148.93 107.285 148.492 107.808C148.066 108.32 147.852 109.008 147.852 109.872V114ZM159.265 103.696C159.265 103.387 159.372 103.125 159.585 102.912C159.809 102.688 160.076 102.576 160.385 102.576C160.695 102.576 160.956 102.688 161.169 102.912C161.393 103.125 161.505 103.387 161.505 103.696C161.505 104.005 161.393 104.272 161.169 104.496C160.956 104.709 160.695 104.816 160.385 104.816C160.076 104.816 159.809 104.709 159.585 104.496C159.372 104.272 159.265 104.005 159.265 103.696ZM156.993 112.848H159.777V107.216H157.281V106.064H161.025V112.848H163.617V114H156.993V112.848ZM166.998 112.848H169.878V103.952H167.094V102.8H171.126V112.848H174.006V114H166.998V112.848ZM178.107 110.416C178.139 111.205 178.384 111.84 178.843 112.32C179.302 112.8 179.942 113.04 180.763 113.04C181.136 113.04 181.462 112.997 181.739 112.912C182.016 112.827 182.251 112.709 182.443 112.56C182.646 112.411 182.806 112.24 182.923 112.048C183.051 111.845 183.152 111.632 183.227 111.408L184.411 111.728C184.187 112.464 183.771 113.067 183.163 113.536C182.566 113.995 181.755 114.224 180.731 114.224C180.166 114.224 179.643 114.128 179.163 113.936C178.694 113.733 178.288 113.451 177.947 113.088C177.606 112.725 177.339 112.293 177.147 111.792C176.955 111.291 176.859 110.736 176.859 110.128V109.744C176.859 109.189 176.955 108.672 177.147 108.192C177.35 107.712 177.627 107.301 177.979 106.96C178.331 106.608 178.742 106.336 179.211 106.144C179.691 105.941 180.208 105.84 180.763 105.84C181.414 105.84 181.974 105.963 182.443 106.208C182.923 106.443 183.312 106.736 183.611 107.088C183.92 107.44 184.144 107.824 184.283 108.24C184.432 108.656 184.507 109.04 184.507 109.392V110.416H178.107ZM180.763 107.024C180.411 107.024 180.08 107.083 179.771 107.2C179.472 107.307 179.206 107.461 178.971 107.664C178.747 107.867 178.56 108.107 178.411 108.384C178.272 108.651 178.182 108.944 178.139 109.264H183.259C183.238 108.923 183.152 108.613 183.003 108.336C182.864 108.059 182.678 107.824 182.443 107.632C182.219 107.44 181.958 107.291 181.659 107.184C181.371 107.077 181.072 107.024 180.763 107.024ZM40.152 141.656H39.96C39.704 142.189 39.3467 142.584 38.888 142.84C38.44 143.096 37.9653 143.224 37.464 143.224C36.9413 143.224 36.456 143.139 36.008 142.968C35.56 142.787 35.1653 142.525 34.824 142.184C34.4933 141.832 34.232 141.405 34.04 140.904C33.848 140.403 33.752 139.821 33.752 139.16V138.904C33.752 138.253 33.848 137.677 34.04 137.176C34.232 136.675 34.4933 136.253 34.824 135.912C35.1653 135.56 35.56 135.293 36.008 135.112C36.456 134.931 36.9307 134.84 37.432 134.84C37.976 134.84 38.4667 134.963 38.904 135.208C39.352 135.443 39.704 135.811 39.96 136.312H40.152V135.064H41.4V141.368C41.4 141.688 41.544 141.848 41.832 141.848H42.232V143H41.384C41.0213 143 40.7227 142.883 40.488 142.648C40.264 142.413 40.152 142.115 40.152 141.752V141.656ZM37.592 142.04C37.9653 142.04 38.3067 141.971 38.616 141.832C38.936 141.693 39.208 141.496 39.432 141.24C39.656 140.984 39.832 140.68 39.96 140.328C40.088 139.965 40.152 139.565 40.152 139.128V138.936C40.152 138.509 40.088 138.12 39.96 137.768C39.832 137.405 39.6507 137.096 39.416 136.84C39.192 136.584 38.92 136.387 38.6 136.248C38.2907 136.099 37.9547 136.024 37.592 136.024C37.2187 136.024 36.8773 136.093 36.568 136.232C36.2587 136.371 35.9867 136.568 35.752 136.824C35.528 137.069 35.352 137.373 35.224 137.736C35.096 138.088 35.032 138.477 35.032 138.904V139.16C35.032 140.067 35.2667 140.776 35.736 141.288C36.216 141.789 36.8347 142.04 37.592 142.04ZM44.3169 135.064H46.8129V131.8H48.0609V135.064H51.1329V136.216H48.0609V141.368C48.0609 141.688 48.2049 141.848 48.4929 141.848H50.7489V143H48.0449C47.6822 143 47.3835 142.883 47.1489 142.648C46.9249 142.413 46.8129 142.115 46.8129 141.752V136.216H44.3169V135.064ZM54.5137 135.064H57.0097V131.8H58.2577V135.064H61.3297V136.216H58.2577V141.368C58.2577 141.688 58.4017 141.848 58.6897 141.848H60.9457V143H58.2417C57.8791 143 57.5804 142.883 57.3457 142.648C57.1217 142.413 57.0097 142.115 57.0097 141.752V136.216H54.5137V135.064ZM65.8946 139.416C65.9266 140.205 66.172 140.84 66.6306 141.32C67.0893 141.8 67.7293 142.04 68.5506 142.04C68.924 142.04 69.2493 141.997 69.5266 141.912C69.804 141.827 70.0386 141.709 70.2306 141.56C70.4333 141.411 70.5933 141.24 70.7106 141.048C70.8386 140.845 70.94 140.632 71.0146 140.408L72.1986 140.728C71.9746 141.464 71.5586 142.067 70.9506 142.536C70.3533 142.995 69.5426 143.224 68.5186 143.224C67.9533 143.224 67.4306 143.128 66.9506 142.936C66.4813 142.733 66.076 142.451 65.7346 142.088C65.3933 141.725 65.1266 141.293 64.9346 140.792C64.7426 140.291 64.6466 139.736 64.6466 139.128V138.744C64.6466 138.189 64.7426 137.672 64.9346 137.192C65.1373 136.712 65.4146 136.301 65.7666 135.96C66.1186 135.608 66.5293 135.336 66.9986 135.144C67.4786 134.941 67.996 134.84 68.5506 134.84C69.2013 134.84 69.7613 134.963 70.2306 135.208C70.7106 135.443 71.1 135.736 71.3986 136.088C71.708 136.44 71.932 136.824 72.0706 137.24C72.22 137.656 72.2946 138.04 72.2946 138.392V139.416H65.8946ZM68.5506 136.024C68.1986 136.024 67.868 136.083 67.5586 136.2C67.26 136.307 66.9933 136.461 66.7586 136.664C66.5346 136.867 66.348 137.107 66.1986 137.384C66.06 137.651 65.9693 137.944 65.9266 138.264H71.0466C71.0253 137.923 70.94 137.613 70.7906 137.336C70.652 137.059 70.4653 136.824 70.2306 136.632C70.0066 136.44 69.7453 136.291 69.4466 136.184C69.1586 136.077 68.86 136.024 68.5506 136.024ZM76.4275 143H75.1795V135.064H76.4275V136.408H76.6195C77.1102 135.363 77.9635 134.84 79.1795 134.84C80.0968 134.84 80.8275 135.128 81.3715 135.704C81.9155 136.269 82.1875 137.123 82.1875 138.264V143H80.9395V138.52C80.9395 137.688 80.7528 137.064 80.3795 136.648C80.0062 136.232 79.4995 136.024 78.8595 136.024C78.1022 136.024 77.5048 136.285 77.0675 136.808C76.6408 137.32 76.4275 138.008 76.4275 138.872V143ZM91.5204 141.784H91.3284C91.2004 142.029 91.035 142.243 90.8324 142.424C90.6404 142.605 90.427 142.755 90.1924 142.872C89.9684 142.989 89.7284 143.075 89.4724 143.128C89.2164 143.192 88.971 143.224 88.7364 143.224C88.203 143.224 87.707 143.133 87.2484 142.952C86.7897 142.771 86.3844 142.509 86.0324 142.168C85.691 141.827 85.419 141.405 85.2164 140.904C85.0244 140.392 84.9284 139.811 84.9284 139.16V138.904C84.9284 138.264 85.0297 137.693 85.2324 137.192C85.435 136.68 85.707 136.253 86.0484 135.912C86.3897 135.56 86.7897 135.293 87.2484 135.112C87.707 134.931 88.1924 134.84 88.7044 134.84C89.2484 134.84 89.755 134.963 90.2244 135.208C90.7044 135.443 91.0724 135.811 91.3284 136.312H91.5204V131.8H92.7684V143H91.5204V141.784ZM88.8644 142.04C89.2377 142.04 89.5844 141.971 89.9044 141.832C90.2244 141.693 90.5017 141.496 90.7364 141.24C90.9817 140.984 91.1737 140.68 91.3124 140.328C91.451 139.965 91.5204 139.565 91.5204 139.128V138.936C91.5204 138.509 91.451 138.12 91.3124 137.768C91.1737 137.405 90.9817 137.096 90.7364 136.84C90.5017 136.584 90.219 136.387 89.8884 136.248C89.5684 136.099 89.227 136.024 88.8644 136.024C88.491 136.024 88.139 136.093 87.8084 136.232C87.4884 136.371 87.2057 136.568 86.9604 136.824C86.7257 137.08 86.539 137.384 86.4004 137.736C86.2724 138.088 86.2084 138.477 86.2084 138.904V139.16C86.2084 139.608 86.2724 140.008 86.4004 140.36C86.539 140.712 86.7257 141.016 86.9604 141.272C87.2057 141.517 87.4884 141.709 87.8084 141.848C88.1284 141.976 88.4804 142.04 88.8644 142.04ZM98.0373 132.696C98.0373 132.387 98.1439 132.125 98.3573 131.912C98.5813 131.688 98.8479 131.576 99.1573 131.576C99.4666 131.576 99.7279 131.688 99.9413 131.912C100.165 132.125 100.277 132.387 100.277 132.696C100.277 133.005 100.165 133.272 99.9413 133.496C99.7279 133.709 99.4666 133.816 99.1573 133.816C98.8479 133.816 98.5813 133.709 98.3573 133.496C98.1439 133.272 98.0373 133.005 98.0373 132.696ZM95.7653 141.848H98.5493V136.216H96.0533V135.064H99.7973V141.848H102.389V143H95.7653V141.848ZM107.018 143H105.77V135.064H107.018V136.408H107.21C107.701 135.363 108.554 134.84 109.77 134.84C110.687 134.84 111.418 135.128 111.962 135.704C112.506 136.269 112.778 137.123 112.778 138.264V143H111.53V138.52C111.53 137.688 111.343 137.064 110.97 136.648C110.597 136.232 110.09 136.024 109.45 136.024C108.693 136.024 108.095 136.285 107.658 136.808C107.231 137.32 107.018 138.008 107.018 138.872V143ZM121.999 141.784H121.807C121.551 142.264 121.199 142.627 120.751 142.872C120.314 143.107 119.834 143.224 119.311 143.224C118.778 143.224 118.276 143.133 117.807 142.952C117.338 142.771 116.922 142.509 116.559 142.168C116.207 141.827 115.924 141.405 115.711 140.904C115.508 140.392 115.407 139.811 115.407 139.16V138.904C115.407 138.264 115.514 137.693 115.727 137.192C115.94 136.68 116.223 136.253 116.575 135.912C116.927 135.56 117.338 135.293 117.807 135.112C118.276 134.931 118.767 134.84 119.279 134.84C119.855 134.84 120.356 134.968 120.783 135.224C121.22 135.469 121.562 135.832 121.807 136.312H121.999V135.064H123.247V144.952C123.247 145.315 123.13 145.613 122.895 145.848C122.671 146.083 122.378 146.2 122.015 146.2H116.847V145.048H121.567C121.855 145.048 121.999 144.888 121.999 144.568V141.784ZM119.343 142.04C119.716 142.04 120.063 141.971 120.383 141.832C120.703 141.693 120.98 141.496 121.215 141.24C121.46 140.984 121.652 140.68 121.791 140.328C121.93 139.965 121.999 139.565 121.999 139.128V138.936C121.999 138.509 121.93 138.12 121.791 137.768C121.652 137.405 121.46 137.096 121.215 136.84C120.98 136.584 120.698 136.387 120.367 136.248C120.047 136.099 119.706 136.024 119.343 136.024C118.97 136.024 118.618 136.093 118.287 136.232C117.967 136.371 117.684 136.568 117.439 136.824C117.204 137.08 117.018 137.384 116.879 137.736C116.751 138.088 116.687 138.477 116.687 138.904V139.16C116.687 139.608 116.751 140.008 116.879 140.36C117.018 140.712 117.204 141.016 117.439 141.272C117.684 141.517 117.967 141.709 118.287 141.848C118.607 141.976 118.959 142.04 119.343 142.04ZM35.304 168.416C35.336 169.205 35.5813 169.84 36.04 170.32C36.4987 170.8 37.1387 171.04 37.96 171.04C38.3333 171.04 38.6587 170.997 38.936 170.912C39.2133 170.827 39.448 170.709 39.64 170.56C39.8427 170.411 40.0027 170.24 40.12 170.048C40.248 169.845 40.3493 169.632 40.424 169.408L41.608 169.728C41.384 170.464 40.968 171.067 40.36 171.536C39.7627 171.995 38.952 172.224 37.928 172.224C37.3627 172.224 36.84 172.128 36.36 171.936C35.8907 171.733 35.4853 171.451 35.144 171.088C34.8027 170.725 34.536 170.293 34.344 169.792C34.152 169.291 34.056 168.736 34.056 168.128V167.744C34.056 167.189 34.152 166.672 34.344 166.192C34.5467 165.712 34.824 165.301 35.176 164.96C35.528 164.608 35.9387 164.336 36.408 164.144C36.888 163.941 37.4053 163.84 37.96 163.84C38.6107 163.84 39.1707 163.963 39.64 164.208C40.12 164.443 40.5093 164.736 40.808 165.088C41.1173 165.44 41.3413 165.824 41.48 166.24C41.6293 166.656 41.704 167.04 41.704 167.392V168.416H35.304ZM37.96 165.024C37.608 165.024 37.2773 165.083 36.968 165.2C36.6693 165.307 36.4027 165.461 36.168 165.664C35.944 165.867 35.7573 166.107 35.608 166.384C35.4693 166.651 35.3787 166.944 35.336 167.264H40.456C40.4347 166.923 40.3493 166.613 40.2 166.336C40.0613 166.059 39.8747 165.824 39.64 165.632C39.416 165.44 39.1547 165.291 38.856 165.184C38.568 165.077 38.2693 165.024 37.96 165.024ZM49.3089 172H46.8449L44.0769 164.064H45.5489L47.9809 171.424H48.1729L50.6049 164.064H52.0769L49.3089 172ZM55.6977 168.416C55.7297 169.205 55.9751 169.84 56.4337 170.32C56.8924 170.8 57.5324 171.04 58.3537 171.04C58.7271 171.04 59.0524 170.997 59.3297 170.912C59.6071 170.827 59.8417 170.709 60.0337 170.56C60.2364 170.411 60.3964 170.24 60.5137 170.048C60.6417 169.845 60.7431 169.632 60.8177 169.408L62.0017 169.728C61.7777 170.464 61.3617 171.067 60.7537 171.536C60.1564 171.995 59.3457 172.224 58.3217 172.224C57.7564 172.224 57.2337 172.128 56.7537 171.936C56.2844 171.733 55.8791 171.451 55.5377 171.088C55.1964 170.725 54.9297 170.293 54.7377 169.792C54.5457 169.291 54.4497 168.736 54.4497 168.128V167.744C54.4497 167.189 54.5457 166.672 54.7377 166.192C54.9404 165.712 55.2177 165.301 55.5697 164.96C55.9217 164.608 56.3324 164.336 56.8017 164.144C57.2817 163.941 57.7991 163.84 58.3537 163.84C59.0044 163.84 59.5644 163.963 60.0337 164.208C60.5137 164.443 60.9031 164.736 61.2017 165.088C61.5111 165.44 61.7351 165.824 61.8737 166.24C62.0231 166.656 62.0977 167.04 62.0977 167.392V168.416H55.6977ZM58.3537 165.024C58.0017 165.024 57.6711 165.083 57.3617 165.2C57.0631 165.307 56.7964 165.461 56.5617 165.664C56.3377 165.867 56.1511 166.107 56.0017 166.384C55.8631 166.651 55.7724 166.944 55.7297 167.264H60.8497C60.8284 166.923 60.7431 166.613 60.5937 166.336C60.4551 166.059 60.2684 165.824 60.0337 165.632C59.8097 165.44 59.5484 165.291 59.2497 165.184C58.9617 165.077 58.6631 165.024 58.3537 165.024ZM66.2306 172H64.9826V164.064H66.2306V165.408H66.4226C66.9133 164.363 67.7666 163.84 68.9826 163.84C69.9 163.84 70.6306 164.128 71.1746 164.704C71.7186 165.269 71.9906 166.123 71.9906 167.264V172H70.7426V167.52C70.7426 166.688 70.556 166.064 70.1826 165.648C69.8093 165.232 69.3026 165.024 68.6626 165.024C67.9053 165.024 67.308 165.285 66.8706 165.808C66.444 166.32 66.2306 167.008 66.2306 167.872V172ZM74.9075 164.064H77.4035V160.8H78.6515V164.064H81.7235V165.216H78.6515V170.368C78.6515 170.688 78.7955 170.848 79.0835 170.848H81.3395V172H78.6355C78.2728 172 77.9742 171.883 77.7395 171.648C77.5155 171.413 77.4035 171.115 77.4035 170.752V165.216H74.9075V164.064ZM87.0244 166.112C87.0244 166.496 87.1844 166.789 87.5044 166.992C87.835 167.195 88.4324 167.328 89.2964 167.392C90.2244 167.467 90.9284 167.691 91.4084 168.064C91.899 168.427 92.1444 168.96 92.1444 169.664V169.76C92.1444 170.144 92.0644 170.491 91.9044 170.8C91.755 171.099 91.5417 171.355 91.2644 171.568C90.9977 171.781 90.667 171.941 90.2724 172.048C89.8884 172.165 89.467 172.224 89.0084 172.224C88.3897 172.224 87.8564 172.144 87.4084 171.984C86.971 171.813 86.603 171.595 86.3044 171.328C86.0164 171.051 85.7977 170.741 85.6484 170.4C85.499 170.048 85.4137 169.696 85.3924 169.344L86.5764 169.056C86.6297 169.664 86.8644 170.155 87.2804 170.528C87.6964 170.891 88.251 171.072 88.9444 171.072C89.531 171.072 90.0004 170.96 90.3524 170.736C90.715 170.501 90.8964 170.176 90.8964 169.76C90.8964 169.312 90.7204 168.992 90.3684 168.8C90.0164 168.608 89.4457 168.485 88.6564 168.432C87.739 168.368 87.035 168.155 86.5444 167.792C86.0537 167.429 85.8084 166.901 85.8084 166.208V166.112C85.8084 165.739 85.8884 165.413 86.0484 165.136C86.2084 164.848 86.4217 164.608 86.6884 164.416C86.9657 164.224 87.275 164.08 87.6164 163.984C87.9577 163.888 88.315 163.84 88.6884 163.84C89.211 163.84 89.6697 163.915 90.0644 164.064C90.459 164.203 90.7897 164.389 91.0564 164.624C91.323 164.848 91.5257 165.109 91.6644 165.408C91.8137 165.707 91.9097 166.005 91.9524 166.304L90.7684 166.592C90.715 166.08 90.507 165.68 90.1444 165.392C89.7924 165.104 89.3284 164.96 88.7524 164.96C88.5284 164.96 88.3097 164.987 88.0964 165.04C87.8937 165.083 87.7124 165.152 87.5524 165.248C87.3924 165.344 87.2644 165.467 87.1684 165.616C87.0724 165.755 87.0244 165.92 87.0244 166.112ZM97.9573 171.104C97.9573 170.795 98.0639 170.533 98.2773 170.32C98.5013 170.096 98.7679 169.984 99.0773 169.984C99.3866 169.984 99.6479 170.096 99.8613 170.32C100.085 170.533 100.197 170.795 100.197 171.104C100.197 171.413 100.085 171.68 99.8613 171.904C99.6479 172.117 99.3866 172.224 99.0773 172.224C98.7679 172.224 98.5013 172.117 98.2773 171.904C98.0639 171.68 97.9573 171.413 97.9573 171.104Z" fill="white" fill-opacity="0.95"/>
<path d="M44.2389 42H41.5989V37.8C41.5989 37.48 41.5122 37.22 41.3389 37.02C41.1789 36.82 40.9056 36.72 40.5189 36.72H37.4789V42H34.8389V28H40.1989C40.9189 28 41.5522 28.1 42.0989 28.3C42.6456 28.5 43.0989 28.78 43.4589 29.14C43.8322 29.4867 44.1122 29.8933 44.2989 30.36C44.4989 30.8267 44.5989 31.3267 44.5989 31.86V32.34C44.5989 32.9133 44.4456 33.4533 44.1389 33.96C43.8322 34.4533 43.3589 34.8333 42.7189 35.1V35.46C43.1856 35.5133 43.5522 35.6933 43.8189 36C44.0989 36.3067 44.2389 36.6933 44.2389 37.16V42ZM37.4789 34.2H39.9989C40.6389 34.2 41.1256 34.0533 41.4589 33.76C41.7922 33.4533 41.9589 33.0267 41.9589 32.48V32.24C41.9589 31.7733 41.7922 31.3733 41.4589 31.04C41.1256 30.6933 40.6389 30.52 39.9989 30.52H37.4789V34.2ZM54.505 32.08H57.025V42H54.505V40.56H54.145C53.705 41.7067 52.7583 42.28 51.305 42.28C50.8117 42.28 50.3517 42.2 49.925 42.04C49.4983 41.88 49.125 41.6333 48.805 41.3C48.485 40.9667 48.2317 40.5533 48.045 40.06C47.8717 39.5533 47.785 38.96 47.785 38.28V32.08H50.305V37.76C50.305 38.4667 50.4717 39.02 50.805 39.42C51.1383 39.8067 51.6383 40 52.305 40C53.065 40 53.6183 39.76 53.965 39.28C54.325 38.7867 54.505 38.12 54.505 37.28V32.08ZM60.5711 39.6H64.0511V30.4H60.6911V28H66.5711V39.6H69.8111V42H60.5711V39.6ZM75.6972 37.86C75.7105 38.1533 75.7772 38.4267 75.8972 38.68C76.0305 38.92 76.2039 39.1333 76.4172 39.32C76.6439 39.4933 76.8972 39.6333 77.1772 39.74C77.4705 39.8333 77.7772 39.88 78.0972 39.88C78.7239 39.88 79.2039 39.7733 79.5372 39.56C79.8705 39.3333 80.1105 39.0667 80.2572 38.76L82.4172 39.96C82.2972 40.2133 82.1305 40.48 81.9172 40.76C81.7039 41.0267 81.4239 41.2733 81.0772 41.5C80.7439 41.7267 80.3305 41.9133 79.8372 42.06C79.3572 42.2067 78.7905 42.28 78.1372 42.28C77.3905 42.28 76.7105 42.16 76.0972 41.92C75.4839 41.68 74.9505 41.3333 74.4972 40.88C74.0572 40.4267 73.7105 39.8733 73.4572 39.22C73.2172 38.5667 73.0972 37.8267 73.0972 37V36.88C73.0972 36.12 73.2239 35.4267 73.4772 34.8C73.7439 34.1733 74.1039 33.64 74.5572 33.2C75.0105 32.76 75.5372 32.42 76.1372 32.18C76.7505 31.9267 77.4039 31.8 78.0972 31.8C78.9505 31.8 79.6839 31.9533 80.2972 32.26C80.9105 32.5533 81.4172 32.9333 81.8172 33.4C82.2172 33.8533 82.5105 34.36 82.6972 34.92C82.8839 35.4667 82.9772 36 82.9772 36.52V37.86H75.6972ZM78.0772 34.08C77.4372 34.08 76.9172 34.2467 76.5172 34.58C76.1172 34.9 75.8572 35.2733 75.7372 35.7H80.4172C80.3372 35.2333 80.0839 34.8467 79.6572 34.54C79.2439 34.2333 78.7172 34.08 78.0772 34.08ZM87.7633 35.36H94.0033V37.64H87.7633V35.36ZM98.9294 35.76V28H108.289V30.52H101.569V34.32H101.929C102.116 33.8 102.463 33.3533 102.969 32.98C103.489 32.5933 104.183 32.4 105.049 32.4C105.703 32.4 106.289 32.5133 106.809 32.74C107.329 32.9667 107.769 33.28 108.129 33.68C108.489 34.08 108.763 34.56 108.949 35.12C109.149 35.68 109.249 36.2933 109.249 36.96V37.08C109.249 37.7867 109.129 38.4533 108.889 39.08C108.663 39.7067 108.323 40.26 107.869 40.74C107.429 41.2067 106.883 41.58 106.229 41.86C105.576 42.14 104.823 42.28 103.969 42.28C103.116 42.28 102.363 42.1667 101.709 41.94C101.056 41.7 100.503 41.3733 100.049 40.96C99.6094 40.5333 99.2694 40.0333 99.0294 39.46C98.8027 38.8733 98.6894 38.24 98.6894 37.56V37.08H101.329V37.32C101.329 38.0267 101.543 38.6133 101.969 39.08C102.409 39.5333 103.049 39.76 103.889 39.76C104.729 39.76 105.389 39.5333 105.869 39.08C106.363 38.6267 106.609 38 106.609 37.2C106.609 36.44 106.429 35.8733 106.069 35.5C105.709 35.1133 105.236 34.92 104.649 34.92C104.263 34.92 103.949 35.0067 103.709 35.18C103.469 35.34 103.316 35.5333 103.249 35.76H98.9294Z" fill="white"/>
<defs>
<filter id="filter0_b_553_225" x="-30" y="-30" width="271" height="265" filterUnits="userSpaceOnUse" color-interpolation-filters="sRGB">
<feFlood flood-opacity="0" result="BackgroundImageFix"/>
<feGaussianBlur in="BackgroundImageFix" stdDeviation="15"/>
<feComposite in2="SourceAlpha" operator="in" result="effect1_backgroundBlur_553_225"/>
<feBlend mode="normal" in="SourceGraphic" in2="effect1_backgroundBlur_553_225" result="shape"/>
</filter>
</defs>
</svg>
