<svg width="344" height="205" viewBox="0 0 344 205" fill="none" xmlns="http://www.w3.org/2000/svg">
<g filter="url(#filter0_b_553_237)">
<rect width="344" height="205" rx="11" fill="white" fill-opacity="0.05"/>
</g>
<path d="M34.296 86.216H29.496L28.68 89H27.24L30.632 77.8H33.16L36.552 89H35.112L34.296 86.216ZM31.8 78.376L29.864 84.968H33.928L31.992 78.376H31.8ZM38.5089 81.064H40.9569V79.048C40.9569 78.6853 41.0689 78.3867 41.2929 78.152C41.5275 77.9173 41.8262 77.8 42.1889 77.8H45.3249V78.952H42.6369C42.3489 78.952 42.2049 79.112 42.2049 79.432V81.064H45.5169V82.216H42.2049V89H40.9569V82.216H38.5089V81.064ZM48.5137 81.064H51.0097V77.8H52.2577V81.064H55.3297V82.216H52.2577V87.368C52.2577 87.688 52.4017 87.848 52.6897 87.848H54.9457V89H52.2417C51.8791 89 51.5804 88.8827 51.3457 88.648C51.1217 88.4133 51.0097 88.1147 51.0097 87.752V82.216H48.5137V81.064ZM59.8946 85.416C59.9266 86.2053 60.172 86.84 60.6306 87.32C61.0893 87.8 61.7293 88.04 62.5506 88.04C62.924 88.04 63.2493 87.9973 63.5266 87.912C63.804 87.8267 64.0386 87.7093 64.2306 87.56C64.4333 87.4107 64.5933 87.24 64.7106 87.048C64.8386 86.8453 64.94 86.632 65.0146 86.408L66.1986 86.728C65.9746 87.464 65.5586 88.0667 64.9506 88.536C64.3533 88.9947 63.5426 89.224 62.5186 89.224C61.9533 89.224 61.4306 89.128 60.9506 88.936C60.4813 88.7333 60.076 88.4507 59.7346 88.088C59.3933 87.7253 59.1266 87.2933 58.9346 86.792C58.7426 86.2907 58.6466 85.736 58.6466 85.128V84.744C58.6466 84.1893 58.7426 83.672 58.9346 83.192C59.1373 82.712 59.4146 82.3013 59.7666 81.96C60.1186 81.608 60.5293 81.336 60.9986 81.144C61.4786 80.9413 61.996 80.84 62.5506 80.84C63.2013 80.84 63.7613 80.9627 64.2306 81.208C64.7106 81.4427 65.1 81.736 65.3986 82.088C65.708 82.44 65.932 82.824 66.0706 83.24C66.22 83.656 66.2946 84.04 66.2946 84.392V85.416H59.8946ZM62.5506 82.024C62.1986 82.024 61.868 82.0827 61.5586 82.2C61.26 82.3067 60.9933 82.4613 60.7586 82.664C60.5346 82.8667 60.348 83.1067 60.1986 83.384C60.06 83.6507 59.9693 83.944 59.9266 84.264H65.0466C65.0253 83.9227 64.94 83.6133 64.7906 83.336C64.652 83.0587 64.4653 82.824 64.2306 82.632C64.0066 82.44 63.7453 82.2907 63.4466 82.184C63.1586 82.0773 62.86 82.024 62.5506 82.024ZM68.7315 81.064H71.6115V82.12H71.8035C72.0062 81.6827 72.2942 81.3627 72.6675 81.16C73.0408 80.9467 73.4675 80.84 73.9475 80.84C74.7475 80.84 75.3928 81.1013 75.8835 81.624C76.3742 82.1467 76.6355 82.9093 76.6675 83.912L75.3555 84.104C75.3555 83.368 75.1795 82.84 74.8275 82.52C74.4755 82.1893 74.0435 82.024 73.5315 82.024C73.2008 82.024 72.9128 82.088 72.6675 82.216C72.4328 82.344 72.2355 82.52 72.0755 82.744C71.9155 82.968 71.7982 83.2293 71.7235 83.528C71.6488 83.8267 71.6115 84.1467 71.6115 84.488V87.848H73.6275V89H68.5395V87.848H70.3635V82.216H68.7315V81.064ZM90.3987 81.064H92.8947V77.8H94.1427V81.064H97.2147V82.216H94.1427V87.368C94.1427 87.688 94.2867 87.848 94.5747 87.848H96.8307V89H94.1267C93.7641 89 93.4654 88.8827 93.2307 88.648C93.0067 88.4133 92.8947 88.1147 92.8947 87.752V82.216H90.3987V81.064ZM102.116 89H100.868V77.8H102.116V82.504H102.308C102.553 81.992 102.894 81.5867 103.332 81.288C103.78 80.9893 104.324 80.84 104.964 80.84C105.828 80.84 106.526 81.128 107.06 81.704C107.604 82.2693 107.876 83.1227 107.876 84.264V89H106.628V84.52C106.628 83.688 106.441 83.064 106.068 82.648C105.694 82.232 105.188 82.024 104.548 82.024C103.79 82.024 103.193 82.2853 102.756 82.808C102.329 83.32 102.116 84.008 102.116 84.872V89ZM111.976 85.416C112.008 86.2053 112.254 86.84 112.712 87.32C113.171 87.8 113.811 88.04 114.632 88.04C115.006 88.04 115.331 87.9973 115.608 87.912C115.886 87.8267 116.12 87.7093 116.312 87.56C116.515 87.4107 116.675 87.24 116.792 87.048C116.92 86.8453 117.022 86.632 117.096 86.408L118.28 86.728C118.056 87.464 117.64 88.0667 117.032 88.536C116.435 88.9947 115.624 89.224 114.6 89.224C114.035 89.224 113.512 89.128 113.032 88.936C112.563 88.7333 112.158 88.4507 111.816 88.088C111.475 87.7253 111.208 87.2933 111.016 86.792C110.824 86.2907 110.728 85.736 110.728 85.128V84.744C110.728 84.1893 110.824 83.672 111.016 83.192C111.219 82.712 111.496 82.3013 111.848 81.96C112.2 81.608 112.611 81.336 113.08 81.144C113.56 80.9413 114.078 80.84 114.632 80.84C115.283 80.84 115.843 80.9627 116.312 81.208C116.792 81.4427 117.182 81.736 117.48 82.088C117.79 82.44 118.014 82.824 118.152 83.24C118.302 83.656 118.376 84.04 118.376 84.392V85.416H111.976ZM114.632 82.024C114.28 82.024 113.95 82.0827 113.64 82.2C113.342 82.3067 113.075 82.4613 112.84 82.664C112.616 82.8667 112.43 83.1067 112.28 83.384C112.142 83.6507 112.051 83.944 112.008 84.264H117.128C117.107 83.9227 117.022 83.6133 116.872 83.336C116.734 83.0587 116.547 82.824 116.312 82.632C116.088 82.44 115.827 82.2907 115.528 82.184C115.24 82.0773 114.942 82.024 114.632 82.024ZM132.556 87.848H135.436V78.952H132.652V77.8H136.684V87.848H139.564V89H132.556V87.848ZM148.513 87.656H148.321C148.065 88.1893 147.707 88.584 147.249 88.84C146.801 89.096 146.326 89.224 145.825 89.224C145.302 89.224 144.817 89.1387 144.369 88.968C143.921 88.7867 143.526 88.5253 143.185 88.184C142.854 87.832 142.593 87.4053 142.401 86.904C142.209 86.4027 142.113 85.8213 142.113 85.16V84.904C142.113 84.2533 142.209 83.6773 142.401 83.176C142.593 82.6747 142.854 82.2533 143.185 81.912C143.526 81.56 143.921 81.2933 144.369 81.112C144.817 80.9307 145.291 80.84 145.793 80.84C146.337 80.84 146.827 80.9627 147.265 81.208C147.713 81.4427 148.065 81.8107 148.321 82.312H148.513V81.064H149.761V87.368C149.761 87.688 149.905 87.848 150.193 87.848H150.593V89H149.745C149.382 89 149.083 88.8827 148.849 88.648C148.625 88.4133 148.513 88.1147 148.513 87.752V87.656ZM145.953 88.04C146.326 88.04 146.667 87.9707 146.977 87.832C147.297 87.6933 147.569 87.496 147.793 87.24C148.017 86.984 148.193 86.68 148.321 86.328C148.449 85.9653 148.513 85.5653 148.513 85.128V84.936C148.513 84.5093 148.449 84.12 148.321 83.768C148.193 83.4053 148.011 83.096 147.777 82.84C147.553 82.584 147.281 82.3867 146.961 82.248C146.651 82.0987 146.315 82.024 145.953 82.024C145.579 82.024 145.238 82.0933 144.929 82.232C144.619 82.3707 144.347 82.568 144.113 82.824C143.889 83.0693 143.713 83.3733 143.585 83.736C143.457 84.088 143.393 84.4773 143.393 84.904V85.16C143.393 86.0667 143.627 86.776 144.097 87.288C144.577 87.7893 145.195 88.04 145.953 88.04ZM154.597 83.112C154.597 83.496 154.757 83.7893 155.077 83.992C155.408 84.1947 156.005 84.328 156.869 84.392C157.797 84.4667 158.501 84.6907 158.981 85.064C159.472 85.4267 159.717 85.96 159.717 86.664V86.76C159.717 87.144 159.637 87.4907 159.477 87.8C159.328 88.0987 159.115 88.3547 158.837 88.568C158.571 88.7813 158.24 88.9413 157.845 89.048C157.461 89.1653 157.04 89.224 156.581 89.224C155.963 89.224 155.429 89.144 154.981 88.984C154.544 88.8133 154.176 88.5947 153.877 88.328C153.589 88.0507 153.371 87.7413 153.221 87.4C153.072 87.048 152.987 86.696 152.965 86.344L154.149 86.056C154.203 86.664 154.437 87.1547 154.853 87.528C155.269 87.8907 155.824 88.072 156.517 88.072C157.104 88.072 157.573 87.96 157.925 87.736C158.288 87.5013 158.469 87.176 158.469 86.76C158.469 86.312 158.293 85.992 157.941 85.8C157.589 85.608 157.019 85.4853 156.229 85.432C155.312 85.368 154.608 85.1547 154.117 84.792C153.627 84.4293 153.381 83.9013 153.381 83.208V83.112C153.381 82.7387 153.461 82.4133 153.621 82.136C153.781 81.848 153.995 81.608 154.261 81.416C154.539 81.224 154.848 81.08 155.189 80.984C155.531 80.888 155.888 80.84 156.261 80.84C156.784 80.84 157.243 80.9147 157.637 81.064C158.032 81.2027 158.363 81.3893 158.629 81.624C158.896 81.848 159.099 82.1093 159.237 82.408C159.387 82.7067 159.483 83.0053 159.525 83.304L158.341 83.592C158.288 83.08 158.08 82.68 157.717 82.392C157.365 82.104 156.901 81.96 156.325 81.96C156.101 81.96 155.883 81.9867 155.669 82.04C155.467 82.0827 155.285 82.152 155.125 82.248C154.965 82.344 154.837 82.4667 154.741 82.616C154.645 82.7547 154.597 82.92 154.597 83.112ZM162.874 81.064H165.37V77.8H166.618V81.064H169.69V82.216H166.618V87.368C166.618 87.688 166.762 87.848 167.05 87.848H169.306V89H166.602C166.24 89 165.941 88.8827 165.706 88.648C165.482 88.4133 165.37 88.1147 165.37 87.752V82.216H162.874V81.064ZM192.062 86.184C191.976 86.6213 191.827 87.0267 191.614 87.4C191.411 87.7733 191.15 88.0987 190.83 88.376C190.51 88.6427 190.136 88.8507 189.71 89C189.283 89.1493 188.808 89.224 188.286 89.224C187.731 89.224 187.203 89.1333 186.702 88.952C186.211 88.7707 185.779 88.5093 185.406 88.168C185.032 87.816 184.734 87.3893 184.51 86.888C184.296 86.3867 184.19 85.8107 184.19 85.16V84.968C184.19 84.328 184.296 83.752 184.51 83.24C184.734 82.728 185.032 82.296 185.406 81.944C185.779 81.592 186.211 81.32 186.702 81.128C187.203 80.936 187.731 80.84 188.286 80.84C188.787 80.84 189.251 80.9147 189.678 81.064C190.104 81.2133 190.478 81.4267 190.798 81.704C191.128 81.9707 191.395 82.2907 191.598 82.664C191.811 83.0373 191.955 83.4427 192.03 83.88L190.782 84.168C190.75 83.8907 190.67 83.624 190.542 83.368C190.424 83.1013 190.259 82.872 190.046 82.68C189.843 82.4773 189.592 82.3173 189.294 82.2C188.995 82.0827 188.648 82.024 188.254 82.024C187.87 82.024 187.507 82.0987 187.166 82.248C186.835 82.3867 186.542 82.5893 186.286 82.856C186.03 83.112 185.827 83.4213 185.678 83.784C185.539 84.1467 185.47 84.5413 185.47 84.968V85.16C185.47 85.608 185.539 86.0133 185.678 86.376C185.827 86.728 186.03 87.0267 186.286 87.272C186.542 87.5173 186.84 87.7093 187.182 87.848C187.523 87.976 187.891 88.04 188.286 88.04C188.68 88.04 189.022 87.9813 189.31 87.864C189.608 87.736 189.859 87.576 190.062 87.384C190.275 87.1813 190.44 86.952 190.558 86.696C190.686 86.44 190.771 86.1733 190.814 85.896L192.062 86.184ZM194.834 87.848H197.714V78.952H194.93V77.8H198.962V87.848H201.842V89H194.834V87.848ZM210.695 81.064H211.943V89H210.695V87.56H210.503C210.247 88.072 209.911 88.4773 209.495 88.776C209.079 89.0747 208.551 89.224 207.911 89.224C207.474 89.224 207.069 89.1493 206.695 89C206.333 88.8613 206.018 88.648 205.751 88.36C205.495 88.072 205.293 87.7147 205.143 87.288C205.005 86.8613 204.935 86.3653 204.935 85.8V81.064H206.183V85.64C206.183 86.472 206.354 87.08 206.695 87.464C207.037 87.848 207.559 88.04 208.263 88.04C209.021 88.04 209.613 87.784 210.039 87.272C210.477 86.7493 210.695 86.056 210.695 85.192V81.064ZM216.14 85.416C216.172 86.2053 216.418 86.84 216.876 87.32C217.335 87.8 217.975 88.04 218.796 88.04C219.17 88.04 219.495 87.9973 219.772 87.912C220.05 87.8267 220.284 87.7093 220.476 87.56C220.679 87.4107 220.839 87.24 220.956 87.048C221.084 86.8453 221.186 86.632 221.26 86.408L222.444 86.728C222.22 87.464 221.804 88.0667 221.196 88.536C220.599 88.9947 219.788 89.224 218.764 89.224C218.199 89.224 217.676 89.128 217.196 88.936C216.727 88.7333 216.322 88.4507 215.98 88.088C215.639 87.7253 215.372 87.2933 215.18 86.792C214.988 86.2907 214.892 85.736 214.892 85.128V84.744C214.892 84.1893 214.988 83.672 215.18 83.192C215.383 82.712 215.66 82.3013 216.012 81.96C216.364 81.608 216.775 81.336 217.244 81.144C217.724 80.9413 218.242 80.84 218.796 80.84C219.447 80.84 220.007 80.9627 220.476 81.208C220.956 81.4427 221.346 81.736 221.644 82.088C221.954 82.44 222.178 82.824 222.316 83.24C222.466 83.656 222.54 84.04 222.54 84.392V85.416H216.14ZM218.796 82.024C218.444 82.024 218.114 82.0827 217.804 82.2C217.506 82.3067 217.239 82.4613 217.004 82.664C216.78 82.8667 216.594 83.1067 216.444 83.384C216.306 83.6507 216.215 83.944 216.172 84.264H221.292C221.271 83.9227 221.186 83.6133 221.036 83.336C220.898 83.0587 220.711 82.824 220.476 82.632C220.252 82.44 219.991 82.2907 219.692 82.184C219.404 82.0773 219.106 82.024 218.796 82.024ZM237.967 89H236.719V77.8H237.967V82.504H238.159C238.405 81.992 238.746 81.5867 239.183 81.288C239.631 80.9893 240.175 80.84 240.815 80.84C241.679 80.84 242.378 81.128 242.911 81.704C243.455 82.2693 243.727 83.1227 243.727 84.264V89H242.479V84.52C242.479 83.688 242.293 83.064 241.919 82.648C241.546 82.232 241.039 82.024 240.399 82.024C239.642 82.024 239.045 82.2853 238.607 82.808C238.181 83.32 237.967 84.008 237.967 84.872V89ZM252.676 87.656H252.484C252.228 88.1893 251.871 88.584 251.412 88.84C250.964 89.096 250.49 89.224 249.988 89.224C249.466 89.224 248.98 89.1387 248.532 88.968C248.084 88.7867 247.69 88.5253 247.348 88.184C247.018 87.832 246.756 87.4053 246.564 86.904C246.372 86.4027 246.276 85.8213 246.276 85.16V84.904C246.276 84.2533 246.372 83.6773 246.564 83.176C246.756 82.6747 247.018 82.2533 247.348 81.912C247.69 81.56 248.084 81.2933 248.532 81.112C248.98 80.9307 249.455 80.84 249.956 80.84C250.5 80.84 250.991 80.9627 251.428 81.208C251.876 81.4427 252.228 81.8107 252.484 82.312H252.676V81.064H253.924V87.368C253.924 87.688 254.068 87.848 254.356 87.848H254.756V89H253.908C253.546 89 253.247 88.8827 253.012 88.648C252.788 88.4133 252.676 88.1147 252.676 87.752V87.656ZM250.116 88.04C250.49 88.04 250.831 87.9707 251.14 87.832C251.46 87.6933 251.732 87.496 251.956 87.24C252.18 86.984 252.356 86.68 252.484 86.328C252.612 85.9653 252.676 85.5653 252.676 85.128V84.936C252.676 84.5093 252.612 84.12 252.484 83.768C252.356 83.4053 252.175 83.096 251.94 82.84C251.716 82.584 251.444 82.3867 251.124 82.248C250.815 82.0987 250.479 82.024 250.116 82.024C249.743 82.024 249.402 82.0933 249.092 82.232C248.783 82.3707 248.511 82.568 248.276 82.824C248.052 83.0693 247.876 83.3733 247.748 83.736C247.62 84.088 247.556 84.4773 247.556 84.904V85.16C247.556 86.0667 247.791 86.776 248.26 87.288C248.74 87.7893 249.359 88.04 250.116 88.04ZM258.761 83.112C258.761 83.496 258.921 83.7893 259.241 83.992C259.572 84.1947 260.169 84.328 261.033 84.392C261.961 84.4667 262.665 84.6907 263.145 85.064C263.636 85.4267 263.881 85.96 263.881 86.664V86.76C263.881 87.144 263.801 87.4907 263.641 87.8C263.492 88.0987 263.279 88.3547 263.001 88.568C262.735 88.7813 262.404 88.9413 262.009 89.048C261.625 89.1653 261.204 89.224 260.745 89.224C260.127 89.224 259.593 89.144 259.145 88.984C258.708 88.8133 258.34 88.5947 258.041 88.328C257.753 88.0507 257.535 87.7413 257.385 87.4C257.236 87.048 257.151 86.696 257.129 86.344L258.313 86.056C258.367 86.664 258.601 87.1547 259.017 87.528C259.433 87.8907 259.988 88.072 260.681 88.072C261.268 88.072 261.737 87.96 262.089 87.736C262.452 87.5013 262.633 87.176 262.633 86.76C262.633 86.312 262.457 85.992 262.105 85.8C261.753 85.608 261.183 85.4853 260.393 85.432C259.476 85.368 258.772 85.1547 258.281 84.792C257.791 84.4293 257.545 83.9013 257.545 83.208V83.112C257.545 82.7387 257.625 82.4133 257.785 82.136C257.945 81.848 258.159 81.608 258.425 81.416C258.703 81.224 259.012 81.08 259.353 80.984C259.695 80.888 260.052 80.84 260.425 80.84C260.948 80.84 261.407 80.9147 261.801 81.064C262.196 81.2027 262.527 81.3893 262.793 81.624C263.06 81.848 263.263 82.1093 263.401 82.408C263.551 82.7067 263.647 83.0053 263.689 83.304L262.505 83.592C262.452 83.08 262.244 82.68 261.881 82.392C261.529 82.104 261.065 81.96 260.489 81.96C260.265 81.96 260.047 81.9867 259.833 82.04C259.631 82.0827 259.449 82.152 259.289 82.248C259.129 82.344 259.001 82.4667 258.905 82.616C258.809 82.7547 258.761 82.92 258.761 83.112ZM279.564 89H278.316V77.8H279.564V82.312H279.756C280.034 81.832 280.418 81.4693 280.908 81.224C281.399 80.968 281.932 80.84 282.508 80.84C282.999 80.84 283.463 80.9307 283.9 81.112C284.338 81.2933 284.722 81.5547 285.052 81.896C285.394 82.2373 285.66 82.6587 285.852 83.16C286.055 83.6613 286.156 84.232 286.156 84.872V85.192C286.156 85.8427 286.06 86.4187 285.868 86.92C285.676 87.4213 285.41 87.8427 285.068 88.184C284.738 88.5253 284.348 88.7867 283.9 88.968C283.452 89.1387 282.978 89.224 282.476 89.224C282.22 89.224 281.959 89.192 281.692 89.128C281.426 89.0747 281.17 88.9893 280.924 88.872C280.69 88.744 280.471 88.5947 280.268 88.424C280.066 88.2427 279.895 88.0293 279.756 87.784H279.564V89ZM282.22 88.04C282.604 88.04 282.956 87.976 283.276 87.848C283.596 87.7093 283.874 87.5173 284.108 87.272C284.354 87.0267 284.54 86.728 284.668 86.376C284.807 86.024 284.876 85.6293 284.876 85.192V84.872C284.876 84.4453 284.807 84.0613 284.668 83.72C284.54 83.368 284.354 83.0693 284.108 82.824C283.874 82.568 283.591 82.3707 283.26 82.232C282.94 82.0933 282.594 82.024 282.22 82.024C281.847 82.024 281.5 82.0987 281.18 82.248C280.86 82.3867 280.578 82.584 280.332 82.84C280.098 83.096 279.911 83.4053 279.772 83.768C279.634 84.12 279.564 84.5093 279.564 84.936V85.128C279.564 85.5653 279.634 85.9653 279.772 86.328C279.911 86.68 280.098 86.984 280.332 87.24C280.578 87.496 280.86 87.6933 281.18 87.832C281.5 87.9707 281.847 88.04 282.22 88.04ZM289.713 85.416C289.745 86.2053 289.991 86.84 290.449 87.32C290.908 87.8 291.548 88.04 292.369 88.04C292.743 88.04 293.068 87.9973 293.345 87.912C293.623 87.8267 293.857 87.7093 294.049 87.56C294.252 87.4107 294.412 87.24 294.529 87.048C294.657 86.8453 294.759 86.632 294.833 86.408L296.017 86.728C295.793 87.464 295.377 88.0667 294.769 88.536C294.172 88.9947 293.361 89.224 292.337 89.224C291.772 89.224 291.249 89.128 290.769 88.936C290.3 88.7333 289.895 88.4507 289.553 88.088C289.212 87.7253 288.945 87.2933 288.753 86.792C288.561 86.2907 288.465 85.736 288.465 85.128V84.744C288.465 84.1893 288.561 83.672 288.753 83.192C288.956 82.712 289.233 82.3013 289.585 81.96C289.937 81.608 290.348 81.336 290.817 81.144C291.297 80.9413 291.815 80.84 292.369 80.84C293.02 80.84 293.58 80.9627 294.049 81.208C294.529 81.4427 294.919 81.736 295.217 82.088C295.527 82.44 295.751 82.824 295.889 83.24C296.039 83.656 296.113 84.04 296.113 84.392V85.416H289.713ZM292.369 82.024C292.017 82.024 291.687 82.0827 291.377 82.2C291.079 82.3067 290.812 82.4613 290.577 82.664C290.353 82.8667 290.167 83.1067 290.017 83.384C289.879 83.6507 289.788 83.944 289.745 84.264H294.865C294.844 83.9227 294.759 83.6133 294.609 83.336C294.471 83.0587 294.284 82.824 294.049 82.632C293.825 82.44 293.564 82.2907 293.265 82.184C292.977 82.0773 292.679 82.024 292.369 82.024ZM299.91 85.416C299.942 86.2053 300.188 86.84 300.646 87.32C301.105 87.8 301.745 88.04 302.566 88.04C302.94 88.04 303.265 87.9973 303.542 87.912C303.82 87.8267 304.054 87.7093 304.246 87.56C304.449 87.4107 304.609 87.24 304.726 87.048C304.854 86.8453 304.956 86.632 305.03 86.408L306.214 86.728C305.99 87.464 305.574 88.0667 304.966 88.536C304.369 88.9947 303.558 89.224 302.534 89.224C301.969 89.224 301.446 89.128 300.966 88.936C300.497 88.7333 300.092 88.4507 299.75 88.088C299.409 87.7253 299.142 87.2933 298.95 86.792C298.758 86.2907 298.662 85.736 298.662 85.128V84.744C298.662 84.1893 298.758 83.672 298.95 83.192C299.153 82.712 299.43 82.3013 299.782 81.96C300.134 81.608 300.545 81.336 301.014 81.144C301.494 80.9413 302.012 80.84 302.566 80.84C303.217 80.84 303.777 80.9627 304.246 81.208C304.726 81.4427 305.116 81.736 305.414 82.088C305.724 82.44 305.948 82.824 306.086 83.24C306.236 83.656 306.31 84.04 306.31 84.392V85.416H299.91ZM302.566 82.024C302.214 82.024 301.884 82.0827 301.574 82.2C301.276 82.3067 301.009 82.4613 300.774 82.664C300.55 82.8667 300.364 83.1067 300.214 83.384C300.076 83.6507 299.985 83.944 299.942 84.264H305.062C305.041 83.9227 304.956 83.6133 304.806 83.336C304.668 83.0587 304.481 82.824 304.246 82.632C304.022 82.44 303.761 82.2907 303.462 82.184C303.174 82.0773 302.876 82.024 302.566 82.024ZM310.443 89H309.195V81.064H310.443V82.408H310.635C311.126 81.3627 311.979 80.84 313.195 80.84C314.112 80.84 314.843 81.128 315.387 81.704C315.931 82.2693 316.203 83.1227 316.203 84.264V89H314.955V84.52C314.955 83.688 314.768 83.064 314.395 82.648C314.022 82.232 313.515 82.024 312.875 82.024C312.118 82.024 311.52 82.2853 311.083 82.808C310.656 83.32 310.443 84.008 310.443 84.872V89ZM28.312 110.064H30.76V108.048C30.76 107.685 30.872 107.387 31.096 107.152C31.3307 106.917 31.6293 106.8 31.992 106.8H35.128V107.952H32.44C32.152 107.952 32.008 108.112 32.008 108.432V110.064H35.32V111.216H32.008V118H30.76V111.216H28.312V110.064ZM46.0769 114.128C46.0769 114.789 45.9649 115.376 45.7409 115.888C45.5275 116.389 45.2395 116.816 44.8769 117.168C44.5142 117.509 44.0875 117.771 43.5969 117.952C43.1169 118.133 42.6155 118.224 42.0929 118.224C41.5595 118.224 41.0529 118.133 40.5729 117.952C40.0929 117.771 39.6715 117.509 39.3089 117.168C38.9462 116.816 38.6529 116.389 38.4289 115.888C38.2155 115.376 38.1089 114.789 38.1089 114.128V113.936C38.1089 113.285 38.2155 112.709 38.4289 112.208C38.6529 111.696 38.9462 111.264 39.3089 110.912C39.6822 110.56 40.1089 110.293 40.5889 110.112C41.0689 109.931 41.5702 109.84 42.0929 109.84C42.6155 109.84 43.1169 109.931 43.5969 110.112C44.0769 110.293 44.4982 110.56 44.8609 110.912C45.2342 111.264 45.5275 111.696 45.7409 112.208C45.9649 112.709 46.0769 113.285 46.0769 113.936V114.128ZM42.0929 117.04C42.4769 117.04 42.8289 116.976 43.1489 116.848C43.4795 116.709 43.7675 116.512 44.0129 116.256C44.2582 116 44.4502 115.696 44.5889 115.344C44.7275 114.981 44.7969 114.576 44.7969 114.128V113.936C44.7969 113.509 44.7275 113.12 44.5889 112.768C44.4502 112.405 44.2582 112.096 44.0129 111.84C43.7675 111.584 43.4795 111.387 43.1489 111.248C42.8182 111.099 42.4662 111.024 42.0929 111.024C41.7195 111.024 41.3675 111.099 41.0369 111.248C40.7062 111.387 40.4182 111.584 40.1729 111.84C39.9275 112.096 39.7355 112.405 39.5969 112.768C39.4582 113.12 39.3889 113.509 39.3889 113.936V114.128C39.3889 114.576 39.4582 114.981 39.5969 115.344C39.7355 115.696 39.9275 116 40.1729 116.256C40.4182 116.512 40.7009 116.709 41.0209 116.848C41.3515 116.976 41.7089 117.04 42.0929 117.04ZM54.4497 110.064H55.6978V118H54.4497V116.56H54.2577C54.0017 117.072 53.6657 117.477 53.2497 117.776C52.8337 118.075 52.3057 118.224 51.6657 118.224C51.2284 118.224 50.8231 118.149 50.4497 118C50.0871 117.861 49.7724 117.648 49.5057 117.36C49.2497 117.072 49.0471 116.715 48.8977 116.288C48.7591 115.861 48.6897 115.365 48.6897 114.8V110.064H49.9377V114.64C49.9377 115.472 50.1084 116.08 50.4497 116.464C50.7911 116.848 51.3137 117.04 52.0177 117.04C52.7751 117.04 53.3671 116.784 53.7937 116.272C54.2311 115.749 54.4497 115.056 54.4497 114.192V110.064ZM60.2306 118H58.9826V110.064H60.2306V111.408H60.4226C60.9133 110.363 61.7666 109.84 62.9826 109.84C63.9 109.84 64.6306 110.128 65.1746 110.704C65.7186 111.269 65.9906 112.123 65.9906 113.264V118H64.7426V113.52C64.7426 112.688 64.556 112.064 64.1826 111.648C63.8093 111.232 63.3026 111.024 62.6626 111.024C61.9053 111.024 61.308 111.285 60.8706 111.808C60.444 112.32 60.2306 113.008 60.2306 113.872V118ZM75.3235 116.784H75.1315C75.0035 117.029 74.8382 117.243 74.6355 117.424C74.4435 117.605 74.2302 117.755 73.9955 117.872C73.7715 117.989 73.5315 118.075 73.2755 118.128C73.0195 118.192 72.7742 118.224 72.5395 118.224C72.0062 118.224 71.5102 118.133 71.0515 117.952C70.5928 117.771 70.1875 117.509 69.8355 117.168C69.4942 116.827 69.2222 116.405 69.0195 115.904C68.8275 115.392 68.7315 114.811 68.7315 114.16V113.904C68.7315 113.264 68.8328 112.693 69.0355 112.192C69.2382 111.68 69.5102 111.253 69.8515 110.912C70.1928 110.56 70.5928 110.293 71.0515 110.112C71.5102 109.931 71.9955 109.84 72.5075 109.84C73.0515 109.84 73.5582 109.963 74.0275 110.208C74.5075 110.443 74.8755 110.811 75.1315 111.312H75.3235V106.8H76.5715V118H75.3235V116.784ZM72.6675 117.04C73.0408 117.04 73.3875 116.971 73.7075 116.832C74.0275 116.693 74.3048 116.496 74.5395 116.24C74.7848 115.984 74.9768 115.68 75.1155 115.328C75.2542 114.965 75.3235 114.565 75.3235 114.128V113.936C75.3235 113.509 75.2542 113.12 75.1155 112.768C74.9768 112.405 74.7848 112.096 74.5395 111.84C74.3048 111.584 74.0222 111.387 73.6915 111.248C73.3715 111.099 73.0302 111.024 72.6675 111.024C72.2942 111.024 71.9422 111.093 71.6115 111.232C71.2915 111.371 71.0088 111.568 70.7635 111.824C70.5288 112.08 70.3422 112.384 70.2035 112.736C70.0755 113.088 70.0115 113.477 70.0115 113.904V114.16C70.0115 114.608 70.0755 115.008 70.2035 115.36C70.3422 115.712 70.5288 116.016 70.7635 116.272C71.0088 116.517 71.2915 116.709 71.6115 116.848C71.9315 116.976 72.2835 117.04 72.6675 117.04ZM81.7604 117.104C81.7604 116.795 81.867 116.533 82.0804 116.32C82.3044 116.096 82.571 115.984 82.8804 115.984C83.1897 115.984 83.451 116.096 83.6644 116.32C83.8884 116.533 84.0004 116.795 84.0004 117.104V118.672C84.0004 119.035 83.883 119.333 83.6484 119.568C83.4244 119.803 83.131 119.92 82.7684 119.92H81.9524V119.056H82.7044C82.9924 119.056 83.1364 118.896 83.1364 118.576V118.176C83.051 118.208 82.9604 118.224 82.8644 118.224C82.5657 118.224 82.3044 118.117 82.0804 117.904C81.867 117.68 81.7604 117.413 81.7604 117.104ZM101.327 110.064H103.823V106.8H105.071V110.064H108.143V111.216H105.071V116.368C105.071 116.688 105.215 116.848 105.503 116.848H107.759V118H105.055C104.693 118 104.394 117.883 104.159 117.648C103.935 117.413 103.823 117.115 103.823 116.752V111.216H101.327V110.064ZM113.044 118H111.796V106.8H113.044V111.504H113.236C113.481 110.992 113.823 110.587 114.26 110.288C114.708 109.989 115.252 109.84 115.892 109.84C116.756 109.84 117.455 110.128 117.988 110.704C118.532 111.269 118.804 112.123 118.804 113.264V118H117.556V113.52C117.556 112.688 117.369 112.064 116.996 111.648C116.623 111.232 116.116 111.024 115.476 111.024C114.719 111.024 114.121 111.285 113.684 111.808C113.257 112.32 113.044 113.008 113.044 113.872V118ZM122.905 114.416C122.937 115.205 123.182 115.84 123.641 116.32C124.1 116.8 124.74 117.04 125.561 117.04C125.934 117.04 126.26 116.997 126.537 116.912C126.814 116.827 127.049 116.709 127.241 116.56C127.444 116.411 127.604 116.24 127.721 116.048C127.849 115.845 127.95 115.632 128.025 115.408L129.209 115.728C128.985 116.464 128.569 117.067 127.961 117.536C127.364 117.995 126.553 118.224 125.529 118.224C124.964 118.224 124.441 118.128 123.961 117.936C123.492 117.733 123.086 117.451 122.745 117.088C122.404 116.725 122.137 116.293 121.945 115.792C121.753 115.291 121.657 114.736 121.657 114.128V113.744C121.657 113.189 121.753 112.672 121.945 112.192C122.148 111.712 122.425 111.301 122.777 110.96C123.129 110.608 123.54 110.336 124.009 110.144C124.489 109.941 125.006 109.84 125.561 109.84C126.212 109.84 126.772 109.963 127.241 110.208C127.721 110.443 128.11 110.736 128.409 111.088C128.718 111.44 128.942 111.824 129.081 112.24C129.23 112.656 129.305 113.04 129.305 113.392V114.416H122.905ZM125.561 111.024C125.209 111.024 124.878 111.083 124.569 111.2C124.27 111.307 124.004 111.461 123.769 111.664C123.545 111.867 123.358 112.107 123.209 112.384C123.07 112.651 122.98 112.944 122.937 113.264H128.057C128.036 112.923 127.95 112.613 127.801 112.336C127.662 112.059 127.476 111.824 127.241 111.632C127.017 111.44 126.756 111.291 126.457 111.184C126.169 111.077 125.87 111.024 125.561 111.024ZM145.176 121.2H143.928V110.064H145.176V111.312H145.368C145.645 110.832 146.029 110.469 146.52 110.224C147.011 109.968 147.544 109.84 148.12 109.84C148.611 109.84 149.075 109.931 149.512 110.112C149.949 110.293 150.333 110.555 150.664 110.896C151.005 111.237 151.272 111.659 151.464 112.16C151.667 112.661 151.768 113.232 151.768 113.872V114.192C151.768 114.843 151.672 115.419 151.48 115.92C151.288 116.421 151.021 116.843 150.68 117.184C150.349 117.525 149.96 117.787 149.512 117.968C149.064 118.139 148.589 118.224 148.088 118.224C147.832 118.224 147.571 118.192 147.304 118.128C147.037 118.075 146.781 117.989 146.536 117.872C146.301 117.744 146.083 117.595 145.88 117.424C145.677 117.243 145.507 117.029 145.368 116.784H145.176V121.2ZM147.832 117.04C148.216 117.04 148.568 116.976 148.888 116.848C149.208 116.709 149.485 116.517 149.72 116.272C149.965 116.027 150.152 115.728 150.28 115.376C150.419 115.024 150.488 114.629 150.488 114.192V113.872C150.488 113.445 150.419 113.061 150.28 112.72C150.152 112.368 149.965 112.069 149.72 111.824C149.485 111.568 149.203 111.371 148.872 111.232C148.552 111.093 148.205 111.024 147.832 111.024C147.459 111.024 147.112 111.099 146.792 111.248C146.472 111.387 146.189 111.584 145.944 111.84C145.709 112.096 145.523 112.405 145.384 112.768C145.245 113.12 145.176 113.509 145.176 113.936V114.128C145.176 114.565 145.245 114.965 145.384 115.328C145.523 115.68 145.709 115.984 145.944 116.24C146.189 116.496 146.472 116.693 146.792 116.832C147.112 116.971 147.459 117.04 147.832 117.04ZM160.173 116.656H159.981C159.725 117.189 159.367 117.584 158.909 117.84C158.461 118.096 157.986 118.224 157.485 118.224C156.962 118.224 156.477 118.139 156.029 117.968C155.581 117.787 155.186 117.525 154.845 117.184C154.514 116.832 154.253 116.405 154.061 115.904C153.869 115.403 153.773 114.821 153.773 114.16V113.904C153.773 113.253 153.869 112.677 154.061 112.176C154.253 111.675 154.514 111.253 154.845 110.912C155.186 110.56 155.581 110.293 156.029 110.112C156.477 109.931 156.951 109.84 157.453 109.84C157.997 109.84 158.487 109.963 158.925 110.208C159.373 110.443 159.725 110.811 159.981 111.312H160.173V110.064H161.421V116.368C161.421 116.688 161.565 116.848 161.853 116.848H162.253V118H161.405C161.042 118 160.743 117.883 160.509 117.648C160.285 117.413 160.173 117.115 160.173 116.752V116.656ZM157.613 117.04C157.986 117.04 158.327 116.971 158.637 116.832C158.957 116.693 159.229 116.496 159.453 116.24C159.677 115.984 159.853 115.68 159.981 115.328C160.109 114.965 160.173 114.565 160.173 114.128V113.936C160.173 113.509 160.109 113.12 159.981 112.768C159.853 112.405 159.671 112.096 159.437 111.84C159.213 111.584 158.941 111.387 158.621 111.248C158.311 111.099 157.975 111.024 157.613 111.024C157.239 111.024 156.898 111.093 156.589 111.232C156.279 111.371 156.007 111.568 155.773 111.824C155.549 112.069 155.373 112.373 155.245 112.736C155.117 113.088 155.053 113.477 155.053 113.904V114.16C155.053 115.067 155.287 115.776 155.757 116.288C156.237 116.789 156.855 117.04 157.613 117.04ZM164.162 110.064H167.042V111.12H167.234C167.436 110.683 167.724 110.363 168.098 110.16C168.471 109.947 168.898 109.84 169.378 109.84C170.178 109.84 170.823 110.101 171.314 110.624C171.804 111.147 172.066 111.909 172.098 112.912L170.786 113.104C170.786 112.368 170.61 111.84 170.258 111.52C169.906 111.189 169.474 111.024 168.962 111.024C168.631 111.024 168.343 111.088 168.098 111.216C167.863 111.344 167.666 111.52 167.506 111.744C167.346 111.968 167.228 112.229 167.154 112.528C167.079 112.827 167.042 113.147 167.042 113.488V116.848H169.058V118H163.97V116.848H165.794V111.216H164.162V110.064ZM174.535 110.064H177.031V106.8H178.279V110.064H181.351V111.216H178.279V116.368C178.279 116.688 178.423 116.848 178.711 116.848H180.967V118H178.263C177.9 118 177.601 117.883 177.367 117.648C177.143 117.413 177.031 117.115 177.031 116.752V111.216H174.535V110.064ZM187.467 107.696C187.467 107.387 187.574 107.125 187.787 106.912C188.011 106.688 188.278 106.576 188.587 106.576C188.897 106.576 189.158 106.688 189.371 106.912C189.595 107.125 189.707 107.387 189.707 107.696C189.707 108.005 189.595 108.272 189.371 108.496C189.158 108.709 188.897 108.816 188.587 108.816C188.278 108.816 188.011 108.709 187.787 108.496C187.574 108.272 187.467 108.005 187.467 107.696ZM185.195 116.848H187.979V111.216H185.483V110.064H189.227V116.848H191.819V118H185.195V116.848ZM202.624 115.184C202.539 115.621 202.39 116.027 202.176 116.4C201.974 116.773 201.712 117.099 201.392 117.376C201.072 117.643 200.699 117.851 200.272 118C199.846 118.149 199.371 118.224 198.848 118.224C198.294 118.224 197.766 118.133 197.264 117.952C196.774 117.771 196.342 117.509 195.968 117.168C195.595 116.816 195.296 116.389 195.072 115.888C194.859 115.387 194.752 114.811 194.752 114.16V113.968C194.752 113.328 194.859 112.752 195.072 112.24C195.296 111.728 195.595 111.296 195.968 110.944C196.342 110.592 196.774 110.32 197.264 110.128C197.766 109.936 198.294 109.84 198.848 109.84C199.35 109.84 199.814 109.915 200.24 110.064C200.667 110.213 201.04 110.427 201.36 110.704C201.691 110.971 201.958 111.291 202.16 111.664C202.374 112.037 202.518 112.443 202.592 112.88L201.344 113.168C201.312 112.891 201.232 112.624 201.104 112.368C200.987 112.101 200.822 111.872 200.608 111.68C200.406 111.477 200.155 111.317 199.856 111.2C199.558 111.083 199.211 111.024 198.816 111.024C198.432 111.024 198.07 111.099 197.728 111.248C197.398 111.387 197.104 111.589 196.848 111.856C196.592 112.112 196.39 112.421 196.24 112.784C196.102 113.147 196.032 113.541 196.032 113.968V114.16C196.032 114.608 196.102 115.013 196.24 115.376C196.39 115.728 196.592 116.027 196.848 116.272C197.104 116.517 197.403 116.709 197.744 116.848C198.086 116.976 198.454 117.04 198.848 117.04C199.243 117.04 199.584 116.981 199.872 116.864C200.171 116.736 200.422 116.576 200.624 116.384C200.838 116.181 201.003 115.952 201.12 115.696C201.248 115.44 201.334 115.173 201.376 114.896L202.624 115.184ZM207.861 107.696C207.861 107.387 207.968 107.125 208.181 106.912C208.405 106.688 208.672 106.576 208.981 106.576C209.291 106.576 209.552 106.688 209.765 106.912C209.989 107.125 210.101 107.387 210.101 107.696C210.101 108.005 209.989 108.272 209.765 108.496C209.552 108.709 209.291 108.816 208.981 108.816C208.672 108.816 208.405 108.709 208.181 108.496C207.968 108.272 207.861 108.005 207.861 107.696ZM205.589 116.848H208.373V111.216H205.877V110.064H209.621V116.848H212.213V118H205.589V116.848ZM216.554 121.2H215.306V110.064H216.554V111.312H216.746C217.023 110.832 217.407 110.469 217.898 110.224C218.389 109.968 218.922 109.84 219.498 109.84C219.989 109.84 220.453 109.931 220.89 110.112C221.327 110.293 221.711 110.555 222.042 110.896C222.383 111.237 222.65 111.659 222.842 112.16C223.045 112.661 223.146 113.232 223.146 113.872V114.192C223.146 114.843 223.05 115.419 222.858 115.92C222.666 116.421 222.399 116.843 222.058 117.184C221.727 117.525 221.338 117.787 220.89 117.968C220.442 118.139 219.967 118.224 219.466 118.224C219.21 118.224 218.949 118.192 218.682 118.128C218.415 118.075 218.159 117.989 217.914 117.872C217.679 117.744 217.461 117.595 217.258 117.424C217.055 117.243 216.885 117.029 216.746 116.784H216.554V121.2ZM219.21 117.04C219.594 117.04 219.946 116.976 220.266 116.848C220.586 116.709 220.863 116.517 221.098 116.272C221.343 116.027 221.53 115.728 221.658 115.376C221.797 115.024 221.866 114.629 221.866 114.192V113.872C221.866 113.445 221.797 113.061 221.658 112.72C221.53 112.368 221.343 112.069 221.098 111.824C220.863 111.568 220.581 111.371 220.25 111.232C219.93 111.093 219.583 111.024 219.21 111.024C218.837 111.024 218.49 111.099 218.17 111.248C217.85 111.387 217.567 111.584 217.322 111.84C217.087 112.096 216.901 112.405 216.762 112.768C216.623 113.12 216.554 113.509 216.554 113.936V114.128C216.554 114.565 216.623 114.965 216.762 115.328C216.901 115.68 217.087 115.984 217.322 116.24C217.567 116.496 217.85 116.693 218.17 116.832C218.49 116.971 218.837 117.04 219.21 117.04ZM231.551 116.656H231.359C231.103 117.189 230.746 117.584 230.287 117.84C229.839 118.096 229.364 118.224 228.863 118.224C228.34 118.224 227.855 118.139 227.407 117.968C226.959 117.787 226.564 117.525 226.223 117.184C225.892 116.832 225.631 116.405 225.439 115.904C225.247 115.403 225.151 114.821 225.151 114.16V113.904C225.151 113.253 225.247 112.677 225.439 112.176C225.631 111.675 225.892 111.253 226.223 110.912C226.564 110.56 226.959 110.293 227.407 110.112C227.855 109.931 228.33 109.84 228.831 109.84C229.375 109.84 229.866 109.963 230.303 110.208C230.751 110.443 231.103 110.811 231.359 111.312H231.551V110.064H232.799V116.368C232.799 116.688 232.943 116.848 233.231 116.848H233.631V118H232.783C232.42 118 232.122 117.883 231.887 117.648C231.663 117.413 231.551 117.115 231.551 116.752V116.656ZM228.991 117.04C229.364 117.04 229.706 116.971 230.015 116.832C230.335 116.693 230.607 116.496 230.831 116.24C231.055 115.984 231.231 115.68 231.359 115.328C231.487 114.965 231.551 114.565 231.551 114.128V113.936C231.551 113.509 231.487 113.12 231.359 112.768C231.231 112.405 231.05 112.096 230.815 111.84C230.591 111.584 230.319 111.387 229.999 111.248C229.69 111.099 229.354 111.024 228.991 111.024C228.618 111.024 228.276 111.093 227.967 111.232C227.658 111.371 227.386 111.568 227.151 111.824C226.927 112.069 226.751 112.373 226.623 112.736C226.495 113.088 226.431 113.477 226.431 113.904V114.16C226.431 115.067 226.666 115.776 227.135 116.288C227.615 116.789 228.234 117.04 228.991 117.04ZM237.236 118H235.988V110.064H237.236V111.408H237.428C237.918 110.363 238.772 109.84 239.988 109.84C240.905 109.84 241.636 110.128 242.18 110.704C242.724 111.269 242.996 112.123 242.996 113.264V118H241.748V113.52C241.748 112.688 241.561 112.064 241.188 111.648C240.814 111.232 240.308 111.024 239.668 111.024C238.91 111.024 238.313 111.285 237.876 111.808C237.449 112.32 237.236 113.008 237.236 113.872V118ZM245.913 110.064H248.409V106.8H249.657V110.064H252.729V111.216H249.657V116.368C249.657 116.688 249.801 116.848 250.089 116.848H252.345V118H249.641C249.278 118 248.979 117.883 248.745 117.648C248.521 117.413 248.409 117.115 248.409 116.752V111.216H245.913V110.064ZM258.03 112.112C258.03 112.496 258.19 112.789 258.51 112.992C258.84 113.195 259.438 113.328 260.302 113.392C261.23 113.467 261.934 113.691 262.414 114.064C262.904 114.427 263.15 114.96 263.15 115.664V115.76C263.15 116.144 263.07 116.491 262.91 116.8C262.76 117.099 262.547 117.355 262.27 117.568C262.003 117.781 261.672 117.941 261.278 118.048C260.894 118.165 260.472 118.224 260.014 118.224C259.395 118.224 258.862 118.144 258.414 117.984C257.976 117.813 257.608 117.595 257.31 117.328C257.022 117.051 256.803 116.741 256.654 116.4C256.504 116.048 256.419 115.696 256.398 115.344L257.582 115.056C257.635 115.664 257.87 116.155 258.286 116.528C258.702 116.891 259.256 117.072 259.95 117.072C260.536 117.072 261.006 116.96 261.358 116.736C261.72 116.501 261.902 116.176 261.902 115.76C261.902 115.312 261.726 114.992 261.374 114.8C261.022 114.608 260.451 114.485 259.662 114.432C258.744 114.368 258.04 114.155 257.55 113.792C257.059 113.429 256.814 112.901 256.814 112.208V112.112C256.814 111.739 256.894 111.413 257.054 111.136C257.214 110.848 257.427 110.608 257.694 110.416C257.971 110.224 258.28 110.08 258.622 109.984C258.963 109.888 259.32 109.84 259.694 109.84C260.216 109.84 260.675 109.915 261.07 110.064C261.464 110.203 261.795 110.389 262.062 110.624C262.328 110.848 262.531 111.109 262.67 111.408C262.819 111.707 262.915 112.005 262.958 112.304L261.774 112.592C261.72 112.08 261.512 111.68 261.15 111.392C260.798 111.104 260.334 110.96 259.758 110.96C259.534 110.96 259.315 110.987 259.102 111.04C258.899 111.083 258.718 111.152 258.558 111.248C258.398 111.344 258.27 111.467 258.174 111.616C258.078 111.755 258.03 111.92 258.03 112.112ZM285.468 118H283.164L282.204 110.64H282.012L281.052 118H278.748L277.5 110.064H278.78L279.836 117.424H280.028L280.956 110.064H283.26L284.188 117.424H284.38L285.436 110.064H286.716L285.468 118ZM291.265 107.696C291.265 107.387 291.372 107.125 291.585 106.912C291.809 106.688 292.076 106.576 292.385 106.576C292.695 106.576 292.956 106.688 293.169 106.912C293.393 107.125 293.505 107.387 293.505 107.696C293.505 108.005 293.393 108.272 293.169 108.496C292.956 108.709 292.695 108.816 292.385 108.816C292.076 108.816 291.809 108.709 291.585 108.496C291.372 108.272 291.265 108.005 291.265 107.696ZM288.993 116.848H291.777V111.216H289.281V110.064H293.025V116.848H295.617V118H288.993V116.848ZM298.998 116.848H301.878V107.952H299.094V106.8H303.126V116.848H306.006V118H298.998V116.848ZM309.195 116.848H312.075V107.952H309.291V106.8H313.323V116.848H316.203V118H309.195V116.848ZM29.352 147H28.104V135.8H29.352V140.312H29.544C29.8213 139.832 30.2053 139.469 30.696 139.224C31.1867 138.968 31.72 138.84 32.296 138.84C32.7867 138.84 33.2507 138.931 33.688 139.112C34.1253 139.293 34.5093 139.555 34.84 139.896C35.1813 140.237 35.448 140.659 35.64 141.16C35.8427 141.661 35.944 142.232 35.944 142.872V143.192C35.944 143.843 35.848 144.419 35.656 144.92C35.464 145.421 35.1973 145.843 34.856 146.184C34.5253 146.525 34.136 146.787 33.688 146.968C33.24 147.139 32.7653 147.224 32.264 147.224C32.008 147.224 31.7467 147.192 31.48 147.128C31.2133 147.075 30.9573 146.989 30.712 146.872C30.4773 146.744 30.2587 146.595 30.056 146.424C29.8533 146.243 29.6827 146.029 29.544 145.784H29.352V147ZM32.008 146.04C32.392 146.04 32.744 145.976 33.064 145.848C33.384 145.709 33.6613 145.517 33.896 145.272C34.1413 145.027 34.328 144.728 34.456 144.376C34.5947 144.024 34.664 143.629 34.664 143.192V142.872C34.664 142.445 34.5947 142.061 34.456 141.72C34.328 141.368 34.1413 141.069 33.896 140.824C33.6613 140.568 33.3787 140.371 33.048 140.232C32.728 140.093 32.3813 140.024 32.008 140.024C31.6347 140.024 31.288 140.099 30.968 140.248C30.648 140.387 30.3653 140.584 30.12 140.84C29.8853 141.096 29.6987 141.405 29.56 141.768C29.4213 142.12 29.352 142.509 29.352 142.936V143.128C29.352 143.565 29.4213 143.965 29.56 144.328C29.6987 144.68 29.8853 144.984 30.12 145.24C30.3653 145.496 30.648 145.693 30.968 145.832C31.288 145.971 31.6347 146.04 32.008 146.04ZM39.5009 143.416C39.5329 144.205 39.7782 144.84 40.2369 145.32C40.6955 145.8 41.3355 146.04 42.1569 146.04C42.5302 146.04 42.8555 145.997 43.1329 145.912C43.4102 145.827 43.6449 145.709 43.8369 145.56C44.0395 145.411 44.1995 145.24 44.3169 145.048C44.4449 144.845 44.5462 144.632 44.6209 144.408L45.8049 144.728C45.5809 145.464 45.1649 146.067 44.5569 146.536C43.9595 146.995 43.1489 147.224 42.1249 147.224C41.5595 147.224 41.0369 147.128 40.5569 146.936C40.0875 146.733 39.6822 146.451 39.3409 146.088C38.9995 145.725 38.7329 145.293 38.5409 144.792C38.3489 144.291 38.2529 143.736 38.2529 143.128V142.744C38.2529 142.189 38.3489 141.672 38.5409 141.192C38.7435 140.712 39.0209 140.301 39.3729 139.96C39.7249 139.608 40.1355 139.336 40.6049 139.144C41.0849 138.941 41.6022 138.84 42.1569 138.84C42.8075 138.84 43.3675 138.963 43.8369 139.208C44.3169 139.443 44.7062 139.736 45.0049 140.088C45.3142 140.44 45.5382 140.824 45.6769 141.24C45.8262 141.656 45.9009 142.04 45.9009 142.392V143.416H39.5009ZM42.1569 140.024C41.8049 140.024 41.4742 140.083 41.1649 140.2C40.8662 140.307 40.5995 140.461 40.3649 140.664C40.1409 140.867 39.9542 141.107 39.8049 141.384C39.6662 141.651 39.5755 141.944 39.5329 142.264H44.6529C44.6315 141.923 44.5462 141.613 44.3969 141.336C44.2582 141.059 44.0715 140.824 43.8369 140.632C43.6129 140.44 43.3515 140.291 43.0529 140.184C42.7649 140.077 42.4662 140.024 42.1569 140.024ZM58.5346 139.064H61.4146V140.12H61.6066C61.8093 139.683 62.0973 139.363 62.4706 139.16C62.844 138.947 63.2706 138.84 63.7506 138.84C64.5506 138.84 65.196 139.101 65.6866 139.624C66.1773 140.147 66.4386 140.909 66.4706 141.912L65.1586 142.104C65.1586 141.368 64.9826 140.84 64.6306 140.52C64.2786 140.189 63.8466 140.024 63.3346 140.024C63.004 140.024 62.716 140.088 62.4706 140.216C62.236 140.344 62.0386 140.52 61.8786 140.744C61.7186 140.968 61.6013 141.229 61.5266 141.528C61.452 141.827 61.4146 142.147 61.4146 142.488V145.848H63.4306V147H58.3426V145.848H60.1666V140.216H58.5346V139.064ZM70.0915 143.416C70.1235 144.205 70.3688 144.84 70.8275 145.32C71.2862 145.8 71.9262 146.04 72.7475 146.04C73.1208 146.04 73.4462 145.997 73.7235 145.912C74.0008 145.827 74.2355 145.709 74.4275 145.56C74.6302 145.411 74.7902 145.24 74.9075 145.048C75.0355 144.845 75.1368 144.632 75.2115 144.408L76.3955 144.728C76.1715 145.464 75.7555 146.067 75.1475 146.536C74.5502 146.995 73.7395 147.224 72.7155 147.224C72.1502 147.224 71.6275 147.128 71.1475 146.936C70.6782 146.733 70.2728 146.451 69.9315 146.088C69.5902 145.725 69.3235 145.293 69.1315 144.792C68.9395 144.291 68.8435 143.736 68.8435 143.128V142.744C68.8435 142.189 68.9395 141.672 69.1315 141.192C69.3342 140.712 69.6115 140.301 69.9635 139.96C70.3155 139.608 70.7262 139.336 71.1955 139.144C71.6755 138.941 72.1928 138.84 72.7475 138.84C73.3982 138.84 73.9582 138.963 74.4275 139.208C74.9075 139.443 75.2968 139.736 75.5955 140.088C75.9048 140.44 76.1288 140.824 76.2675 141.24C76.4168 141.656 76.4915 142.04 76.4915 142.392V143.416H70.0915ZM72.7475 140.024C72.3955 140.024 72.0648 140.083 71.7555 140.2C71.4568 140.307 71.1902 140.461 70.9555 140.664C70.7315 140.867 70.5448 141.107 70.3955 141.384C70.2568 141.651 70.1662 141.944 70.1235 142.264H75.2435C75.2222 141.923 75.1368 141.613 74.9875 141.336C74.8488 141.059 74.6622 140.824 74.4275 140.632C74.2035 140.44 73.9422 140.291 73.6435 140.184C73.3555 140.077 73.0568 140.024 72.7475 140.024ZM79.1044 139.064H81.6004V135.8H82.8484V139.064H85.9204V140.216H82.8484V145.368C82.8484 145.688 82.9924 145.848 83.2804 145.848H85.5364V147H82.8324C82.4697 147 82.171 146.883 81.9364 146.648C81.7124 146.413 81.6004 146.115 81.6004 145.752V140.216H79.1044V139.064ZM95.2373 139.064H96.4853V147H95.2373V145.56H95.0453C94.7893 146.072 94.4533 146.477 94.0373 146.776C93.6213 147.075 93.0933 147.224 92.4533 147.224C92.0159 147.224 91.6106 147.149 91.2373 147C90.8746 146.861 90.5599 146.648 90.2933 146.36C90.0373 146.072 89.8346 145.715 89.6853 145.288C89.5466 144.861 89.4773 144.365 89.4773 143.8V139.064H90.7253V143.64C90.7253 144.472 90.8959 145.08 91.2373 145.464C91.5786 145.848 92.1013 146.04 92.8053 146.04C93.5626 146.04 94.1546 145.784 94.5813 145.272C95.0186 144.749 95.2373 144.056 95.2373 143.192V139.064ZM99.3221 139.064H102.202V140.12H102.394C102.597 139.683 102.885 139.363 103.258 139.16C103.631 138.947 104.058 138.84 104.538 138.84C105.338 138.84 105.983 139.101 106.474 139.624C106.965 140.147 107.226 140.909 107.258 141.912L105.946 142.104C105.946 141.368 105.77 140.84 105.418 140.52C105.066 140.189 104.634 140.024 104.122 140.024C103.791 140.024 103.503 140.088 103.258 140.216C103.023 140.344 102.826 140.52 102.666 140.744C102.506 140.968 102.389 141.229 102.314 141.528C102.239 141.827 102.202 142.147 102.202 142.488V145.848H104.218V147H99.1301V145.848H100.954V140.216H99.3221V139.064ZM111.215 147H109.967V139.064H111.215V140.408H111.407C111.898 139.363 112.751 138.84 113.967 138.84C114.884 138.84 115.615 139.128 116.159 139.704C116.703 140.269 116.975 141.123 116.975 142.264V147H115.727V142.52C115.727 141.688 115.54 141.064 115.167 140.648C114.794 140.232 114.287 140.024 113.647 140.024C112.89 140.024 112.292 140.285 111.855 140.808C111.428 141.32 111.215 142.008 111.215 142.872V147ZM121.076 143.416C121.108 144.205 121.353 144.84 121.812 145.32C122.271 145.8 122.911 146.04 123.732 146.04C124.105 146.04 124.431 145.997 124.708 145.912C124.985 145.827 125.22 145.709 125.412 145.56C125.615 145.411 125.775 145.24 125.892 145.048C126.02 144.845 126.121 144.632 126.196 144.408L127.38 144.728C127.156 145.464 126.74 146.067 126.132 146.536C125.535 146.995 124.724 147.224 123.7 147.224C123.135 147.224 122.612 147.128 122.132 146.936C121.663 146.733 121.257 146.451 120.916 146.088C120.575 145.725 120.308 145.293 120.116 144.792C119.924 144.291 119.828 143.736 119.828 143.128V142.744C119.828 142.189 119.924 141.672 120.116 141.192C120.319 140.712 120.596 140.301 120.948 139.96C121.3 139.608 121.711 139.336 122.18 139.144C122.66 138.941 123.177 138.84 123.732 138.84C124.383 138.84 124.943 138.963 125.412 139.208C125.892 139.443 126.281 139.736 126.58 140.088C126.889 140.44 127.113 140.824 127.252 141.24C127.401 141.656 127.476 142.04 127.476 142.392V143.416H121.076ZM123.732 140.024C123.38 140.024 123.049 140.083 122.74 140.2C122.441 140.307 122.175 140.461 121.94 140.664C121.716 140.867 121.529 141.107 121.38 141.384C121.241 141.651 121.151 141.944 121.108 142.264H126.228C126.207 141.923 126.121 141.613 125.972 141.336C125.833 141.059 125.647 140.824 125.412 140.632C125.188 140.44 124.927 140.291 124.628 140.184C124.34 140.077 124.041 140.024 123.732 140.024ZM136.505 145.784H136.313C136.185 146.029 136.019 146.243 135.817 146.424C135.625 146.605 135.411 146.755 135.177 146.872C134.953 146.989 134.713 147.075 134.457 147.128C134.201 147.192 133.955 147.224 133.721 147.224C133.187 147.224 132.691 147.133 132.233 146.952C131.774 146.771 131.369 146.509 131.017 146.168C130.675 145.827 130.403 145.405 130.201 144.904C130.009 144.392 129.913 143.811 129.913 143.16V142.904C129.913 142.264 130.014 141.693 130.217 141.192C130.419 140.68 130.691 140.253 131.033 139.912C131.374 139.56 131.774 139.293 132.233 139.112C132.691 138.931 133.177 138.84 133.689 138.84C134.233 138.84 134.739 138.963 135.209 139.208C135.689 139.443 136.057 139.811 136.313 140.312H136.505V135.8H137.753V147H136.505V145.784ZM133.849 146.04C134.222 146.04 134.569 145.971 134.889 145.832C135.209 145.693 135.486 145.496 135.721 145.24C135.966 144.984 136.158 144.68 136.297 144.328C136.435 143.965 136.505 143.565 136.505 143.128V142.936C136.505 142.509 136.435 142.12 136.297 141.768C136.158 141.405 135.966 141.096 135.721 140.84C135.486 140.584 135.203 140.387 134.873 140.248C134.553 140.099 134.211 140.024 133.849 140.024C133.475 140.024 133.123 140.093 132.793 140.232C132.473 140.371 132.19 140.568 131.945 140.824C131.71 141.08 131.523 141.384 131.385 141.736C131.257 142.088 131.193 142.477 131.193 142.904V143.16C131.193 143.608 131.257 144.008 131.385 144.36C131.523 144.712 131.71 145.016 131.945 145.272C132.19 145.517 132.473 145.709 132.793 145.848C133.113 145.976 133.465 146.04 133.849 146.04ZM150.483 139.064H152.979V135.8H154.227V139.064H157.299V140.216H154.227V145.368C154.227 145.688 154.371 145.848 154.659 145.848H156.915V147H154.211C153.848 147 153.549 146.883 153.315 146.648C153.091 146.413 152.979 146.115 152.979 145.752V140.216H150.483V139.064ZM168.439 143.128C168.439 143.789 168.327 144.376 168.103 144.888C167.89 145.389 167.602 145.816 167.239 146.168C166.877 146.509 166.45 146.771 165.959 146.952C165.479 147.133 164.978 147.224 164.455 147.224C163.922 147.224 163.415 147.133 162.935 146.952C162.455 146.771 162.034 146.509 161.671 146.168C161.309 145.816 161.015 145.389 160.791 144.888C160.578 144.376 160.471 143.789 160.471 143.128V142.936C160.471 142.285 160.578 141.709 160.791 141.208C161.015 140.696 161.309 140.264 161.671 139.912C162.045 139.56 162.471 139.293 162.951 139.112C163.431 138.931 163.933 138.84 164.455 138.84C164.978 138.84 165.479 138.931 165.959 139.112C166.439 139.293 166.861 139.56 167.223 139.912C167.597 140.264 167.89 140.696 168.103 141.208C168.327 141.709 168.439 142.285 168.439 142.936V143.128ZM164.455 146.04C164.839 146.04 165.191 145.976 165.511 145.848C165.842 145.709 166.13 145.512 166.375 145.256C166.621 145 166.813 144.696 166.951 144.344C167.09 143.981 167.159 143.576 167.159 143.128V142.936C167.159 142.509 167.09 142.12 166.951 141.768C166.813 141.405 166.621 141.096 166.375 140.84C166.13 140.584 165.842 140.387 165.511 140.248C165.181 140.099 164.829 140.024 164.455 140.024C164.082 140.024 163.73 140.099 163.399 140.248C163.069 140.387 162.781 140.584 162.535 140.84C162.29 141.096 162.098 141.405 161.959 141.768C161.821 142.12 161.751 142.509 161.751 142.936V143.128C161.751 143.576 161.821 143.981 161.959 144.344C162.098 144.696 162.29 145 162.535 145.256C162.781 145.512 163.063 145.709 163.383 145.848C163.714 145.976 164.071 146.04 164.455 146.04ZM181.073 139.064H183.569V135.8H184.817V139.064H187.889V140.216H184.817V145.368C184.817 145.688 184.961 145.848 185.249 145.848H187.505V147H184.801C184.438 147 184.14 146.883 183.905 146.648C183.681 146.413 183.569 146.115 183.569 145.752V140.216H181.073V139.064ZM192.79 147H191.542V135.8H192.79V140.504H192.982C193.227 139.992 193.569 139.587 194.006 139.288C194.454 138.989 194.998 138.84 195.638 138.84C196.502 138.84 197.201 139.128 197.734 139.704C198.278 140.269 198.55 141.123 198.55 142.264V147H197.302V142.52C197.302 141.688 197.115 141.064 196.742 140.648C196.369 140.232 195.862 140.024 195.222 140.024C194.465 140.024 193.867 140.285 193.43 140.808C193.003 141.32 192.79 142.008 192.79 142.872V147ZM202.651 143.416C202.683 144.205 202.928 144.84 203.387 145.32C203.846 145.8 204.486 146.04 205.307 146.04C205.68 146.04 206.006 145.997 206.283 145.912C206.56 145.827 206.795 145.709 206.987 145.56C207.19 145.411 207.35 145.24 207.467 145.048C207.595 144.845 207.696 144.632 207.771 144.408L208.955 144.728C208.731 145.464 208.315 146.067 207.707 146.536C207.11 146.995 206.299 147.224 205.275 147.224C204.71 147.224 204.187 147.128 203.707 146.936C203.238 146.733 202.832 146.451 202.491 146.088C202.15 145.725 201.883 145.293 201.691 144.792C201.499 144.291 201.403 143.736 201.403 143.128V142.744C201.403 142.189 201.499 141.672 201.691 141.192C201.894 140.712 202.171 140.301 202.523 139.96C202.875 139.608 203.286 139.336 203.755 139.144C204.235 138.941 204.752 138.84 205.307 138.84C205.958 138.84 206.518 138.963 206.987 139.208C207.467 139.443 207.856 139.736 208.155 140.088C208.464 140.44 208.688 140.824 208.827 141.24C208.976 141.656 209.051 142.04 209.051 142.392V143.416H202.651ZM205.307 140.024C204.955 140.024 204.624 140.083 204.315 140.2C204.016 140.307 203.75 140.461 203.515 140.664C203.291 140.867 203.104 141.107 202.955 141.384C202.816 141.651 202.726 141.944 202.683 142.264H207.803C207.782 141.923 207.696 141.613 207.547 141.336C207.408 141.059 207.222 140.824 206.987 140.632C206.763 140.44 206.502 140.291 206.203 140.184C205.915 140.077 205.616 140.024 205.307 140.024ZM226.853 147H224.389L221.621 139.064H223.093L225.525 146.424H225.717L228.149 139.064H229.621L226.853 147ZM233.242 143.416C233.274 144.205 233.519 144.84 233.978 145.32C234.436 145.8 235.076 146.04 235.898 146.04C236.271 146.04 236.596 145.997 236.874 145.912C237.151 145.827 237.386 145.709 237.578 145.56C237.78 145.411 237.94 145.24 238.058 145.048C238.186 144.845 238.287 144.632 238.362 144.408L239.546 144.728C239.322 145.464 238.906 146.067 238.298 146.536C237.7 146.995 236.89 147.224 235.866 147.224C235.3 147.224 234.778 147.128 234.298 146.936C233.828 146.733 233.423 146.451 233.082 146.088C232.74 145.725 232.474 145.293 232.282 144.792C232.09 144.291 231.993 143.736 231.993 143.128V142.744C231.993 142.189 232.09 141.672 232.282 141.192C232.484 140.712 232.762 140.301 233.114 139.96C233.466 139.608 233.876 139.336 234.346 139.144C234.826 138.941 235.343 138.84 235.898 138.84C236.548 138.84 237.108 138.963 237.578 139.208C238.058 139.443 238.447 139.736 238.746 140.088C239.055 140.44 239.279 140.824 239.418 141.24C239.567 141.656 239.642 142.04 239.642 142.392V143.416H233.242ZM235.898 140.024C235.546 140.024 235.215 140.083 234.906 140.2C234.607 140.307 234.34 140.461 234.106 140.664C233.882 140.867 233.695 141.107 233.546 141.384C233.407 141.651 233.316 141.944 233.274 142.264H238.394C238.372 141.923 238.287 141.613 238.138 141.336C237.999 141.059 237.812 140.824 237.578 140.632C237.354 140.44 237.092 140.291 236.794 140.184C236.506 140.077 236.207 140.024 235.898 140.024ZM243.774 147H242.526V139.064H243.774V140.408H243.966C244.457 139.363 245.31 138.84 246.526 138.84C247.444 138.84 248.174 139.128 248.718 139.704C249.262 140.269 249.534 141.123 249.534 142.264V147H248.286V142.52C248.286 141.688 248.1 141.064 247.726 140.648C247.353 140.232 246.846 140.024 246.206 140.024C245.449 140.024 244.852 140.285 244.414 140.808C243.988 141.32 243.774 142.008 243.774 142.872V147ZM258.387 139.064H259.635V147H258.387V145.56H258.195C257.939 146.072 257.603 146.477 257.187 146.776C256.771 147.075 256.243 147.224 255.603 147.224C255.166 147.224 254.761 147.149 254.387 147C254.025 146.861 253.71 146.648 253.443 146.36C253.187 146.072 252.985 145.715 252.835 145.288C252.697 144.861 252.627 144.365 252.627 143.8V139.064H253.875V143.64C253.875 144.472 254.046 145.08 254.387 145.464C254.729 145.848 255.251 146.04 255.955 146.04C256.713 146.04 257.305 145.784 257.731 145.272C258.169 144.749 258.387 144.056 258.387 143.192V139.064ZM263.832 143.416C263.864 144.205 264.109 144.84 264.568 145.32C265.027 145.8 265.667 146.04 266.488 146.04C266.861 146.04 267.187 145.997 267.464 145.912C267.741 145.827 267.976 145.709 268.168 145.56C268.371 145.411 268.531 145.24 268.648 145.048C268.776 144.845 268.877 144.632 268.952 144.408L270.136 144.728C269.912 145.464 269.496 146.067 268.888 146.536C268.291 146.995 267.48 147.224 266.456 147.224C265.891 147.224 265.368 147.128 264.888 146.936C264.419 146.733 264.013 146.451 263.672 146.088C263.331 145.725 263.064 145.293 262.872 144.792C262.68 144.291 262.584 143.736 262.584 143.128V142.744C262.584 142.189 262.68 141.672 262.872 141.192C263.075 140.712 263.352 140.301 263.704 139.96C264.056 139.608 264.467 139.336 264.936 139.144C265.416 138.941 265.933 138.84 266.488 138.84C267.139 138.84 267.699 138.963 268.168 139.208C268.648 139.443 269.037 139.736 269.336 140.088C269.645 140.44 269.869 140.824 270.008 141.24C270.157 141.656 270.232 142.04 270.232 142.392V143.416H263.832ZM266.488 140.024C266.136 140.024 265.805 140.083 265.496 140.2C265.197 140.307 264.931 140.461 264.696 140.664C264.472 140.867 264.285 141.107 264.136 141.384C263.997 141.651 263.907 141.944 263.864 142.264H268.984C268.963 141.923 268.877 141.613 268.728 141.336C268.589 141.059 268.403 140.824 268.168 140.632C267.944 140.44 267.683 140.291 267.384 140.184C267.096 140.077 266.797 140.024 266.488 140.024ZM275.501 146.104C275.501 145.795 275.608 145.533 275.821 145.32C276.045 145.096 276.312 144.984 276.621 144.984C276.93 144.984 277.192 145.096 277.405 145.32C277.629 145.533 277.741 145.795 277.741 146.104C277.741 146.413 277.629 146.68 277.405 146.904C277.192 147.117 276.93 147.224 276.621 147.224C276.312 147.224 276.045 147.117 275.821 146.904C275.608 146.68 275.501 146.413 275.501 146.104Z" fill="white" fill-opacity="0.95"/>
<path d="M36.86 42H34.22V37.8C34.22 37.48 34.1333 37.22 33.96 37.02C33.8 36.82 33.5267 36.72 33.14 36.72H30.1V42H27.46V28H32.82C33.54 28 34.1733 28.1 34.72 28.3C35.2667 28.5 35.72 28.78 36.08 29.14C36.4533 29.4867 36.7333 29.8933 36.92 30.36C37.12 30.8267 37.22 31.3267 37.22 31.86V32.34C37.22 32.9133 37.0667 33.4533 36.76 33.96C36.4533 34.4533 35.98 34.8333 35.34 35.1V35.46C35.8067 35.5133 36.1733 35.6933 36.44 36C36.72 36.3067 36.86 36.6933 36.86 37.16V42ZM30.1 34.2H32.62C33.26 34.2 33.7467 34.0533 34.08 33.76C34.4133 33.4533 34.58 33.0267 34.58 32.48V32.24C34.58 31.7733 34.4133 31.3733 34.08 31.04C33.7467 30.6933 33.26 30.52 32.62 30.52H30.1V34.2ZM47.1261 32.08H49.6461V42H47.1261V40.56H46.7661C46.3261 41.7067 45.3794 42.28 43.9261 42.28C43.4328 42.28 42.9728 42.2 42.5461 42.04C42.1194 41.88 41.7461 41.6333 41.4261 41.3C41.1061 40.9667 40.8528 40.5533 40.6661 40.06C40.4928 39.5533 40.4061 38.96 40.4061 38.28V32.08H42.9261V37.76C42.9261 38.4667 43.0928 39.02 43.4261 39.42C43.7594 39.8067 44.2594 40 44.9261 40C45.6861 40 46.2394 39.76 46.5861 39.28C46.9461 38.7867 47.1261 38.12 47.1261 37.28V32.08ZM53.1922 39.6H56.6722V30.4H53.3122V28H59.1922V39.6H62.4322V42H53.1922V39.6ZM68.3183 37.86C68.3316 38.1533 68.3983 38.4267 68.5183 38.68C68.6516 38.92 68.8249 39.1333 69.0383 39.32C69.2649 39.4933 69.5183 39.6333 69.7983 39.74C70.0916 39.8333 70.3983 39.88 70.7183 39.88C71.3449 39.88 71.8249 39.7733 72.1583 39.56C72.4916 39.3333 72.7316 39.0667 72.8783 38.76L75.0383 39.96C74.9183 40.2133 74.7516 40.48 74.5383 40.76C74.3249 41.0267 74.0449 41.2733 73.6983 41.5C73.3649 41.7267 72.9516 41.9133 72.4583 42.06C71.9783 42.2067 71.4116 42.28 70.7583 42.28C70.0116 42.28 69.3316 42.16 68.7183 41.92C68.1049 41.68 67.5716 41.3333 67.1183 40.88C66.6783 40.4267 66.3316 39.8733 66.0783 39.22C65.8383 38.5667 65.7183 37.8267 65.7183 37V36.88C65.7183 36.12 65.8449 35.4267 66.0983 34.8C66.3649 34.1733 66.7249 33.64 67.1783 33.2C67.6316 32.76 68.1583 32.42 68.7583 32.18C69.3716 31.9267 70.0249 31.8 70.7183 31.8C71.5716 31.8 72.3049 31.9533 72.9183 32.26C73.5316 32.5533 74.0383 32.9333 74.4383 33.4C74.8383 33.8533 75.1316 34.36 75.3183 34.92C75.5049 35.4667 75.5983 36 75.5983 36.52V37.86H68.3183ZM70.6983 34.08C70.0583 34.08 69.5383 34.2467 69.1383 34.58C68.7383 34.9 68.4783 35.2733 68.3583 35.7H73.0383C72.9583 35.2333 72.7049 34.8467 72.2783 34.54C71.8649 34.2333 71.3383 34.08 70.6983 34.08ZM80.3844 35.36H86.6244V37.64H80.3844V35.36ZM91.4305 28H101.27V32.12L96.2105 39.52C95.9438 39.92 95.7305 40.2667 95.5705 40.56C95.4238 40.84 95.3505 41.16 95.3505 41.52V42H92.5105V41.4C92.5105 41.1333 92.5305 40.8933 92.5705 40.68C92.6105 40.4667 92.6705 40.2533 92.7505 40.04C92.8438 39.8267 92.9638 39.6 93.1105 39.36C93.2571 39.12 93.4371 38.84 93.6505 38.52L98.8705 30.88V30.52H91.4305V28Z" fill="white"/>
<defs>
<filter id="filter0_b_553_237" x="-30" y="-30" width="404" height="265" filterUnits="userSpaceOnUse" color-interpolation-filters="sRGB">
<feFlood flood-opacity="0" result="BackgroundImageFix"/>
<feGaussianBlur in="BackgroundImageFix" stdDeviation="15"/>
<feComposite in2="SourceAlpha" operator="in" result="effect1_backgroundBlur_553_237"/>
<feBlend mode="normal" in="SourceGraphic" in2="effect1_backgroundBlur_553_237" result="shape"/>
</filter>
</defs>
</svg>
