<svg width="305" height="205" viewBox="0 0 305 205" fill="none" xmlns="http://www.w3.org/2000/svg">
<g filter="url(#filter0_b_553_229)">
<rect width="305" height="205" rx="11" fill="white" fill-opacity="0.05"/>
</g>
<path d="M40.704 76.392V81H39.36V69.8H43.36C43.936 69.8 44.4373 69.8853 44.864 70.056C45.2907 70.216 45.6427 70.4347 45.92 70.712C46.208 70.9893 46.4213 71.3147 46.56 71.688C46.7093 72.0507 46.784 72.4347 46.784 72.84V73.32C46.784 73.7253 46.7093 74.1147 46.56 74.488C46.4213 74.8613 46.208 75.192 45.92 75.48C45.632 75.7573 45.2747 75.9813 44.848 76.152C44.4213 76.312 43.9253 76.392 43.36 76.392H40.704ZM40.704 75.144H43.2C44.6933 75.144 45.44 74.504 45.44 73.224V72.936C45.44 72.3707 45.2533 71.9173 44.88 71.576C44.5173 71.224 43.9573 71.048 43.2 71.048H40.704V75.144ZM55.3489 79.656H55.1569C54.9009 80.1893 54.5435 80.584 54.0849 80.84C53.6369 81.096 53.1622 81.224 52.6609 81.224C52.1382 81.224 51.6529 81.1387 51.2049 80.968C50.7569 80.7867 50.3622 80.5253 50.0209 80.184C49.6902 79.832 49.4289 79.4053 49.2369 78.904C49.0449 78.4027 48.9489 77.8213 48.9489 77.16V76.904C48.9489 76.2533 49.0449 75.6773 49.2369 75.176C49.4289 74.6747 49.6902 74.2533 50.0209 73.912C50.3622 73.56 50.7569 73.2933 51.2049 73.112C51.6529 72.9307 52.1275 72.84 52.6289 72.84C53.1729 72.84 53.6635 72.9627 54.1009 73.208C54.5489 73.4427 54.9009 73.8107 55.1569 74.312H55.3489V73.064H56.5969V79.368C56.5969 79.688 56.7409 79.848 57.0289 79.848H57.4289V81H56.5809C56.2182 81 55.9195 80.8827 55.6849 80.648C55.4609 80.4133 55.3489 80.1147 55.3489 79.752V79.656ZM52.7889 80.04C53.1622 80.04 53.5035 79.9707 53.8129 79.832C54.1329 79.6933 54.4049 79.496 54.6289 79.24C54.8529 78.984 55.0289 78.68 55.1569 78.328C55.2849 77.9653 55.3489 77.5653 55.3489 77.128V76.936C55.3489 76.5093 55.2849 76.12 55.1569 75.768C55.0289 75.4053 54.8475 75.096 54.6129 74.84C54.3889 74.584 54.1169 74.3867 53.7969 74.248C53.4875 74.0987 53.1515 74.024 52.7889 74.024C52.4155 74.024 52.0742 74.0933 51.7649 74.232C51.4555 74.3707 51.1835 74.568 50.9489 74.824C50.7249 75.0693 50.5489 75.3733 50.4209 75.736C50.2929 76.088 50.2289 76.4773 50.2289 76.904V77.16C50.2289 78.0667 50.4635 78.776 50.9329 79.288C51.4129 79.7893 52.0315 80.04 52.7889 80.04ZM59.3377 73.064H62.2177V74.12H62.4097C62.6124 73.6827 62.9004 73.3627 63.2737 73.16C63.6471 72.9467 64.0737 72.84 64.5537 72.84C65.3537 72.84 65.9991 73.1013 66.4897 73.624C66.9804 74.1467 67.2417 74.9093 67.2737 75.912L65.9617 76.104C65.9617 75.368 65.7857 74.84 65.4337 74.52C65.0817 74.1893 64.6497 74.024 64.1377 74.024C63.8071 74.024 63.5191 74.088 63.2737 74.216C63.0391 74.344 62.8417 74.52 62.6817 74.744C62.5217 74.968 62.4044 75.2293 62.3297 75.528C62.2551 75.8267 62.2177 76.1467 62.2177 76.488V79.848H64.2337V81H59.1457V79.848H60.9697V74.216H59.3377V73.064ZM69.7106 73.064H72.2066V69.8H73.4546V73.064H76.5266V74.216H73.4546V79.368C73.4546 79.688 73.5986 79.848 73.8866 79.848H76.1426V81H73.4386C73.076 81 72.7773 80.8827 72.5426 80.648C72.3186 80.4133 72.2066 80.1147 72.2066 79.752V74.216H69.7106V73.064ZM82.6435 70.696C82.6435 70.3867 82.7502 70.1253 82.9635 69.912C83.1875 69.688 83.4542 69.576 83.7635 69.576C84.0728 69.576 84.3342 69.688 84.5475 69.912C84.7715 70.1253 84.8835 70.3867 84.8835 70.696C84.8835 71.0053 84.7715 71.272 84.5475 71.496C84.3342 71.7093 84.0728 71.816 83.7635 71.816C83.4542 71.816 83.1875 71.7093 82.9635 71.496C82.7502 71.272 82.6435 71.0053 82.6435 70.696ZM80.3715 79.848H83.1555V74.216H80.6595V73.064H84.4035V79.848H86.9955V81H80.3715V79.848ZM97.8004 78.184C97.715 78.6213 97.5657 79.0267 97.3524 79.4C97.1497 79.7733 96.8884 80.0987 96.5684 80.376C96.2484 80.6427 95.875 80.8507 95.4484 81C95.0217 81.1493 94.547 81.224 94.0244 81.224C93.4697 81.224 92.9417 81.1333 92.4404 80.952C91.9497 80.7707 91.5177 80.5093 91.1444 80.168C90.771 79.816 90.4724 79.3893 90.2484 78.888C90.035 78.3867 89.9284 77.8107 89.9284 77.16V76.968C89.9284 76.328 90.035 75.752 90.2484 75.24C90.4724 74.728 90.771 74.296 91.1444 73.944C91.5177 73.592 91.9497 73.32 92.4404 73.128C92.9417 72.936 93.4697 72.84 94.0244 72.84C94.5257 72.84 94.9897 72.9147 95.4164 73.064C95.843 73.2133 96.2164 73.4267 96.5364 73.704C96.867 73.9707 97.1337 74.2907 97.3364 74.664C97.5497 75.0373 97.6937 75.4427 97.7684 75.88L96.5204 76.168C96.4884 75.8907 96.4084 75.624 96.2804 75.368C96.163 75.1013 95.9977 74.872 95.7844 74.68C95.5817 74.4773 95.331 74.3173 95.0324 74.2C94.7337 74.0827 94.387 74.024 93.9924 74.024C93.6084 74.024 93.2457 74.0987 92.9044 74.248C92.5737 74.3867 92.2804 74.5893 92.0244 74.856C91.7684 75.112 91.5657 75.4213 91.4164 75.784C91.2777 76.1467 91.2084 76.5413 91.2084 76.968V77.16C91.2084 77.608 91.2777 78.0133 91.4164 78.376C91.5657 78.728 91.7684 79.0267 92.0244 79.272C92.2804 79.5173 92.579 79.7093 92.9204 79.848C93.2617 79.976 93.6297 80.04 94.0244 80.04C94.419 80.04 94.7604 79.9813 95.0484 79.864C95.347 79.736 95.5977 79.576 95.8004 79.384C96.0137 79.1813 96.179 78.952 96.2964 78.696C96.4244 78.44 96.5097 78.1733 96.5524 77.896L97.8004 78.184ZM103.037 70.696C103.037 70.3867 103.144 70.1253 103.357 69.912C103.581 69.688 103.848 69.576 104.157 69.576C104.467 69.576 104.728 69.688 104.941 69.912C105.165 70.1253 105.277 70.3867 105.277 70.696C105.277 71.0053 105.165 71.272 104.941 71.496C104.728 71.7093 104.467 71.816 104.157 71.816C103.848 71.816 103.581 71.7093 103.357 71.496C103.144 71.272 103.037 71.0053 103.037 70.696ZM100.765 79.848H103.549V74.216H101.053V73.064H104.797V79.848H107.389V81H100.765V79.848ZM111.73 84.2H110.482V73.064H111.73V74.312H111.922C112.199 73.832 112.583 73.4693 113.074 73.224C113.565 72.968 114.098 72.84 114.674 72.84C115.165 72.84 115.629 72.9307 116.066 73.112C116.503 73.2933 116.887 73.5547 117.218 73.896C117.559 74.2373 117.826 74.6587 118.018 75.16C118.221 75.6613 118.322 76.232 118.322 76.872V77.192C118.322 77.8427 118.226 78.4187 118.034 78.92C117.842 79.4213 117.575 79.8427 117.234 80.184C116.903 80.5253 116.514 80.7867 116.066 80.968C115.618 81.1387 115.143 81.224 114.642 81.224C114.386 81.224 114.125 81.192 113.858 81.128C113.591 81.0747 113.335 80.9893 113.09 80.872C112.855 80.744 112.637 80.5947 112.434 80.424C112.231 80.2427 112.061 80.0293 111.922 79.784H111.73V84.2ZM114.386 80.04C114.77 80.04 115.122 79.976 115.442 79.848C115.762 79.7093 116.039 79.5173 116.274 79.272C116.519 79.0267 116.706 78.728 116.834 78.376C116.973 78.024 117.042 77.6293 117.042 77.192V76.872C117.042 76.4453 116.973 76.0613 116.834 75.72C116.706 75.368 116.519 75.0693 116.274 74.824C116.039 74.568 115.757 74.3707 115.426 74.232C115.106 74.0933 114.759 74.024 114.386 74.024C114.013 74.024 113.666 74.0987 113.346 74.248C113.026 74.3867 112.743 74.584 112.498 74.84C112.263 75.096 112.077 75.4053 111.938 75.768C111.799 76.12 111.73 76.5093 111.73 76.936V77.128C111.73 77.5653 111.799 77.9653 111.938 78.328C112.077 78.68 112.263 78.984 112.498 79.24C112.743 79.496 113.026 79.6933 113.346 79.832C113.666 79.9707 114.013 80.04 114.386 80.04ZM126.727 79.656H126.535C126.279 80.1893 125.922 80.584 125.463 80.84C125.015 81.096 124.54 81.224 124.039 81.224C123.516 81.224 123.031 81.1387 122.583 80.968C122.135 80.7867 121.74 80.5253 121.399 80.184C121.068 79.832 120.807 79.4053 120.615 78.904C120.423 78.4027 120.327 77.8213 120.327 77.16V76.904C120.327 76.2533 120.423 75.6773 120.615 75.176C120.807 74.6747 121.068 74.2533 121.399 73.912C121.74 73.56 122.135 73.2933 122.583 73.112C123.031 72.9307 123.506 72.84 124.007 72.84C124.551 72.84 125.042 72.9627 125.479 73.208C125.927 73.4427 126.279 73.8107 126.535 74.312H126.727V73.064H127.975V79.368C127.975 79.688 128.119 79.848 128.407 79.848H128.807V81H127.959C127.596 81 127.298 80.8827 127.063 80.648C126.839 80.4133 126.727 80.1147 126.727 79.752V79.656ZM124.167 80.04C124.54 80.04 124.882 79.9707 125.191 79.832C125.511 79.6933 125.783 79.496 126.007 79.24C126.231 78.984 126.407 78.68 126.535 78.328C126.663 77.9653 126.727 77.5653 126.727 77.128V76.936C126.727 76.5093 126.663 76.12 126.535 75.768C126.407 75.4053 126.226 75.096 125.991 74.84C125.767 74.584 125.495 74.3867 125.175 74.248C124.866 74.0987 124.53 74.024 124.167 74.024C123.794 74.024 123.452 74.0933 123.143 74.232C122.834 74.3707 122.562 74.568 122.327 74.824C122.103 75.0693 121.927 75.3733 121.799 75.736C121.671 76.088 121.607 76.4773 121.607 76.904V77.16C121.607 78.0667 121.842 78.776 122.311 79.288C122.791 79.7893 123.41 80.04 124.167 80.04ZM132.412 81H131.164V73.064H132.412V74.408H132.604C133.095 73.3627 133.948 72.84 135.164 72.84C136.081 72.84 136.812 73.128 137.356 73.704C137.9 74.2693 138.172 75.1227 138.172 76.264V81H136.924V76.52C136.924 75.688 136.737 75.064 136.364 74.648C135.991 74.232 135.484 74.024 134.844 74.024C134.087 74.024 133.489 74.2853 133.052 74.808C132.625 75.32 132.412 76.008 132.412 76.872V81ZM141.089 73.064H143.585V69.8H144.833V73.064H147.905V74.216H144.833V79.368C144.833 79.688 144.977 79.848 145.265 79.848H147.521V81H144.817C144.454 81 144.155 80.8827 143.921 80.648C143.697 80.4133 143.585 80.1147 143.585 79.752V74.216H141.089V73.064ZM153.206 75.112C153.206 75.496 153.366 75.7893 153.686 75.992C154.016 76.1947 154.614 76.328 155.478 76.392C156.406 76.4667 157.11 76.6907 157.59 77.064C158.08 77.4267 158.326 77.96 158.326 78.664V78.76C158.326 79.144 158.246 79.4907 158.086 79.8C157.936 80.0987 157.723 80.3547 157.446 80.568C157.179 80.7813 156.848 80.9413 156.454 81.048C156.07 81.1653 155.648 81.224 155.19 81.224C154.571 81.224 154.038 81.144 153.59 80.984C153.152 80.8133 152.784 80.5947 152.486 80.328C152.198 80.0507 151.979 79.7413 151.83 79.4C151.68 79.048 151.595 78.696 151.574 78.344L152.758 78.056C152.811 78.664 153.046 79.1547 153.462 79.528C153.878 79.8907 154.432 80.072 155.126 80.072C155.712 80.072 156.182 79.96 156.534 79.736C156.896 79.5013 157.078 79.176 157.078 78.76C157.078 78.312 156.902 77.992 156.55 77.8C156.198 77.608 155.627 77.4853 154.838 77.432C153.92 77.368 153.216 77.1547 152.726 76.792C152.235 76.4293 151.99 75.9013 151.99 75.208V75.112C151.99 74.7387 152.07 74.4133 152.23 74.136C152.39 73.848 152.603 73.608 152.87 73.416C153.147 73.224 153.456 73.08 153.798 72.984C154.139 72.888 154.496 72.84 154.87 72.84C155.392 72.84 155.851 72.9147 156.246 73.064C156.64 73.2027 156.971 73.3893 157.238 73.624C157.504 73.848 157.707 74.1093 157.846 74.408C157.995 74.7067 158.091 75.0053 158.134 75.304L156.95 75.592C156.896 75.08 156.688 74.68 156.326 74.392C155.974 74.104 155.51 73.96 154.934 73.96C154.71 73.96 154.491 73.9867 154.278 74.04C154.075 74.0827 153.894 74.152 153.734 74.248C153.574 74.344 153.446 74.4667 153.35 74.616C153.254 74.7547 153.206 74.92 153.206 75.112ZM185.918 81H184.67V75.304C184.67 74.9307 184.584 74.6267 184.414 74.392C184.243 74.1467 183.971 74.024 183.598 74.024C183.246 74.024 182.958 74.1573 182.734 74.424C182.52 74.68 182.414 75.08 182.414 75.624V81H181.166V75.24C181.166 74.888 181.07 74.6 180.878 74.376C180.686 74.1413 180.43 74.024 180.11 74.024C179.726 74.024 179.427 74.1627 179.214 74.44C179.011 74.7173 178.91 75.08 178.91 75.528V81H177.662V73.064H178.91V73.928H179.102C179.24 73.5547 179.443 73.2827 179.71 73.112C179.976 72.9307 180.291 72.84 180.654 72.84C181.038 72.84 181.352 72.9413 181.598 73.144C181.854 73.3467 182.03 73.608 182.126 73.928H182.318C182.68 73.2027 183.256 72.84 184.046 72.84C184.643 72.84 185.102 73.032 185.422 73.416C185.752 73.7893 185.918 74.28 185.918 74.888V81ZM194.147 73.064H195.395V81H194.147V79.56H193.955C193.699 80.072 193.363 80.4773 192.947 80.776C192.531 81.0747 192.003 81.224 191.363 81.224C190.925 81.224 190.52 81.1493 190.147 81C189.784 80.8613 189.469 80.648 189.203 80.36C188.947 80.072 188.744 79.7147 188.595 79.288C188.456 78.8613 188.387 78.3653 188.387 77.8V73.064H189.635V77.64C189.635 78.472 189.805 79.08 190.147 79.464C190.488 79.848 191.011 80.04 191.715 80.04C192.472 80.04 193.064 79.784 193.491 79.272C193.928 78.7493 194.147 78.056 194.147 77.192V73.064ZM200.328 75.112C200.328 75.496 200.488 75.7893 200.808 75.992C201.138 76.1947 201.736 76.328 202.6 76.392C203.528 76.4667 204.232 76.6907 204.712 77.064C205.202 77.4267 205.448 77.96 205.448 78.664V78.76C205.448 79.144 205.368 79.4907 205.208 79.8C205.058 80.0987 204.845 80.3547 204.568 80.568C204.301 80.7813 203.97 80.9413 203.576 81.048C203.192 81.1653 202.77 81.224 202.312 81.224C201.693 81.224 201.16 81.144 200.712 80.984C200.274 80.8133 199.906 80.5947 199.608 80.328C199.32 80.0507 199.101 79.7413 198.952 79.4C198.802 79.048 198.717 78.696 198.696 78.344L199.88 78.056C199.933 78.664 200.168 79.1547 200.584 79.528C201 79.8907 201.554 80.072 202.248 80.072C202.834 80.072 203.304 79.96 203.656 79.736C204.018 79.5013 204.2 79.176 204.2 78.76C204.2 78.312 204.024 77.992 203.672 77.8C203.32 77.608 202.749 77.4853 201.96 77.432C201.042 77.368 200.338 77.1547 199.848 76.792C199.357 76.4293 199.112 75.9013 199.112 75.208V75.112C199.112 74.7387 199.192 74.4133 199.352 74.136C199.512 73.848 199.725 73.608 199.992 73.416C200.269 73.224 200.578 73.08 200.92 72.984C201.261 72.888 201.618 72.84 201.992 72.84C202.514 72.84 202.973 72.9147 203.368 73.064C203.762 73.2027 204.093 73.3893 204.36 73.624C204.626 73.848 204.829 74.1093 204.968 74.408C205.117 74.7067 205.213 75.0053 205.256 75.304L204.072 75.592C204.018 75.08 203.81 74.68 203.448 74.392C203.096 74.104 202.632 73.96 202.056 73.96C201.832 73.96 201.613 73.9867 201.4 74.04C201.197 74.0827 201.016 74.152 200.856 74.248C200.696 74.344 200.568 74.4667 200.472 74.616C200.376 74.7547 200.328 74.92 200.328 75.112ZM208.604 73.064H211.1V69.8H212.348V73.064H215.42V74.216H212.348V79.368C212.348 79.688 212.492 79.848 212.78 79.848H215.036V81H212.332C211.97 81 211.671 80.8827 211.436 80.648C211.212 80.4133 211.1 80.1147 211.1 79.752V74.216H208.604V73.064ZM235.332 73.064H237.828V69.8H239.076V73.064H242.148V74.216H239.076V79.368C239.076 79.688 239.22 79.848 239.508 79.848H241.764V81H239.06C238.698 81 238.399 80.8827 238.164 80.648C237.94 80.4133 237.828 80.1147 237.828 79.752V74.216H235.332V73.064ZM251.561 79.656H251.369C251.113 80.1893 250.756 80.584 250.297 80.84C249.849 81.096 249.375 81.224 248.873 81.224C248.351 81.224 247.865 81.1387 247.417 80.968C246.969 80.7867 246.575 80.5253 246.233 80.184C245.903 79.832 245.641 79.4053 245.449 78.904C245.257 78.4027 245.161 77.8213 245.161 77.16V76.904C245.161 76.2533 245.257 75.6773 245.449 75.176C245.641 74.6747 245.903 74.2533 246.233 73.912C246.575 73.56 246.969 73.2933 247.417 73.112C247.865 72.9307 248.34 72.84 248.841 72.84C249.385 72.84 249.876 72.9627 250.313 73.208C250.761 73.4427 251.113 73.8107 251.369 74.312H251.561V73.064H252.809V79.368C252.809 79.688 252.953 79.848 253.241 79.848H253.641V81H252.793C252.431 81 252.132 80.8827 251.897 80.648C251.673 80.4133 251.561 80.1147 251.561 79.752V79.656ZM249.001 80.04C249.375 80.04 249.716 79.9707 250.025 79.832C250.345 79.6933 250.617 79.496 250.841 79.24C251.065 78.984 251.241 78.68 251.369 78.328C251.497 77.9653 251.561 77.5653 251.561 77.128V76.936C251.561 76.5093 251.497 76.12 251.369 75.768C251.241 75.4053 251.06 75.096 250.825 74.84C250.601 74.584 250.329 74.3867 250.009 74.248C249.7 74.0987 249.364 74.024 249.001 74.024C248.628 74.024 248.287 74.0933 247.977 74.232C247.668 74.3707 247.396 74.568 247.161 74.824C246.937 75.0693 246.761 75.3733 246.633 75.736C246.505 76.088 246.441 76.4773 246.441 76.904V77.16C246.441 78.0667 246.676 78.776 247.145 79.288C247.625 79.7893 248.244 80.04 249.001 80.04ZM258.046 76.36H258.318L261.342 73.064H262.878V73.16L259.582 76.792V77.08L263.262 80.904V81H261.726L258.35 77.512H258.046V81H256.798V69.8H258.046V76.36ZM267.107 77.416C267.139 78.2053 267.384 78.84 267.843 79.32C268.302 79.8 268.942 80.04 269.763 80.04C270.136 80.04 270.462 79.9973 270.739 79.912C271.016 79.8267 271.251 79.7093 271.443 79.56C271.646 79.4107 271.806 79.24 271.923 79.048C272.051 78.8453 272.152 78.632 272.227 78.408L273.411 78.728C273.187 79.464 272.771 80.0667 272.163 80.536C271.566 80.9947 270.755 81.224 269.731 81.224C269.166 81.224 268.643 81.128 268.163 80.936C267.694 80.7333 267.288 80.4507 266.947 80.088C266.606 79.7253 266.339 79.2933 266.147 78.792C265.955 78.2907 265.859 77.736 265.859 77.128V76.744C265.859 76.1893 265.955 75.672 266.147 75.192C266.35 74.712 266.627 74.3013 266.979 73.96C267.331 73.608 267.742 73.336 268.211 73.144C268.691 72.9413 269.208 72.84 269.763 72.84C270.414 72.84 270.974 72.9627 271.443 73.208C271.923 73.4427 272.312 73.736 272.611 74.088C272.92 74.44 273.144 74.824 273.283 75.24C273.432 75.656 273.507 76.04 273.507 76.392V77.416H267.107ZM269.763 74.024C269.411 74.024 269.08 74.0827 268.771 74.2C268.472 74.3067 268.206 74.4613 267.971 74.664C267.747 74.8667 267.56 75.1067 267.411 75.384C267.272 75.6507 267.182 75.944 267.139 76.264H272.259C272.238 75.9227 272.152 75.6133 272.003 75.336C271.864 75.0587 271.678 74.824 271.443 74.632C271.219 74.44 270.958 74.2907 270.659 74.184C270.371 74.0773 270.072 74.024 269.763 74.024ZM45.152 108.656H44.96C44.704 109.189 44.3467 109.584 43.888 109.84C43.44 110.096 42.9653 110.224 42.464 110.224C41.9413 110.224 41.456 110.139 41.008 109.968C40.56 109.787 40.1653 109.525 39.824 109.184C39.4933 108.832 39.232 108.405 39.04 107.904C38.848 107.403 38.752 106.821 38.752 106.16V105.904C38.752 105.253 38.848 104.677 39.04 104.176C39.232 103.675 39.4933 103.253 39.824 102.912C40.1653 102.56 40.56 102.293 41.008 102.112C41.456 101.931 41.9307 101.84 42.432 101.84C42.976 101.84 43.4667 101.963 43.904 102.208C44.352 102.443 44.704 102.811 44.96 103.312H45.152V102.064H46.4V108.368C46.4 108.688 46.544 108.848 46.832 108.848H47.232V110H46.384C46.0213 110 45.7227 109.883 45.488 109.648C45.264 109.413 45.152 109.115 45.152 108.752V108.656ZM42.592 109.04C42.9653 109.04 43.3067 108.971 43.616 108.832C43.936 108.693 44.208 108.496 44.432 108.24C44.656 107.984 44.832 107.68 44.96 107.328C45.088 106.965 45.152 106.565 45.152 106.128V105.936C45.152 105.509 45.088 105.12 44.96 104.768C44.832 104.405 44.6507 104.096 44.416 103.84C44.192 103.584 43.92 103.387 43.6 103.248C43.2907 103.099 42.9547 103.024 42.592 103.024C42.2187 103.024 41.8773 103.093 41.568 103.232C41.2587 103.371 40.9867 103.568 40.752 103.824C40.528 104.069 40.352 104.373 40.224 104.736C40.096 105.088 40.032 105.477 40.032 105.904V106.16C40.032 107.067 40.2667 107.776 40.736 108.288C41.216 108.789 41.8347 109.04 42.592 109.04ZM69.6994 104.112C69.6994 104.496 69.8594 104.789 70.1794 104.992C70.51 105.195 71.1074 105.328 71.9714 105.392C72.8994 105.467 73.6034 105.691 74.0834 106.064C74.574 106.427 74.8194 106.96 74.8194 107.664V107.76C74.8194 108.144 74.7394 108.491 74.5794 108.8C74.43 109.099 74.2167 109.355 73.9394 109.568C73.6727 109.781 73.342 109.941 72.9474 110.048C72.5634 110.165 72.142 110.224 71.6834 110.224C71.0647 110.224 70.5314 110.144 70.0834 109.984C69.646 109.813 69.278 109.595 68.9794 109.328C68.6914 109.051 68.4727 108.741 68.3234 108.4C68.174 108.048 68.0887 107.696 68.0674 107.344L69.2514 107.056C69.3047 107.664 69.5394 108.155 69.9554 108.528C70.3714 108.891 70.926 109.072 71.6194 109.072C72.206 109.072 72.6754 108.96 73.0274 108.736C73.39 108.501 73.5714 108.176 73.5714 107.76C73.5714 107.312 73.3954 106.992 73.0434 106.8C72.6914 106.608 72.1207 106.485 71.3314 106.432C70.414 106.368 69.71 106.155 69.2194 105.792C68.7287 105.429 68.4834 104.901 68.4834 104.208V104.112C68.4834 103.739 68.5634 103.413 68.7234 103.136C68.8834 102.848 69.0967 102.608 69.3634 102.416C69.6407 102.224 69.95 102.08 70.2914 101.984C70.6327 101.888 70.99 101.84 71.3634 101.84C71.886 101.84 72.3447 101.915 72.7394 102.064C73.134 102.203 73.4647 102.389 73.7314 102.624C73.998 102.848 74.2007 103.109 74.3394 103.408C74.4887 103.707 74.5847 104.005 74.6274 104.304L73.4434 104.592C73.39 104.08 73.182 103.68 72.8194 103.392C72.4674 103.104 72.0034 102.96 71.4274 102.96C71.2034 102.96 70.9847 102.987 70.7714 103.04C70.5687 103.083 70.3874 103.152 70.2274 103.248C70.0674 103.344 69.9394 103.467 69.8434 103.616C69.7474 103.755 69.6994 103.92 69.6994 104.112ZM79.1603 106.416C79.1923 107.205 79.4376 107.84 79.8963 108.32C80.3549 108.8 80.9949 109.04 81.8163 109.04C82.1896 109.04 82.5149 108.997 82.7923 108.912C83.0696 108.827 83.3043 108.709 83.4963 108.56C83.6989 108.411 83.8589 108.24 83.9763 108.048C84.1043 107.845 84.2056 107.632 84.2803 107.408L85.4643 107.728C85.2403 108.464 84.8243 109.067 84.2163 109.536C83.6189 109.995 82.8083 110.224 81.7843 110.224C81.2189 110.224 80.6963 110.128 80.2163 109.936C79.7469 109.733 79.3416 109.451 79.0003 109.088C78.6589 108.725 78.3923 108.293 78.2003 107.792C78.0083 107.291 77.9123 106.736 77.9123 106.128V105.744C77.9123 105.189 78.0083 104.672 78.2003 104.192C78.4029 103.712 78.6803 103.301 79.0323 102.96C79.3843 102.608 79.7949 102.336 80.2643 102.144C80.7443 101.941 81.2616 101.84 81.8163 101.84C82.4669 101.84 83.0269 101.963 83.4963 102.208C83.9763 102.443 84.3656 102.736 84.6643 103.088C84.9736 103.44 85.1976 103.824 85.3363 104.24C85.4856 104.656 85.5603 105.04 85.5603 105.392V106.416H79.1603ZM81.8163 103.024C81.4643 103.024 81.1336 103.083 80.8243 103.2C80.5256 103.307 80.2589 103.461 80.0243 103.664C79.8003 103.867 79.6136 104.107 79.4643 104.384C79.3256 104.651 79.2349 104.944 79.1923 105.264H84.3123C84.2909 104.923 84.2056 104.613 84.0563 104.336C83.9176 104.059 83.7309 103.824 83.4963 103.632C83.2723 103.44 83.0109 103.291 82.7123 103.184C82.4243 103.077 82.1256 103.024 81.8163 103.024ZM88.4451 108.848H91.3251V99.952H88.5411V98.8H92.5731V108.848H95.4531V110H88.4451V108.848ZM103.394 99.696C103.394 99.3867 103.501 99.1253 103.714 98.912C103.938 98.688 104.205 98.576 104.514 98.576C104.823 98.576 105.085 98.688 105.298 98.912C105.522 99.1253 105.634 99.3867 105.634 99.696C105.634 100.005 105.522 100.272 105.298 100.496C105.085 100.709 104.823 100.816 104.514 100.816C104.205 100.816 103.938 100.709 103.714 100.496C103.501 100.272 103.394 100.005 103.394 99.696ZM103.906 110V103.216H101.138V110H99.89V103.216H98.018V102.064H99.89V100.368C99.89 100.005 100.002 99.7067 100.226 99.472C100.461 99.2373 100.759 99.12 101.122 99.12H102.818V100.272H101.57C101.282 100.272 101.138 100.432 101.138 100.752V102.064H105.154V110H103.906ZM109.751 106.416C109.783 107.205 110.028 107.84 110.487 108.32C110.946 108.8 111.586 109.04 112.407 109.04C112.78 109.04 113.106 108.997 113.383 108.912C113.66 108.827 113.895 108.709 114.087 108.56C114.29 108.411 114.45 108.24 114.567 108.048C114.695 107.845 114.796 107.632 114.871 107.408L116.055 107.728C115.831 108.464 115.415 109.067 114.807 109.536C114.21 109.995 113.399 110.224 112.375 110.224C111.81 110.224 111.287 110.128 110.807 109.936C110.338 109.733 109.932 109.451 109.591 109.088C109.25 108.725 108.983 108.293 108.791 107.792C108.599 107.291 108.503 106.736 108.503 106.128V105.744C108.503 105.189 108.599 104.672 108.791 104.192C108.994 103.712 109.271 103.301 109.623 102.96C109.975 102.608 110.386 102.336 110.855 102.144C111.335 101.941 111.852 101.84 112.407 101.84C113.058 101.84 113.618 101.963 114.087 102.208C114.567 102.443 114.956 102.736 115.255 103.088C115.564 103.44 115.788 103.824 115.927 104.24C116.076 104.656 116.151 105.04 116.151 105.392V106.416H109.751ZM112.407 103.024C112.055 103.024 111.724 103.083 111.415 103.2C111.116 103.307 110.85 103.461 110.615 103.664C110.391 103.867 110.204 104.107 110.055 104.384C109.916 104.651 109.826 104.944 109.783 105.264H114.903C114.882 104.923 114.796 104.613 114.647 104.336C114.508 104.059 114.322 103.824 114.087 103.632C113.863 103.44 113.602 103.291 113.303 103.184C113.015 103.077 112.716 103.024 112.407 103.024ZM144.362 110H142.058L141.098 102.64H140.906L139.946 110H137.642L136.394 102.064H137.674L138.73 109.424H138.922L139.85 102.064H142.154L143.082 109.424H143.274L144.33 102.064H145.61L144.362 110ZM150.159 99.696C150.159 99.3867 150.266 99.1253 150.479 98.912C150.703 98.688 150.97 98.576 151.279 98.576C151.588 98.576 151.85 98.688 152.063 98.912C152.287 99.1253 152.399 99.3867 152.399 99.696C152.399 100.005 152.287 100.272 152.063 100.496C151.85 100.709 151.588 100.816 151.279 100.816C150.97 100.816 150.703 100.709 150.479 100.496C150.266 100.272 150.159 100.005 150.159 99.696ZM147.887 108.848H150.671V103.216H148.175V102.064H151.919V108.848H154.511V110H147.887V108.848ZM157.62 102.064H160.116V98.8H161.364V102.064H164.436V103.216H161.364V108.368C161.364 108.688 161.508 108.848 161.796 108.848H164.052V110H161.348C160.985 110 160.687 109.883 160.452 109.648C160.228 109.413 160.116 109.115 160.116 108.752V103.216H157.62V102.064ZM169.337 110H168.089V98.8H169.337V103.504H169.529C169.774 102.992 170.116 102.587 170.553 102.288C171.001 101.989 171.545 101.84 172.185 101.84C173.049 101.84 173.748 102.128 174.281 102.704C174.825 103.269 175.097 104.123 175.097 105.264V110H173.849V105.52C173.849 104.688 173.662 104.064 173.289 103.648C172.916 103.232 172.409 103.024 171.769 103.024C171.012 103.024 170.414 103.285 169.977 103.808C169.55 104.32 169.337 105.008 169.337 105.872V110ZM197.66 106.416C197.692 107.205 197.938 107.84 198.396 108.32C198.855 108.8 199.495 109.04 200.316 109.04C200.69 109.04 201.015 108.997 201.292 108.912C201.57 108.827 201.804 108.709 201.996 108.56C202.199 108.411 202.359 108.24 202.476 108.048C202.604 107.845 202.706 107.632 202.78 107.408L203.964 107.728C203.74 108.464 203.324 109.067 202.716 109.536C202.119 109.995 201.308 110.224 200.284 110.224C199.719 110.224 199.196 110.128 198.716 109.936C198.247 109.733 197.842 109.451 197.5 109.088C197.159 108.725 196.892 108.293 196.7 107.792C196.508 107.291 196.412 106.736 196.412 106.128V105.744C196.412 105.189 196.508 104.672 196.7 104.192C196.903 103.712 197.18 103.301 197.532 102.96C197.884 102.608 198.295 102.336 198.764 102.144C199.244 101.941 199.762 101.84 200.316 101.84C200.967 101.84 201.527 101.963 201.996 102.208C202.476 102.443 202.866 102.736 203.164 103.088C203.474 103.44 203.698 103.824 203.836 104.24C203.986 104.656 204.06 105.04 204.06 105.392V106.416H197.66ZM200.316 103.024C199.964 103.024 199.634 103.083 199.324 103.2C199.026 103.307 198.759 103.461 198.524 103.664C198.3 103.867 198.114 104.107 197.964 104.384C197.826 104.651 197.735 104.944 197.692 105.264H202.812C202.791 104.923 202.706 104.613 202.556 104.336C202.418 104.059 202.231 103.824 201.996 103.632C201.772 103.44 201.511 103.291 201.212 103.184C200.924 103.077 200.626 103.024 200.316 103.024ZM212.705 108.656H212.513C212.257 109.189 211.9 109.584 211.441 109.84C210.993 110.096 210.518 110.224 210.017 110.224C209.494 110.224 209.009 110.139 208.561 109.968C208.113 109.787 207.718 109.525 207.377 109.184C207.046 108.832 206.785 108.405 206.593 107.904C206.401 107.403 206.305 106.821 206.305 106.16V105.904C206.305 105.253 206.401 104.677 206.593 104.176C206.785 103.675 207.046 103.253 207.377 102.912C207.718 102.56 208.113 102.293 208.561 102.112C209.009 101.931 209.484 101.84 209.985 101.84C210.529 101.84 211.02 101.963 211.457 102.208C211.905 102.443 212.257 102.811 212.513 103.312H212.705V102.064H213.953V108.368C213.953 108.688 214.097 108.848 214.385 108.848H214.785V110H213.937C213.574 110 213.276 109.883 213.041 109.648C212.817 109.413 212.705 109.115 212.705 108.752V108.656ZM210.145 109.04C210.518 109.04 210.86 108.971 211.169 108.832C211.489 108.693 211.761 108.496 211.985 108.24C212.209 107.984 212.385 107.68 212.513 107.328C212.641 106.965 212.705 106.565 212.705 106.128V105.936C212.705 105.509 212.641 105.12 212.513 104.768C212.385 104.405 212.204 104.096 211.969 103.84C211.745 103.584 211.473 103.387 211.153 103.248C210.844 103.099 210.508 103.024 210.145 103.024C209.772 103.024 209.43 103.093 209.121 103.232C208.812 103.371 208.54 103.568 208.305 103.824C208.081 104.069 207.905 104.373 207.777 104.736C207.649 105.088 207.585 105.477 207.585 105.904V106.16C207.585 107.067 207.82 107.776 208.289 108.288C208.769 108.789 209.388 109.04 210.145 109.04ZM224.566 107.184C224.481 107.621 224.331 108.027 224.118 108.4C223.915 108.773 223.654 109.099 223.334 109.376C223.014 109.643 222.641 109.851 222.214 110C221.787 110.149 221.313 110.224 220.79 110.224C220.235 110.224 219.707 110.133 219.206 109.952C218.715 109.771 218.283 109.509 217.91 109.168C217.537 108.816 217.238 108.389 217.014 107.888C216.801 107.387 216.694 106.811 216.694 106.16V105.968C216.694 105.328 216.801 104.752 217.014 104.24C217.238 103.728 217.537 103.296 217.91 102.944C218.283 102.592 218.715 102.32 219.206 102.128C219.707 101.936 220.235 101.84 220.79 101.84C221.291 101.84 221.755 101.915 222.182 102.064C222.609 102.213 222.982 102.427 223.302 102.704C223.633 102.971 223.899 103.291 224.102 103.664C224.315 104.037 224.459 104.443 224.534 104.88L223.286 105.168C223.254 104.891 223.174 104.624 223.046 104.368C222.929 104.101 222.763 103.872 222.55 103.68C222.347 103.477 222.097 103.317 221.798 103.2C221.499 103.083 221.153 103.024 220.758 103.024C220.374 103.024 220.011 103.099 219.67 103.248C219.339 103.387 219.046 103.589 218.79 103.856C218.534 104.112 218.331 104.421 218.182 104.784C218.043 105.147 217.974 105.541 217.974 105.968V106.16C217.974 106.608 218.043 107.013 218.182 107.376C218.331 107.728 218.534 108.027 218.79 108.272C219.046 108.517 219.345 108.709 219.686 108.848C220.027 108.976 220.395 109.04 220.79 109.04C221.185 109.04 221.526 108.981 221.814 108.864C222.113 108.736 222.363 108.576 222.566 108.384C222.779 108.181 222.945 107.952 223.062 107.696C223.19 107.44 223.275 107.173 223.318 106.896L224.566 107.184ZM228.587 110H227.339V98.8H228.587V103.504H228.779C229.024 102.992 229.366 102.587 229.803 102.288C230.251 101.989 230.795 101.84 231.435 101.84C232.299 101.84 232.998 102.128 233.531 102.704C234.075 103.269 234.347 104.123 234.347 105.264V110H233.099V105.52C233.099 104.688 232.912 104.064 232.539 103.648C232.166 103.232 231.659 103.024 231.019 103.024C230.262 103.024 229.664 103.285 229.227 103.808C228.8 104.32 228.587 105.008 228.587 105.872V110ZM255.566 103.152C255.566 101.701 255.913 100.576 256.606 99.776C257.3 98.976 258.265 98.576 259.502 98.576C260.74 98.576 261.705 98.976 262.398 99.776C263.092 100.576 263.438 101.701 263.438 103.152V105.648C263.438 107.013 263.145 108.085 262.558 108.864C261.982 109.632 261.172 110.075 260.126 110.192V110.864C260.126 111.184 260.27 111.344 260.558 111.344H261.902V112.496H260.11C259.748 112.496 259.449 112.379 259.214 112.144C258.99 111.909 258.878 111.611 258.878 111.248V110.192C257.822 110.064 257.006 109.616 256.43 108.848C255.854 108.08 255.566 107.013 255.566 105.648V103.152ZM259.502 108.976C260.366 108.976 261.012 108.683 261.438 108.096C261.876 107.499 262.094 106.651 262.094 105.552V103.248C262.094 102.224 261.876 101.397 261.438 100.768C261.012 100.139 260.366 99.824 259.502 99.824C258.638 99.824 257.988 100.139 257.55 100.768C257.124 101.397 256.91 102.224 256.91 103.248V105.552C256.91 106.651 257.124 107.499 257.55 108.096C257.988 108.683 258.638 108.976 259.502 108.976ZM273.203 110H271.859V106.256C271.859 105.979 271.795 105.765 271.667 105.616C271.539 105.467 271.315 105.392 270.995 105.392H267.507V110H266.163V98.8H270.163C270.739 98.8 271.24 98.8853 271.667 99.056C272.094 99.216 272.446 99.4347 272.723 99.712C273.011 99.9893 273.224 100.315 273.363 100.688C273.512 101.051 273.587 101.435 273.587 101.84V102.32C273.587 102.736 273.47 103.152 273.235 103.568C273.011 103.984 272.659 104.304 272.179 104.528V104.72C272.499 104.773 272.75 104.901 272.931 105.104C273.112 105.307 273.203 105.595 273.203 105.968V110ZM267.507 104.144H270.003C270.76 104.144 271.32 103.984 271.683 103.664C272.056 103.333 272.243 102.853 272.243 102.224V101.936C272.243 101.371 272.056 100.917 271.683 100.576C271.32 100.224 270.76 100.048 270.003 100.048H267.507V104.144ZM39.12 131.064H41.616V127.8H42.864V131.064H45.936V132.216H42.864V137.368C42.864 137.688 43.008 137.848 43.296 137.848H45.552V139H42.848C42.4853 139 42.1867 138.883 41.952 138.648C41.728 138.413 41.616 138.115 41.616 137.752V132.216H39.12V131.064ZM50.8369 139H49.5889V127.8H50.8369V132.504H51.0289C51.2742 131.992 51.6155 131.587 52.0529 131.288C52.5009 130.989 53.0449 130.84 53.6849 130.84C54.5489 130.84 55.2475 131.128 55.7809 131.704C56.3249 132.269 56.5969 133.123 56.5969 134.264V139H55.3489V134.52C55.3489 133.688 55.1622 133.064 54.7889 132.648C54.4155 132.232 53.9089 132.024 53.2689 132.024C52.5115 132.024 51.9142 132.285 51.4769 132.808C51.0502 133.32 50.8369 134.008 50.8369 134.872V139ZM60.6977 135.416C60.7297 136.205 60.9751 136.84 61.4337 137.32C61.8924 137.8 62.5324 138.04 63.3537 138.04C63.7271 138.04 64.0524 137.997 64.3297 137.912C64.6071 137.827 64.8417 137.709 65.0337 137.56C65.2364 137.411 65.3964 137.24 65.5137 137.048C65.6417 136.845 65.7431 136.632 65.8177 136.408L67.0017 136.728C66.7777 137.464 66.3617 138.067 65.7537 138.536C65.1564 138.995 64.3457 139.224 63.3217 139.224C62.7564 139.224 62.2337 139.128 61.7537 138.936C61.2844 138.733 60.8791 138.451 60.5377 138.088C60.1964 137.725 59.9297 137.293 59.7377 136.792C59.5457 136.291 59.4497 135.736 59.4497 135.128V134.744C59.4497 134.189 59.5457 133.672 59.7377 133.192C59.9404 132.712 60.2177 132.301 60.5697 131.96C60.9217 131.608 61.3324 131.336 61.8017 131.144C62.2817 130.941 62.7991 130.84 63.3537 130.84C64.0044 130.84 64.5644 130.963 65.0337 131.208C65.5137 131.443 65.9031 131.736 66.2017 132.088C66.5111 132.44 66.7351 132.824 66.8737 133.24C67.0231 133.656 67.0977 134.04 67.0977 134.392V135.416H60.6977ZM63.3537 132.024C63.0017 132.024 62.6711 132.083 62.3617 132.2C62.0631 132.307 61.7964 132.461 61.5617 132.664C61.3377 132.867 61.1511 133.107 61.0017 133.384C60.8631 133.651 60.7724 133.944 60.7297 134.264H65.8497C65.8284 133.923 65.7431 133.613 65.5937 133.336C65.4551 133.059 65.2684 132.824 65.0337 132.632C64.8097 132.44 64.5484 132.291 64.2497 132.184C63.9617 132.077 63.6631 132.024 63.3537 132.024ZM75.7426 137.56H75.5506C75.2946 138.072 74.9586 138.477 74.5426 138.776C74.1266 139.075 73.5986 139.224 72.9586 139.224C72.5213 139.224 72.116 139.149 71.7426 139C71.38 138.861 71.0653 138.648 70.7986 138.36C70.5426 138.072 70.34 137.715 70.1906 137.288C70.052 136.861 69.9826 136.365 69.9826 135.8V131.064H71.2306V135.64C71.2306 136.472 71.4013 137.08 71.7426 137.464C72.084 137.848 72.6066 138.04 73.3106 138.04C74.068 138.04 74.66 137.784 75.0866 137.272C75.524 136.749 75.7426 136.056 75.7426 135.192V131.064H76.9906V140.952C76.9906 141.315 76.8733 141.613 76.6386 141.848C76.4146 142.083 76.1213 142.2 75.7586 142.2H71.2306V141.048H75.3106C75.5986 141.048 75.7426 140.888 75.7426 140.568V137.56ZM93.4636 131.064H95.9116V129.048C95.9116 128.685 96.0236 128.387 96.2476 128.152C96.4822 127.917 96.7809 127.8 97.1436 127.8H100.28V128.952H97.5916C97.3036 128.952 97.1596 129.112 97.1596 129.432V131.064H100.472V132.216H97.1596V139H95.9116V132.216H93.4636V131.064ZM111.228 135.128C111.228 135.789 111.116 136.376 110.892 136.888C110.679 137.389 110.391 137.816 110.028 138.168C109.666 138.509 109.239 138.771 108.748 138.952C108.268 139.133 107.767 139.224 107.244 139.224C106.711 139.224 106.204 139.133 105.724 138.952C105.244 138.771 104.823 138.509 104.46 138.168C104.098 137.816 103.804 137.389 103.58 136.888C103.367 136.376 103.26 135.789 103.26 135.128V134.936C103.26 134.285 103.367 133.709 103.58 133.208C103.804 132.696 104.098 132.264 104.46 131.912C104.834 131.56 105.26 131.293 105.74 131.112C106.22 130.931 106.722 130.84 107.244 130.84C107.767 130.84 108.268 130.931 108.748 131.112C109.228 131.293 109.65 131.56 110.012 131.912C110.386 132.264 110.679 132.696 110.892 133.208C111.116 133.709 111.228 134.285 111.228 134.936V135.128ZM107.244 138.04C107.628 138.04 107.98 137.976 108.3 137.848C108.631 137.709 108.919 137.512 109.164 137.256C109.41 137 109.602 136.696 109.74 136.344C109.879 135.981 109.948 135.576 109.948 135.128V134.936C109.948 134.509 109.879 134.12 109.74 133.768C109.602 133.405 109.41 133.096 109.164 132.84C108.919 132.584 108.631 132.387 108.3 132.248C107.97 132.099 107.618 132.024 107.244 132.024C106.871 132.024 106.519 132.099 106.188 132.248C105.858 132.387 105.57 132.584 105.324 132.84C105.079 133.096 104.887 133.405 104.748 133.768C104.61 134.12 104.54 134.509 104.54 134.936V135.128C104.54 135.576 104.61 135.981 104.748 136.344C104.887 136.696 105.079 137 105.324 137.256C105.57 137.512 105.852 137.709 106.172 137.848C106.503 137.976 106.86 138.04 107.244 138.04ZM119.601 131.064H120.849V139H119.601V137.56H119.409C119.153 138.072 118.817 138.477 118.401 138.776C117.985 139.075 117.457 139.224 116.817 139.224C116.38 139.224 115.975 139.149 115.601 139C115.239 138.861 114.924 138.648 114.657 138.36C114.401 138.072 114.199 137.715 114.049 137.288C113.911 136.861 113.841 136.365 113.841 135.8V131.064H115.089V135.64C115.089 136.472 115.26 137.08 115.601 137.464C115.943 137.848 116.465 138.04 117.169 138.04C117.927 138.04 118.519 137.784 118.945 137.272C119.383 136.749 119.601 136.056 119.601 135.192V131.064ZM125.382 139H124.134V131.064H125.382V132.408H125.574C126.065 131.363 126.918 130.84 128.134 130.84C129.052 130.84 129.782 131.128 130.326 131.704C130.87 132.269 131.142 133.123 131.142 134.264V139H129.894V134.52C129.894 133.688 129.708 133.064 129.334 132.648C128.961 132.232 128.454 132.024 127.814 132.024C127.057 132.024 126.46 132.285 126.022 132.808C125.596 133.32 125.382 134.008 125.382 134.872V139ZM140.475 137.784H140.283C140.155 138.029 139.99 138.243 139.787 138.424C139.595 138.605 139.382 138.755 139.147 138.872C138.923 138.989 138.683 139.075 138.427 139.128C138.171 139.192 137.926 139.224 137.691 139.224C137.158 139.224 136.662 139.133 136.203 138.952C135.744 138.771 135.339 138.509 134.987 138.168C134.646 137.827 134.374 137.405 134.171 136.904C133.979 136.392 133.883 135.811 133.883 135.16V134.904C133.883 134.264 133.984 133.693 134.187 133.192C134.39 132.68 134.662 132.253 135.003 131.912C135.344 131.56 135.744 131.293 136.203 131.112C136.662 130.931 137.147 130.84 137.659 130.84C138.203 130.84 138.71 130.963 139.179 131.208C139.659 131.443 140.027 131.811 140.283 132.312H140.475V127.8H141.723V139H140.475V137.784ZM137.819 138.04C138.192 138.04 138.539 137.971 138.859 137.832C139.179 137.693 139.456 137.496 139.691 137.24C139.936 136.984 140.128 136.68 140.267 136.328C140.406 135.965 140.475 135.565 140.475 135.128V134.936C140.475 134.509 140.406 134.12 140.267 133.768C140.128 133.405 139.936 133.096 139.691 132.84C139.456 132.584 139.174 132.387 138.843 132.248C138.523 132.099 138.182 132.024 137.819 132.024C137.446 132.024 137.094 132.093 136.763 132.232C136.443 132.371 136.16 132.568 135.915 132.824C135.68 133.08 135.494 133.384 135.355 133.736C135.227 134.088 135.163 134.477 135.163 134.904V135.16C135.163 135.608 135.227 136.008 135.355 136.36C135.494 136.712 135.68 137.016 135.915 137.272C136.16 137.517 136.443 137.709 136.763 137.848C137.083 137.976 137.435 138.04 137.819 138.04ZM163.652 137.656H163.46C163.204 138.189 162.847 138.584 162.388 138.84C161.94 139.096 161.465 139.224 160.964 139.224C160.441 139.224 159.956 139.139 159.508 138.968C159.06 138.787 158.665 138.525 158.324 138.184C157.993 137.832 157.732 137.405 157.54 136.904C157.348 136.403 157.252 135.821 157.252 135.16V134.904C157.252 134.253 157.348 133.677 157.54 133.176C157.732 132.675 157.993 132.253 158.324 131.912C158.665 131.56 159.06 131.293 159.508 131.112C159.956 130.931 160.431 130.84 160.932 130.84C161.476 130.84 161.967 130.963 162.404 131.208C162.852 131.443 163.204 131.811 163.46 132.312H163.652V131.064H164.9V137.368C164.9 137.688 165.044 137.848 165.332 137.848H165.732V139H164.884C164.521 139 164.223 138.883 163.988 138.648C163.764 138.413 163.652 138.115 163.652 137.752V137.656ZM161.092 138.04C161.465 138.04 161.807 137.971 162.116 137.832C162.436 137.693 162.708 137.496 162.932 137.24C163.156 136.984 163.332 136.68 163.46 136.328C163.588 135.965 163.652 135.565 163.652 135.128V134.936C163.652 134.509 163.588 134.12 163.46 133.768C163.332 133.405 163.151 133.096 162.916 132.84C162.692 132.584 162.42 132.387 162.1 132.248C161.791 132.099 161.455 132.024 161.092 132.024C160.719 132.024 160.377 132.093 160.068 132.232C159.759 132.371 159.487 132.568 159.252 132.824C159.028 133.069 158.852 133.373 158.724 133.736C158.596 134.088 158.532 134.477 158.532 134.904V135.16C158.532 136.067 158.767 136.776 159.236 137.288C159.716 137.789 160.335 138.04 161.092 138.04ZM169.337 139H168.089V131.064H169.337V132.408H169.529C170.02 131.363 170.873 130.84 172.089 130.84C173.006 130.84 173.737 131.128 174.281 131.704C174.825 132.269 175.097 133.123 175.097 134.264V139H173.849V134.52C173.849 133.688 173.662 133.064 173.289 132.648C172.916 132.232 172.409 132.024 171.769 132.024C171.012 132.024 170.414 132.285 169.977 132.808C169.55 133.32 169.337 134.008 169.337 134.872V139ZM184.43 137.784H184.238C184.11 138.029 183.944 138.243 183.742 138.424C183.55 138.605 183.336 138.755 183.102 138.872C182.878 138.989 182.638 139.075 182.382 139.128C182.126 139.192 181.88 139.224 181.646 139.224C181.112 139.224 180.616 139.133 180.158 138.952C179.699 138.771 179.294 138.509 178.942 138.168C178.6 137.827 178.328 137.405 178.126 136.904C177.934 136.392 177.838 135.811 177.838 135.16V134.904C177.838 134.264 177.939 133.693 178.142 133.192C178.344 132.68 178.616 132.253 178.958 131.912C179.299 131.56 179.699 131.293 180.158 131.112C180.616 130.931 181.102 130.84 181.614 130.84C182.158 130.84 182.664 130.963 183.134 131.208C183.614 131.443 183.982 131.811 184.238 132.312H184.43V127.8H185.678V139H184.43V137.784ZM181.774 138.04C182.147 138.04 182.494 137.971 182.814 137.832C183.134 137.693 183.411 137.496 183.646 137.24C183.891 136.984 184.083 136.68 184.222 136.328C184.36 135.965 184.43 135.565 184.43 135.128V134.936C184.43 134.509 184.36 134.12 184.222 133.768C184.083 133.405 183.891 133.096 183.646 132.84C183.411 132.584 183.128 132.387 182.798 132.248C182.478 132.099 182.136 132.024 181.774 132.024C181.4 132.024 181.048 132.093 180.718 132.232C180.398 132.371 180.115 132.568 179.87 132.824C179.635 133.08 179.448 133.384 179.31 133.736C179.182 134.088 179.118 134.477 179.118 134.904V135.16C179.118 135.608 179.182 136.008 179.31 136.36C179.448 136.712 179.635 137.016 179.87 137.272C180.115 137.517 180.398 137.709 180.718 137.848C181.038 137.976 181.39 138.04 181.774 138.04ZM203.495 133.112C203.495 133.496 203.655 133.789 203.975 133.992C204.305 134.195 204.903 134.328 205.767 134.392C206.695 134.467 207.399 134.691 207.879 135.064C208.369 135.427 208.615 135.96 208.615 136.664V136.76C208.615 137.144 208.535 137.491 208.375 137.8C208.225 138.099 208.012 138.355 207.735 138.568C207.468 138.781 207.137 138.941 206.743 139.048C206.359 139.165 205.937 139.224 205.479 139.224C204.86 139.224 204.327 139.144 203.879 138.984C203.441 138.813 203.073 138.595 202.775 138.328C202.487 138.051 202.268 137.741 202.119 137.4C201.969 137.048 201.884 136.696 201.863 136.344L203.047 136.056C203.1 136.664 203.335 137.155 203.751 137.528C204.167 137.891 204.721 138.072 205.415 138.072C206.001 138.072 206.471 137.96 206.823 137.736C207.185 137.501 207.367 137.176 207.367 136.76C207.367 136.312 207.191 135.992 206.839 135.8C206.487 135.608 205.916 135.485 205.127 135.432C204.209 135.368 203.505 135.155 203.015 134.792C202.524 134.429 202.279 133.901 202.279 133.208V133.112C202.279 132.739 202.359 132.413 202.519 132.136C202.679 131.848 202.892 131.608 203.159 131.416C203.436 131.224 203.745 131.08 204.087 130.984C204.428 130.888 204.785 130.84 205.159 130.84C205.681 130.84 206.14 130.915 206.535 131.064C206.929 131.203 207.26 131.389 207.527 131.624C207.793 131.848 207.996 132.109 208.135 132.408C208.284 132.707 208.38 133.005 208.423 133.304L207.239 133.592C207.185 133.08 206.977 132.68 206.615 132.392C206.263 132.104 205.799 131.96 205.223 131.96C204.999 131.96 204.78 131.987 204.567 132.04C204.364 132.083 204.183 132.152 204.023 132.248C203.863 132.344 203.735 132.467 203.639 132.616C203.543 132.755 203.495 132.92 203.495 133.112ZM212.956 135.416C212.988 136.205 213.233 136.84 213.692 137.32C214.15 137.8 214.79 138.04 215.612 138.04C215.985 138.04 216.31 137.997 216.588 137.912C216.865 137.827 217.1 137.709 217.292 137.56C217.494 137.411 217.654 137.24 217.772 137.048C217.9 136.845 218.001 136.632 218.076 136.408L219.26 136.728C219.036 137.464 218.62 138.067 218.012 138.536C217.414 138.995 216.604 139.224 215.58 139.224C215.014 139.224 214.492 139.128 214.012 138.936C213.542 138.733 213.137 138.451 212.796 138.088C212.454 137.725 212.188 137.293 211.996 136.792C211.804 136.291 211.708 135.736 211.708 135.128V134.744C211.708 134.189 211.804 133.672 211.996 133.192C212.198 132.712 212.476 132.301 212.828 131.96C213.18 131.608 213.59 131.336 214.06 131.144C214.54 130.941 215.057 130.84 215.612 130.84C216.262 130.84 216.822 130.963 217.292 131.208C217.772 131.443 218.161 131.736 218.46 132.088C218.769 132.44 218.993 132.824 219.132 133.24C219.281 133.656 219.356 134.04 219.356 134.392V135.416H212.956ZM215.612 132.024C215.26 132.024 214.929 132.083 214.62 132.2C214.321 132.307 214.054 132.461 213.82 132.664C213.596 132.867 213.409 133.107 213.26 133.384C213.121 133.651 213.03 133.944 212.988 134.264H218.108C218.086 133.923 218.001 133.613 217.852 133.336C217.713 133.059 217.526 132.824 217.292 132.632C217.068 132.44 216.806 132.291 216.508 132.184C216.22 132.077 215.921 132.024 215.612 132.024ZM223.488 139H222.24V131.064H223.488V132.408H223.68C224.171 131.363 225.024 130.84 226.24 130.84C227.158 130.84 227.888 131.128 228.432 131.704C228.976 132.269 229.248 133.123 229.248 134.264V139H228V134.52C228 133.688 227.814 133.064 227.44 132.648C227.067 132.232 226.56 132.024 225.92 132.024C225.163 132.024 224.566 132.285 224.128 132.808C223.702 133.32 223.488 134.008 223.488 134.872V139ZM238.581 137.784H238.389C238.261 138.029 238.096 138.243 237.893 138.424C237.701 138.605 237.488 138.755 237.253 138.872C237.029 138.989 236.789 139.075 236.533 139.128C236.277 139.192 236.032 139.224 235.797 139.224C235.264 139.224 234.768 139.133 234.309 138.952C233.851 138.771 233.445 138.509 233.093 138.168C232.752 137.827 232.48 137.405 232.277 136.904C232.085 136.392 231.989 135.811 231.989 135.16V134.904C231.989 134.264 232.091 133.693 232.293 133.192C232.496 132.68 232.768 132.253 233.109 131.912C233.451 131.56 233.851 131.293 234.309 131.112C234.768 130.931 235.253 130.84 235.765 130.84C236.309 130.84 236.816 130.963 237.285 131.208C237.765 131.443 238.133 131.811 238.389 132.312H238.581V127.8H239.829V139H238.581V137.784ZM235.925 138.04C236.299 138.04 236.645 137.971 236.965 137.832C237.285 137.693 237.563 137.496 237.797 137.24C238.043 136.984 238.235 136.68 238.373 136.328C238.512 135.965 238.581 135.565 238.581 135.128V134.936C238.581 134.509 238.512 134.12 238.373 133.768C238.235 133.405 238.043 133.096 237.797 132.84C237.563 132.584 237.28 132.387 236.949 132.248C236.629 132.099 236.288 132.024 235.925 132.024C235.552 132.024 235.2 132.093 234.869 132.232C234.549 132.371 234.267 132.568 234.021 132.824C233.787 133.08 233.6 133.384 233.461 133.736C233.333 134.088 233.269 134.477 233.269 134.904V135.16C233.269 135.608 233.333 136.008 233.461 136.36C233.6 136.712 233.787 137.016 234.021 137.272C234.267 137.517 234.549 137.709 234.869 137.848C235.189 137.976 235.541 138.04 235.925 138.04ZM258.462 128.696C258.462 128.387 258.569 128.125 258.782 127.912C259.006 127.688 259.273 127.576 259.582 127.576C259.892 127.576 260.153 127.688 260.366 127.912C260.59 128.125 260.702 128.387 260.702 128.696C260.702 129.005 260.59 129.272 260.366 129.496C260.153 129.709 259.892 129.816 259.582 129.816C259.273 129.816 259.006 129.709 258.782 129.496C258.569 129.272 258.462 129.005 258.462 128.696ZM256.19 137.848H258.974V132.216H256.478V131.064H260.222V137.848H262.814V139H256.19V137.848ZM265.923 131.064H268.419V127.8H269.667V131.064H272.739V132.216H269.667V137.368C269.667 137.688 269.811 137.848 270.099 137.848H272.355V139H269.651C269.288 139 268.99 138.883 268.755 138.648C268.531 138.413 268.419 138.115 268.419 137.752V132.216H265.923V131.064ZM39.12 160.064H41.616V156.8H42.864V160.064H45.936V161.216H42.864V166.368C42.864 166.688 43.008 166.848 43.296 166.848H45.552V168H42.848C42.4853 168 42.1867 167.883 41.952 167.648C41.728 167.413 41.616 167.115 41.616 166.752V161.216H39.12V160.064ZM57.0769 164.128C57.0769 164.789 56.9649 165.376 56.7409 165.888C56.5275 166.389 56.2395 166.816 55.8769 167.168C55.5142 167.509 55.0875 167.771 54.5969 167.952C54.1169 168.133 53.6155 168.224 53.0929 168.224C52.5595 168.224 52.0529 168.133 51.5729 167.952C51.0929 167.771 50.6715 167.509 50.3089 167.168C49.9462 166.816 49.6529 166.389 49.4289 165.888C49.2155 165.376 49.1089 164.789 49.1089 164.128V163.936C49.1089 163.285 49.2155 162.709 49.4289 162.208C49.6529 161.696 49.9462 161.264 50.3089 160.912C50.6822 160.56 51.1089 160.293 51.5889 160.112C52.0689 159.931 52.5702 159.84 53.0929 159.84C53.6155 159.84 54.1169 159.931 54.5969 160.112C55.0769 160.293 55.4982 160.56 55.8609 160.912C56.2342 161.264 56.5275 161.696 56.7409 162.208C56.9649 162.709 57.0769 163.285 57.0769 163.936V164.128ZM53.0929 167.04C53.4769 167.04 53.8289 166.976 54.1489 166.848C54.4795 166.709 54.7675 166.512 55.0129 166.256C55.2582 166 55.4502 165.696 55.5889 165.344C55.7275 164.981 55.7969 164.576 55.7969 164.128V163.936C55.7969 163.509 55.7275 163.12 55.5889 162.768C55.4502 162.405 55.2582 162.096 55.0129 161.84C54.7675 161.584 54.4795 161.387 54.1489 161.248C53.8182 161.099 53.4662 161.024 53.0929 161.024C52.7195 161.024 52.3675 161.099 52.0369 161.248C51.7062 161.387 51.4182 161.584 51.1729 161.84C50.9275 162.096 50.7355 162.405 50.5969 162.768C50.4582 163.12 50.3889 163.509 50.3889 163.936V164.128C50.3889 164.576 50.4582 164.981 50.5969 165.344C50.7355 165.696 50.9275 166 51.1729 166.256C51.4182 166.512 51.7009 166.709 52.0209 166.848C52.3515 166.976 52.7089 167.04 53.0929 167.04ZM69.7106 160.064H72.2066V156.8H73.4546V160.064H76.5266V161.216H73.4546V166.368C73.4546 166.688 73.5986 166.848 73.8866 166.848H76.1426V168H73.4386C73.076 168 72.7773 167.883 72.5426 167.648C72.3186 167.413 72.2066 167.115 72.2066 166.752V161.216H69.7106V160.064ZM81.4275 168H80.1795V156.8H81.4275V161.504H81.6195C81.8648 160.992 82.2062 160.587 82.6435 160.288C83.0915 159.989 83.6355 159.84 84.2755 159.84C85.1395 159.84 85.8382 160.128 86.3715 160.704C86.9155 161.269 87.1875 162.123 87.1875 163.264V168H85.9395V163.52C85.9395 162.688 85.7528 162.064 85.3795 161.648C85.0062 161.232 84.4995 161.024 83.8595 161.024C83.1022 161.024 82.5048 161.285 82.0675 161.808C81.6408 162.32 81.4275 163.008 81.4275 163.872V168ZM91.2884 164.416C91.3204 165.205 91.5657 165.84 92.0244 166.32C92.483 166.8 93.123 167.04 93.9444 167.04C94.3177 167.04 94.643 166.997 94.9204 166.912C95.1977 166.827 95.4324 166.709 95.6244 166.56C95.827 166.411 95.987 166.24 96.1044 166.048C96.2324 165.845 96.3337 165.632 96.4084 165.408L97.5924 165.728C97.3684 166.464 96.9524 167.067 96.3444 167.536C95.747 167.995 94.9364 168.224 93.9124 168.224C93.347 168.224 92.8244 168.128 92.3444 167.936C91.875 167.733 91.4697 167.451 91.1284 167.088C90.787 166.725 90.5204 166.293 90.3284 165.792C90.1364 165.291 90.0404 164.736 90.0404 164.128V163.744C90.0404 163.189 90.1364 162.672 90.3284 162.192C90.531 161.712 90.8084 161.301 91.1604 160.96C91.5124 160.608 91.923 160.336 92.3924 160.144C92.8724 159.941 93.3897 159.84 93.9444 159.84C94.595 159.84 95.155 159.963 95.6244 160.208C96.1044 160.443 96.4937 160.736 96.7924 161.088C97.1017 161.44 97.3257 161.824 97.4644 162.24C97.6137 162.656 97.6884 163.04 97.6884 163.392V164.416H91.2884ZM93.9444 161.024C93.5924 161.024 93.2617 161.083 92.9524 161.2C92.6537 161.307 92.387 161.461 92.1524 161.664C91.9284 161.867 91.7417 162.107 91.5924 162.384C91.4537 162.651 91.363 162.944 91.3204 163.264H96.4404C96.419 162.923 96.3337 162.613 96.1844 162.336C96.0457 162.059 95.859 161.824 95.6244 161.632C95.4004 161.44 95.139 161.291 94.8404 161.184C94.5524 161.077 94.2537 161.024 93.9444 161.024ZM116.53 166.656H116.338C116.082 167.189 115.725 167.584 115.266 167.84C114.818 168.096 114.343 168.224 113.842 168.224C113.319 168.224 112.834 168.139 112.386 167.968C111.938 167.787 111.543 167.525 111.202 167.184C110.871 166.832 110.61 166.405 110.418 165.904C110.226 165.403 110.13 164.821 110.13 164.16V163.904C110.13 163.253 110.226 162.677 110.418 162.176C110.61 161.675 110.871 161.253 111.202 160.912C111.543 160.56 111.938 160.293 112.386 160.112C112.834 159.931 113.309 159.84 113.81 159.84C114.354 159.84 114.845 159.963 115.282 160.208C115.73 160.443 116.082 160.811 116.338 161.312H116.53V160.064H117.778V166.368C117.778 166.688 117.922 166.848 118.21 166.848H118.61V168H117.762C117.399 168 117.101 167.883 116.866 167.648C116.642 167.413 116.53 167.115 116.53 166.752V166.656ZM113.97 167.04C114.343 167.04 114.685 166.971 114.994 166.832C115.314 166.693 115.586 166.496 115.81 166.24C116.034 165.984 116.21 165.68 116.338 165.328C116.466 164.965 116.53 164.565 116.53 164.128V163.936C116.53 163.509 116.466 163.12 116.338 162.768C116.21 162.405 116.029 162.096 115.794 161.84C115.57 161.584 115.298 161.387 114.978 161.248C114.669 161.099 114.333 161.024 113.97 161.024C113.597 161.024 113.255 161.093 112.946 161.232C112.637 161.371 112.365 161.568 112.13 161.824C111.906 162.069 111.73 162.373 111.602 162.736C111.474 163.088 111.41 163.477 111.41 163.904V164.16C111.41 165.067 111.645 165.776 112.114 166.288C112.594 166.789 113.213 167.04 113.97 167.04ZM127.111 166.784H126.919C126.791 167.029 126.626 167.243 126.423 167.424C126.231 167.605 126.018 167.755 125.783 167.872C125.559 167.989 125.319 168.075 125.063 168.128C124.807 168.192 124.562 168.224 124.327 168.224C123.794 168.224 123.298 168.133 122.839 167.952C122.38 167.771 121.975 167.509 121.623 167.168C121.282 166.827 121.01 166.405 120.807 165.904C120.615 165.392 120.519 164.811 120.519 164.16V163.904C120.519 163.264 120.62 162.693 120.823 162.192C121.026 161.68 121.298 161.253 121.639 160.912C121.98 160.56 122.38 160.293 122.839 160.112C123.298 159.931 123.783 159.84 124.295 159.84C124.839 159.84 125.346 159.963 125.815 160.208C126.295 160.443 126.663 160.811 126.919 161.312H127.111V156.8H128.359V168H127.111V166.784ZM124.455 167.04C124.828 167.04 125.175 166.971 125.495 166.832C125.815 166.693 126.092 166.496 126.327 166.24C126.572 165.984 126.764 165.68 126.903 165.328C127.042 164.965 127.111 164.565 127.111 164.128V163.936C127.111 163.509 127.042 163.12 126.903 162.768C126.764 162.405 126.572 162.096 126.327 161.84C126.092 161.584 125.81 161.387 125.479 161.248C125.159 161.099 124.818 161.024 124.455 161.024C124.082 161.024 123.73 161.093 123.399 161.232C123.079 161.371 122.796 161.568 122.551 161.824C122.316 162.08 122.13 162.384 121.991 162.736C121.863 163.088 121.799 163.477 121.799 163.904V164.16C121.799 164.608 121.863 165.008 121.991 165.36C122.13 165.712 122.316 166.016 122.551 166.272C122.796 166.517 123.079 166.709 123.399 166.848C123.719 166.976 124.071 167.04 124.455 167.04ZM138.796 168H137.548V162.304C137.548 161.931 137.463 161.627 137.292 161.392C137.121 161.147 136.849 161.024 136.476 161.024C136.124 161.024 135.836 161.157 135.612 161.424C135.399 161.68 135.292 162.08 135.292 162.624V168H134.044V162.24C134.044 161.888 133.948 161.6 133.756 161.376C133.564 161.141 133.308 161.024 132.988 161.024C132.604 161.024 132.305 161.163 132.092 161.44C131.889 161.717 131.788 162.08 131.788 162.528V168H130.54V160.064H131.788V160.928H131.98C132.119 160.555 132.321 160.283 132.588 160.112C132.855 159.931 133.169 159.84 133.532 159.84C133.916 159.84 134.231 159.941 134.476 160.144C134.732 160.347 134.908 160.608 135.004 160.928H135.196C135.559 160.203 136.135 159.84 136.924 159.84C137.521 159.84 137.98 160.032 138.3 160.416C138.631 160.789 138.796 161.28 138.796 161.888V168ZM143.825 157.696C143.825 157.387 143.931 157.125 144.145 156.912C144.369 156.688 144.635 156.576 144.945 156.576C145.254 156.576 145.515 156.688 145.729 156.912C145.953 157.125 146.065 157.387 146.065 157.696C146.065 158.005 145.953 158.272 145.729 158.496C145.515 158.709 145.254 158.816 144.945 158.816C144.635 158.816 144.369 158.709 144.145 158.496C143.931 158.272 143.825 158.005 143.825 157.696ZM141.553 166.848H144.337V161.216H141.841V160.064H145.585V166.848H148.177V168H141.553V166.848ZM152.806 168H151.558V160.064H152.806V161.408H152.998C153.488 160.363 154.342 159.84 155.558 159.84C156.475 159.84 157.206 160.128 157.75 160.704C158.294 161.269 158.566 162.123 158.566 163.264V168H157.318V163.52C157.318 162.688 157.131 162.064 156.758 161.648C156.384 161.232 155.878 161.024 155.238 161.024C154.48 161.024 153.883 161.285 153.446 161.808C153.019 162.32 152.806 163.008 152.806 163.872V168ZM164.139 167.104C164.139 166.795 164.245 166.533 164.459 166.32C164.683 166.096 164.949 165.984 165.259 165.984C165.568 165.984 165.829 166.096 166.043 166.32C166.267 166.533 166.379 166.795 166.379 167.104C166.379 167.413 166.267 167.68 166.043 167.904C165.829 168.117 165.568 168.224 165.259 168.224C164.949 168.224 164.683 168.117 164.459 167.904C164.245 167.68 164.139 167.413 164.139 167.104Z" fill="white" fill-opacity="0.95"/>
<path d="M52.1295 42H49.4895V37.8C49.4895 37.48 49.4029 37.22 49.2295 37.02C49.0695 36.82 48.7962 36.72 48.4095 36.72H45.3695V42H42.7295V28H48.0895C48.8095 28 49.4429 28.1 49.9895 28.3C50.5362 28.5 50.9895 28.78 51.3495 29.14C51.7229 29.4867 52.0029 29.8933 52.1895 30.36C52.3895 30.8267 52.4895 31.3267 52.4895 31.86V32.34C52.4895 32.9133 52.3362 33.4533 52.0295 33.96C51.7229 34.4533 51.2495 34.8333 50.6095 35.1V35.46C51.0762 35.5133 51.4429 35.6933 51.7095 36C51.9895 36.3067 52.1295 36.6933 52.1295 37.16V42ZM45.3695 34.2H47.8895C48.5295 34.2 49.0162 34.0533 49.3495 33.76C49.6829 33.4533 49.8495 33.0267 49.8495 32.48V32.24C49.8495 31.7733 49.6829 31.3733 49.3495 31.04C49.0162 30.6933 48.5295 30.52 47.8895 30.52H45.3695V34.2ZM62.3956 32.08H64.9156V42H62.3956V40.56H62.0356C61.5956 41.7067 60.649 42.28 59.1956 42.28C58.7023 42.28 58.2423 42.2 57.8156 42.04C57.389 41.88 57.0156 41.6333 56.6956 41.3C56.3756 40.9667 56.1223 40.5533 55.9356 40.06C55.7623 39.5533 55.6756 38.96 55.6756 38.28V32.08H58.1956V37.76C58.1956 38.4667 58.3623 39.02 58.6956 39.42C59.029 39.8067 59.529 40 60.1956 40C60.9556 40 61.509 39.76 61.8556 39.28C62.2156 38.7867 62.3956 38.12 62.3956 37.28V32.08ZM68.4617 39.6H71.9417V30.4H68.5817V28H74.4617V39.6H77.7017V42H68.4617V39.6ZM83.5878 37.86C83.6011 38.1533 83.6678 38.4267 83.7878 38.68C83.9211 38.92 84.0945 39.1333 84.3078 39.32C84.5345 39.4933 84.7878 39.6333 85.0678 39.74C85.3611 39.8333 85.6678 39.88 85.9878 39.88C86.6145 39.88 87.0945 39.7733 87.4278 39.56C87.7611 39.3333 88.0011 39.0667 88.1478 38.76L90.3078 39.96C90.1878 40.2133 90.0211 40.48 89.8078 40.76C89.5945 41.0267 89.3145 41.2733 88.9678 41.5C88.6345 41.7267 88.2211 41.9133 87.7278 42.06C87.2478 42.2067 86.6811 42.28 86.0278 42.28C85.2811 42.28 84.6011 42.16 83.9878 41.92C83.3745 41.68 82.8411 41.3333 82.3878 40.88C81.9478 40.4267 81.6011 39.8733 81.3478 39.22C81.1078 38.5667 80.9878 37.8267 80.9878 37V36.88C80.9878 36.12 81.1145 35.4267 81.3678 34.8C81.6345 34.1733 81.9945 33.64 82.4478 33.2C82.9011 32.76 83.4278 32.42 84.0278 32.18C84.6411 31.9267 85.2945 31.8 85.9878 31.8C86.8411 31.8 87.5745 31.9533 88.1878 32.26C88.8011 32.5533 89.3078 32.9333 89.7078 33.4C90.1078 33.8533 90.4011 34.36 90.5878 34.92C90.7745 35.4667 90.8678 36 90.8678 36.52V37.86H83.5878ZM85.9678 34.08C85.3278 34.08 84.8078 34.2467 84.4078 34.58C84.0078 34.9 83.7478 35.2733 83.6278 35.7H88.3078C88.2278 35.2333 87.9745 34.8467 87.5478 34.54C87.1345 34.2333 86.6078 34.08 85.9678 34.08ZM95.6539 35.36H101.894V37.64H95.6539V35.36ZM113.72 31.96C113.72 31.4933 113.547 31.0933 113.2 30.76C112.867 30.4133 112.34 30.24 111.62 30.24C110.9 30.24 110.327 30.4533 109.9 30.88C109.487 31.2933 109.28 31.84 109.28 32.52V34.32H109.64C109.867 33.8533 110.233 33.48 110.74 33.2C111.247 32.9067 111.82 32.76 112.46 32.76C113.033 32.76 113.573 32.8667 114.08 33.08C114.587 33.28 115.027 33.5733 115.4 33.96C115.773 34.3333 116.067 34.7933 116.28 35.34C116.493 35.8867 116.6 36.5067 116.6 37.2V37.44C116.6 38.1467 116.48 38.8 116.24 39.4C116.013 39.9867 115.68 40.4933 115.24 40.92C114.813 41.3467 114.293 41.68 113.68 41.92C113.067 42.16 112.38 42.28 111.62 42.28C110.927 42.28 110.273 42.1667 109.66 41.94C109.06 41.7133 108.533 41.4 108.08 41C107.64 40.5867 107.287 40.1 107.02 39.54C106.767 38.9667 106.64 38.34 106.64 37.66V32.56C106.64 31.8267 106.773 31.16 107.04 30.56C107.307 29.96 107.667 29.4533 108.12 29.04C108.573 28.6133 109.093 28.2867 109.68 28.06C110.28 27.8333 110.913 27.72 111.58 27.72C112.247 27.72 112.867 27.82 113.44 28.02C114.027 28.2067 114.533 28.4867 114.96 28.86C115.4 29.22 115.74 29.6667 115.98 30.2C116.233 30.72 116.36 31.3067 116.36 31.96H113.72ZM111.62 39.76C112.3 39.76 112.86 39.56 113.3 39.16C113.74 38.7467 113.96 38.2 113.96 37.52C113.96 36.84 113.74 36.3 113.3 35.9C112.86 35.4867 112.3 35.28 111.62 35.28C110.94 35.28 110.38 35.4867 109.94 35.9C109.5 36.3 109.28 36.84 109.28 37.52C109.28 38.2 109.5 38.7467 109.94 39.16C110.38 39.56 110.94 39.76 111.62 39.76Z" fill="white"/>
<defs>
<filter id="filter0_b_553_229" x="-30" y="-30" width="365" height="265" filterUnits="userSpaceOnUse" color-interpolation-filters="sRGB">
<feFlood flood-opacity="0" result="BackgroundImageFix"/>
<feGaussianBlur in="BackgroundImageFix" stdDeviation="15"/>
<feComposite in2="SourceAlpha" operator="in" result="effect1_backgroundBlur_553_229"/>
<feBlend mode="normal" in="SourceGraphic" in2="effect1_backgroundBlur_553_229" result="shape"/>
</filter>
</defs>
</svg>
