<svg width="302" height="185" viewBox="0 0 302 185" fill="none" xmlns="http://www.w3.org/2000/svg">
<g filter="url(#filter0_b_553_196)">
<rect width="302" height="185" rx="11" fill="white" fill-opacity="0.05"/>
</g>
<path d="M38.86 49H36.22V44.8C36.22 44.48 36.1333 44.22 35.96 44.02C35.8 43.82 35.5267 43.72 35.14 43.72H32.1V49H29.46V35H34.82C35.54 35 36.1733 35.1 36.72 35.3C37.2667 35.5 37.72 35.78 38.08 36.14C38.4533 36.4867 38.7333 36.8933 38.92 37.36C39.12 37.8267 39.22 38.3267 39.22 38.86V39.34C39.22 39.9133 39.0667 40.4533 38.76 40.96C38.4533 41.4533 37.98 41.8333 37.34 42.1V42.46C37.8067 42.5133 38.1733 42.6933 38.44 43C38.72 43.3067 38.86 43.6933 38.86 44.16V49ZM32.1 41.2H34.62C35.26 41.2 35.7467 41.0533 36.08 40.76C36.4133 40.4533 36.58 40.0267 36.58 39.48V39.24C36.58 38.7733 36.4133 38.3733 36.08 38.04C35.7467 37.6933 35.26 37.52 34.62 37.52H32.1V41.2ZM49.1261 39.08H51.6461V49H49.1261V47.56H48.7661C48.3261 48.7067 47.3794 49.28 45.9261 49.28C45.4328 49.28 44.9728 49.2 44.5461 49.04C44.1194 48.88 43.7461 48.6333 43.4261 48.3C43.1061 47.9667 42.8528 47.5533 42.6661 47.06C42.4928 46.5533 42.4061 45.96 42.4061 45.28V39.08H44.9261V44.76C44.9261 45.4667 45.0928 46.02 45.4261 46.42C45.7594 46.8067 46.2594 47 46.9261 47C47.6861 47 48.2394 46.76 48.5861 46.28C48.9461 45.7867 49.1261 45.12 49.1261 44.28V39.08ZM55.1922 46.6H58.6722V37.4H55.3122V35H61.1922V46.6H64.4322V49H55.1922V46.6ZM70.3183 44.86C70.3316 45.1533 70.3983 45.4267 70.5183 45.68C70.6516 45.92 70.8249 46.1333 71.0383 46.32C71.2649 46.4933 71.5183 46.6333 71.7983 46.74C72.0916 46.8333 72.3983 46.88 72.7183 46.88C73.3449 46.88 73.8249 46.7733 74.1583 46.56C74.4916 46.3333 74.7316 46.0667 74.8783 45.76L77.0383 46.96C76.9183 47.2133 76.7516 47.48 76.5383 47.76C76.3249 48.0267 76.0449 48.2733 75.6983 48.5C75.3649 48.7267 74.9516 48.9133 74.4583 49.06C73.9783 49.2067 73.4116 49.28 72.7583 49.28C72.0116 49.28 71.3316 49.16 70.7183 48.92C70.1049 48.68 69.5716 48.3333 69.1183 47.88C68.6783 47.4267 68.3316 46.8733 68.0783 46.22C67.8383 45.5667 67.7183 44.8267 67.7183 44V43.88C67.7183 43.12 67.8449 42.4267 68.0983 41.8C68.3649 41.1733 68.7249 40.64 69.1783 40.2C69.6316 39.76 70.1583 39.42 70.7583 39.18C71.3716 38.9267 72.0249 38.8 72.7183 38.8C73.5716 38.8 74.3049 38.9533 74.9183 39.26C75.5316 39.5533 76.0383 39.9333 76.4383 40.4C76.8383 40.8533 77.1316 41.36 77.3183 41.92C77.5049 42.4667 77.5983 43 77.5983 43.52V44.86H70.3183ZM72.6983 41.08C72.0583 41.08 71.5383 41.2467 71.1383 41.58C70.7383 41.9 70.4783 42.2733 70.3583 42.7H75.0383C74.9583 42.2333 74.7049 41.8467 74.2783 41.54C73.8649 41.2333 73.3383 41.08 72.6983 41.08ZM82.3844 42.36H88.6244V44.64H82.3844V42.36ZM97.5105 46.48V36.32H97.1505L95.8305 41.12H93.3105V40.88L94.9905 35H100.15V46.48H103.63V49H93.5505V46.48H97.5105Z" fill="white"/>
<path d="M29.504 85.8H36.288V87.048H30.848V90.76H36.192V92.008H30.848V95.752H36.384V97H29.504V85.8ZM45.4289 95.656H45.2369C44.9809 96.1893 44.6235 96.584 44.1649 96.84C43.7169 97.096 43.2422 97.224 42.7409 97.224C42.2182 97.224 41.7329 97.1387 41.2849 96.968C40.8369 96.7867 40.4422 96.5253 40.1009 96.184C39.7702 95.832 39.5089 95.4053 39.3169 94.904C39.1249 94.4027 39.0289 93.8213 39.0289 93.16V92.904C39.0289 92.2533 39.1249 91.6773 39.3169 91.176C39.5089 90.6747 39.7702 90.2533 40.1009 89.912C40.4422 89.56 40.8369 89.2933 41.2849 89.112C41.7329 88.9307 42.2075 88.84 42.7089 88.84C43.2529 88.84 43.7435 88.9627 44.1809 89.208C44.6289 89.4427 44.9809 89.8107 45.2369 90.312H45.4289V89.064H46.6769V95.368C46.6769 95.688 46.8209 95.848 47.1089 95.848H47.5089V97H46.6609C46.2982 97 45.9995 96.8827 45.7649 96.648C45.5409 96.4133 45.4289 96.1147 45.4289 95.752V95.656ZM42.8689 96.04C43.2422 96.04 43.5835 95.9707 43.8929 95.832C44.2129 95.6933 44.4849 95.496 44.7089 95.24C44.9329 94.984 45.1089 94.68 45.2369 94.328C45.3649 93.9653 45.4289 93.5653 45.4289 93.128V92.936C45.4289 92.5093 45.3649 92.12 45.2369 91.768C45.1089 91.4053 44.9275 91.096 44.6929 90.84C44.4689 90.584 44.1969 90.3867 43.8769 90.248C43.5675 90.0987 43.2315 90.024 42.8689 90.024C42.4955 90.024 42.1542 90.0933 41.8449 90.232C41.5355 90.3707 41.2635 90.568 41.0289 90.824C40.8049 91.0693 40.6289 91.3733 40.5009 91.736C40.3729 92.088 40.3089 92.4773 40.3089 92.904V93.16C40.3089 94.0667 40.5435 94.776 41.0129 95.288C41.4929 95.7893 42.1115 96.04 42.8689 96.04ZM57.3697 94.184C57.2844 94.6213 57.1351 95.0267 56.9217 95.4C56.7191 95.7733 56.4577 96.0987 56.1377 96.376C55.8177 96.6427 55.4444 96.8507 55.0177 97C54.5911 97.1493 54.1164 97.224 53.5937 97.224C53.0391 97.224 52.5111 97.1333 52.0097 96.952C51.5191 96.7707 51.0871 96.5093 50.7137 96.168C50.3404 95.816 50.0417 95.3893 49.8177 94.888C49.6044 94.3867 49.4977 93.8107 49.4977 93.16V92.968C49.4977 92.328 49.6044 91.752 49.8177 91.24C50.0417 90.728 50.3404 90.296 50.7137 89.944C51.0871 89.592 51.5191 89.32 52.0097 89.128C52.5111 88.936 53.0391 88.84 53.5937 88.84C54.0951 88.84 54.5591 88.9147 54.9857 89.064C55.4124 89.2133 55.7857 89.4267 56.1057 89.704C56.4364 89.9707 56.7031 90.2907 56.9057 90.664C57.1191 91.0373 57.2631 91.4427 57.3377 91.88L56.0897 92.168C56.0577 91.8907 55.9777 91.624 55.8497 91.368C55.7324 91.1013 55.5671 90.872 55.3537 90.68C55.1511 90.4773 54.9004 90.3173 54.6017 90.2C54.3031 90.0827 53.9564 90.024 53.5617 90.024C53.1777 90.024 52.8151 90.0987 52.4737 90.248C52.1431 90.3867 51.8497 90.5893 51.5937 90.856C51.3377 91.112 51.1351 91.4213 50.9857 91.784C50.8471 92.1467 50.7777 92.5413 50.7777 92.968V93.16C50.7777 93.608 50.8471 94.0133 50.9857 94.376C51.1351 94.728 51.3377 95.0267 51.5937 95.272C51.8497 95.5173 52.1484 95.7093 52.4897 95.848C52.8311 95.976 53.1991 96.04 53.5937 96.04C53.9884 96.04 54.3297 95.9813 54.6177 95.864C54.9164 95.736 55.1671 95.576 55.3697 95.384C55.5831 95.1813 55.7484 94.952 55.8657 94.696C55.9937 94.44 56.0791 94.1733 56.1217 93.896L57.3697 94.184ZM61.4706 97H60.2226V85.8H61.4706V90.504H61.6626C61.908 89.992 62.2493 89.5867 62.6866 89.288C63.1346 88.9893 63.6786 88.84 64.3186 88.84C65.1826 88.84 65.8813 89.128 66.4146 89.704C66.9586 90.2693 67.2306 91.1227 67.2306 92.264V97H65.9826V92.52C65.9826 91.688 65.796 91.064 65.4226 90.648C65.0493 90.232 64.5426 90.024 63.9026 90.024C63.1453 90.024 62.548 90.2853 62.1106 90.808C61.684 91.32 61.4706 92.008 61.4706 92.872V97ZM118.789 89.064H121.285V85.8H122.533V89.064H125.605V90.216H122.533V95.368C122.533 95.688 122.677 95.848 122.965 95.848H125.221V97H122.517C122.155 97 121.856 96.8827 121.621 96.648C121.397 96.4133 121.285 96.1147 121.285 95.752V90.216H118.789V89.064ZM130.25 93.416C130.282 94.2053 130.528 94.84 130.986 95.32C131.445 95.8 132.085 96.04 132.906 96.04C133.28 96.04 133.605 95.9973 133.882 95.912C134.16 95.8267 134.394 95.7093 134.586 95.56C134.789 95.4107 134.949 95.24 135.066 95.048C135.194 94.8453 135.296 94.632 135.37 94.408L136.554 94.728C136.33 95.464 135.914 96.0667 135.306 96.536C134.709 96.9947 133.898 97.224 132.874 97.224C132.309 97.224 131.786 97.128 131.306 96.936C130.837 96.7333 130.432 96.4507 130.09 96.088C129.749 95.7253 129.482 95.2933 129.29 94.792C129.098 94.2907 129.002 93.736 129.002 93.128V92.744C129.002 92.1893 129.098 91.672 129.29 91.192C129.493 90.712 129.77 90.3013 130.122 89.96C130.474 89.608 130.885 89.336 131.354 89.144C131.834 88.9413 132.352 88.84 132.906 88.84C133.557 88.84 134.117 88.9627 134.586 89.208C135.066 89.4427 135.456 89.736 135.754 90.088C136.064 90.44 136.288 90.824 136.426 91.24C136.576 91.656 136.65 92.04 136.65 92.392V93.416H130.25ZM132.906 90.024C132.554 90.024 132.224 90.0827 131.914 90.2C131.616 90.3067 131.349 90.4613 131.114 90.664C130.89 90.8667 130.704 91.1067 130.554 91.384C130.416 91.6507 130.325 91.944 130.282 92.264H135.402C135.381 91.9227 135.296 91.6133 135.146 91.336C135.008 91.0587 134.821 90.824 134.586 90.632C134.362 90.44 134.101 90.2907 133.802 90.184C133.514 90.0773 133.216 90.024 132.906 90.024ZM145.375 95.656H145.183C144.927 96.1893 144.57 96.584 144.111 96.84C143.663 97.096 143.188 97.224 142.687 97.224C142.164 97.224 141.679 97.1387 141.231 96.968C140.783 96.7867 140.388 96.5253 140.047 96.184C139.716 95.832 139.455 95.4053 139.263 94.904C139.071 94.4027 138.975 93.8213 138.975 93.16V92.904C138.975 92.2533 139.071 91.6773 139.263 91.176C139.455 90.6747 139.716 90.2533 140.047 89.912C140.388 89.56 140.783 89.2933 141.231 89.112C141.679 88.9307 142.154 88.84 142.655 88.84C143.199 88.84 143.69 88.9627 144.127 89.208C144.575 89.4427 144.927 89.8107 145.183 90.312H145.375V89.064H146.623V95.368C146.623 95.688 146.767 95.848 147.055 95.848H147.455V97H146.607C146.244 97 145.946 96.8827 145.711 96.648C145.487 96.4133 145.375 96.1147 145.375 95.752V95.656ZM142.815 96.04C143.188 96.04 143.53 95.9707 143.839 95.832C144.159 95.6933 144.431 95.496 144.655 95.24C144.879 94.984 145.055 94.68 145.183 94.328C145.311 93.9653 145.375 93.5653 145.375 93.128V92.936C145.375 92.5093 145.311 92.12 145.183 91.768C145.055 91.4053 144.874 91.096 144.639 90.84C144.415 90.584 144.143 90.3867 143.823 90.248C143.514 90.0987 143.178 90.024 142.815 90.024C142.442 90.024 142.1 90.0933 141.791 90.232C141.482 90.3707 141.21 90.568 140.975 90.824C140.751 91.0693 140.575 91.3733 140.447 91.736C140.319 92.088 140.255 92.4773 140.255 92.904V93.16C140.255 94.0667 140.49 94.776 140.959 95.288C141.439 95.7893 142.058 96.04 142.815 96.04ZM157.524 97H156.276V91.304C156.276 90.9307 156.191 90.6267 156.02 90.392C155.849 90.1467 155.577 90.024 155.204 90.024C154.852 90.024 154.564 90.1573 154.34 90.424C154.127 90.68 154.02 91.08 154.02 91.624V97H152.772V91.24C152.772 90.888 152.676 90.6 152.484 90.376C152.292 90.1413 152.036 90.024 151.716 90.024C151.332 90.024 151.033 90.1627 150.82 90.44C150.617 90.7173 150.516 91.08 150.516 91.528V97H149.268V89.064H150.516V89.928H150.708C150.847 89.5547 151.049 89.2827 151.316 89.112C151.583 88.9307 151.897 88.84 152.26 88.84C152.644 88.84 152.959 88.9413 153.204 89.144C153.46 89.3467 153.636 89.608 153.732 89.928H153.924C154.287 89.2027 154.863 88.84 155.652 88.84C156.249 88.84 156.708 89.032 157.028 89.416C157.359 89.7893 157.524 90.28 157.524 90.888V97ZM210.379 91.112C210.379 91.496 210.539 91.7893 210.859 91.992C211.189 92.1947 211.787 92.328 212.651 92.392C213.579 92.4667 214.283 92.6907 214.763 93.064C215.253 93.4267 215.499 93.96 215.499 94.664V94.76C215.499 95.144 215.419 95.4907 215.259 95.8C215.109 96.0987 214.896 96.3547 214.619 96.568C214.352 96.7813 214.021 96.9413 213.627 97.048C213.243 97.1653 212.821 97.224 212.363 97.224C211.744 97.224 211.211 97.144 210.763 96.984C210.325 96.8133 209.957 96.5947 209.659 96.328C209.371 96.0507 209.152 95.7413 209.003 95.4C208.853 95.048 208.768 94.696 208.747 94.344L209.931 94.056C209.984 94.664 210.219 95.1547 210.635 95.528C211.051 95.8907 211.605 96.072 212.299 96.072C212.885 96.072 213.355 95.96 213.707 95.736C214.069 95.5013 214.251 95.176 214.251 94.76C214.251 94.312 214.075 93.992 213.723 93.8C213.371 93.608 212.8 93.4853 212.011 93.432C211.093 93.368 210.389 93.1547 209.899 92.792C209.408 92.4293 209.163 91.9013 209.163 91.208V91.112C209.163 90.7387 209.243 90.4133 209.403 90.136C209.563 89.848 209.776 89.608 210.043 89.416C210.32 89.224 210.629 89.08 210.971 88.984C211.312 88.888 211.669 88.84 212.043 88.84C212.565 88.84 213.024 88.9147 213.419 89.064C213.813 89.2027 214.144 89.3893 214.411 89.624C214.677 89.848 214.88 90.1093 215.019 90.408C215.168 90.7067 215.264 91.0053 215.307 91.304L214.123 91.592C214.069 91.08 213.861 90.68 213.499 90.392C213.147 90.104 212.683 89.96 212.107 89.96C211.883 89.96 211.664 89.9867 211.451 90.04C211.248 90.0827 211.067 90.152 210.907 90.248C210.747 90.344 210.619 90.4667 210.523 90.616C210.427 90.7547 210.379 90.92 210.379 91.112ZM220.256 97H219.008V85.8H220.256V90.504H220.448C220.693 89.992 221.034 89.5867 221.472 89.288C221.92 88.9893 222.464 88.84 223.104 88.84C223.968 88.84 224.666 89.128 225.2 89.704C225.744 90.2693 226.016 91.1227 226.016 92.264V97H224.768V92.52C224.768 91.688 224.581 91.064 224.208 90.648C223.834 90.232 223.328 90.024 222.688 90.024C221.93 90.024 221.333 90.2853 220.896 90.808C220.469 91.32 220.256 92.008 220.256 92.872V97ZM236.773 93.128C236.773 93.7893 236.661 94.376 236.437 94.888C236.223 95.3893 235.935 95.816 235.573 96.168C235.21 96.5093 234.783 96.7707 234.293 96.952C233.813 97.1333 233.311 97.224 232.789 97.224C232.255 97.224 231.749 97.1333 231.269 96.952C230.789 96.7707 230.367 96.5093 230.005 96.168C229.642 95.816 229.349 95.3893 229.125 94.888C228.911 94.376 228.805 93.7893 228.805 93.128V92.936C228.805 92.2853 228.911 91.7093 229.125 91.208C229.349 90.696 229.642 90.264 230.005 89.912C230.378 89.56 230.805 89.2933 231.285 89.112C231.765 88.9307 232.266 88.84 232.789 88.84C233.311 88.84 233.813 88.9307 234.293 89.112C234.773 89.2933 235.194 89.56 235.557 89.912C235.93 90.264 236.223 90.696 236.437 91.208C236.661 91.7093 236.773 92.2853 236.773 92.936V93.128ZM232.789 96.04C233.173 96.04 233.525 95.976 233.845 95.848C234.175 95.7093 234.463 95.512 234.709 95.256C234.954 95 235.146 94.696 235.285 94.344C235.423 93.9813 235.493 93.576 235.493 93.128V92.936C235.493 92.5093 235.423 92.12 235.285 91.768C235.146 91.4053 234.954 91.096 234.709 90.84C234.463 90.584 234.175 90.3867 233.845 90.248C233.514 90.0987 233.162 90.024 232.789 90.024C232.415 90.024 232.063 90.0987 231.733 90.248C231.402 90.3867 231.114 90.584 230.869 90.84C230.623 91.096 230.431 91.4053 230.293 91.768C230.154 92.12 230.085 92.5093 230.085 92.936V93.128C230.085 93.576 230.154 93.9813 230.293 94.344C230.431 94.696 230.623 95 230.869 95.256C231.114 95.512 231.397 95.7093 231.717 95.848C232.047 95.976 232.405 96.04 232.789 96.04ZM245.225 89.064H246.473V97H245.225V95.56H245.033C244.777 96.072 244.441 96.4773 244.025 96.776C243.609 97.0747 243.081 97.224 242.441 97.224C242.004 97.224 241.599 97.1493 241.225 97C240.863 96.8613 240.548 96.648 240.281 96.36C240.025 96.072 239.823 95.7147 239.673 95.288C239.535 94.8613 239.465 94.3653 239.465 93.8V89.064H240.713V93.64C240.713 94.472 240.884 95.08 241.225 95.464C241.567 95.848 242.089 96.04 242.793 96.04C243.551 96.04 244.143 95.784 244.569 95.272C245.007 94.7493 245.225 94.056 245.225 93.192V89.064ZM249.838 95.848H252.718V86.952H249.934V85.8H253.966V95.848H256.846V97H249.838V95.848ZM266.259 95.784H266.067C265.939 96.0293 265.774 96.2427 265.571 96.424C265.379 96.6053 265.166 96.7547 264.931 96.872C264.707 96.9893 264.467 97.0747 264.211 97.128C263.955 97.192 263.71 97.224 263.475 97.224C262.942 97.224 262.446 97.1333 261.987 96.952C261.528 96.7707 261.123 96.5093 260.771 96.168C260.43 95.8267 260.158 95.4053 259.955 94.904C259.763 94.392 259.667 93.8107 259.667 93.16V92.904C259.667 92.264 259.768 91.6933 259.971 91.192C260.174 90.68 260.446 90.2533 260.787 89.912C261.128 89.56 261.528 89.2933 261.987 89.112C262.446 88.9307 262.931 88.84 263.443 88.84C263.987 88.84 264.494 88.9627 264.963 89.208C265.443 89.4427 265.811 89.8107 266.067 90.312H266.259V85.8H267.507V97H266.259V95.784ZM263.603 96.04C263.976 96.04 264.323 95.9707 264.643 95.832C264.963 95.6933 265.24 95.496 265.475 95.24C265.72 94.984 265.912 94.68 266.051 94.328C266.19 93.9653 266.259 93.5653 266.259 93.128V92.936C266.259 92.5093 266.19 92.12 266.051 91.768C265.912 91.4053 265.72 91.096 265.475 90.84C265.24 90.584 264.958 90.3867 264.627 90.248C264.307 90.0987 263.966 90.024 263.603 90.024C263.23 90.024 262.878 90.0933 262.547 90.232C262.227 90.3707 261.944 90.568 261.699 90.824C261.464 91.08 261.278 91.384 261.139 91.736C261.011 92.088 260.947 92.4773 260.947 92.904V93.16C260.947 93.608 261.011 94.008 261.139 94.36C261.278 94.712 261.464 95.016 261.699 95.272C261.944 95.5173 262.227 95.7093 262.547 95.848C262.867 95.976 263.219 96.04 263.603 96.04ZM36.816 123.184C36.7307 123.621 36.5813 124.027 36.368 124.4C36.1653 124.773 35.904 125.099 35.584 125.376C35.264 125.643 34.8907 125.851 34.464 126C34.0373 126.149 33.5627 126.224 33.04 126.224C32.4853 126.224 31.9573 126.133 31.456 125.952C30.9653 125.771 30.5333 125.509 30.16 125.168C29.7867 124.816 29.488 124.389 29.264 123.888C29.0507 123.387 28.944 122.811 28.944 122.16V121.968C28.944 121.328 29.0507 120.752 29.264 120.24C29.488 119.728 29.7867 119.296 30.16 118.944C30.5333 118.592 30.9653 118.32 31.456 118.128C31.9573 117.936 32.4853 117.84 33.04 117.84C33.5413 117.84 34.0053 117.915 34.432 118.064C34.8587 118.213 35.232 118.427 35.552 118.704C35.8827 118.971 36.1493 119.291 36.352 119.664C36.5653 120.037 36.7093 120.443 36.784 120.88L35.536 121.168C35.504 120.891 35.424 120.624 35.296 120.368C35.1787 120.101 35.0133 119.872 34.8 119.68C34.5973 119.477 34.3467 119.317 34.048 119.2C33.7493 119.083 33.4027 119.024 33.008 119.024C32.624 119.024 32.2613 119.099 31.92 119.248C31.5893 119.387 31.296 119.589 31.04 119.856C30.784 120.112 30.5813 120.421 30.432 120.784C30.2933 121.147 30.224 121.541 30.224 121.968V122.16C30.224 122.608 30.2933 123.013 30.432 123.376C30.5813 123.728 30.784 124.027 31.04 124.272C31.296 124.517 31.5947 124.709 31.936 124.848C32.2773 124.976 32.6453 125.04 33.04 125.04C33.4347 125.04 33.776 124.981 34.064 124.864C34.3627 124.736 34.6133 124.576 34.816 124.384C35.0293 124.181 35.1947 123.952 35.312 123.696C35.44 123.44 35.5253 123.173 35.568 122.896L36.816 123.184ZM47.1569 122.128C47.1569 122.789 47.0449 123.376 46.8209 123.888C46.6075 124.389 46.3195 124.816 45.9569 125.168C45.5942 125.509 45.1675 125.771 44.6769 125.952C44.1969 126.133 43.6955 126.224 43.1729 126.224C42.6395 126.224 42.1329 126.133 41.6529 125.952C41.1729 125.771 40.7515 125.509 40.3889 125.168C40.0262 124.816 39.7329 124.389 39.5089 123.888C39.2955 123.376 39.1889 122.789 39.1889 122.128V121.936C39.1889 121.285 39.2955 120.709 39.5089 120.208C39.7329 119.696 40.0262 119.264 40.3889 118.912C40.7622 118.56 41.1889 118.293 41.6689 118.112C42.1489 117.931 42.6502 117.84 43.1729 117.84C43.6955 117.84 44.1969 117.931 44.6769 118.112C45.1569 118.293 45.5782 118.56 45.9409 118.912C46.3142 119.264 46.6075 119.696 46.8209 120.208C47.0449 120.709 47.1569 121.285 47.1569 121.936V122.128ZM43.1729 125.04C43.5569 125.04 43.9089 124.976 44.2289 124.848C44.5595 124.709 44.8475 124.512 45.0929 124.256C45.3382 124 45.5302 123.696 45.6689 123.344C45.8075 122.981 45.8769 122.576 45.8769 122.128V121.936C45.8769 121.509 45.8075 121.12 45.6689 120.768C45.5302 120.405 45.3382 120.096 45.0929 119.84C44.8475 119.584 44.5595 119.387 44.2289 119.248C43.8982 119.099 43.5462 119.024 43.1729 119.024C42.7995 119.024 42.4475 119.099 42.1169 119.248C41.7862 119.387 41.4982 119.584 41.2529 119.84C41.0075 120.096 40.8155 120.405 40.6769 120.768C40.5382 121.12 40.4689 121.509 40.4689 121.936V122.128C40.4689 122.576 40.5382 122.981 40.6769 123.344C40.8155 123.696 41.0075 124 41.2529 124.256C41.4982 124.512 41.7809 124.709 42.1009 124.848C42.4315 124.976 42.7889 125.04 43.1729 125.04ZM51.1937 126H49.9457V118.064H51.1937V119.408H51.3857C51.8764 118.363 52.7297 117.84 53.9457 117.84C54.8631 117.84 55.5937 118.128 56.1377 118.704C56.6817 119.269 56.9537 120.123 56.9537 121.264V126H55.7057V121.52C55.7057 120.688 55.5191 120.064 55.1457 119.648C54.7724 119.232 54.2657 119.024 53.6257 119.024C52.8684 119.024 52.2711 119.285 51.8337 119.808C51.4071 120.32 51.1937 121.008 51.1937 121.872V126ZM61.8706 120.112C61.8706 120.496 62.0306 120.789 62.3506 120.992C62.6813 121.195 63.2786 121.328 64.1426 121.392C65.0706 121.467 65.7746 121.691 66.2546 122.064C66.7453 122.427 66.9906 122.96 66.9906 123.664V123.76C66.9906 124.144 66.9106 124.491 66.7506 124.8C66.6013 125.099 66.388 125.355 66.1106 125.568C65.844 125.781 65.5133 125.941 65.1186 126.048C64.7346 126.165 64.3133 126.224 63.8546 126.224C63.236 126.224 62.7026 126.144 62.2546 125.984C61.8173 125.813 61.4493 125.595 61.1506 125.328C60.8626 125.051 60.644 124.741 60.4946 124.4C60.3453 124.048 60.26 123.696 60.2386 123.344L61.4226 123.056C61.476 123.664 61.7106 124.155 62.1266 124.528C62.5426 124.891 63.0973 125.072 63.7906 125.072C64.3773 125.072 64.8466 124.96 65.1986 124.736C65.5613 124.501 65.7426 124.176 65.7426 123.76C65.7426 123.312 65.5666 122.992 65.2146 122.8C64.8626 122.608 64.292 122.485 63.5026 122.432C62.5853 122.368 61.8813 122.155 61.3906 121.792C60.9 121.429 60.6546 120.901 60.6546 120.208V120.112C60.6546 119.739 60.7346 119.413 60.8946 119.136C61.0546 118.848 61.268 118.608 61.5346 118.416C61.812 118.224 62.1213 118.08 62.4626 117.984C62.804 117.888 63.1613 117.84 63.5346 117.84C64.0573 117.84 64.516 117.915 64.9106 118.064C65.3053 118.203 65.636 118.389 65.9026 118.624C66.1693 118.848 66.372 119.109 66.5106 119.408C66.66 119.707 66.756 120.005 66.7986 120.304L65.6146 120.592C65.5613 120.08 65.3533 119.68 64.9906 119.392C64.6386 119.104 64.1746 118.96 63.5986 118.96C63.3746 118.96 63.156 118.987 62.9426 119.04C62.74 119.083 62.5586 119.152 62.3986 119.248C62.2386 119.344 62.1106 119.467 62.0146 119.616C61.9186 119.755 61.8706 119.92 61.8706 120.112ZM72.9635 115.696C72.9635 115.387 73.0702 115.125 73.2835 114.912C73.5075 114.688 73.7742 114.576 74.0835 114.576C74.3928 114.576 74.6542 114.688 74.8675 114.912C75.0915 115.125 75.2035 115.387 75.2035 115.696C75.2035 116.005 75.0915 116.272 74.8675 116.496C74.6542 116.709 74.3928 116.816 74.0835 116.816C73.7742 116.816 73.5075 116.709 73.2835 116.496C73.0702 116.272 72.9635 116.005 72.9635 115.696ZM70.6915 124.848H73.4755V119.216H70.9795V118.064H74.7235V124.848H77.3155V126H70.6915V124.848ZM82.4244 120.112C82.4244 120.496 82.5844 120.789 82.9044 120.992C83.235 121.195 83.8324 121.328 84.6964 121.392C85.6244 121.467 86.3284 121.691 86.8084 122.064C87.299 122.427 87.5444 122.96 87.5444 123.664V123.76C87.5444 124.144 87.4644 124.491 87.3044 124.8C87.155 125.099 86.9417 125.355 86.6644 125.568C86.3977 125.781 86.067 125.941 85.6724 126.048C85.2884 126.165 84.867 126.224 84.4084 126.224C83.7897 126.224 83.2564 126.144 82.8084 125.984C82.371 125.813 82.003 125.595 81.7044 125.328C81.4164 125.051 81.1977 124.741 81.0484 124.4C80.899 124.048 80.8137 123.696 80.7924 123.344L81.9764 123.056C82.0297 123.664 82.2644 124.155 82.6804 124.528C83.0964 124.891 83.651 125.072 84.3444 125.072C84.931 125.072 85.4004 124.96 85.7524 124.736C86.115 124.501 86.2964 124.176 86.2964 123.76C86.2964 123.312 86.1204 122.992 85.7684 122.8C85.4164 122.608 84.8457 122.485 84.0564 122.432C83.139 122.368 82.435 122.155 81.9444 121.792C81.4537 121.429 81.2084 120.901 81.2084 120.208V120.112C81.2084 119.739 81.2884 119.413 81.4484 119.136C81.6084 118.848 81.8217 118.608 82.0884 118.416C82.3657 118.224 82.675 118.08 83.0164 117.984C83.3577 117.888 83.715 117.84 84.0884 117.84C84.611 117.84 85.0697 117.915 85.4644 118.064C85.859 118.203 86.1897 118.389 86.4564 118.624C86.723 118.848 86.9257 119.109 87.0644 119.408C87.2137 119.707 87.3097 120.005 87.3524 120.304L86.1684 120.592C86.115 120.08 85.907 119.68 85.5444 119.392C85.1924 119.104 84.7284 118.96 84.1524 118.96C83.9284 118.96 83.7097 118.987 83.4964 119.04C83.2937 119.083 83.1124 119.152 82.9524 119.248C82.7924 119.344 82.6644 119.467 82.5684 119.616C82.4724 119.755 82.4244 119.92 82.4244 120.112ZM90.7813 118.064H93.2773V114.8H94.5253V118.064H97.5973V119.216H94.5253V124.368C94.5253 124.688 94.6693 124.848 94.9573 124.848H97.2133V126H94.5093C94.1466 126 93.8479 125.883 93.6133 125.648C93.3893 125.413 93.2773 125.115 93.2773 124.752V119.216H90.7813V118.064ZM167.657 122.128C167.657 122.789 167.545 123.376 167.321 123.888C167.108 124.389 166.82 124.816 166.457 125.168C166.094 125.509 165.668 125.771 165.177 125.952C164.697 126.133 164.196 126.224 163.673 126.224C163.14 126.224 162.633 126.133 162.153 125.952C161.673 125.771 161.252 125.509 160.889 125.168C160.526 124.816 160.233 124.389 160.009 123.888C159.796 123.376 159.689 122.789 159.689 122.128V121.936C159.689 121.285 159.796 120.709 160.009 120.208C160.233 119.696 160.526 119.264 160.889 118.912C161.262 118.56 161.689 118.293 162.169 118.112C162.649 117.931 163.15 117.84 163.673 117.84C164.196 117.84 164.697 117.931 165.177 118.112C165.657 118.293 166.078 118.56 166.441 118.912C166.814 119.264 167.108 119.696 167.321 120.208C167.545 120.709 167.657 121.285 167.657 121.936V122.128ZM163.673 125.04C164.057 125.04 164.409 124.976 164.729 124.848C165.06 124.709 165.348 124.512 165.593 124.256C165.838 124 166.03 123.696 166.169 123.344C166.308 122.981 166.377 122.576 166.377 122.128V121.936C166.377 121.509 166.308 121.12 166.169 120.768C166.03 120.405 165.838 120.096 165.593 119.84C165.348 119.584 165.06 119.387 164.729 119.248C164.398 119.099 164.046 119.024 163.673 119.024C163.3 119.024 162.948 119.099 162.617 119.248C162.286 119.387 161.998 119.584 161.753 119.84C161.508 120.096 161.316 120.405 161.177 120.768C161.038 121.12 160.969 121.509 160.969 121.936V122.128C160.969 122.576 161.038 122.981 161.177 123.344C161.316 123.696 161.508 124 161.753 124.256C161.998 124.512 162.281 124.709 162.601 124.848C162.932 124.976 163.289 125.04 163.673 125.04ZM170.366 118.064H172.814V116.048C172.814 115.685 172.926 115.387 173.15 115.152C173.384 114.917 173.683 114.8 174.046 114.8H177.182V115.952H174.494C174.206 115.952 174.062 116.112 174.062 116.432V118.064H177.374V119.216H174.062V126H172.814V119.216H170.366V118.064ZM239.289 118.064H241.785V114.8H243.033V118.064H246.105V119.216H243.033V124.368C243.033 124.688 243.177 124.848 243.465 124.848H245.721V126H243.017C242.655 126 242.356 125.883 242.121 125.648C241.897 125.413 241.785 125.115 241.785 124.752V119.216H239.289V118.064ZM256.702 126H254.398L253.438 118.64H253.246L252.286 126H249.982L248.734 118.064H250.014L251.07 125.424H251.262L252.19 118.064H254.494L255.422 125.424H255.614L256.67 118.064H257.95L256.702 126ZM267.603 122.128C267.603 122.789 267.491 123.376 267.267 123.888C267.054 124.389 266.766 124.816 266.403 125.168C266.04 125.509 265.614 125.771 265.123 125.952C264.643 126.133 264.142 126.224 263.619 126.224C263.086 126.224 262.579 126.133 262.099 125.952C261.619 125.771 261.198 125.509 260.835 125.168C260.472 124.816 260.179 124.389 259.955 123.888C259.742 123.376 259.635 122.789 259.635 122.128V121.936C259.635 121.285 259.742 120.709 259.955 120.208C260.179 119.696 260.472 119.264 260.835 118.912C261.208 118.56 261.635 118.293 262.115 118.112C262.595 117.931 263.096 117.84 263.619 117.84C264.142 117.84 264.643 117.931 265.123 118.112C265.603 118.293 266.024 118.56 266.387 118.912C266.76 119.264 267.054 119.696 267.267 120.208C267.491 120.709 267.603 121.285 267.603 121.936V122.128ZM263.619 125.04C264.003 125.04 264.355 124.976 264.675 124.848C265.006 124.709 265.294 124.512 265.539 124.256C265.784 124 265.976 123.696 266.115 123.344C266.254 122.981 266.323 122.576 266.323 122.128V121.936C266.323 121.509 266.254 121.12 266.115 120.768C265.976 120.405 265.784 120.096 265.539 119.84C265.294 119.584 265.006 119.387 264.675 119.248C264.344 119.099 263.992 119.024 263.619 119.024C263.246 119.024 262.894 119.099 262.563 119.248C262.232 119.387 261.944 119.584 261.699 119.84C261.454 120.096 261.262 120.405 261.123 120.768C260.984 121.12 260.915 121.509 260.915 121.936V122.128C260.915 122.576 260.984 122.981 261.123 123.344C261.262 123.696 261.454 124 261.699 124.256C261.944 124.512 262.227 124.709 262.547 124.848C262.878 124.976 263.235 125.04 263.619 125.04ZM30.352 158.2H29.104V147.064H30.352V148.312H30.544C30.8213 147.832 31.2053 147.469 31.696 147.224C32.1867 146.968 32.72 146.84 33.296 146.84C33.7867 146.84 34.2507 146.931 34.688 147.112C35.1253 147.293 35.5093 147.555 35.84 147.896C36.1813 148.237 36.448 148.659 36.64 149.16C36.8427 149.661 36.944 150.232 36.944 150.872V151.192C36.944 151.843 36.848 152.419 36.656 152.92C36.464 153.421 36.1973 153.843 35.856 154.184C35.5253 154.525 35.136 154.787 34.688 154.968C34.24 155.139 33.7653 155.224 33.264 155.224C33.008 155.224 32.7467 155.192 32.48 155.128C32.2133 155.075 31.9573 154.989 31.712 154.872C31.4773 154.744 31.2587 154.595 31.056 154.424C30.8533 154.243 30.6827 154.029 30.544 153.784H30.352V158.2ZM33.008 154.04C33.392 154.04 33.744 153.976 34.064 153.848C34.384 153.709 34.6613 153.517 34.896 153.272C35.1413 153.027 35.328 152.728 35.456 152.376C35.5947 152.024 35.664 151.629 35.664 151.192V150.872C35.664 150.445 35.5947 150.061 35.456 149.72C35.328 149.368 35.1413 149.069 34.896 148.824C34.6613 148.568 34.3787 148.371 34.048 148.232C33.728 148.093 33.3813 148.024 33.008 148.024C32.6347 148.024 32.288 148.099 31.968 148.248C31.648 148.387 31.3653 148.584 31.12 148.84C30.8853 149.096 30.6987 149.405 30.56 149.768C30.4213 150.12 30.352 150.509 30.352 150.936V151.128C30.352 151.565 30.4213 151.965 30.56 152.328C30.6987 152.68 30.8853 152.984 31.12 153.24C31.3653 153.496 31.648 153.693 31.968 153.832C32.288 153.971 32.6347 154.04 33.008 154.04ZM45.4289 153.656H45.2369C44.9809 154.189 44.6235 154.584 44.1649 154.84C43.7169 155.096 43.2422 155.224 42.7409 155.224C42.2182 155.224 41.7329 155.139 41.2849 154.968C40.8369 154.787 40.4422 154.525 40.1009 154.184C39.7702 153.832 39.5089 153.405 39.3169 152.904C39.1249 152.403 39.0289 151.821 39.0289 151.16V150.904C39.0289 150.253 39.1249 149.677 39.3169 149.176C39.5089 148.675 39.7702 148.253 40.1009 147.912C40.4422 147.56 40.8369 147.293 41.2849 147.112C41.7329 146.931 42.2075 146.84 42.7089 146.84C43.2529 146.84 43.7435 146.963 44.1809 147.208C44.6289 147.443 44.9809 147.811 45.2369 148.312H45.4289V147.064H46.6769V153.368C46.6769 153.688 46.8209 153.848 47.1089 153.848H47.5089V155H46.6609C46.2982 155 45.9995 154.883 45.7649 154.648C45.5409 154.413 45.4289 154.115 45.4289 153.752V153.656ZM42.8689 154.04C43.2422 154.04 43.5835 153.971 43.8929 153.832C44.2129 153.693 44.4849 153.496 44.7089 153.24C44.9329 152.984 45.1089 152.68 45.2369 152.328C45.3649 151.965 45.4289 151.565 45.4289 151.128V150.936C45.4289 150.509 45.3649 150.12 45.2369 149.768C45.1089 149.405 44.9275 149.096 44.6929 148.84C44.4689 148.584 44.1969 148.387 43.8769 148.248C43.5675 148.099 43.2315 148.024 42.8689 148.024C42.4955 148.024 42.1542 148.093 41.8449 148.232C41.5355 148.371 41.2635 148.568 41.0289 148.824C40.8049 149.069 40.6289 149.373 40.5009 149.736C40.3729 150.088 40.3089 150.477 40.3089 150.904V151.16C40.3089 152.067 40.5435 152.776 41.0129 153.288C41.4929 153.789 42.1115 154.04 42.8689 154.04ZM49.4977 147.064H52.3777V148.12H52.5697C52.7724 147.683 53.0604 147.363 53.4337 147.16C53.8071 146.947 54.2337 146.84 54.7137 146.84C55.5137 146.84 56.1591 147.101 56.6497 147.624C57.1404 148.147 57.4017 148.909 57.4337 149.912L56.1217 150.104C56.1217 149.368 55.9457 148.84 55.5937 148.52C55.2417 148.189 54.8097 148.024 54.2977 148.024C53.9671 148.024 53.6791 148.088 53.4337 148.216C53.1991 148.344 53.0017 148.52 52.8417 148.744C52.6817 148.968 52.5644 149.229 52.4897 149.528C52.4151 149.827 52.3777 150.147 52.3777 150.488V153.848H54.3937V155H49.3057V153.848H51.1297V148.216H49.4977V147.064ZM59.9506 147.064H62.4466V143.8H63.6946V147.064H66.7666V148.216H63.6946V153.368C63.6946 153.688 63.8386 153.848 64.1266 153.848H66.3826V155H63.6786C63.316 155 63.0173 154.883 62.7826 154.648C62.5586 154.413 62.4466 154.115 62.4466 153.752V148.216H59.9506V147.064ZM72.9635 144.696C72.9635 144.387 73.0702 144.125 73.2835 143.912C73.5075 143.688 73.7742 143.576 74.0835 143.576C74.3928 143.576 74.6542 143.688 74.8675 143.912C75.0915 144.125 75.2035 144.387 75.2035 144.696C75.2035 145.005 75.0915 145.272 74.8675 145.496C74.6542 145.709 74.3928 145.816 74.0835 145.816C73.7742 145.816 73.5075 145.709 73.2835 145.496C73.0702 145.272 72.9635 145.005 72.9635 144.696ZM70.6915 153.848H73.4755V148.216H70.9795V147.064H74.7235V153.848H77.3155V155H70.6915V153.848ZM88.2004 152.184C88.115 152.621 87.9657 153.027 87.7524 153.4C87.5497 153.773 87.2884 154.099 86.9684 154.376C86.6484 154.643 86.275 154.851 85.8484 155C85.4217 155.149 84.947 155.224 84.4244 155.224C83.8697 155.224 83.3417 155.133 82.8404 154.952C82.3497 154.771 81.9177 154.509 81.5444 154.168C81.171 153.816 80.8724 153.389 80.6484 152.888C80.435 152.387 80.3284 151.811 80.3284 151.16V150.968C80.3284 150.328 80.435 149.752 80.6484 149.24C80.8724 148.728 81.171 148.296 81.5444 147.944C81.9177 147.592 82.3497 147.32 82.8404 147.128C83.3417 146.936 83.8697 146.84 84.4244 146.84C84.9257 146.84 85.3897 146.915 85.8164 147.064C86.243 147.213 86.6164 147.427 86.9364 147.704C87.267 147.971 87.5337 148.291 87.7364 148.664C87.9497 149.037 88.0937 149.443 88.1684 149.88L86.9204 150.168C86.8884 149.891 86.8084 149.624 86.6804 149.368C86.563 149.101 86.3977 148.872 86.1844 148.68C85.9817 148.477 85.731 148.317 85.4324 148.2C85.1337 148.083 84.787 148.024 84.3924 148.024C84.0084 148.024 83.6457 148.099 83.3044 148.248C82.9737 148.387 82.6804 148.589 82.4244 148.856C82.1684 149.112 81.9657 149.421 81.8164 149.784C81.6777 150.147 81.6084 150.541 81.6084 150.968V151.16C81.6084 151.608 81.6777 152.013 81.8164 152.376C81.9657 152.728 82.1684 153.027 82.4244 153.272C82.6804 153.517 82.979 153.709 83.3204 153.848C83.6617 153.976 84.0297 154.04 84.4244 154.04C84.819 154.04 85.1604 153.981 85.4484 153.864C85.747 153.736 85.9977 153.576 86.2004 153.384C86.4137 153.181 86.579 152.952 86.6964 152.696C86.8244 152.44 86.9097 152.173 86.9524 151.896L88.2004 152.184ZM93.5173 144.696C93.5173 144.387 93.6239 144.125 93.8373 143.912C94.0613 143.688 94.3279 143.576 94.6373 143.576C94.9466 143.576 95.2079 143.688 95.4213 143.912C95.6453 144.125 95.7573 144.387 95.7573 144.696C95.7573 145.005 95.6453 145.272 95.4213 145.496C95.2079 145.709 94.9466 145.816 94.6373 145.816C94.3279 145.816 94.0613 145.709 93.8373 145.496C93.6239 145.272 93.5173 145.005 93.5173 144.696ZM91.2453 153.848H94.0293V148.216H91.5333V147.064H95.2773V153.848H97.8693V155H91.2453V153.848ZM102.29 158.2H101.042V147.064H102.29V148.312H102.482C102.759 147.832 103.143 147.469 103.634 147.224C104.125 146.968 104.658 146.84 105.234 146.84C105.725 146.84 106.189 146.931 106.626 147.112C107.063 147.293 107.447 147.555 107.778 147.896C108.119 148.237 108.386 148.659 108.578 149.16C108.781 149.661 108.882 150.232 108.882 150.872V151.192C108.882 151.843 108.786 152.419 108.594 152.92C108.402 153.421 108.135 153.843 107.794 154.184C107.463 154.525 107.074 154.787 106.626 154.968C106.178 155.139 105.703 155.224 105.202 155.224C104.946 155.224 104.685 155.192 104.418 155.128C104.151 155.075 103.895 154.989 103.65 154.872C103.415 154.744 103.197 154.595 102.994 154.424C102.791 154.243 102.621 154.029 102.482 153.784H102.29V158.2ZM104.946 154.04C105.33 154.04 105.682 153.976 106.002 153.848C106.322 153.709 106.599 153.517 106.834 153.272C107.079 153.027 107.266 152.728 107.394 152.376C107.533 152.024 107.602 151.629 107.602 151.192V150.872C107.602 150.445 107.533 150.061 107.394 149.72C107.266 149.368 107.079 149.069 106.834 148.824C106.599 148.568 106.317 148.371 105.986 148.232C105.666 148.093 105.319 148.024 104.946 148.024C104.573 148.024 104.226 148.099 103.906 148.248C103.586 148.387 103.303 148.584 103.058 148.84C102.823 149.096 102.637 149.405 102.498 149.768C102.359 150.12 102.29 150.509 102.29 150.936V151.128C102.29 151.565 102.359 151.965 102.498 152.328C102.637 152.68 102.823 152.984 103.058 153.24C103.303 153.496 103.586 153.693 103.906 153.832C104.226 153.971 104.573 154.04 104.946 154.04ZM117.367 153.656H117.175C116.919 154.189 116.562 154.584 116.103 154.84C115.655 155.096 115.18 155.224 114.679 155.224C114.156 155.224 113.671 155.139 113.223 154.968C112.775 154.787 112.38 154.525 112.039 154.184C111.708 153.832 111.447 153.405 111.255 152.904C111.063 152.403 110.967 151.821 110.967 151.16V150.904C110.967 150.253 111.063 149.677 111.255 149.176C111.447 148.675 111.708 148.253 112.039 147.912C112.38 147.56 112.775 147.293 113.223 147.112C113.671 146.931 114.146 146.84 114.647 146.84C115.191 146.84 115.682 146.963 116.119 147.208C116.567 147.443 116.919 147.811 117.175 148.312H117.367V147.064H118.615V153.368C118.615 153.688 118.759 153.848 119.047 153.848H119.447V155H118.599C118.236 155 117.938 154.883 117.703 154.648C117.479 154.413 117.367 154.115 117.367 153.752V153.656ZM114.807 154.04C115.18 154.04 115.522 153.971 115.831 153.832C116.151 153.693 116.423 153.496 116.647 153.24C116.871 152.984 117.047 152.68 117.175 152.328C117.303 151.965 117.367 151.565 117.367 151.128V150.936C117.367 150.509 117.303 150.12 117.175 149.768C117.047 149.405 116.866 149.096 116.631 148.84C116.407 148.584 116.135 148.387 115.815 148.248C115.506 148.099 115.17 148.024 114.807 148.024C114.434 148.024 114.092 148.093 113.783 148.232C113.474 148.371 113.202 148.568 112.967 148.824C112.743 149.069 112.567 149.373 112.439 149.736C112.311 150.088 112.247 150.477 112.247 150.904V151.16C112.247 152.067 112.482 152.776 112.951 153.288C113.431 153.789 114.05 154.04 114.807 154.04ZM123.132 155H121.884V147.064H123.132V148.408H123.324C123.815 147.363 124.668 146.84 125.884 146.84C126.801 146.84 127.532 147.128 128.076 147.704C128.62 148.269 128.892 149.123 128.892 150.264V155H127.644V150.52C127.644 149.688 127.457 149.064 127.084 148.648C126.711 148.232 126.204 148.024 125.564 148.024C124.807 148.024 124.209 148.285 123.772 148.808C123.345 149.32 123.132 150.008 123.132 150.872V155ZM131.889 147.064H134.385V143.8H135.633V147.064H138.705V148.216H135.633V153.368C135.633 153.688 135.777 153.848 136.065 153.848H138.321V155H135.617C135.254 155 134.955 154.883 134.721 154.648C134.497 154.413 134.385 154.115 134.385 153.752V148.216H131.889V147.064ZM144.086 149.112C144.086 149.496 144.246 149.789 144.566 149.992C144.896 150.195 145.494 150.328 146.358 150.392C147.286 150.467 147.99 150.691 148.47 151.064C148.96 151.427 149.206 151.96 149.206 152.664V152.76C149.206 153.144 149.126 153.491 148.966 153.8C148.816 154.099 148.603 154.355 148.326 154.568C148.059 154.781 147.728 154.941 147.334 155.048C146.95 155.165 146.528 155.224 146.07 155.224C145.451 155.224 144.918 155.144 144.47 154.984C144.032 154.813 143.664 154.595 143.366 154.328C143.078 154.051 142.859 153.741 142.71 153.4C142.56 153.048 142.475 152.696 142.454 152.344L143.638 152.056C143.691 152.664 143.926 153.155 144.342 153.528C144.758 153.891 145.312 154.072 146.006 154.072C146.592 154.072 147.062 153.96 147.414 153.736C147.776 153.501 147.958 153.176 147.958 152.76C147.958 152.312 147.782 151.992 147.43 151.8C147.078 151.608 146.507 151.485 145.718 151.432C144.8 151.368 144.096 151.155 143.606 150.792C143.115 150.429 142.87 149.901 142.87 149.208V149.112C142.87 148.739 142.95 148.413 143.11 148.136C143.27 147.848 143.483 147.608 143.75 147.416C144.027 147.224 144.336 147.08 144.678 146.984C145.019 146.888 145.376 146.84 145.75 146.84C146.272 146.84 146.731 146.915 147.126 147.064C147.52 147.203 147.851 147.389 148.118 147.624C148.384 147.848 148.587 148.109 148.726 148.408C148.875 148.707 148.971 149.005 149.014 149.304L147.83 149.592C147.776 149.08 147.568 148.68 147.206 148.392C146.854 148.104 146.39 147.96 145.814 147.96C145.59 147.96 145.371 147.987 145.158 148.04C144.955 148.083 144.774 148.152 144.614 148.248C144.454 148.344 144.326 148.467 144.23 148.616C144.134 148.755 144.086 148.92 144.086 149.112ZM155.099 154.104C155.099 153.795 155.205 153.533 155.419 153.32C155.643 153.096 155.909 152.984 156.219 152.984C156.528 152.984 156.789 153.096 157.003 153.32C157.227 153.533 157.339 153.795 157.339 154.104C157.339 154.413 157.227 154.68 157.003 154.904C156.789 155.117 156.528 155.224 156.219 155.224C155.909 155.224 155.643 155.117 155.419 154.904C155.205 154.68 155.099 154.413 155.099 154.104Z" fill="white"/>
<defs>
<filter id="filter0_b_553_196" x="-30" y="-30" width="362" height="245" filterUnits="userSpaceOnUse" color-interpolation-filters="sRGB">
<feFlood flood-opacity="0" result="BackgroundImageFix"/>
<feGaussianBlur in="BackgroundImageFix" stdDeviation="15"/>
<feComposite in2="SourceAlpha" operator="in" result="effect1_backgroundBlur_553_196"/>
<feBlend mode="normal" in="SourceGraphic" in2="effect1_backgroundBlur_553_196" result="shape"/>
</filter>
</defs>
</svg>
