<svg width="336" height="185" viewBox="0 0 336 185" fill="none" xmlns="http://www.w3.org/2000/svg">
<g filter="url(#filter0_b_553_188)">
<rect width="336" height="185" rx="11" fill="white" fill-opacity="0.05"/>
</g>
<path d="M47.86 50H45.22V45.8C45.22 45.48 45.1333 45.22 44.96 45.02C44.8 44.82 44.5267 44.72 44.14 44.72H41.1V50H38.46V36H43.82C44.54 36 45.1733 36.1 45.72 36.3C46.2667 36.5 46.72 36.78 47.08 37.14C47.4533 37.4867 47.7333 37.8933 47.92 38.36C48.12 38.8267 48.22 39.3267 48.22 39.86V40.34C48.22 40.9133 48.0667 41.4533 47.76 41.96C47.4533 42.4533 46.98 42.8333 46.34 43.1V43.46C46.8067 43.5133 47.1733 43.6933 47.44 44C47.72 44.3067 47.86 44.6933 47.86 45.16V50ZM41.1 42.2H43.62C44.26 42.2 44.7467 42.0533 45.08 41.76C45.4133 41.4533 45.58 41.0267 45.58 40.48V40.24C45.58 39.7733 45.4133 39.3733 45.08 39.04C44.7467 38.6933 44.26 38.52 43.62 38.52H41.1V42.2ZM58.1261 40.08H60.6461V50H58.1261V48.56H57.7661C57.3261 49.7067 56.3794 50.28 54.9261 50.28C54.4328 50.28 53.9728 50.2 53.5461 50.04C53.1194 49.88 52.7461 49.6333 52.4261 49.3C52.1061 48.9667 51.8528 48.5533 51.6661 48.06C51.4928 47.5533 51.4061 46.96 51.4061 46.28V40.08H53.9261V45.76C53.9261 46.4667 54.0928 47.02 54.4261 47.42C54.7594 47.8067 55.2594 48 55.9261 48C56.6861 48 57.2394 47.76 57.5861 47.28C57.9461 46.7867 58.1261 46.12 58.1261 45.28V40.08ZM64.1922 47.6H67.6722V38.4H64.3122V36H70.1922V47.6H73.4322V50H64.1922V47.6ZM79.3183 45.86C79.3316 46.1533 79.3983 46.4267 79.5183 46.68C79.6516 46.92 79.8249 47.1333 80.0383 47.32C80.2649 47.4933 80.5183 47.6333 80.7983 47.74C81.0916 47.8333 81.3983 47.88 81.7183 47.88C82.3449 47.88 82.8249 47.7733 83.1583 47.56C83.4916 47.3333 83.7316 47.0667 83.8783 46.76L86.0383 47.96C85.9183 48.2133 85.7516 48.48 85.5383 48.76C85.3249 49.0267 85.0449 49.2733 84.6983 49.5C84.3649 49.7267 83.9516 49.9133 83.4583 50.06C82.9783 50.2067 82.4116 50.28 81.7583 50.28C81.0116 50.28 80.3316 50.16 79.7183 49.92C79.1049 49.68 78.5716 49.3333 78.1183 48.88C77.6783 48.4267 77.3316 47.8733 77.0783 47.22C76.8383 46.5667 76.7183 45.8267 76.7183 45V44.88C76.7183 44.12 76.8449 43.4267 77.0983 42.8C77.3649 42.1733 77.7249 41.64 78.1783 41.2C78.6316 40.76 79.1583 40.42 79.7583 40.18C80.3716 39.9267 81.0249 39.8 81.7183 39.8C82.5716 39.8 83.3049 39.9533 83.9183 40.26C84.5316 40.5533 85.0383 40.9333 85.4383 41.4C85.8383 41.8533 86.1316 42.36 86.3183 42.92C86.5049 43.4667 86.5983 44 86.5983 44.52V45.86H79.3183ZM81.6983 42.08C81.0583 42.08 80.5383 42.2467 80.1383 42.58C79.7383 42.9 79.4783 43.2733 79.3583 43.7H84.0383C83.9583 43.2333 83.7049 42.8467 83.2783 42.54C82.8649 42.2333 82.3383 42.08 81.6983 42.08ZM91.3844 43.36H97.6244V45.64H91.3844V43.36ZM105.99 44V39.84L109.47 38.88V38.52H102.51V36H111.63V40.4L107.91 41.48V41.84H108.39C108.884 41.84 109.37 41.92 109.85 42.08C110.33 42.2267 110.75 42.46 111.11 42.78C111.484 43.1 111.784 43.5 112.01 43.98C112.237 44.4467 112.35 45 112.35 45.64V45.88C112.35 46.5067 112.244 47.0867 112.03 47.62C111.83 48.1533 111.524 48.62 111.11 49.02C110.71 49.4067 110.21 49.7133 109.61 49.94C109.01 50.1667 108.324 50.28 107.55 50.28C106.764 50.28 106.05 50.1533 105.41 49.9C104.77 49.6467 104.224 49.3 103.77 48.86C103.33 48.42 102.99 47.9133 102.75 47.34C102.51 46.7667 102.39 46.16 102.39 45.52V44.68H105.03V45.4C105.03 46.04 105.237 46.5933 105.65 47.06C106.064 47.5267 106.684 47.76 107.51 47.76C108.217 47.76 108.757 47.58 109.13 47.22C109.517 46.86 109.71 46.3867 109.71 45.8C109.71 45.1733 109.504 44.72 109.09 44.44C108.69 44.1467 108.177 44 107.55 44H105.99Z" fill="white"/>
<path d="M35.504 77.8H42.288V79.048H36.848V82.76H42.192V84.008H36.848V87.752H42.384V89H35.504V77.8ZM51.4289 87.656H51.2369C50.9809 88.1893 50.6235 88.584 50.1649 88.84C49.7169 89.096 49.2422 89.224 48.7409 89.224C48.2182 89.224 47.7329 89.1387 47.2849 88.968C46.8369 88.7867 46.4422 88.5253 46.1009 88.184C45.7702 87.832 45.5089 87.4053 45.3169 86.904C45.1249 86.4027 45.0289 85.8213 45.0289 85.16V84.904C45.0289 84.2533 45.1249 83.6773 45.3169 83.176C45.5089 82.6747 45.7702 82.2533 46.1009 81.912C46.4422 81.56 46.8369 81.2933 47.2849 81.112C47.7329 80.9307 48.2075 80.84 48.7089 80.84C49.2529 80.84 49.7435 80.9627 50.1809 81.208C50.6289 81.4427 50.9809 81.8107 51.2369 82.312H51.4289V81.064H52.6769V87.368C52.6769 87.688 52.8209 87.848 53.1089 87.848H53.5089V89H52.6609C52.2982 89 51.9995 88.8827 51.7649 88.648C51.5409 88.4133 51.4289 88.1147 51.4289 87.752V87.656ZM48.8689 88.04C49.2422 88.04 49.5835 87.9707 49.8929 87.832C50.2129 87.6933 50.4849 87.496 50.7089 87.24C50.9329 86.984 51.1089 86.68 51.2369 86.328C51.3649 85.9653 51.4289 85.5653 51.4289 85.128V84.936C51.4289 84.5093 51.3649 84.12 51.2369 83.768C51.1089 83.4053 50.9275 83.096 50.6929 82.84C50.4689 82.584 50.1969 82.3867 49.8769 82.248C49.5675 82.0987 49.2315 82.024 48.8689 82.024C48.4955 82.024 48.1542 82.0933 47.8449 82.232C47.5355 82.3707 47.2635 82.568 47.0289 82.824C46.8049 83.0693 46.6289 83.3733 46.5009 83.736C46.3729 84.088 46.3089 84.4773 46.3089 84.904V85.16C46.3089 86.0667 46.5435 86.776 47.0129 87.288C47.4929 87.7893 48.1115 88.04 48.8689 88.04ZM63.3697 86.184C63.2844 86.6213 63.1351 87.0267 62.9217 87.4C62.7191 87.7733 62.4577 88.0987 62.1377 88.376C61.8177 88.6427 61.4444 88.8507 61.0177 89C60.5911 89.1493 60.1164 89.224 59.5937 89.224C59.0391 89.224 58.5111 89.1333 58.0097 88.952C57.5191 88.7707 57.0871 88.5093 56.7137 88.168C56.3404 87.816 56.0417 87.3893 55.8177 86.888C55.6044 86.3867 55.4977 85.8107 55.4977 85.16V84.968C55.4977 84.328 55.6044 83.752 55.8177 83.24C56.0417 82.728 56.3404 82.296 56.7137 81.944C57.0871 81.592 57.5191 81.32 58.0097 81.128C58.5111 80.936 59.0391 80.84 59.5937 80.84C60.0951 80.84 60.5591 80.9147 60.9857 81.064C61.4124 81.2133 61.7857 81.4267 62.1057 81.704C62.4364 81.9707 62.7031 82.2907 62.9057 82.664C63.1191 83.0373 63.2631 83.4427 63.3377 83.88L62.0897 84.168C62.0577 83.8907 61.9777 83.624 61.8497 83.368C61.7324 83.1013 61.5671 82.872 61.3537 82.68C61.1511 82.4773 60.9004 82.3173 60.6017 82.2C60.3031 82.0827 59.9564 82.024 59.5617 82.024C59.1777 82.024 58.8151 82.0987 58.4737 82.248C58.1431 82.3867 57.8497 82.5893 57.5937 82.856C57.3377 83.112 57.1351 83.4213 56.9857 83.784C56.8471 84.1467 56.7777 84.5413 56.7777 84.968V85.16C56.7777 85.608 56.8471 86.0133 56.9857 86.376C57.1351 86.728 57.3377 87.0267 57.5937 87.272C57.8497 87.5173 58.1484 87.7093 58.4897 87.848C58.8311 87.976 59.1991 88.04 59.5937 88.04C59.9884 88.04 60.3297 87.9813 60.6177 87.864C60.9164 87.736 61.1671 87.576 61.3697 87.384C61.5831 87.1813 61.7484 86.952 61.8657 86.696C61.9937 86.44 62.0791 86.1733 62.1217 85.896L63.3697 86.184ZM67.4706 89H66.2226V77.8H67.4706V82.504H67.6626C67.908 81.992 68.2493 81.5867 68.6866 81.288C69.1346 80.9893 69.6786 80.84 70.3186 80.84C71.1826 80.84 71.8813 81.128 72.4146 81.704C72.9586 82.2693 73.2306 83.1227 73.2306 84.264V89H71.9826V84.52C71.9826 83.688 71.796 83.064 71.4226 82.648C71.0493 82.232 70.5426 82.024 69.9026 82.024C69.1453 82.024 68.548 82.2853 68.1106 82.808C67.684 83.32 67.4706 84.008 67.4706 84.872V89ZM89.9547 81.064H92.4507V77.8H93.6987V81.064H96.7707V82.216H93.6987V87.368C93.6987 87.688 93.8427 87.848 94.1307 87.848H96.3867V89H93.6827C93.32 89 93.0214 88.8827 92.7867 88.648C92.5627 88.4133 92.4507 88.1147 92.4507 87.752V82.216H89.9547V81.064ZM101.416 85.416C101.448 86.2053 101.693 86.84 102.152 87.32C102.61 87.8 103.25 88.04 104.072 88.04C104.445 88.04 104.77 87.9973 105.048 87.912C105.325 87.8267 105.56 87.7093 105.752 87.56C105.954 87.4107 106.114 87.24 106.232 87.048C106.36 86.8453 106.461 86.632 106.536 86.408L107.72 86.728C107.496 87.464 107.08 88.0667 106.472 88.536C105.874 88.9947 105.064 89.224 104.04 89.224C103.474 89.224 102.952 89.128 102.472 88.936C102.002 88.7333 101.597 88.4507 101.256 88.088C100.914 87.7253 100.648 87.2933 100.456 86.792C100.264 86.2907 100.168 85.736 100.168 85.128V84.744C100.168 84.1893 100.264 83.672 100.456 83.192C100.658 82.712 100.936 82.3013 101.288 81.96C101.64 81.608 102.05 81.336 102.52 81.144C103 80.9413 103.517 80.84 104.072 80.84C104.722 80.84 105.282 80.9627 105.752 81.208C106.232 81.4427 106.621 81.736 106.92 82.088C107.229 82.44 107.453 82.824 107.592 83.24C107.741 83.656 107.816 84.04 107.816 84.392V85.416H101.416ZM104.072 82.024C103.72 82.024 103.389 82.0827 103.08 82.2C102.781 82.3067 102.514 82.4613 102.28 82.664C102.056 82.8667 101.869 83.1067 101.72 83.384C101.581 83.6507 101.49 83.944 101.448 84.264H106.568C106.546 83.9227 106.461 83.6133 106.312 83.336C106.173 83.0587 105.986 82.824 105.752 82.632C105.528 82.44 105.266 82.2907 104.968 82.184C104.68 82.0773 104.381 82.024 104.072 82.024ZM116.54 87.656H116.348C116.092 88.1893 115.735 88.584 115.276 88.84C114.828 89.096 114.354 89.224 113.852 89.224C113.33 89.224 112.844 89.1387 112.396 88.968C111.948 88.7867 111.554 88.5253 111.212 88.184C110.882 87.832 110.62 87.4053 110.428 86.904C110.236 86.4027 110.14 85.8213 110.14 85.16V84.904C110.14 84.2533 110.236 83.6773 110.428 83.176C110.62 82.6747 110.882 82.2533 111.212 81.912C111.554 81.56 111.948 81.2933 112.396 81.112C112.844 80.9307 113.319 80.84 113.82 80.84C114.364 80.84 114.855 80.9627 115.292 81.208C115.74 81.4427 116.092 81.8107 116.348 82.312H116.54V81.064H117.788V87.368C117.788 87.688 117.932 87.848 118.22 87.848H118.62V89H117.772C117.41 89 117.111 88.8827 116.876 88.648C116.652 88.4133 116.54 88.1147 116.54 87.752V87.656ZM113.98 88.04C114.354 88.04 114.695 87.9707 115.004 87.832C115.324 87.6933 115.596 87.496 115.82 87.24C116.044 86.984 116.22 86.68 116.348 86.328C116.476 85.9653 116.54 85.5653 116.54 85.128V84.936C116.54 84.5093 116.476 84.12 116.348 83.768C116.22 83.4053 116.039 83.096 115.804 82.84C115.58 82.584 115.308 82.3867 114.988 82.248C114.679 82.0987 114.343 82.024 113.98 82.024C113.607 82.024 113.266 82.0933 112.956 82.232C112.647 82.3707 112.375 82.568 112.14 82.824C111.916 83.0693 111.74 83.3733 111.612 83.736C111.484 84.088 111.42 84.4773 111.42 84.904V85.16C111.42 86.0667 111.655 86.776 112.124 87.288C112.604 87.7893 113.223 88.04 113.98 88.04ZM128.689 89H127.441V83.304C127.441 82.9307 127.356 82.6267 127.185 82.392C127.015 82.1467 126.743 82.024 126.369 82.024C126.017 82.024 125.729 82.1573 125.505 82.424C125.292 82.68 125.185 83.08 125.185 83.624V89H123.937V83.24C123.937 82.888 123.841 82.6 123.649 82.376C123.457 82.1413 123.201 82.024 122.881 82.024C122.497 82.024 122.199 82.1627 121.985 82.44C121.783 82.7173 121.681 83.08 121.681 83.528V89H120.433V81.064H121.681V81.928H121.873C122.012 81.5547 122.215 81.2827 122.481 81.112C122.748 80.9307 123.063 80.84 123.425 80.84C123.809 80.84 124.124 80.9413 124.369 81.144C124.625 81.3467 124.801 81.608 124.897 81.928H125.089C125.452 81.2027 126.028 80.84 126.817 80.84C127.415 80.84 127.873 81.032 128.193 81.416C128.524 81.7893 128.689 82.28 128.689 82.888V89ZM151.925 89H149.621L148.661 81.64H148.469L147.509 89H145.205L143.957 81.064H145.237L146.293 88.424H146.485L147.413 81.064H149.717L150.645 88.424H150.837L151.893 81.064H153.173L151.925 89ZM157.802 78.696C157.802 78.3867 157.909 78.1253 158.122 77.912C158.346 77.688 158.613 77.576 158.922 77.576C159.232 77.576 159.493 77.688 159.706 77.912C159.93 78.1253 160.042 78.3867 160.042 78.696C160.042 79.0053 159.93 79.272 159.706 79.496C159.493 79.7093 159.232 79.816 158.922 79.816C158.613 79.816 158.346 79.7093 158.122 79.496C157.909 79.272 157.802 79.0053 157.802 78.696ZM155.53 87.848H158.314V82.216H155.818V81.064H159.562V87.848H162.154V89H155.53V87.848ZM165.615 87.848H168.495V78.952H165.711V77.8H169.743V87.848H172.623V89H165.615V87.848ZM175.892 87.848H178.772V78.952H175.988V77.8H180.02V87.848H182.9V89H175.892V87.848ZM200.856 89H199.608V77.8H200.856V82.312H201.048C201.325 81.832 201.709 81.4693 202.2 81.224C202.691 80.968 203.224 80.84 203.8 80.84C204.291 80.84 204.755 80.9307 205.192 81.112C205.629 81.2933 206.013 81.5547 206.344 81.896C206.685 82.2373 206.952 82.6587 207.144 83.16C207.347 83.6613 207.448 84.232 207.448 84.872V85.192C207.448 85.8427 207.352 86.4187 207.16 86.92C206.968 87.4213 206.701 87.8427 206.36 88.184C206.029 88.5253 205.64 88.7867 205.192 88.968C204.744 89.1387 204.269 89.224 203.768 89.224C203.512 89.224 203.251 89.192 202.984 89.128C202.717 89.0747 202.461 88.9893 202.216 88.872C201.981 88.744 201.763 88.5947 201.56 88.424C201.357 88.2427 201.187 88.0293 201.048 87.784H200.856V89ZM203.512 88.04C203.896 88.04 204.248 87.976 204.568 87.848C204.888 87.7093 205.165 87.5173 205.4 87.272C205.645 87.0267 205.832 86.728 205.96 86.376C206.099 86.024 206.168 85.6293 206.168 85.192V84.872C206.168 84.4453 206.099 84.0613 205.96 83.72C205.832 83.368 205.645 83.0693 205.4 82.824C205.165 82.568 204.883 82.3707 204.552 82.232C204.232 82.0933 203.885 82.024 203.512 82.024C203.139 82.024 202.792 82.0987 202.472 82.248C202.152 82.3867 201.869 82.584 201.624 82.84C201.389 83.096 201.203 83.4053 201.064 83.768C200.925 84.12 200.856 84.5093 200.856 84.936V85.128C200.856 85.5653 200.925 85.9653 201.064 86.328C201.203 86.68 201.389 86.984 201.624 87.24C201.869 87.496 202.152 87.6933 202.472 87.832C202.792 87.9707 203.139 88.04 203.512 88.04ZM211.085 85.416C211.117 86.2053 211.362 86.84 211.821 87.32C212.28 87.8 212.92 88.04 213.741 88.04C214.114 88.04 214.44 87.9973 214.717 87.912C214.994 87.8267 215.229 87.7093 215.421 87.56C215.624 87.4107 215.784 87.24 215.901 87.048C216.029 86.8453 216.13 86.632 216.205 86.408L217.389 86.728C217.165 87.464 216.749 88.0667 216.141 88.536C215.544 88.9947 214.733 89.224 213.709 89.224C213.144 89.224 212.621 89.128 212.141 88.936C211.672 88.7333 211.266 88.4507 210.925 88.088C210.584 87.7253 210.317 87.2933 210.125 86.792C209.933 86.2907 209.837 85.736 209.837 85.128V84.744C209.837 84.1893 209.933 83.672 210.125 83.192C210.328 82.712 210.605 82.3013 210.957 81.96C211.309 81.608 211.72 81.336 212.189 81.144C212.669 80.9413 213.186 80.84 213.741 80.84C214.392 80.84 214.952 80.9627 215.421 81.208C215.901 81.4427 216.29 81.736 216.589 82.088C216.898 82.44 217.122 82.824 217.261 83.24C217.41 83.656 217.485 84.04 217.485 84.392V85.416H211.085ZM213.741 82.024C213.389 82.024 213.058 82.0827 212.749 82.2C212.45 82.3067 212.184 82.4613 211.949 82.664C211.725 82.8667 211.538 83.1067 211.389 83.384C211.25 83.6507 211.16 83.944 211.117 84.264H216.237C216.216 83.9227 216.13 83.6133 215.981 83.336C215.842 83.0587 215.656 82.824 215.421 82.632C215.197 82.44 214.936 82.2907 214.637 82.184C214.349 82.0773 214.05 82.024 213.741 82.024ZM235.137 92.2H233.889V81.064H235.137V82.312H235.329C235.606 81.832 235.99 81.4693 236.481 81.224C236.972 80.968 237.505 80.84 238.081 80.84C238.572 80.84 239.036 80.9307 239.473 81.112C239.91 81.2933 240.294 81.5547 240.625 81.896C240.966 82.2373 241.233 82.6587 241.425 83.16C241.628 83.6613 241.729 84.232 241.729 84.872V85.192C241.729 85.8427 241.633 86.4187 241.441 86.92C241.249 87.4213 240.982 87.8427 240.641 88.184C240.31 88.5253 239.921 88.7867 239.473 88.968C239.025 89.1387 238.55 89.224 238.049 89.224C237.793 89.224 237.532 89.192 237.265 89.128C236.998 89.0747 236.742 88.9893 236.497 88.872C236.262 88.744 236.044 88.5947 235.841 88.424C235.638 88.2427 235.468 88.0293 235.329 87.784H235.137V92.2ZM237.793 88.04C238.177 88.04 238.529 87.976 238.849 87.848C239.169 87.7093 239.446 87.5173 239.681 87.272C239.926 87.0267 240.113 86.728 240.241 86.376C240.38 86.024 240.449 85.6293 240.449 85.192V84.872C240.449 84.4453 240.38 84.0613 240.241 83.72C240.113 83.368 239.926 83.0693 239.681 82.824C239.446 82.568 239.164 82.3707 238.833 82.232C238.513 82.0933 238.166 82.024 237.793 82.024C237.42 82.024 237.073 82.0987 236.753 82.248C236.433 82.3867 236.15 82.584 235.905 82.84C235.67 83.096 235.484 83.4053 235.345 83.768C235.206 84.12 235.137 84.5093 235.137 84.936V85.128C235.137 85.5653 235.206 85.9653 235.345 86.328C235.484 86.68 235.67 86.984 235.905 87.24C236.15 87.496 236.433 87.6933 236.753 87.832C237.073 87.9707 237.42 88.04 237.793 88.04ZM244.006 81.064H246.886V82.12H247.078C247.281 81.6827 247.569 81.3627 247.942 81.16C248.315 80.9467 248.742 80.84 249.222 80.84C250.022 80.84 250.667 81.1013 251.158 81.624C251.649 82.1467 251.91 82.9093 251.942 83.912L250.63 84.104C250.63 83.368 250.454 82.84 250.102 82.52C249.75 82.1893 249.318 82.024 248.806 82.024C248.475 82.024 248.187 82.088 247.942 82.216C247.707 82.344 247.51 82.52 247.35 82.744C247.19 82.968 247.073 83.2293 246.998 83.528C246.923 83.8267 246.886 84.1467 246.886 84.488V87.848H248.902V89H243.814V87.848H245.638V82.216H244.006V81.064ZM262.219 85.128C262.219 85.7893 262.107 86.376 261.883 86.888C261.669 87.3893 261.381 87.816 261.019 88.168C260.656 88.5093 260.229 88.7707 259.739 88.952C259.259 89.1333 258.757 89.224 258.235 89.224C257.701 89.224 257.195 89.1333 256.715 88.952C256.235 88.7707 255.813 88.5093 255.451 88.168C255.088 87.816 254.795 87.3893 254.571 86.888C254.357 86.376 254.251 85.7893 254.251 85.128V84.936C254.251 84.2853 254.357 83.7093 254.571 83.208C254.795 82.696 255.088 82.264 255.451 81.912C255.824 81.56 256.251 81.2933 256.731 81.112C257.211 80.9307 257.712 80.84 258.235 80.84C258.757 80.84 259.259 80.9307 259.739 81.112C260.219 81.2933 260.64 81.56 261.003 81.912C261.376 82.264 261.669 82.696 261.883 83.208C262.107 83.7093 262.219 84.2853 262.219 84.936V85.128ZM258.235 88.04C258.619 88.04 258.971 87.976 259.291 87.848C259.621 87.7093 259.909 87.512 260.155 87.256C260.4 87 260.592 86.696 260.731 86.344C260.869 85.9813 260.939 85.576 260.939 85.128V84.936C260.939 84.5093 260.869 84.12 260.731 83.768C260.592 83.4053 260.4 83.096 260.155 82.84C259.909 82.584 259.621 82.3867 259.291 82.248C258.96 82.0987 258.608 82.024 258.235 82.024C257.861 82.024 257.509 82.0987 257.179 82.248C256.848 82.3867 256.56 82.584 256.315 82.84C256.069 83.096 255.877 83.4053 255.739 83.768C255.6 84.12 255.531 84.5093 255.531 84.936V85.128C255.531 85.576 255.6 85.9813 255.739 86.344C255.877 86.696 256.069 87 256.315 87.256C256.56 87.512 256.843 87.7093 257.163 87.848C257.493 87.976 257.851 88.04 258.235 88.04ZM269.728 89H267.264L264.496 81.064H265.968L268.4 88.424H268.592L271.024 81.064H272.496L269.728 89ZM277.748 78.696C277.748 78.3867 277.855 78.1253 278.068 77.912C278.292 77.688 278.559 77.576 278.868 77.576C279.178 77.576 279.439 77.688 279.652 77.912C279.876 78.1253 279.988 78.3867 279.988 78.696C279.988 79.0053 279.876 79.272 279.652 79.496C279.439 79.7093 279.178 79.816 278.868 79.816C278.559 79.816 278.292 79.7093 278.068 79.496C277.855 79.272 277.748 79.0053 277.748 78.696ZM275.476 87.848H278.26V82.216H275.764V81.064H279.508V87.848H282.1V89H275.476V87.848ZM291.705 87.784H291.513C291.385 88.0293 291.22 88.2427 291.017 88.424C290.825 88.6053 290.612 88.7547 290.377 88.872C290.153 88.9893 289.913 89.0747 289.657 89.128C289.401 89.192 289.156 89.224 288.921 89.224C288.388 89.224 287.892 89.1333 287.433 88.952C286.975 88.7707 286.569 88.5093 286.217 88.168C285.876 87.8267 285.604 87.4053 285.401 86.904C285.209 86.392 285.113 85.8107 285.113 85.16V84.904C285.113 84.264 285.215 83.6933 285.417 83.192C285.62 82.68 285.892 82.2533 286.233 81.912C286.575 81.56 286.975 81.2933 287.433 81.112C287.892 80.9307 288.377 80.84 288.889 80.84C289.433 80.84 289.94 80.9627 290.409 81.208C290.889 81.4427 291.257 81.8107 291.513 82.312H291.705V77.8H292.953V89H291.705V87.784ZM289.049 88.04C289.423 88.04 289.769 87.9707 290.089 87.832C290.409 87.6933 290.687 87.496 290.921 87.24C291.167 86.984 291.359 86.68 291.497 86.328C291.636 85.9653 291.705 85.5653 291.705 85.128V84.936C291.705 84.5093 291.636 84.12 291.497 83.768C291.359 83.4053 291.167 83.096 290.921 82.84C290.687 82.584 290.404 82.3867 290.073 82.248C289.753 82.0987 289.412 82.024 289.049 82.024C288.676 82.024 288.324 82.0933 287.993 82.232C287.673 82.3707 287.391 82.568 287.145 82.824C286.911 83.08 286.724 83.384 286.585 83.736C286.457 84.088 286.393 84.4773 286.393 84.904V85.16C286.393 85.608 286.457 86.008 286.585 86.36C286.724 86.712 286.911 87.016 287.145 87.272C287.391 87.5173 287.673 87.7093 287.993 87.848C288.313 87.976 288.665 88.04 289.049 88.04ZM296.75 85.416C296.782 86.2053 297.028 86.84 297.486 87.32C297.945 87.8 298.585 88.04 299.406 88.04C299.78 88.04 300.105 87.9973 300.382 87.912C300.66 87.8267 300.894 87.7093 301.086 87.56C301.289 87.4107 301.449 87.24 301.566 87.048C301.694 86.8453 301.796 86.632 301.87 86.408L303.054 86.728C302.83 87.464 302.414 88.0667 301.806 88.536C301.209 88.9947 300.398 89.224 299.374 89.224C298.809 89.224 298.286 89.128 297.806 88.936C297.337 88.7333 296.932 88.4507 296.59 88.088C296.249 87.7253 295.982 87.2933 295.79 86.792C295.598 86.2907 295.502 85.736 295.502 85.128V84.744C295.502 84.1893 295.598 83.672 295.79 83.192C295.993 82.712 296.27 82.3013 296.622 81.96C296.974 81.608 297.385 81.336 297.854 81.144C298.334 80.9413 298.852 80.84 299.406 80.84C300.057 80.84 300.617 80.9627 301.086 81.208C301.566 81.4427 301.956 81.736 302.254 82.088C302.564 82.44 302.788 82.824 302.926 83.24C303.076 83.656 303.15 84.04 303.15 84.392V85.416H296.75ZM299.406 82.024C299.054 82.024 298.724 82.0827 298.414 82.2C298.116 82.3067 297.849 82.4613 297.614 82.664C297.39 82.8667 297.204 83.1067 297.054 83.384C296.916 83.6507 296.825 83.944 296.782 84.264H301.902C301.881 83.9227 301.796 83.6133 301.646 83.336C301.508 83.0587 301.321 82.824 301.086 82.632C300.862 82.44 300.601 82.2907 300.302 82.184C300.014 82.0773 299.716 82.024 299.406 82.024ZM312.259 87.784H312.067C311.939 88.0293 311.774 88.2427 311.571 88.424C311.379 88.6053 311.166 88.7547 310.931 88.872C310.707 88.9893 310.467 89.0747 310.211 89.128C309.955 89.192 309.71 89.224 309.475 89.224C308.942 89.224 308.446 89.1333 307.987 88.952C307.528 88.7707 307.123 88.5093 306.771 88.168C306.43 87.8267 306.158 87.4053 305.955 86.904C305.763 86.392 305.667 85.8107 305.667 85.16V84.904C305.667 84.264 305.768 83.6933 305.971 83.192C306.174 82.68 306.446 82.2533 306.787 81.912C307.128 81.56 307.528 81.2933 307.987 81.112C308.446 80.9307 308.931 80.84 309.443 80.84C309.987 80.84 310.494 80.9627 310.963 81.208C311.443 81.4427 311.811 81.8107 312.067 82.312H312.259V77.8H313.507V89H312.259V87.784ZM309.603 88.04C309.976 88.04 310.323 87.9707 310.643 87.832C310.963 87.6933 311.24 87.496 311.475 87.24C311.72 86.984 311.912 86.68 312.051 86.328C312.19 85.9653 312.259 85.5653 312.259 85.128V84.936C312.259 84.5093 312.19 84.12 312.051 83.768C311.912 83.4053 311.72 83.096 311.475 82.84C311.24 82.584 310.958 82.3867 310.627 82.248C310.307 82.0987 309.966 82.024 309.603 82.024C309.23 82.024 308.878 82.0933 308.547 82.232C308.227 82.3707 307.944 82.568 307.699 82.824C307.464 83.08 307.278 83.384 307.139 83.736C307.011 84.088 306.947 84.4773 306.947 84.904V85.16C306.947 85.608 307.011 86.008 307.139 86.36C307.278 86.712 307.464 87.016 307.699 87.272C307.944 87.5173 308.227 87.7093 308.547 87.848C308.867 87.976 309.219 88.04 309.603 88.04ZM36.352 118H35.104V106.8H36.352V111.312H36.544C36.8213 110.832 37.2053 110.469 37.696 110.224C38.1867 109.968 38.72 109.84 39.296 109.84C39.7867 109.84 40.2507 109.931 40.688 110.112C41.1253 110.293 41.5093 110.555 41.84 110.896C42.1813 111.237 42.448 111.659 42.64 112.16C42.8427 112.661 42.944 113.232 42.944 113.872V114.192C42.944 114.843 42.848 115.419 42.656 115.92C42.464 116.421 42.1973 116.843 41.856 117.184C41.5253 117.525 41.136 117.787 40.688 117.968C40.24 118.139 39.7653 118.224 39.264 118.224C39.008 118.224 38.7467 118.192 38.48 118.128C38.2133 118.075 37.9573 117.989 37.712 117.872C37.4773 117.744 37.2587 117.595 37.056 117.424C36.8533 117.243 36.6827 117.029 36.544 116.784H36.352V118ZM39.008 117.04C39.392 117.04 39.744 116.976 40.064 116.848C40.384 116.709 40.6613 116.517 40.896 116.272C41.1413 116.027 41.328 115.728 41.456 115.376C41.5947 115.024 41.664 114.629 41.664 114.192V113.872C41.664 113.445 41.5947 113.061 41.456 112.72C41.328 112.368 41.1413 112.069 40.896 111.824C40.6613 111.568 40.3787 111.371 40.048 111.232C39.728 111.093 39.3813 111.024 39.008 111.024C38.6347 111.024 38.288 111.099 37.968 111.248C37.648 111.387 37.3653 111.584 37.12 111.84C36.8853 112.096 36.6987 112.405 36.56 112.768C36.4213 113.12 36.352 113.509 36.352 113.936V114.128C36.352 114.565 36.4213 114.965 36.56 115.328C36.6987 115.68 36.8853 115.984 37.12 116.24C37.3653 116.496 37.648 116.693 37.968 116.832C38.288 116.971 38.6347 117.04 39.008 117.04ZM51.4289 116.56H51.2369C50.9809 117.072 50.6449 117.477 50.2289 117.776C49.8129 118.075 49.2849 118.224 48.6449 118.224C48.2075 118.224 47.8022 118.149 47.4289 118C47.0662 117.861 46.7515 117.648 46.4849 117.36C46.2289 117.072 46.0262 116.715 45.8769 116.288C45.7382 115.861 45.6689 115.365 45.6689 114.8V110.064H46.9169V114.64C46.9169 115.472 47.0875 116.08 47.4289 116.464C47.7702 116.848 48.2929 117.04 48.9969 117.04C49.7542 117.04 50.3462 116.784 50.7729 116.272C51.2102 115.749 51.4289 115.056 51.4289 114.192V110.064H52.6769V119.952C52.6769 120.315 52.5595 120.613 52.3249 120.848C52.1009 121.083 51.8075 121.2 51.4449 121.2H46.9169V120.048H50.9969C51.2849 120.048 51.4289 119.888 51.4289 119.568V116.56ZM72.0729 112.432V110.576L75.7209 108.24V108.048H69.3849V106.8H76.8729V108.848L73.2249 111.184V111.376H73.8649C74.2916 111.376 74.7023 111.445 75.0969 111.584C75.4916 111.723 75.8383 111.925 76.1369 112.192C76.4463 112.459 76.6916 112.789 76.8729 113.184C77.0649 113.568 77.1609 114.016 77.1609 114.528V114.816C77.1609 115.296 77.0649 115.744 76.8729 116.16C76.6809 116.576 76.4143 116.939 76.0729 117.248C75.7316 117.547 75.3263 117.787 74.8569 117.968C74.3983 118.139 73.8969 118.224 73.3529 118.224C72.7236 118.224 72.1583 118.128 71.6569 117.936C71.1556 117.744 70.7289 117.483 70.3769 117.152C70.0249 116.811 69.7529 116.416 69.5609 115.968C69.3796 115.509 69.2889 115.024 69.2889 114.512V113.648H70.6329V114.416C70.6329 114.821 70.6969 115.184 70.8249 115.504C70.9636 115.813 71.1503 116.08 71.3849 116.304C71.6303 116.517 71.9183 116.683 72.2489 116.8C72.5796 116.917 72.9369 116.976 73.3209 116.976C73.6729 116.976 73.9983 116.917 74.2969 116.8C74.6063 116.683 74.8729 116.523 75.0969 116.32C75.3209 116.107 75.4969 115.861 75.6249 115.584C75.7529 115.296 75.8169 114.992 75.8169 114.672V114.576C75.8169 113.904 75.6036 113.381 75.1769 113.008C74.7503 112.624 74.2169 112.432 73.5769 112.432H72.0729ZM101.101 115.184C101.016 115.621 100.866 116.027 100.653 116.4C100.45 116.773 100.189 117.099 99.869 117.376C99.549 117.643 99.1757 117.851 98.749 118C98.3223 118.149 97.8477 118.224 97.325 118.224C96.7703 118.224 96.2423 118.133 95.741 117.952C95.2503 117.771 94.8183 117.509 94.445 117.168C94.0717 116.816 93.773 116.389 93.549 115.888C93.3357 115.387 93.229 114.811 93.229 114.16V113.968C93.229 113.328 93.3357 112.752 93.549 112.24C93.773 111.728 94.0717 111.296 94.445 110.944C94.8183 110.592 95.2503 110.32 95.741 110.128C96.2423 109.936 96.7703 109.84 97.325 109.84C97.8263 109.84 98.2903 109.915 98.717 110.064C99.1437 110.213 99.517 110.427 99.837 110.704C100.168 110.971 100.434 111.291 100.637 111.664C100.85 112.037 100.994 112.443 101.069 112.88L99.821 113.168C99.789 112.891 99.709 112.624 99.581 112.368C99.4637 112.101 99.2983 111.872 99.085 111.68C98.8823 111.477 98.6317 111.317 98.333 111.2C98.0343 111.083 97.6877 111.024 97.293 111.024C96.909 111.024 96.5463 111.099 96.205 111.248C95.8743 111.387 95.581 111.589 95.325 111.856C95.069 112.112 94.8663 112.421 94.717 112.784C94.5783 113.147 94.509 113.541 94.509 113.968V114.16C94.509 114.608 94.5783 115.013 94.717 115.376C94.8663 115.728 95.069 116.027 95.325 116.272C95.581 116.517 95.8797 116.709 96.221 116.848C96.5623 116.976 96.9303 117.04 97.325 117.04C97.7197 117.04 98.061 116.981 98.349 116.864C98.6477 116.736 98.8983 116.576 99.101 116.384C99.3143 116.181 99.4797 115.952 99.597 115.696C99.725 115.44 99.8103 115.173 99.853 114.896L101.101 115.184ZM103.506 110.064H106.386V111.12H106.578C106.781 110.683 107.069 110.363 107.442 110.16C107.815 109.947 108.242 109.84 108.722 109.84C109.522 109.84 110.167 110.101 110.658 110.624C111.149 111.147 111.41 111.909 111.442 112.912L110.13 113.104C110.13 112.368 109.954 111.84 109.602 111.52C109.25 111.189 108.818 111.024 108.306 111.024C107.975 111.024 107.687 111.088 107.442 111.216C107.207 111.344 107.01 111.52 106.85 111.744C106.69 111.968 106.573 112.229 106.498 112.528C106.423 112.827 106.386 113.147 106.386 113.488V116.848H108.402V118H103.314V116.848H105.138V111.216H103.506V110.064ZM115.143 114.416C115.175 115.205 115.42 115.84 115.879 116.32C116.337 116.8 116.977 117.04 117.799 117.04C118.172 117.04 118.497 116.997 118.775 116.912C119.052 116.827 119.287 116.709 119.479 116.56C119.681 116.411 119.841 116.24 119.959 116.048C120.087 115.845 120.188 115.632 120.263 115.408L121.447 115.728C121.223 116.464 120.807 117.067 120.199 117.536C119.601 117.995 118.791 118.224 117.767 118.224C117.201 118.224 116.679 118.128 116.199 117.936C115.729 117.733 115.324 117.451 114.983 117.088C114.641 116.725 114.375 116.293 114.183 115.792C113.991 115.291 113.895 114.736 113.895 114.128V113.744C113.895 113.189 113.991 112.672 114.183 112.192C114.385 111.712 114.663 111.301 115.015 110.96C115.367 110.608 115.777 110.336 116.247 110.144C116.727 109.941 117.244 109.84 117.799 109.84C118.449 109.84 119.009 109.963 119.479 110.208C119.959 110.443 120.348 110.736 120.647 111.088C120.956 111.44 121.18 111.824 121.319 112.24C121.468 112.656 121.543 113.04 121.543 113.392V114.416H115.143ZM117.799 111.024C117.447 111.024 117.116 111.083 116.807 111.2C116.508 111.307 116.241 111.461 116.007 111.664C115.783 111.867 115.596 112.107 115.447 112.384C115.308 112.651 115.217 112.944 115.175 113.264H120.295C120.273 112.923 120.188 112.613 120.039 112.336C119.9 112.059 119.713 111.824 119.479 111.632C119.255 111.44 118.993 111.291 118.695 111.184C118.407 111.077 118.108 111.024 117.799 111.024ZM130.652 116.784H130.46C130.332 117.029 130.166 117.243 129.964 117.424C129.772 117.605 129.558 117.755 129.324 117.872C129.1 117.989 128.86 118.075 128.604 118.128C128.348 118.192 128.102 118.224 127.868 118.224C127.334 118.224 126.838 118.133 126.38 117.952C125.921 117.771 125.516 117.509 125.164 117.168C124.822 116.827 124.55 116.405 124.348 115.904C124.156 115.392 124.06 114.811 124.06 114.16V113.904C124.06 113.264 124.161 112.693 124.364 112.192C124.566 111.68 124.838 111.253 125.18 110.912C125.521 110.56 125.921 110.293 126.38 110.112C126.838 109.931 127.324 109.84 127.836 109.84C128.38 109.84 128.886 109.963 129.356 110.208C129.836 110.443 130.204 110.811 130.46 111.312H130.652V106.8H131.9V118H130.652V116.784ZM127.996 117.04C128.369 117.04 128.716 116.971 129.036 116.832C129.356 116.693 129.633 116.496 129.868 116.24C130.113 115.984 130.305 115.68 130.444 115.328C130.582 114.965 130.652 114.565 130.652 114.128V113.936C130.652 113.509 130.582 113.12 130.444 112.768C130.305 112.405 130.113 112.096 129.868 111.84C129.633 111.584 129.35 111.387 129.02 111.248C128.7 111.099 128.358 111.024 127.996 111.024C127.622 111.024 127.27 111.093 126.94 111.232C126.62 111.371 126.337 111.568 126.092 111.824C125.857 112.08 125.67 112.384 125.532 112.736C125.404 113.088 125.34 113.477 125.34 113.904V114.16C125.34 114.608 125.404 115.008 125.532 115.36C125.67 115.712 125.857 116.016 126.092 116.272C126.337 116.517 126.62 116.709 126.94 116.848C127.26 116.976 127.612 117.04 127.996 117.04ZM137.248 107.696C137.248 107.387 137.355 107.125 137.568 106.912C137.792 106.688 138.059 106.576 138.368 106.576C138.678 106.576 138.939 106.688 139.152 106.912C139.376 107.125 139.488 107.387 139.488 107.696C139.488 108.005 139.376 108.272 139.152 108.496C138.939 108.709 138.678 108.816 138.368 108.816C138.059 108.816 137.792 108.709 137.568 108.496C137.355 108.272 137.248 108.005 137.248 107.696ZM134.976 116.848H137.76V111.216H135.264V110.064H139.008V116.848H141.6V118H134.976V116.848ZM144.789 110.064H147.285V106.8H148.533V110.064H151.605V111.216H148.533V116.368C148.533 116.688 148.677 116.848 148.965 116.848H151.221V118H148.517C148.155 118 147.856 117.883 147.621 117.648C147.397 117.413 147.285 117.115 147.285 116.752V111.216H144.789V110.064ZM156.986 112.112C156.986 112.496 157.146 112.789 157.466 112.992C157.797 113.195 158.394 113.328 159.258 113.392C160.186 113.467 160.89 113.691 161.37 114.064C161.861 114.427 162.106 114.96 162.106 115.664V115.76C162.106 116.144 162.026 116.491 161.866 116.8C161.717 117.099 161.504 117.355 161.226 117.568C160.96 117.781 160.629 117.941 160.234 118.048C159.85 118.165 159.429 118.224 158.97 118.224C158.352 118.224 157.818 118.144 157.37 117.984C156.933 117.813 156.565 117.595 156.266 117.328C155.978 117.051 155.76 116.741 155.61 116.4C155.461 116.048 155.376 115.696 155.354 115.344L156.538 115.056C156.592 115.664 156.826 116.155 157.242 116.528C157.658 116.891 158.213 117.072 158.906 117.072C159.493 117.072 159.962 116.96 160.314 116.736C160.677 116.501 160.858 116.176 160.858 115.76C160.858 115.312 160.682 114.992 160.33 114.8C159.978 114.608 159.408 114.485 158.618 114.432C157.701 114.368 156.997 114.155 156.506 113.792C156.016 113.429 155.77 112.901 155.77 112.208V112.112C155.77 111.739 155.85 111.413 156.01 111.136C156.17 110.848 156.384 110.608 156.65 110.416C156.928 110.224 157.237 110.08 157.578 109.984C157.92 109.888 158.277 109.84 158.65 109.84C159.173 109.84 159.632 109.915 160.026 110.064C160.421 110.203 160.752 110.389 161.018 110.624C161.285 110.848 161.488 111.109 161.626 111.408C161.776 111.707 161.872 112.005 161.914 112.304L160.73 112.592C160.677 112.08 160.469 111.68 160.106 111.392C159.754 111.104 159.29 110.96 158.714 110.96C158.49 110.96 158.272 110.987 158.058 111.04C157.856 111.083 157.674 111.152 157.514 111.248C157.354 111.344 157.226 111.467 157.13 111.616C157.034 111.755 156.986 111.92 156.986 112.112ZM179.262 110.064H181.71V108.048C181.71 107.685 181.822 107.387 182.046 107.152C182.281 106.917 182.58 106.8 182.942 106.8H186.078V107.952H183.39C183.102 107.952 182.958 108.112 182.958 108.432V110.064H186.27V111.216H182.958V118H181.71V111.216H179.262V110.064ZM197.107 114.128C197.107 114.789 196.995 115.376 196.771 115.888C196.558 116.389 196.27 116.816 195.907 117.168C195.545 117.509 195.118 117.771 194.627 117.952C194.147 118.133 193.646 118.224 193.123 118.224C192.59 118.224 192.083 118.133 191.603 117.952C191.123 117.771 190.702 117.509 190.339 117.168C189.977 116.816 189.683 116.389 189.459 115.888C189.246 115.376 189.139 114.789 189.139 114.128V113.936C189.139 113.285 189.246 112.709 189.459 112.208C189.683 111.696 189.977 111.264 190.339 110.912C190.713 110.56 191.139 110.293 191.619 110.112C192.099 109.931 192.601 109.84 193.123 109.84C193.646 109.84 194.147 109.931 194.627 110.112C195.107 110.293 195.529 110.56 195.891 110.912C196.265 111.264 196.558 111.696 196.771 112.208C196.995 112.709 197.107 113.285 197.107 113.936V114.128ZM193.123 117.04C193.507 117.04 193.859 116.976 194.179 116.848C194.51 116.709 194.798 116.512 195.043 116.256C195.289 116 195.481 115.696 195.619 115.344C195.758 114.981 195.827 114.576 195.827 114.128V113.936C195.827 113.509 195.758 113.12 195.619 112.768C195.481 112.405 195.289 112.096 195.043 111.84C194.798 111.584 194.51 111.387 194.179 111.248C193.849 111.099 193.497 111.024 193.123 111.024C192.75 111.024 192.398 111.099 192.067 111.248C191.737 111.387 191.449 111.584 191.203 111.84C190.958 112.096 190.766 112.405 190.627 112.768C190.489 113.12 190.419 113.509 190.419 113.936V114.128C190.419 114.576 190.489 114.981 190.627 115.344C190.766 115.696 190.958 116 191.203 116.256C191.449 116.512 191.731 116.709 192.051 116.848C192.382 116.976 192.739 117.04 193.123 117.04ZM199.448 110.064H202.328V111.12H202.52C202.723 110.683 203.011 110.363 203.384 110.16C203.757 109.947 204.184 109.84 204.664 109.84C205.464 109.84 206.109 110.101 206.6 110.624C207.091 111.147 207.352 111.909 207.384 112.912L206.072 113.104C206.072 112.368 205.896 111.84 205.544 111.52C205.192 111.189 204.76 111.024 204.248 111.024C203.917 111.024 203.629 111.088 203.384 111.216C203.149 111.344 202.952 111.52 202.792 111.744C202.632 111.968 202.515 112.229 202.44 112.528C202.365 112.827 202.328 113.147 202.328 113.488V116.848H204.344V118H199.256V116.848H201.08V111.216H199.448V110.064ZM223.452 110.064H226.332V111.12H226.524C226.727 110.683 227.015 110.363 227.388 110.16C227.761 109.947 228.188 109.84 228.668 109.84C229.468 109.84 230.113 110.101 230.604 110.624C231.095 111.147 231.356 111.909 231.388 112.912L230.076 113.104C230.076 112.368 229.9 111.84 229.548 111.52C229.196 111.189 228.764 111.024 228.252 111.024C227.921 111.024 227.633 111.088 227.388 111.216C227.153 111.344 226.956 111.52 226.796 111.744C226.636 111.968 226.519 112.229 226.444 112.528C226.369 112.827 226.332 113.147 226.332 113.488V116.848H228.348V118H223.26V116.848H225.084V111.216H223.452V110.064ZM235.089 114.416C235.121 115.205 235.366 115.84 235.825 116.32C236.284 116.8 236.924 117.04 237.745 117.04C238.118 117.04 238.444 116.997 238.721 116.912C238.998 116.827 239.233 116.709 239.425 116.56C239.628 116.411 239.788 116.24 239.905 116.048C240.033 115.845 240.134 115.632 240.209 115.408L241.393 115.728C241.169 116.464 240.753 117.067 240.145 117.536C239.548 117.995 238.737 118.224 237.713 118.224C237.148 118.224 236.625 118.128 236.145 117.936C235.676 117.733 235.27 117.451 234.929 117.088C234.588 116.725 234.321 116.293 234.129 115.792C233.937 115.291 233.841 114.736 233.841 114.128V113.744C233.841 113.189 233.937 112.672 234.129 112.192C234.332 111.712 234.609 111.301 234.961 110.96C235.313 110.608 235.724 110.336 236.193 110.144C236.673 109.941 237.19 109.84 237.745 109.84C238.396 109.84 238.956 109.963 239.425 110.208C239.905 110.443 240.294 110.736 240.593 111.088C240.902 111.44 241.126 111.824 241.265 112.24C241.414 112.656 241.489 113.04 241.489 113.392V114.416H235.089ZM237.745 111.024C237.393 111.024 237.062 111.083 236.753 111.2C236.454 111.307 236.188 111.461 235.953 111.664C235.729 111.867 235.542 112.107 235.393 112.384C235.254 112.651 235.164 112.944 235.121 113.264H240.241C240.22 112.923 240.134 112.613 239.985 112.336C239.846 112.059 239.66 111.824 239.425 111.632C239.201 111.44 238.94 111.291 238.641 111.184C238.353 111.077 238.054 111.024 237.745 111.024ZM249.174 118H246.71L243.942 110.064H245.414L247.846 117.424H248.038L250.47 110.064H251.942L249.174 118ZM255.643 114.416C255.675 115.205 255.92 115.84 256.379 116.32C256.837 116.8 257.477 117.04 258.299 117.04C258.672 117.04 258.997 116.997 259.275 116.912C259.552 116.827 259.787 116.709 259.979 116.56C260.181 116.411 260.341 116.24 260.459 116.048C260.587 115.845 260.688 115.632 260.763 115.408L261.947 115.728C261.723 116.464 261.307 117.067 260.699 117.536C260.101 117.995 259.291 118.224 258.267 118.224C257.701 118.224 257.179 118.128 256.699 117.936C256.229 117.733 255.824 117.451 255.483 117.088C255.141 116.725 254.875 116.293 254.683 115.792C254.491 115.291 254.395 114.736 254.395 114.128V113.744C254.395 113.189 254.491 112.672 254.683 112.192C254.885 111.712 255.163 111.301 255.515 110.96C255.867 110.608 256.277 110.336 256.747 110.144C257.227 109.941 257.744 109.84 258.299 109.84C258.949 109.84 259.509 109.963 259.979 110.208C260.459 110.443 260.848 110.736 261.147 111.088C261.456 111.44 261.68 111.824 261.819 112.24C261.968 112.656 262.043 113.04 262.043 113.392V114.416H255.643ZM258.299 111.024C257.947 111.024 257.616 111.083 257.307 111.2C257.008 111.307 256.741 111.461 256.507 111.664C256.283 111.867 256.096 112.107 255.947 112.384C255.808 112.651 255.717 112.944 255.675 113.264H260.795C260.773 112.923 260.688 112.613 260.539 112.336C260.4 112.059 260.213 111.824 259.979 111.632C259.755 111.44 259.493 111.291 259.195 111.184C258.907 111.077 258.608 111.024 258.299 111.024ZM270.768 116.656H270.576C270.32 117.189 269.962 117.584 269.504 117.84C269.056 118.096 268.581 118.224 268.08 118.224C267.557 118.224 267.072 118.139 266.624 117.968C266.176 117.787 265.781 117.525 265.44 117.184C265.109 116.832 264.848 116.405 264.656 115.904C264.464 115.403 264.368 114.821 264.368 114.16V113.904C264.368 113.253 264.464 112.677 264.656 112.176C264.848 111.675 265.109 111.253 265.44 110.912C265.781 110.56 266.176 110.293 266.624 110.112C267.072 109.931 267.546 109.84 268.048 109.84C268.592 109.84 269.082 109.963 269.52 110.208C269.968 110.443 270.32 110.811 270.576 111.312H270.768V110.064H272.016V116.368C272.016 116.688 272.16 116.848 272.448 116.848H272.848V118H272C271.637 118 271.338 117.883 271.104 117.648C270.88 117.413 270.768 117.115 270.768 116.752V116.656ZM268.208 117.04C268.581 117.04 268.922 116.971 269.232 116.832C269.552 116.693 269.824 116.496 270.048 116.24C270.272 115.984 270.448 115.68 270.576 115.328C270.704 114.965 270.768 114.565 270.768 114.128V113.936C270.768 113.509 270.704 113.12 270.576 112.768C270.448 112.405 270.266 112.096 270.032 111.84C269.808 111.584 269.536 111.387 269.216 111.248C268.906 111.099 268.57 111.024 268.208 111.024C267.834 111.024 267.493 111.093 267.184 111.232C266.874 111.371 266.602 111.568 266.368 111.824C266.144 112.069 265.968 112.373 265.84 112.736C265.712 113.088 265.648 113.477 265.648 113.904V114.16C265.648 115.067 265.882 115.776 266.352 116.288C266.832 116.789 267.45 117.04 268.208 117.04ZM275.284 116.848H278.164V107.952H275.38V106.8H279.412V116.848H282.292V118H275.284V116.848ZM288.025 107.696C288.025 107.387 288.132 107.125 288.345 106.912C288.569 106.688 288.836 106.576 289.145 106.576C289.455 106.576 289.716 106.688 289.929 106.912C290.153 107.125 290.265 107.387 290.265 107.696C290.265 108.005 290.153 108.272 289.929 108.496C289.716 108.709 289.455 108.816 289.145 108.816C288.836 108.816 288.569 108.709 288.345 108.496C288.132 108.272 288.025 108.005 288.025 107.696ZM285.753 116.848H288.537V111.216H286.041V110.064H289.785V116.848H292.377V118H285.753V116.848ZM297.086 118H295.838V110.064H297.086V111.408H297.278C297.769 110.363 298.622 109.84 299.838 109.84C300.756 109.84 301.486 110.128 302.03 110.704C302.574 111.269 302.846 112.123 302.846 113.264V118H301.598V113.52C301.598 112.688 301.412 112.064 301.038 111.648C300.665 111.232 300.158 111.024 299.518 111.024C298.761 111.024 298.164 111.285 297.726 111.808C297.3 112.32 297.086 113.008 297.086 113.872V118ZM312.147 116.784H311.955C311.699 117.264 311.347 117.627 310.899 117.872C310.462 118.107 309.982 118.224 309.459 118.224C308.926 118.224 308.424 118.133 307.955 117.952C307.486 117.771 307.07 117.509 306.707 117.168C306.355 116.827 306.072 116.405 305.859 115.904C305.656 115.392 305.555 114.811 305.555 114.16V113.904C305.555 113.264 305.662 112.693 305.875 112.192C306.088 111.68 306.371 111.253 306.723 110.912C307.075 110.56 307.486 110.293 307.955 110.112C308.424 109.931 308.915 109.84 309.427 109.84C310.003 109.84 310.504 109.968 310.931 110.224C311.368 110.469 311.71 110.832 311.955 111.312H312.147V110.064H313.395V119.952C313.395 120.315 313.278 120.613 313.043 120.848C312.819 121.083 312.526 121.2 312.163 121.2H306.995V120.048H311.715C312.003 120.048 312.147 119.888 312.147 119.568V116.784ZM309.491 117.04C309.864 117.04 310.211 116.971 310.531 116.832C310.851 116.693 311.128 116.496 311.363 116.24C311.608 115.984 311.8 115.68 311.939 115.328C312.078 114.965 312.147 114.565 312.147 114.128V113.936C312.147 113.509 312.078 113.12 311.939 112.768C311.8 112.405 311.608 112.096 311.363 111.84C311.128 111.584 310.846 111.387 310.515 111.248C310.195 111.099 309.854 111.024 309.491 111.024C309.118 111.024 308.766 111.093 308.435 111.232C308.115 111.371 307.832 111.568 307.587 111.824C307.352 112.08 307.166 112.384 307.027 112.736C306.899 113.088 306.835 113.477 306.835 113.904V114.16C306.835 114.608 306.899 115.008 307.027 115.36C307.166 115.712 307.352 116.016 307.587 116.272C307.832 116.517 308.115 116.709 308.435 116.848C308.755 116.976 309.107 117.04 309.491 117.04ZM35.12 139.064H37.616V135.8H38.864V139.064H41.936V140.216H38.864V145.368C38.864 145.688 39.008 145.848 39.296 145.848H41.552V147H38.848C38.4853 147 38.1867 146.883 37.952 146.648C37.728 146.413 37.616 146.115 37.616 145.752V140.216H35.12V139.064ZM46.9169 147H45.6689V135.8H46.9169V140.504H47.1089C47.3542 139.992 47.6955 139.587 48.1329 139.288C48.5809 138.989 49.1249 138.84 49.7649 138.84C50.6289 138.84 51.3275 139.128 51.8609 139.704C52.4049 140.269 52.6769 141.123 52.6769 142.264V147H51.4289V142.52C51.4289 141.688 51.2422 141.064 50.8689 140.648C50.4955 140.232 49.9889 140.024 49.3489 140.024C48.5915 140.024 47.9942 140.285 47.5569 140.808C47.1302 141.32 46.9169 142.008 46.9169 142.872V147ZM56.8577 143.416C56.8897 144.205 57.1351 144.84 57.5937 145.32C58.0524 145.8 58.6924 146.04 59.5137 146.04C59.8871 146.04 60.2124 145.997 60.4897 145.912C60.7671 145.827 61.0017 145.709 61.1937 145.56C61.3964 145.411 61.5564 145.24 61.6737 145.048C61.8017 144.845 61.9031 144.632 61.9777 144.408L63.1617 144.728C62.9377 145.464 62.5217 146.067 61.9137 146.536C61.3164 146.995 60.5057 147.224 59.4817 147.224C58.9164 147.224 58.3937 147.128 57.9137 146.936C57.4444 146.733 57.0391 146.451 56.6977 146.088C56.3564 145.725 56.0897 145.293 55.8977 144.792C55.7057 144.291 55.6097 143.736 55.6097 143.128V142.744C55.6097 142.189 55.7057 141.672 55.8977 141.192C56.1004 140.712 56.3777 140.301 56.7297 139.96C57.0817 139.608 57.4924 139.336 57.9617 139.144C58.4417 138.941 58.9591 138.84 59.5137 138.84C60.1644 138.84 60.7244 138.963 61.1937 139.208C61.6737 139.443 62.0631 139.736 62.3617 140.088C62.6711 140.44 62.8951 140.824 63.0337 141.24C63.1831 141.656 63.2577 142.04 63.2577 142.392V143.416H56.8577ZM59.5137 140.024C59.1617 140.024 58.8311 140.083 58.5217 140.2C58.2231 140.307 57.9564 140.461 57.7217 140.664C57.4977 140.867 57.3111 141.107 57.1617 141.384C57.0231 141.651 56.9324 141.944 56.8897 142.264H62.0097C61.9884 141.923 61.9031 141.613 61.7537 141.336C61.6151 141.059 61.4284 140.824 61.1937 140.632C60.9697 140.44 60.7084 140.291 60.4097 140.184C60.1217 140.077 59.8231 140.024 59.5137 140.024ZM83.9235 144.184C83.8382 144.621 83.6888 145.027 83.4755 145.4C83.2728 145.773 83.0115 146.099 82.6915 146.376C82.3715 146.643 81.9982 146.851 81.5715 147C81.1448 147.149 80.6702 147.224 80.1475 147.224C79.5928 147.224 79.0648 147.133 78.5635 146.952C78.0728 146.771 77.6408 146.509 77.2675 146.168C76.8942 145.816 76.5955 145.389 76.3715 144.888C76.1582 144.387 76.0515 143.811 76.0515 143.16V142.968C76.0515 142.328 76.1582 141.752 76.3715 141.24C76.5955 140.728 76.8942 140.296 77.2675 139.944C77.6408 139.592 78.0728 139.32 78.5635 139.128C79.0648 138.936 79.5928 138.84 80.1475 138.84C80.6488 138.84 81.1128 138.915 81.5395 139.064C81.9662 139.213 82.3395 139.427 82.6595 139.704C82.9902 139.971 83.2568 140.291 83.4595 140.664C83.6728 141.037 83.8168 141.443 83.8915 141.88L82.6435 142.168C82.6115 141.891 82.5315 141.624 82.4035 141.368C82.2862 141.101 82.1208 140.872 81.9075 140.68C81.7048 140.477 81.4542 140.317 81.1555 140.2C80.8568 140.083 80.5102 140.024 80.1155 140.024C79.7315 140.024 79.3688 140.099 79.0275 140.248C78.6968 140.387 78.4035 140.589 78.1475 140.856C77.8915 141.112 77.6888 141.421 77.5395 141.784C77.4008 142.147 77.3315 142.541 77.3315 142.968V143.16C77.3315 143.608 77.4008 144.013 77.5395 144.376C77.6888 144.728 77.8915 145.027 78.1475 145.272C78.4035 145.517 78.7022 145.709 79.0435 145.848C79.3848 145.976 79.7528 146.04 80.1475 146.04C80.5422 146.04 80.8835 145.981 81.1715 145.864C81.4702 145.736 81.7208 145.576 81.9235 145.384C82.1368 145.181 82.3022 144.952 82.4195 144.696C82.5475 144.44 82.6328 144.173 82.6755 143.896L83.9235 144.184ZM86.7764 145.848H89.6564V136.952H86.8724V135.8H90.9044V145.848H93.7844V147H86.7764V145.848ZM102.717 139.064H103.965V147H102.717V145.56H102.525C102.269 146.072 101.933 146.477 101.517 146.776C101.101 147.075 100.573 147.224 99.9333 147.224C99.4959 147.224 99.0906 147.149 98.7173 147C98.3546 146.861 98.0399 146.648 97.7733 146.36C97.5173 146.072 97.3146 145.715 97.1653 145.288C97.0266 144.861 96.9573 144.365 96.9573 143.8V139.064H98.2053V143.64C98.2053 144.472 98.3759 145.08 98.7173 145.464C99.0586 145.848 99.5813 146.04 100.285 146.04C101.043 146.04 101.635 145.784 102.061 145.272C102.499 144.749 102.717 144.056 102.717 143.192V139.064ZM108.242 143.416C108.274 144.205 108.519 144.84 108.978 145.32C109.437 145.8 110.077 146.04 110.898 146.04C111.271 146.04 111.597 145.997 111.874 145.912C112.151 145.827 112.386 145.709 112.578 145.56C112.781 145.411 112.941 145.24 113.058 145.048C113.186 144.845 113.287 144.632 113.362 144.408L114.546 144.728C114.322 145.464 113.906 146.067 113.298 146.536C112.701 146.995 111.89 147.224 110.866 147.224C110.301 147.224 109.778 147.128 109.298 146.936C108.829 146.733 108.423 146.451 108.082 146.088C107.741 145.725 107.474 145.293 107.282 144.792C107.09 144.291 106.994 143.736 106.994 143.128V142.744C106.994 142.189 107.09 141.672 107.282 141.192C107.485 140.712 107.762 140.301 108.114 139.96C108.466 139.608 108.877 139.336 109.346 139.144C109.826 138.941 110.343 138.84 110.898 138.84C111.549 138.84 112.109 138.963 112.578 139.208C113.058 139.443 113.447 139.736 113.746 140.088C114.055 140.44 114.279 140.824 114.418 141.24C114.567 141.656 114.642 142.04 114.642 142.392V143.416H108.242ZM110.898 140.024C110.546 140.024 110.215 140.083 109.906 140.2C109.607 140.307 109.341 140.461 109.106 140.664C108.882 140.867 108.695 141.107 108.546 141.384C108.407 141.651 108.317 141.944 108.274 142.264H113.394C113.373 141.923 113.287 141.613 113.138 141.336C112.999 141.059 112.813 140.824 112.578 140.632C112.354 140.44 112.093 140.291 111.794 140.184C111.506 140.077 111.207 140.024 110.898 140.024ZM119.255 141.112C119.255 141.496 119.415 141.789 119.735 141.992C120.066 142.195 120.663 142.328 121.527 142.392C122.455 142.467 123.159 142.691 123.639 143.064C124.13 143.427 124.375 143.96 124.375 144.664V144.76C124.375 145.144 124.295 145.491 124.135 145.8C123.986 146.099 123.772 146.355 123.495 146.568C123.228 146.781 122.898 146.941 122.503 147.048C122.119 147.165 121.698 147.224 121.239 147.224C120.62 147.224 120.087 147.144 119.639 146.984C119.202 146.813 118.834 146.595 118.535 146.328C118.247 146.051 118.028 145.741 117.879 145.4C117.73 145.048 117.644 144.696 117.623 144.344L118.807 144.056C118.86 144.664 119.095 145.155 119.511 145.528C119.927 145.891 120.482 146.072 121.175 146.072C121.762 146.072 122.231 145.96 122.583 145.736C122.946 145.501 123.127 145.176 123.127 144.76C123.127 144.312 122.951 143.992 122.599 143.8C122.247 143.608 121.676 143.485 120.887 143.432C119.97 143.368 119.266 143.155 118.775 142.792C118.284 142.429 118.039 141.901 118.039 141.208V141.112C118.039 140.739 118.119 140.413 118.279 140.136C118.439 139.848 118.652 139.608 118.919 139.416C119.196 139.224 119.506 139.08 119.847 138.984C120.188 138.888 120.546 138.84 120.919 138.84C121.442 138.84 121.9 138.915 122.295 139.064C122.69 139.203 123.02 139.389 123.287 139.624C123.554 139.848 123.756 140.109 123.895 140.408C124.044 140.707 124.14 141.005 124.183 141.304L122.999 141.592C122.946 141.08 122.738 140.68 122.375 140.392C122.023 140.104 121.559 139.96 120.983 139.96C120.759 139.96 120.54 139.987 120.327 140.04C120.124 140.083 119.943 140.152 119.783 140.248C119.623 140.344 119.495 140.467 119.399 140.616C119.303 140.755 119.255 140.92 119.255 141.112Z" fill="white"/>
<defs>
<filter id="filter0_b_553_188" x="-30" y="-30" width="396" height="245" filterUnits="userSpaceOnUse" color-interpolation-filters="sRGB">
<feFlood flood-opacity="0" result="BackgroundImageFix"/>
<feGaussianBlur in="BackgroundImageFix" stdDeviation="15"/>
<feComposite in2="SourceAlpha" operator="in" result="effect1_backgroundBlur_553_188"/>
<feBlend mode="normal" in="SourceGraphic" in2="effect1_backgroundBlur_553_188" result="shape"/>
</filter>
</defs>
</svg>
