<svg width="456" height="185" viewBox="0 0 456 185" fill="none" xmlns="http://www.w3.org/2000/svg">
<g filter="url(#filter0_b_553_192)">
<rect width="456" height="185" rx="11" fill="white" fill-opacity="0.05"/>
</g>
<path d="M51.4811 52H48.8411V47.8C48.8411 47.48 48.7544 47.22 48.5811 47.02C48.4211 46.82 48.1478 46.72 47.7611 46.72H44.7211V52H42.0811V38H47.4411C48.1611 38 48.7944 38.1 49.3411 38.3C49.8878 38.5 50.3411 38.78 50.7011 39.14C51.0744 39.4867 51.3544 39.8933 51.5411 40.36C51.7411 40.8267 51.8411 41.3267 51.8411 41.86V42.34C51.8411 42.9133 51.6878 43.4533 51.3811 43.96C51.0744 44.4533 50.6011 44.8333 49.9611 45.1V45.46C50.4278 45.5133 50.7944 45.6933 51.0611 46C51.3411 46.3067 51.4811 46.6933 51.4811 47.16V52ZM44.7211 44.2H47.2411C47.8811 44.2 48.3678 44.0533 48.7011 43.76C49.0344 43.4533 49.2011 43.0267 49.2011 42.48V42.24C49.2011 41.7733 49.0344 41.3733 48.7011 41.04C48.3678 40.6933 47.8811 40.52 47.2411 40.52H44.7211V44.2ZM61.7472 42.08H64.2672V52H61.7472V50.56H61.3872C60.9472 51.7067 60.0005 52.28 58.5472 52.28C58.0539 52.28 57.5939 52.2 57.1672 52.04C56.7405 51.88 56.3672 51.6333 56.0472 51.3C55.7272 50.9667 55.4739 50.5533 55.2872 50.06C55.1139 49.5533 55.0272 48.96 55.0272 48.28V42.08H57.5472V47.76C57.5472 48.4667 57.7139 49.02 58.0472 49.42C58.3805 49.8067 58.8805 50 59.5472 50C60.3072 50 60.8605 49.76 61.2072 49.28C61.5672 48.7867 61.7472 48.12 61.7472 47.28V42.08ZM67.8133 49.6H71.2933V40.4H67.9333V38H73.8133V49.6H77.0533V52H67.8133V49.6ZM82.9394 47.86C82.9527 48.1533 83.0194 48.4267 83.1394 48.68C83.2727 48.92 83.446 49.1333 83.6594 49.32C83.886 49.4933 84.1394 49.6333 84.4194 49.74C84.7127 49.8333 85.0194 49.88 85.3394 49.88C85.966 49.88 86.446 49.7733 86.7794 49.56C87.1127 49.3333 87.3527 49.0667 87.4994 48.76L89.6594 49.96C89.5394 50.2133 89.3727 50.48 89.1594 50.76C88.946 51.0267 88.666 51.2733 88.3194 51.5C87.986 51.7267 87.5727 51.9133 87.0794 52.06C86.5994 52.2067 86.0327 52.28 85.3794 52.28C84.6327 52.28 83.9527 52.16 83.3394 51.92C82.726 51.68 82.1927 51.3333 81.7394 50.88C81.2994 50.4267 80.9527 49.8733 80.6994 49.22C80.4594 48.5667 80.3394 47.8267 80.3394 47V46.88C80.3394 46.12 80.466 45.4267 80.7194 44.8C80.986 44.1733 81.346 43.64 81.7994 43.2C82.2527 42.76 82.7794 42.42 83.3794 42.18C83.9927 41.9267 84.646 41.8 85.3394 41.8C86.1927 41.8 86.926 41.9533 87.5394 42.26C88.1527 42.5533 88.6594 42.9333 89.0594 43.4C89.4594 43.8533 89.7527 44.36 89.9394 44.92C90.126 45.4667 90.2194 46 90.2194 46.52V47.86H82.9394ZM85.3194 44.08C84.6794 44.08 84.1594 44.2467 83.7594 44.58C83.3594 44.9 83.0994 45.2733 82.9794 45.7H87.6594C87.5794 45.2333 87.326 44.8467 86.8994 44.54C86.486 44.2333 85.9594 44.08 85.3194 44.08ZM95.0055 45.36H101.245V47.64H95.0055V45.36ZM115.992 49.48V52H106.152V49.24C106.152 48.5067 106.258 47.88 106.472 47.36C106.698 46.84 107.012 46.4 107.412 46.04C107.825 45.68 108.318 45.3867 108.892 45.16C109.465 44.92 110.112 44.72 110.832 44.56C111.365 44.44 111.798 44.3067 112.132 44.16C112.478 44 112.752 43.8267 112.952 43.64C113.152 43.44 113.285 43.2267 113.352 43C113.432 42.76 113.472 42.4933 113.472 42.2C113.472 41.64 113.265 41.1733 112.852 40.8C112.452 40.4267 111.892 40.24 111.172 40.24C110.412 40.24 109.805 40.4733 109.352 40.94C108.898 41.3933 108.672 42.0267 108.672 42.84V43.72H106.032V42.6C106.032 41.9467 106.145 41.3267 106.372 40.74C106.612 40.14 106.945 39.62 107.372 39.18C107.812 38.7267 108.345 38.3733 108.972 38.12C109.598 37.8533 110.305 37.72 111.092 37.72C111.932 37.72 112.665 37.8467 113.292 38.1C113.918 38.34 114.438 38.66 114.852 39.06C115.278 39.46 115.592 39.9267 115.792 40.46C116.005 40.98 116.112 41.52 116.112 42.08V42.32C116.112 43.4933 115.778 44.4667 115.112 45.24C114.458 46.0133 113.385 46.5733 111.892 46.92C111.265 47.0667 110.745 47.22 110.332 47.38C109.932 47.5267 109.618 47.6933 109.392 47.88C109.165 48.0667 109.005 48.2733 108.912 48.5C108.832 48.7133 108.792 48.96 108.792 49.24V49.48H115.992Z" fill="white"/>
<path d="M41.5811 85.8H49.4531V87.048H46.1891V97H44.8451V87.048H41.5811V85.8ZM53.538 97H52.29V85.8H53.538V90.504H53.73C53.9753 89.992 54.3166 89.5867 54.754 89.288C55.202 88.9893 55.746 88.84 56.386 88.84C57.25 88.84 57.9486 89.128 58.482 89.704C59.026 90.2693 59.298 91.1227 59.298 92.264V97H58.05V92.52C58.05 91.688 57.8633 91.064 57.49 90.648C57.1166 90.232 56.61 90.024 55.97 90.024C55.2126 90.024 54.6153 90.2853 54.178 90.808C53.7513 91.32 53.538 92.008 53.538 92.872V97ZM63.4788 93.416C63.5108 94.2053 63.7562 94.84 64.2148 95.32C64.6735 95.8 65.3135 96.04 66.1348 96.04C66.5082 96.04 66.8335 95.9973 67.1108 95.912C67.3882 95.8267 67.6228 95.7093 67.8148 95.56C68.0175 95.4107 68.1775 95.24 68.2948 95.048C68.4228 94.8453 68.5242 94.632 68.5988 94.408L69.7828 94.728C69.5588 95.464 69.1428 96.0667 68.5348 96.536C67.9375 96.9947 67.1268 97.224 66.1028 97.224C65.5375 97.224 65.0148 97.128 64.5348 96.936C64.0655 96.7333 63.6602 96.4507 63.3188 96.088C62.9775 95.7253 62.7108 95.2933 62.5188 94.792C62.3268 94.2907 62.2308 93.736 62.2308 93.128V92.744C62.2308 92.1893 62.3268 91.672 62.5188 91.192C62.7215 90.712 62.9988 90.3013 63.3508 89.96C63.7028 89.608 64.1135 89.336 64.5828 89.144C65.0628 88.9413 65.5802 88.84 66.1348 88.84C66.7855 88.84 67.3455 88.9627 67.8148 89.208C68.2948 89.4427 68.6842 89.736 68.9828 90.088C69.2922 90.44 69.5162 90.824 69.6548 91.24C69.8042 91.656 69.8788 92.04 69.8788 92.392V93.416H63.4788ZM66.1348 90.024C65.7828 90.024 65.4522 90.0827 65.1428 90.2C64.8442 90.3067 64.5775 90.4613 64.3428 90.664C64.1188 90.8667 63.9322 91.1067 63.7828 91.384C63.6442 91.6507 63.5535 91.944 63.5108 92.264H68.6308C68.6095 91.9227 68.5242 91.6133 68.3748 91.336C68.2362 91.0587 68.0495 90.824 67.8148 90.632C67.5908 90.44 67.3295 90.2907 67.0308 90.184C66.7428 90.0773 66.4442 90.024 66.1348 90.024ZM84.8667 92.392V97H83.5227V85.8H87.5227C88.0987 85.8 88.6 85.8853 89.0267 86.056C89.4533 86.216 89.8053 86.4347 90.0827 86.712C90.3707 86.9893 90.584 87.3147 90.7227 87.688C90.872 88.0507 90.9467 88.4347 90.9467 88.84V89.32C90.9467 89.7253 90.872 90.1147 90.7227 90.488C90.584 90.8613 90.3707 91.192 90.0827 91.48C89.7947 91.7573 89.4373 91.9813 89.0107 92.152C88.584 92.312 88.088 92.392 87.5227 92.392H84.8667ZM84.8667 91.144H87.3627C88.856 91.144 89.6027 90.504 89.6027 89.224V88.936C89.6027 88.3707 89.416 87.9173 89.0427 87.576C88.68 87.224 88.12 87.048 87.3627 87.048H84.8667V91.144ZM99.5916 95.656H99.3996C99.1436 96.1893 98.7862 96.584 98.3276 96.84C97.8796 97.096 97.4049 97.224 96.9036 97.224C96.3809 97.224 95.8956 97.1387 95.4476 96.968C94.9996 96.7867 94.6049 96.5253 94.2636 96.184C93.9329 95.832 93.6716 95.4053 93.4796 94.904C93.2876 94.4027 93.1916 93.8213 93.1916 93.16V92.904C93.1916 92.2533 93.2876 91.6773 93.4796 91.176C93.6716 90.6747 93.9329 90.2533 94.2636 89.912C94.6049 89.56 94.9996 89.2933 95.4476 89.112C95.8956 88.9307 96.3702 88.84 96.8716 88.84C97.4156 88.84 97.9062 88.9627 98.3436 89.208C98.7916 89.4427 99.1436 89.8107 99.3996 90.312H99.5916V89.064H100.84V95.368C100.84 95.688 100.984 95.848 101.272 95.848H101.672V97H100.824C100.461 97 100.162 96.8827 99.9276 96.648C99.7036 96.4133 99.5916 96.1147 99.5916 95.752V95.656ZM97.0316 96.04C97.4049 96.04 97.7462 95.9707 98.0556 95.832C98.3756 95.6933 98.6476 95.496 98.8716 95.24C99.0956 94.984 99.2716 94.68 99.3996 94.328C99.5276 93.9653 99.5916 93.5653 99.5916 93.128V92.936C99.5916 92.5093 99.5276 92.12 99.3996 91.768C99.2716 91.4053 99.0902 91.096 98.8556 90.84C98.6316 90.584 98.3596 90.3867 98.0396 90.248C97.7302 90.0987 97.3942 90.024 97.0316 90.024C96.6582 90.024 96.3169 90.0933 96.0076 90.232C95.6982 90.3707 95.4262 90.568 95.1916 90.824C94.9676 91.0693 94.7916 91.3733 94.6636 91.736C94.5356 92.088 94.4716 92.4773 94.4716 92.904V93.16C94.4716 94.0667 94.7062 94.776 95.1756 95.288C95.6556 95.7893 96.2742 96.04 97.0316 96.04ZM103.66 89.064H106.54V90.12H106.732C106.935 89.6827 107.223 89.3627 107.596 89.16C107.97 88.9467 108.396 88.84 108.876 88.84C109.676 88.84 110.322 89.1013 110.812 89.624C111.303 90.1467 111.564 90.9093 111.596 91.912L110.284 92.104C110.284 91.368 110.108 90.84 109.756 90.52C109.404 90.1893 108.972 90.024 108.46 90.024C108.13 90.024 107.842 90.088 107.596 90.216C107.362 90.344 107.164 90.52 107.004 90.744C106.844 90.968 106.727 91.2293 106.652 91.528C106.578 91.8267 106.54 92.1467 106.54 92.488V95.848H108.556V97H103.468V95.848H105.292V90.216H103.66V89.064ZM114.113 89.064H116.609V85.8H117.857V89.064H120.929V90.216H117.857V95.368C117.857 95.688 118.001 95.848 118.289 95.848H120.545V97H117.841C117.479 97 117.18 96.8827 116.945 96.648C116.721 96.4133 116.609 96.1147 116.609 95.752V90.216H114.113V89.064ZM127.126 86.696C127.126 86.3867 127.233 86.1253 127.446 85.912C127.67 85.688 127.937 85.576 128.246 85.576C128.556 85.576 128.817 85.688 129.03 85.912C129.254 86.1253 129.366 86.3867 129.366 86.696C129.366 87.0053 129.254 87.272 129.03 87.496C128.817 87.7093 128.556 87.816 128.246 87.816C127.937 87.816 127.67 87.7093 127.446 87.496C127.233 87.272 127.126 87.0053 127.126 86.696ZM124.854 95.848H127.638V90.216H125.142V89.064H128.886V95.848H131.478V97H124.854V95.848ZM142.363 94.184C142.278 94.6213 142.128 95.0267 141.915 95.4C141.712 95.7733 141.451 96.0987 141.131 96.376C140.811 96.6427 140.438 96.8507 140.011 97C139.584 97.1493 139.11 97.224 138.587 97.224C138.032 97.224 137.504 97.1333 137.003 96.952C136.512 96.7707 136.08 96.5093 135.707 96.168C135.334 95.816 135.035 95.3893 134.811 94.888C134.598 94.3867 134.491 93.8107 134.491 93.16V92.968C134.491 92.328 134.598 91.752 134.811 91.24C135.035 90.728 135.334 90.296 135.707 89.944C136.08 89.592 136.512 89.32 137.003 89.128C137.504 88.936 138.032 88.84 138.587 88.84C139.088 88.84 139.552 88.9147 139.979 89.064C140.406 89.2133 140.779 89.4267 141.099 89.704C141.43 89.9707 141.696 90.2907 141.899 90.664C142.112 91.0373 142.256 91.4427 142.331 91.88L141.083 92.168C141.051 91.8907 140.971 91.624 140.843 91.368C140.726 91.1013 140.56 90.872 140.347 90.68C140.144 90.4773 139.894 90.3173 139.595 90.2C139.296 90.0827 138.95 90.024 138.555 90.024C138.171 90.024 137.808 90.0987 137.467 90.248C137.136 90.3867 136.843 90.5893 136.587 90.856C136.331 91.112 136.128 91.4213 135.979 91.784C135.84 92.1467 135.771 92.5413 135.771 92.968V93.16C135.771 93.608 135.84 94.0133 135.979 94.376C136.128 94.728 136.331 95.0267 136.587 95.272C136.843 95.5173 137.142 95.7093 137.483 95.848C137.824 95.976 138.192 96.04 138.587 96.04C138.982 96.04 139.323 95.9813 139.611 95.864C139.91 95.736 140.16 95.576 140.363 95.384C140.576 95.1813 140.742 94.952 140.859 94.696C140.987 94.44 141.072 94.1733 141.115 93.896L142.363 94.184ZM147.68 86.696C147.68 86.3867 147.787 86.1253 148 85.912C148.224 85.688 148.491 85.576 148.8 85.576C149.109 85.576 149.371 85.688 149.584 85.912C149.808 86.1253 149.92 86.3867 149.92 86.696C149.92 87.0053 149.808 87.272 149.584 87.496C149.371 87.7093 149.109 87.816 148.8 87.816C148.491 87.816 148.224 87.7093 148 87.496C147.787 87.272 147.68 87.0053 147.68 86.696ZM145.408 95.848H148.192V90.216H145.696V89.064H149.44V95.848H152.032V97H145.408V95.848ZM156.453 100.2H155.205V89.064H156.453V90.312H156.645C156.922 89.832 157.306 89.4693 157.797 89.224C158.287 88.968 158.821 88.84 159.397 88.84C159.887 88.84 160.351 88.9307 160.789 89.112C161.226 89.2933 161.61 89.5547 161.941 89.896C162.282 90.2373 162.549 90.6587 162.741 91.16C162.943 91.6613 163.045 92.232 163.045 92.872V93.192C163.045 93.8427 162.949 94.4187 162.757 94.92C162.565 95.4213 162.298 95.8427 161.957 96.184C161.626 96.5253 161.237 96.7867 160.789 96.968C160.341 97.1387 159.866 97.224 159.365 97.224C159.109 97.224 158.847 97.192 158.581 97.128C158.314 97.0747 158.058 96.9893 157.813 96.872C157.578 96.744 157.359 96.5947 157.157 96.424C156.954 96.2427 156.783 96.0293 156.645 95.784H156.453V100.2ZM159.109 96.04C159.493 96.04 159.845 95.976 160.165 95.848C160.485 95.7093 160.762 95.5173 160.997 95.272C161.242 95.0267 161.429 94.728 161.557 94.376C161.695 94.024 161.765 93.6293 161.765 93.192V92.872C161.765 92.4453 161.695 92.0613 161.557 91.72C161.429 91.368 161.242 91.0693 160.997 90.824C160.762 90.568 160.479 90.3707 160.149 90.232C159.829 90.0933 159.482 90.024 159.109 90.024C158.735 90.024 158.389 90.0987 158.069 90.248C157.749 90.3867 157.466 90.584 157.221 90.84C156.986 91.096 156.799 91.4053 156.661 91.768C156.522 92.12 156.453 92.5093 156.453 92.936V93.128C156.453 93.5653 156.522 93.9653 156.661 94.328C156.799 94.68 156.986 94.984 157.221 95.24C157.466 95.496 157.749 95.6933 158.069 95.832C158.389 95.9707 158.735 96.04 159.109 96.04ZM171.53 95.656H171.338C171.082 96.1893 170.724 96.584 170.266 96.84C169.818 97.096 169.343 97.224 168.842 97.224C168.319 97.224 167.834 97.1387 167.386 96.968C166.938 96.7867 166.543 96.5253 166.202 96.184C165.871 95.832 165.61 95.4053 165.418 94.904C165.226 94.4027 165.13 93.8213 165.13 93.16V92.904C165.13 92.2533 165.226 91.6773 165.418 91.176C165.61 90.6747 165.871 90.2533 166.202 89.912C166.543 89.56 166.938 89.2933 167.386 89.112C167.834 88.9307 168.308 88.84 168.81 88.84C169.354 88.84 169.844 88.9627 170.282 89.208C170.73 89.4427 171.082 89.8107 171.338 90.312H171.53V89.064H172.778V95.368C172.778 95.688 172.922 95.848 173.21 95.848H173.61V97H172.762C172.399 97 172.1 96.8827 171.866 96.648C171.642 96.4133 171.53 96.1147 171.53 95.752V95.656ZM168.97 96.04C169.343 96.04 169.684 95.9707 169.994 95.832C170.314 95.6933 170.586 95.496 170.81 95.24C171.034 94.984 171.21 94.68 171.338 94.328C171.466 93.9653 171.53 93.5653 171.53 93.128V92.936C171.53 92.5093 171.466 92.12 171.338 91.768C171.21 91.4053 171.028 91.096 170.794 90.84C170.57 90.584 170.298 90.3867 169.978 90.248C169.668 90.0987 169.332 90.024 168.97 90.024C168.596 90.024 168.255 90.0933 167.946 90.232C167.636 90.3707 167.364 90.568 167.13 90.824C166.906 91.0693 166.73 91.3733 166.602 91.736C166.474 92.088 166.41 92.4773 166.41 92.904V93.16C166.41 94.0667 166.644 94.776 167.114 95.288C167.594 95.7893 168.212 96.04 168.97 96.04ZM177.295 97H176.047V89.064H177.295V90.408H177.487C177.977 89.3627 178.831 88.84 180.047 88.84C180.964 88.84 181.695 89.128 182.239 89.704C182.783 90.2693 183.055 91.1227 183.055 92.264V97H181.807V92.52C181.807 91.688 181.62 91.064 181.247 90.648C180.873 90.232 180.367 90.024 179.727 90.024C178.969 90.024 178.372 90.2853 177.935 90.808C177.508 91.32 177.295 92.008 177.295 92.872V97ZM186.051 89.064H188.547V85.8H189.795V89.064H192.867V90.216H189.795V95.368C189.795 95.688 189.939 95.848 190.227 95.848H192.483V97H189.779C189.417 97 189.118 96.8827 188.883 96.648C188.659 96.4133 188.547 96.1147 188.547 95.752V90.216H186.051V89.064ZM198.248 91.112C198.248 91.496 198.408 91.7893 198.728 91.992C199.059 92.1947 199.656 92.328 200.52 92.392C201.448 92.4667 202.152 92.6907 202.632 93.064C203.123 93.4267 203.368 93.96 203.368 94.664V94.76C203.368 95.144 203.288 95.4907 203.128 95.8C202.979 96.0987 202.766 96.3547 202.488 96.568C202.222 96.7813 201.891 96.9413 201.496 97.048C201.112 97.1653 200.691 97.224 200.232 97.224C199.614 97.224 199.08 97.144 198.632 96.984C198.195 96.8133 197.827 96.5947 197.528 96.328C197.24 96.0507 197.022 95.7413 196.872 95.4C196.723 95.048 196.638 94.696 196.616 94.344L197.8 94.056C197.854 94.664 198.088 95.1547 198.504 95.528C198.92 95.8907 199.475 96.072 200.168 96.072C200.755 96.072 201.224 95.96 201.576 95.736C201.939 95.5013 202.12 95.176 202.12 94.76C202.12 94.312 201.944 93.992 201.592 93.8C201.24 93.608 200.67 93.4853 199.88 93.432C198.963 93.368 198.259 93.1547 197.768 92.792C197.278 92.4293 197.032 91.9013 197.032 91.208V91.112C197.032 90.7387 197.112 90.4133 197.272 90.136C197.432 89.848 197.646 89.608 197.912 89.416C198.19 89.224 198.499 89.08 198.84 88.984C199.182 88.888 199.539 88.84 199.912 88.84C200.435 88.84 200.894 88.9147 201.288 89.064C201.683 89.2027 202.014 89.3893 202.28 89.624C202.547 89.848 202.75 90.1093 202.888 90.408C203.038 90.7067 203.134 91.0053 203.176 91.304L201.992 91.592C201.939 91.08 201.731 90.68 201.368 90.392C201.016 90.104 200.552 89.96 199.976 89.96C199.752 89.96 199.534 89.9867 199.32 90.04C199.118 90.0827 198.936 90.152 198.776 90.248C198.616 90.344 198.488 90.4667 198.392 90.616C198.296 90.7547 198.248 90.92 198.248 91.112ZM223.348 95.656H223.156C222.9 96.1893 222.543 96.584 222.084 96.84C221.636 97.096 221.161 97.224 220.66 97.224C220.137 97.224 219.652 97.1387 219.204 96.968C218.756 96.7867 218.361 96.5253 218.02 96.184C217.689 95.832 217.428 95.4053 217.236 94.904C217.044 94.4027 216.948 93.8213 216.948 93.16V92.904C216.948 92.2533 217.044 91.6773 217.236 91.176C217.428 90.6747 217.689 90.2533 218.02 89.912C218.361 89.56 218.756 89.2933 219.204 89.112C219.652 88.9307 220.127 88.84 220.628 88.84C221.172 88.84 221.663 88.9627 222.1 89.208C222.548 89.4427 222.9 89.8107 223.156 90.312H223.348V89.064H224.596V95.368C224.596 95.688 224.74 95.848 225.028 95.848H225.428V97H224.58C224.217 97 223.919 96.8827 223.684 96.648C223.46 96.4133 223.348 96.1147 223.348 95.752V95.656ZM220.788 96.04C221.161 96.04 221.503 95.9707 221.812 95.832C222.132 95.6933 222.404 95.496 222.628 95.24C222.852 94.984 223.028 94.68 223.156 94.328C223.284 93.9653 223.348 93.5653 223.348 93.128V92.936C223.348 92.5093 223.284 92.12 223.156 91.768C223.028 91.4053 222.847 91.096 222.612 90.84C222.388 90.584 222.116 90.3867 221.796 90.248C221.487 90.0987 221.151 90.024 220.788 90.024C220.415 90.024 220.073 90.0933 219.764 90.232C219.455 90.3707 219.183 90.568 218.948 90.824C218.724 91.0693 218.548 91.3733 218.42 91.736C218.292 92.088 218.228 92.4773 218.228 92.904V93.16C218.228 94.0667 218.463 94.776 218.932 95.288C219.412 95.7893 220.031 96.04 220.788 96.04ZM227.417 89.064H230.297V90.12H230.489C230.692 89.6827 230.98 89.3627 231.353 89.16C231.726 88.9467 232.153 88.84 232.633 88.84C233.433 88.84 234.078 89.1013 234.569 89.624C235.06 90.1467 235.321 90.9093 235.353 91.912L234.041 92.104C234.041 91.368 233.865 90.84 233.513 90.52C233.161 90.1893 232.729 90.024 232.217 90.024C231.886 90.024 231.598 90.088 231.353 90.216C231.118 90.344 230.921 90.52 230.761 90.744C230.601 90.968 230.484 91.2293 230.409 91.528C230.334 91.8267 230.297 92.1467 230.297 92.488V95.848H232.313V97H227.225V95.848H229.049V90.216H227.417V89.064ZM239.054 93.416C239.086 94.2053 239.331 94.84 239.79 95.32C240.249 95.8 240.889 96.04 241.71 96.04C242.083 96.04 242.409 95.9973 242.686 95.912C242.963 95.8267 243.198 95.7093 243.39 95.56C243.593 95.4107 243.753 95.24 243.87 95.048C243.998 94.8453 244.099 94.632 244.174 94.408L245.358 94.728C245.134 95.464 244.718 96.0667 244.11 96.536C243.513 96.9947 242.702 97.224 241.678 97.224C241.113 97.224 240.59 97.128 240.11 96.936C239.641 96.7333 239.235 96.4507 238.894 96.088C238.553 95.7253 238.286 95.2933 238.094 94.792C237.902 94.2907 237.806 93.736 237.806 93.128V92.744C237.806 92.1893 237.902 91.672 238.094 91.192C238.297 90.712 238.574 90.3013 238.926 89.96C239.278 89.608 239.689 89.336 240.158 89.144C240.638 88.9413 241.155 88.84 241.71 88.84C242.361 88.84 242.921 88.9627 243.39 89.208C243.87 89.4427 244.259 89.736 244.558 90.088C244.867 90.44 245.091 90.824 245.23 91.24C245.379 91.656 245.454 92.04 245.454 92.392V93.416H239.054ZM241.71 90.024C241.358 90.024 241.027 90.0827 240.718 90.2C240.419 90.3067 240.153 90.4613 239.918 90.664C239.694 90.8667 239.507 91.1067 239.358 91.384C239.219 91.6507 239.129 91.944 239.086 92.264H244.206C244.185 91.9227 244.099 91.6133 243.95 91.336C243.811 91.0587 243.625 90.824 243.39 90.632C243.166 90.44 242.905 90.2907 242.606 90.184C242.318 90.0773 242.019 90.024 241.71 90.024ZM261.594 86.696C261.594 86.3867 261.7 86.1253 261.914 85.912C262.138 85.688 262.404 85.576 262.714 85.576C263.023 85.576 263.284 85.688 263.498 85.912C263.722 86.1253 263.834 86.3867 263.834 86.696C263.834 87.0053 263.722 87.272 263.498 87.496C263.284 87.7093 263.023 87.816 262.714 87.816C262.404 87.816 262.138 87.7093 261.914 87.496C261.7 87.272 261.594 87.0053 261.594 86.696ZM259.322 95.848H262.106V90.216H259.61V89.064H263.354V95.848H265.946V97H259.322V95.848ZM270.655 97H269.407V89.064H270.655V90.408H270.847C271.337 89.3627 272.191 88.84 273.407 88.84C274.324 88.84 275.055 89.128 275.599 89.704C276.143 90.2693 276.415 91.1227 276.415 92.264V97H275.167V92.52C275.167 91.688 274.98 91.064 274.607 90.648C274.233 90.232 273.727 90.024 273.087 90.024C272.329 90.024 271.732 90.2853 271.295 90.808C270.868 91.32 270.655 92.008 270.655 92.872V97ZM281.331 91.112C281.331 91.496 281.491 91.7893 281.811 91.992C282.142 92.1947 282.739 92.328 283.603 92.392C284.531 92.4667 285.235 92.6907 285.715 93.064C286.206 93.4267 286.451 93.96 286.451 94.664V94.76C286.451 95.144 286.371 95.4907 286.211 95.8C286.062 96.0987 285.849 96.3547 285.571 96.568C285.305 96.7813 284.974 96.9413 284.579 97.048C284.195 97.1653 283.774 97.224 283.315 97.224C282.697 97.224 282.163 97.144 281.715 96.984C281.278 96.8133 280.91 96.5947 280.611 96.328C280.323 96.0507 280.105 95.7413 279.955 95.4C279.806 95.048 279.721 94.696 279.699 94.344L280.883 94.056C280.937 94.664 281.171 95.1547 281.587 95.528C282.003 95.8907 282.558 96.072 283.251 96.072C283.838 96.072 284.307 95.96 284.659 95.736C285.022 95.5013 285.203 95.176 285.203 94.76C285.203 94.312 285.027 93.992 284.675 93.8C284.323 93.608 283.753 93.4853 282.963 93.432C282.046 93.368 281.342 93.1547 280.851 92.792C280.361 92.4293 280.115 91.9013 280.115 91.208V91.112C280.115 90.7387 280.195 90.4133 280.355 90.136C280.515 89.848 280.729 89.608 280.995 89.416C281.273 89.224 281.582 89.08 281.923 88.984C282.265 88.888 282.622 88.84 282.995 88.84C283.518 88.84 283.977 88.9147 284.371 89.064C284.766 89.2027 285.097 89.3893 285.363 89.624C285.63 89.848 285.833 90.1093 285.971 90.408C286.121 90.7067 286.217 91.0053 286.259 91.304L285.075 91.592C285.022 91.08 284.814 90.68 284.451 90.392C284.099 90.104 283.635 89.96 283.059 89.96C282.835 89.96 282.617 89.9867 282.403 90.04C282.201 90.0827 282.019 90.152 281.859 90.248C281.699 90.344 281.571 90.4667 281.475 90.616C281.379 90.7547 281.331 90.92 281.331 91.112ZM292.424 86.696C292.424 86.3867 292.531 86.1253 292.744 85.912C292.968 85.688 293.235 85.576 293.544 85.576C293.854 85.576 294.115 85.688 294.328 85.912C294.552 86.1253 294.664 86.3867 294.664 86.696C294.664 87.0053 294.552 87.272 294.328 87.496C294.115 87.7093 293.854 87.816 293.544 87.816C293.235 87.816 292.968 87.7093 292.744 87.496C292.531 87.272 292.424 87.0053 292.424 86.696ZM290.152 95.848H292.936V90.216H290.44V89.064H294.184V95.848H296.776V97H290.152V95.848ZM301.885 91.112C301.885 91.496 302.045 91.7893 302.365 91.992C302.696 92.1947 303.293 92.328 304.157 92.392C305.085 92.4667 305.789 92.6907 306.269 93.064C306.76 93.4267 307.005 93.96 307.005 94.664V94.76C307.005 95.144 306.925 95.4907 306.765 95.8C306.616 96.0987 306.403 96.3547 306.125 96.568C305.859 96.7813 305.528 96.9413 305.133 97.048C304.749 97.1653 304.328 97.224 303.869 97.224C303.251 97.224 302.717 97.144 302.269 96.984C301.832 96.8133 301.464 96.5947 301.165 96.328C300.877 96.0507 300.659 95.7413 300.509 95.4C300.36 95.048 300.275 94.696 300.253 94.344L301.437 94.056C301.491 94.664 301.725 95.1547 302.141 95.528C302.557 95.8907 303.112 96.072 303.805 96.072C304.392 96.072 304.861 95.96 305.213 95.736C305.576 95.5013 305.757 95.176 305.757 94.76C305.757 94.312 305.581 93.992 305.229 93.8C304.877 93.608 304.307 93.4853 303.517 93.432C302.6 93.368 301.896 93.1547 301.405 92.792C300.915 92.4293 300.669 91.9013 300.669 91.208V91.112C300.669 90.7387 300.749 90.4133 300.909 90.136C301.069 89.848 301.283 89.608 301.549 89.416C301.827 89.224 302.136 89.08 302.477 88.984C302.819 88.888 303.176 88.84 303.549 88.84C304.072 88.84 304.531 88.9147 304.925 89.064C305.32 89.2027 305.651 89.3893 305.917 89.624C306.184 89.848 306.387 90.1093 306.525 90.408C306.675 90.7067 306.771 91.0053 306.813 91.304L305.629 91.592C305.576 91.08 305.368 90.68 305.005 90.392C304.653 90.104 304.189 89.96 303.613 89.96C303.389 89.96 303.171 89.9867 302.957 90.04C302.755 90.0827 302.573 90.152 302.413 90.248C302.253 90.344 302.125 90.4667 302.029 90.616C301.933 90.7547 301.885 90.92 301.885 91.112ZM310.242 89.064H312.738V85.8H313.986V89.064H317.058V90.216H313.986V95.368C313.986 95.688 314.13 95.848 314.418 95.848H316.674V97H313.97C313.607 97 313.309 96.8827 313.074 96.648C312.85 96.4133 312.738 96.1147 312.738 95.752V90.216H310.242V89.064ZM321.703 93.416C321.735 94.2053 321.98 94.84 322.439 95.32C322.898 95.8 323.538 96.04 324.359 96.04C324.732 96.04 325.058 95.9973 325.335 95.912C325.612 95.8267 325.847 95.7093 326.039 95.56C326.242 95.4107 326.402 95.24 326.519 95.048C326.647 94.8453 326.748 94.632 326.823 94.408L328.007 94.728C327.783 95.464 327.367 96.0667 326.759 96.536C326.162 96.9947 325.351 97.224 324.327 97.224C323.762 97.224 323.239 97.128 322.759 96.936C322.29 96.7333 321.884 96.4507 321.543 96.088C321.202 95.7253 320.935 95.2933 320.743 94.792C320.551 94.2907 320.455 93.736 320.455 93.128V92.744C320.455 92.1893 320.551 91.672 320.743 91.192C320.946 90.712 321.223 90.3013 321.575 89.96C321.927 89.608 322.338 89.336 322.807 89.144C323.287 88.9413 323.804 88.84 324.359 88.84C325.01 88.84 325.57 88.9627 326.039 89.208C326.519 89.4427 326.908 89.736 327.207 90.088C327.516 90.44 327.74 90.824 327.879 91.24C328.028 91.656 328.103 92.04 328.103 92.392V93.416H321.703ZM324.359 90.024C324.007 90.024 323.676 90.0827 323.367 90.2C323.068 90.3067 322.802 90.4613 322.567 90.664C322.343 90.8667 322.156 91.1067 322.007 91.384C321.868 91.6507 321.778 91.944 321.735 92.264H326.855C326.834 91.9227 326.748 91.6133 326.599 91.336C326.46 91.0587 326.274 90.824 326.039 90.632C325.815 90.44 325.554 90.2907 325.255 90.184C324.967 90.0773 324.668 90.024 324.359 90.024ZM337.212 95.784H337.02C336.892 96.0293 336.727 96.2427 336.524 96.424C336.332 96.6053 336.119 96.7547 335.884 96.872C335.66 96.9893 335.42 97.0747 335.164 97.128C334.908 97.192 334.663 97.224 334.428 97.224C333.895 97.224 333.399 97.1333 332.94 96.952C332.481 96.7707 332.076 96.5093 331.724 96.168C331.383 95.8267 331.111 95.4053 330.908 94.904C330.716 94.392 330.62 93.8107 330.62 93.16V92.904C330.62 92.264 330.721 91.6933 330.924 91.192C331.127 90.68 331.399 90.2533 331.74 89.912C332.081 89.56 332.481 89.2933 332.94 89.112C333.399 88.9307 333.884 88.84 334.396 88.84C334.94 88.84 335.447 88.9627 335.916 89.208C336.396 89.4427 336.764 89.8107 337.02 90.312H337.212V85.8H338.46V97H337.212V95.784ZM334.556 96.04C334.929 96.04 335.276 95.9707 335.596 95.832C335.916 95.6933 336.193 95.496 336.428 95.24C336.673 94.984 336.865 94.68 337.004 94.328C337.143 93.9653 337.212 93.5653 337.212 93.128V92.936C337.212 92.5093 337.143 92.12 337.004 91.768C336.865 91.4053 336.673 91.096 336.428 90.84C336.193 90.584 335.911 90.3867 335.58 90.248C335.26 90.0987 334.919 90.024 334.556 90.024C334.183 90.024 333.831 90.0933 333.5 90.232C333.18 90.3707 332.897 90.568 332.652 90.824C332.417 91.08 332.231 91.384 332.092 91.736C331.964 92.088 331.9 92.4773 331.9 92.904V93.16C331.9 93.608 331.964 94.008 332.092 94.36C332.231 94.712 332.417 95.016 332.652 95.272C332.897 95.5173 333.18 95.7093 333.5 95.848C333.82 95.976 334.172 96.04 334.556 96.04ZM353.304 97H352.056V89.064H353.304V90.408H353.496C353.986 89.3627 354.84 88.84 356.056 88.84C356.973 88.84 357.704 89.128 358.248 89.704C358.792 90.2693 359.064 91.1227 359.064 92.264V97H357.816V92.52C357.816 91.688 357.629 91.064 357.256 90.648C356.882 90.232 356.376 90.024 355.736 90.024C354.978 90.024 354.381 90.2853 353.944 90.808C353.517 91.32 353.304 92.008 353.304 92.872V97ZM369.821 93.128C369.821 93.7893 369.709 94.376 369.485 94.888C369.271 95.3893 368.983 95.816 368.621 96.168C368.258 96.5093 367.831 96.7707 367.341 96.952C366.861 97.1333 366.359 97.224 365.837 97.224C365.303 97.224 364.797 97.1333 364.317 96.952C363.837 96.7707 363.415 96.5093 363.053 96.168C362.69 95.816 362.397 95.3893 362.173 94.888C361.959 94.376 361.853 93.7893 361.853 93.128V92.936C361.853 92.2853 361.959 91.7093 362.173 91.208C362.397 90.696 362.69 90.264 363.053 89.912C363.426 89.56 363.853 89.2933 364.333 89.112C364.813 88.9307 365.314 88.84 365.837 88.84C366.359 88.84 366.861 88.9307 367.341 89.112C367.821 89.2933 368.242 89.56 368.605 89.912C368.978 90.264 369.271 90.696 369.485 91.208C369.709 91.7093 369.821 92.2853 369.821 92.936V93.128ZM365.837 96.04C366.221 96.04 366.573 95.976 366.893 95.848C367.223 95.7093 367.511 95.512 367.757 95.256C368.002 95 368.194 94.696 368.333 94.344C368.471 93.9813 368.541 93.576 368.541 93.128V92.936C368.541 92.5093 368.471 92.12 368.333 91.768C368.194 91.4053 368.002 91.096 367.757 90.84C367.511 90.584 367.223 90.3867 366.893 90.248C366.562 90.0987 366.21 90.024 365.837 90.024C365.463 90.024 365.111 90.0987 364.781 90.248C364.45 90.3867 364.162 90.584 363.917 90.84C363.671 91.096 363.479 91.4053 363.341 91.768C363.202 92.12 363.133 92.5093 363.133 92.936V93.128C363.133 93.576 363.202 93.9813 363.341 94.344C363.479 94.696 363.671 95 363.917 95.256C364.162 95.512 364.445 95.7093 364.765 95.848C365.095 95.976 365.453 96.04 365.837 96.04ZM372.337 89.064H374.833V85.8H376.081V89.064H379.153V90.216H376.081V95.368C376.081 95.688 376.225 95.848 376.513 95.848H378.769V97H376.065C375.703 97 375.404 96.8827 375.169 96.648C374.945 96.4133 374.833 96.1147 374.833 95.752V90.216H372.337V89.064ZM393.325 89.064H395.821V85.8H397.069V89.064H400.141V90.216H397.069V95.368C397.069 95.688 397.213 95.848 397.501 95.848H399.757V97H397.053C396.691 97 396.392 96.8827 396.157 96.648C395.933 96.4133 395.821 96.1147 395.821 95.752V90.216H393.325V89.064ZM411.362 93.128C411.362 93.7893 411.25 94.376 411.026 94.888C410.813 95.3893 410.525 95.816 410.162 96.168C409.799 96.5093 409.373 96.7707 408.882 96.952C408.402 97.1333 407.901 97.224 407.378 97.224C406.845 97.224 406.338 97.1333 405.858 96.952C405.378 96.7707 404.957 96.5093 404.594 96.168C404.231 95.816 403.938 95.3893 403.714 94.888C403.501 94.376 403.394 93.7893 403.394 93.128V92.936C403.394 92.2853 403.501 91.7093 403.714 91.208C403.938 90.696 404.231 90.264 404.594 89.912C404.967 89.56 405.394 89.2933 405.874 89.112C406.354 88.9307 406.855 88.84 407.378 88.84C407.901 88.84 408.402 88.9307 408.882 89.112C409.362 89.2933 409.783 89.56 410.146 89.912C410.519 90.264 410.813 90.696 411.026 91.208C411.25 91.7093 411.362 92.2853 411.362 92.936V93.128ZM407.378 96.04C407.762 96.04 408.114 95.976 408.434 95.848C408.765 95.7093 409.053 95.512 409.298 95.256C409.543 95 409.735 94.696 409.874 94.344C410.013 93.9813 410.082 93.576 410.082 93.128V92.936C410.082 92.5093 410.013 92.12 409.874 91.768C409.735 91.4053 409.543 91.096 409.298 90.84C409.053 90.584 408.765 90.3867 408.434 90.248C408.103 90.0987 407.751 90.024 407.378 90.024C407.005 90.024 406.653 90.0987 406.322 90.248C405.991 90.3867 405.703 90.584 405.458 90.84C405.213 91.096 405.021 91.4053 404.882 91.768C404.743 92.12 404.674 92.5093 404.674 92.936V93.128C404.674 93.576 404.743 93.9813 404.882 94.344C405.021 94.696 405.213 95 405.458 95.256C405.703 95.512 405.986 95.7093 406.306 95.848C406.637 95.976 406.994 96.04 407.378 96.04ZM48.1571 124.784H47.9651C47.8371 125.029 47.6718 125.243 47.4691 125.424C47.2771 125.605 47.0638 125.755 46.8291 125.872C46.6051 125.989 46.3651 126.075 46.1091 126.128C45.8531 126.192 45.6078 126.224 45.3731 126.224C44.8398 126.224 44.3438 126.133 43.8851 125.952C43.4264 125.771 43.0211 125.509 42.6691 125.168C42.3278 124.827 42.0558 124.405 41.8531 123.904C41.6611 123.392 41.5651 122.811 41.5651 122.16V121.904C41.5651 121.264 41.6664 120.693 41.8691 120.192C42.0718 119.68 42.3438 119.253 42.6851 118.912C43.0264 118.56 43.4264 118.293 43.8851 118.112C44.3438 117.931 44.8291 117.84 45.3411 117.84C45.8851 117.84 46.3918 117.963 46.8611 118.208C47.3411 118.443 47.7091 118.811 47.9651 119.312H48.1571V114.8H49.4051V126H48.1571V124.784ZM45.5011 125.04C45.8744 125.04 46.2211 124.971 46.5411 124.832C46.8611 124.693 47.1384 124.496 47.3731 124.24C47.6184 123.984 47.8104 123.68 47.9491 123.328C48.0878 122.965 48.1571 122.565 48.1571 122.128V121.936C48.1571 121.509 48.0878 121.12 47.9491 120.768C47.8104 120.405 47.6184 120.096 47.3731 119.84C47.1384 119.584 46.8558 119.387 46.5251 119.248C46.2051 119.099 45.8638 119.024 45.5011 119.024C45.1278 119.024 44.7758 119.093 44.4451 119.232C44.1251 119.371 43.8424 119.568 43.5971 119.824C43.3624 120.08 43.1758 120.384 43.0371 120.736C42.9091 121.088 42.8451 121.477 42.8451 121.904V122.16C42.8451 122.608 42.9091 123.008 43.0371 123.36C43.1758 123.712 43.3624 124.016 43.5971 124.272C43.8424 124.517 44.1251 124.709 44.4451 124.848C44.7651 124.976 45.1171 125.04 45.5011 125.04ZM58.05 124.656H57.858C57.602 125.189 57.2446 125.584 56.786 125.84C56.338 126.096 55.8633 126.224 55.362 126.224C54.8393 126.224 54.354 126.139 53.906 125.968C53.458 125.787 53.0633 125.525 52.722 125.184C52.3913 124.832 52.13 124.405 51.938 123.904C51.746 123.403 51.65 122.821 51.65 122.16V121.904C51.65 121.253 51.746 120.677 51.938 120.176C52.13 119.675 52.3913 119.253 52.722 118.912C53.0633 118.56 53.458 118.293 53.906 118.112C54.354 117.931 54.8286 117.84 55.33 117.84C55.874 117.84 56.3646 117.963 56.802 118.208C57.25 118.443 57.602 118.811 57.858 119.312H58.05V118.064H59.298V124.368C59.298 124.688 59.442 124.848 59.73 124.848H60.13V126H59.282C58.9193 126 58.6206 125.883 58.386 125.648C58.162 125.413 58.05 125.115 58.05 124.752V124.656ZM55.49 125.04C55.8633 125.04 56.2046 124.971 56.514 124.832C56.834 124.693 57.106 124.496 57.33 124.24C57.554 123.984 57.73 123.68 57.858 123.328C57.986 122.965 58.05 122.565 58.05 122.128V121.936C58.05 121.509 57.986 121.12 57.858 120.768C57.73 120.405 57.5486 120.096 57.314 119.84C57.09 119.584 56.818 119.387 56.498 119.248C56.1886 119.099 55.8526 119.024 55.49 119.024C55.1166 119.024 54.7753 119.093 54.466 119.232C54.1566 119.371 53.8846 119.568 53.65 119.824C53.426 120.069 53.25 120.373 53.122 120.736C52.994 121.088 52.93 121.477 52.93 121.904V122.16C52.93 123.067 53.1646 123.776 53.634 124.288C54.114 124.789 54.7326 125.04 55.49 125.04ZM70.1988 126H68.9508V120.304C68.9508 119.931 68.8655 119.627 68.6948 119.392C68.5242 119.147 68.2522 119.024 67.8788 119.024C67.5268 119.024 67.2388 119.157 67.0148 119.424C66.8015 119.68 66.6948 120.08 66.6948 120.624V126H65.4468V120.24C65.4468 119.888 65.3508 119.6 65.1588 119.376C64.9668 119.141 64.7108 119.024 64.3908 119.024C64.0068 119.024 63.7082 119.163 63.4948 119.44C63.2922 119.717 63.1908 120.08 63.1908 120.528V126H61.9428V118.064H63.1908V118.928H63.3828C63.5215 118.555 63.7242 118.283 63.9908 118.112C64.2575 117.931 64.5722 117.84 64.9348 117.84C65.3188 117.84 65.6335 117.941 65.8788 118.144C66.1348 118.347 66.3108 118.608 66.4068 118.928H66.5988C66.9615 118.203 67.5375 117.84 68.3268 117.84C68.9242 117.84 69.3828 118.032 69.7028 118.416C70.0335 118.789 70.1988 119.28 70.1988 119.888V126ZM78.6037 124.656H78.4117C78.1557 125.189 77.7984 125.584 77.3397 125.84C76.8917 126.096 76.4171 126.224 75.9157 126.224C75.3931 126.224 74.9077 126.139 74.4597 125.968C74.0117 125.787 73.6171 125.525 73.2757 125.184C72.9451 124.832 72.6837 124.405 72.4917 123.904C72.2997 123.403 72.2037 122.821 72.2037 122.16V121.904C72.2037 121.253 72.2997 120.677 72.4917 120.176C72.6837 119.675 72.9451 119.253 73.2757 118.912C73.6171 118.56 74.0117 118.293 74.4597 118.112C74.9077 117.931 75.3824 117.84 75.8837 117.84C76.4277 117.84 76.9184 117.963 77.3557 118.208C77.8037 118.443 78.1557 118.811 78.4117 119.312H78.6037V118.064H79.8517V124.368C79.8517 124.688 79.9957 124.848 80.2837 124.848H80.6837V126H79.8357C79.4731 126 79.1744 125.883 78.9397 125.648C78.7157 125.413 78.6037 125.115 78.6037 124.752V124.656ZM76.0437 125.04C76.4171 125.04 76.7584 124.971 77.0677 124.832C77.3877 124.693 77.6597 124.496 77.8837 124.24C78.1077 123.984 78.2837 123.68 78.4117 123.328C78.5397 122.965 78.6037 122.565 78.6037 122.128V121.936C78.6037 121.509 78.5397 121.12 78.4117 120.768C78.2837 120.405 78.1024 120.096 77.8677 119.84C77.6437 119.584 77.3717 119.387 77.0517 119.248C76.7424 119.099 76.4064 119.024 76.0437 119.024C75.6704 119.024 75.3291 119.093 75.0197 119.232C74.7104 119.371 74.4384 119.568 74.2037 119.824C73.9797 120.069 73.8037 120.373 73.6757 120.736C73.5477 121.088 73.4837 121.477 73.4837 121.904V122.16C73.4837 123.067 73.7184 123.776 74.1877 124.288C74.6677 124.789 75.2864 125.04 76.0437 125.04ZM89.1526 124.784H88.9606C88.7046 125.264 88.3526 125.627 87.9046 125.872C87.4673 126.107 86.9873 126.224 86.4646 126.224C85.9313 126.224 85.4299 126.133 84.9606 125.952C84.4913 125.771 84.0753 125.509 83.7126 125.168C83.3606 124.827 83.0779 124.405 82.8646 123.904C82.6619 123.392 82.5606 122.811 82.5606 122.16V121.904C82.5606 121.264 82.6673 120.693 82.8806 120.192C83.0939 119.68 83.3766 119.253 83.7286 118.912C84.0806 118.56 84.4913 118.293 84.9606 118.112C85.4299 117.931 85.9206 117.84 86.4326 117.84C87.0086 117.84 87.5099 117.968 87.9366 118.224C88.3739 118.469 88.7153 118.832 88.9606 119.312H89.1526V118.064H90.4006V127.952C90.4006 128.315 90.2833 128.613 90.0486 128.848C89.8246 129.083 89.5313 129.2 89.1686 129.2H84.0006V128.048H88.7206C89.0086 128.048 89.1526 127.888 89.1526 127.568V124.784ZM86.4966 125.04C86.8699 125.04 87.2166 124.971 87.5366 124.832C87.8566 124.693 88.1339 124.496 88.3686 124.24C88.6139 123.984 88.8059 123.68 88.9446 123.328C89.0833 122.965 89.1526 122.565 89.1526 122.128V121.936C89.1526 121.509 89.0833 121.12 88.9446 120.768C88.8059 120.405 88.6139 120.096 88.3686 119.84C88.1339 119.584 87.8513 119.387 87.5206 119.248C87.2006 119.099 86.8593 119.024 86.4966 119.024C86.1233 119.024 85.7713 119.093 85.4406 119.232C85.1206 119.371 84.8379 119.568 84.5926 119.824C84.3579 120.08 84.1713 120.384 84.0326 120.736C83.9046 121.088 83.8406 121.477 83.8406 121.904V122.16C83.8406 122.608 83.9046 123.008 84.0326 123.36C84.1713 123.712 84.3579 124.016 84.5926 124.272C84.8379 124.517 85.1206 124.709 85.4406 124.848C85.7606 124.976 86.1126 125.04 86.4966 125.04ZM94.3095 122.416C94.3415 123.205 94.5868 123.84 95.0455 124.32C95.5041 124.8 96.1441 125.04 96.9655 125.04C97.3388 125.04 97.6641 124.997 97.9415 124.912C98.2188 124.827 98.4535 124.709 98.6455 124.56C98.8481 124.411 99.0081 124.24 99.1255 124.048C99.2535 123.845 99.3548 123.632 99.4295 123.408L100.613 123.728C100.389 124.464 99.9735 125.067 99.3655 125.536C98.7681 125.995 97.9575 126.224 96.9335 126.224C96.3681 126.224 95.8455 126.128 95.3655 125.936C94.8961 125.733 94.4908 125.451 94.1495 125.088C93.8081 124.725 93.5415 124.293 93.3495 123.792C93.1575 123.291 93.0615 122.736 93.0615 122.128V121.744C93.0615 121.189 93.1575 120.672 93.3495 120.192C93.5521 119.712 93.8295 119.301 94.1815 118.96C94.5335 118.608 94.9441 118.336 95.4135 118.144C95.8935 117.941 96.4108 117.84 96.9655 117.84C97.6161 117.84 98.1761 117.963 98.6455 118.208C99.1255 118.443 99.5148 118.736 99.8135 119.088C100.123 119.44 100.347 119.824 100.485 120.24C100.635 120.656 100.709 121.04 100.709 121.392V122.416H94.3095ZM96.9655 119.024C96.6135 119.024 96.2828 119.083 95.9735 119.2C95.6748 119.307 95.4081 119.461 95.1735 119.664C94.9495 119.867 94.7628 120.107 94.6135 120.384C94.4748 120.651 94.3841 120.944 94.3415 121.264H99.4615C99.4401 120.923 99.3548 120.613 99.2055 120.336C99.0668 120.059 98.8801 119.824 98.6455 119.632C98.4215 119.44 98.1601 119.291 97.8615 119.184C97.5735 119.077 97.2748 119.024 96.9655 119.024ZM121.809 123.184C121.724 123.621 121.575 124.027 121.361 124.4C121.159 124.773 120.897 125.099 120.577 125.376C120.257 125.643 119.884 125.851 119.457 126C119.031 126.149 118.556 126.224 118.033 126.224C117.479 126.224 116.951 126.133 116.449 125.952C115.959 125.771 115.527 125.509 115.153 125.168C114.78 124.816 114.481 124.389 114.257 123.888C114.044 123.387 113.937 122.811 113.937 122.16V121.968C113.937 121.328 114.044 120.752 114.257 120.24C114.481 119.728 114.78 119.296 115.153 118.944C115.527 118.592 115.959 118.32 116.449 118.128C116.951 117.936 117.479 117.84 118.033 117.84C118.535 117.84 118.999 117.915 119.425 118.064C119.852 118.213 120.225 118.427 120.545 118.704C120.876 118.971 121.143 119.291 121.345 119.664C121.559 120.037 121.703 120.443 121.777 120.88L120.529 121.168C120.497 120.891 120.417 120.624 120.289 120.368C120.172 120.101 120.007 119.872 119.793 119.68C119.591 119.477 119.34 119.317 119.041 119.2C118.743 119.083 118.396 119.024 118.001 119.024C117.617 119.024 117.255 119.099 116.913 119.248C116.583 119.387 116.289 119.589 116.033 119.856C115.777 120.112 115.575 120.421 115.425 120.784C115.287 121.147 115.217 121.541 115.217 121.968V122.16C115.217 122.608 115.287 123.013 115.425 123.376C115.575 123.728 115.777 124.027 116.033 124.272C116.289 124.517 116.588 124.709 116.929 124.848C117.271 124.976 117.639 125.04 118.033 125.04C118.428 125.04 118.769 124.981 119.057 124.864C119.356 124.736 119.607 124.576 119.809 124.384C120.023 124.181 120.188 123.952 120.305 123.696C120.433 123.44 120.519 123.173 120.561 122.896L121.809 123.184ZM132.15 122.128C132.15 122.789 132.038 123.376 131.814 123.888C131.601 124.389 131.313 124.816 130.95 125.168C130.588 125.509 130.161 125.771 129.67 125.952C129.19 126.133 128.689 126.224 128.166 126.224C127.633 126.224 127.126 126.133 126.646 125.952C126.166 125.771 125.745 125.509 125.382 125.168C125.02 124.816 124.726 124.389 124.502 123.888C124.289 123.376 124.182 122.789 124.182 122.128V121.936C124.182 121.285 124.289 120.709 124.502 120.208C124.726 119.696 125.02 119.264 125.382 118.912C125.756 118.56 126.182 118.293 126.662 118.112C127.142 117.931 127.644 117.84 128.166 117.84C128.689 117.84 129.19 117.931 129.67 118.112C130.15 118.293 130.572 118.56 130.934 118.912C131.308 119.264 131.601 119.696 131.814 120.208C132.038 120.709 132.15 121.285 132.15 121.936V122.128ZM128.166 125.04C128.55 125.04 128.902 124.976 129.222 124.848C129.553 124.709 129.841 124.512 130.086 124.256C130.332 124 130.524 123.696 130.662 123.344C130.801 122.981 130.87 122.576 130.87 122.128V121.936C130.87 121.509 130.801 121.12 130.662 120.768C130.524 120.405 130.332 120.096 130.086 119.84C129.841 119.584 129.553 119.387 129.222 119.248C128.892 119.099 128.54 119.024 128.166 119.024C127.793 119.024 127.441 119.099 127.11 119.248C126.78 119.387 126.492 119.584 126.246 119.84C126.001 120.096 125.809 120.405 125.67 120.768C125.532 121.12 125.462 121.509 125.462 121.936V122.128C125.462 122.576 125.532 122.981 125.67 123.344C125.809 123.696 126.001 124 126.246 124.256C126.492 124.512 126.774 124.709 127.094 124.848C127.425 124.976 127.782 125.04 128.166 125.04ZM134.939 124.848H137.819V115.952H135.035V114.8H139.067V124.848H141.947V126H134.939V124.848ZM145.216 124.848H148.096V115.952H145.312V114.8H149.344V124.848H152.224V126H145.216V124.848ZM156.405 122.416C156.437 123.205 156.682 123.84 157.141 124.32C157.599 124.8 158.239 125.04 159.061 125.04C159.434 125.04 159.759 124.997 160.037 124.912C160.314 124.827 160.549 124.709 160.741 124.56C160.943 124.411 161.103 124.24 161.221 124.048C161.349 123.845 161.45 123.632 161.525 123.408L162.709 123.728C162.485 124.464 162.069 125.067 161.461 125.536C160.863 125.995 160.053 126.224 159.029 126.224C158.463 126.224 157.941 126.128 157.461 125.936C156.991 125.733 156.586 125.451 156.245 125.088C155.903 124.725 155.637 124.293 155.445 123.792C155.253 123.291 155.157 122.736 155.157 122.128V121.744C155.157 121.189 155.253 120.672 155.445 120.192C155.647 119.712 155.925 119.301 156.277 118.96C156.629 118.608 157.039 118.336 157.509 118.144C157.989 117.941 158.506 117.84 159.061 117.84C159.711 117.84 160.271 117.963 160.741 118.208C161.221 118.443 161.61 118.736 161.909 119.088C162.218 119.44 162.442 119.824 162.581 120.24C162.73 120.656 162.805 121.04 162.805 121.392V122.416H156.405ZM159.061 119.024C158.709 119.024 158.378 119.083 158.069 119.2C157.77 119.307 157.503 119.461 157.269 119.664C157.045 119.867 156.858 120.107 156.709 120.384C156.57 120.651 156.479 120.944 156.437 121.264H161.557C161.535 120.923 161.45 120.613 161.301 120.336C161.162 120.059 160.975 119.824 160.741 119.632C160.517 119.44 160.255 119.291 159.957 119.184C159.669 119.077 159.37 119.024 159.061 119.024ZM171.802 124.784H171.61C171.354 125.264 171.002 125.627 170.554 125.872C170.116 126.107 169.636 126.224 169.114 126.224C168.58 126.224 168.079 126.133 167.61 125.952C167.14 125.771 166.724 125.509 166.362 125.168C166.01 124.827 165.727 124.405 165.514 123.904C165.311 123.392 165.21 122.811 165.21 122.16V121.904C165.21 121.264 165.316 120.693 165.53 120.192C165.743 119.68 166.026 119.253 166.378 118.912C166.73 118.56 167.14 118.293 167.61 118.112C168.079 117.931 168.57 117.84 169.082 117.84C169.658 117.84 170.159 117.968 170.586 118.224C171.023 118.469 171.364 118.832 171.61 119.312H171.802V118.064H173.05V127.952C173.05 128.315 172.932 128.613 172.698 128.848C172.474 129.083 172.18 129.2 171.818 129.2H166.65V128.048H171.37C171.658 128.048 171.802 127.888 171.802 127.568V124.784ZM169.146 125.04C169.519 125.04 169.866 124.971 170.186 124.832C170.506 124.693 170.783 124.496 171.018 124.24C171.263 123.984 171.455 123.68 171.594 123.328C171.732 122.965 171.802 122.565 171.802 122.128V121.936C171.802 121.509 171.732 121.12 171.594 120.768C171.455 120.405 171.263 120.096 171.018 119.84C170.783 119.584 170.5 119.387 170.17 119.248C169.85 119.099 169.508 119.024 169.146 119.024C168.772 119.024 168.42 119.093 168.09 119.232C167.77 119.371 167.487 119.568 167.242 119.824C167.007 120.08 166.82 120.384 166.682 120.736C166.554 121.088 166.49 121.477 166.49 121.904V122.16C166.49 122.608 166.554 123.008 166.682 123.36C166.82 123.712 167.007 124.016 167.242 124.272C167.487 124.517 167.77 124.709 168.09 124.848C168.41 124.976 168.762 125.04 169.146 125.04ZM176.959 122.416C176.991 123.205 177.236 123.84 177.695 124.32C178.153 124.8 178.793 125.04 179.615 125.04C179.988 125.04 180.313 124.997 180.591 124.912C180.868 124.827 181.103 124.709 181.295 124.56C181.497 124.411 181.657 124.24 181.775 124.048C181.903 123.845 182.004 123.632 182.079 123.408L183.263 123.728C183.039 124.464 182.623 125.067 182.015 125.536C181.417 125.995 180.607 126.224 179.583 126.224C179.017 126.224 178.495 126.128 178.015 125.936C177.545 125.733 177.14 125.451 176.799 125.088C176.457 124.725 176.191 124.293 175.999 123.792C175.807 123.291 175.711 122.736 175.711 122.128V121.744C175.711 121.189 175.807 120.672 175.999 120.192C176.201 119.712 176.479 119.301 176.831 118.96C177.183 118.608 177.593 118.336 178.063 118.144C178.543 117.941 179.06 117.84 179.615 117.84C180.265 117.84 180.825 117.963 181.295 118.208C181.775 118.443 182.164 118.736 182.463 119.088C182.772 119.44 182.996 119.824 183.135 120.24C183.284 120.656 183.359 121.04 183.359 121.392V122.416H176.959ZM179.615 119.024C179.263 119.024 178.932 119.083 178.623 119.2C178.324 119.307 178.057 119.461 177.823 119.664C177.599 119.867 177.412 120.107 177.263 120.384C177.124 120.651 177.033 120.944 176.991 121.264H182.111C182.089 120.923 182.004 120.613 181.855 120.336C181.716 120.059 181.529 119.824 181.295 119.632C181.071 119.44 180.809 119.291 180.511 119.184C180.223 119.077 179.924 119.024 179.615 119.024ZM197.994 129.2H196.746V118.064H197.994V119.312H198.186C198.464 118.832 198.848 118.469 199.338 118.224C199.829 117.968 200.362 117.84 200.938 117.84C201.429 117.84 201.893 117.931 202.33 118.112C202.768 118.293 203.152 118.555 203.482 118.896C203.824 119.237 204.09 119.659 204.282 120.16C204.485 120.661 204.586 121.232 204.586 121.872V122.192C204.586 122.843 204.49 123.419 204.298 123.92C204.106 124.421 203.84 124.843 203.498 125.184C203.168 125.525 202.778 125.787 202.33 125.968C201.882 126.139 201.408 126.224 200.906 126.224C200.65 126.224 200.389 126.192 200.122 126.128C199.856 126.075 199.6 125.989 199.354 125.872C199.12 125.744 198.901 125.595 198.698 125.424C198.496 125.243 198.325 125.029 198.186 124.784H197.994V129.2ZM200.65 125.04C201.034 125.04 201.386 124.976 201.706 124.848C202.026 124.709 202.304 124.517 202.538 124.272C202.784 124.027 202.97 123.728 203.098 123.376C203.237 123.024 203.306 122.629 203.306 122.192V121.872C203.306 121.445 203.237 121.061 203.098 120.72C202.97 120.368 202.784 120.069 202.538 119.824C202.304 119.568 202.021 119.371 201.69 119.232C201.37 119.093 201.024 119.024 200.65 119.024C200.277 119.024 199.93 119.099 199.61 119.248C199.29 119.387 199.008 119.584 198.762 119.84C198.528 120.096 198.341 120.405 198.202 120.768C198.064 121.12 197.994 121.509 197.994 121.936V122.128C197.994 122.565 198.064 122.965 198.202 123.328C198.341 123.68 198.528 123.984 198.762 124.24C199.008 124.496 199.29 124.693 199.61 124.832C199.93 124.971 200.277 125.04 200.65 125.04ZM206.863 118.064H209.743V119.12H209.935C210.138 118.683 210.426 118.363 210.799 118.16C211.173 117.947 211.599 117.84 212.079 117.84C212.879 117.84 213.525 118.101 214.015 118.624C214.506 119.147 214.767 119.909 214.799 120.912L213.487 121.104C213.487 120.368 213.311 119.84 212.959 119.52C212.607 119.189 212.175 119.024 211.663 119.024C211.333 119.024 211.045 119.088 210.799 119.216C210.565 119.344 210.367 119.52 210.207 119.744C210.047 119.968 209.93 120.229 209.855 120.528C209.781 120.827 209.743 121.147 209.743 121.488V124.848H211.759V126H206.671V124.848H208.495V119.216H206.863V118.064ZM225.076 122.128C225.076 122.789 224.964 123.376 224.74 123.888C224.527 124.389 224.239 124.816 223.876 125.168C223.513 125.509 223.087 125.771 222.596 125.952C222.116 126.133 221.615 126.224 221.092 126.224C220.559 126.224 220.052 126.133 219.572 125.952C219.092 125.771 218.671 125.509 218.308 125.168C217.945 124.816 217.652 124.389 217.428 123.888C217.215 123.376 217.108 122.789 217.108 122.128V121.936C217.108 121.285 217.215 120.709 217.428 120.208C217.652 119.696 217.945 119.264 218.308 118.912C218.681 118.56 219.108 118.293 219.588 118.112C220.068 117.931 220.569 117.84 221.092 117.84C221.615 117.84 222.116 117.931 222.596 118.112C223.076 118.293 223.497 118.56 223.86 118.912C224.233 119.264 224.527 119.696 224.74 120.208C224.964 120.709 225.076 121.285 225.076 121.936V122.128ZM221.092 125.04C221.476 125.04 221.828 124.976 222.148 124.848C222.479 124.709 222.767 124.512 223.012 124.256C223.257 124 223.449 123.696 223.588 123.344C223.727 122.981 223.796 122.576 223.796 122.128V121.936C223.796 121.509 223.727 121.12 223.588 120.768C223.449 120.405 223.257 120.096 223.012 119.84C222.767 119.584 222.479 119.387 222.148 119.248C221.817 119.099 221.465 119.024 221.092 119.024C220.719 119.024 220.367 119.099 220.036 119.248C219.705 119.387 219.417 119.584 219.172 119.84C218.927 120.096 218.735 120.405 218.596 120.768C218.457 121.12 218.388 121.509 218.388 121.936V122.128C218.388 122.576 218.457 122.981 218.596 123.344C218.735 123.696 218.927 124 219.172 124.256C219.417 124.512 219.7 124.709 220.02 124.848C220.351 124.976 220.708 125.04 221.092 125.04ZM228.825 129.2H227.577V118.064H228.825V119.312H229.017C229.294 118.832 229.678 118.469 230.169 118.224C230.66 117.968 231.193 117.84 231.769 117.84C232.26 117.84 232.724 117.931 233.161 118.112C233.598 118.293 233.982 118.555 234.313 118.896C234.654 119.237 234.921 119.659 235.113 120.16C235.316 120.661 235.417 121.232 235.417 121.872V122.192C235.417 122.843 235.321 123.419 235.129 123.92C234.937 124.421 234.67 124.843 234.329 125.184C233.998 125.525 233.609 125.787 233.161 125.968C232.713 126.139 232.238 126.224 231.737 126.224C231.481 126.224 231.22 126.192 230.953 126.128C230.686 126.075 230.43 125.989 230.185 125.872C229.95 125.744 229.732 125.595 229.529 125.424C229.326 125.243 229.156 125.029 229.017 124.784H228.825V129.2ZM231.481 125.04C231.865 125.04 232.217 124.976 232.537 124.848C232.857 124.709 233.134 124.517 233.369 124.272C233.614 124.027 233.801 123.728 233.929 123.376C234.068 123.024 234.137 122.629 234.137 122.192V121.872C234.137 121.445 234.068 121.061 233.929 120.72C233.801 120.368 233.614 120.069 233.369 119.824C233.134 119.568 232.852 119.371 232.521 119.232C232.201 119.093 231.854 119.024 231.481 119.024C231.108 119.024 230.761 119.099 230.441 119.248C230.121 119.387 229.838 119.584 229.593 119.84C229.358 120.096 229.172 120.405 229.033 120.768C228.894 121.12 228.825 121.509 228.825 121.936V122.128C228.825 122.565 228.894 122.965 229.033 123.328C229.172 123.68 229.358 123.984 229.593 124.24C229.838 124.496 230.121 124.693 230.441 124.832C230.761 124.971 231.108 125.04 231.481 125.04ZM239.054 122.416C239.086 123.205 239.331 123.84 239.79 124.32C240.249 124.8 240.889 125.04 241.71 125.04C242.083 125.04 242.409 124.997 242.686 124.912C242.963 124.827 243.198 124.709 243.39 124.56C243.593 124.411 243.753 124.24 243.87 124.048C243.998 123.845 244.099 123.632 244.174 123.408L245.358 123.728C245.134 124.464 244.718 125.067 244.11 125.536C243.513 125.995 242.702 126.224 241.678 126.224C241.113 126.224 240.59 126.128 240.11 125.936C239.641 125.733 239.235 125.451 238.894 125.088C238.553 124.725 238.286 124.293 238.094 123.792C237.902 123.291 237.806 122.736 237.806 122.128V121.744C237.806 121.189 237.902 120.672 238.094 120.192C238.297 119.712 238.574 119.301 238.926 118.96C239.278 118.608 239.689 118.336 240.158 118.144C240.638 117.941 241.155 117.84 241.71 117.84C242.361 117.84 242.921 117.963 243.39 118.208C243.87 118.443 244.259 118.736 244.558 119.088C244.867 119.44 245.091 119.824 245.23 120.24C245.379 120.656 245.454 121.04 245.454 121.392V122.416H239.054ZM241.71 119.024C241.358 119.024 241.027 119.083 240.718 119.2C240.419 119.307 240.153 119.461 239.918 119.664C239.694 119.867 239.507 120.107 239.358 120.384C239.219 120.651 239.129 120.944 239.086 121.264H244.206C244.185 120.923 244.099 120.613 243.95 120.336C243.811 120.059 243.625 119.824 243.39 119.632C243.166 119.44 242.905 119.291 242.606 119.184C242.318 119.077 242.019 119.024 241.71 119.024ZM247.971 118.064H250.851V119.12H251.043C251.245 118.683 251.533 118.363 251.907 118.16C252.28 117.947 252.707 117.84 253.187 117.84C253.987 117.84 254.632 118.101 255.123 118.624C255.613 119.147 255.875 119.909 255.907 120.912L254.595 121.104C254.595 120.368 254.419 119.84 254.067 119.52C253.715 119.189 253.283 119.024 252.771 119.024C252.44 119.024 252.152 119.088 251.907 119.216C251.672 119.344 251.475 119.52 251.315 119.744C251.155 119.968 251.037 120.229 250.963 120.528C250.888 120.827 250.851 121.147 250.851 121.488V124.848H252.867V126H247.779V124.848H249.603V119.216H247.971V118.064ZM258.424 118.064H260.92V114.8H262.168V118.064H265.24V119.216H262.168V124.368C262.168 124.688 262.312 124.848 262.6 124.848H264.856V126H262.152C261.789 126 261.49 125.883 261.256 125.648C261.032 125.413 260.92 125.115 260.92 124.752V119.216H258.424V118.064ZM271.437 115.696C271.437 115.387 271.543 115.125 271.757 114.912C271.981 114.688 272.247 114.576 272.557 114.576C272.866 114.576 273.127 114.688 273.341 114.912C273.565 115.125 273.677 115.387 273.677 115.696C273.677 116.005 273.565 116.272 273.341 116.496C273.127 116.709 272.866 116.816 272.557 116.816C272.247 116.816 271.981 116.709 271.757 116.496C271.543 116.272 271.437 116.005 271.437 115.696ZM269.165 124.848H271.949V119.216H269.453V118.064H273.197V124.848H275.789V126H269.165V124.848ZM280.161 122.416C280.193 123.205 280.439 123.84 280.897 124.32C281.356 124.8 281.996 125.04 282.817 125.04C283.191 125.04 283.516 124.997 283.793 124.912C284.071 124.827 284.305 124.709 284.497 124.56C284.7 124.411 284.86 124.24 284.977 124.048C285.105 123.845 285.207 123.632 285.281 123.408L286.465 123.728C286.241 124.464 285.825 125.067 285.217 125.536C284.62 125.995 283.809 126.224 282.785 126.224C282.22 126.224 281.697 126.128 281.217 125.936C280.748 125.733 280.343 125.451 280.001 125.088C279.66 124.725 279.393 124.293 279.201 123.792C279.009 123.291 278.913 122.736 278.913 122.128V121.744C278.913 121.189 279.009 120.672 279.201 120.192C279.404 119.712 279.681 119.301 280.033 118.96C280.385 118.608 280.796 118.336 281.265 118.144C281.745 117.941 282.263 117.84 282.817 117.84C283.468 117.84 284.028 117.963 284.497 118.208C284.977 118.443 285.367 118.736 285.665 119.088C285.975 119.44 286.199 119.824 286.337 120.24C286.487 120.656 286.561 121.04 286.561 121.392V122.416H280.161ZM282.817 119.024C282.465 119.024 282.135 119.083 281.825 119.2C281.527 119.307 281.26 119.461 281.025 119.664C280.801 119.867 280.615 120.107 280.465 120.384C280.327 120.651 280.236 120.944 280.193 121.264H285.313C285.292 120.923 285.207 120.613 285.057 120.336C284.919 120.059 284.732 119.824 284.497 119.632C284.273 119.44 284.012 119.291 283.713 119.184C283.425 119.077 283.127 119.024 282.817 119.024ZM291.174 120.112C291.174 120.496 291.334 120.789 291.654 120.992C291.985 121.195 292.582 121.328 293.446 121.392C294.374 121.467 295.078 121.691 295.558 122.064C296.049 122.427 296.294 122.96 296.294 123.664V123.76C296.294 124.144 296.214 124.491 296.054 124.8C295.905 125.099 295.692 125.355 295.414 125.568C295.148 125.781 294.817 125.941 294.422 126.048C294.038 126.165 293.617 126.224 293.158 126.224C292.54 126.224 292.006 126.144 291.558 125.984C291.121 125.813 290.753 125.595 290.454 125.328C290.166 125.051 289.948 124.741 289.798 124.4C289.649 124.048 289.564 123.696 289.542 123.344L290.726 123.056C290.78 123.664 291.014 124.155 291.43 124.528C291.846 124.891 292.401 125.072 293.094 125.072C293.681 125.072 294.15 124.96 294.502 124.736C294.865 124.501 295.046 124.176 295.046 123.76C295.046 123.312 294.87 122.992 294.518 122.8C294.166 122.608 293.596 122.485 292.806 122.432C291.889 122.368 291.185 122.155 290.694 121.792C290.204 121.429 289.958 120.901 289.958 120.208V120.112C289.958 119.739 290.038 119.413 290.198 119.136C290.358 118.848 290.572 118.608 290.838 118.416C291.116 118.224 291.425 118.08 291.766 117.984C292.108 117.888 292.465 117.84 292.838 117.84C293.361 117.84 293.82 117.915 294.214 118.064C294.609 118.203 294.94 118.389 295.206 118.624C295.473 118.848 295.676 119.109 295.814 119.408C295.964 119.707 296.06 120.005 296.102 120.304L294.918 120.592C294.865 120.08 294.657 119.68 294.294 119.392C293.942 119.104 293.478 118.96 292.902 118.96C292.678 118.96 292.46 118.987 292.246 119.04C292.044 119.083 291.862 119.152 291.702 119.248C291.542 119.344 291.414 119.467 291.318 119.616C291.222 119.755 291.174 119.92 291.174 120.112ZM316.274 124.656H316.082C315.826 125.189 315.469 125.584 315.01 125.84C314.562 126.096 314.087 126.224 313.586 126.224C313.063 126.224 312.578 126.139 312.13 125.968C311.682 125.787 311.287 125.525 310.946 125.184C310.615 124.832 310.354 124.405 310.162 123.904C309.97 123.403 309.874 122.821 309.874 122.16V121.904C309.874 121.253 309.97 120.677 310.162 120.176C310.354 119.675 310.615 119.253 310.946 118.912C311.287 118.56 311.682 118.293 312.13 118.112C312.578 117.931 313.053 117.84 313.554 117.84C314.098 117.84 314.589 117.963 315.026 118.208C315.474 118.443 315.826 118.811 316.082 119.312H316.274V118.064H317.522V124.368C317.522 124.688 317.666 124.848 317.954 124.848H318.354V126H317.506C317.143 126 316.845 125.883 316.61 125.648C316.386 125.413 316.274 125.115 316.274 124.752V124.656ZM313.714 125.04C314.087 125.04 314.429 124.971 314.738 124.832C315.058 124.693 315.33 124.496 315.554 124.24C315.778 123.984 315.954 123.68 316.082 123.328C316.21 122.965 316.274 122.565 316.274 122.128V121.936C316.274 121.509 316.21 121.12 316.082 120.768C315.954 120.405 315.773 120.096 315.538 119.84C315.314 119.584 315.042 119.387 314.722 119.248C314.413 119.099 314.077 119.024 313.714 119.024C313.341 119.024 312.999 119.093 312.69 119.232C312.381 119.371 312.109 119.568 311.874 119.824C311.65 120.069 311.474 120.373 311.346 120.736C311.218 121.088 311.154 121.477 311.154 121.904V122.16C311.154 123.067 311.389 123.776 311.858 124.288C312.338 124.789 312.957 125.04 313.714 125.04ZM322.039 126H320.791V118.064H322.039V119.408H322.231C322.722 118.363 323.575 117.84 324.791 117.84C325.708 117.84 326.439 118.128 326.983 118.704C327.527 119.269 327.799 120.123 327.799 121.264V126H326.551V121.52C326.551 120.688 326.364 120.064 325.991 119.648C325.618 119.232 325.111 119.024 324.471 119.024C323.714 119.024 323.116 119.285 322.679 119.808C322.252 120.32 322.039 121.008 322.039 121.872V126ZM337.212 124.784H337.02C336.892 125.029 336.727 125.243 336.524 125.424C336.332 125.605 336.119 125.755 335.884 125.872C335.66 125.989 335.42 126.075 335.164 126.128C334.908 126.192 334.663 126.224 334.428 126.224C333.895 126.224 333.399 126.133 332.94 125.952C332.481 125.771 332.076 125.509 331.724 125.168C331.383 124.827 331.111 124.405 330.908 123.904C330.716 123.392 330.62 122.811 330.62 122.16V121.904C330.62 121.264 330.721 120.693 330.924 120.192C331.127 119.68 331.399 119.253 331.74 118.912C332.081 118.56 332.481 118.293 332.94 118.112C333.399 117.931 333.884 117.84 334.396 117.84C334.94 117.84 335.447 117.963 335.916 118.208C336.396 118.443 336.764 118.811 337.02 119.312H337.212V114.8H338.46V126H337.212V124.784ZM334.556 125.04C334.929 125.04 335.276 124.971 335.596 124.832C335.916 124.693 336.193 124.496 336.428 124.24C336.673 123.984 336.865 123.68 337.004 123.328C337.143 122.965 337.212 122.565 337.212 122.128V121.936C337.212 121.509 337.143 121.12 337.004 120.768C336.865 120.405 336.673 120.096 336.428 119.84C336.193 119.584 335.911 119.387 335.58 119.248C335.26 119.099 334.919 119.024 334.556 119.024C334.183 119.024 333.831 119.093 333.5 119.232C333.18 119.371 332.897 119.568 332.652 119.824C332.417 120.08 332.231 120.384 332.092 120.736C331.964 121.088 331.9 121.477 331.9 121.904V122.16C331.9 122.608 331.964 123.008 332.092 123.36C332.231 123.712 332.417 124.016 332.652 124.272C332.897 124.517 333.18 124.709 333.5 124.848C333.82 124.976 334.172 125.04 334.556 125.04ZM353.304 126H352.056V118.064H353.304V119.408H353.496C353.986 118.363 354.84 117.84 356.056 117.84C356.973 117.84 357.704 118.128 358.248 118.704C358.792 119.269 359.064 120.123 359.064 121.264V126H357.816V121.52C357.816 120.688 357.629 120.064 357.256 119.648C356.882 119.232 356.376 119.024 355.736 119.024C354.978 119.024 354.381 119.285 353.944 119.808C353.517 120.32 353.304 121.008 353.304 121.872V126ZM369.821 122.128C369.821 122.789 369.709 123.376 369.485 123.888C369.271 124.389 368.983 124.816 368.621 125.168C368.258 125.509 367.831 125.771 367.341 125.952C366.861 126.133 366.359 126.224 365.837 126.224C365.303 126.224 364.797 126.133 364.317 125.952C363.837 125.771 363.415 125.509 363.053 125.168C362.69 124.816 362.397 124.389 362.173 123.888C361.959 123.376 361.853 122.789 361.853 122.128V121.936C361.853 121.285 361.959 120.709 362.173 120.208C362.397 119.696 362.69 119.264 363.053 118.912C363.426 118.56 363.853 118.293 364.333 118.112C364.813 117.931 365.314 117.84 365.837 117.84C366.359 117.84 366.861 117.931 367.341 118.112C367.821 118.293 368.242 118.56 368.605 118.912C368.978 119.264 369.271 119.696 369.485 120.208C369.709 120.709 369.821 121.285 369.821 121.936V122.128ZM365.837 125.04C366.221 125.04 366.573 124.976 366.893 124.848C367.223 124.709 367.511 124.512 367.757 124.256C368.002 124 368.194 123.696 368.333 123.344C368.471 122.981 368.541 122.576 368.541 122.128V121.936C368.541 121.509 368.471 121.12 368.333 120.768C368.194 120.405 368.002 120.096 367.757 119.84C367.511 119.584 367.223 119.387 366.893 119.248C366.562 119.099 366.21 119.024 365.837 119.024C365.463 119.024 365.111 119.099 364.781 119.248C364.45 119.387 364.162 119.584 363.917 119.84C363.671 120.096 363.479 120.405 363.341 120.768C363.202 121.12 363.133 121.509 363.133 121.936V122.128C363.133 122.576 363.202 122.981 363.341 123.344C363.479 123.696 363.671 124 363.917 124.256C364.162 124.512 364.445 124.709 364.765 124.848C365.095 124.976 365.453 125.04 365.837 125.04ZM372.337 118.064H374.833V114.8H376.081V118.064H379.153V119.216H376.081V124.368C376.081 124.688 376.225 124.848 376.513 124.848H378.769V126H376.065C375.703 126 375.404 125.883 375.169 125.648C374.945 125.413 374.833 125.115 374.833 124.752V119.216H372.337V118.064ZM393.325 118.064H395.821V114.8H397.069V118.064H400.141V119.216H397.069V124.368C397.069 124.688 397.213 124.848 397.501 124.848H399.757V126H397.053C396.691 126 396.392 125.883 396.157 125.648C395.933 125.413 395.821 125.115 395.821 124.752V119.216H393.325V118.064ZM411.362 122.128C411.362 122.789 411.25 123.376 411.026 123.888C410.813 124.389 410.525 124.816 410.162 125.168C409.799 125.509 409.373 125.771 408.882 125.952C408.402 126.133 407.901 126.224 407.378 126.224C406.845 126.224 406.338 126.133 405.858 125.952C405.378 125.771 404.957 125.509 404.594 125.168C404.231 124.816 403.938 124.389 403.714 123.888C403.501 123.376 403.394 122.789 403.394 122.128V121.936C403.394 121.285 403.501 120.709 403.714 120.208C403.938 119.696 404.231 119.264 404.594 118.912C404.967 118.56 405.394 118.293 405.874 118.112C406.354 117.931 406.855 117.84 407.378 117.84C407.901 117.84 408.402 117.931 408.882 118.112C409.362 118.293 409.783 118.56 410.146 118.912C410.519 119.264 410.813 119.696 411.026 120.208C411.25 120.709 411.362 121.285 411.362 121.936V122.128ZM407.378 125.04C407.762 125.04 408.114 124.976 408.434 124.848C408.765 124.709 409.053 124.512 409.298 124.256C409.543 124 409.735 123.696 409.874 123.344C410.013 122.981 410.082 122.576 410.082 122.128V121.936C410.082 121.509 410.013 121.12 409.874 120.768C409.735 120.405 409.543 120.096 409.298 119.84C409.053 119.584 408.765 119.387 408.434 119.248C408.103 119.099 407.751 119.024 407.378 119.024C407.005 119.024 406.653 119.099 406.322 119.248C405.991 119.387 405.703 119.584 405.458 119.84C405.213 120.096 405.021 120.405 404.882 120.768C404.743 121.12 404.674 121.509 404.674 121.936V122.128C404.674 122.576 404.743 122.981 404.882 123.344C405.021 123.696 405.213 124 405.458 124.256C405.703 124.512 405.986 124.709 406.306 124.848C406.637 124.976 406.994 125.04 407.378 125.04ZM48.1571 153.784H47.9651C47.8371 154.029 47.6718 154.243 47.4691 154.424C47.2771 154.605 47.0638 154.755 46.8291 154.872C46.6051 154.989 46.3651 155.075 46.1091 155.128C45.8531 155.192 45.6078 155.224 45.3731 155.224C44.8398 155.224 44.3438 155.133 43.8851 154.952C43.4264 154.771 43.0211 154.509 42.6691 154.168C42.3278 153.827 42.0558 153.405 41.8531 152.904C41.6611 152.392 41.5651 151.811 41.5651 151.16V150.904C41.5651 150.264 41.6664 149.693 41.8691 149.192C42.0718 148.68 42.3438 148.253 42.6851 147.912C43.0264 147.56 43.4264 147.293 43.8851 147.112C44.3438 146.931 44.8291 146.84 45.3411 146.84C45.8851 146.84 46.3918 146.963 46.8611 147.208C47.3411 147.443 47.7091 147.811 47.9651 148.312H48.1571V143.8H49.4051V155H48.1571V153.784ZM45.5011 154.04C45.8744 154.04 46.2211 153.971 46.5411 153.832C46.8611 153.693 47.1384 153.496 47.3731 153.24C47.6184 152.984 47.8104 152.68 47.9491 152.328C48.0878 151.965 48.1571 151.565 48.1571 151.128V150.936C48.1571 150.509 48.0878 150.12 47.9491 149.768C47.8104 149.405 47.6184 149.096 47.3731 148.84C47.1384 148.584 46.8558 148.387 46.5251 148.248C46.2051 148.099 45.8638 148.024 45.5011 148.024C45.1278 148.024 44.7758 148.093 44.4451 148.232C44.1251 148.371 43.8424 148.568 43.5971 148.824C43.3624 149.08 43.1758 149.384 43.0371 149.736C42.9091 150.088 42.8451 150.477 42.8451 150.904V151.16C42.8451 151.608 42.9091 152.008 43.0371 152.36C43.1758 152.712 43.3624 153.016 43.5971 153.272C43.8424 153.517 44.1251 153.709 44.4451 153.848C44.7651 153.976 45.1171 154.04 45.5011 154.04ZM54.754 144.696C54.754 144.387 54.8606 144.125 55.074 143.912C55.298 143.688 55.5646 143.576 55.874 143.576C56.1833 143.576 56.4446 143.688 56.658 143.912C56.882 144.125 56.994 144.387 56.994 144.696C56.994 145.005 56.882 145.272 56.658 145.496C56.4446 145.709 56.1833 145.816 55.874 145.816C55.5646 145.816 55.298 145.709 55.074 145.496C54.8606 145.272 54.754 145.005 54.754 144.696ZM52.482 153.848H55.266V148.216H52.77V147.064H56.514V153.848H59.106V155H52.482V153.848ZM64.2148 149.112C64.2148 149.496 64.3748 149.789 64.6948 149.992C65.0255 150.195 65.6228 150.328 66.4868 150.392C67.4148 150.467 68.1188 150.691 68.5988 151.064C69.0895 151.427 69.3348 151.96 69.3348 152.664V152.76C69.3348 153.144 69.2548 153.491 69.0948 153.8C68.9455 154.099 68.7322 154.355 68.4548 154.568C68.1882 154.781 67.8575 154.941 67.4628 155.048C67.0788 155.165 66.6575 155.224 66.1988 155.224C65.5802 155.224 65.0468 155.144 64.5988 154.984C64.1615 154.813 63.7935 154.595 63.4948 154.328C63.2068 154.051 62.9882 153.741 62.8388 153.4C62.6895 153.048 62.6042 152.696 62.5828 152.344L63.7668 152.056C63.8202 152.664 64.0548 153.155 64.4708 153.528C64.8868 153.891 65.4415 154.072 66.1348 154.072C66.7215 154.072 67.1908 153.96 67.5428 153.736C67.9055 153.501 68.0868 153.176 68.0868 152.76C68.0868 152.312 67.9108 151.992 67.5588 151.8C67.2068 151.608 66.6362 151.485 65.8468 151.432C64.9295 151.368 64.2255 151.155 63.7348 150.792C63.2442 150.429 62.9988 149.901 62.9988 149.208V149.112C62.9988 148.739 63.0788 148.413 63.2388 148.136C63.3988 147.848 63.6122 147.608 63.8788 147.416C64.1562 147.224 64.4655 147.08 64.8068 146.984C65.1482 146.888 65.5055 146.84 65.8788 146.84C66.4015 146.84 66.8602 146.915 67.2548 147.064C67.6495 147.203 67.9802 147.389 68.2468 147.624C68.5135 147.848 68.7162 148.109 68.8548 148.408C69.0042 148.707 69.1002 149.005 69.1428 149.304L67.9588 149.592C67.9055 149.08 67.6975 148.68 67.3348 148.392C66.9828 148.104 66.5188 147.96 65.9428 147.96C65.7188 147.96 65.5002 147.987 65.2868 148.04C65.0842 148.083 64.9028 148.152 64.7428 148.248C64.5828 148.344 64.4548 148.467 64.3588 148.616C64.2628 148.755 64.2148 148.92 64.2148 149.112ZM72.5717 147.064H75.0677V143.8H76.3157V147.064H79.3877V148.216H76.3157V153.368C76.3157 153.688 76.4597 153.848 76.7477 153.848H79.0037V155H76.2997C75.9371 155 75.6384 154.883 75.4037 154.648C75.1797 154.413 75.0677 154.115 75.0677 153.752V148.216H72.5717V147.064ZM88.7846 147.064H90.0326V155H88.7846V153.56H88.5926C88.3366 154.072 88.0006 154.477 87.5846 154.776C87.1686 155.075 86.6406 155.224 86.0006 155.224C85.5633 155.224 85.1579 155.149 84.7846 155C84.4219 154.861 84.1073 154.648 83.8406 154.36C83.5846 154.072 83.3819 153.715 83.2326 153.288C83.0939 152.861 83.0246 152.365 83.0246 151.8V147.064H84.2726V151.64C84.2726 152.472 84.4433 153.08 84.7846 153.464C85.1259 153.848 85.6486 154.04 86.3526 154.04C87.1099 154.04 87.7019 153.784 88.1286 153.272C88.5659 152.749 88.7846 152.056 88.7846 151.192V147.064ZM92.9495 147.064H95.8295V148.12H96.0215C96.2241 147.683 96.5121 147.363 96.8855 147.16C97.2588 146.947 97.6855 146.84 98.1655 146.84C98.9655 146.84 99.6108 147.101 100.101 147.624C100.592 148.147 100.853 148.909 100.885 149.912L99.5735 150.104C99.5735 149.368 99.3975 148.84 99.0455 148.52C98.6935 148.189 98.2615 148.024 97.7495 148.024C97.4188 148.024 97.1308 148.088 96.8855 148.216C96.6508 148.344 96.4535 148.52 96.2935 148.744C96.1335 148.968 96.0161 149.229 95.9415 149.528C95.8668 149.827 95.8295 150.147 95.8295 150.488V153.848H97.8455V155H92.7575V153.848H94.5815V148.216H92.9495V147.064ZM104.634 155H103.386V143.8H104.634V148.312H104.826C105.104 147.832 105.488 147.469 105.978 147.224C106.469 146.968 107.002 146.84 107.578 146.84C108.069 146.84 108.533 146.931 108.97 147.112C109.408 147.293 109.792 147.555 110.122 147.896C110.464 148.237 110.73 148.659 110.922 149.16C111.125 149.661 111.226 150.232 111.226 150.872V151.192C111.226 151.843 111.13 152.419 110.938 152.92C110.746 153.421 110.48 153.843 110.138 154.184C109.808 154.525 109.418 154.787 108.97 154.968C108.522 155.139 108.048 155.224 107.546 155.224C107.29 155.224 107.029 155.192 106.762 155.128C106.496 155.075 106.24 154.989 105.994 154.872C105.76 154.744 105.541 154.595 105.338 154.424C105.136 154.243 104.965 154.029 104.826 153.784H104.634V155ZM107.29 154.04C107.674 154.04 108.026 153.976 108.346 153.848C108.666 153.709 108.944 153.517 109.178 153.272C109.424 153.027 109.61 152.728 109.738 152.376C109.877 152.024 109.946 151.629 109.946 151.192V150.872C109.946 150.445 109.877 150.061 109.738 149.72C109.61 149.368 109.424 149.069 109.178 148.824C108.944 148.568 108.661 148.371 108.33 148.232C108.01 148.093 107.664 148.024 107.29 148.024C106.917 148.024 106.57 148.099 106.25 148.248C105.93 148.387 105.648 148.584 105.402 148.84C105.168 149.096 104.981 149.405 104.842 149.768C104.704 150.12 104.634 150.509 104.634 150.936V151.128C104.634 151.565 104.704 151.965 104.842 152.328C104.981 152.68 105.168 152.984 105.402 153.24C105.648 153.496 105.93 153.693 106.25 153.832C106.57 153.971 106.917 154.04 107.29 154.04ZM123.956 147.064H126.452V143.8H127.7V147.064H130.772V148.216H127.7V153.368C127.7 153.688 127.844 153.848 128.132 153.848H130.388V155H127.684C127.321 155 127.023 154.883 126.788 154.648C126.564 154.413 126.452 154.115 126.452 153.752V148.216H123.956V147.064ZM135.753 155H134.505V143.8H135.753V148.504H135.945C136.19 147.992 136.532 147.587 136.969 147.288C137.417 146.989 137.961 146.84 138.601 146.84C139.465 146.84 140.164 147.128 140.697 147.704C141.241 148.269 141.513 149.123 141.513 150.264V155H140.265V150.52C140.265 149.688 140.078 149.064 139.705 148.648C139.332 148.232 138.825 148.024 138.185 148.024C137.428 148.024 136.83 148.285 136.393 148.808C135.966 149.32 135.753 150.008 135.753 150.872V155ZM145.694 151.416C145.726 152.205 145.971 152.84 146.43 153.32C146.889 153.8 147.529 154.04 148.35 154.04C148.723 154.04 149.049 153.997 149.326 153.912C149.603 153.827 149.838 153.709 150.03 153.56C150.233 153.411 150.393 153.24 150.51 153.048C150.638 152.845 150.739 152.632 150.814 152.408L151.998 152.728C151.774 153.464 151.358 154.067 150.75 154.536C150.153 154.995 149.342 155.224 148.318 155.224C147.753 155.224 147.23 155.128 146.75 154.936C146.281 154.733 145.875 154.451 145.534 154.088C145.193 153.725 144.926 153.293 144.734 152.792C144.542 152.291 144.446 151.736 144.446 151.128V150.744C144.446 150.189 144.542 149.672 144.734 149.192C144.937 148.712 145.214 148.301 145.566 147.96C145.918 147.608 146.329 147.336 146.798 147.144C147.278 146.941 147.795 146.84 148.35 146.84C149.001 146.84 149.561 146.963 150.03 147.208C150.51 147.443 150.899 147.736 151.198 148.088C151.507 148.44 151.731 148.824 151.87 149.24C152.019 149.656 152.094 150.04 152.094 150.392V151.416H145.694ZM148.35 148.024C147.998 148.024 147.667 148.083 147.358 148.2C147.059 148.307 146.793 148.461 146.558 148.664C146.334 148.867 146.147 149.107 145.998 149.384C145.859 149.651 145.769 149.944 145.726 150.264H150.846C150.825 149.923 150.739 149.613 150.59 149.336C150.451 149.059 150.265 148.824 150.03 148.632C149.806 148.44 149.545 148.291 149.246 148.184C148.958 148.077 148.659 148.024 148.35 148.024ZM172.824 151.128C172.824 151.789 172.712 152.376 172.488 152.888C172.274 153.389 171.986 153.816 171.624 154.168C171.261 154.509 170.834 154.771 170.344 154.952C169.864 155.133 169.362 155.224 168.84 155.224C168.306 155.224 167.8 155.133 167.32 154.952C166.84 154.771 166.418 154.509 166.056 154.168C165.693 153.816 165.4 153.389 165.176 152.888C164.962 152.376 164.856 151.789 164.856 151.128V150.936C164.856 150.285 164.962 149.709 165.176 149.208C165.4 148.696 165.693 148.264 166.056 147.912C166.429 147.56 166.856 147.293 167.336 147.112C167.816 146.931 168.317 146.84 168.84 146.84C169.362 146.84 169.864 146.931 170.344 147.112C170.824 147.293 171.245 147.56 171.608 147.912C171.981 148.264 172.274 148.696 172.488 149.208C172.712 149.709 172.824 150.285 172.824 150.936V151.128ZM168.84 154.04C169.224 154.04 169.576 153.976 169.896 153.848C170.226 153.709 170.514 153.512 170.76 153.256C171.005 153 171.197 152.696 171.336 152.344C171.474 151.981 171.544 151.576 171.544 151.128V150.936C171.544 150.509 171.474 150.12 171.336 149.768C171.197 149.405 171.005 149.096 170.76 148.84C170.514 148.584 170.226 148.387 169.896 148.248C169.565 148.099 169.213 148.024 168.84 148.024C168.466 148.024 168.114 148.099 167.784 148.248C167.453 148.387 167.165 148.584 166.92 148.84C166.674 149.096 166.482 149.405 166.344 149.768C166.205 150.12 166.136 150.509 166.136 150.936V151.128C166.136 151.576 166.205 151.981 166.344 152.344C166.482 152.696 166.674 153 166.92 153.256C167.165 153.512 167.448 153.709 167.768 153.848C168.098 153.976 168.456 154.04 168.84 154.04ZM176.86 155H175.612V147.064H176.86V148.408H177.052C177.543 147.363 178.396 146.84 179.612 146.84C180.53 146.84 181.26 147.128 181.804 147.704C182.348 148.269 182.62 149.123 182.62 150.264V155H181.372V150.52C181.372 149.688 181.186 149.064 180.812 148.648C180.439 148.232 179.932 148.024 179.292 148.024C178.535 148.024 177.938 148.285 177.5 148.808C177.074 149.32 176.86 150.008 176.86 150.872V155ZM191.921 153.784H191.729C191.473 154.264 191.121 154.627 190.673 154.872C190.236 155.107 189.756 155.224 189.233 155.224C188.7 155.224 188.199 155.133 187.729 154.952C187.26 154.771 186.844 154.509 186.481 154.168C186.129 153.827 185.847 153.405 185.633 152.904C185.431 152.392 185.329 151.811 185.329 151.16V150.904C185.329 150.264 185.436 149.693 185.649 149.192C185.863 148.68 186.145 148.253 186.497 147.912C186.849 147.56 187.26 147.293 187.729 147.112C188.199 146.931 188.689 146.84 189.201 146.84C189.777 146.84 190.279 146.968 190.705 147.224C191.143 147.469 191.484 147.832 191.729 148.312H191.921V147.064H193.169V156.952C193.169 157.315 193.052 157.613 192.817 157.848C192.593 158.083 192.3 158.2 191.937 158.2H186.769V157.048H191.489C191.777 157.048 191.921 156.888 191.921 156.568V153.784ZM189.265 154.04C189.639 154.04 189.985 153.971 190.305 153.832C190.625 153.693 190.903 153.496 191.137 153.24C191.383 152.984 191.575 152.68 191.713 152.328C191.852 151.965 191.921 151.565 191.921 151.128V150.936C191.921 150.509 191.852 150.12 191.713 149.768C191.575 149.405 191.383 149.096 191.137 148.84C190.903 148.584 190.62 148.387 190.289 148.248C189.969 148.099 189.628 148.024 189.265 148.024C188.892 148.024 188.54 148.093 188.209 148.232C187.889 148.371 187.607 148.568 187.361 148.824C187.127 149.08 186.94 149.384 186.801 149.736C186.673 150.088 186.609 150.477 186.609 150.904V151.16C186.609 151.608 186.673 152.008 186.801 152.36C186.94 152.712 187.127 153.016 187.361 153.272C187.607 153.517 187.889 153.709 188.209 153.848C188.529 153.976 188.881 154.04 189.265 154.04ZM203.654 151.128C203.654 151.789 203.542 152.376 203.318 152.888C203.105 153.389 202.817 153.816 202.454 154.168C202.092 154.509 201.665 154.771 201.174 154.952C200.694 155.133 200.193 155.224 199.67 155.224C199.137 155.224 198.63 155.133 198.15 154.952C197.67 154.771 197.249 154.509 196.886 154.168C196.524 153.816 196.23 153.389 196.006 152.888C195.793 152.376 195.686 151.789 195.686 151.128V150.936C195.686 150.285 195.793 149.709 196.006 149.208C196.23 148.696 196.524 148.264 196.886 147.912C197.26 147.56 197.686 147.293 198.166 147.112C198.646 146.931 199.148 146.84 199.67 146.84C200.193 146.84 200.694 146.931 201.174 147.112C201.654 147.293 202.076 147.56 202.438 147.912C202.812 148.264 203.105 148.696 203.318 149.208C203.542 149.709 203.654 150.285 203.654 150.936V151.128ZM199.67 154.04C200.054 154.04 200.406 153.976 200.726 153.848C201.057 153.709 201.345 153.512 201.59 153.256C201.836 153 202.028 152.696 202.166 152.344C202.305 151.981 202.374 151.576 202.374 151.128V150.936C202.374 150.509 202.305 150.12 202.166 149.768C202.028 149.405 201.836 149.096 201.59 148.84C201.345 148.584 201.057 148.387 200.726 148.248C200.396 148.099 200.044 148.024 199.67 148.024C199.297 148.024 198.945 148.099 198.614 148.248C198.284 148.387 197.996 148.584 197.75 148.84C197.505 149.096 197.313 149.405 197.174 149.768C197.036 150.12 196.966 150.509 196.966 150.936V151.128C196.966 151.576 197.036 151.981 197.174 152.344C197.313 152.696 197.505 153 197.75 153.256C197.996 153.512 198.278 153.709 198.598 153.848C198.929 153.976 199.286 154.04 199.67 154.04ZM208.907 144.696C208.907 144.387 209.014 144.125 209.227 143.912C209.451 143.688 209.718 143.576 210.027 143.576C210.336 143.576 210.598 143.688 210.811 143.912C211.035 144.125 211.147 144.387 211.147 144.696C211.147 145.005 211.035 145.272 210.811 145.496C210.598 145.709 210.336 145.816 210.027 145.816C209.718 145.816 209.451 145.709 209.227 145.496C209.014 145.272 208.907 145.005 208.907 144.696ZM206.635 153.848H209.419V148.216H206.923V147.064H210.667V153.848H213.259V155H206.635V153.848ZM217.968 155H216.72V147.064H217.968V148.408H218.16C218.651 147.363 219.504 146.84 220.72 146.84C221.637 146.84 222.368 147.128 222.912 147.704C223.456 148.269 223.728 149.123 223.728 150.264V155H222.48V150.52C222.48 149.688 222.293 149.064 221.92 148.648C221.547 148.232 221.04 148.024 220.4 148.024C219.643 148.024 219.045 148.285 218.608 148.808C218.181 149.32 217.968 150.008 217.968 150.872V155ZM233.029 153.784H232.837C232.581 154.264 232.229 154.627 231.781 154.872C231.344 155.107 230.864 155.224 230.341 155.224C229.808 155.224 229.306 155.133 228.837 154.952C228.368 154.771 227.952 154.509 227.589 154.168C227.237 153.827 226.954 153.405 226.741 152.904C226.538 152.392 226.437 151.811 226.437 151.16V150.904C226.437 150.264 226.544 149.693 226.757 149.192C226.97 148.68 227.253 148.253 227.605 147.912C227.957 147.56 228.368 147.293 228.837 147.112C229.306 146.931 229.797 146.84 230.309 146.84C230.885 146.84 231.386 146.968 231.813 147.224C232.25 147.469 232.592 147.832 232.837 148.312H233.029V147.064H234.277V156.952C234.277 157.315 234.16 157.613 233.925 157.848C233.701 158.083 233.408 158.2 233.045 158.2H227.877V157.048H232.597C232.885 157.048 233.029 156.888 233.029 156.568V153.784ZM230.373 154.04C230.746 154.04 231.093 153.971 231.413 153.832C231.733 153.693 232.01 153.496 232.245 153.24C232.49 152.984 232.682 152.68 232.821 152.328C232.96 151.965 233.029 151.565 233.029 151.128V150.936C233.029 150.509 232.96 150.12 232.821 149.768C232.682 149.405 232.49 149.096 232.245 148.84C232.01 148.584 231.728 148.387 231.397 148.248C231.077 148.099 230.736 148.024 230.373 148.024C230 148.024 229.648 148.093 229.317 148.232C228.997 148.371 228.714 148.568 228.469 148.824C228.234 149.08 228.048 149.384 227.909 149.736C227.781 150.088 227.717 150.477 227.717 150.904V151.16C227.717 151.608 227.781 152.008 227.909 152.36C228.048 152.712 228.234 153.016 228.469 153.272C228.714 153.517 228.997 153.709 229.317 153.848C229.637 153.976 229.989 154.04 230.373 154.04ZM254.975 152.184C254.889 152.621 254.74 153.027 254.527 153.4C254.324 153.773 254.063 154.099 253.743 154.376C253.423 154.643 253.049 154.851 252.623 155C252.196 155.149 251.721 155.224 251.199 155.224C250.644 155.224 250.116 155.133 249.615 154.952C249.124 154.771 248.692 154.509 248.319 154.168C247.945 153.816 247.647 153.389 247.423 152.888C247.209 152.387 247.103 151.811 247.103 151.16V150.968C247.103 150.328 247.209 149.752 247.423 149.24C247.647 148.728 247.945 148.296 248.319 147.944C248.692 147.592 249.124 147.32 249.615 147.128C250.116 146.936 250.644 146.84 251.199 146.84C251.7 146.84 252.164 146.915 252.591 147.064C253.017 147.213 253.391 147.427 253.711 147.704C254.041 147.971 254.308 148.291 254.511 148.664C254.724 149.037 254.868 149.443 254.943 149.88L253.695 150.168C253.663 149.891 253.583 149.624 253.455 149.368C253.337 149.101 253.172 148.872 252.959 148.68C252.756 148.477 252.505 148.317 252.207 148.2C251.908 148.083 251.561 148.024 251.167 148.024C250.783 148.024 250.42 148.099 250.079 148.248C249.748 148.387 249.455 148.589 249.199 148.856C248.943 149.112 248.74 149.421 248.591 149.784C248.452 150.147 248.383 150.541 248.383 150.968V151.16C248.383 151.608 248.452 152.013 248.591 152.376C248.74 152.728 248.943 153.027 249.199 153.272C249.455 153.517 249.753 153.709 250.095 153.848C250.436 153.976 250.804 154.04 251.199 154.04C251.593 154.04 251.935 153.981 252.223 153.864C252.521 153.736 252.772 153.576 252.975 153.384C253.188 153.181 253.353 152.952 253.471 152.696C253.599 152.44 253.684 152.173 253.727 151.896L254.975 152.184ZM257.827 153.848H260.707V144.952H257.923V143.8H261.955V153.848H264.835V155H257.827V153.848ZM273.864 153.656H273.672C273.416 154.189 273.059 154.584 272.6 154.84C272.152 155.096 271.678 155.224 271.176 155.224C270.654 155.224 270.168 155.139 269.72 154.968C269.272 154.787 268.878 154.525 268.536 154.184C268.206 153.832 267.944 153.405 267.752 152.904C267.56 152.403 267.464 151.821 267.464 151.16V150.904C267.464 150.253 267.56 149.677 267.752 149.176C267.944 148.675 268.206 148.253 268.536 147.912C268.878 147.56 269.272 147.293 269.72 147.112C270.168 146.931 270.643 146.84 271.144 146.84C271.688 146.84 272.179 146.963 272.616 147.208C273.064 147.443 273.416 147.811 273.672 148.312H273.864V147.064H275.112V153.368C275.112 153.688 275.256 153.848 275.544 153.848H275.944V155H275.096C274.734 155 274.435 154.883 274.2 154.648C273.976 154.413 273.864 154.115 273.864 153.752V153.656ZM271.304 154.04C271.678 154.04 272.019 153.971 272.328 153.832C272.648 153.693 272.92 153.496 273.144 153.24C273.368 152.984 273.544 152.68 273.672 152.328C273.8 151.965 273.864 151.565 273.864 151.128V150.936C273.864 150.509 273.8 150.12 273.672 149.768C273.544 149.405 273.363 149.096 273.128 148.84C272.904 148.584 272.632 148.387 272.312 148.248C272.003 148.099 271.667 148.024 271.304 148.024C270.931 148.024 270.59 148.093 270.28 148.232C269.971 148.371 269.699 148.568 269.464 148.824C269.24 149.069 269.064 149.373 268.936 149.736C268.808 150.088 268.744 150.477 268.744 150.904V151.16C268.744 152.067 268.979 152.776 269.448 153.288C269.928 153.789 270.547 154.04 271.304 154.04ZM280.029 149.112C280.029 149.496 280.189 149.789 280.509 149.992C280.84 150.195 281.437 150.328 282.301 150.392C283.229 150.467 283.933 150.691 284.413 151.064C284.904 151.427 285.149 151.96 285.149 152.664V152.76C285.149 153.144 285.069 153.491 284.909 153.8C284.76 154.099 284.547 154.355 284.269 154.568C284.003 154.781 283.672 154.941 283.277 155.048C282.893 155.165 282.472 155.224 282.013 155.224C281.395 155.224 280.861 155.144 280.413 154.984C279.976 154.813 279.608 154.595 279.309 154.328C279.021 154.051 278.803 153.741 278.653 153.4C278.504 153.048 278.419 152.696 278.397 152.344L279.581 152.056C279.635 152.664 279.869 153.155 280.285 153.528C280.701 153.891 281.256 154.072 281.949 154.072C282.536 154.072 283.005 153.96 283.357 153.736C283.72 153.501 283.901 153.176 283.901 152.76C283.901 152.312 283.725 151.992 283.373 151.8C283.021 151.608 282.451 151.485 281.661 151.432C280.744 151.368 280.04 151.155 279.549 150.792C279.059 150.429 278.813 149.901 278.813 149.208V149.112C278.813 148.739 278.893 148.413 279.053 148.136C279.213 147.848 279.427 147.608 279.693 147.416C279.971 147.224 280.28 147.08 280.621 146.984C280.963 146.888 281.32 146.84 281.693 146.84C282.216 146.84 282.675 146.915 283.069 147.064C283.464 147.203 283.795 147.389 284.061 147.624C284.328 147.848 284.531 148.109 284.669 148.408C284.819 148.707 284.915 149.005 284.957 149.304L283.773 149.592C283.72 149.08 283.512 148.68 283.149 148.392C282.797 148.104 282.333 147.96 281.757 147.96C281.533 147.96 281.315 147.987 281.101 148.04C280.899 148.083 280.717 148.152 280.557 148.248C280.397 148.344 280.269 148.467 280.173 148.616C280.077 148.755 280.029 148.92 280.029 149.112ZM290.306 149.112C290.306 149.496 290.466 149.789 290.786 149.992C291.117 150.195 291.714 150.328 292.578 150.392C293.506 150.467 294.21 150.691 294.69 151.064C295.181 151.427 295.426 151.96 295.426 152.664V152.76C295.426 153.144 295.346 153.491 295.186 153.8C295.037 154.099 294.823 154.355 294.546 154.568C294.279 154.781 293.949 154.941 293.554 155.048C293.17 155.165 292.749 155.224 292.29 155.224C291.671 155.224 291.138 155.144 290.69 154.984C290.253 154.813 289.885 154.595 289.586 154.328C289.298 154.051 289.079 153.741 288.93 153.4C288.781 153.048 288.695 152.696 288.674 152.344L289.858 152.056C289.911 152.664 290.146 153.155 290.562 153.528C290.978 153.891 291.533 154.072 292.226 154.072C292.813 154.072 293.282 153.96 293.634 153.736C293.997 153.501 294.178 153.176 294.178 152.76C294.178 152.312 294.002 151.992 293.65 151.8C293.298 151.608 292.727 151.485 291.938 151.432C291.021 151.368 290.317 151.155 289.826 150.792C289.335 150.429 289.09 149.901 289.09 149.208V149.112C289.09 148.739 289.17 148.413 289.33 148.136C289.49 147.848 289.703 147.608 289.97 147.416C290.247 147.224 290.557 147.08 290.898 146.984C291.239 146.888 291.597 146.84 291.97 146.84C292.493 146.84 292.951 146.915 293.346 147.064C293.741 147.203 294.071 147.389 294.338 147.624C294.605 147.848 294.807 148.109 294.946 148.408C295.095 148.707 295.191 149.005 295.234 149.304L294.05 149.592C293.997 149.08 293.789 148.68 293.426 148.392C293.074 148.104 292.61 147.96 292.034 147.96C291.81 147.96 291.591 147.987 291.378 148.04C291.175 148.083 290.994 148.152 290.834 148.248C290.674 148.344 290.546 148.467 290.45 148.616C290.354 148.755 290.306 148.92 290.306 149.112ZM299.847 151.416C299.879 152.205 300.124 152.84 300.583 153.32C301.042 153.8 301.682 154.04 302.503 154.04C302.876 154.04 303.202 153.997 303.479 153.912C303.756 153.827 303.991 153.709 304.183 153.56C304.386 153.411 304.546 153.24 304.663 153.048C304.791 152.845 304.892 152.632 304.967 152.408L306.151 152.728C305.927 153.464 305.511 154.067 304.903 154.536C304.306 154.995 303.495 155.224 302.471 155.224C301.906 155.224 301.383 155.128 300.903 154.936C300.434 154.733 300.028 154.451 299.687 154.088C299.346 153.725 299.079 153.293 298.887 152.792C298.695 152.291 298.599 151.736 298.599 151.128V150.744C298.599 150.189 298.695 149.672 298.887 149.192C299.09 148.712 299.367 148.301 299.719 147.96C300.071 147.608 300.482 147.336 300.951 147.144C301.431 146.941 301.948 146.84 302.503 146.84C303.154 146.84 303.714 146.963 304.183 147.208C304.663 147.443 305.052 147.736 305.351 148.088C305.66 148.44 305.884 148.824 306.023 149.24C306.172 149.656 306.247 150.04 306.247 150.392V151.416H299.847ZM302.503 148.024C302.151 148.024 301.82 148.083 301.511 148.2C301.212 148.307 300.946 148.461 300.711 148.664C300.487 148.867 300.3 149.107 300.151 149.384C300.012 149.651 299.922 149.944 299.879 150.264H304.999C304.978 149.923 304.892 149.613 304.743 149.336C304.604 149.059 304.418 148.824 304.183 148.632C303.959 148.44 303.698 148.291 303.399 148.184C303.111 148.077 302.812 148.024 302.503 148.024ZM310.86 149.112C310.86 149.496 311.02 149.789 311.34 149.992C311.671 150.195 312.268 150.328 313.132 150.392C314.06 150.467 314.764 150.691 315.244 151.064C315.735 151.427 315.98 151.96 315.98 152.664V152.76C315.98 153.144 315.9 153.491 315.74 153.8C315.591 154.099 315.377 154.355 315.1 154.568C314.833 154.781 314.503 154.941 314.108 155.048C313.724 155.165 313.303 155.224 312.844 155.224C312.225 155.224 311.692 155.144 311.244 154.984C310.807 154.813 310.439 154.595 310.14 154.328C309.852 154.051 309.633 153.741 309.484 153.4C309.335 153.048 309.249 152.696 309.228 152.344L310.412 152.056C310.465 152.664 310.7 153.155 311.116 153.528C311.532 153.891 312.087 154.072 312.78 154.072C313.367 154.072 313.836 153.96 314.188 153.736C314.551 153.501 314.732 153.176 314.732 152.76C314.732 152.312 314.556 151.992 314.204 151.8C313.852 151.608 313.281 151.485 312.492 151.432C311.575 151.368 310.871 151.155 310.38 150.792C309.889 150.429 309.644 149.901 309.644 149.208V149.112C309.644 148.739 309.724 148.413 309.884 148.136C310.044 147.848 310.257 147.608 310.524 147.416C310.801 147.224 311.111 147.08 311.452 146.984C311.793 146.888 312.151 146.84 312.524 146.84C313.047 146.84 313.505 146.915 313.9 147.064C314.295 147.203 314.625 147.389 314.892 147.624C315.159 147.848 315.361 148.109 315.5 148.408C315.649 148.707 315.745 149.005 315.788 149.304L314.604 149.592C314.551 149.08 314.343 148.68 313.98 148.392C313.628 148.104 313.164 147.96 312.588 147.96C312.364 147.96 312.145 147.987 311.932 148.04C311.729 148.083 311.548 148.152 311.388 148.248C311.228 148.344 311.1 148.467 311.004 148.616C310.908 148.755 310.86 148.92 310.86 149.112ZM321.873 154.104C321.873 153.795 321.979 153.533 322.193 153.32C322.417 153.096 322.683 152.984 322.993 152.984C323.302 152.984 323.563 153.096 323.777 153.32C324.001 153.533 324.113 153.795 324.113 154.104C324.113 154.413 324.001 154.68 323.777 154.904C323.563 155.117 323.302 155.224 322.993 155.224C322.683 155.224 322.417 155.117 322.193 154.904C321.979 154.68 321.873 154.413 321.873 154.104ZM332.15 154.104C332.15 153.795 332.256 153.533 332.47 153.32C332.694 153.096 332.96 152.984 333.27 152.984C333.579 152.984 333.84 153.096 334.054 153.32C334.278 153.533 334.39 153.795 334.39 154.104C334.39 154.413 334.278 154.68 334.054 154.904C333.84 155.117 333.579 155.224 333.27 155.224C332.96 155.224 332.694 155.117 332.47 154.904C332.256 154.68 332.15 154.413 332.15 154.104Z" fill="white"/>
<defs>
<filter id="filter0_b_553_192" x="-30" y="-30" width="516" height="245" filterUnits="userSpaceOnUse" color-interpolation-filters="sRGB">
<feFlood flood-opacity="0" result="BackgroundImageFix"/>
<feGaussianBlur in="BackgroundImageFix" stdDeviation="15"/>
<feComposite in2="SourceAlpha" operator="in" result="effect1_backgroundBlur_553_192"/>
<feBlend mode="normal" in="SourceGraphic" in2="effect1_backgroundBlur_553_192" result="shape"/>
</filter>
</defs>
</svg>
